<svg xmlns="http://www.w3.org/2000/svg" viewBox="0 0 640 161.41"><defs><style>.cls-1{fill:#191d23;}.cls-2{fill:#3c31d4;}</style></defs><title>oo-logo-on-light</title><g id="Layer_2" data-name="Layer 2"><g id="Layer_1-2" data-name="Layer 1"><path class="cls-1" d="M35.82,28.36c0-10.29-3.36-14.6-9.35-14.6s-9.35,4.31-9.35,14.6V40.12c0,10.3,3.36,14.6,9.35,14.6s9.35-4.3,9.35-14.6Zm17.12,8.19c0,19-8.51,31.93-26.47,31.93S0,55.56,0,36.55V31.93C0,12.92,8.51,0,26.47,0S52.94,12.92,52.94,31.93Zm36.77-3.78c6,0,8.93-2.41,8.93-9.14s-2.94-9.24-8.93-9.24H83.61V32.77ZM83.61,67.33H67.12V1.16H91.18c15.75,0,23.42,8.09,23.42,22.37C114.6,38,106.93,46,91.18,46H83.61Z"/><polygon class="cls-1" points="169.43 67.33 127.63 67.33 127.63 1.16 169.22 1.16 169.22 14.81 143.91 14.81 143.91 27.1 162.81 27.1 162.81 40.54 143.91 40.54 143.91 53.67 169.43 53.67 169.43 67.33"/><polygon class="cls-1" points="218.07 35.82 218.49 35.82 218.49 1.16 233.61 1.16 233.61 67.33 220.91 67.33 199.48 29.62 199.06 29.62 199.06 67.33 183.83 67.33 183.83 1.16 199.37 1.16 218.07 35.82"/><path class="cls-1" d="M35.82,121.29c0-10.29-3.36-14.6-9.35-14.6s-9.35,4.3-9.35,14.6V133c0,10.29,3.36,14.6,9.35,14.6s9.35-4.3,9.35-14.6Zm17.12,8.19c0,19-8.51,31.93-26.47,31.93S0,148.49,0,129.48v-4.62c0-19,8.51-31.93,26.47-31.93s26.47,12.92,26.47,31.93Z"/><polygon class="cls-1" points="106.83 94.08 113.13 132.63 113.55 132.63 120.48 94.08 135.92 94.08 122.48 160.26 106.2 160.26 98.95 117.82 98.53 117.82 91.28 160.26 75 160.26 61.56 94.08 78.05 94.08 84.67 132.63 85.08 132.63 91.7 94.08 106.83 94.08"/><polygon class="cls-1" points="182.04 128.74 182.46 128.74 182.46 94.08 197.58 94.08 197.58 160.25 184.88 160.25 163.45 122.55 163.03 122.55 163.03 160.25 147.8 160.25 147.8 94.08 163.34 94.08 182.04 128.74"/><polygon class="cls-1" points="255.25 160.26 213.45 160.26 213.45 94.08 255.04 94.08 255.04 107.73 229.73 107.73 229.73 120.03 248.64 120.03 248.64 133.47 229.73 133.47 229.73 146.6 255.25 146.6 255.25 160.26"/><path class="cls-1" d="M293.18,124.33c6.2,0,9.24-2.63,9.24-8.4,0-5.36-3-8.61-9.24-8.61h-7.25v17Zm9.24,35.92c-1.26-2.63-2-6.41-2.42-14.29-.31-6.09-2.1-8.82-7.46-8.82h-6.62v23.11H269.65V94.08h24.16c16.91,0,24.79,8,24.79,20.8,0,9.24-5.46,14.91-11.45,16.39,5.88,1.89,8.3,5.67,8.93,14,.74,9,1.16,12.19,3,15Zm50.53-67.33c15.76,0,23.95,9.13,23.95,22.37V117H362.19v-1.05c0-6.3-2.94-10.4-9.35-10.4-4.31,0-6.93,2.52-6.93,6.3,0,3,1.79,4.94,5.25,6.09l9.77,3.26c10.71,3.57,17,8.82,17,19.43,0,13.55-10,20.8-23.32,20.8-16,0-25-8.82-25-22.26v-1.47h14.81v.95c0,6.3,3.47,10.19,10.09,10.19,4.52,0,7.35-2.31,7.35-6.09,0-3.46-1.89-5.15-5.88-6.41l-10.09-3.15c-8.93-2.84-15.65-7.88-15.65-19.43,0-12.29,8.82-20.8,22.69-20.8"/><polygon class="cls-1" points="391.61 160.26 391.61 94.08 408.2 94.08 408.2 120.03 427.11 120.03 427.11 94.08 443.7 94.08 443.7 160.26 427.11 160.26 427.11 133.47 408.2 133.47 408.2 160.26 391.61 160.26"/><polygon class="cls-1" points="459.57 160.26 476.17 160.26 476.17 94.08 459.57 94.08 459.57 160.26"/><path class="cls-1" d="M514.61,125.7c6,0,8.93-2.42,8.93-9.14s-2.94-9.25-8.93-9.25h-6.09V125.7Zm-6.09,34.56H492V94.08h24.05c15.76,0,23.42,8.09,23.42,22.37,0,14.5-7.67,22.48-23.42,22.48h-7.56Z"/><path class="cls-2" d="M632.35,61.67l-7.71-4.55H609.91V53h7.71l-7.71-4.55v-4H640v4H616.91L624.85,53H640v4.14h-7.93L640,61.67v4.51H609.91V61.67ZM604.84,18.12,640,13.58V9.06H573.81v4.51H607l-33.22,4.55v4H640v-4Zm-31-13.61H640V0H573.81Zm0,26.31H640V26.68H573.81Zm36.1,9.06H640V35.37H609.91Z"/></g></g></svg>