<?xml version="1.0" encoding="UTF-8"?>
<svg width="234px" height="234px" viewBox="0 0 234 234" version="1.1" xmlns="http://www.w3.org/2000/svg" xmlns:xlink="http://www.w3.org/1999/xlink">
    <!-- Generator: Sketch 52.3 (67297) - http://www.bohemiancoding.com/sketch -->
    <title>Site / Illustrations / Building</title>
    <desc>Created with Sketch.</desc>
    <g id="Site-/-Illustrations-/-Building" stroke="none" stroke-width="1" fill="none" fill-rule="evenodd">
        <g id="undraw_QA_engineers_dg5p" transform="translate(0.000000, 35.000000)">
            <path d="M230.036354,133.667915 C224.240328,145.667645 212.464966,153.691547 200.26625,158.983163 C190.499324,163.191849 180.175165,165.955874 169.616704,167.18878 C167.594496,167.429607 165.565742,167.61643 163.53044,167.749249 C158.329669,168.08933 153.112156,168.083479 147.912156,167.731735 C144.78428,167.523018 141.667315,167.18951 138.561262,166.73121 C127.768772,165.151606 117.246854,162.077681 107.296325,157.597316 C104.424498,156.299772 101.610865,154.883274 98.8554243,153.347822 C94.2531363,150.78863 89.8434499,147.895382 85.6616077,144.691203 C84.7363384,143.981859 83.8227076,143.25719 82.9207155,142.517196 L82.5497349,142.212879 C81.8405073,141.626138 81.1378263,141.026261 80.4242342,140.443898 C79.2381282,139.447102 77.979072,138.541089 76.6576898,137.733505 C76.568218,137.680961 76.4787462,137.628417 76.3870921,137.578063 C76.1426814,137.435756 75.8939061,137.302207 75.6407664,137.175226 C75.1192774,136.911474 74.5846548,136.674716 74.039003,136.465882 C71.518517,135.502576 68.8190875,135.152283 66.0825598,135.211395 C65.6286541,135.211395 65.1747484,135.242045 64.7186605,135.272696 C64.0814467,135.316483 63.4420507,135.382162 62.8048369,135.465357 L62.5691551,135.498197 C60.5386175,135.786474 58.5310138,136.218857 56.5614513,136.792092 C53.5194102,137.667825 50.5319251,138.762491 47.5247998,139.74988 C46.24819,140.172421 44.969398,140.575258 43.6796948,140.936498 L43.3960037,141.015314 C41.5617239,141.532942 39.6945238,141.925005 37.8072898,142.188796 C33.5186464,142.73885 29.1628233,142.386925 25.0171873,141.155431 L24.8731595,141.113834 L24.6069264,141.035018 L24.2424925,140.921173 C23.6314656,140.728512 23.0255306,140.517606 22.4246874,140.288456 L22.0602535,140.148339 C21.4783231,139.923567 20.9087588,139.682011 20.3515604,139.42367 L19.9871265,139.25728 C19.4051961,138.985803 18.8356318,138.699001 18.2784334,138.396873 C18.0776674,138.291785 17.8790837,138.17794 17.6826822,138.070662 C17.0891132,137.737884 16.5071828,137.38905 15.936891,137.024162 C15.3316834,136.63738 14.7395693,136.233813 14.1605485,135.813461 C13.8928606,135.6208 13.6280822,135.42303 13.3662136,135.220152 C11.8566411,134.061762 10.4430246,132.782663 9.13921671,131.395389 C9.06720283,131.323141 8.99955342,131.248703 8.93190401,131.176455 C8.58492802,130.79989 8.24449875,130.416757 7.91498066,130.024867 C7.79277528,129.880371 7.6705699,129.735875 7.55054676,129.587 C7.15919858,129.108266 6.78167124,128.618586 6.41796475,128.117958 C6.36340877,128.04571 6.31103504,127.971273 6.2586613,127.899025 C4.76761936,125.830278 3.53149476,123.588171 2.5772242,121.221562 C2.54667285,121.149314 2.51830375,121.074877 2.49211688,121.002629 C2.20115169,120.250958 1.93564595,119.486881 1.69559966,118.710398 C1.59739891,118.386377 1.50356264,118.053598 1.42063756,117.729577 C1.39226845,117.633247 1.36608158,117.534727 1.34207695,117.438396 C0.137481054,112.680977 0,107.735276 0,102.818036 C0,102.244431 0,101.671555 0,101.09941 C0.0349158232,93.1455662 0.157121204,85.0559838 1.32680128,77.2116067 C1.32680128,77.1568733 1.34207695,77.10214 1.35080591,77.0495961 C1.74229106,74.4087796 2.27479609,71.7909506 2.94602258,69.2074082 C3.64852677,66.4965682 4.54633346,63.8404906 5.63235872,61.2601324 C8.32305935,54.9110691 12.2358138,49.1334215 16.5806515,43.778315 C21.818025,37.3351105 27.8191821,31.3888843 34.50338,26.4825909 C35.4635651,25.7776259 36.4368437,25.0930947 37.4232157,24.4289973 L37.8793037,24.1290588 C38.0386071,24.0217815 38.1979105,23.9101256 38.357214,23.8159843 C38.6845498,23.5970511 39.0118857,23.3912538 39.343586,23.1832673 L39.7145666,22.9511981 L40.421612,22.5133316 L40.6398359,22.3885397 L41.0173633,22.1696065 L41.3905261,21.9506733 C41.8269739,21.6923321 42.2685136,21.4398291 42.7151452,21.1931643 C44.622422,20.1262298 46.5747985,19.1512472 48.5722745,18.2682166 C49.161479,18.0069563 49.7543206,17.7551831 50.3507992,17.512897 C53.058855,16.4063796 55.8407201,15.491196 58.6760408,14.7740424 C59.7235155,14.5084034 60.7775369,14.2748747 61.8381051,14.0734561 C63.0892554,13.83117 64.3469524,13.6304812 65.6111962,13.4713898 C67.6229973,13.2174428 69.6463576,13.066184 71.673456,13.018198 C85.9278408,12.6700942 100.326253,17.3246144 111.497135,26.246143 C115.948902,29.8016184 119.948946,34.0117042 124.948455,36.7374228 C129.312933,39.1106588 134.421555,40.093669 139.095911,38.2261686 C142.958473,36.6826895 145.472413,35.9164232 149.810704,36.1506817 C158.787704,36.6579901 167.637884,38.5148124 176.065221,41.6590415 C176.40565,41.7838334 176.746079,41.913004 177.084326,42.0421746 C199.061655,50.4820502 217.957662,67.2413879 227.773372,88.7778485 C228.032331,89.3470749 228.284744,89.9206799 228.530609,90.4986636 C234.385556,104.21483 236.497964,120.295474 230.036354,133.667915 Z" id="Path" fill="#6C63FF" opacity="0.1"></path>
            <path d="M44,58.1026192 L44,141.488681 L43.7142286,141.567853 C41.866498,142.087822 39.9856056,142.481657 38.0845324,142.746641 C33.7644402,143.299182 29.3766757,142.945666 25.2006395,141.708604 L25.0555556,141.666819 L24.7873701,141.587646 L24.4202638,141.473286 C23.8047562,141.279754 23.1943778,141.067894 22.5891287,140.837708 L22.2220224,140.696957 C21.6358247,140.47117 21.0620837,140.228521 20.5007994,139.969012 L20.133693,139.80187 C19.5474953,139.529165 18.9737543,139.241066 18.41247,138.937572 C18.2102318,138.832009 18.0101918,138.717649 17.8123501,138.609887 C17.2144285,138.275604 16.6282307,137.925193 16.053757,137.558654 C15.4441114,137.170123 14.8476552,136.764731 14.2643885,136.342479 C13.9947375,136.148947 13.7280176,135.950283 13.4642286,135.746487 C11.9435864,134.58286 10.5196038,133.297977 9.20623501,131.90443 C9.13369305,131.831855 9.06554756,131.757081 8.99740208,131.684507 C8.64788169,131.306239 8.30495604,130.921373 7.97302158,130.527711 C7.84992006,130.382562 7.72681855,130.237412 7.60591527,130.087865 C7.21169731,129.606966 6.83140155,129.115071 6.46502798,128.61218 C6.41007194,128.539606 6.35731415,128.464832 6.30455635,128.392257 C4.80258053,126.314156 3.55739138,124.061911 2.5961231,121.684601 C2.56534772,121.612026 2.53677058,121.537253 2.51039169,121.464678 C2.21729283,120.709608 1.94984013,119.942077 1.70803357,119.162083 C1.60911271,118.836596 1.51458833,118.502313 1.43105516,118.176827 C1.40247802,118.080061 1.37609912,117.981095 1.35191847,117.884329 C0.138489209,113.105399 0,108.137335 0,103.197861 C0,102.621662 0,102.046197 0,101.471464 C0.0351718625,93.4816563 0.158273381,85.3554959 1.33653078,77.4756495 C1.33653078,77.4206687 1.35191847,77.3656879 1.36071143,77.3129063 C1.75506736,74.6601491 2.29147728,72.0304833 2.9676259,69.4352591 L25.4160671,69.4352591 L25.4160671,58.1026192 L29.8916867,58.1026192 L29.8916867,49 L39.5243805,49 L39.5243805,58.1026192 L44,58.1026192 Z" id="Path" fill="#6C63FF" opacity="0.1"></path>
            <path d="M230.036058,133.488826 C224.238593,145.551151 212.46031,153.616909 200.258567,158.936128 C190.489217,163.166768 180.162496,165.945211 169.601416,167.184549 C167.578707,167.426631 165.549448,167.614429 163.513642,167.747941 C158.31158,168.089796 153.092773,168.083914 147.891482,167.730335 C144.762831,167.52053 141.645093,167.185282 138.538268,166.724591 C127.743101,165.136747 117.218572,162.046788 107.265573,157.543052 C104.393034,156.238739 101.578703,154.814852 98.8225788,153.271391 C94.2191488,150.698849 89.8083683,147.790509 85.6254885,144.569616 C84.6999896,143.856572 83.7861322,143.128123 82.8839163,142.384268 L82.5128436,142.078364 C81.80344,141.488562 81.1005847,140.885556 80.3868155,140.300156 C79.2004152,139.298159 77.9410466,138.38742 76.6193365,137.575624 C76.5298425,137.522806 76.4403485,137.469988 76.3486717,137.419371 C76.1042003,137.276322 75.8553633,137.142076 75.6021608,137.014432 C75.0805424,136.749305 74.5457871,136.511312 74,136.301388 L74,102.165515 L114.510222,102.165515 L114.510222,109.764714 L132.288968,109.764714 L132.288968,54.1781062 L153.215284,54.1781062 L153.215284,76.4057069 L163.566029,76.4057069 L163.566029,63.2452067 L172.118162,63.2452067 L172.118162,49.1867995 L176.047167,49.1867995 L176.047167,41 C176.387681,41.1254429 176.728194,41.2552873 177.066525,41.3851317 L177.066525,49.1867995 L180.890757,49.1867995 L180.890757,63.2540097 L189.436342,63.2540097 L189.436342,76.41451 L202.037533,76.41451 L202.037533,126.554255 L222.066726,126.554255 L222.066726,90.0899863 L228.521208,90.0899863 C234.386339,103.882102 236.49927,120.04663 230.036058,133.488826 Z" id="Path" fill="#6C63FF" opacity="0.1"></path>
            <rect id="Rectangle" fill="#6C63FF" opacity="0.1" x="139" y="63" width="9" height="9"></rect>
            <rect id="Rectangle" fill="#6C63FF" opacity="0.1" x="139" y="83" width="9" height="9"></rect>
            <rect id="Rectangle" fill="#6C63FF" opacity="0.1" x="139" y="102" width="9" height="9"></rect>
            <rect id="Rectangle" fill="#6C63FF" opacity="0.1" x="139" y="122" width="9" height="9"></rect>
            <rect id="Rectangle" fill="#6C63FF" opacity="0.1" x="139" y="141" width="9" height="9"></rect>
            <path d="M148,160 L148,168 C144.989498,167.774626 141.989498,167.4145 139,166.919622 L139,160 L148,160 Z" id="Path" fill="#6C63FF" opacity="0.1"></path>
            <rect id="Rectangle" fill="#6C63FF" opacity="0.1" x="77" y="115" width="32" height="4"></rect>
            <rect id="Rectangle" fill="#6C63FF" opacity="0.1" x="77" y="128" width="32" height="4"></rect>
            <path d="M109,141 L109,145 L85.1616731,145 C84.2497775,144.331959 83.3493523,143.649485 82.4603975,142.952577 L82.094779,142.665979 C81.3958024,142.113402 80.703278,141.548454 80,141 L109,141 Z" id="Path" fill="#6C63FF" opacity="0.1"></path>
            <path d="M109,153 L109,157 L106.445415,157 C103.572052,155.778636 100.756914,154.445303 98,153 L109,153 Z" id="Path" fill="#6C63FF" opacity="0.1"></path>
            <rect id="Rectangle" fill="#6C63FF" opacity="0.1" x="164" y="89" width="6" height="6"></rect>
            <rect id="Rectangle" fill="#6C63FF" opacity="0.1" x="32" y="60" width="6" height="6"></rect>
            <rect id="Rectangle" fill="#6C63FF" opacity="0.1" x="32" y="74" width="6" height="6"></rect>
            <rect id="Rectangle" fill="#6C63FF" opacity="0.1" x="32" y="89" width="6" height="6"></rect>
            <rect id="Rectangle" fill="#6C63FF" opacity="0.1" x="32" y="103" width="6" height="6"></rect>
            <rect id="Rectangle" fill="#6C63FF" opacity="0.1" x="32" y="117" width="6" height="6"></rect>
            <rect id="Rectangle" fill="#6C63FF" opacity="0.1" x="32" y="131" width="6" height="6"></rect>
            <rect id="Rectangle" fill="#6C63FF" opacity="0.1" x="187" y="89" width="6" height="6"></rect>
            <rect id="Rectangle" fill="#6C63FF" opacity="0.1" x="164" y="104" width="6" height="6"></rect>
            <rect id="Rectangle" fill="#6C63FF" opacity="0.1" x="187" y="104" width="6" height="6"></rect>
            <rect id="Rectangle" fill="#6C63FF" opacity="0.1" x="164" y="119" width="6" height="6"></rect>
            <rect id="Rectangle" fill="#6C63FF" opacity="0.1" x="187" y="119" width="6" height="6"></rect>
            <rect id="Rectangle" fill="#6C63FF" opacity="0.1" x="164" y="134" width="6" height="6"></rect>
            <rect id="Rectangle" fill="#6C63FF" opacity="0.1" x="187" y="134" width="6" height="6"></rect>
            <rect id="Rectangle" fill="#6C63FF" opacity="0.1" x="164" y="149" width="6" height="6"></rect>
            <rect id="Rectangle" fill="#6C63FF" opacity="0.1" x="187" y="149" width="6" height="6"></rect>
            <polygon id="Path" fill="#6C63FF" opacity="0.1" points="164 167 164 163 170 163 170 166.430795"></polygon>
            <path d="M2,77 L2,81 L25,81 L25,77 L2,77 Z M4.04837349,80.75 L2.3600825,80.75 L2.3600825,77.25 L4.04837349,77.25 L4.04837349,80.75 Z M6.09674698,80.75 L4.40845599,80.75 L4.40845599,77.25 L6.09674698,77.25 L6.09674698,80.75 Z M8.14512046,80.75 L6.45682947,80.75 L6.45682947,77.25 L8.14512046,77.25 L8.14512046,80.75 Z M10.193494,80.75 L8.50520296,80.75 L8.50520296,77.25 L10.193494,77.25 L10.193494,80.75 Z M12.2418674,80.75 L10.5535765,80.75 L10.5535765,77.25 L12.2418674,77.25 L12.2418674,80.75 Z M14.2902409,80.75 L12.6019499,80.75 L12.6019499,77.25 L14.2902409,77.25 L14.2902409,80.75 Z M16.3386144,80.75 L14.6503234,80.75 L14.6503234,77.25 L16.3386144,77.25 L16.3386144,80.75 Z M18.3869879,80.75 L16.6986969,80.75 L16.6986969,77.25 L18.3869879,77.25 L18.3869879,80.75 Z M20.4353614,80.75 L18.7470704,80.75 L18.7470704,77.25 L20.4353614,77.25 L20.4353614,80.75 Z M22.4837349,80.75 L20.7954439,80.75 L20.7954439,77.25 L22.4837349,77.25 L22.4837349,80.75 Z M24.6399175,80.75 L22.8438174,80.75 L22.8438174,77.25 L24.6399175,77.25 L24.6399175,80.75 Z" id="Shape" fill="#6C63FF" fill-rule="nonzero" opacity="0.1"></path>
            <path d="M2,88 L2,91 L25,91 L25,88 L2,88 Z M4.04837349,90.8119122 L2.3600825,90.8119122 L2.3600825,88.1880878 L4.04837349,88.1880878 L4.04837349,90.8119122 Z M6.09674698,90.8119122 L4.40845599,90.8119122 L4.40845599,88.1880878 L6.09674698,88.1880878 L6.09674698,90.8119122 Z M8.14512046,90.8119122 L6.45682947,90.8119122 L6.45682947,88.1880878 L8.14512046,88.1880878 L8.14512046,90.8119122 Z M10.193494,90.8119122 L8.50520296,90.8119122 L8.50520296,88.1880878 L10.193494,88.1880878 L10.193494,90.8119122 Z M12.2418674,90.8119122 L10.5535765,90.8119122 L10.5535765,88.1880878 L12.2418674,88.1880878 L12.2418674,90.8119122 Z M14.2902409,90.8119122 L12.6019499,90.8119122 L12.6019499,88.1880878 L14.2902409,88.1880878 L14.2902409,90.8119122 Z M16.3386144,90.8119122 L14.6503234,90.8119122 L14.6503234,88.1880878 L16.3386144,88.1880878 L16.3386144,90.8119122 Z M18.3869879,90.8119122 L16.6986969,90.8119122 L16.6986969,88.1880878 L18.3869879,88.1880878 L18.3869879,90.8119122 Z M20.4353614,90.8119122 L18.7470704,90.8119122 L18.7470704,88.1880878 L20.4353614,88.1880878 L20.4353614,90.8119122 Z M22.4837349,90.8119122 L20.7954439,90.8119122 L20.7954439,88.1880878 L22.4837349,88.1880878 L22.4837349,90.8119122 Z M24.6399175,90.8119122 L22.8438174,90.8119122 L22.8438174,88.1880878 L24.6399175,88.1880878 L24.6399175,90.8119122 Z" id="Shape" fill="#6C63FF" fill-rule="nonzero" opacity="0.1"></path>
            <path d="M2,98 L2,101 L25,101 L25,98 L2,98 Z M4.04837349,100.811912 L2.3600825,100.811912 L2.3600825,98.1880878 L4.04837349,98.1880878 L4.04837349,100.811912 Z M6.09674698,100.811912 L4.40845599,100.811912 L4.40845599,98.1880878 L6.09674698,98.1880878 L6.09674698,100.811912 Z M8.14512046,100.811912 L6.45682947,100.811912 L6.45682947,98.1880878 L8.14512046,98.1880878 L8.14512046,100.811912 Z M10.193494,100.811912 L8.50520296,100.811912 L8.50520296,98.1880878 L10.193494,98.1880878 L10.193494,100.811912 Z M12.2418674,100.811912 L10.5535765,100.811912 L10.5535765,98.1880878 L12.2418674,98.1880878 L12.2418674,100.811912 Z M14.2902409,100.811912 L12.6019499,100.811912 L12.6019499,98.1880878 L14.2902409,98.1880878 L14.2902409,100.811912 Z M16.3386144,100.811912 L14.6503234,100.811912 L14.6503234,98.1880878 L16.3386144,98.1880878 L16.3386144,100.811912 Z M18.3869879,100.811912 L16.6986969,100.811912 L16.6986969,98.1880878 L18.3869879,98.1880878 L18.3869879,100.811912 Z M20.4353614,100.811912 L18.7470704,100.811912 L18.7470704,98.1880878 L20.4353614,98.1880878 L20.4353614,100.811912 Z M22.4837349,100.811912 L20.7954439,100.811912 L20.7954439,98.1880878 L22.4837349,98.1880878 L22.4837349,100.811912 Z M24.6399175,100.811912 L22.8438174,100.811912 L22.8438174,98.1880878 L24.6399175,98.1880878 L24.6399175,100.811912 Z" id="Shape" fill="#6C63FF" fill-rule="nonzero" opacity="0.1"></path>
            <path d="M2,108 L2,112 L25,112 L25,108 L2,108 Z M4.04837349,111.75 L2.3600825,111.75 L2.3600825,108.25 L4.04837349,108.25 L4.04837349,111.75 Z M6.09674698,111.75 L4.40845599,111.75 L4.40845599,108.25 L6.09674698,108.25 L6.09674698,111.75 Z M8.14512046,111.75 L6.45682947,111.75 L6.45682947,108.25 L8.14512046,108.25 L8.14512046,111.75 Z M10.193494,111.75 L8.50520296,111.75 L8.50520296,108.25 L10.193494,108.25 L10.193494,111.75 Z M12.2418674,111.75 L10.5535765,111.75 L10.5535765,108.25 L12.2418674,108.25 L12.2418674,111.75 Z M14.2902409,111.75 L12.6019499,111.75 L12.6019499,108.25 L14.2902409,108.25 L14.2902409,111.75 Z M16.3386144,111.75 L14.6503234,111.75 L14.6503234,108.25 L16.3386144,108.25 L16.3386144,111.75 Z M18.3869879,111.75 L16.6986969,111.75 L16.6986969,108.25 L18.3869879,108.25 L18.3869879,111.75 Z M20.4353614,111.75 L18.7470704,111.75 L18.7470704,108.25 L20.4353614,108.25 L20.4353614,111.75 Z M22.4837349,111.75 L20.7954439,111.75 L20.7954439,108.25 L22.4837349,108.25 L22.4837349,111.75 Z M24.6399175,111.75 L22.8438174,111.75 L22.8438174,108.25 L24.6399175,108.25 L24.6399175,111.75 Z" id="Shape" fill="#6C63FF" fill-rule="nonzero" opacity="0.1"></path>
            <path d="M2,118 C2.08222013,118.375 2.1752587,118.75 2.27262465,119.12 L2.27262465,118.25 L3.9667921,118.25 L3.9667921,121.75 L3.06237065,121.75 C3.0883349,121.8325 3.11646284,121.9175 3.14675447,122 L25,122 L25,118 L2,118 Z M6.02229539,121.75 L4.32812794,121.75 L4.32812794,118.25 L6.02229539,118.25 L6.02229539,121.75 Z M8.07779868,121.75 L6.38363123,121.75 L6.38363123,118.25 L8.07779868,118.25 L8.07779868,121.75 Z M10.133302,121.75 L8.43913452,121.75 L8.43913452,118.25 L10.133302,118.25 L10.133302,121.75 Z M12.1888053,121.75 L10.4946378,121.75 L10.4946378,118.25 L12.1888053,118.25 L12.1888053,121.75 Z M14.2443086,121.75 L12.5501411,121.75 L12.5501411,118.25 L14.2443086,118.25 L14.2443086,121.75 Z M16.2998119,121.75 L14.6056444,121.75 L14.6056444,118.25 L16.2998119,118.25 L16.2998119,121.75 Z M18.3553151,121.75 L16.6611477,121.75 L16.6611477,118.25 L18.3553151,118.25 L18.3553151,121.75 Z M20.4108184,121.75 L18.716651,121.75 L18.716651,118.25 L20.4108184,118.25 L20.4108184,121.75 Z M22.4663217,121.75 L20.7721543,121.75 L20.7721543,118.25 L22.4663217,118.25 L22.4663217,121.75 Z M24.6300094,121.75 L22.8276576,121.75 L22.8276576,118.25 L24.6300094,118.25 L24.6300094,121.75 Z" id="Shape" fill="#6C63FF" fill-rule="nonzero" opacity="0.1"></path>
            <path d="M6,128 C6.05137353,128.082448 6.10274706,128.167395 6.15626115,128.249844 L7.2672137,128.249844 L7.2672137,129.926296 C7.3849447,130.093691 7.50481627,130.258588 7.62468783,130.425984 L7.62468783,128.252342 L9.3007492,128.252342 L9.3007492,131.750156 L8.62219051,131.750156 C8.68854798,131.832605 8.75490546,131.917552 8.82554406,132 L24,132 L24,128.002498 L6,128 Z M11.3342847,131.747658 L9.65822333,131.747658 L9.65822333,128.249844 L11.3342847,128.249844 L11.3342847,131.747658 Z M13.3678202,131.747658 L11.6917588,131.747658 L11.6917588,128.249844 L13.3678202,128.249844 L13.3678202,131.747658 Z M15.4013557,131.747658 L13.7252943,131.747658 L13.7252943,128.249844 L15.4013557,128.249844 L15.4013557,131.747658 Z M17.4348912,131.747658 L15.7588298,131.747658 L15.7588298,128.249844 L17.4348912,128.249844 L17.4348912,131.747658 Z M19.4684267,131.747658 L17.7923653,131.747658 L17.7923653,128.249844 L19.4684267,128.249844 L19.4684267,131.747658 Z M21.5019622,131.747658 L19.8259008,131.747658 L19.8259008,128.249844 L21.5019622,128.249844 L21.5019622,131.747658 Z M23.6425259,131.747658 L21.8594363,131.747658 L21.8594363,128.249844 L23.6425259,128.249844 L23.6425259,131.747658 Z" id="Shape" fill="#6C63FF" fill-rule="nonzero" opacity="0.1"></path>
            <path d="M18,138 C18.1985503,138.113166 18.3993066,138.221893 18.6022691,138.330621 L18.6022691,138.221893 L20.3296565,138.221893 L20.3296565,139.202663 L20.6980775,139.371302 L20.6980775,138.221893 L22.4254649,138.221893 L22.4254649,140.105769 L22.7938859,140.247781 L22.7938859,138.221893 L24.6315789,138.221893 L24.6315789,140.884615 L25,141 L25,138 L18,138 Z" id="Path" fill="#6C63FF" opacity="0.1"></path>
            <path d="M88.8890566,46.0079512 C88.8890566,46.0079512 83.4002332,45.6404384 84.0541031,49.902566 C83.9853124,50.3469365 84.1823283,50.7899028 84.5422032,51 C84.5422032,51 84.5422032,50.6835306 85.1039787,50.7907219 C85.3009983,50.8266012 85.5011213,50.8368794 85.7002897,50.8213479 C85.9696505,50.801691 86.2258836,50.6852097 86.4301374,50.4895656 C86.4301374,50.4895656 87.9727178,49.7826139 88.5736334,46.9879853 C88.5736334,46.9879853 89.0156863,46.3780162 88.9995698,46.2223337 L88.0786263,46.6613073 C88.0786263,46.6613073 88.3963518,47.4014372 88.147697,48.0165107 C88.147697,48.0165107 88.1177664,46.6893812 87.9381824,46.7200072 C87.903647,46.7200072 87.4569894,46.9752245 87.4569894,46.9752245 C87.4569894,46.9752245 88.0026484,48.2666236 87.5905262,49.2032708 C87.5905262,49.2032708 87.7470866,47.6158197 87.2889172,47.0696548 L86.6212332,47.4958676 C86.6212332,47.4958676 87.2589865,48.8281015 86.8261431,49.9153268 C86.8261431,49.9153268 86.9389587,48.2487584 86.485394,47.6005066 L85.8936878,48.1109411 C85.8936878,48.1109411 86.4923011,49.4227576 86.1239237,50.3262265 C86.1239237,50.3262265 86.0755741,48.3840235 85.7624533,48.2359975 C85.53777,48.4459266 85.3374678,48.6859652 85.1661424,48.9506057 C85.1661424,48.9506057 85.5759623,49.902566 85.3227028,50.4053439 C85.3227028,50.4053439 85.1661424,49.1139447 85.0372103,49.1062882 C85.0372103,49.1062882 84.5237843,49.9638181 84.4708301,50.5508177 C84.4944887,50.0062436 84.646939,49.4781448 84.912883,49.0195144 C84.6162795,49.0817198 84.3425705,49.2387464 84.1254763,49.4712489 C84.1254763,49.4712489 84.2060588,48.866384 85.0464198,48.8127884 C85.0464198,48.8127884 85.4723561,48.1645367 85.5874741,48.1237019 C85.5874741,48.1237019 84.7563226,48.0471368 84.252106,48.2946975 C84.252106,48.2946975 84.6964612,47.7230109 85.7394298,47.9833325 L86.3219265,47.4550328 C86.3219265,47.4550328 85.2283061,47.2891416 84.765532,47.472898 C84.765532,47.472898 85.2973769,46.9624636 86.4784869,47.3350807 L87.1139379,46.9139723 C86.6257921,46.7954742 86.1258735,46.7474354 85.6266142,46.7710507 C85.6266142,46.7710507 86.2114133,46.4214031 87.300429,46.8016767 L87.7609008,46.5745334 C87.7609008,46.5745334 87.0701931,46.4265074 86.8790974,46.4035379 C86.6880016,46.3805683 86.6672803,46.3193162 86.6672803,46.3193162 C87.0997221,46.2393837 87.5436937,46.2941645 87.9496942,46.4775509 C87.9496942,46.4775509 88.9051731,46.0743077 88.8890566,46.0079512 Z" id="Path" fill="#6C63FF" opacity="0.1"></path>
            <path d="M75.4858763,64.0398278 C75.4858763,64.0398278 73.4798752,68.5085013 77.6198677,68.9167358 C78.0087429,69.0715148 78.4765399,69.0064264 78.7791641,68.7554334 C78.7791641,68.7554334 78.491186,68.6777693 78.7570119,68.2416554 C78.850151,68.0867192 78.9211677,67.9237017 78.9686881,67.7557569 C79.0309414,67.527617 78.9998425,67.2892868 78.8800795,67.0766937 C78.8800795,67.0766937 78.6954782,65.6409033 76.2931995,64.5237349 C76.2931995,64.5237349 75.8649244,64.0199139 75.714782,64 L75.8378495,64.8662536 C75.8378495,64.8662536 76.6180978,64.7666842 77.1128294,65.1092028 C77.1128294,65.1092028 75.8821538,64.8403655 75.8501563,64.9956938 C75.8501563,65.0255646 75.9412263,65.4517215 75.9412263,65.4517215 C75.9412263,65.4517215 77.2998921,65.2844449 78.0407588,65.8340679 C78.0407588,65.8340679 76.6180978,65.3521521 75.9756852,65.6130239 L76.1676706,66.2462851 C76.1676706,66.2462851 77.5927929,66.0152842 78.4665725,66.6127004 C78.4665725,66.6127004 76.9602256,66.1526899 76.2218203,66.3836909 L76.5147211,66.9811071 C76.5147211,66.9811071 77.9103072,66.7819684 78.6339444,67.2778238 C78.6339444,67.2778238 76.82239,66.8795463 76.5934843,67.1145301 C76.719544,67.3464047 76.8798809,67.5650608 77.0709864,67.7657138 C77.0709864,67.7657138 78.077679,67.638265 78.4641112,67.9648525 C78.4641112,67.9648525 77.2211289,67.8075329 77.1768245,67.9110851 C77.1768245,67.9110851 77.8143145,68.5284152 78.3410436,68.7076401 C77.8464052,68.5660145 77.4060609,68.3223257 77.0636024,68.0006975 C77.0309875,68.2610787 77.0934575,68.5234825 77.243281,68.7554334 C77.243281,68.7554334 76.7067065,68.5562946 76.9109986,67.8493521 C76.9109986,67.8493521 76.4384192,67.3534966 76.4384192,67.2519358 C76.4384192,67.2519358 76.1135209,67.9230334 76.1922841,68.3969836 C76.1922841,68.3969836 75.7984679,67.9011281 76.3547333,67.0946162 L76.044603,66.4971999 C76.044603,66.4971999 75.5523328,67.3674363 75.5867917,67.7935932 C75.5867917,67.7935932 75.2815842,67.2379961 75.9806079,66.3398803 L75.7861612,65.7205588 C75.5285741,66.0967147 75.332486,66.4983541 75.2028209,66.9153913 C75.2028209,66.9153913 75.0551399,66.3518287 75.7369341,65.5333684 L75.6655549,65.1072115 C75.6655549,65.1072115 75.3209658,65.6409033 75.2397412,65.8022057 C75.1585166,65.9635081 75.0969828,65.9575339 75.0969828,65.9575339 C75.1536699,65.5809399 75.3385863,65.2244982 75.631096,64.9279866 C75.631096,64.9279866 75.5523328,64.0398278 75.4858763,64.0398278 Z" id="Path" fill="#6C63FF" opacity="0.1"></path>
            <path d="M109.48498,60.0418226 C109.48498,60.0418226 107.481391,64.5188332 111.619025,64.9171438 C112.009178,65.0717622 112.477972,65.0058659 112.780811,64.7538365 C112.780811,64.7538365 112.490364,64.6761659 112.758658,64.2420074 C112.85259,64.0868286 112.922846,63.9229821 112.967878,63.754077 C113.030903,63.5261327 113.000668,63.2877904 112.881729,63.0749575 C112.881729,63.0749575 112.697123,61.6390479 110.294785,60.5217868 C110.294785,60.5217868 109.864038,60.0199155 109.713892,60 L109.839424,60.8643339 C109.839424,60.8643339 110.619691,60.7667478 111.114435,61.1092949 C111.114435,61.1092949 109.883729,60.8404353 109.849269,60.9937848 C109.849269,61.0256497 109.940341,61.4498504 109.940341,61.4498504 C109.940341,61.4498504 111.299041,61.2845515 112.042387,61.8322285 C112.042387,61.8322285 110.619691,61.3522643 109.974801,61.6111662 L110.169253,62.2464715 C110.169253,62.2464715 111.59441,62.0134599 112.468212,62.6129172 C112.468212,62.6129172 110.959366,62.150877 110.220942,62.3818971 L110.513851,62.9793629 C110.513851,62.9793629 111.909471,62.7802077 112.633126,63.2761043 C112.633126,63.2761043 110.823988,62.8777938 110.592616,63.1147885 C110.722618,63.3475795 110.887987,63.5663464 111.084898,63.7660263 C111.084898,63.7660263 112.089154,63.6365754 112.478057,63.9651816 C112.478057,63.9651816 111.235044,63.8078489 111.190739,63.9134012 C111.190739,63.9134012 111.825783,64.528791 112.352525,64.7100223 C111.858188,64.5689964 111.418448,64.3251579 111.077514,64.0030211 C111.044865,64.2632026 111.106439,64.525451 111.254736,64.7578196 C111.254736,64.7578196 110.720609,64.5586643 110.924906,63.8536546 C110.924906,63.8536546 110.452315,63.3557664 110.449854,63.2561888 C110.449854,63.2561888 110.127409,63.9293336 110.203713,64.4013316 C110.203713,64.4013316 109.809887,63.9074265 110.366166,63.0988561 L110.056028,62.5013903 C110.056028,62.5013903 109.563745,63.3716988 109.598205,63.7958996 C109.598205,63.7958996 109.29299,63.2422479 109.992031,62.3440576 L109.795118,61.7226931 C109.537525,62.0988803 109.341432,62.500553 109.211763,62.9176248 C109.211763,62.9176248 109.06654,62.3540154 109.748351,61.5354872 L109.67697,61.1092949 C109.67697,61.1092949 109.332373,61.643031 109.248685,61.8043468 C109.164997,61.9656626 109.105923,61.9596879 109.105923,61.9596879 C109.164204,61.5830487 109.34989,61.2267443 109.642511,60.9300551 C109.642511,60.9300551 109.5539,60.0438142 109.48498,60.0418226 Z" id="Path" fill="#6C63FF" opacity="0.1"></path>
            <path d="M60.4857732,101.037838 C60.4857732,101.037838 58.4801978,105.50869 62.6193116,105.916941 C63.0085046,106.07188 63.4767707,106.005906 63.7783619,105.75364 C63.7783619,105.75364 63.490445,105.675973 63.7562145,105.241832 C63.8508145,105.086698 63.9218746,104.922871 63.9678457,104.753922 C64.0313664,104.525832 64.0002306,104.287158 63.8792559,104.074831 C63.8792559,104.074831 63.6946938,102.63898 61.292925,101.523757 C61.292925,101.523757 60.8647408,101.019915 60.7146303,101 L60.8376717,101.864298 C60.8376717,101.864298 61.6202152,101.766716 62.1123809,102.109249 C62.1123809,102.109249 60.8819666,101.840401 60.8499758,101.993744 C60.8499758,102.025607 60.9410265,102.449791 60.9410265,102.449791 C60.9410265,102.449791 62.2994039,102.284499 63.0401133,102.832153 C63.0401133,102.832153 61.6177544,102.352209 60.9754781,102.6111 L61.1674227,103.246379 C61.1674227,103.246379 62.5922425,103.013377 63.4658367,103.612809 C63.4658367,103.612809 61.9598096,103.150788 61.221561,103.381799 L61.5143996,103.97924 C61.5143996,103.97924 62.9096894,103.780093 63.633173,104.275969 C63.633173,104.275969 61.824464,103.877675 61.5931461,104.11466 C61.719179,104.346544 61.8794819,104.56521 62.0705468,104.765871 C62.0705468,104.765871 63.0770258,104.636425 63.4658367,104.965018 C63.4658367,104.965018 62.2206574,104.807692 62.1763625,104.91324 C62.1763625,104.91324 62.8137171,105.528604 63.3403344,105.709828 C62.8457076,105.569341 62.4053106,105.326248 62.0631644,105.004847 C62.0306087,105.264597 62.0930758,105.526363 62.2428049,105.757623 C62.2428049,105.757623 61.7063442,105.558476 61.910593,104.853496 C61.910593,104.853496 61.4405747,104.355628 61.4381139,104.256055 C61.4381139,104.256055 61.1132845,104.929172 61.192031,105.40115 C61.192031,105.40115 60.7982984,104.907265 61.3544457,104.098728 L61.0443813,103.501287 C61.0443813,103.501287 60.5522156,104.37156 60.589128,104.795743 C60.589128,104.795743 60.2839852,104.242114 60.9828606,103.343961 L60.7859943,102.724614 C60.5279793,103.100601 60.3319074,103.502309 60.2027779,103.919496 C60.2027779,103.919496 60.0551282,103.353918 60.7367777,102.537415 L60.6654137,102.109249 C60.6654137,102.109249 60.3208977,102.642963 60.2396903,102.804272 C60.158483,102.965582 60.0969623,102.959607 60.0969623,102.959607 C60.1538447,102.582684 60.3396401,102.2261 60.6334229,101.930017 C60.6334229,101.930017 60.5522156,101.037838 60.4857732,101.037838 Z" id="Path" fill="#6C63FF" opacity="0.1"></path>
            <path d="M53.4849811,54.0398294 C53.4849811,54.0398294 51.4813878,58.5086839 55.6190295,58.9169348 C56.0087832,59.0713993 56.4770158,59.0063874 56.7808182,58.7556259 C56.7808182,58.7556259 56.4903711,58.6779587 56.7586655,58.2418271 C56.8515,58.0862867 56.9217098,57.9225549 56.9678859,57.7539174 C57.0309018,57.5266415 57.0006584,57.2889412 56.8817363,57.0768183 C56.8817363,57.0768183 56.6971301,55.6409697 54.2923258,54.5237561 C54.2923258,54.5237561 53.8640393,54.0199147 53.7138929,54 L53.8394251,54.8662886 C53.8394251,54.8662886 54.6196943,54.7667152 55.1119776,55.1092478 C55.1119776,55.1092478 53.8812692,54.8403996 53.8492708,54.9957341 C53.8492708,55.0256061 53.9403432,55.4517803 53.9403432,55.4517803 C53.9403432,55.4517803 55.2990453,55.284497 56.0423932,55.8341422 C56.0423932,55.8341422 54.6196943,55.3522069 53.9748031,55.6130892 L54.1667936,56.2463761 C54.1667936,56.2463761 55.5919539,56.0133743 56.4682183,56.6128062 C56.4682183,56.6128062 54.9593698,56.1507856 54.2209448,56.3837874 L54.5138534,56.9812278 C54.5138534,56.9812278 55.9094767,56.782081 56.6331332,57.279948 C56.6331332,57.279948 54.8239919,56.8816544 54.5926187,57.1166476 C54.7186818,57.3485316 54.8790229,57.5671966 55.0701336,57.7678577 C55.0701336,57.7678577 56.076853,57.6404038 56.4657569,57.9670045 C56.4657569,57.9670045 55.2227414,57.8096786 55.1784359,57.9132349 C55.1784359,57.9132349 55.8134814,58.53059 56.3402246,58.7098222 C55.8458838,58.5676962 55.405674,58.3240784 55.0627493,58.002851 C55.0301336,58.2632427 55.0926052,58.5256571 55.2424327,58.7576174 C55.2424327,58.7576174 54.7058439,58.5584706 54.9126029,57.8514994 C54.9126029,57.8514994 54.4400108,57.3556238 54.4375494,57.2540589 C54.4375494,57.2540589 54.1151038,57.9251837 54.1914078,58.3991531 C54.1914078,58.3991531 53.7951196,57.9032776 54.3538613,57.096733 L54.0412613,56.4992925 C54.0412613,56.4992925 53.548978,57.3695641 53.5858992,57.7957383 C53.5858992,57.7957383 53.2806835,57.2401187 53.9797259,56.3419665 L53.7828126,55.7226199 C53.5252186,56.0987911 53.3291253,56.5004467 53.1994568,56.9175008 C53.1994568,56.9175008 53.0542332,56.3539153 53.7335842,55.5354219 L53.6646646,55.1092478 C53.6646646,55.1092478 53.3176048,55.6429612 53.236378,55.8022787 C53.1551513,55.9615961 53.0936158,55.9596047 53.0936158,55.9596047 C53.1505119,55.582682 53.3363517,55.2260987 53.6302047,54.9300156 C53.6302047,54.9300156 53.5539008,54.0398294 53.4849811,54.0398294 Z" id="Path" fill="#6C63FF" opacity="0.1"></path>
            <path d="M67,81.1707861 C67,81.1707861 68.2789752,86.4477179 71.3127288,84.6122634 C71.6663878,84.5487788 71.9437366,84.2358335 72,83.8367838 C72,83.8367838 71.7600651,83.9193793 71.6848312,83.3664486 C71.6561549,83.1701755 71.6070135,82.9784161 71.5384303,82.7951634 C71.4482889,82.5460902 71.2873576,82.3378715 71.0809272,82.2032293 C71.0809272,82.2032293 70.1110207,80.9505315 67.8275722,81.1891406 C67.8275722,81.1891406 67.2419683,80.9482372 67.1281009,81.0101838 L67.7218381,81.7558372 C67.7218381,81.7558372 68.1915413,81.2442043 68.7263115,81.2969736 C68.7263115,81.2969736 67.7320049,81.7099509 67.8052054,81.8682588 C67.8214721,81.9003793 68.1346076,82.2491156 68.1346076,82.2491156 C68.1346076,82.2491156 68.9479463,81.3612145 69.7775519,81.4782247 C69.7775519,81.4782247 68.5351769,81.790252 68.254575,82.3821861 L68.7568117,82.8754645 C68.7568117,82.8754645 69.5823505,81.891202 70.5258235,81.9829747 C70.5258235,81.9829747 69.2346482,82.3592429 68.8727125,82.9741202 L69.4257828,83.3848031 C69.4257828,83.3848031 70.2391216,82.4418384 71.0321269,82.5267281 C71.0321269,82.5267281 69.5803172,83.1301338 69.5579504,83.4696929 C69.7800477,83.6204264 70.0176897,83.7398576 70.2655551,83.8253122 C70.2655551,83.8253122 70.8755592,83.1645486 71.3208621,83.2586156 C71.3208621,83.2586156 70.3875559,83.7794259 70.4200895,83.9010247 C70.4200895,83.9010247 71.2130948,84.1304566 71.6705978,84.0203293 C71.2540197,84.1535926 70.8137833,84.1615025 70.393656,84.0432725 C70.5244475,84.3058717 70.721109,84.5189935 70.9589264,84.6558554 C70.9589264,84.6558554 70.4790565,84.7545111 70.2025214,83.9813259 C70.2025214,83.9813259 69.5925173,83.7679543 69.5274502,83.6715929 C69.5274502,83.6715929 69.7063847,84.4791929 70.0357869,84.8829929 C70.0357869,84.8829929 69.4786499,84.6283236 69.3790159,83.5683486 L68.8157788,83.1714316 C68.8157788,83.1714316 69.0008133,84.2520554 69.2692151,84.6352066 C69.2692151,84.6352066 68.7364782,84.2772929 68.6795445,83.0567156 L68.1834079,82.5794975 C68.2317222,83.0746019 68.3369862,83.5604963 68.4965433,84.0249179 C68.4965433,84.0249179 68.0675071,83.5660543 68.0451403,82.4372497 L67.7462383,82.0724531 C67.7462383,82.0724531 67.8275722,82.7607486 67.8662058,82.9557656 C67.9048394,83.1507827 67.8662058,83.1851975 67.8662058,83.1851975 C67.6830394,82.7997738 67.5985533,82.3644358 67.6222041,81.9279111 C67.6222041,81.9279111 67.046767,81.1363713 67,81.1707861 Z" id="Path" fill="#6C63FF" opacity="0.1"></path>
            <path d="M104,85.1596939 C104,85.1596939 105.278975,90.4519116 108.310695,88.6111402 C108.66545,88.5490611 108.944093,88.2346746 109,87.8334143 C109,87.8334143 108.758032,87.916249 108.682798,87.3732215 C108.655728,87.1762379 108.607237,86.9837978 108.53843,86.8002814 C108.446845,86.5507828 108.285397,86.3422172 108.078894,86.2066326 C108.078894,86.2066326 107.108987,84.9503061 104.825539,85.1919074 C104.825539,85.1919074 104.239935,84.9480052 104.128101,85.0101312 L104.719805,85.7579446 C104.719805,85.7579446 105.189508,85.2448295 105.724278,85.2977517 C105.724278,85.2977517 104.729972,85.7119253 104.805205,85.8706918 C104.819439,85.9029053 105.134608,86.2526519 105.134608,86.2526519 C105.134608,86.2526519 105.947946,85.3621787 106.777552,85.4795279 C106.777552,85.4795279 105.533144,85.792459 105.252542,86.3861078 L105.756812,86.8808151 C105.756812,86.8808151 106.57015,85.8937015 107.52379,85.98574 C107.52379,85.98574 106.234648,86.3630982 105.872712,86.9797566 L106.425783,87.3916292 C106.425783,87.3916292 107.239122,86.4459329 108.030094,86.5310685 C108.030094,86.5310685 106.578284,87.1362221 106.55795,87.4767648 C106.779294,87.6280117 107.016272,87.7477986 107.263522,87.8334143 C107.263522,87.8334143 107.873526,87.1707366 108.318829,87.2650761 C108.318829,87.2650761 107.387556,87.787395 107.418056,87.9093461 C107.418056,87.9093461 108.211061,88.1394425 108.670598,88.0289963 C108.253311,88.1625209 107.812449,88.1704523 107.391623,88.0520059 C107.523084,88.3147779 107.719568,88.5283237 107.956893,88.6663633 C107.956893,88.6663633 107.477023,88.7653048 107.200488,87.9898799 C107.200488,87.9898799 106.590484,87.7758902 106.52745,87.6792497 C106.52745,87.6792497 106.704351,88.4891891 107.033754,88.8941588 C107.033754,88.8941588 106.476617,88.6387518 106.376983,87.5757063 L105.813745,87.1730376 C105.813745,87.1730376 105.99878,88.2567917 106.269215,88.6410527 C106.269215,88.6410527 105.736478,88.2821023 105.679545,87.0579894 L105.181375,86.5793888 C105.229627,87.0761754 105.335598,87.5635849 105.496543,88.0289963 C105.496543,88.0289963 105.065474,87.5688034 105.043107,86.436729 L104.744205,86.0708757 C104.744205,86.0708757 104.825539,86.761165 104.864172,86.9567469 C104.902806,87.1523289 104.864172,87.1868433 104.864172,87.1868433 C104.681006,86.8003032 104.59652,86.3637041 104.620171,85.925915 C104.620171,85.925915 104.046767,85.1251794 104,85.1596939 Z" id="Path" fill="#6C63FF" opacity="0.1"></path>
            <path d="M89.7230384,136 C89.7230384,136 101.019874,132.19745 98.6812461,118.724192 L84.3315648,115 L81,126.055037 L89.7230384,136 Z" id="Path" fill="#CED7E7"></path>
            <path d="M81,126.213809 L89.721916,136 C89.721916,136 101.020118,132.258158 98.6812075,119 L81,126.213809 Z" id="Path" fill="#000000" opacity="0.1"></path>
            <path d="M34.0174145,25.4229262 C34.0174145,25.4229262 35.6840816,27.8862387 37.9626536,26.6556638 C40.2412257,25.4250889 38.0555108,22.0253282 38.0555108,22.0253282 C38.0555108,22.0253282 33.6912239,21.4824911 34.0174145,25.4229262 Z" id="Path" fill="#FED253"></path>
            <path d="M37.9641563,26.6573348 C37.4207545,26.9767959 36.7564289,27.0785685 36.1277783,26.9386623 C35.2917619,26.7460612 34.6486723,26.1617657 34.3033094,25.7787275 C34.2002748,25.6665058 34.104827,25.5487091 34.0174918,25.4259862 C33.900783,24.0193489 34.3819092,23.1818587 35.0488169,22.6884536 C35.965815,22.0111036 37.2353215,21.9829709 37.7831385,22.0046115 C37.9522473,22.0046115 38.0499016,22.026252 38.0499016,22.026252 L38.0951561,22.0955019 C38.159465,22.2058688 38.299992,22.4504073 38.4500462,22.77718 C38.9597543,23.8483884 39.5671166,25.7895478 37.9641563,26.6573348 Z" id="Path" fill="#000000" opacity="0.1"></path>
            <path d="M91.2667671,118 L98.8628485,118.636361 L113,118.756636 L101.861191,132.970889 C101.861191,132.970889 98.3269028,133.169889 97.598945,133.685976 C96.8709872,134.202062 86.6500377,133.926524 86.6500377,133.926524 L85,126.640079 L91.2667671,118 Z" id="Path" fill="#FFA2A2"></path>
            <path d="M91.2667671,118 L98.8628485,118.636361 L113,118.756636 L101.861191,132.970889 C101.861191,132.970889 98.3269028,133.169889 97.598945,133.685976 C96.8709872,134.202062 86.6500377,133.926524 86.6500377,133.926524 L85,126.640079 L91.2667671,118 Z" id="Path" fill="#000000" opacity="0.05"></path>
            <path d="M83.0271909,80.3070448 L84.8724968,83.399269 L85.2737461,88.7910628 C85.2737461,88.7910628 86.5590667,93.3880243 87.522506,94.7359728 C88.4859453,96.0839212 88.8871946,99.6530448 88.8871946,99.6530448 C88.8871946,99.6530448 89.2884439,102.98263 89.7690612,103.694713 C90.2496785,104.406795 90.8934411,109.574294 90.8934411,109.574294 C90.8934411,109.574294 95.1484475,117.97774 99,119.007755 C99,119.007755 79.8965644,125.192204 89.9300018,136.291547 C89.9300018,136.291547 82.7868822,138.033645 81.1003123,136.054186 C79.4137424,134.074727 75,104.737794 75,104.737794 L76.3646886,80 L83.0271909,80.3070448 Z" id="Path" fill="#CED7E7"></path>
            <path d="M83.0271909,80.3070448 L84.8724968,83.399269 L85.2737461,88.7910628 C85.2737461,88.7910628 86.5590667,93.3880243 87.522506,94.7359728 C88.4859453,96.0839212 88.8871946,99.6530448 88.8871946,99.6530448 C88.8871946,99.6530448 89.2884439,102.98263 89.7690612,103.694713 C90.2496785,104.406795 90.8934411,109.574294 90.8934411,109.574294 C90.8934411,109.574294 95.1484475,117.97774 99,119.007755 C99,119.007755 79.8965644,125.192204 89.9300018,136.291547 C89.9300018,136.291547 82.7868822,138.033645 81.1003123,136.054186 C79.4137424,134.074727 75,104.737794 75,104.737794 L76.3646886,80 L83.0271909,80.3070448 Z" id="Path" fill="#000000" opacity="0.05"></path>
            <path d="M59.9494074,49.458045 C59.4221642,52.1858819 59.5785803,55.0013688 60.4047617,57.6544118 L57.4818211,66 C57.4818211,66 35.2193358,53.6384083 37.1144768,50.6453287 C38.1878118,48.9476644 38.324418,44.4558824 38.2376839,40.8875433 C38.1748016,38.1756055 37.9818182,36 37.9818182,36 C37.9818182,36 65.3030722,38.6794983 61.6667434,44.8992215 C60.843838,46.3128858 60.2634099,47.8536847 59.9494074,49.458045 Z" id="Path" fill="#FFA2A2"></path>
            <path d="M61.6680498,44.3127936 C60.8457308,45.7921549 60.2657162,47.4045591 59.9519375,49.0834786 C51.5976345,51.8749386 42.5180439,48.1216175 38.2556834,40.1146813 C38.192846,37.2767121 38,35 38,35 C38,35 65.2952874,37.8040222 61.6680498,44.3127936 Z" id="Path" fill="#000000" opacity="0.1"></path>
            <path d="M72.9999103,31.4900677 C73.0051104,39.4780123 67.880964,46.5668447 60.2934687,49.0683777 C52.7059734,51.5699108 44.3695462,48.9189156 39.6214747,42.4946555 C34.8734031,36.0703954 34.7865279,27.3244511 39.4060487,20.8071739 C39.6677171,20.4394498 39.9431958,20.0804465 40.2324847,19.7301638 C41.8808449,17.7270597 43.9320772,16.0929022 46.2530385,14.9337626 C47.5122453,14.3038986 48.8403993,13.8224826 50.2107731,13.4992026 C55.2125349,12.3144728 60.4817576,13.2596807 64.7596203,16.1090154 C69.0374829,18.95835 71.9397729,23.4559009 72.773131,28.5271998 C72.9271502,29.5072515 73.0029823,30.4979964 72.9999103,31.4900677 Z" id="Path" fill="#FFA2A2"></path>
            <path d="M80.4325506,107.952216 C80.1576378,109.445298 80.50182,112.173806 81.0235049,114.950762 C81.0451516,115.071882 81.068963,115.193003 81.0927743,115.314123 C81.1165857,115.435243 81.1512204,115.622429 81.1815257,115.77438 C81.4218039,116.967964 81.6837287,118.150538 81.9391595,119.225204 C82.1945903,120.299871 82.4240451,121.220385 82.6188652,121.977936 C82.9132601,123.112062 83.1145742,123.82557 83.1145742,123.82557 C83.1145742,123.82557 83.1405502,124.525865 83.1751849,125.640171 C83.1946669,126.283209 83.2163136,127.067187 83.2379603,127.932646 C83.2379603,128.183695 83.253113,128.439149 83.259607,128.703411 C83.2704303,129.163668 83.2812536,129.641542 83.292077,130.130427 C83.292077,130.288985 83.292077,130.447542 83.3029003,130.608302 C83.3029003,131.134624 83.3223823,131.671957 83.331041,132.207088 C83.3418643,132.942618 83.350523,133.678148 83.3548523,134.391657 C83.3548523,134.664728 83.3548523,134.933394 83.3548523,135.197656 C83.3548523,135.880334 83.3548523,136.534383 83.3548523,137.13558 C83.331041,138.842274 83.2639363,140.130552 83.1210682,140.502722 C83.0712808,140.630448 83.0258228,140.769186 82.9825295,140.91453 C82.7948302,141.598119 82.6587812,142.295308 82.5755719,143 L82.2075783,142.693896 C81.5040612,142.10371 80.8070382,141.500312 80.0991917,140.91453 C78.922636,139.911881 77.6737175,139.000549 76.3629748,138.188224 C76.2742234,138.135372 76.185472,138.08252 76.094556,138.031869 C75.8521132,137.888727 75.605341,137.754394 75.3542395,137.626667 C74.8369495,137.361368 74.3066315,137.123219 73.7653733,136.913159 C71.2651818,135.944197 68.5874875,135.591848 65.8729939,135.651307 C64.7906599,136.071924 64.0871428,136.373624 64.0871428,136.373624 L62.710414,136.796443 L62.4809592,136.866913 C60.9895029,137.329372 58.8919397,137.985623 58.1364706,138.258694 C56.9155978,138.699132 46.3152188,140.943159 46.3152188,140.943159 C45.3467998,141.212081 44.357551,141.396267 43.3582824,141.493705 C41.5387718,142.014372 39.6866061,142.408737 37.8145677,142.674077 C33.5604557,143.227359 29.2397049,142.873369 25.1274488,141.634645 C25.0047059,141.642081 24.8815563,141.638396 24.7594552,141.623634 C24.8352186,141.623634 24.9088173,141.606017 24.975922,141.592803 L24.7118325,141.513525 L24.350333,141.399011 C23.7442259,141.205219 23.1431698,140.993075 22.5471645,140.762579 L22.185665,140.62164 C21.6084202,140.395549 21.0434419,140.152574 20.49073,139.892716 L20.1292304,139.72535 C19.5519856,139.452279 18.9870073,139.163793 18.4342954,138.859891 C18.235146,138.754186 18.0381612,138.639673 17.8433411,138.531765 C17.2545514,138.197033 16.6773066,137.846152 16.1116067,137.479121 C16.0163613,136.648897 15.9665739,136.093946 15.9665739,136.093946 L15.1223534,131.817302 L15.0790601,131.597083 L14.472953,128.514023 L14.4296597,128.293805 L13.1113769,121.585947 L13.0680835,121.365729 L12.4619765,118.282669 L12.4186831,118.06245 L11.083083,111.358997 L11.0397896,111.138779 L10.4336826,108.055719 L10.3903892,107.835501 L9.06561245,101.118835 L9.02231909,100.898616 L8.41621206,97.8265671 L8.3729187,97.6063485 L8.13264056,96.3951464 L7.77114101,94.5607258 C7.77114101,94.5607258 6.61737298,92.8826604 5.3185722,90.8984912 L5.17353945,90.6782726 C4.80338123,90.1211197 4.42239967,89.5419449 4.05224145,88.973781 C3.92885537,88.7865952 3.80979863,88.6016116 3.69074189,88.4188302 C3.5103529,88.1413548 3.33573635,87.870486 3.16689225,87.6062237 L3.05000018,87.4234423 L3.02618883,87.3860052 C1.16024504,84.4482896 2.40925846,83.171022 2.40925846,83.171022 C2.40925846,83.171022 3.19286826,82.091951 4.2037682,80.6649348 C4.25355557,80.5922627 4.3055076,80.5195905 4.3596243,80.4447162 C4.79255789,79.8281043 5.26878484,79.1542355 5.73635312,78.4803667 L6.09785267,77.9562465 C6.23422675,77.760252 6.36843617,77.5642575 6.49831625,77.3704651 C6.55026828,77.297793 6.60005564,77.2229187 6.64767834,77.1502466 C7.64559027,75.683591 8.46816409,74.4041212 8.6370082,73.9504709 C8.90109769,73.2347606 10.5852094,71.1184603 12.262827,69.2620178 C13.5854392,67.7953622 14.9015573,66.4916683 15.4925116,66.178958 C16.8324411,65.4588433 17.3844314,63.1311331 17.3844314,63.1311331 C17.3844314,63.1311331 20.3002392,62.0917015 20.6942088,61.290106 C21.0881783,60.4885104 26.605917,56.8857348 26.605917,56.8857348 C26.605917,56.8857348 28.8376896,55.4234836 29.7403562,54.5426093 C29.8681368,54.427421 29.9795966,54.2947602 30.0715504,54.1484181 C30.3854272,53.5758499 32.4353678,53.1045822 33.268765,52.9350139 C33.4852318,52.8909702 33.6194412,52.8667461 33.6194412,52.8667461 C33.9558902,52.2447804 34.381188,51.6770415 34.8814426,51.1820741 C35.2212955,50.8759703 35.6455704,49.8211234 36.0027406,48.7993093 C36.3902162,47.6850034 36.691105,46.612539 36.691105,46.612539 C37.3231881,44.4477906 38.5830248,45.0886266 38.5830248,45.0886266 C38.5813087,45.384316 38.6088669,45.6794297 38.6652822,45.9695009 C39.1912965,48.6121236 42.0486582,49.7132164 43.5487731,50.9486425 C45.2047441,52.3095932 47.8045104,55.8396967 49.8544509,56.5598113 C51.5515506,57.1566036 53.5192338,59.4072373 54.1426582,60.1581826 L54.1902809,60.2154394 C54.2941849,60.3387618 54.3461369,60.4092317 54.3461369,60.4092317 C54.3461369,60.4092317 55.5085636,60.3475706 56.2164101,60.3343574 L56.4740056,60.3343574 C56.6179883,60.3196599 56.7547631,60.2630843 56.8679751,60.1713957 C57.5714922,59.6847127 58.6191915,58.2576964 59.0759364,57.9295708 C59.6257621,57.5265708 60.1799171,51.0323255 60.1799171,51.0323255 L60.2080578,51.0191124 C62.1714116,50.0831835 64.2776336,59.451281 64.2776336,59.451281 C64.2776336,59.451281 67.9813805,60.5743957 68.297422,61.3759912 C68.3580327,61.5345486 68.6372749,61.8164283 69.0572204,62.1577671 C70.9693489,63.6443929 73.0045374,64.9596152 75.1399374,66.0886684 C75.1875601,66.1128924 75.2330181,66.1371165 75.2806408,66.1569361 C75.3235674,66.1804789 75.3676388,66.201794 75.4126856,66.2207995 C75.4927783,66.2604389 75.5707063,66.2956738 75.6443051,66.3287066 C75.7611971,66.3815591 75.8694305,66.4256028 75.9690052,66.4608377 L76.0988853,66.5070836 C76.4091399,66.6120932 76.7013055,66.7659094 76.9647525,66.9629361 C77.0426806,67.0201929 77.1206086,67.0796519 77.196372,67.1435153 C77.4911504,67.3930951 77.7622055,67.6703228 78.0059578,67.9715371 C78.0427572,68.0155808 78.0773918,68.0618267 78.1120265,68.1058704 C78.2765413,68.315078 78.4237387,68.5220835 78.5449601,68.7136736 C78.7439074,69.0092436 78.9253404,69.3166278 79.0882918,69.6341872 C79.0882918,69.6341872 82.3179764,75.2475582 83.344029,75.8861921 C84.3700816,76.5248259 85,83.0234755 85,83.0234755 L81.5365313,96.0846383 C81.5365313,96.0846383 81.3741812,99.3879166 81.0711276,102.757261 C80.9022835,104.646736 80.6879814,106.569244 80.4325506,107.952216 Z" id="Path" fill="#CED7E7"></path>
            <path d="M54,60.739075 C54,60.739075 51.8077185,61.888041 50.0955732,61.9966203 C49.8714482,62.0067257 49.646844,61.9941542 49.4254257,61.9591111 C47.6315551,61.6965467 45,60.2711971 45,60.2711971 L48.0871737,57 L51.8424518,58.7984674 L53.2236095,60.0402194 L54,60.739075 Z" id="Path" fill="#63667E"></path>
            <path d="M73,27.798373 C72.9165596,27.9176803 72.8217338,28.028416 72.7168875,28.1289863 C71.5624909,29.2384268 69.5126687,28.7791184 67.93909,28.5217282 C66.5717203,28.2957165 65.2359463,27.9053872 63.9601525,27.3590345 C62.8496493,26.8797562 61.5174844,26.2939716 60.5189093,26.9818248 C60.134842,27.2436527 59.8714815,27.6630212 59.4720515,27.8937849 C59.0726215,28.1245485 58.563458,28.1400807 58.0916038,28.1467373 C56.5553345,28.1467373 55.0190652,28.1644884 53.5201053,27.8139052 C51.2837362,27.2858115 48.9705536,25.9567017 46.8439179,26.8331597 C45.1803577,27.5165751 44.2783482,29.347152 43.8284408,31.1067247 C43.6089737,31.9698694 43.4465681,32.8818295 42.9505726,33.6140603 C42.4545771,34.346291 41.4955061,34.8655092 40.6790887,34.5215826 C39.4742146,34.0134589 39.2964463,31.9454617 37.8435745,31.8411743 C36.2480491,31.7280114 36.2678011,33.394391 36.7330713,34.5992435 C37.4221978,36.3743483 38.3242073,38.1494532 38.3637114,40 C34.8640009,33.6625999 35.277221,25.8560103 39.4259319,19.9324396 C39.7796894,19.7109504 40.0565654,19.3837188 40.2182079,18.9960718 C40.2344648,18.9436484 40.2476556,18.890303 40.257712,18.8363123 C40.3784188,18.2172445 40.0382449,17.5671124 40.0184929,16.9191991 C39.9416794,15.3371369 41.635965,14.234353 43.1897917,14.0346537 C44.2234814,13.9015208 45.2813126,14.0035894 46.317197,13.9703061 C46.8389746,13.9586865 47.3578789,13.888736 47.8644397,13.7617313 C48.7383528,13.496977 49.5566697,13.072023 50.2785771,12.5080635 C55.3126822,11.3023046 60.6159778,12.2642901 64.9215028,15.164201 C69.2270278,18.064112 72.1480851,22.6414952 72.986832,27.8028107 L73,27.798373 Z" id="Path" fill="#000000" opacity="0.1"></path>
            <path d="M72.8884775,26.2908474 C72.7824182,26.7190203 72.5614388,27.1087535 72.2502303,27.4165002 C71.1311702,28.4988587 69.144094,28.0485976 67.6186832,27.7974904 C66.2930854,27.5818013 64.997976,27.2038417 63.7615427,26.6718376 C62.6850324,26.2064234 61.3936456,25.6349381 60.4256374,26.3060004 C60.0533265,26.561437 59.7980277,26.9705685 59.4108244,27.1956991 C59.0236211,27.4208296 58.5300432,27.4359827 58.0726328,27.4403121 C56.5833893,27.4511357 55.0941459,27.4597945 53.6410698,27.1177693 C51.4731568,26.6004019 49.2307817,25.3059011 47.1692433,26.1587996 C45.5566054,26.8255325 44.6822067,28.6135887 44.2460712,30.3302093 C44.0333221,31.1722842 43.8758878,32.0619828 43.3950749,32.7741747 C42.914262,33.4863666 41.9845486,33.9972398 41.1931221,33.6617087 C40.0251298,33.1659885 39.852803,31.1484723 38.4444042,31.0467306 C36.8977185,30.93633 36.916866,32.5620325 37.367894,33.7374738 C38.1593205,35.7874608 39.2358307,37.8266242 38.8826673,40 C38.5316313,40 37.9508264,39.9870117 37.6061729,39.9783528 C37.8742367,39.5129387 37.363639,38.9587711 36.8551687,38.8007468 C36.3466985,38.6427225 35.7531286,38.6448872 35.3659253,38.2682264 C34.978722,37.8915657 34.9765945,37.3092568 35.0170168,36.78756 C35.1052644,35.6725168 35.3733692,34.5798699 35.8105708,33.5534728 C36.0892721,32.9040577 36.448818,32.2005247 36.2360689,31.5208036 C36.1083677,31.2127013 35.9546107,30.9164653 35.776531,30.6354343 C35.3340129,29.7695476 35.43826,28.6871891 35.8169533,27.793161 C35.9786426,27.4121708 36.0956546,27.0528277 36.2296865,26.7108025 C36.3989503,26.2246235 36.6438976,25.7692792 36.9551608,25.3621838 C37.4423561,24.7452394 37.918914,23.8165759 37.3806589,23.2429259 C37.2444995,23.0978898 37.5168183,22.9983128 37.4295912,22.8099825 C37.4141762,22.7778164 37.4034269,22.7435459 37.3976788,22.7082408 C37.3726693,22.4802121 37.42686,22.2504667 37.5508582,22.0588257 C37.5759818,22.009025 37.6036779,21.9606119 37.6338303,21.9137896 C37.6582996,21.8643221 37.6860199,21.81659 37.7168024,21.7709183 C38.1879027,20.9705898 38.8140115,20.2760793 39.5570818,19.7295902 C40.0187473,19.3897296 40.5591299,19.0628574 40.7420941,18.5130193 C40.9548432,17.8636042 40.5804048,17.1730595 40.5484925,16.4868442 C40.4740303,14.943401 42.116453,13.8675366 43.6227164,13.6727121 C45.1289798,13.4778876 46.6905579,13.8004304 48.1585264,13.4042872 C50.2413398,12.8457902 51.7050533,10.9754747 53.5963925,9.925587 C55.6931153,8.78485284 58.1901934,8.69376858 60.3618127,9.67880927 C62.5701479,10.7048851 64.2359731,12.778684 66.542173,13.5579821 C67.3591294,13.8350659 68.2441655,13.9454664 68.9802772,14.4043864 C69.8312735,14.9369068 70.3482537,15.8677351 70.7907717,16.7855751 C71.4651863,18.1774881 71.6013457,19.5758953 72.0672661,21.0500676 C72.4374495,22.2190147 72.9501747,23.7473049 72.9927245,25.0937589 C73.0166431,25.4958425 72.9815078,25.8993077 72.8884775,26.2908474 Z" id="Path" fill="#896363"></path>
            <g id="Group" opacity="0.1" transform="translate(35.000000, 16.000000)" fill="#000000">
                <path d="M2.75383333,7.52 C2.82404895,7.23977418 2.76439012,6.94289402 2.59133333,6.71135135 C2.64766667,6.88 2.40283333,6.9772973 2.53716667,7.11783784 C2.6441854,7.23010303 2.71901557,7.36899779 2.75383333,7.52 Z" id="Path"></path>
                <path d="M2.58483333,6.21621622 C2.55929849,6.29168069 2.54399607,6.37021523 2.53933333,6.44972973 C2.5805,6.38054054 2.63683333,6.30918919 2.58483333,6.21621622 Z" id="Path"></path>
                <path d="M38.0445,10.8259459 C36.9026667,11.907027 34.8811667,11.4594595 33.3233333,11.2064865 C31.9742764,10.9897316 30.6566532,10.6100053 29.3995,10.0756757 C28.301,9.60864865 26.988,9.03783784 26,9.70810811 C25.623,9.96324324 25.363,10.3718919 24.9665,10.5967568 C24.57,10.8216216 24.0695,10.8367568 23.6036667,10.8410811 C22.087,10.8410811 20.5703333,10.8605405 19.0883333,10.5167568 C16.8826667,10.0021622 14.599,8.71135135 12.4995,9.56108108 C10.8571667,10.2291892 9.96666667,12.012973 9.5225,13.7275676 C9.30583333,14.5686486 9.14766667,15.4572973 8.65583333,16.1708108 C8.164,16.8843243 7.21716667,17.3902703 6.41333333,17.0572973 C5.22383333,16.56 5.04833333,14.547027 3.614,14.4454054 C2.49383333,14.3654054 2.18183333,15.1654054 2.25766667,16.0540541 C2.32266667,15.3751351 2.691,14.8518919 3.614,14.9167568 C5.04833333,15.0183784 5.22383333,17.0335135 6.41333333,17.5286486 C7.21716667,17.8637838 8.16616667,17.36 8.65583333,16.6421622 C9.1455,15.9243243 9.30583333,15.04 9.5225,14.2010811 C9.96666667,12.4864865 10.8571667,10.7005405 12.4995,10.0345946 C14.599,9.1827027 16.8826667,10.467027 19.0883333,10.9902703 C20.5616667,11.3340541 22.0913333,11.3232432 23.6036667,11.3124324 C24.0695,11.3124324 24.5613333,11.2994595 24.9665,11.0702703 C25.3716667,10.8410811 25.6165,10.4367568 26,10.1794595 C26.988,9.51135135 28.301,10.0821622 29.3995,10.547027 C30.6569226,11.0810738 31.9744221,11.4614903 33.3233333,11.68 C34.8811667,11.9308108 36.9026667,12.3827027 38.0445,11.2972973 C38.6641667,10.707027 38.8505,9.85297297 38.8093333,8.91891892 C38.7746667,9.66054054 38.558,10.332973 38.0445,10.8259459 Z" id="Path"></path>
                <path d="M5.77416667,0.0454054054 C5.76217962,0.153072692 5.75783545,0.261450986 5.76116667,0.36972973 C5.78283333,0.819459459 5.954,1.26918919 6.00816667,1.70810811 C6.08833333,1.16972973 5.83916667,0.607567568 5.77416667,0.0454054054 Z" id="Path"></path>
                <path d="M1.3715,15.3859459 C1.38936327,15.4506003 1.40311291,15.516317 1.41266667,15.5827027 C1.44779206,15.3596623 1.43374331,15.1316604 1.3715,14.9145946 C1.24232601,14.6057524 1.08570067,14.3090724 0.9035,14.0281081 C0.740719456,13.7082668 0.644187399,13.3589737 0.619666667,13.0010811 C0.575613874,13.5177203 0.673754009,14.0365574 0.9035,14.5016216 C1.08611603,14.7815853 1.24276484,15.077586 1.3715,15.3859459 Z" id="Path"></path>
                <path d="M4.06033333,23.3816216 L2.79283333,23.3621622 C2.85273003,23.5169664 2.83836265,23.6906096 2.75383333,23.8335135 C3.11133333,23.8335135 3.705,23.8464865 4.05383333,23.8551351 C4.11444121,23.4850732 4.13550371,23.1096355 4.11666667,22.7351351 C4.11174131,22.9516099 4.09292501,23.1675476 4.06033333,23.3816216 Z" id="Path"></path>
                <path d="M1.98683333,22.1859459 C1.469,22.0302703 0.866666667,22.0281081 0.481,21.6497297 C0.253970299,21.4018984 0.125988809,21.0795324 0.121333333,20.7437838 C0.0888333333,21.2410811 0.121333333,21.7772973 0.481,22.1232432 C0.866666667,22.5016216 1.469,22.5037838 1.98683333,22.6594595 C2.32735771,22.7583047 2.61191896,22.9929903 2.77333333,23.3081081 C2.99216667,22.8605405 2.4895,22.3351351 1.98683333,22.1859459 Z" id="Path"></path>
            </g>
            <path d="M76,137 C75.7515833,136.85923 75.4987305,136.727123 75.2414418,136.601513 C74.7114054,136.34061 74.1680201,136.106408 73.613425,135.899829 C71.0516274,134.946925 68.3079533,134.600415 65.5265731,134.658888 C64.4175699,135.072535 63.6967177,135.369235 63.6967177,135.369235 L62.2860656,135.785048 L62.0509569,135.85435 C62.0354308,135.702751 62.0176868,135.551153 62.0021607,135.397389 C61.9866347,135.243625 61.9688906,135.096358 61.9511466,134.94476 C61.4543131,130.35133 61.063944,125.63229 61.063944,125.63229 L61.063944,121.55646 L61.063944,121.082174 L61.0373279,109.07342 L60.8155272,105.114538 L60.7112809,103.362494 L60.6913189,103.028978 L60.6513948,102.344619 L60.6292147,101.937469 C60.5802581,101.808468 60.5387895,101.676874 60.5050063,101.543314 C60.4894803,101.489172 60.4739542,101.428532 60.4606462,101.365727 C60.405196,101.149158 60.3453099,100.869784 60.2832057,100.566587 C59.8773105,98.574152 59.369387,95.2151659 59.3383349,94.5329734 C59.2984108,93.6233834 58.4910564,88.1831686 58.4910564,88.1831686 C58.4089901,85.1880185 55.8294485,79.5485603 55.1795726,78.4852062 C54.5296967,77.4218521 53.8044086,71.0330649 54.0483893,70.6887201 C54.1748157,70.5046364 54.2568819,69.415294 54.3078961,68.4104136 C54.3078961,68.295632 54.3189861,68.1830161 54.3234221,68.0725659 C54.3566922,67.2864202 54.3722183,66.630216 54.3722183,66.630216 L56.9096177,66.1407699 L57.5905457,66.0108285 L57.6437779,66 L57.665958,66.0433138 C57.7391522,66.1754209 57.9676068,66.5977306 58.2359856,67.1521474 C58.2670377,67.210621 58.2958718,67.2734261 58.3269239,67.3362311 C58.3402319,67.3665508 58.355758,67.3968704 58.371284,67.4271901 C58.8681175,68.4883785 59.4425812,69.8852489 59.4181831,70.6887201 C59.378259,72.1094131 61.0351099,75.539867 61.0351099,75.539867 C61.1948064,76.3281784 64.7081287,84.1723097 64.7081287,84.1723097 C64.7081287,84.1723097 67.5760112,91.8605112 67.4140967,93.1231088 C67.2521822,94.3857064 68.7870427,102.743106 68.7870427,102.743106 L70.3618274,111.338732 C71.1270396,113.032302 72.1362326,116.934877 72.1362326,116.934877 L72.5199477,119.148213 L72.593142,119.570522 L73.615643,125.47636 L74.1169124,128.369723 C74.1169124,128.369723 74.3276231,129.907363 74.647016,131.618259 C74.6736321,131.772023 74.7046842,131.927953 74.7357363,132.083882 C74.9325078,133.21013 75.2119577,134.321106 75.5719247,135.408217 C75.7504268,135.929009 75.8934311,136.460765 76,137 Z" id="Path" fill="#000000" opacity="0.1"></path>
            <path d="M76,138 C75.9091871,137.947408 75.8183743,137.894817 75.7253464,137.844417 C75.4772723,137.701981 75.2247682,137.568311 74.9678342,137.441215 C74.4385287,137.177225 73.8958928,136.940252 73.3420623,136.731229 C70.7837973,135.767051 68.0439066,135.416441 65.2663617,135.475606 C64.1588877,135.894147 63.4390296,136.194357 63.4390296,136.194357 L62.0303226,136.61509 C62.012603,136.461698 61.9970984,136.308306 61.9793788,136.152722 C61.9616592,135.997139 61.9483695,135.872234 61.9350799,135.73199 C61.4389315,131.09517 61.0491006,126.34221 61.0491006,126.34221 L61.0491006,122.178714 L61.0491006,121.698816 L61.0225213,109.578659 L60.8010264,105.752625 L60.7567275,104.959369 L60.7257182,104.422497 L60.6858492,103.712512 L60.6459801,102.99157 L60.6171858,102.472228 L60.6171858,102.35828 C60.6171858,102.347323 60.6171858,102.334175 60.6016811,102.321027 C60.5595971,102.202697 60.5086533,102.023009 60.4532796,101.795112 L60.4267002,101.685546 C60.4156255,101.635146 60.4023358,101.580363 60.3912611,101.525581 C59.9748508,99.6563898 59.3635252,95.6265636 59.3303009,94.8705603 C59.2904319,93.9502085 58.4841908,88.445628 58.4841908,88.445628 C58.4022377,85.4150409 55.8262531,79.7088596 55.1772733,78.6329245 C54.5282936,77.5569894 53.8062205,71.0926134 54.0476498,70.7441945 C54.1871916,70.5250632 54.2691446,69.1949356 54.3223034,68.0970874 C54.3223034,68.0094348 54.3223034,67.9239736 54.3223034,67.842895 C54.3510977,67.165779 54.3621725,66.6376723 54.3621725,66.6376723 L56.7188772,66.1774964 L57.3169132,66.0613568 L57.409941,66.0438263 L57.6314358,66 C57.6314358,66 57.921594,66.530298 58.2693408,67.2600055 L58.3136398,67.3520407 C58.8208629,68.4345497 59.4211138,69.9071126 59.4033942,70.7441945 C59.3635252,72.1816964 61.0180914,75.6527376 61.0180914,75.6527376 C61.1775676,76.4503759 64.6860453,84.3873147 64.6860453,84.3873147 C64.6860453,84.3873147 67.5499732,92.166479 67.388282,93.444015 C67.2265908,94.721551 68.7593348,103.177831 68.7593348,103.177831 L70.3319479,111.875156 C71.096105,113.588763 72.1039064,117.537511 72.1039064,117.537511 L72.460513,119.623642 L72.5336063,120.046565 L73.3376324,124.762273 L74.07964,129.107648 C74.07964,129.107648 74.3011348,130.656907 74.6067977,132.394619 C74.635592,132.552394 74.6643863,132.710168 74.6953956,132.870134 C74.8915964,134.014799 75.1706598,135.14404 75.530431,136.24914 C75.7267913,136.821584 75.8836744,137.406547 76,138 Z" id="Path" fill="#63667E"></path>
            <path d="M75,24.9245079 C75,24.9245079 74.1714565,26 73.4231645,26 C72.6748726,26 69.7619564,25.8797722 68.2436829,25.4032331 C66.7254094,24.9266939 59.2815313,24.5660106 59.2815313,24.5660106 C59.2815313,24.5660106 48.7403752,24.6053579 48.3846654,24.2468605 C48.0289556,23.8883632 41.8300618,21.9778346 41.1988938,22.0980624 C41.0665871,22.1242939 40.7434118,22.1811288 40.3117883,22.2532655 L39.8172649,22.334146 C39.068973,22.4543737 38.1341503,22.5942752 37.2795792,22.6970152 C36.2232947,22.8216149 35.2949789,22.8850078 35,22.7757098 L35,21.8597928 C35,21.8597928 36.2232947,20.067306 36.3013773,19.5536055 C36.3794599,19.0399051 37.407548,11.5923412 40.0927231,8.92765657 C41.2020309,6.79046489 42.9972379,5.09523246 45.1854463,4.11854574 C48.8184579,2.52498129 52.4514695,1.17405834 52.4514695,1.17405834 L53.0869754,1.08224804 L55.1366446,0.776213717 C55.1989514,0.713703544 55.2664337,0.656661958 55.3383581,0.605708879 C55.9066262,0.168516986 57.6287821,-0.782375382 59.873658,1.26149672 L60.270578,1.89979688 C60.270578,1.89979688 67.1787225,3.53052265 70.3757727,9.22057514 C73.5728229,14.9106276 73.7333261,20.4826383 73.969743,23.0292811 C73.969743,23.0292811 73.8114087,23.7462758 74.1280772,24.0238926 C74.2427211,24.125958 74.3520388,24.2339435 74.4555905,24.3474146 C74.483787,24.3758321 74.5119835,24.4042496 74.5380111,24.434853 C74.6291075,24.5266633 74.713697,24.6228455 74.7831038,24.7015401 C74.7913862,24.7076824 74.7986989,24.7150523 74.8047934,24.7233997 C74.8217299,24.7441052 74.8398345,24.7638114 74.8590175,24.7824206 L75,24.9245079 Z" id="Path" fill="#25CB55"></path>
            <path d="M74,24.9662911 C74,24.9662911 73.1673932,26 72.4154316,26 C71.6634699,26 68.7362685,25.8844431 67.2105493,25.4264176 C65.68483,24.9683921 58.2044464,24.6217215 58.2044464,24.6217215 C58.2044464,24.6217215 47.6115955,24.6595401 47.2541412,24.3149704 C46.896687,23.9704008 40.6673932,22.1340968 40.0331299,22.2496537 C39.9001744,22.2748661 39.5754141,22.329493 39.1416739,22.3988271 L39.0283348,21.7264961 L39,21.5605144 C39,21.5605144 51.0226678,19.0749907 59.0370532,20.377632 C67.0514385,21.6802733 72.9646905,23.1299871 72.9646905,23.1299871 C72.9646905,23.1299871 72.8055798,23.8191263 73.1238012,24.0859577 C73.2390073,24.1840578 73.3488612,24.287848 73.4529207,24.3969108 C73.4812554,24.4242242 73.5095902,24.4515377 73.5357454,24.4809522 C73.6272886,24.5691956 73.7122929,24.6616411 73.7820401,24.7372783 C73.7903632,24.743182 73.7977117,24.7502656 73.8038361,24.7582887 C73.8208975,24.7781545 73.8390888,24.7970929 73.8583261,24.8150166 L74,24.9662911 Z" id="Path" fill="#000000" opacity="0.05"></path>
            <path d="M72.8780148,26.9760482 C71.4166566,27.1000103 68.7235517,26.7117517 67.5454524,26.5223003 C67.2106919,26.4685055 66.8823692,26.4030161 66.5519005,26.3234932 C65.2879652,26.0241132 61.4017396,25.1844457 59.0412492,25.5727042 C56.1893477,26.0404855 48.1422213,25.1891235 48.1422213,25.1891235 C48.1422213,25.1891235 43.1808997,24.0828206 41.1873583,23.1893582 C40.4556063,22.8595724 39.232443,22.7566605 38.0157175,22.920384 C37.7054299,22.9625666 37.3974169,23.0226833 37.0929804,23.1004798 C35.4320535,23.5284997 34.0307806,24.5038238 34.2732673,26.1667865 C34.180438,26.0454976 34.0944441,25.9181832 34.0157593,25.7855447 C33.9106102,24.2652553 34.344082,23.3600984 34.9449341,22.8268277 L35.0865636,22.7636772 C35.8205586,22.5363545 36.5675268,22.3621166 37.3225917,22.242101 C37.4406163,22.2210509 37.5629326,22.2023396 37.6873948,22.1859673 C39.8225656,21.8725538 42.9105163,21.8023866 45.5156393,23.2314586 C45.5156393,23.2314586 47.9362149,24.4687402 49.5778287,24.4687402 C51.2194424,24.4687402 64.5776722,24.5973801 67.704249,25.5750431 C68.3266747,25.7710393 68.9614041,25.9172201 69.6033708,26.0124186 C70.7432585,26.172596 71.9015748,26.0535377 72.9938934,25.6639215 C73.0162407,26.1051647 72.9771719,26.5475526 72.8780148,26.9760482 Z" id="Path" fill="#000000" opacity="0.1"></path>
            <path d="M75,25.796129 C75,25.796129 74.1714565,27 73.4231645,27 C72.6748726,27 69.7619564,26.8654209 68.2436829,26.3319984 C66.7254094,25.7985759 59.2815313,25.3948387 59.2815313,25.3948387 C59.2815313,25.3948387 48.7403752,25.4388828 48.3846654,25.0375924 C48.0289556,24.6363021 41.8300618,22.4977183 41.1988938,22.6322974 C41.0665871,22.6616601 40.7434118,22.7252793 40.3117883,22.8060267 L39.8172649,22.8965617 C38.9583371,22.8916095 38.1033879,23.0284533 37.2795792,23.3027458 C36.2232947,23.4422187 35.2949789,23.5131786 35,23.390834 L35,23.1877419 C35.2274223,23.0388487 35.4645178,22.9096091 35.7092506,22.8011329 C37.1728797,22.3387592 38.6800342,22.0742711 40.1990023,22.0132336 C42.0925062,21.9349331 44.3070166,22.1845161 46.2525756,23.2905114 C46.2525756,23.2905114 48.6991649,24.5849174 50.358421,24.5849174 C52.017677,24.5849174 65.5194664,24.7170496 68.6796443,25.7422974 C69.3090552,25.9454227 69.9505346,26.0975178 70.5991758,26.1974193 C72.0224684,26.3997576 73.4677922,26.1656176 74.7831038,25.5196302 C74.7913862,25.5265057 74.7986989,25.5347554 74.8047934,25.5440991 C74.8217716,25.5672351 74.8398741,25.589291 74.8590175,25.6101652 L75,25.796129 Z" id="Path" fill="#000000" opacity="0.1"></path>
            <path d="M33.9714614,26.384025 C33.9714614,26.384025 31.3292848,24.2119044 34.7597829,22.7646035 C34.7597829,22.7646035 40.752326,20.7655044 45.2873406,23.232229 C45.2873406,23.232229 47.730271,24.4644222 49.3870457,24.4644222 C51.0438203,24.4644222 64.525418,24.5930192 67.6808698,25.5726947 C68.3092822,25.7670403 68.949819,25.9123786 69.5975307,26.0075864 C71.2762932,26.2273412 72.9768239,25.8784617 74.4639002,25.0092059 C74.680472,24.8806089 74.8753867,24.8151414 74.9338611,24.8899614 C75.1309415,25.1471555 74.9750098,26.6365427 73.2402692,26.9334849 C71.8866952,27.1672977 68.8113749,26.7253916 67.518441,26.5219745 C67.1827546,26.4681975 66.8492339,26.4003918 66.517879,26.3232336 C65.2422708,26.0239533 61.3201546,25.1845655 58.9270357,25.5726947 C56.0509615,26.0403202 47.9273514,25.1892418 47.9273514,25.1892418 C47.9273514,25.1892418 42.922376,24.0833074 40.9104235,23.1878046 C38.898471,22.2923017 33.2221228,23.0638838 33.9714614,26.384025 Z" id="Path" fill="#25CB55"></path>
            <path d="M56,5 C55.7904662,4.68123962 53.097957,2.4034311 52,1.48256779 L53.9800943,1.17266187 C54.0402861,1.10936089 54.1054777,1.05159768 54.1749607,1 C55.6144578,2.5960155 56,5 56,5 Z" id="Path" fill="#000000" opacity="0.1"></path>
            <polygon id="Path" fill="#000000" opacity="0.1" points="47.023199 16.3404826 46 18 49.9120879 17.8552279 50 16"></polygon>
            <polygon id="Path" fill="#000000" opacity="0.1" points="69 18 69.3028286 19.5494505 71 20 70.2728785 18.1483516"></polygon>
            <path d="M31,60 C31.2294709,60.3814172 38.7788539,70.2689245 40.7725142,69.9943879 C42.7661745,69.7198514 31,60 31,60 Z" id="Path" fill="#000000" opacity="0.1"></path>
            <path d="M57,69 C57,69 59.3036304,70.3830119 58.9662566,70.9226836 C58.6288828,71.4623553 57,69 57,69 Z" id="Path" fill="#000000" opacity="0.1"></path>
            <path d="M35.9981337,82 C35.9981337,82 34.4082315,89.7482665 35.2416312,89.9945862 C36.0750309,90.2409058 35.9981337,82 35.9981337,82 Z" id="Path" fill="#000000" opacity="0.1"></path>
            <path d="M58,112 C58.2639969,112.763119 60.4591206,117.725486 60.9517762,117.991739 C61.4444318,118.257992 58,112 58,112 Z" id="Path" fill="#000000" opacity="0.1"></path>
            <path d="M84,92 C83.9046007,92.2149151 81.5582931,93.479022 82.0739651,93.9410049 C82.5896371,94.4029878 84,92 84,92 Z" id="Path" fill="#000000" opacity="0.1"></path>
            <path d="M68.1915867,106 C68.1375544,106.191595 67.5912272,110.165107 68.6298492,110.929405 C69.6684712,111.693702 68.1915867,106 68.1915867,106 Z" id="Path" fill="#000000" opacity="0.1"></path>
            <path d="M89.0410109,127.450801 C88.4667886,127.769006 87.8729905,128.076387 87.2683171,128.370781 C86.6157917,128.686821 85.9632664,128.987709 85.2976906,129.271279 C85.0323303,129.386006 84.76697,129.498569 84.5037848,129.606802 C84.1035692,129.771316 83.7077039,129.929336 83.3161887,130.080862 C82.1264175,130.544099 80.980148,130.946726 79.9600334,131.286577 C79.564168,131.418622 79.1857033,131.539843 78.8333396,131.652405 C77.0584708,132.213052 75.879575,132.518269 75.879575,132.518269 C75.6102769,132.460896 75.3346661,132.438341 75.0595682,132.451164 C74.9834402,132.451164 74.9051372,132.451164 74.824659,132.451164 C74.4562924,132.477747 74.0896255,132.523993 73.7262414,132.589702 C71.2966721,133.022634 67.8643889,134.237008 65.7958836,135.031438 C64.7083414,135.444888 64.0014389,135.741446 64.0014389,135.741446 L62.6180852,136.157061 L62.3875263,136.22633 C60.8888931,136.680909 58.7812363,137.325977 58.0221318,137.594395 C56.7953842,138.027327 46.1439957,140.233115 46.1439957,140.233115 C45.1709167,140.497454 44.1769076,140.678502 43.1728304,140.77428 C40.6986015,141.000209 38.2116945,141.056623 35.7296915,140.943123 C33.2370447,141.103308 29.2044382,140.557814 26.8575221,140.189822 L26.4834076,140.131376 C25.5763974,139.984179 25,139.878111 25,139.878111 L25.3045118,139.460331 L31.5491792,130.886115 L31.5861557,130.834164 L37.4045065,122.848735 L37.6220149,122.558671 L38.1505605,121.83351 C38.1505605,121.83351 38.4681228,121.400578 39.6905202,121.372437 C39.8340758,121.372437 39.9906819,121.372437 40.1625136,121.372437 C41.1893037,121.454585 42.2023044,121.660284 43.1793557,121.985036 L43.4621166,122.069458 C47.6752552,123.270844 54.187458,122.969956 54.187458,122.969956 C54.187458,122.969956 58.2396403,122.320558 61.4239639,121.930919 L61.6610481,121.900614 C62.7016109,121.754295 63.7493501,121.663969 64.7996949,121.630032 C66.7398702,121.668996 70.9377832,120.645112 70.9377832,120.645112 C71.8404432,120.452457 72.221083,120.290108 72.7300527,119.928609 C72.7974804,119.880987 72.8692581,119.829035 72.9475612,119.772754 C73.1650696,119.610405 73.4152043,119.411256 73.7371168,119.164485 C74.3243896,118.7164 75.1487466,118.108131 76.4450969,117.255255 C76.5582013,117.181657 76.677831,117.108058 76.806161,117.038789 C76.9344909,116.96952 77.0976223,116.87644 77.2542284,116.798512 C78.509671,116.206817 79.8333074,115.770628 81.1954813,115.499716 C82.3254355,115.257975 83.4720238,115.100957 84.6255895,115.029985 L84.7974212,115.029985 C88.0600478,114.856812 91.3922772,115.41313 93.3411528,117.237938 C93.6819225,117.558622 93.9788302,117.92252 94.2242371,118.320268 C94.3433357,118.509165 94.4494329,118.705878 94.5417994,118.909055 C94.7195815,119.296656 94.8516905,119.703432 94.9354897,120.121264 C94.9514403,120.199192 94.9644908,120.27712 94.9746412,120.355047 C94.9746412,120.378859 94.9746412,120.400505 94.9746412,120.424316 C94.9746412,120.487092 94.9876917,120.549867 94.9920419,120.612642 C95.1660486,123.203739 92.4645938,125.545901 89.0410109,127.450801 Z" id="Path" fill="#000000" opacity="0.1"></path>
            <path d="M25,139.880853 C25,139.880853 32.0473122,141.178906 35.7297503,140.943093 C35.7297503,140.943093 42.5008253,141.297894 46.1441117,140.235654 C46.1441117,140.235654 56.8020839,138.028963 58.0223129,137.596279 C59.242542,137.163594 64.0016528,135.744389 64.0016528,135.744389 C64.0016528,135.744389 73.2675633,131.884844 75.879854,132.5144 C75.879854,132.5144 96.3910127,127.237812 94.9249977,120.109336 C93.4589828,112.980859 80.5128093,114.596936 76.4366787,117.273089 C72.3605481,119.949242 72.9565245,120.228324 70.9336849,120.661008 C70.9336849,120.661008 66.7357489,121.684307 64.795563,121.645366 C62.855377,121.606424 54.1832678,122.984524 54.1832678,122.984524 C54.1832678,122.984524 47.3730411,123.300384 43.1772803,122.000167 C38.9815194,120.69995 38.1484575,121.842237 38.1484575,121.842237 L25,139.880853 Z" id="Path" fill="#FFA2A2"></path>
            <path d="M40.999184,120.823872 C41.000272,120.832567 41.000272,120.841361 40.999184,120.850056 C40.9837376,121.012233 40.9411138,121.170761 40.8730483,121.319183 C40.0232915,123.37461 35.1991518,128.919029 35.1991518,128.919029 C34.9792167,129.577665 34.7137841,130.220673 34.4047178,130.843538 C33.7399974,132.174964 32.9743722,133.455055 32.1143579,134.672917 C30.8395606,136.494967 29.4477443,138.234658 27.9474519,139.88131 L27.9363873,139.88131 C27.7454738,140.020964 27.546735,140.149906 27.341115,140.267521 C26.8210816,140.572999 26.0399251,140.950482 25.3030266,140.996304 C25.1775485,141.003671 25.0516544,141.00002 24.9268323,140.985394 C25.004284,140.985394 25.0795229,140.967938 25.1481231,140.954846 L24.8781483,140.876295 L24.5085926,140.762831 C23.8889783,140.570817 23.2745275,140.360619 22.6652402,140.132238 L22.2956845,139.992591 C21.7055757,139.768575 21.1280066,139.527829 20.5629774,139.270355 L20.1934218,139.104524 C19.6033129,138.833959 19.0257439,138.548119 18.4607147,138.247005 C18.2571272,138.14227 18.0557525,138.028807 17.8565908,137.92189 C17.2546798,137.590228 16.6645709,137.242566 16.0862643,136.878902 C15.4725511,136.493418 14.8721153,136.091206 14.2849571,135.672266 C13.8423754,134.86275 13.4772456,134.144878 13.2780839,133.758667 C12.9151669,133.040794 12.8841862,132.01308 12.9284444,131.269024 C12.9284444,131.192655 12.9284444,131.120649 12.9417218,131.050826 C12.9793413,130.583882 13.0368769,130.26313 13.0368769,130.26313 C12.7089766,129.830873 12.4131533,129.375838 12.1517136,128.901573 C12.001511,128.666115 11.9160922,128.396143 11.9038679,128.118241 C11.9138765,128.00675 11.9033811,127.894393 11.8728872,127.78658 C11.7024933,127.097073 10.9700207,125.912256 10.2928708,125.1682 C9.78832773,124.620523 9.75734702,122.573823 9.806031,121.122804 C9.8347988,120.250011 9.8901215,119.608508 9.8901215,119.608508 C9.79096039,119.545407 9.71675468,119.450672 9.67989523,119.340124 C9.50195737,118.862569 9.38163288,118.366027 9.32140411,117.86074 C9.32140411,117.788734 9.30148794,117.716729 9.2904234,117.642541 C9.14879728,116.641011 9.08462294,115.635117 9.08462294,115.635117 C7.44707093,114.459029 6.66812726,112.623981 6.30521033,110.987494 L6.25873926,110.769296 C6.05942857,109.763493 5.97481227,108.738867 6.00646773,107.71452 C6.00646773,107.61633 6.00646773,107.542143 6.00646773,107.496321 C6.00646773,107.4505 6.00646773,107.441772 6.00646773,107.441772 C6.00646773,107.441772 6.22333273,102.713415 6.82966956,100.867458 C6.85401155,100.788906 6.88056644,100.716901 6.90712134,100.649259 C6.95179269,100.533331 7.009701,100.422793 7.07972818,100.31978 C7.30101899,100.029576 7.45813547,99.4818985 7.58869705,98.8338496 C7.67942628,98.3843611 7.75466516,97.884687 7.80998786,97.3871949 C7.86088475,96.9726182 7.90071709,96.5602235 7.93169781,96.1783765 C8.01800122,95.1572085 8.04455612,94.3607848 8.04455612,94.3607848 L7.63516812,92.3708164 C7.5223098,91.8275027 7.43600639,91.279825 7.37625787,90.7321473 C7.37625787,90.6601419 7.3585546,90.5881365 7.34970297,90.5139491 C7.24620645,89.502565 7.22770251,88.4844742 7.29438027,87.470083 C7.29438027,87.3958956 7.29438027,87.3238902 7.30765771,87.2518847 C7.48044452,84.941418 8.09303401,82.6837132 9.11339075,80.5968371 L9.22403616,80.3786389 C9.37156337,80.0877078 9.52646693,79.8018681 9.68874686,79.5211196 C9.806031,79.3138312 9.92995385,79.1087249 10.0583025,78.9058005 C10.3985515,78.3624121 10.7678919,77.837266 11.1647566,77.3325908 C11.2222922,77.2584034 11.2820407,77.186398 11.3417892,77.1143926 C12.0322997,76.2702882 12.7996894,75.4902508 13.6343621,74.7840349 C15.8693993,72.8900738 17.9207651,72.0674663 19.7840338,72.0041888 C27.9319615,71.720531 32.5016168,85.9296032 33.2407281,88.4192456 C33.3115412,88.6592637 33.3469477,88.7901826 33.3469477,88.7901826 C33.3469477,88.7901826 36.6486066,92.047883 35.6815658,93.4770817 C35.4940667,93.7916827 35.3799245,94.1434855 35.3474167,94.5069776 C35.0818677,96.4293045 35.8431081,99.5953616 35.8431081,99.5953616 C35.8431081,99.5953616 36.1130829,100.468155 36.9008782,102.558494 L37.1332335,103.169449 C37.626712,104.478639 37.7417833,106.675896 37.458531,108.644044 C37.1863433,110.529277 36.5468129,112.196312 35.5222364,112.623981 C33.4266124,113.496774 33.990904,114.369567 34.4733179,115.08744 C34.7599844,115.602026 34.9992017,116.140959 35.1880873,116.697743 C35.4912557,117.502895 35.772295,118.349504 35.8785146,118.678983 C35.9094953,118.770627 35.9249857,118.820812 35.9249857,118.820812 C36.218515,118.708779 36.5234488,118.628307 36.8344909,118.580794 C37.2306015,118.526245 37.6222862,118.56552 37.6975251,118.899364 C37.7373574,119.078286 37.965287,119.289938 38.2861587,119.501591 C39.2377092,120.147458 40.999184,120.823872 40.999184,120.823872 Z" id="Path" fill="#000000" opacity="0.1"></path>
            <path d="M40,120.851286 C39.986464,121.017386 39.9437804,121.179903 39.8738529,121.331589 C39.0284457,123.390343 34.1994445,128.950942 34.1994445,128.950942 C33.9785278,129.609596 33.7130974,130.252898 33.4049388,130.876521 C32.8708707,131.95232 32.26691,132.992961 31.5968298,133.991942 C30.2095049,136.056418 28.6725445,138.019144 26.9979918,139.864738 L26.9470903,139.919318 C26.9470903,139.919318 26.7523368,140.065592 26.4425017,140.253347 C25.8888774,140.601956 25.2788372,140.854489 24.6388189,141 L24.3688198,140.921405 L23.9992308,140.807879 C23.3795606,140.615758 22.7650543,140.405443 22.155712,140.176935 L21.786123,140.037211 C21.1959609,139.813069 20.6183398,139.57219 20.0532596,139.314573 L19.6836706,139.14865 C19.0935085,138.877934 18.5158874,138.591935 17.9508072,138.290654 C17.7472013,138.185861 17.5458085,138.072334 17.3466288,137.965358 C16.7446634,137.633512 16.1545014,137.285656 15.5761425,136.92179 C14.962374,136.536092 14.3618841,136.133657 13.7746728,135.714483 C13.5031983,135.522362 13.2346745,135.325146 12.9691016,135.122837 C12.670332,134.563939 12.4313164,134.092369 12.2830382,133.79982 C11.9200885,133.081549 11.889105,132.053264 11.9333671,131.308794 C11.9333671,131.232382 11.9333671,131.160337 11.9466458,131.090474 C11.9842686,130.62327 12.0418094,130.302341 12.0418094,130.302341 C12.0418094,130.302341 11.8625477,130.064372 11.6456631,129.741259 C11.5239422,129.562237 11.3933688,129.354834 11.2760741,129.149613 C11.0547633,128.765371 10.8821409,128.376762 10.9153376,128.156259 C10.9198254,128.118547 10.9198254,128.080446 10.9153376,128.042733 C10.9120135,127.969018 10.9008875,127.895847 10.8821409,127.824413 C10.7117316,127.134524 9.97697986,125.949048 9.29976888,125.204578 C8.7951803,124.656596 8.7641968,122.608759 8.81067206,121.156933 C8.81067206,121.082705 8.81067206,121.010659 8.81067206,120.938614 C8.84165557,120.185411 8.88813083,119.641796 8.88813083,119.641796 C8.63804965,119.534819 8.44550928,118.742319 8.32157524,117.895239 L8.28837862,117.676919 C8.14673973,116.674832 8.0825596,115.668379 8.0825596,115.668379 C6.44485984,114.491637 5.6658459,112.655569 5.30510934,111.018172 C5.05379569,109.871365 4.95705857,108.696846 5.01740532,107.525059 C5.01740532,107.490128 5.01740532,107.470479 5.01740532,107.470479 C5.01740532,107.470479 5.20773259,102.715479 5.81412413,100.866312 C5.83846831,100.787717 5.8650256,100.715671 5.8915829,100.647992 C5.94468899,100.534674 6.01077504,100.427729 6.08854949,100.329246 C6.42494187,99.8664081 6.64846576,98.7529782 6.79453087,97.61335 L6.82108817,97.3950304 C7.00477611,95.8667934 7.05567759,94.3669379 7.05567759,94.3669379 L6.64403954,92.3758633 C6.53190875,91.8300644 6.44559755,91.2835377 6.38510593,90.7362833 C6.37404039,90.6642378 6.36740107,90.5900092 6.35854864,90.5179637 C6.25506297,89.5060162 6.23655739,88.4873611 6.30322094,87.4724056 C6.30322094,87.3981769 6.30322094,87.3261314 6.3187127,87.254086 C6.49046632,84.94216 7.10316269,82.6830098 8.12460865,80.5953388 C8.16001837,80.5211102 8.1954281,80.4490647 8.23526404,80.3770192 C8.51981485,79.8099961 8.83603753,79.258984 9.18247417,78.7265232 C9.30198199,78.5409516 9.42370291,78.3575631 9.55206317,78.1763579 C9.75345597,77.888176 9.96370121,77.6043606 10.1827989,77.3292779 L10.3598475,77.1109583 C11.0445153,76.2696123 11.8052635,75.4913782 12.6327092,74.7858548 C15.0671278,72.7271012 17.2802355,71.9324179 19.2720325,72.0044634 C27.1174996,72.2817292 31.5215841,85.9878324 32.2452703,88.4286453 C32.3160898,88.6687969 32.3514995,88.7997886 32.3514995,88.7997886 C32.3514995,88.7997886 35.6556694,92.0592999 34.6885413,93.4892932 C34.5010253,93.8040691 34.3868728,94.1560674 34.3543621,94.5197616 C34.086576,96.4431571 34.8500982,99.6109742 34.8500982,99.6109742 C34.8500982,99.6109742 35.1200973,100.484252 35.9079637,102.575754 C35.9787832,102.770058 36.0562419,102.973096 36.1292745,103.187049 C36.6227975,104.496966 36.7378791,106.695445 36.4546013,108.664687 C36.1823891,110.553151 35.545014,112.21893 34.518132,112.646836 C32.4245321,113.520115 32.9866614,114.393393 33.471332,115.111664 C33.7580243,115.626537 33.9972632,116.165769 34.1861659,116.722863 C34.5690335,117.751148 34.9209176,118.847112 34.9209176,118.847112 C35.0657575,118.791974 35.2135137,118.744602 35.3635392,118.705205 C35.6714246,118.605326 35.9974595,118.571823 36.3196018,118.606961 C36.502497,118.620946 36.6553721,118.749707 36.6980432,118.925707 C36.7577971,119.187691 37.2159104,119.512987 37.7714005,119.820818 C38.4926728,120.208034 39.2368805,120.552143 40,120.851286 Z" id="Path" fill="#CED7E7"></path>
            <path d="M12,99.9849806 C12.7372397,99.9450579 20.6508475,96.7556781 22.2808717,97.8446805 C23.9108959,98.9336829 34,106 34,106 C34,106 27.678063,97.401095 22.1700726,95.382781 C16.6620823,93.3644669 12,99.9849806 12,99.9849806 Z" id="Path" fill="#000000" opacity="0.1"></path>
            <path d="M23,112 C23,112 30.8134642,113.781847 32,115 L23,112 Z" id="Path" fill="#000000" opacity="0.1"></path>
            <path d="M21,125 C20.8752085,125.125163 17.7646643,132 18.0142473,132 C18.2638304,132 20.9168057,127.903771 20.9168057,127.903771 L21,125 Z" id="Path" fill="#000000" opacity="0.1"></path>
            <path d="M27,117 C27,117 24.7606364,117.907469 25.0210752,117.992767 C25.281514,118.078064 26.9241241,117.388577 27,117 Z" id="Path" fill="#000000" opacity="0.1"></path>
            <path d="M25,127 C25.4030505,127.838684 26.6919262,130.356932 26.9753902,129.957349 C27.2588543,129.557767 25,127 25,127 Z" id="Path" fill="#000000" opacity="0.1"></path>
            <path d="M54,60.2085092 L53.6601858,60.6993028 C53.6601858,60.6993028 50.9612767,58.7692903 49.8525239,57.8031786 C48.7437712,56.837067 46.1254591,61.2630521 44.0626125,62.470139 C41.999766,63.6772259 38.5123137,64 38.5123137,64 C38.5123137,64 35.8155829,61.2630521 35.8983582,60.4627491 C35.9811334,59.6624461 34.6305898,59.4170494 34.5499928,58.8533 C34.4693959,58.2895506 33.9945273,56.6801015 33.3606431,55.8753769 C33.0251854,55.4509068 32.9772629,54.122227 33.0077591,52.9659881 C33.2255887,52.9217725 33.3606431,52.8974539 33.3606431,52.8974539 C33.6992103,52.2730603 34.1271857,51.7031052 34.6305898,51.2062058 C35.3450709,50.5628683 36.4538237,46.6188336 36.4538237,46.6188336 C37.0877079,44.4456351 38.3554764,45.0889726 38.3554764,45.0889726 C38.3554764,48.3896698 41.6882696,49.5967566 43.3524879,50.9652306 C45.0167063,52.3337045 47.6350184,55.8753769 49.6978649,56.6005134 C51.3904011,57.1863705 53.3704724,59.4524219 54,60.2085092 Z" id="Path" fill="#000000" opacity="0.1"></path>
            <path d="M54,60.2066024 L53.6603619,60.6995672 C53.6603619,60.6995672 50.9519661,58.7741305 49.8437881,57.8014645 C48.73561,56.8287984 46.1186552,61.2610608 44.056878,62.468051 C41.9951007,63.6750411 38.5094563,64 38.5094563,64 C38.5094563,64 35.8141234,61.2610608 35.8968558,60.4630325 C35.9795881,59.6650042 34.6297445,59.4174165 34.5491893,58.8515017 C34.4686342,58.2855869 33.9940117,56.6784773 33.3604561,55.8738172 C33.0251724,55.4493811 32.9772747,54.1208077 33.0077551,52.9646614 L33.3604561,52.8983433 C33.6988479,52.2739997 34.1266014,51.7040903 34.6297445,51.2072307 C35.3438553,50.5617341 36.4520334,46.620226 36.4520334,46.620226 C37.085589,44.4472015 38.3527002,45.0882769 38.3527002,45.0882769 C38.3527002,48.3887097 41.6837658,49.5979105 43.3471215,50.9662748 C45.0104771,52.3346391 47.627432,55.8738172 49.6892092,56.5988955 C51.3917538,57.1935482 53.3707987,59.4505756 54,60.2066024 Z" id="Path" fill="#CED7E7"></path>
            <path d="M54,59.501928 C54,59.501928 51.603841,60.8669845 49.7324699,60.9959847 C49.4875017,61.0079906 49.2420098,60.9930548 49,60.951421 C49,60.951421 51.0656543,59.3307096 52.9839214,59 L54,59.501928 Z" id="Path" fill="#000000" opacity="0.1"></path>
            <path d="M58.9911308,66.4446764 C58.9911308,66.4446764 55.9911308,65.3444676 55,67 C55.0332594,66.2400835 55.0465632,65.6096033 55.0465632,65.6096033 L58.3170732,65 C58.3170732,65 58.631929,65.5490605 59,66.2881002 C58.9911308,66.3862213 58.9911308,66.4446764 58.9911308,66.4446764 Z" id="Path" fill="#000000" opacity="0.1"></path>
            <path d="M49,60.9466141 C49,60.9466141 52.7147917,58.8324919 54.5,59.0106604 C56.3722917,59.1953474 60,59.3257146 60,59.3257146 C60,59.3257146 58.74875,62.0156255 58.9160417,62.5696863 C59.0833333,63.1237471 59.1245833,65.813658 59.1245833,65.813658 C59.1245833,65.813658 55.3708333,64.4295924 54.7452083,67 C54.7452083,67 52.7010417,64.1123654 51.32375,63.2410777 C50.4098569,62.6150624 49.6226526,61.8377793 49,60.9466141 Z" id="Path" fill="#63667E"></path>
            <path d="M68.79305,64 C67.7826789,64 64.2047262,61.7130263 63.427189,60.217947 C62.6496518,58.7228677 61.5602453,60.3737295 60.5498742,60.9276228 C59.9090468,61.2824608 57.3692344,60.5403302 56,60.0015824 C56.6942296,59.5234166 58.2322153,58.1776289 58.6829305,57.8552457 C59.2254977,57.4592985 59.772337,51.0787067 59.772337,51.0787067 C61.71618,50.0553022 63.8159576,59.350325 63.8159576,59.350325 C63.8159576,59.350325 67.4729456,60.4537844 67.7826789,61.2413515 C67.8424894,61.397134 68.1180452,61.6740807 68.5324469,62.0094458 C68.9596651,63.0999233 69.1946351,64 68.79305,64 Z" id="Path" fill="#000000" opacity="0.1"></path>
            <path d="M69.7847011,63 C68.7335689,63 65.0112719,60.7140486 64.2023668,59.2182224 C63.3934617,57.7223962 62.2601056,59.3740827 61.2089734,59.926088 C60.5422933,60.2811032 58.424473,59.5948848 57,59.0601973 C57.7222367,58.5839574 58.7978139,57.1812145 59.2667122,56.8565055 C59.8311679,56.4625252 60.4000682,50.078746 60.4000682,50.078746 C62.4223311,49.0548303 64.6068194,58.3544964 64.6068194,58.3544964 C64.6068194,58.3544964 68.4113402,59.458507 68.7335689,60.2464676 C68.7957923,60.4023279 69.0824647,60.6794129 69.5135845,61.0149456 C69.9580379,62.0994737 70.2024872,63 69.7847011,63 Z" id="Path" fill="#CED7E7"></path>
            <path d="M83.1740887,134.142885 L117.621228,105.435414 C117.964959,105.145188 118.402948,104.990501 118.852804,105.000452 L131.703843,105.337547 C131.703843,105.337547 132.593798,105.98999 131.28824,107.416664 L98.7929102,134.068942 C98.4417649,134.355875 98.0059466,134.519414 97.5526304,134.534351 L83.5004781,134.99976 C83.2936208,135.006248 83.1054133,134.880888 83.0317777,134.687572 C82.958142,134.494255 83.0152872,134.275535 83.1740887,134.142885 Z" id="Path" fill="#3C31D5"></path>
            <path d="M100,130.939173 C100,130.939173 107.634657,141.801805 116.117118,131.698153 C124.599579,121.594502 122.146686,116.286027 119.574571,116.005248 C117.002455,115.724469 102.530167,126.786717 100,130.939173 Z" id="Path" fill="#FFA2A2"></path>
        </g>
    </g>
</svg>