<?xml version="1.0" standalone="no"?>
<!DOCTYPE svg PUBLIC "-//W3C//DTD SVG 20010904//EN"
 "http://www.w3.org/TR/2001/REC-SVG-20010904/DTD/svg10.dtd">
<svg version="1.0" xmlns="http://www.w3.org/2000/svg"
 width="700.000000pt" height="700.000000pt" viewBox="0 0 700.000000 700.000000"
 preserveAspectRatio="xMidYMid meet">
<metadata>
Created by potrace 1.11, written by Peter Selinger 2001-2013
</metadata>
<g transform="translate(0.000000,700.000000) scale(0.100000,-0.100000)"
fill="#000000" stroke="none">
<path d="M20 6760 l0 -240 3490 0 3490 0 0 240 0 240 -3490 0 -3490 0 0 -240z"/>
<path d="M0 5800 l0 -240 1732 0 c952 0 1729 -2 1726 -5 -4 -5 -3413 -475
-3443 -475 -13 0 -15 -30 -15 -220 l0 -220 3488 2 3487 3 0 215 0 215 -1815 5
-1815 5 1795 233 c987 129 1805 236 1818 239 l22 5 0 239 0 239 -3490 0 -3490
0 0 -240z"/>
<path d="M24 4177 c-2 -7 -3 -105 -2 -217 l3 -205 3488 -3 3487 -2 0 220 0
220 -3485 0 c-2819 0 -3487 -2 -3491 -13z"/>
<path d="M3810 3030 l0 -240 1585 0 1585 0 0 240 0 240 -1585 0 -1585 0 0
-240z"/>
<path d="M3810 2093 l1 -218 400 -235 400 -235 -398 -5 -398 -5 0 -215 0 -215
785 -5 785 -5 399 -235 398 -235 -1171 -3 -1171 -2 0 -240 0 -240 1580 0 1580
0 -2 242 -3 242 -411 235 -410 236 413 3 413 2 0 220 0 220 -806 0 -806 0
-416 238 -416 237 1212 3 1212 2 0 215 0 215 -1585 0 -1585 0 0 -217z"/>
</g>
</svg>
