<svg id="Organisation" xmlns="http://www.w3.org/2000/svg" viewBox="0 0 720 720"><defs><style>.cls-1{fill:#fff;}</style></defs><path class="cls-1" d="M395,175H205V545H515V295H395V175Z"/><path d="M375,195V315H495V525H225V195H375m20-20H205V545H515V295H395V175Z"/><path d="M280,545h40V465H280Zm5-140H255v30h30Zm30,30h30V405H315ZM285,225H255v30h30Zm30,150h30V345H315Zm-30-30H255v30h30Zm0-60H255v30h30Zm30-30h30V225H315ZM435,495h30V465H435Zm0-60h30V405H435Zm0-90v30h30V345ZM375,495h30V465H375ZM315,315h30V285H315Zm60,60h30V345H375Zm0,60h30V405H375Z"/></svg>