<svg id="Regime" xmlns="http://www.w3.org/2000/svg" viewBox="0 0 720 720"><defs><style>.cls-1{fill:#fff;}</style></defs><g id="Unknown"><path class="cls-1" d="M472.58,203.18c-75.05,0-150.11,43.64-225.16,43.64C220,246.82,192.47,241,165,225V495c27.48,16,54.94,21.82,82.42,21.82,75.05,0,150.11-43.65,225.16-43.64,27.47,0,54.95,5.85,82.42,21.82V225c-27.48-16-54.94-21.83-82.42-21.82Z"/><path d="M472.6,223.18c22.63,0,43.15,4.53,62.4,13.82V463.66a182.68,182.68,0,0,0-62.42-10.48c-40.37,0-79.92,11.49-118.17,22.62-37.19,10.81-72.32,21-107,21-22.64,0-43.17-4.53-62.42-13.82V256.34a182.68,182.68,0,0,0,62.42,10.48c40.37,0,79.92-11.5,118.17-22.62,37.19-10.81,72.32-21,107-21h0m0-20c-75.05,0-150.11,43.64-225.16,43.64C220,246.82,192.47,241,165,225V495c27.48,16,54.94,21.82,82.42,21.82,75.05,0,150.11-43.65,225.16-43.64,27.47,0,54.95,5.85,82.42,21.82V225c-27.48-16-54.94-21.83-82.42-21.82Z"/><path d="M360,310c-23,0-34.58,14.73-35,33h18c.14-10.71,6.56-17.2,17-17.2,8.61,0,15.56,5.82,15.56,14.2s-3.27,10.34-9.34,14.59C357.61,360.64,351,363.93,351,380h18c0-9.75,4.34-9.84,14.93-17.67,6.06-4.53,11.07-9.5,11.07-23.1C395,323,381.59,310,360,310Zm10,80H350v20h20V390Z"/></g></svg>