<svg id="Organisation" xmlns="http://www.w3.org/2000/svg" viewBox="0 0 720 720"><defs><style>.cls-1{fill:#fff;}</style></defs><g id="Unknown"><path class="cls-1" d="M395,175H205V545H515V295H395V175Z"/><path d="M375,195V315H495V525H225V195H375m20-20H205V545H515V295H395V175Z"/><path d="M360,370c-23,0-34.58,14.73-35,33h18c.14-10.71,6.56-17.2,17-17.2,8.61,0,15.56,5.82,15.56,14.2s-3.27,10.34-9.34,14.59C357.61,420.64,351,423.93,351,440h18c0-9.75,4.34-9.84,14.93-17.67,6.06-4.53,11.07-9.5,11.07-23.1C395,383,381.59,370,360,370Zm10,80H350v20h20V450Z"/></g></svg>