<svg id="Regime" xmlns="http://www.w3.org/2000/svg" viewBox="0 0 720 720"><defs><style>.cls-1{fill:#fff;}</style></defs><path class="cls-1" d="M472.58,203.18c-75.05,0-150.11,43.64-225.16,43.64C220,246.82,192.47,241,165,225V495c27.48,16,54.94,21.82,82.42,21.82,75.05,0,150.11-43.65,225.16-43.64,27.47,0,54.95,5.85,82.42,21.82V225c-27.48-16-54.94-21.83-82.42-21.82Z"/><path d="M472.6,223.18c22.63,0,43.15,4.53,62.4,13.82V463.66a182.68,182.68,0,0,0-62.42-10.48c-40.37,0-79.92,11.49-118.17,22.62-37.19,10.81-72.32,21-107,21-22.64,0-43.17-4.53-62.42-13.82V256.34a182.68,182.68,0,0,0,62.42,10.48c40.37,0,79.92-11.49,118.17-22.62,37.19-10.81,72.32-21,107-21h0m0-20c-75.05,0-150.11,43.64-225.16,43.64C220,246.82,192.47,241,165,225V495c27.48,16,54.94,21.82,82.42,21.82,75.05,0,150.11-43.65,225.16-43.64,27.47,0,54.95,5.85,82.42,21.82V225c-27.48-16-54.94-21.83-82.42-21.82Z"/></svg>