<svg xmlns="http://www.w3.org/2000/svg" width="138.0466" height="106.9645" viewBox="0 0 138.0466 106.9645"><title>building</title><g id="Layer_2" data-name="Layer 2"><g id="Register"><path d="M28.1814,1.938c-5.63.9383-11.26,1.8766-14.5437,7.0372C9.8845,14.605,9.8845,23.05,10.8228,30.5561s2.8149,15.482,1.4075,22.5192C9.8845,64.3349.5015,71.3722.0324,83.1009c-.4692,7.9756,4.2223,15.482,9.8521,19.7043s12.1979,4.6915,18.766,3.7532c24.865-3.284,44.5693-29.5564,69.9034-30.0256,11.26-.4691,24.8649,4.2224,33.31-4.6915,7.0372-7.5064,7.9755-21.1117,3.284-31.433C127.6411,22.5806,106.06,12.2593,91.9858,6.63,70.874-.8769,49.2931-1.346,28.1814,1.938" fill="#f4f7f8"/><rect x="63.9466" y="61.7018" width="1.5" height="1.5" fill="#30a95b"/><rect x="60.4466" y="61.7018" width="1.5" height="1.5" fill="#30a95b"/><rect x="67.4466" y="61.7018" width="1.5" height="1.5" fill="#30a95b"/><rect x="40.7466" y="61.7018" width="10.6" height="1.5" fill="#373a3c"/><rect x="63.9466" y="45.5018" width="1.5" height="1.5" fill="#30a95b"/><rect x="67.4466" y="45.5018" width="1.5" height="1.5" fill="#30a95b"/><rect x="60.4466" y="45.5018" width="1.5" height="1.5" fill="#30a95b"/><rect x="40.7466" y="45.5018" width="10.6" height="1.5" fill="#373a3c"/><path d="M72.0466,66.7018h-35.3v-8.6h35.3Zm-5.2-10h-25v-4.6h25Zm5.2-6.2h-35.3v-8.6h35.3Zm-5.2-10h-25v-4.6h25Zm-30.1-14.7h35.3v8.6h-35.3Zm36.8,10.1v-11.6h-38.3v11.5h5.1v4.6h-5.1v11.6h5.1v4.6h-5.1v11.6h18.4v7.2a4.038,4.038,0,0,0-3.3,3.3h-10v1.5h10a4.0743,4.0743,0,0,0,4,3.3,3.9957,3.9957,0,0,0,4-3.3h10.5v-1.5h-10.4a4.0382,4.0382,0,0,0-3.3-3.3v-7.2h18.4v-11.5h-5.2v-4.6h5.2v-11.6h-5.2v-4.6Zm-16.5,43.5a2.6,2.6,0,1,1-2.6-2.6A2.6474,2.6474,0,0,1,57.0466,79.4018Z" fill="#373a3c"/><path d="M57.0466,79.4018a2.6,2.6,0,1,1-2.6-2.6A2.6474,2.6474,0,0,1,57.0466,79.4018Z" fill="#3c31d5"/><rect x="63.9466" y="29.3018" width="1.5" height="1.5" fill="#30a95b"/><rect x="60.4466" y="29.3018" width="1.5" height="1.5" fill="#30a95b"/><rect x="67.4466" y="29.3018" width="1.5" height="1.5" fill="#30a95b"/><rect x="40.7466" y="29.3018" width="10.6" height="1.5" fill="#373a3c"/><path d="M92.7466,53.3018v-18.5l1.6-2-1.1-8.5h-5.7l-1.1,8.5,1.6,2v18.5h-7.1v1.5h2.3v20.3a6.722,6.722,0,0,0,2.1,5,7.09,7.09,0,0,0,12.1-5v-20.3h2.3v-1.5Zm-3.8-27.5h3l.8,6.6-1.5,1.9v19h-1.6v-19l-1.5-2Zm7.1,49.4a5.57,5.57,0,0,1-5.6,5.5,5.9459,5.9459,0,0,1-4-1.6,5.4439,5.4439,0,0,1-1.6-3.9v-.3h11.2Zm0-1.8h-11.2v-2.8h11.2Zm0-4.3h-11.2v-14.3h11.2Z" fill="#373a3c"/><path d="M96.0466,74.9018v.3a5.57,5.57,0,0,1-5.6,5.5,5.9459,5.9459,0,0,1-4-1.6,5.4439,5.4439,0,0,1-1.6-3.9v-.3Z" fill="#30a95b"/><path d="M84.8467,54.8018v14.3h11.2v-14.3Zm4.6,3.1h-1.5v-1.5h1.5Zm3.2,0h-1.5v-1.5h1.5Z" fill="#dceeff"/><rect x="91.1466" y="56.4018" width="1.5" height="1.5" fill="#373a3c"/><rect x="87.9467" y="56.4018" width="1.5" height="1.5" fill="#373a3c"/></g></g></svg>