<svg xmlns="http://www.w3.org/2000/svg" id="Layer_1" x="0" y="0" version="1.1" viewBox="0 0 135.1 30" xml:space="preserve">
  <defs/>
  <path d="M17.1 8.9h-.7C16 5.5 14.2.7 10.5.7c-3 0-3.6 2.9-3.6 7.5v15c0 2.7.5 6.1 3.4 6.1 3.8 0 6-4.1 6.4-8.2h.7v8.4h-.7c0-.7-.2-1.5-.9-1.5-.9 0-2.5 2-5.4 2C4.1 30 0 23 0 15S4.1 0 10.3 0c3.1 0 4.2 2.3 5.2 2.3.6 0 .8-.8.9-1.7h.7v8.3zM19.6 28.7h2V1.3h-2V.6h10.2v.7h-2v27.4h2v.7H19.6v-.7zM35.7 28.7h2.6V1.3c-4.6.5-5.9 4.6-6.1 8.6h-.7V.6h19.9V10h-.7c-.2-4.1-1.5-8.2-6.1-8.6v27.4h2.6v.7H35.7v-.8zM57.1 28.7h2.2V16.3l-6-15h-1.5V.6h9.5v.7h-1.7l5.1 13.1L69 4.2c.4-.9.7-1.6.7-2 0-.8-1.1-.8-1.9-.8V.6h5.1v.7c-1.8 0-2 .2-3 2.6L65.4 15v13.6h2.2v.7H57.1v-.6zM71.9 28.7c1.4 0 2.1-.5 2.4-1.7L81.6.6h2l7.5 28.1h1.8v.7H83v-.7h2l-2.1-8H77l-1 3.8-.8 3.2c0 .9 1.6.9 2.2.9v.7h-5.5v-.6zm8-18.8L77.1 20h5.5L79.9 9.9zM94.2 24.4h4.7v5h-4.7v-5zM101.6 28.7c1.9 0 2.2-.3 2.2-3.9V1.3h-2V.6h8.5l4.5 17.9h.1L119.4.6h8.3v.7h-2v27.4h2v.7h-10.1v-.7h2.2V2h-.1l-6.8 27.4h-1.4l-6.9-27.6h-.1v23c0 3.5.4 3.9 2.2 3.9v.7h-5.4v-.7h.3zM130.4 24.4h4.7v5h-4.7v-5z" fill="#0098DA" />
</svg>
