<svg xmlns="http://www.w3.org/2000/svg" viewBox="0 0 339.1 109.7">
  <defs/>
  <path fill="#f90" d="M44.3 98.4H44c-4.4 7.7-10.6 11.4-18.7 11.3C8.3 110.2-.1 95.2 0 64.9c0-15.7 2.1-27.2 6.3-34.4a20 20 0 0119-10.5c7.7 0 13.6 3.4 17.8 10.2h.3V0h21.3v107.7H44.3v-9.3zM21.3 65a68 68 0 002.2 21c1.4 4.8 4.4 7.2 8.8 7.2 4.5 0 7.6-2.4 9.1-7.2a85 85 0 002-21c0-9.3-.7-16.4-2-21.2-.7-2.3-1.8-4.1-3.3-5.4a9.6 9.6 0 00-5.7-1.6c-4.5 0-7.4 2.3-8.8 7A65.6 65.6 0 0021.3 65zm71.1 3.2V75c0 5 .8 9.5 2.5 13.4 1.5 4.1 4.2 6.2 8 6.3 6.7 0 10.4-5.3 11.3-16h19.2c-.5 20.5-10.5 30.8-30.2 31a34.5 34.5 0 01-17.9-4.3 24.7 24.7 0 01-9.7-10.6c-2-4.5-3.2-9.4-3.8-14.7-.5-5.4-.8-10.8-.8-16a98 98 0 011.3-16.6 41 41 0 014.6-14.1c2.3-4.1 5.6-7.4 10-9.8a36.8 36.8 0 0117.1-3.5c12.3.1 20.5 4 24.6 11.7 4 7.7 6 18.3 5.9 31.6v4.9l-42.1-.1zm21.7-12.9c0-6.5-.7-11.5-2.2-15s-4.3-5.3-8.6-5.3c-4.1.1-7 1.9-8.6 5.4a24.2 24.2 0 00-2.3 11.5v3.3h21.7v.1zm68-33.2h21.3l-20.7 85.5H158l-21.4-85.5h22.2l11.9 61.2h.3l11.1-61.2z"/>
  <path fill="#999" d="M227 68.2V75c0 5 .8 9.5 2.5 13.4 1.5 4.1 4.2 6.2 8 6.3 6.7 0 10.4-5.3 11.3-16H268c-.4 20.5-10.5 30.8-30.2 31a34.5 34.5 0 01-17.9-4.3 24.7 24.7 0 01-9.7-10.6c-2-4.5-3.2-9.4-3.8-14.7-.5-5.4-.8-10.8-.8-16a98 98 0 011.3-16.6 41 41 0 014.6-14.1c2.3-4.1 5.6-7.4 10-9.8a36.8 36.8 0 0117.1-3.5c12.3.1 20.5 4 24.6 11.7 4 7.7 6 18.3 5.9 31.6v4.9l-42.1-.1zm21.7-12.9c0-6.5-.7-11.5-2.2-15s-4.3-5.3-8.6-5.3c-4.1.1-7 1.9-8.6 5.4a24.2 24.2 0 00-2.3 11.5v3.3h21.7v.1zM316 22.1h22.1l-22.2 41.5 23.2 44H317l-12.3-28-12.3 28h-22.1l22.4-44-21.5-41.5h22.1l11.3 25.6L316 22.1z"/>
</svg>
