<svg id="Layer_1" data-name="Layer 1" xmlns="http://www.w3.org/2000/svg" viewBox="0 0 437.07 285.96"><defs><style>.cls-1{fill:#f49829;}.cls-2{fill:#f49728;}.cls-3{fill:#f59d33;}.cls-4{fill:#f59e35;}.cls-5{fill:#f59f37;}.cls-6{fill:#f59a2f;}.cls-7{fill:#ef7c5d;}.cls-8{fill:#f59b30;}.cls-9{fill:#fddfc4;}.cls-10{fill:#f7a748;}.cls-11{fill:#ec6237;}.cls-12{fill:#f4982b;}.cls-13{fill:#ef7a5b;}.cls-14{fill:#f59c34;}</style></defs><path class="cls-1" d="M267,170.15l122.72-6.65c1.71,12.88,3.39,25.54,5.08,38.3L286.11,236.15C279.69,214,273.38,192.32,267,170.15Z"/><path class="cls-2" d="M394,155.14c-9.17.73-18.37,1.61-27.6,2.18-21.35,1.33-42.71,2.48-64.06,3.76-10.91.66-21.8,1.46-32.7,2.19,21.64-21.88,45.42-43.6,71-61l33.31-.24,46.95.23c-.27,1.37-.53,2.74-.8,4.12l-.66,1.45-1.47,2.5Z"/><path class="cls-1" d="M381.28,215.7c-12.23,22.35-24.45,44.71-36.81,67.33L301.67,286l-16.39-42.7,95.06-28.68Z"/><path class="cls-3" d="M222.29,158.63l59.23,119H270l-19.75-38.32H196L177.1,277.73H162.55C182.39,238.16,201.91,199.25,222.29,158.63ZM244.55,228l-22.24-43.48c-7.38,15.28-14.05,29.06-21,43.48Z"/><path class="cls-4" d="M96.17,222.37v53l-9.64.5V160.7c5.67-.28,11.74-.75,17.81-.85,9.65-.15,19.31,0,29,0,13.67,0,25.41,8,28,21.42,3.38,17.53,1.31,26.73-13.33,35.48-8.11,4.84-16.62,5.26-25.34,5.6C114.18,222.64,105.71,222.37,96.17,222.37Zm.6-12.18c2.27,0,4.23.05,6.18,0,10.64-.34,21.27-.74,31.91-1.06,5-.15,11.76-4.73,12.48-9.62,1.21-8.13,1-16.13-4-23.46-4.5-6.58-10.78-5.09-17-5-9.75.18-19.51.05-29.5.05Z"/><path class="cls-5" d="M0,160.74H61V171.2H14.43v36.14H61v10.53H14.1v58.2H0Z"/><path class="cls-6" d="M249.29,2.34q-27.72,20.73-55.45,41.42a20.3,20.3,0,0,1-3,1.57l-59.79,0c4.58-2.77,9-5.81,13.76-8.24,22.27-11.41,44.63-22.65,67-33.95l2.42-1.23L217.78.11,224.89,0l10,.35L237,.62l2.89.58,4.9.33,4.56.25A5.07,5.07,0,0,0,249.29,2.34Z"/><path class="cls-7" d="M130.18,80.4c-.13-12.18.54-23.13.87-35.12l59.79,0c-2.67,6.15-5.32,12.31-8,18.44-1,2.26-2.13,4.47-3.19,6.69Z"/><path class="cls-3" d="M437.07,77.49l-8.83,17.44-38.52,2.65-.53-1.47C404.1,85.29,416.72,71.76,437.07,77.49Z"/><path class="cls-8" d="M373.8,74.2c8.41,1,12.39,7.46,19,12.82-7.46,4.81-13.25,8.54-19,12.28H347.38Z"/><path class="cls-9" d="M417.94,110.36l1.47-2.5Z"/><path class="cls-10" d="M289.06,23.06c-5.18,4.32-10.22,8.81-15.33,13.22.43-.08.86-.18,1.29-.27l32.8-12.24c-2.56-3.21-5-6.26-7.5-9.39C296.14,17.59,292.5,20.2,289.06,23.06Z"/><path class="cls-11" d="M264.91,33.38l6-9.14L254.57,6.6l-5.28-4.26q-27.72,20.73-55.45,41.42a20.3,20.3,0,0,1-3,1.57c-3.7,8.39-7.14,16.91-11.23,25.14l13-3.71,61.18-22.83Z"/><path class="cls-12" d="M330.54,24.36l-5.07-3L195.65,67.83l-19.22,7.06c-13.58,5-27.93,8.34-40.26,17.49l34,41.7c38.28-12.9,75.61-24.66,113.89-36.88h0L367.8,69.28,365,63Z"/><polygon class="cls-13" points="241.97 138.13 269.64 163.27 340.61 102.3 370.21 75.25 358.65 76.13 257.48 113.58 241.97 138.13"/><path class="cls-14" d="M179.71,136.68l77.77-23.1L242,138.13,219.82,137s-12.43,3.54-17.91,10.22l-22.3-8.06Z"/></svg>