<svg id="Layer_1" data-name="Layer 1" xmlns="http://www.w3.org/2000/svg" viewBox="0 0 464.02 150.73"><defs><style>.cls-1{fill:#cf223f;}.cls-2{fill:#000406;}.cls-3{fill:#000408;}.cls-4{fill:#040402;}.cls-5{fill:#00050a;}.cls-6{fill:#010203;}.cls-7{fill:#000509;}.cls-8{fill:#000407;}.cls-9{fill:#010305;}.cls-10{fill:#fdc92c;}.cls-11{fill:#156b3f;}</style></defs><path class="cls-1" d="M145.6,29.72C134.39,20.11,123.31,10.34,112.27.54,187.65-.63,264.43.54,340.58.13c-11.25,10.32-23,20.19-34.64,30.06-.66-.88-1.61-.51-2.43-.52-6,0-12,0-17.93,0-16.42,0-32.81-.48-49.23-.31-3.5-9.29-6.62-18.48-10.49-27.53-3.18,9.15-6.37,18.29-9.59,27.53C192.69,29.33,169.18,29.62,145.6,29.72Z"/><path class="cls-2" d="M326.78,94.16c2.53,11.17,4.77,22.33,7.74,33.39L342,94.16h18.73c-.2,2.2-11.77,40-16.75,54.76-1.78.4-13.53.53-18.85.18-2.39-10.38-4.5-20.9-7.23-31.35q-3.09,15.67-6.18,31.41H292.6q-8.49-27.33-17-54.7c1.7-.48,15.82-.6,18.93-.16q3.73,16.33,7.5,32.76c2.94-10.9,5.15-21.9,7.69-32.9Z"/><path class="cls-3" d="M41.33,113.16a8.23,8.23,0,0,0-5.77-6c-12.86-3.6-18,8.5-15.6,20.11,1,5,4.25,9.28,11.18,9.57,4.41.39,9.7-.72,11.67-5.19.11-.41.25-.6,0-1.06H35.35c-.5-1.71-.62-7.61-.27-11.64a4,4,0,0,1,1.06-.28c8.13.1,16.34-.21,24.43.12.4,1.77.54,25.53.18,30.12a61.25,61.25,0,0,1-12.19.09c-.19-1.51-.38-3.07-.6-4.86a6.36,6.36,0,0,0-1.1.65,21.19,21.19,0,0,1-13.12,5.73,33.64,33.64,0,0,1-16.91-2.24C2.78,142.7-3,126,1.53,112.15c7.43-25.69,53.92-27,58.22,1Z"/><path class="cls-4" d="M185.24,29.6c10.33-.66,20.66-.08,31-.26,3.22-9.24,6.41-18.38,9.59-27.53,3.87,9,7,18.24,10.49,27.53,10.66.18,21.38-.4,32,.26-8.58,6.14-17.25,12-25.66,18.36,2.12,10,6.28,19.39,7.91,29.4-8.32-5.83-16-12.51-24.13-18.58-8.7,6-16.83,12.88-25.74,18.54,2.57-9.93,6.83-19.37,9.85-29.21Z"/><path class="cls-5" d="M431.38,145.52c-.12,1.38-.21,2.46-.3,3.61H414.75c-1-17.89-.13-36.57-.34-54.71,1.78-.43,14-.54,17.45-.15.05,6.26,0,12.16,0,18.56,10.43-9.35,28.24-4.81,31.29,9.34,3.18,11.91-2.63,26.82-16.18,28.1A18.55,18.55,0,0,1,431.38,145.52Zm-.18-16.61.15,0c-.37,6.68,3.95,10.25,9.44,9a5.77,5.77,0,0,0,4.56-3.47c2.73-5.8.6-15.5-7.28-14.63C433.25,119.91,431.49,124.51,431.2,128.91Z"/><path class="cls-6" d="M115.43,149.15H98.17c-.33-7,0-14-.15-21-.11-2.66,0-6.12-3-7.22-3.42-1.45-8.94-.44-9.44,4.84-.11,1.19-.25,2.38-.25,3.57,0,6.53,0,13.08,0,19.6-1.89.42-14.83.46-17.32.07V94.41c1.6-.44,13.62-.55,17.24-.14v19.42c.63-.47,1-.68,1.31-1,4.9-5.06,12.47-5.67,19-3.9,7.95,2.24,10.53,9.34,9.92,17Z"/><path class="cls-7" d="M138,121.28h-16.3c1.13-14.79,20.48-14,31.38-12.77,5.8.82,13.32,3.39,13.8,10.24,1.1,10-1.47,20.41,1.63,30.18-1.65.37-13.48.49-17.4.14-.23-1-.49-2-.78-3.23-6.43,5-15.08,5.86-22.62,3.32-10.5-3.15-10.83-18.17-1.07-21.52,6.35-2.47,13.24-2.59,19.88-3.82,1.63-.26,3.46-1.09,3.45-3,.05-4.54-6.8-4.26-9.76-2.88C138.8,118.55,138.49,120,138,121.28Zm12,10.23c-3.72,1.42-12.93,1.11-12.52,6.42.68,4.84,7.7,4.3,10.55,1.67C150.23,137.63,150.38,134.25,150,131.51Z"/><path class="cls-8" d="M243.56,121.33h-16c.61-15.39,22.84-14.3,33.74-12.36,5.37,1.07,11.32,4.25,11.43,10.39.3,5.5,0,11,0,16.53,0,4.47-.25,9,1.87,13.26H256.9l-.77-3.07c-10.81,7.9-34.51,5.72-30.33-11.68,3.21-10,17.86-8.6,26.26-10.55,2.86-.08,5-3.14,2.7-5.46-1.93-1.82-7.91-1.76-9.64.19A15.58,15.58,0,0,0,243.56,121.33Zm12.3,10c-3.81,1.43-7.63,1.44-11.12,3.35a3.61,3.61,0,0,0,.7,6.38C252.38,143.27,257,138.23,255.86,131.3Z"/><path class="cls-9" d="M221.42,149.12H204c0-7.15,0-14.23,0-21.37.17-3.43-1.07-7.51-5.18-7.4-5.55-.42-7.55,2.9-7.54,7q0,10.76,0,21.52c-1.92.41-11.88.53-17,.23-.1-.1-.27-.23-.3-.35.19-13.18-.45-26.51.19-39.61h16.33c.53,1.35,0,2.82.41,4.42,5.12-5.3,12.75-6.73,19.74-5,8.21,1.91,11.31,8.57,10.79,16.56C221.42,133.19,221.42,141.08,221.42,149.12Z"/><path class="cls-3" d="M375.88,132.39c0,8.53,11,10.91,16.09,4.91H408.1c-5.22,14.29-24.73,15.64-37,10.48-17.88-8.44-14.38-32,1.85-37.86,17.26-6.36,37.32,2,36.32,22.47Zm.29-7.75h15.89c-.37-5.12-4.22-7.14-8.67-6.68C379.38,118.13,376.9,120.4,376.17,124.64Z"/><path class="cls-10" d="M185.24,29.6,210.6,48.11c-3,9.83-7.28,19.28-9.85,29.21l.05-.07-.51.37C181.8,62,163.66,45.83,145.6,29.72,158.81,29.48,172,29.68,185.24,29.6Z"/><path class="cls-11" d="M250.62,77.36c-1.63-10-5.79-19.43-7.91-29.4,8.41-6.4,17.09-12.22,25.66-18.36,11.71.06,23.42,0,35.14.07.82,0,1.77-.36,2.43.52C287.88,46.08,269.67,62,251.26,77.43l-.65-.13Z"/><path class="cls-4" d="M200.29,77.62l.51-.37Z"/><path class="cls-4" d="M250.61,77.3l.65.13C251,77.75,250.72,77.82,250.61,77.3Z"/></svg>