<?xml version="1.0" encoding="UTF-8"?>
<svg width="852px" height="366px" viewBox="0 0 852 366" version="1.1" xmlns="http://www.w3.org/2000/svg" xmlns:xlink="http://www.w3.org/1999/xlink">
    <!-- Generator: Sketch 54.1 (76490) - https://sketchapp.com -->
    <title>Group 7</title>
    <desc>Created with Sketch.</desc>
    <g id="Website" stroke="none" stroke-width="1" fill="none" fill-rule="evenodd">
        <g id="Beneficial-Ownership-Transparency-Implementation-Guide-" transform="translate(-294.000000, -535.000000)">
            <g id="Group-7" transform="translate(294.000000, 522.000000)">
                <g id="Guide-/-Icons-/-Consider-/-Hexagon" transform="translate(656.000000, 98.000000)">
                    <g id="Group" transform="translate(-1.000000, 0.000000)">
                        <path d="M99,1.73205081 L15.6295104,49.8660254 L15.6295104,146.133975 L99,194.267949 L182.37049,146.133975 L182.37049,49.8660254 L99,1.73205081 Z" id="Polygon" stroke="#1BB0A7" stroke-width="3" transform="translate(99.000000, 98.000000) rotate(90.000000) translate(-99.000000, -98.000000) "></path>
                        <text id="Consider" font-family="AtlasGrotesk-Bold, Atlas Grotesk" font-size="16" font-weight="bold" line-spacing="24" letter-spacing="0.08" fill="#000A12">
                            <tspan x="69.096" y="151">Publish</tspan>
                        </text>
                        <text id="01" font-family="AtlasGrotesk-Bold, Atlas Grotesk" font-size="14" font-weight="bold" line-spacing="20" fill="#7E8DA3">
                            <tspan x="37" y="124">06</tspan>
                        </text>
                    </g>
                    <g id="Guide-/-Icons-/-Publication" transform="translate(50.000000, 33.000000)" fill="#1BB0A7">
                        <g id="Group-10" transform="translate(12.000000, 20.000000)">
                            <path d="M33.8809,27.1536 C30.8549,27.1536 28.3799,24.6776 28.3799,21.6526 L28.3799,21.6656 C28.3799,18.6396 30.5639,16.1646 33.5889,16.1646 L33.8809,16.1646 C36.9059,16.1646 39.3819,18.6396 39.3819,21.6656 L39.3819,21.6526 C39.3819,24.6776 36.9059,27.1536 33.8809,27.1536 Z M34.2261,42.4788 C44.2481,42.4788 52.3741,34.3538 52.3741,24.3308 C52.3741,14.3078 44.2481,6.1828 34.2261,6.1828 C24.2031,6.1828 16.0781,14.3078 16.0781,24.3308 C16.0781,30.2428 18.9171,35.4778 23.2921,38.7908 C21.5641,37.3638 20.7361,36.0648 20.7361,36.0648 C27.9961,28.8058 39.7661,28.8058 47.0251,36.0648 C47.0251,36.0648 43.0271,42.3818 34.0651,42.4708 C34.1201,42.4708 34.1721,42.4788 34.2261,42.4788 Z M34.2261,-0.0002 C47.6641,-0.0002 58.5571,10.8928 58.5571,24.3308 C58.5571,37.7678 47.6641,48.6618 34.2261,48.6618 C20.7881,48.6618 9.8951,37.7678 9.8951,24.3308 C9.8951,10.8928 20.7881,-0.0002 34.2261,-0.0002 Z" id="Combined-Shape" fill-opacity="0.1"></path>
                            <path d="M65.8838,39.5022 C68.3398,39.5022 70.3368,37.5052 70.3368,35.0492 C70.3368,32.5942 68.3398,30.5972 65.8838,30.5972 C63.4278,30.5972 61.4298,32.5942 61.4298,35.0492 C61.4298,37.5052 63.4278,39.5022 65.8838,39.5022 Z M47.5228,35.3032 C49.9898,32.3192 51.4738,28.4952 51.4738,24.3302 C51.4738,19.5922 49.5518,15.2952 46.4478,12.1752 C46.4138,12.1462 46.3838,12.1172 46.3538,12.0832 C43.2358,8.9952 38.9508,7.0832 34.2258,7.0832 C24.7158,7.0832 16.9778,14.8192 16.9778,24.3302 C16.9778,28.3282 18.3578,32.0032 20.6498,34.9322 C28.2378,27.8972 40.0918,28.0132 47.5228,35.3032 Z M59.4588,47.9182 C59.4588,46.4922 58.2998,45.3332 56.8738,45.3332 C55.4478,45.3332 54.2878,46.4922 54.2878,47.9182 C54.2878,49.3442 55.4478,50.5042 56.8738,50.5042 C58.2998,50.5042 59.4588,49.3442 59.4588,47.9182 Z M35.1738,41.5302 C41.2588,41.0842 44.6878,37.5752 45.8298,36.1662 C39.0868,29.9812 28.6698,29.9832 21.9268,36.1702 C22.2648,36.5942 22.8128,37.2052 23.5668,37.8632 C26.4688,40.1542 30.1158,41.5382 34.0848,41.5712 C34.3998,41.5672 34.7088,41.5582 35.0108,41.5382 C35.0648,41.5362 35.1188,41.5332 35.1738,41.5302 Z M65.5948,10.4502 C65.0168,10.4502 64.5468,10.9202 64.5468,11.4982 C64.5468,12.0752 65.0168,12.5452 65.5948,12.5452 C66.1728,12.5452 66.6428,12.0752 66.6428,11.4982 C66.6428,10.9202 66.1728,10.4502 65.5948,10.4502 Z M15.5538,50.6872 C15.5538,48.2312 13.5558,46.2332 11.1008,46.2332 C8.6448,46.2332 6.6468,48.2312 6.6468,50.6872 C6.6468,53.1432 8.6448,55.1402 11.1008,55.1402 C13.5558,55.1402 15.5538,53.1432 15.5538,50.6872 Z M1.7998,11.4982 C1.7998,12.0752 2.2698,12.5452 2.8468,12.5452 C3.4248,12.5452 3.8948,12.0752 3.8948,11.4982 C3.8948,10.9202 3.4248,10.4502 2.8468,10.4502 C2.2698,10.4502 1.7998,10.9202 1.7998,11.4982 Z M66.7838,28.8682 C69.8058,29.3072 72.1378,31.9082 72.1378,35.0492 C72.1378,38.4972 69.3318,41.3032 65.8838,41.3032 C62.4358,41.3032 59.6308,38.4972 59.6308,35.0492 C59.6308,31.9082 61.9618,29.3072 64.9838,28.8682 L64.9838,25.2312 L53.2278,25.2312 C52.9978,30.1222 50.9378,34.5432 47.6888,37.7932 L54.2888,44.3942 C55.0158,43.8582 55.9048,43.5322 56.8738,43.5322 C59.2918,43.5322 61.2588,45.5002 61.2588,47.9182 C61.2588,50.3372 59.2918,52.3052 56.8738,52.3052 C54.4548,52.3052 52.4878,50.3372 52.4878,47.9182 C52.4878,47.1222 52.7168,46.3852 53.0898,45.7402 L46.3548,39.0062 C43.0578,41.7352 38.8308,43.3792 34.2258,43.3792 C34.1728,43.3792 34.1208,43.3712 34.0678,43.3712 C34.0038,43.3712 33.9458,43.3792 33.8808,43.3792 C28.3928,43.3792 24.6688,41.1862 22.4618,39.2822 C22.3498,39.1932 22.2278,39.1152 22.1168,39.0232 L15.1818,45.9592 C16.5088,47.1062 17.3538,48.7982 17.3538,50.6872 C17.3538,54.1352 14.5488,56.9402 11.1008,56.9402 C7.6528,56.9402 4.8468,54.1352 4.8468,50.6872 C4.8468,47.2382 7.6528,44.4332 11.1008,44.4332 C11.9988,44.4332 12.8518,44.6272 13.6248,44.9702 L20.7838,37.8122 C17.4488,34.4862 15.3558,29.9312 15.2068,24.8972 L6.7088,24.8972 C6.3238,24.8972 5.9828,24.6512 5.8578,24.2882 L2.4368,14.3052 C1.0628,14.1042 -0.000200000001,12.9282 -0.000200000001,11.4982 C-0.000200000001,9.9282 1.2778,8.6502 2.8468,8.6502 C4.4178,8.6502 5.6948,9.9282 5.6948,11.4982 C5.6948,12.5652 5.0978,13.4862 4.2268,13.9742 L7.3518,23.0962 L15.2408,23.0962 C15.8818,13.1692 24.1398,5.2832 34.2258,5.2832 C39.3338,5.2832 43.9668,7.3142 47.3908,10.5982 L62.9068,10.5982 C63.2858,9.4702 64.3408,8.6502 65.5948,8.6502 C67.1648,8.6502 68.4428,9.9282 68.4428,11.4982 C68.4428,13.0682 67.1648,14.3462 65.5948,14.3462 C64.3408,14.3462 63.2858,13.5262 62.9068,12.3982 L49.0508,12.3982 C51.5088,15.4462 53.0318,19.2662 53.2278,23.4302 L65.8838,23.4302 C66.3808,23.4302 66.7838,23.8332 66.7838,24.3302 L66.7838,28.8682 Z M33.8809,26.2532 C36.4159,26.2532 38.4789,24.1922 38.4819,21.6592 C38.4789,19.1252 36.4159,17.0652 33.8809,17.0652 L33.5889,17.0652 C31.1339,17.0652 29.2829,19.0392 29.2789,21.6582 C29.2829,24.1922 31.3459,26.2532 33.8809,26.2532 Z M33.8809,15.2642 C37.4039,15.2642 40.2709,18.1252 40.2819,21.6452 L40.2819,21.6522 L40.2819,21.6592 L40.2819,21.6652 L40.2819,21.6732 C40.2709,25.1922 37.4039,28.0542 33.8809,28.0542 C30.3579,28.0542 27.4899,25.1922 27.4799,21.6732 L27.4799,21.6652 L27.4799,21.6582 L27.4799,21.6522 L27.4799,21.6462 C27.4889,18.0652 30.1699,15.2642 33.5889,15.2642 L33.8809,15.2642 Z" id="Combined-Shape"></path>
                        </g>
                    </g>
                </g>
                <g id="Guide-/-Icons-/-Consider-/-Hexagon" transform="translate(489.000000, 196.000000)">
                    <g id="Group" transform="translate(-1.000000, 0.000000)">
                        <path d="M99,1.73205081 L15.6295104,49.8660254 L15.6295104,146.133975 L99,194.267949 L182.37049,146.133975 L182.37049,49.8660254 L99,1.73205081 Z" id="Polygon" stroke="#1EC16F" stroke-width="3" transform="translate(99.000000, 98.000000) rotate(90.000000) translate(-99.000000, -98.000000) "></path>
                        <text id="Consider" font-family="AtlasGrotesk-Bold, Atlas Grotesk" font-size="16" font-weight="bold" line-spacing="24" letter-spacing="0.08" fill="#000A12">
                            <tspan x="80.008" y="151">Data</tspan>
                        </text>
                        <text id="01" font-family="AtlasGrotesk-Bold, Atlas Grotesk" font-size="14" font-weight="bold" line-spacing="20" fill="#7E8DA3">
                            <tspan x="37" y="124">05</tspan>
                        </text>
                    </g>
                    <g id="Guide-/-Icons-/-Data" transform="translate(50.000000, 33.000000)" fill="#1EC16F">
                        <g id="Group-35" transform="translate(9.000000, 8.000000)">
                            <path d="M10.9994062,43 C8.25032656,43 6,40.8414125 6,38.2032654 L6,38.7967346 C6,36.1585875 8.25032656,34 10.9994062,34 C13.7496734,34 16,36.1585875 16,38.7967346 L16,38.2032654 C16,40.8414125 13.7496734,43 10.9994062,43 Z M18.3593729,52.3060543 C18.5674031,53.455428 19.111655,54.5267223 19.9898796,55.2856994 L20,57 L3,57 L3.01686731,53.7183716 C3.02361423,52.5299582 3.35758698,49.2678497 5.448009,47.7935282 C6.42406403,47.1045929 8.96203201,46 11.4988755,46 C13.1664903,46 14.8194867,46.4765136 16.0395555,46.9978079 C16.1553777,47.8624217 16.4556158,48.6948852 16.9447678,49.3975992 C17.1145654,50.491858 17.5879746,51.5264092 18.3593729,52.3060543 Z M69,43 C66.2512467,43 64,40.8414125 64,38.2032654 L64,38.7967346 C64,36.1585875 66.2512467,34 69,34 C71.7499406,34 74,36.1585875 74,38.7967346 L74,38.2032654 C74,40.8414125 71.7499406,43 69,43 Z M77.1334125,53.5277636 L77.1514125,56.9054 L60.1425375,56.9054 L60.1504125,55.5782182 C60.5959125,55.0830364 60.9244125,54.4921273 61.1516625,53.8551273 C61.6939125,53.2063091 62.0595375,52.4121273 62.2496625,51.5671273 C63.2835375,50.6772182 63.8741625,49.3583091 64.0080375,47.9696727 C64.3275375,47.4863091 64.5604125,46.9414909 64.7167875,46.3706727 C65.8552875,45.9381273 67.2390375,45.5835818 68.6464125,45.5835818 C71.1866625,45.5835818 73.7257875,46.7204909 74.7022875,47.4295818 C76.7925375,48.9470364 77.1266625,52.3045818 77.1334125,53.5277636 Z" id="Combined-Shape" fill-opacity="0.1"></path>
                            <path d="M28.0501017,49.6449194 C35.1145763,43.4527885 45.88236,43.4507982 52.9499367,49.644321 C54.8366255,47.0818924 55.9525449,43.9186827 55.9525449,40.5 C55.9525449,31.9790814 49.0200734,25.0463847 40.4994316,25.0463847 C31.9787897,25.0463847 25.0474551,31.9790814 25.0474551,40.5 C25.0474551,43.9189488 26.1633653,47.0823849 28.0501017,49.6449194 Z M29.7566507,51.5983675 C32.5392426,54.2936436 36.3289654,55.9547522 40.4994316,55.9547522 C44.6024435,55.9547522 48.3371925,54.3469436 51.1069424,51.7283357 C51.3125167,51.5171194 51.4863122,51.3237119 51.6289466,51.1563542 C45.3213845,45.5972727 35.6771807,45.5972727 29.367361,51.1596678 C29.478117,51.2913971 29.6077534,51.4389414 29.7566507,51.5983675 Z M29.1477276,53.8081431 C25.387674,50.5959216 23,45.8216222 23,40.5 C23,30.8501592 30.851041,23 40.4994316,23 C50.148959,23 58,30.8501592 58,40.5 C58,45.8208915 55.6129817,50.5946105 51.8536306,53.8068199 C49.7983698,55.6634646 46.0994169,58 40.4992826,58 C34.9011735,58 31.2029149,55.6645746 29.1477276,53.8081431 Z M26.9120963,62.0702679 L8.77811667,79.5555 C7.77945,80.5185 6.46811667,81 5.15678333,81 C3.84545,81 2.53411667,80.5185 1.53545,79.5555 C-0.50505,77.590125 -0.50505,74.455875 1.49228333,72.531 L19.5896828,55.0799362 C16.6980019,50.9452683 15,45.9172179 15,40.5 C15,26.4402013 26.4396895,15 40.5,15 C54.5603105,15 66,26.4402013 66,40.5 C66,54.5609396 54.5603105,66 40.5,66 C35.5090042,66 30.8482174,64.5586318 26.9120963,62.0702679 Z M25.1813817,60.8738503 C23.5798297,59.6666602 22.1245309,58.2752971 20.8472567,56.7315257 L2.97861667,73.962 C1.79911667,75.09825 1.79911667,76.946625 2.97861667,78.084 C4.20011667,79.261875 6.11811667,79.259625 7.29295,78.1245 L25.1813817,60.8738503 Z M40.5,17.0536913 C27.5725918,17.0536913 17.0547403,27.5720134 17.0547403,40.5 C17.0547403,53.4291275 27.5725918,63.9474497 40.5,63.9474497 C53.4274082,63.9474497 63.9452597,53.4291275 63.9452597,40.5 C63.9452597,27.5720134 53.4274082,17.0536913 40.5,17.0536913 Z M40,13 C39.4477778,13 39,12.5856041 39,12.0745501 L39,11.9254499 C39,11.4143959 39.4477778,11 40,11 C40.5522222,11 41,11.4143959 41,11.9254499 L41,12.0745501 C41,12.5856041 40.5522222,13 40,13 Z M40,8 C39.4477778,8 39,7.53598158 39,6.96373057 L39,1.03626943 C39,0.464018423 39.4477778,2.13162821e-14 40,2.13162821e-14 C40.5522222,2.13162821e-14 41,0.464018423 41,1.03626943 L41,6.96373057 C41,7.53598158 40.5522222,8 40,8 Z M32.0073053,12 C31.7536871,12 31.4989662,11.9029456 31.3048932,11.7088369 L27.2911096,7.69431552 C26.9029635,7.30720096 26.9029635,6.67745048 27.2911096,6.29033592 C27.678153,5.90322136 28.3077877,5.90322136 28.6948312,6.29033592 L32.7097174,10.3059602 C33.0967609,10.6930748 33.0967609,11.3217223 32.7097174,11.7088369 C32.5156444,11.9029456 32.2609235,12 32.0073053,12 Z M48.9926947,12 C48.7390765,12 48.4843556,11.9029456 48.2902826,11.7088369 C47.9032391,11.3217223 47.9032391,10.6930748 48.2902826,10.3059602 L52.3051688,6.29033592 C52.6922123,5.90322136 53.321847,5.90322136 53.7088904,6.29033592 C54.0970365,6.67745048 54.0970365,7.30720096 53.7088904,7.69431552 L49.6951068,11.7088369 C49.5010338,11.9029456 49.2463129,12 48.9926947,12 Z M35.1138974,35.9994376 C35.2228732,38.7607456 37.5969065,40.9754158 40.5005859,40.9754158 C43.4030935,40.9754158 45.7782986,38.7607456 45.8861026,35.9994376 C45.7782986,33.2381297 43.4030935,31.0245842 40.5005859,31.0245842 C37.5969065,31.0245842 35.2228732,33.2381297 35.1138974,35.9994376 Z M40.5005859,43 C36.5868292,43 33.3632529,40.1070941 33.0292946,36.4324737 C33.0105461,36.3571142 33,36.2783803 33,36.197397 L33,35.8014783 C33,35.7204949 33.0105461,35.6417611 33.0292946,35.5664015 C33.3632529,31.8917812 36.5868292,29 40.5005859,29 C44.4143426,29 47.6379189,31.8917812 47.9718772,35.5664015 C47.9894539,35.6417611 48,35.7204949 48,35.8014783 L48,36.197397 C48,36.2783803 47.9894539,36.3571142 47.9718772,36.4324737 C47.6379189,40.1070941 44.4143426,43 40.5005859,43 Z" id="Combined-Shape"></path>
                        </g>
                    </g>
                </g>
                <g id="Guide-/-Icons-/-Consider-/-Hexagon" transform="translate(0.000000, 101.000000)">
                    <g id="Group" transform="translate(-1.000000, 0.000000)">
                        <path d="M99,1.73205081 L15.6295104,49.8660254 L15.6295104,146.133975 L99,194.267949 L182.37049,146.133975 L182.37049,49.8660254 L99,1.73205081 Z" id="Polygon" stroke="#DB00C9" stroke-width="3" transform="translate(99.000000, 98.000000) rotate(90.000000) translate(-99.000000, -98.000000) "></path>
                        <text id="Consider" font-family="AtlasGrotesk-Bold, Atlas Grotesk" font-size="16" font-weight="bold" line-spacing="24" letter-spacing="0.08" fill="#000A12">
                            <tspan x="62.608" y="151">Consider</tspan>
                        </text>
                        <text id="01" font-family="AtlasGrotesk-Bold, Atlas Grotesk" font-size="14" font-weight="bold" line-spacing="20" fill="#7E8DA3">
                            <tspan x="37" y="124">01</tspan>
                        </text>
                    </g>
                    <g id="Guide-/-Icons-/-Consider" transform="translate(50.000000, 33.000000)" fill="#DB00C9">
                        <g id="Group" transform="translate(10.000000, 10.000000)">
                            <path d="M28.8188118,49.5180505 C29.0812854,48.2698986 30.2719103,49.0755544 30.7957405,48.3212996 C31.5909797,47.173715 31.6043826,46.0339522 31.7752696,44.7031116 C32.1773568,41.5866426 32.7436296,38.7819323 34.5932308,36.1694172 C35.6408913,34.688843 36.8873616,33.3613547 37.9160347,31.8684889 C38.2868485,31.3310125 38.7928082,30.7186694 39.0340605,30.1063263 C39.3065863,29.4168816 39.0809707,28.679388 39.237338,27.954186 C40.1554371,23.6677841 46.9708151,23.4878804 50.6666667,23.4722365 C47.8844466,13.5842359 38.8106788,6.33333333 28.0369756,6.33333333 C15.0506759,6.33333333 4.52380952,16.8649648 4.52380952,29.8571429 C4.52380952,42.849321 15.0506759,53.3809524 28.0369756,53.3809524 C28.4144908,53.3809524 28.7886552,53.3697782 29.1617028,53.353017 C28.8098765,52.916108 28.6512755,50.3114148 28.8188118,49.5180505" id="Fill-1" fill-opacity="0.1"></path>
                            <path d="M52.4406574,48.5532738 C54.8231567,46.8777748 57.5464936,46.6050452 60.4615516,46.5469225 C62.4381852,46.5055659 64.3284881,45.8829822 65.294942,44.0308796 C67.700986,39.4213014 63.9114106,34.1220748 59.9525376,31.8463471 C55.3131107,29.1805265 49.4224512,29.2442379 44.7325714,31.7368081 C39.0560565,34.7536004 32.8492254,43.0953275 36.258722,49.6967264 C37.8137934,52.7090478 40.8622713,54.8227026 44.3491291,54.1654689 C47.5848435,53.5540626 49.5323265,50.8647694 51.9462187,48.9254827 C52.1099105,48.7935889 52.2747234,48.6695192 52.4406574,48.5532738" id="Fill-13" fill-opacity="0.1"></path>
                            <path d="M27.156044,50.6626039 C25.351556,50.578679 23.8669061,49.2037661 23.6655771,47.4002424 L22.9002243,38.518733 C21.7260778,37.9502169 20.6620785,37.1940793 19.7309372,36.2672738 C18.6510404,35.1924054 17.8027933,33.9400877 17.2100424,32.5464887 C16.5968518,31.1020284 16.2857143,29.5682783 16.2857143,27.9893182 C16.2857143,26.4092279 16.5968518,24.8754778 17.2100424,23.4310175 C17.8027933,22.0362882 18.6510404,20.7851008 19.7309372,19.7102324 C20.8096985,18.6364943 22.0678748,17.7921971 23.4679935,17.2022063 C26.3715647,15.9792751 29.7259445,15.9815356 32.6261091,17.2010761 C34.0284988,17.7921971 35.2855396,18.6364943 36.3654364,19.7102324 C37.4453333,20.786231 38.2935803,22.0374185 38.8851957,23.4310175 C39.1618727,24.0827706 39.3770549,24.7527021 39.5299077,25.4368667 C41.3202569,24.3974727 45.2641053,22.6190476 51.2937347,22.6190476 C51.3687061,22.6190476 51.4436776,22.6190476 51.519768,22.6201629 C60.1112723,22.6826163 70.3331259,30.1023066 71.9869737,35.8056429 C72.8855121,38.9060095 72.8116597,40.973664 72.7579488,42.4836987 C72.7187846,43.6022842 72.6930481,44.3405729 73.035455,45.0565569 C73.2491796,45.5004223 73.5535413,46.1093432 73.8970672,46.7974462 C77.0716046,53.1565435 77.2215475,53.7911149 76.6363226,54.5082141 C76.5221869,54.647619 76.1831369,55.061373 72.2723128,57.1379495 C72.2924544,58.689248 72.311477,62.7197246 72.0160671,64.6836619 C71.5516917,67.7661847 70.133948,70.8442465 63.1638412,70.3546562 C62.0347935,70.2743589 61.0847822,70.190716 60.2791189,70.1204558 C56.6793703,69.8026125 56.6793703,69.8014973 56.160165,71.2245432 C55.2537938,73.7104127 54.9013161,75.2081798 54.8979591,75.2226779 L54.7166849,76 L53.9166164,76 L32.7455743,76 L36.2323062,67.0847731 C34.1611387,65.3379326 27.4922198,59.0807426 27.156044,50.6626039 Z M29.1681434,50.5638573 C29.517176,59.3790472 37.9607379,65.9028869 38.0484056,65.9684181 L38.6504152,66.4278969 L35.6918403,73.9925684 L53.1400465,73.9925684 C53.3403434,73.2788149 53.6995349,72.097776 54.2679752,70.5386708 C55.3153375,67.6669283 56.5092858,67.7739913 60.4570362,68.1208309 C61.2526287,68.191091 62.1914503,68.2736188 63.3070702,68.3528008 C69.3562591,68.7899748 69.7445441,66.2416519 70.0242883,64.3847776 C70.3611003,62.1453761 70.2503216,56.6160173 70.2492027,56.5602553 L70.2357749,55.9412972 L70.7863116,55.6524501 C72.2823836,54.8650908 74.0123218,53.9070998 74.776583,53.424201 C74.3647995,52.2409316 72.8631326,49.2342451 72.0943955,47.6918685 C71.7441557,46.9926132 71.4353181,46.3736551 71.2182366,45.921983 C70.6621051,44.7621336 70.7012693,43.6736595 70.7460284,42.4123233 C70.7975013,40.9613964 70.861283,39.1547079 70.0522627,36.3621475 C68.6121395,31.3948695 59.1791646,24.6833565 51.5052213,24.6275945 C44.4657502,24.5559619 40.5216043,27.1275613 39.8045094,27.6425225 C39.8078512,27.7578607 39.8095238,27.8734649 39.8095238,27.9893182 C39.8095238,29.5682783 39.4983863,31.1020284 38.8851957,32.5464887 C38.2935803,33.9400877 37.4453333,35.1912752 36.3654364,36.2672738 C35.4263463,37.201991 34.3509916,37.9626497 33.1654898,38.5334263 L31.9368374,47.5856035 C31.6755849,49.0874053 30.5700561,50.2263666 29.1681434,50.5638573 Z M25.4520065,44.3333333 L30.315812,44.3333333 L30.6839457,41.6190476 L25.2179412,41.6190476 L25.4520065,44.3333333 Z M25.6080501,46.1428571 L25.699326,47.2013183 C25.7901691,48.0060567 26.4919317,48.6322156 27.3310944,48.6322156 L28.2974375,48.6322156 C29.0991274,48.6322156 29.7804504,48.061439 29.9167149,47.2759148 L30.0703895,46.1428571 L25.6080501,46.1428571 Z M25.0618976,39.8095238 L30.9293682,39.8095238 L31.2929872,37.1285247 L31.8300968,36.9013444 C32.9883458,36.4153366 34.0273633,35.7168417 34.9198963,34.8284647 C35.8124293,33.9389575 36.5141919,32.9047782 37.0024734,31.754183 C37.5100589,30.5617686 37.7666906,29.2947577 37.7666906,27.9893182 C37.7666906,26.6827485 37.5100589,25.4157376 37.0024734,24.2244534 C36.5141919,23.072728 35.8124293,22.0374185 34.9198963,21.1490415 C34.0273633,20.2606645 32.9883458,19.5632999 31.8300968,19.0750316 C30.6332395,18.5709398 29.3603012,18.3155032 28.047619,18.3155032 C26.7360724,18.3155032 25.4631341,18.5709398 24.2651413,19.0750316 C23.1080278,19.5632999 22.0678748,20.2606645 21.1753418,21.1490415 C20.2828088,22.0374185 19.5821817,23.0715978 19.0927647,24.2244534 C18.5863147,25.4157376 18.3296831,26.6827485 18.3296831,27.9893182 C18.3296831,29.2947577 18.5863147,30.5617686 19.0927647,31.754183 C19.5821817,32.9059084 20.2828088,33.9400877 21.1753418,34.8284647 C22.0678748,35.7168417 23.1080278,36.4153366 24.2651413,36.9013444 L24.8317748,37.1409575 L25.0618976,39.8095238 Z M34.3809524,28.047619 L32.3882938,28.047619 C32.3882938,25.6542146 30.4410235,23.7069443 28.047619,23.7069443 L28.047619,21.7142857 C31.5403068,21.7142857 34.3809524,24.5560383 34.3809524,28.047619 Z M52.4761905,61.5238095 C51.9765608,61.5238095 51.5714286,61.1513692 51.5714286,60.692057 L51.5714286,60.5460382 C51.5714286,60.086726 51.9765608,59.7142857 52.4761905,59.7142857 C52.9758201,59.7142857 53.3809524,60.086726 53.3809524,60.5460382 L53.3809524,60.692057 C53.3809524,61.1513692 52.9758201,61.5238095 52.4761905,61.5238095 Z M52.475617,57 C51.9055618,57 51.4433239,56.539673 51.4433239,55.9719743 L51.4433239,49.5776548 C51.4433239,49.0099561 51.9055618,48.5507713 52.475617,48.5507713 C55.328187,48.5507713 57.6496995,46.2388559 57.6496995,43.3980783 C57.6496995,40.5573007 55.328187,38.2465275 52.475617,38.2465275 C49.623047,38.2465275 47.3026815,40.5573007 47.3026815,43.3980783 C47.3026815,43.9657769 46.8404436,44.426104 46.2703884,44.426104 C45.7003332,44.426104 45.2380952,43.9657769 45.2380952,43.3980783 C45.2380952,39.424188 48.4852306,36.1904762 52.475617,36.1904762 C56.4660034,36.1904762 59.7142857,39.424188 59.7142857,43.3980783 C59.7142857,47.0235821 57.0119717,50.0322705 53.5079101,50.5325764 L53.5079101,55.9719743 C53.5079101,56.539673 53.0456722,57 52.475617,57 Z M12.7396761,28.952381 L12.5936573,28.952381 C12.1343451,28.952381 11.7619048,28.5472487 11.7619048,28.047619 C11.7619048,27.5479894 12.1343451,27.1428571 12.5936573,27.1428571 L12.7396761,27.1428571 C13.1989883,27.1428571 13.5714286,27.5479894 13.5714286,28.047619 C13.5714286,28.5472487 13.1989883,28.952381 12.7396761,28.952381 Z M7.15224192,28.952381 L0.990615224,28.952381 C0.443575484,28.952381 0,28.5472487 0,28.047619 C0,27.5479894 0.443575484,27.1428571 0.990615224,27.1428571 L7.15224192,27.1428571 C7.69928166,27.1428571 8.14285714,27.5479894 8.14285714,28.047619 C8.14285714,28.5472487 7.69928166,28.952381 7.15224192,28.952381 Z M28.047619,13.5714286 C27.5479894,13.5714286 27.1428571,13.1989883 27.1428571,12.7396761 L27.1428571,12.5936573 C27.1428571,12.1343451 27.5479894,11.7619048 28.047619,11.7619048 C28.5472487,11.7619048 28.952381,12.1343451 28.952381,12.5936573 L28.952381,12.7396761 C28.952381,13.1989883 28.5472487,13.5714286 28.047619,13.5714286 Z M28.047619,8.14285714 C27.5479894,8.14285714 27.1428571,7.69922169 27.1428571,7.152108 L27.1428571,0.989648313 C27.1428571,0.442534618 27.5479894,0 28.047619,0 C28.5472487,0 28.952381,0.442534618 28.952381,0.989648313 L28.952381,7.152108 C28.952381,7.69922169 28.5472487,8.14285714 28.047619,8.14285714 Z M17.1374776,39.8095238 C16.9198047,39.8095238 16.7021319,39.7262403 16.5355649,39.5596732 C16.2024308,39.2274856 16.2024308,38.6880355 16.5355649,38.3558478 L16.6415621,38.2498506 C16.9737498,37.9167165 17.5122534,37.9167165 17.8453875,38.2498506 C18.1785216,38.5820383 18.1785216,39.1214883 17.8453875,39.4546224 L17.7393903,39.5596732 C17.5728233,39.7262403 17.3551504,39.8095238 17.1374776,39.8095238 Z M9.1327842,47.952381 C8.87980284,47.952381 8.62682148,47.8555881 8.43323575,47.6620023 C8.04606427,47.2759308 8.04606427,46.648977 8.43323575,46.2629054 L12.786715,41.9094262 C13.1727865,41.5222548 13.7997403,41.5222548 14.1858119,41.9094262 C14.5729833,42.2954978 14.5729833,42.9224516 14.1858119,43.3085231 L9.83233266,47.6620023 C9.63874692,47.8555881 9.38576556,47.952381 9.1327842,47.952381 Z M38.8517633,18.0952381 C38.6340905,18.0952381 38.4164176,18.0119546 38.2498506,17.8453875 C37.9167165,17.5131998 37.9167165,16.9737498 38.2498506,16.6415621 L38.3558478,16.5355649 C38.6880355,16.2024308 39.2265392,16.2024308 39.5596732,16.5355649 C39.8928073,16.8677525 39.8928073,17.4072026 39.5596732,17.7403367 L39.453676,17.8453875 C39.287109,18.0119546 39.0694361,18.0952381 38.8517633,18.0952381 Z M42.6089747,14.4761905 C42.3559933,14.4761905 42.103012,14.3793976 41.9094262,14.1858119 C41.5222548,13.7997403 41.5222548,13.1727865 41.9094262,12.786715 L46.2629054,8.43323575 C46.648977,8.04606427 47.2759308,8.04606427 47.6620023,8.43323575 C48.0491738,8.8193073 48.0491738,9.4462611 47.6620023,9.83233266 L43.3085231,14.1858119 C43.1149374,14.3793976 42.861956,14.4761905 42.6089747,14.4761905 Z M17.2434748,18.0952381 C17.025802,18.0952381 16.8081291,18.0119546 16.6415621,17.8453875 L16.5355649,17.7403367 C16.2024308,17.4072026 16.2024308,16.8677525 16.5355649,16.5355649 C16.8686989,16.2024308 17.4072026,16.2024308 17.7393903,16.5355649 L17.8453875,16.6415621 C18.1785216,16.9737498 18.1785216,17.5131998 17.8453875,17.8453875 C17.6788205,18.0119546 17.4611476,18.0952381 17.2434748,18.0952381 Z M13.4862634,14.4761905 C13.2332821,14.4761905 12.9803007,14.3793976 12.786715,14.1858119 L8.43323575,9.83233266 C8.04606427,9.4462611 8.04606427,8.8193073 8.43323575,8.43323575 C8.8193073,8.04606427 9.4462611,8.04606427 9.83233266,8.43323575 L14.1858119,12.786715 C14.5729833,13.1727865 14.5729833,13.7997403 14.1858119,14.1858119 C13.9922261,14.3793976 13.7392448,14.4761905 13.4862634,14.4761905 Z" id="Combined-Shape"></path>
                        </g>
                    </g>
                </g>
                <g id="Guide-/-Icons-/-Consider-/-Hexagon" transform="translate(163.000000, 0.000000)">
                    <g id="Group" transform="translate(-1.000000, 0.000000)">
                        <path d="M99,1.73205081 L15.6295104,49.8660254 L15.6295104,146.133975 L99,194.267949 L182.37049,146.133975 L182.37049,49.8660254 L99,1.73205081 Z" id="Polygon" stroke="#7F12E0" stroke-width="3" transform="translate(99.000000, 98.000000) rotate(90.000000) translate(-99.000000, -98.000000) "></path>
                        <text id="Consider" font-family="AtlasGrotesk-Bold, Atlas Grotesk" font-size="16" font-weight="bold" line-spacing="24" letter-spacing="0.08" fill="#000A12">
                            <tspan x="66.456" y="151">Commit</tspan>
                        </text>
                        <text id="01" font-family="AtlasGrotesk-Bold, Atlas Grotesk" font-size="14" font-weight="bold" line-spacing="20" fill="#7E8DA3">
                            <tspan x="37" y="124">02</tspan>
                        </text>
                    </g>
                    <g id="Guide-/-Icons-/-Commit" transform="translate(50.000000, 33.000000)">
                        <g id="Group-25" transform="translate(0.000000, 19.000000)">
                            <path d="M33.559901,12.56 L40.279098,13.6472618 L32.5582161,18.3453706 L32.5582161,29.0848284 C32.5582161,29.0848284 40.9881855,30.0803 42.0663148,20.8327568 L48.7380635,20.8327568 C48.7380635,20.8327568 48.0579722,27.5489579 57.0270062,27.1585262 L72.9089841,35.6795045 C72.9089841,35.6795045 76.1183299,38.0906142 74.1281401,41.2269962 C72.1379503,44.3646709 69.8525271,43.7182608 69.8525271,43.7182608 C69.8525271,43.7182608 71.4407249,45.6238778 69.823531,48.0065455 C68.206337,50.3905061 65.6283164,49.8643282 62.279262,48.0065455 C62.279262,48.0065455 61.4159677,51.7634812 59.2728892,52.6270851 C57.1311287,53.490689 55.1831151,54.2469889 51.1289272,50.872728 C51.1289272,50.872728 53.0940749,55.4945604 49.039887,57.2204754 C44.9856991,58.9463905 43.0205515,53.5307665 43.0205515,53.5307665 C43.0205515,53.5307665 43.4159534,51.3601213 41.1911585,49.6704052 C38.9663636,47.9793963 36.5636378,48.9231551 36.5636378,48.9231551 C36.5636378,48.9231551 38.2823182,47.0718365 35.797876,44.3323504 C33.3134338,41.5928643 31.1176351,45.083479 31.1176351,45.083479 C31.1176351,45.083479 32.1153659,42.263838 30.0118276,39.9393472 C27.9082893,37.6161492 25.3315867,40.6904758 25.3315867,40.6904758 C25.3315867,40.6904758 24.3470358,36.7150535 22.2566776,35.7195819 L17.6884672,38.2043824 L15.1578947,29.9096477 L28.3748636,13.0654927 L33.559901,12.56 Z" id="Fill-1" fill="#FFFFFF"></path>
                            <polygon id="Fill-3" fill="#7F12E0" points="17.2675858 37.56 14.1473684 30.5624096 16.0797826 29.56 19.2 36.5575904"></polygon>
                            <path d="M18.6221033,1.56 L27.6729101,8.23576892 C29.4404033,9.53918953 29.8347599,12.0739099 28.5495454,13.866441 L15.6133565,31.9045234 C14.328142,33.6970545 11.8301193,34.0969975 10.0613331,32.7935769 L1.01052632,26.1164967" id="Fill-5" fill-opacity="0.1" fill="#7F12E0"></path>
                            <path d="M11.4445292,22.9344032 C11.3752433,23.0296255 11.3957725,23.1642064 11.493286,23.2327664 C11.5741196,23.2924391 11.7357868,23.2695857 11.7948081,23.1857901 C11.8551125,23.1045337 11.8307342,22.9458298 11.7473344,22.8874268 C11.6639347,22.8277542 11.5048337,22.8531468 11.4445292,22.9344032 M11.6151779,25.56 C11.0852688,25.56 10.5707566,25.394948 10.1345119,25.0813491 C9.00797389,24.2713246 8.75777468,22.7046 9.57637516,21.589864 L9.57765824,21.5885943 C9.97412775,21.0490012 10.560492,20.6947741 11.2264069,20.5906644 C11.8936047,20.4878243 12.5608026,20.6452585 13.1073917,21.0388441 C13.6514145,21.4311601 14.0106749,22.0101118 14.1158869,22.6703199 C14.2210989,23.330528 14.0607148,23.9907361 13.6629622,24.5303293 C13.2664927,25.0699224 12.6814115,25.4254191 12.0142136,25.5295289 C11.880774,25.549843 11.7473344,25.56 11.6151779,25.56" id="Fill-7" fill="#7F12E0"></path>
                            <path d="M77.3778967,2 L68.3270899,8.67576892 C66.5595967,9.97918953 66.1652401,12.5139099 67.4504546,14.306441 L80.3866435,32.3445234 C81.671858,34.1370545 84.1698807,34.5369975 85.9386669,33.2335769 L94.9894737,26.5564967" id="Fill-9" fill-opacity="0.1" fill="#7F12E0"></path>
                            <polygon id="Fill-11" fill="#7F12E0" points="29.3052632 13.56 67.7052632 13.56 67.7052632 10.56 29.3052632 10.56"></polygon>
                            <path d="M33.0205182,30.56 C32.6667979,30.56 32.4475175,30.5429172 32.4070551,30.5402891 L31.3263158,30.4535611 L31.3263158,17.7860184 L41.2970491,11.56 L42.5357225,13.5691984 L33.6744437,19.102707 L33.6744437,28.1710381 C34.9849053,28.0869382 37.2129511,27.7137451 38.7962081,26.2354271 C40.0870911,25.0291196 40.7423219,23.2590802 40.7423219,20.973929 L40.7423219,19.7912746 L49.6362317,19.7912746 L49.6962728,20.908226 C49.702799,20.9975821 49.876396,23.2709067 51.8525303,24.8044152 C53.6850882,26.2275427 56.4900504,26.5849671 60.1877971,25.8674901 L60.6315789,28.190749 C56.2146446,29.0448883 52.767504,28.5258344 50.3789136,26.646728 C48.5528819,25.211774 47.8245577,23.3339816 47.5374047,22.1552694 L43.0408507,22.1552694 C42.8254859,24.582339 41.9340066,26.537661 40.3807702,27.9831275 C37.8812344,30.3050723 34.4171257,30.56 33.0205182,30.56" id="Fill-13" fill="#7F12E0"></path>
                            <path d="M71.4883718,44.56 C70.5039142,44.56 69.5075318,44.2832426 68.6197975,43.7056618 L54.5684211,34.5552853 L55.8615982,32.5324157 L69.9142996,41.6841292 C70.5648631,42.1092928 71.3452743,42.249677 72.1111108,42.0838899 C72.8769472,41.9167659 73.5301607,41.4635254 73.9501782,40.8057251 C74.8233378,39.4406558 74.4324697,37.6129871 73.0796686,36.7332461 L59.0282922,27.5815326 L60.3201443,25.56 L74.3728458,34.7103765 C76.8306773,36.3120934 77.5395397,39.6305088 75.9548678,42.1106298 C74.9399357,43.6963029 73.230716,44.56 71.4883718,44.56" id="Fill-14" fill="#7F12E0"></path>
                            <path d="M66.4350424,51.56 C65.4493005,51.56 64.4542841,51.2845796 63.5665864,50.7069988 L49.5157895,41.5566223 L50.8089133,39.5337527 L64.8597102,48.6841292 C66.2124555,49.5638702 68.0222988,49.1707945 68.8967473,47.8057251 C69.3167476,47.1492618 69.4585142,46.3617733 69.292899,45.5889916 C69.1272837,44.81621 68.6781352,44.1570727 68.0262736,43.7332461 L53.9754767,34.5828696 L55.2672755,32.56 L69.3193974,41.7103765 C71.7784525,43.3120934 72.4872857,46.6318458 70.9013542,49.1119668 C69.886464,50.6963029 68.1773147,51.56 66.4350424,51.56" id="Fill-15" fill="#7F12E0"></path>
                            <path d="M57.2653352,55.56 C56.2444653,55.56 55.2464007,55.2847124 54.3717526,54.7506292 L45.4736842,49.0698106 L46.8245594,47.1770501 L55.701164,52.8451827 C56.3410522,53.2346448 57.1311867,53.3678484 57.9065649,53.2118099 C58.6806016,53.0532341 59.3419536,52.6231766 59.7672043,51.9990223 C60.1937964,51.3748681 60.3359938,50.627659 60.1696497,49.8956732 C60.0019641,49.1624188 59.5472008,48.5369959 58.8871903,48.1335792 L49.9904634,42.4527605 L51.339997,40.56 L60.2166017,46.2281326 C61.3984497,46.9487009 62.2261458,48.0841035 62.5293214,49.4136028 C62.832497,50.7431022 62.5722489,52.1005108 61.7968707,53.237182 C61.0214925,54.3738532 59.8208637,55.1578518 58.4149877,55.4432882 C58.0326645,55.5219418 57.6476584,55.56 57.2653352,55.56" id="Fill-16" fill="#7F12E0"></path>
                            <path d="M47.2743593,58.56 C46.2973818,58.56 45.3085701,58.298551 44.4288958,57.7502697 L40.4210526,55.053284 L41.7740942,53.1799894 L45.7464348,55.8528609 C47.0534546,56.6663987 48.8522503,56.2919937 49.7174606,54.9961713 C50.5839857,53.700349 50.1974024,51.9666631 48.8548802,51.1302803 L44.845722,48.4332946 L46.2000785,46.56 L50.1737341,49.2328715 C52.5760732,50.7304918 53.2795496,53.8805711 51.7069182,56.234881 C50.7010127,57.7401163 49.0047798,58.56 47.2743593,58.56" id="Fill-17" fill="#7F12E0"></path>
                            <path d="M21.6962181,37.0807458 C21.5762792,37.0807458 21.4550077,37.0905467 21.3337361,37.1115489 C20.7526988,37.212359 20.2462901,37.539992 19.9077959,38.0370421 L18.9749378,39.3965791 C18.6364436,39.892229 18.5031781,40.5012904 18.5964639,41.1103517 C18.6924151,41.7208132 19.0042562,42.2528668 19.4760159,42.6085027 C19.9477755,42.9655386 20.5274802,43.108353 21.1085175,43.0075429 C21.6895548,42.9081328 22.1959635,42.5804998 22.5344577,42.0834498 L23.4646505,40.7239128 C23.8044774,40.2268627 23.9390755,39.6178014 23.844457,39.00874 C23.7498386,38.3982785 23.4379974,37.867625 22.9649051,37.5105891 C22.5917619,37.2277606 22.1506533,37.0807458 21.6962181,37.0807458 M20.7407049,45.56 C19.787857,45.56 18.8629948,45.2491687 18.0767287,44.6555089 C17.0839012,43.9064334 16.4282352,42.7919211 16.2296697,41.5177928 C16.0324369,40.2436644 16.3149596,38.9681359 17.0279297,37.9250308 L17.9594551,36.5654939 C18.6724253,35.5223888 19.7332182,34.8335194 20.9459337,34.6248983 C22.1613145,34.4162773 23.3726974,34.7145074 24.3655249,35.4635828 C25.3583525,36.2126583 26.0140184,37.3271706 26.2125839,38.6012989 C26.4098168,39.8768275 26.1259614,41.152356 25.4129913,42.1940609 L24.4827985,43.554998 C23.7698284,44.5981031 22.7090355,45.2869725 21.49632,45.4955935 C21.2431156,45.5389979 20.9912439,45.56 20.7407049,45.56" id="Fill-18" fill="#7F12E0"></path>
                            <path d="M28.5828548,40.7617816 C28.4580289,40.7617816 28.3318161,40.7703188 28.2056034,40.7886129 C27.6008916,40.8752047 27.0738492,41.1618115 26.721563,41.5935511 L24.0724816,44.2718 C23.4109047,45.0889342 23.6452999,46.3451256 24.6660978,46.9902958 C25.1570793,47.3012946 25.7604042,47.4256942 26.363729,47.3378827 C26.9684407,47.2500713 27.4954831,46.9646841 27.8477693,46.5317249 L30.4968507,43.853476 C31.1570407,43.0363418 30.9240324,41.7801504 29.9032346,41.1361998 C29.5148876,40.88984 29.0558059,40.7617816 28.5828548,40.7617816 M25.9809298,49.56 C24.9892579,49.56 24.0267121,49.2904677 23.2084095,48.7733559 C21.069727,47.4208158 20.5801324,44.791351 22.116877,42.9107227 L24.7673454,40.2312542 C26.2305814,38.4311197 29.2222404,38.0018193 31.3609228,39.3531398 C33.4996053,40.7056799 33.987813,43.3351446 32.4510684,45.215773 L29.801987,47.8940219 C29.1334753,48.7221325 28.0294603,49.3221774 26.7673325,49.5038982 C26.5038113,49.541706 26.2416771,49.56 25.9809298,49.56" id="Fill-19" fill="#7F12E0"></path>
                            <path d="M33.62795,44.7582674 C32.9176813,44.7582674 32.2171232,45.0483675 31.7732053,45.5920003 L29.1235699,48.2687216 C28.8433467,48.6197671 28.7032351,49.1512108 28.8017294,49.6814357 C28.9002237,50.2116605 29.226226,50.6748454 29.7173102,50.984448 C30.7383215,51.6304691 32.1657952,51.4256926 32.9010343,50.5273576 L35.5492824,47.8506363 C35.8295056,47.4995909 35.9696172,46.969366 35.8711229,46.4379222 C35.7726286,45.9076974 35.4480136,45.4445125 34.9555422,45.1349099 C34.5532415,44.8801582 34.0885149,44.7582674 33.62795,44.7582674 M31.065711,53.56 C30.0960277,53.56 29.1110848,53.3040294 28.2593172,52.7664911 C27.2272079,52.1143755 26.544684,51.1441249 26.3379847,50.0361378 C26.1312854,48.9257129 26.4267683,47.815288 27.1689437,46.9084206 L29.8171918,44.2304804 C31.2835083,42.4325915 34.2730183,42.0010982 36.4135352,43.3528668 C37.4456445,44.0049825 38.1295556,44.975233 38.3362549,46.084439 C38.5415669,47.193645 38.2474713,48.30407 37.5039087,49.2121562 L34.8556606,51.8888775 C33.9733737,52.9724865 32.5361893,53.56 31.065711,53.56" id="Fill-20" fill="#7F12E0"></path>
                            <path d="M37.6673156,55.6090248 C38.6493473,56.3509683 40.0204607,56.1129864 40.7240057,55.0840647 L41.6554035,53.7233684 C42.3589485,52.6930469 42.1350933,51.2511567 41.1543941,50.5106131 C40.1736949,49.7686696 38.8025815,50.0052516 38.097704,51.036973 L37.1676387,52.3976694 C36.4614287,53.426591 36.6866164,54.8684812 37.6673156,55.6090248 M38.9398261,58.56 C38.0124258,58.56 37.0770307,58.2660224 36.2668879,57.6556689 C34.2122165,56.1031871 33.741854,53.085017 35.2195651,50.9263814 L36.1496303,49.5656851 C37.6273415,47.4056496 40.5001505,46.914287 42.5548219,48.463969 C44.6081608,50.0164507 45.0785233,53.0346208 43.6034771,55.1946563 L42.6720794,56.5539528 C41.7766584,57.8628531 40.3682358,58.56 38.9398261,58.56" id="Fill-21" fill="#7F12E0"></path>
                            <path d="M12.1349292,34.56 C11.0803399,34.56 10.0179484,34.2374094 9.10249726,33.5700257 L0,26.9196973 L1.3770778,25.0181109 L10.4795751,31.6684393 C11.7396207,32.5891937 13.5107066,32.3070902 14.4274582,31.0428487 L27.4375274,13.07573 C27.8783484,12.4658119 28.0564973,11.716148 27.9381648,10.963872 C27.8211327,10.2115961 27.4206228,9.55466062 26.8146566,9.11060884 L17.7121593,2.46158645 L19.0879367,0.56 L28.190434,7.20902239 C29.3035394,8.02268198 30.0356402,9.22553989 30.2514995,10.5981823 C30.4660583,11.9708247 30.1396688,13.3408551 29.3308469,14.4588207 L16.3207776,32.4246333 C15.3104004,33.8194784 13.7330676,34.56 12.1349292,34.56" id="Fill-22" fill="#7F12E0"></path>
                            <path d="M83.8658116,34.56 C82.2677708,34.56 80.6905343,33.8194784 79.6802188,32.4246333 L66.6709438,14.4588207 C64.9948863,12.1432213 65.5058953,8.89250106 67.8099868,7.20902239 L76.9119283,0.56 L78.288922,2.46158645 L69.1869805,9.11060884 C67.9270117,10.0313633 67.6474521,11.8101825 68.5641476,13.07573 L81.5734227,31.0428487 C82.4888179,32.3070902 84.261096,32.5904998 85.5210647,31.6684393 L94.6230063,25.0181109 L96,26.9196973 L86.8980585,33.5700257 C85.9813629,34.2374094 84.9190363,34.56 83.8658116,34.56" id="Fill-23" fill="#7F12E0"></path>
                            <path d="M89.4203405,22.8534106 C89.3767236,22.8534106 89.3356723,22.8635666 89.3048839,22.8864178 C89.2214985,22.9460846 89.1958415,23.1035035 89.2561355,23.184752 C89.3164295,23.2685394 89.4755032,23.2913906 89.5576057,23.2329932 C89.6409911,23.1733264 89.6666481,23.014638 89.6063541,22.9333895 C89.5691514,22.8826092 89.4921802,22.8534106 89.4203405,22.8534106 M89.4370176,25.56 C89.3048839,25.56 89.1714673,25.5498439 89.0380507,25.5282623 C88.3709677,25.4241627 87.7859872,25.0699702 87.389586,24.5291601 C86.9919019,23.9908891 86.8315454,23.3294758 86.9367392,22.669332 C87.0419331,22.0104578 87.3998488,21.4315625 87.9450608,21.0392847 C88.4915558,20.6457375 89.1612044,20.4870491 89.8257217,20.5911487 C90.4915219,20.6952483 91.0777852,21.0494408 91.4741864,21.5889814 L91.4741864,21.5889814 C91.8705877,22.1297914 92.0309442,22.7899352 91.9270332,23.450079 C91.8218393,24.1089532 91.4626408,24.6878485 90.9174287,25.0813958 C90.4812591,25.3949641 89.9668354,25.56 89.4370176,25.56" id="Fill-24" fill="#7F12E0"></path>
                        </g>
                    </g>
                </g>
                <g id="Guide-/-Icons-/-Consider-/-Hexagon" transform="translate(326.000000, 101.000000)">
                    <g id="Group" transform="translate(-1.000000, 0.000000)">
                        <path d="M99,1.73205081 L15.6295104,49.8660254 L15.6295104,146.133975 L99,194.267949 L182.37049,146.133975 L182.37049,49.8660254 L99,1.73205081 Z" id="Polygon" stroke="#439BF8" stroke-width="3" transform="translate(99.000000, 98.000000) rotate(90.000000) translate(-99.000000, -98.000000) "></path>
                        <text id="Consider" font-family="AtlasGrotesk-Bold, Atlas Grotesk" font-size="16" font-weight="bold" line-spacing="24" letter-spacing="0.08" fill="#000A12">
                            <tspan x="76.952" y="151">Legal</tspan>
                        </text>
                        <text id="01" font-family="AtlasGrotesk-Bold, Atlas Grotesk" font-size="14" font-weight="bold" line-spacing="20" fill="#7E8DA3">
                            <tspan x="37" y="124">03</tspan>
                        </text>
                    </g>
                    <g id="Guide-/-Icons-/-Legal" transform="translate(50.000000, 33.000000)" fill="#439BF8">
                        <g id="Group-23" transform="translate(10.000000, 11.000000)">
                            <g id="Group" transform="translate(2.690000, 2.494300)" fill-opacity="0.1">
                                <path d="M65.0602,60.3001 L70.1302,60.2601 C69.7202,64.8801 66.8102,68.4701 63.2902,68.4701 L22.0002,68.4701 C23.9502,66.6501 25.3102,63.8601 25.6302,60.6401 L62.8202,60.3201 L65.0602,60.3001 Z" id="Fill-1"></path>
                                <path d="M8.36,7.45 L2.91322522e-13,7.45 C0.66,1.11 2.32,-3.55271368e-14 5.6,-3.55271368e-14 L5.62,-3.55271368e-14 C5.77,0.04 7.88,0.58 8.36,7.45" id="Fill-3"></path>
                            </g>
                            <path d="M60.7405,53.0942 L60.7405,53.2842 C60.7405,53.9052 60.2305,54.4052 59.6205,54.4052 C59.0005,54.4052 58.5005,53.9052 58.5005,53.2842 L58.5005,53.0942 C58.5005,52.4742 59.0005,51.9742 59.6205,51.9742 C60.2305,51.9742 60.7405,52.4742 60.7405,53.0942" id="Fill-5"></path>
                            <path d="M59.8601,9.5444 C60.4801,9.5444 60.9801,10.0544 60.9801,10.6744 C60.9801,11.2944 60.4801,11.7944 59.8601,11.7944 L38.0001,11.7944 C37.3801,11.7944 36.8701,11.2944 36.8701,10.6744 C36.8701,10.0544 37.3801,9.5444 38.0001,9.5444 L59.8601,9.5444 Z" id="Fill-7"></path>
                            <path d="M59.8601,20.1743 C60.4801,20.1743 60.9801,20.6843 60.9801,21.3043 C60.9801,21.9243 60.4801,22.4243 59.8601,22.4243 L19.8701,22.4243 C19.2501,22.4243 18.7501,21.9243 18.7501,21.3043 C18.7501,20.6843 19.2501,20.1743 19.8701,20.1743 L59.8601,20.1743 Z" id="Fill-9"></path>
                            <path d="M59.8601,30.8042 C60.4801,30.8042 60.9801,31.3142 60.9801,31.9342 C60.9801,32.5442 60.4801,33.0542 59.8601,33.0542 L49.0601,33.0542 C48.4401,33.0542 47.9401,32.5442 47.9401,31.9342 C47.9401,31.3142 48.4401,30.8042 49.0601,30.8042 L59.8601,30.8042 Z" id="Fill-11"></path>
                            <path d="M59.8601,41.434 C60.4801,41.434 60.9801,41.945 60.9801,42.564 C60.9801,43.184 60.4801,43.684 59.8601,43.684 L19.8701,43.684 C19.2501,43.684 18.7501,43.184 18.7501,42.564 C18.7501,41.945 19.2501,41.434 19.8701,41.434 L59.8601,41.434 Z" id="Fill-13"></path>
                            <path d="M51.8201,52.1645 C52.4401,52.1645 52.9401,52.6745 52.9401,53.2845 C52.9401,53.9045 52.4401,54.4045 51.8201,54.4045 L19.8701,54.4045 C19.2501,54.4045 18.7501,53.9045 18.7501,53.2845 C18.7501,52.6745 19.2501,52.1645 19.8701,52.1645 L51.8201,52.1645 Z" id="Fill-15"></path>
                            <path d="M41.7405,30.8042 C42.3605,30.8042 42.8605,31.3142 42.8605,31.9342 C42.8605,32.5442 42.3605,33.0542 41.7405,33.0542 L19.8705,33.0542 C19.2505,33.0542 18.7505,32.5442 18.7505,31.9342 C18.7505,31.3142 19.2505,30.8042 19.8705,30.8042 L41.7405,30.8042 Z" id="Fill-17"></path>
                            <path d="M30.6702,9.5444 C31.2902,9.5444 31.7902,10.0544 31.7902,10.6744 C31.7902,11.2944 31.2902,11.7944 30.6702,11.7944 L19.8702,11.7944 C19.2502,11.7944 18.7502,11.2944 18.7502,10.6744 C18.7502,10.0544 19.2502,9.5444 19.8702,9.5444 L30.6702,9.5444 Z" id="Fill-19"></path>
                            <path d="M0.3503,10.9746 C0.8703,4.2146 2.3303,0.2746 8.2403,0.2546 C8.2503,0.2546 8.2703,0.2646 8.2903,0.2646 L8.2903,0.2546 L59.7203,0.2546 C64.1503,0.2546 67.7503,3.8646 67.7503,8.2946 L67.7503,60.5546 L75.1203,60.4846 L75.1203,61.6246 C75.1203,68.0146 71.0193,73.2146 65.9803,73.2146 L60.5403,73.2146 C60.2603,73.2346 59.9903,73.2446 59.7203,73.2446 L19.1903,73.2446 C14.7503,73.2446 11.1503,69.6346 11.1503,65.1946 L11.1503,13.0246 C11.1503,12.7346 11.1503,12.4446 11.1403,12.1846 L0.2503,12.1846 L0.3503,10.9746 Z M19.2903,70.9646 C22.9303,70.9646 26.0203,66.9446 26.1503,61.9846 L26.1903,60.9146 L65.5103,60.5746 L65.5103,8.2946 C65.5103,5.0946 62.9103,2.4946 59.7203,2.4946 L11.4803,2.4946 C12.4603,4.1546 13.0703,6.6446 13.2903,9.9446 C13.3403,10.6546 13.3703,11.4046 13.3803,12.1846 C13.3903,12.4646 13.3903,12.7346 13.3903,13.0246 L13.3903,65.1946 C13.3903,68.4046 15.9903,71.0046 19.1903,71.0046 L19.2903,71.0046 L19.2903,70.9646 Z M28.3203,63.1346 C28.0003,66.3536 26.6403,69.1436 24.6903,70.9646 L65.9803,70.9646 C69.5003,70.9646 72.4103,67.3746 72.8203,62.7546 L67.7503,62.7946 L65.5103,62.8136 L28.3203,63.1346 Z M11.0503,9.9446 C10.5703,3.0746 8.4603,2.5346 8.3103,2.4946 L8.2903,2.4946 C5.0103,2.4946 3.3503,3.6046 2.6903,9.9446 L11.0503,9.9446 Z" id="Fill-21"></path>
                        </g>
                    </g>
                </g>
                <g id="Guide-/-Icons-/-Consider-/-Hexagon" transform="translate(489.000000, 0.000000)">
                    <g id="Group" transform="translate(-1.000000, 0.000000)">
                        <path d="M99,1.73205081 L15.6295104,49.8660254 L15.6295104,146.133975 L99,194.267949 L182.37049,146.133975 L182.37049,49.8660254 L99,1.73205081 Z" id="Polygon" stroke="#00C7E2" stroke-width="3" transform="translate(99.000000, 98.000000) rotate(90.000000) translate(-99.000000, -98.000000) "></path>
                        <text id="Consider" font-family="AtlasGrotesk-Bold, Atlas Grotesk" font-size="16" font-weight="bold" line-spacing="24" letter-spacing="0.08" fill="#000A12">
                            <tspan x="64.4" y="151">Systems</tspan>
                        </text>
                        <text id="01" font-family="AtlasGrotesk-Bold, Atlas Grotesk" font-size="14" font-weight="bold" line-spacing="20" fill="#7E8DA3">
                            <tspan x="37" y="124">04</tspan>
                        </text>
                    </g>
                    <g id="Guide-/-Icons-/-Systems" transform="translate(50.000000, 33.000000)" fill="#00C7E2">
                        <g id="Group-23" transform="translate(0.000000, 21.000000)">
                            <path d="M35.4644658,32.8077444 C30.8273013,32.8077444 27.0675038,29.0261889 27.0675038,24.3609667 C27.0675038,19.6969667 30.8273013,15.9154111 35.4644658,15.9154111 C40.1004152,15.9154111 43.8614278,19.6969667 43.8614278,24.3609667 C43.8614278,29.0261889 40.1004152,32.8077444 35.4644658,32.8077444 M35.4644658,10.4875222 C27.8452253,10.4875222 21.6684152,16.6988556 21.6684152,24.3609667 C21.6684152,32.0243 27.8452253,38.2356333 35.4644658,38.2356333 C43.0824911,38.2356333 49.2580861,32.0243 49.2580861,24.3609667 C49.2580861,16.6988556 43.0824911,10.4875222 35.4644658,10.4875222" id="Fill-1" fill-opacity="0.1"></path>
                            <path d="M75.9289519,22.3197333 C71.2905722,22.3197333 67.5319899,18.5381778 67.5319899,13.8741778 C67.5319899,9.20895556 71.2905722,5.42862222 75.9289519,5.42862222 C80.5649013,5.42862222 84.3259139,9.20895556 84.3259139,13.8741778 C84.3259139,18.5381778 80.5649013,22.3197333 75.9289519,22.3197333 M75.9289519,-0.000488888889 C68.3097114,-0.000488888889 62.1329013,6.21084444 62.1329013,13.8741778 C62.1329013,21.5362889 68.3097114,27.7476222 75.9289519,27.7476222 C83.5469772,27.7476222 89.7225722,21.5362889 89.7225722,13.8741778 C89.7225722,6.21084444 83.5469772,-0.000488888889 75.9289519,-0.000488888889" id="Fill-5" fill-opacity="0.1"></path>
                            <path d="M79.8348084,15.4229099 L94.7285468,23.1202889 C95.2656608,23.3977333 95.4771038,24.0614 95.2024709,24.6016222 C95.0080405,24.9805111 94.6252557,25.1992889 94.2278886,25.1992889 C94.0589772,25.1992889 93.8900658,25.1601778 93.7296608,25.0770667 L78.7208506,17.3196222 C78.6496452,17.2828413 78.5841635,17.239294 78.5247819,17.1901622 C77.8095358,17.7575889 76.9071361,18.0964667 75.9277367,18.0964667 C75.1954757,18.0964667 74.5063792,17.9070339 73.9064084,17.5742796 L57.7036912,35.3015079 C57.8314336,35.7049039 57.9003949,36.1343975 57.9003949,36.5797667 C57.9003949,38.9081 56.0156354,40.8025444 53.7006987,40.8025444 C51.385762,40.8025444 49.5022177,38.9081 49.5022177,36.5797667 C49.5022177,36.157822 49.5640758,35.7501267 49.6791495,35.3653736 L38.1564385,27.5997766 C37.4271037,28.2141695 36.487947,28.5844778 35.4644658,28.5844778 C34.8398664,28.5844778 34.2465834,28.4465643 33.7131878,28.1994256 L22.1552901,47.3306959 C22.9271759,48.0968731 23.4062582,49.1607675 23.4062582,50.3350222 C23.4062582,52.6645778 21.5227139,54.5578 19.2077772,54.5578 C16.8928405,54.5578 15.008081,52.6645778 15.008081,50.3350222 C15.008081,50.3012797 15.0084769,50.2676283 15.0092641,50.2340725 L0.59398481,42.7834 C0.0568708861,42.5059556 -0.154572152,41.8435111 0.121275949,41.3032889 C0.398339241,40.7618444 1.05575696,40.5491778 1.59408608,40.8278444 L15.6506709,48.0925658 C16.3946845,46.9038567 17.711354,46.1122444 19.2077772,46.1122444 C19.5676641,46.1122444 19.9171248,46.1580308 20.2507031,46.2441156 L32.0163927,26.7696304 C31.5427782,26.0861478 31.2647696,25.255924 31.2647696,24.3617 C31.2647696,22.0333667 33.1495291,20.1389222 35.4644658,20.1389222 C37.7794025,20.1389222 39.6629468,22.0333667 39.6629468,24.3617 C39.6629468,24.8659534 39.5746016,25.3498557 39.4126622,25.7985707 L50.8349105,33.496462 C51.5857692,32.7900179 52.5939305,32.3569889 53.7006987,32.3569889 C54.7591115,32.3569889 55.7275994,32.7530058 56.4671398,33.4054459 L72.3303983,16.0496159 C71.948914,15.4138725 71.7292557,14.6692232 71.7292557,13.8736889 C71.7292557,11.5453556 73.6128,9.65091111 75.9277367,9.65091111 C78.2426734,9.65091111 80.1274329,11.5453556 80.1274329,13.8736889 C80.1274329,14.4204056 80.023624,14.9430899 79.8348084,15.4229099 Z M74.49344,15.2901769 C74.4966552,15.2930695 74.499858,15.2959847 74.5030481,15.2989222 C74.5224009,15.3168405 74.5409648,15.3353032 74.5587378,15.3542659 C74.9178797,15.6912444 75.3993266,15.8976889 75.9277367,15.8976889 C77.0372051,15.8976889 77.9388759,14.9895778 77.9388759,13.8736889 C77.9388759,12.7590222 77.0372051,11.8509111 75.9277367,11.8509111 C74.8194835,11.8509111 73.9178127,12.7590222 73.9178127,13.8736889 C73.9178127,14.4245782 74.1375656,14.9248284 74.49344,15.2901769 Z M34.0570345,25.8052261 C34.0909046,25.8330023 34.1227595,25.8625359 34.1525493,25.893613 C34.5049019,26.1993274 34.9635005,26.3844778 35.4644658,26.3844778 C36.572719,26.3844778 37.4743899,25.4763667 37.4743899,24.3617 C37.4743899,23.2458111 36.572719,22.3389222 35.4644658,22.3389222 C34.3549975,22.3389222 33.4533266,23.2458111 33.4533266,24.3617 C33.4533266,24.9262377 33.6846097,25.4377928 34.0570345,25.8052261 Z M20.1988208,48.5758151 C20.1852708,48.5686199 20.1718036,48.5611101 20.1584274,48.553283 C19.8752244,48.3995632 19.5514327,48.3122444 19.2077772,48.3122444 C18.0983089,48.3122444 17.196638,49.2203556 17.196638,50.3350222 C17.196638,51.4509111 18.0983089,52.3590222 19.2077772,52.3590222 C20.3160304,52.3590222 21.2177013,51.4509111 21.2177013,50.3350222 C21.2177013,49.5825474 20.8067957,48.9242031 20.1988208,48.5758151 Z M53.7006987,34.5569889 C52.5924456,34.5569889 51.6907747,35.4638778 51.6907747,36.5797667 C51.6907747,37.6944333 52.5924456,38.6025444 53.7006987,38.6025444 C54.8101671,38.6025444 55.711838,37.6944333 55.711838,36.5797667 C55.711838,35.4638778 54.8101671,34.5569889 53.7006987,34.5569889 Z" id="Combined-Shape"></path>
                        </g>
                    </g>
                </g>
            </g>
        </g>
    </g>
</svg>