<?xml version="1.0" encoding="utf-8"?>
<!-- Generator: Adobe Illustrator 23.0.1, SVG Export Plug-In . SVG Version: 6.00 Build 0)  -->
<svg version="1.1" id="Layer_1" xmlns="http://www.w3.org/2000/svg" xmlns:xlink="http://www.w3.org/1999/xlink" x="0px" y="0px"
	 viewBox="0 0 852 366" style="enable-background:new 0 0 852 366;" xml:space="preserve">
<style type="text/css">
	.st0{fill:none;stroke:#1BB0A7;stroke-width:3;}
	.st1{enable-background:new    ;}
	.st2{fill:#000A12;}
	.st3{fill:#7E8DA3;}
	.st4{fill-rule:evenodd;clip-rule:evenodd;fill:#1BB0A7;fill-opacity:0.1;}
	.st5{fill-rule:evenodd;clip-rule:evenodd;fill:#1BB0A7;}
	.st6{fill:none;stroke:#1EC16F;stroke-width:3;}
	.st7{fill-rule:evenodd;clip-rule:evenodd;fill:#1EC16F;fill-opacity:0.1;}
	.st8{fill-rule:evenodd;clip-rule:evenodd;fill:#1EC16F;}
	.st9{fill:none;stroke:#DB00C9;stroke-width:3;}
	.st10{fill-rule:evenodd;clip-rule:evenodd;fill:#DB00C9;fill-opacity:0.1;}
	.st11{fill-rule:evenodd;clip-rule:evenodd;fill:#DB00C9;}
	.st12{fill:none;stroke:#7F12E0;stroke-width:3;}
	.st13{fill-rule:evenodd;clip-rule:evenodd;fill:#FFFFFF;}
	.st14{fill-rule:evenodd;clip-rule:evenodd;fill:#7F12E0;}
	.st15{fill-rule:evenodd;clip-rule:evenodd;fill:#7F12E0;fill-opacity:0.1;}
	.st16{fill:none;stroke:#439BF8;stroke-width:3;}
	.st17{fill-rule:evenodd;clip-rule:evenodd;fill:#439BF8;fill-opacity:0.1;}
	.st18{fill-rule:evenodd;clip-rule:evenodd;fill:#439BF8;}
	.st19{fill:none;stroke:#00C7E2;stroke-width:3;}
	.st20{fill-rule:evenodd;clip-rule:evenodd;fill:#00C7E2;fill-opacity:0.1;}
	.st21{fill-rule:evenodd;clip-rule:evenodd;fill:#00C7E2;}
</style>
<title>Group 7</title>
<desc>Created with Sketch.</desc>
<g id="Website">
	<g id="Beneficial-Ownership-Transparency-Implementation-Guide-" transform="translate(-294.000000, -535.000000)">
		<g id="Group-7" transform="translate(294.000000, 522.000000)">
			<g transform="translate(656.000000, 98.000000)">
				<g id="Group" transform="translate(-1.000000, 0.000000)">
					<path id="Polygon" class="st0" d="M195.3,98l-48.1-83.4H50.9L2.7,98l48.1,83.4h96.3L195.3,98z"/>
					<g class="st1">
						<path class="st2" d="M73,146.8v4.2h-2.6v-12.2h4.3c2.7,0,4.7,1.1,4.7,4c0,3-2.2,4.1-4.9,4.1H73z M74.5,144.9
							c1.4,0,2.1-0.7,2.1-2.1c0-1.5-0.8-2.1-2.1-2.1H73v4.2H74.5z"/>
						<path class="st2" d="M83.3,147.4c0,0.6,0,1.1,0.3,1.4c0.2,0.3,0.6,0.5,1.1,0.5c1.1,0,1.7-0.8,1.7-2.2v-4.7h2.5v8.6h-2.4v-1.4
							h0c-0.4,0.9-1.3,1.6-2.7,1.6c-2.1,0-2.9-1-2.9-3v-5.7h2.5V147.4z"/>
						<path class="st2" d="M91.1,138.4h2.5v5.3h0c0.4-0.8,1.3-1.5,2.6-1.5c2,0,3.4,1.3,3.4,4.5c0,2.9-1.4,4.5-3.6,4.5
							c-1.3,0-2.1-0.6-2.5-1.4h0v1.2h-2.4V138.4z M97.2,146.7c0-1.8-0.6-2.7-1.8-2.7c-1,0-1.7,0.8-1.7,2.3v0.9
							c0,1.3,0.6,2.3,1.8,2.3C96.5,149.5,97.2,148.6,97.2,146.7z"/>
						<path class="st2" d="M101.5,138.4h2.5V151h-2.5V138.4z"/>
						<path class="st2" d="M106.3,138.6h2.6v2.3h-2.6V138.6z M106.3,142.4h2.5v8.6h-2.5V142.4z"/>
						<path class="st2" d="M115.5,144.8c0-0.5-0.4-1-1.2-1s-1.2,0.4-1.2,0.9c0,0.5,0.3,0.8,1,0.9l1.5,0.2c1.6,0.2,2.5,1,2.5,2.5
							c0,1.9-1.6,2.9-3.7,2.9c-2.6,0-3.6-1.2-3.8-2.7h2.3c0,0.6,0.4,1.1,1.4,1.1c0.8,0,1.4-0.3,1.4-0.9c0-0.5-0.2-0.8-1-0.9
							l-1.4-0.2c-1.6-0.2-2.5-1-2.5-2.6c0-1.5,1.1-2.8,3.6-2.8c2.2,0,3.3,1.1,3.5,2.6H115.5z"/>
						<path class="st2" d="M125.3,146c0-0.6,0-1.1-0.3-1.4c-0.2-0.3-0.6-0.5-1.1-0.5c-1.1,0-1.7,0.7-1.7,2v5h-2.5v-12.6h2.5v5.4h0
							c0.4-0.8,1.3-1.6,2.7-1.6c2.1,0,2.9,1.1,2.9,3.2v5.6h-2.5V146z"/>
					</g>
					<g class="st1">
						<path class="st3" d="M41.9,113.5c2.7,0,4.2,1.7,4.2,5.4c0,3.6-1.6,5.4-4.2,5.4c-2.7,0-4.2-1.7-4.2-5.4
							C37.7,115.2,39.4,113.5,41.9,113.5z M43.7,118.8c0-2.7-0.8-3.7-1.8-3.7c-1.1,0-1.8,1-1.8,3.7c0,2.8,0.7,3.7,1.8,3.7
							C43,122.5,43.7,121.5,43.7,118.8z"/>
						<path class="st3" d="M53.2,116.1c-0.2-0.6-0.6-1-1.3-1c-1.2,0-1.9,1.1-2,3.5H50c0.4-0.8,1.3-1.3,2.4-1.3
							c1.7,0,3.2,1.1,3.2,3.3c0,2-1.3,3.7-3.9,3.7c-2.3,0-4-1.4-4-4.9c0-3.9,1.6-5.8,4.3-5.8c2.3,0,3.2,1.1,3.4,2.6H53.2z
							 M53.3,120.7c0-1.2-0.7-1.8-1.6-1.8c-0.9,0-1.6,0.6-1.6,1.8c0,1.3,0.8,1.9,1.6,1.9C52.5,122.5,53.3,122,53.3,120.7z"/>
					</g>
				</g>
				<g transform="translate(50.000000, 33.000000)">
					<g id="Group-10" transform="translate(12.000000, 20.000000)">
						<path id="Combined-Shape" class="st4" d="M33.9,27.2c-3,0-5.5-2.5-5.5-5.5v0c0-3,2.2-5.5,5.2-5.5h0.3c3,0,5.5,2.5,5.5,5.5v0
							C39.4,24.7,36.9,27.2,33.9,27.2z M34.2,42.5c10,0,18.1-8.1,18.1-18.1S44.2,6.2,34.2,6.2c-10,0-18.1,8.1-18.1,18.1
							c0,5.9,2.8,11.1,7.2,14.5c-1.7-1.4-2.6-2.7-2.6-2.7c7.3-7.3,19-7.3,26.3,0c0,0-4,6.3-13,6.4C34.1,42.5,34.2,42.5,34.2,42.5z
							 M34.2,0c13.4,0,24.3,10.9,24.3,24.3c0,13.4-10.9,24.3-24.3,24.3S9.9,37.8,9.9,24.3C9.9,10.9,20.8,0,34.2,0z"/>
						<path class="st5" d="M65.9,39.5c2.5,0,4.5-2,4.5-4.5c0-2.5-2-4.5-4.5-4.5c-2.5,0-4.5,2-4.5,4.5C61.4,37.5,63.4,39.5,65.9,39.5
							z M47.5,35.3c2.5-3,4-6.8,4-11c0-4.7-1.9-9-5-12.2c0,0-0.1-0.1-0.1-0.1c-3.1-3.1-7.4-5-12.1-5C24.7,7.1,17,14.8,17,24.3
							c0,4,1.4,7.7,3.7,10.6C28.2,27.9,40.1,28,47.5,35.3z M59.5,47.9c0-1.4-1.2-2.6-2.6-2.6c-1.4,0-2.6,1.2-2.6,2.6
							c0,1.4,1.2,2.6,2.6,2.6C58.3,50.5,59.5,49.3,59.5,47.9z M35.2,41.5c6.1-0.4,9.5-4,10.7-5.4c-6.7-6.2-17.2-6.2-23.9,0
							c0.3,0.4,0.9,1,1.6,1.7c2.9,2.3,6.5,3.7,10.5,3.7c0.3,0,0.6,0,0.9,0C35.1,41.5,35.1,41.5,35.2,41.5z M65.6,10.5
							c-0.6,0-1,0.5-1,1c0,0.6,0.5,1,1,1c0.6,0,1-0.5,1-1C66.6,10.9,66.2,10.5,65.6,10.5z M15.6,50.7c0-2.5-2-4.5-4.5-4.5
							c-2.5,0-4.5,2-4.5,4.5c0,2.5,2,4.5,4.5,4.5C13.6,55.1,15.6,53.1,15.6,50.7z M1.8,11.5c0,0.6,0.5,1,1,1c0.6,0,1-0.5,1-1
							c0-0.6-0.5-1-1-1C2.3,10.5,1.8,10.9,1.8,11.5z M66.8,28.9c3,0.4,5.4,3,5.4,6.2c0,3.4-2.8,6.3-6.3,6.3c-3.4,0-6.3-2.8-6.3-6.3
							c0-3.1,2.3-5.7,5.4-6.2v-3.6H53.2c-0.2,4.9-2.3,9.3-5.5,12.6l6.6,6.6c0.7-0.5,1.6-0.9,2.6-0.9c2.4,0,4.4,2,4.4,4.4
							c0,2.4-2,4.4-4.4,4.4c-2.4,0-4.4-2-4.4-4.4c0-0.8,0.2-1.5,0.6-2.2L46.4,39c-3.3,2.7-7.5,4.4-12.1,4.4c-0.1,0-0.1,0-0.2,0
							c-0.1,0-0.1,0-0.2,0c-5.5,0-9.2-2.2-11.4-4.1c-0.1-0.1-0.2-0.2-0.3-0.3L15.2,46c1.3,1.1,2.2,2.8,2.2,4.7
							c0,3.4-2.8,6.3-6.3,6.3s-6.3-2.8-6.3-6.3c0-3.4,2.8-6.3,6.3-6.3c0.9,0,1.8,0.2,2.5,0.5l7.2-7.2c-3.3-3.3-5.4-7.9-5.6-12.9H6.7
							c-0.4,0-0.7-0.2-0.9-0.6l-3.4-10C1.1,14.1,0,12.9,0,11.5c0-1.6,1.3-2.8,2.8-2.8c1.6,0,2.8,1.3,2.8,2.8c0,1.1-0.6,2-1.5,2.5
							l3.1,9.1h7.9c0.6-9.9,8.9-17.8,19-17.8c5.1,0,9.7,2,13.2,5.3h15.5c0.4-1.1,1.4-1.9,2.7-1.9c1.6,0,2.8,1.3,2.8,2.8
							s-1.3,2.8-2.8,2.8c-1.3,0-2.3-0.8-2.7-1.9H49.1c2.5,3,4,6.9,4.2,11h12.7c0.5,0,0.9,0.4,0.9,0.9V28.9z M33.9,26.3
							c2.5,0,4.6-2.1,4.6-4.6c0-2.5-2.1-4.6-4.6-4.6h-0.3c-2.5,0-4.3,2-4.3,4.6C29.3,24.2,31.3,26.3,33.9,26.3z M33.9,15.3
							c3.5,0,6.4,2.9,6.4,6.4v0v0v0v0c0,3.5-2.9,6.4-6.4,6.4s-6.4-2.9-6.4-6.4v0v0v0v0c0-3.6,2.7-6.4,6.1-6.4H33.9z"/>
					</g>
				</g>
			</g>
			<g transform="translate(489.000000, 196.000000)">
				<g transform="translate(-1.000000, 0.000000)">
					<path class="st6" d="M195.3,98l-48.1-83.4H50.9L2.7,98l48.1,83.4h96.3L195.3,98z"/>
					<g class="st1">
						<path class="st2" d="M81.2,138.8h4.2c3.6,0,6.1,1.8,6.1,6s-2.5,6.3-6.1,6.3h-4.2V138.8z M85.3,149c2.1,0,3.5-1.1,3.5-4.2
							c0-3-1.4-4.1-3.4-4.1h-1.5v8.3H85.3z"/>
						<path class="st2" d="M93.1,145c0.1-1.7,1.5-2.7,3.7-2.7c2.8,0,3.7,1.1,3.7,3.4v3c0,0.5,0.1,0.6,0.7,0.6v1.8h-0.8
							c-1.2,0-1.8-0.2-2.1-1.2h0c-0.5,0.8-1.4,1.3-2.6,1.3c-1.8,0-2.9-0.9-2.9-2.5c0-1,0.4-1.7,1.3-2.1c0.9-0.5,2.2-0.6,4-0.6v-0.5
							c0-0.9-0.4-1.4-1.3-1.4c-0.8,0-1.2,0.5-1.3,1.1H93.1z M98.1,147.4v-0.3c-1.3,0.1-2,0.2-2.4,0.5c-0.3,0.2-0.4,0.5-0.4,0.9
							c0,0.6,0.4,1.1,1.1,1.1C97.3,149.5,98.1,148.8,98.1,147.4z"/>
						<path class="st2" d="M105.8,140v2.4h1.9v1.8h-1.9v3.8c0,0.9,0.3,1.2,1.2,1.2c0.3,0,0.7-0.1,0.7-0.1v1.9c-0.3,0-1,0.1-1.7,0.1
							c-1.7,0-2.7-0.7-2.7-2.7v-4.3h-1.3v-1.7h0.3c1.1,0,1.3-0.2,1.3-1.8V140H105.8z"/>
						<path class="st2" d="M109.4,145c0.1-1.7,1.5-2.7,3.7-2.7c2.8,0,3.7,1.1,3.7,3.4v3c0,0.5,0.1,0.6,0.7,0.6v1.8h-0.8
							c-1.2,0-1.8-0.2-2.1-1.2h0c-0.5,0.8-1.4,1.3-2.6,1.3c-1.8,0-2.9-0.9-2.9-2.5c0-1,0.4-1.7,1.3-2.1c0.9-0.5,2.2-0.6,4-0.6v-0.5
							c0-0.9-0.4-1.4-1.3-1.4c-0.8,0-1.2,0.5-1.3,1.1H109.4z M114.4,147.4v-0.3c-1.3,0.1-2,0.2-2.4,0.5c-0.3,0.2-0.4,0.5-0.4,0.9
							c0,0.6,0.4,1.1,1.1,1.1C113.5,149.5,114.4,148.8,114.4,147.4z"/>
					</g>
					<g class="st1">
						<path class="st3" d="M41.9,113.5c2.7,0,4.2,1.7,4.2,5.4c0,3.6-1.6,5.4-4.2,5.4c-2.7,0-4.2-1.7-4.2-5.4
							C37.7,115.2,39.4,113.5,41.9,113.5z M43.7,118.8c0-2.7-0.8-3.7-1.8-3.7c-1.1,0-1.8,1-1.8,3.7c0,2.8,0.7,3.7,1.8,3.7
							C43,122.5,43.7,121.5,43.7,118.8z"/>
						<path class="st3" d="M51.3,118.8c-0.7,0-1.3,0.2-1.6,0.8h-1.9l0.5-5.9h6.2v1.8H50l-0.2,2.6h0c0.4-0.5,1.1-0.9,2.1-0.9
							c1.9,0,3.2,1.2,3.2,3.5c0,2-1.3,3.6-3.9,3.6c-2.9,0-3.7-1.6-3.8-3.1h2.2c0.1,1,0.7,1.4,1.6,1.4c0.9,0,1.7-0.7,1.7-1.9
							C52.9,119.5,52.3,118.8,51.3,118.8z"/>
					</g>
				</g>
				<g transform="translate(50.000000, 33.000000)">
					<g id="Group-35" transform="translate(9.000000, 8.000000)">
						<path class="st7" d="M11,43c-2.7,0-5-2.2-5-4.8v0.6c0-2.6,2.3-4.8,5-4.8c2.8,0,5,2.2,5,4.8v-0.6C16,40.8,13.7,43,11,43z
							 M18.4,52.3c0.2,1.1,0.8,2.2,1.6,3l0,1.7H3l0-3.3c0-1.2,0.3-4.5,2.4-5.9c1-0.7,3.5-1.8,6.1-1.8c1.7,0,3.3,0.5,4.5,1
							c0.1,0.9,0.4,1.7,0.9,2.4C17.1,50.5,17.6,51.5,18.4,52.3z M69,43c-2.7,0-5-2.2-5-4.8v0.6c0-2.6,2.3-4.8,5-4.8
							c2.7,0,5,2.2,5,4.8v-0.6C74,40.8,71.7,43,69,43z M77.1,53.5l0,3.4h-17l0-1.3c0.4-0.5,0.8-1.1,1-1.7c0.5-0.6,0.9-1.4,1.1-2.3
							c1-0.9,1.6-2.2,1.8-3.6c0.3-0.5,0.6-1,0.7-1.6c1.1-0.4,2.5-0.8,3.9-0.8c2.5,0,5.1,1.1,6.1,1.8C76.8,48.9,77.1,52.3,77.1,53.5z
							"/>
						<path class="st8" d="M28.1,49.6c7.1-6.2,17.8-6.2,24.9,0c1.9-2.6,3-5.7,3-9.1C56,32,49,25,40.5,25S25,32,25,40.5
							C25,43.9,26.2,47.1,28.1,49.6z M29.8,51.6c2.8,2.7,6.6,4.4,10.7,4.4c4.1,0,7.8-1.6,10.6-4.2c0.2-0.2,0.4-0.4,0.5-0.6
							c-6.3-5.6-16-5.6-22.3,0C29.5,51.3,29.6,51.4,29.8,51.6z M29.1,53.8c-3.8-3.2-6.1-8-6.1-13.3C23,30.9,30.9,23,40.5,23
							C50.1,23,58,30.9,58,40.5c0,5.3-2.4,10.1-6.1,13.3c-2.1,1.9-5.8,4.2-11.4,4.2C34.9,58,31.2,55.7,29.1,53.8z M26.9,62.1
							L8.8,79.6c-1,1-2.3,1.4-3.6,1.4s-2.6-0.5-3.6-1.4c-2-2-2-5.1,0-7l18.1-17.5c-2.9-4.1-4.6-9.2-4.6-14.6
							C15,26.4,26.4,15,40.5,15S66,26.4,66,40.5C66,54.6,54.6,66,40.5,66C35.5,66,30.8,64.6,26.9,62.1z M25.2,60.9
							c-1.6-1.2-3.1-2.6-4.3-4.1L3,74c-1.2,1.1-1.2,3,0,4.1c1.2,1.2,3.1,1.2,4.3,0L25.2,60.9z M40.5,17.1
							c-12.9,0-23.4,10.5-23.4,23.4c0,12.9,10.5,23.4,23.4,23.4s23.4-10.5,23.4-23.4C63.9,27.6,53.4,17.1,40.5,17.1z M40,13
							c-0.6,0-1-0.4-1-0.9v-0.1c0-0.5,0.4-0.9,1-0.9s1,0.4,1,0.9v0.1C41,12.6,40.6,13,40,13z M40,8c-0.6,0-1-0.5-1-1V1
							c0-0.6,0.4-1,1-1s1,0.5,1,1V7C41,7.5,40.6,8,40,8z M32,12c-0.3,0-0.5-0.1-0.7-0.3l-4-4c-0.4-0.4-0.4-1,0-1.4
							c0.4-0.4,1-0.4,1.4,0l4,4c0.4,0.4,0.4,1,0,1.4C32.5,11.9,32.3,12,32,12z M49,12c-0.3,0-0.5-0.1-0.7-0.3c-0.4-0.4-0.4-1,0-1.4
							l4-4c0.4-0.4,1-0.4,1.4,0c0.4,0.4,0.4,1,0,1.4l-4,4C49.5,11.9,49.2,12,49,12z M35.1,36c0.1,2.8,2.5,5,5.4,5
							c2.9,0,5.3-2.2,5.4-5c-0.1-2.8-2.5-5-5.4-5C37.6,31,35.2,33.2,35.1,36z M40.5,43c-3.9,0-7.1-2.9-7.5-6.6c0-0.1,0-0.2,0-0.2
							v-0.4c0-0.1,0-0.2,0-0.2c0.3-3.7,3.6-6.6,7.5-6.6s7.1,2.9,7.5,6.6c0,0.1,0,0.2,0,0.2v0.4c0,0.1,0,0.2,0,0.2
							C47.6,40.1,44.4,43,40.5,43z"/>
					</g>
				</g>
			</g>
			<g transform="translate(0.000000, 101.000000)">
				<g transform="translate(-1.000000, 0.000000)">
					<path class="st9" d="M195.3,98l-48.1-83.4H50.9L2.7,98l48.1,83.4h96.3L195.3,98z"/>
					<g class="st1">
						<path class="st2" d="M66.2,144.9c0,2.8,1.1,4.3,2.8,4.3c1.4,0,2.3-0.9,2.4-2.4h2.7c-0.1,2.6-2,4.4-5,4.4
							c-3.8,0-5.7-2.3-5.7-6.2c0-4,2.1-6.5,5.7-6.5c3,0,4.9,1.6,5.1,4.3h-2.7c-0.1-1.4-1-2.4-2.4-2.4
							C67.4,140.5,66.2,142,66.2,144.9z"/>
						<path class="st2" d="M75.6,146.7c0-2.8,1.7-4.5,4.4-4.5c2.6,0,4.3,1.7,4.3,4.5c0,2.8-1.8,4.5-4.4,4.5
							C77.2,151.2,75.6,149.5,75.6,146.7z M78.2,146.7c0,1.7,0.5,2.8,1.7,2.8c1.3,0,1.7-1.2,1.7-2.8c0-1.6-0.4-2.8-1.7-2.8
							C78.6,143.9,78.2,145.1,78.2,146.7z"/>
						<path class="st2" d="M91.6,146c0-0.6,0-1.1-0.3-1.4c-0.2-0.3-0.6-0.5-1.1-0.5c-1.1,0-1.7,0.7-1.7,2v5h-2.5v-8.6h2.4v1.4h0
							c0.5-0.9,1.3-1.6,2.8-1.6c2.1,0,2.9,1.1,2.9,3.2v5.6h-2.5V146z"/>
						<path class="st2" d="M100.7,144.8c0-0.5-0.4-1-1.2-1c-0.8,0-1.2,0.4-1.2,0.9c0,0.5,0.3,0.8,1,0.9l1.5,0.2
							c1.6,0.2,2.5,1,2.5,2.5c0,1.9-1.6,2.9-3.7,2.9c-2.6,0-3.6-1.2-3.8-2.7H98c0,0.6,0.4,1.1,1.4,1.1c0.8,0,1.4-0.3,1.4-0.9
							c0-0.5-0.2-0.8-1-0.9l-1.4-0.2c-1.6-0.2-2.5-1-2.5-2.6c0-1.5,1.1-2.8,3.6-2.8c2.2,0,3.3,1.1,3.5,2.6H100.7z"/>
						<path class="st2" d="M104.8,138.6h2.6v2.3h-2.6V138.6z M104.8,142.4h2.5v8.6h-2.5V142.4z"/>
						<path class="st2" d="M117.8,151h-2.4v-1.3h0c-0.4,0.8-1.2,1.5-2.6,1.5c-2.3,0-3.6-1.4-3.6-4.4c0-3,1.6-4.6,3.7-4.6
							c1.1,0,2,0.5,2.4,1.3h0v-5.2h2.5V151z M115.3,146.3c0-1.5-0.7-2.4-1.7-2.4c-1.1,0-1.8,0.9-1.8,2.8c0,1.7,0.5,2.8,1.8,2.8
							c1.2,0,1.8-0.9,1.8-2.2V146.3z"/>
						<path class="st2" d="M123.7,151.2c-2.8,0-4.2-1.8-4.2-4.5c0-2.6,1.6-4.5,4.3-4.5c2.9,0,4.1,1.9,4.1,4.4v0.7H122
							c0.1,1.5,0.7,2.2,1.8,2.2c1,0,1.3-0.5,1.5-1h2.5C127.5,150.2,126,151.2,123.7,151.2z M125.3,145.7c-0.1-1.2-0.6-1.9-1.5-1.9
							c-1,0-1.6,0.7-1.7,2h3.2V145.7z"/>
						<path class="st2" d="M129.6,142.4h2.4v1.8h0c0.5-1.3,1.7-2,2.8-2h0.1v2.3h-0.4c-1.6,0-2.4,0.5-2.4,2.2v4.2h-2.5V142.4z"/>
					</g>
					<g class="st1">
						<path class="st3" d="M41.9,113.5c2.7,0,4.2,1.7,4.2,5.4c0,3.6-1.6,5.4-4.2,5.4c-2.7,0-4.2-1.7-4.2-5.4
							C37.7,115.2,39.4,113.5,41.9,113.5z M43.7,118.8c0-2.7-0.8-3.7-1.8-3.7c-1.1,0-1.8,1-1.8,3.7c0,2.8,0.7,3.7,1.8,3.7
							C43,122.5,43.7,121.5,43.7,118.8z"/>
						<path class="st3" d="M49.3,116.9h-2v-1.4h0.3c0.6,0,1.1-0.1,1.5-0.4c0.3-0.3,0.5-0.8,0.5-1.4h2V124h-2.2V116.9z"/>
					</g>
				</g>
				<g transform="translate(50.000000, 33.000000)">
					<g transform="translate(10.000000, 10.000000)">
<a xlink:href="https://ponyfoo.com/">
						<path id="Fill-1" class="st10" d="M28.8,49.5c0.3-1.2,1.5-0.4,2-1.2c0.8-1.1,0.8-2.3,1-3.6c0.4-3.1,1-5.9,2.8-8.5
							c1-1.5,2.3-2.8,3.3-4.3c0.4-0.5,0.9-1.1,1.1-1.8c0.3-0.7,0-1.4,0.2-2.2c0.9-4.3,7.7-4.5,11.4-4.5C47.9,13.6,38.8,6.3,28,6.3
							c-13,0-23.5,10.5-23.5,23.5S15.1,53.4,28,53.4c0.4,0,0.8,0,1.1,0C28.8,52.9,28.7,50.3,28.8,49.5"/>
						<path id="Fill-13" class="st10" d="M52.4,48.6c2.4-1.7,5.1-1.9,8-2c2,0,3.9-0.7,4.8-2.5c2.4-4.6-1.4-9.9-5.3-12.2
							c-4.6-2.7-10.5-2.6-15.2-0.1c-5.7,3-11.9,11.4-8.5,18c1.6,3,4.6,5.1,8.1,4.5c3.2-0.6,5.2-3.3,7.6-5.2
							C52.1,48.8,52.3,48.7,52.4,48.6"/>
						<path class="st11" d="M27.2,50.7c-1.8-0.1-3.3-1.5-3.5-3.3l-0.8-8.9c-1.2-0.6-2.2-1.3-3.2-2.3c-1.1-1.1-1.9-2.3-2.5-3.7
							c-0.6-1.4-0.9-3-0.9-4.6c0-1.6,0.3-3.1,0.9-4.6c0.6-1.4,1.4-2.6,2.5-3.7c1.1-1.1,2.3-1.9,3.7-2.5c2.9-1.2,6.3-1.2,9.2,0
							c1.4,0.6,2.7,1.4,3.7,2.5c1.1,1.1,1.9,2.3,2.5,3.7c0.3,0.7,0.5,1.3,0.6,2c1.8-1,5.7-2.8,11.8-2.8c0.1,0,0.1,0,0.2,0
							c8.6,0.1,18.8,7.5,20.5,13.2c0.9,3.1,0.8,5.2,0.8,6.7c0,1.1-0.1,1.9,0.3,2.6c0.2,0.4,0.5,1.1,0.9,1.7c3.2,6.4,3.3,7,2.7,7.7
							c-0.1,0.1-0.5,0.6-4.4,2.6c0,1.6,0,5.6-0.3,7.5c-0.5,3.1-1.9,6.2-8.9,5.7c-1.1-0.1-2.1-0.2-2.9-0.2c-3.6-0.3-3.6-0.3-4.1,1.1
							c-0.9,2.5-1.3,4-1.3,4L54.7,76h-0.8H32.7l3.5-8.9C34.2,65.3,27.5,59.1,27.2,50.7z M29.2,50.6C29.5,59.4,38,65.9,38,66l0.6,0.5
							l-3,7.6h17.4c0.2-0.7,0.6-1.9,1.1-3.5c1-2.9,2.2-2.8,6.2-2.4c0.8,0.1,1.7,0.2,2.9,0.2c6,0.4,6.4-2.1,6.7-4
							c0.3-2.2,0.2-7.8,0.2-7.8l0-0.6l0.6-0.3c1.5-0.8,3.2-1.7,4-2.2c-0.4-1.2-1.9-4.2-2.7-5.7c-0.4-0.7-0.7-1.3-0.9-1.8
							c-0.6-1.2-0.5-2.2-0.5-3.5c0.1-1.5,0.1-3.3-0.7-6.1c-1.4-5-10.9-11.7-18.5-11.7c-7-0.1-11,2.5-11.7,3c0,0.1,0,0.2,0,0.3
							c0,1.6-0.3,3.1-0.9,4.6c-0.6,1.4-1.4,2.6-2.5,3.7c-0.9,0.9-2,1.7-3.2,2.3l-1.2,9.1C31.7,49.1,30.6,50.2,29.2,50.6z M25.5,44.3
							h4.9l0.4-2.7h-5.5L25.5,44.3z M25.6,46.1l0.1,1.1c0.1,0.8,0.8,1.4,1.6,1.4h1c0.8,0,1.5-0.6,1.6-1.4l0.2-1.1H25.6z M25.1,39.8
							h5.9l0.4-2.7l0.5-0.2c1.2-0.5,2.2-1.2,3.1-2.1c0.9-0.9,1.6-1.9,2.1-3.1c0.5-1.2,0.8-2.5,0.8-3.8c0-1.3-0.3-2.6-0.8-3.8
							c-0.5-1.2-1.2-2.2-2.1-3.1c-0.9-0.9-1.9-1.6-3.1-2.1c-1.2-0.5-2.5-0.8-3.8-0.8c-1.3,0-2.6,0.3-3.8,0.8
							c-1.2,0.5-2.2,1.2-3.1,2.1c-0.9,0.9-1.6,1.9-2.1,3.1c-0.5,1.2-0.8,2.5-0.8,3.8c0,1.3,0.3,2.6,0.8,3.8c0.5,1.2,1.2,2.2,2.1,3.1
							c0.9,0.9,1.9,1.6,3.1,2.1l0.6,0.2L25.1,39.8z M34.4,28h-2c0-2.4-1.9-4.3-4.3-4.3v-2C31.5,21.7,34.4,24.6,34.4,28z M52.5,61.5
							c-0.5,0-0.9-0.4-0.9-0.8v-0.1c0-0.5,0.4-0.8,0.9-0.8c0.5,0,0.9,0.4,0.9,0.8v0.1C53.4,61.2,53,61.5,52.5,61.5z M52.5,57
							c-0.6,0-1-0.5-1-1v-6.4c0-0.6,0.5-1,1-1c2.9,0,5.2-2.3,5.2-5.2s-2.3-5.2-5.2-5.2s-5.2,2.3-5.2,5.2c0,0.6-0.5,1-1,1
							c-0.6,0-1-0.5-1-1c0-4,3.2-7.2,7.2-7.2s7.2,3.2,7.2,7.2c0,3.6-2.7,6.6-6.2,7.1V56C53.5,56.5,53,57,52.5,57z M12.7,29h-0.1
							c-0.5,0-0.8-0.4-0.8-0.9s0.4-0.9,0.8-0.9h0.1c0.5,0,0.8,0.4,0.8,0.9S13.2,29,12.7,29z M7.2,29H1c-0.5,0-1-0.4-1-0.9
							s0.4-0.9,1-0.9h6.2c0.5,0,1,0.4,1,0.9S7.7,29,7.2,29z M28,13.6c-0.5,0-0.9-0.4-0.9-0.8v-0.1c0-0.5,0.4-0.8,0.9-0.8
							s0.9,0.4,0.9,0.8v0.1C29,13.2,28.5,13.6,28,13.6z M28,8.1c-0.5,0-0.9-0.4-0.9-1V1c0-0.5,0.4-1,0.9-1S29,0.4,29,1v6.2
							C29,7.7,28.5,8.1,28,8.1z M17.1,39.8c-0.2,0-0.4-0.1-0.6-0.2c-0.3-0.3-0.3-0.9,0-1.2l0.1-0.1c0.3-0.3,0.9-0.3,1.2,0
							c0.3,0.3,0.3,0.9,0,1.2l-0.1,0.1C17.6,39.7,17.4,39.8,17.1,39.8z M9.1,48c-0.3,0-0.5-0.1-0.7-0.3c-0.4-0.4-0.4-1,0-1.4
							l4.4-4.4c0.4-0.4,1-0.4,1.4,0c0.4,0.4,0.4,1,0,1.4l-4.4,4.4C9.6,47.9,9.4,48,9.1,48z M38.9,18.1c-0.2,0-0.4-0.1-0.6-0.2
							c-0.3-0.3-0.3-0.9,0-1.2l0.1-0.1c0.3-0.3,0.9-0.3,1.2,0c0.3,0.3,0.3,0.9,0,1.2l-0.1,0.1C39.3,18,39.1,18.1,38.9,18.1z
							 M42.6,14.5c-0.3,0-0.5-0.1-0.7-0.3c-0.4-0.4-0.4-1,0-1.4l4.4-4.4c0.4-0.4,1-0.4,1.4,0c0.4,0.4,0.4,1,0,1.4l-4.4,4.4
							C43.1,14.4,42.9,14.5,42.6,14.5z M17.2,18.1c-0.2,0-0.4-0.1-0.6-0.2l-0.1-0.1c-0.3-0.3-0.3-0.9,0-1.2c0.3-0.3,0.9-0.3,1.2,0
							l0.1,0.1c0.3,0.3,0.3,0.9,0,1.2C17.7,18,17.5,18.1,17.2,18.1z M13.5,14.5c-0.3,0-0.5-0.1-0.7-0.3L8.4,9.8C8,9.4,8,8.8,8.4,8.4
							c0.4-0.4,1-0.4,1.4,0l4.4,4.4c0.4,0.4,0.4,1,0,1.4C14,14.4,13.7,14.5,13.5,14.5z"/>
</a>
					</g>
				</g>
			</g>
			<g transform="translate(163.000000, 0.000000)">
				<g transform="translate(-1.000000, 0.000000)">
					<path class="st12" d="M195.3,98l-48.1-83.4H50.9L2.7,98l48.1,83.4h96.3L195.3,98z"/>
					<g class="st1">
						<path class="st2" d="M70.1,144.9c0,2.8,1.1,4.3,2.8,4.3c1.4,0,2.3-0.9,2.4-2.4H78c-0.1,2.6-2,4.4-5,4.4
							c-3.8,0-5.7-2.3-5.7-6.2c0-4,2.1-6.5,5.7-6.5c3,0,4.9,1.6,5.1,4.3h-2.7c-0.1-1.4-1-2.4-2.4-2.4
							C71.3,140.5,70.1,142,70.1,144.9z"/>
						<path class="st2" d="M79.4,146.7c0-2.8,1.7-4.5,4.4-4.5c2.6,0,4.3,1.7,4.3,4.5c0,2.8-1.8,4.5-4.4,4.5
							C81,151.2,79.4,149.5,79.4,146.7z M82,146.7c0,1.7,0.5,2.8,1.7,2.8c1.3,0,1.7-1.2,1.7-2.8c0-1.6-0.4-2.8-1.7-2.8
							C82.5,143.9,82,145.1,82,146.7z"/>
						<path class="st2" d="M89.8,142.4h2.4v1.4h0c0.4-0.8,1.3-1.6,2.7-1.6c1.6,0,2.4,0.7,2.7,1.8h0c0.3-0.8,1.3-1.8,2.8-1.8
							c2,0,2.9,1.1,2.9,3.2v5.6h-2.5v-5c0-0.6,0-1.1-0.3-1.4c-0.2-0.4-0.6-0.5-1.1-0.5c-1.1,0-1.7,0.7-1.7,2v5h-2.5v-5
							c0-0.6,0-1.1-0.3-1.4c-0.2-0.3-0.6-0.5-1.1-0.5c-1.1,0-1.7,0.7-1.7,2v5h-2.5V142.4z"/>
						<path class="st2" d="M105.6,142.4h2.4v1.4h0c0.4-0.8,1.3-1.6,2.7-1.6c1.6,0,2.4,0.7,2.7,1.8h0c0.3-0.8,1.3-1.8,2.8-1.8
							c2,0,2.9,1.1,2.9,3.2v5.6h-2.5v-5c0-0.6,0-1.1-0.3-1.4c-0.2-0.4-0.6-0.5-1.1-0.5c-1.1,0-1.7,0.7-1.7,2v5h-2.5v-5
							c0-0.6,0-1.1-0.3-1.4c-0.2-0.3-0.6-0.5-1.1-0.5c-1.1,0-1.7,0.7-1.7,2v5h-2.5V142.4z"/>
						<path class="st2" d="M121.3,138.6h2.6v2.3h-2.6V138.6z M121.3,142.4h2.5v8.6h-2.5V142.4z"/>
						<path class="st2" d="M129.1,140v2.4h1.9v1.8h-1.9v3.8c0,0.9,0.3,1.2,1.2,1.2c0.3,0,0.7-0.1,0.7-0.1v1.9c-0.3,0-1,0.1-1.7,0.1
							c-1.7,0-2.7-0.7-2.7-2.7v-4.3h-1.3v-1.7h0.3c1.1,0,1.3-0.2,1.3-1.8V140H129.1z"/>
					</g>
					<g class="st1">
						<path class="st3" d="M41.9,113.5c2.7,0,4.2,1.7,4.2,5.4c0,3.6-1.6,5.4-4.2,5.4c-2.7,0-4.2-1.7-4.2-5.4
							C37.7,115.2,39.4,113.5,41.9,113.5z M43.7,118.8c0-2.7-0.8-3.7-1.8-3.7c-1.1,0-1.8,1-1.8,3.7c0,2.8,0.7,3.7,1.8,3.7
							C43,122.5,43.7,121.5,43.7,118.8z"/>
						<path class="st3" d="M47.5,117.1c0-2.2,1.4-3.6,3.8-3.6c2.6,0,3.6,1.4,3.6,2.9c0,1.5-0.7,2.4-2.3,3.8l-2.1,2v0h4.5v1.8h-7.7
							v-1.3l3.7-3.5c1.2-1.1,1.7-1.8,1.7-2.7c0-0.9-0.5-1.4-1.4-1.4c-0.8,0-1.5,0.4-1.5,1.9H47.5z"/>
					</g>
				</g>
				<g transform="translate(50.000000, 33.000000)">
					<g id="Group-25" transform="translate(0.000000, 19.000000)">
						<path class="st13" d="M33.6,12.6l6.7,1.1l-7.7,4.7v10.7c0,0,8.4,1,9.5-8.3h6.7c0,0-0.7,6.7,8.3,6.3l15.9,8.5
							c0,0,3.2,2.4,1.2,5.5c-2,3.1-4.3,2.5-4.3,2.5s1.6,1.9,0,4.3c-1.6,2.4-4.2,1.9-7.5,0c0,0-0.9,3.8-3,4.6
							c-2.1,0.9-4.1,1.6-8.1-1.8c0,0,2,4.6-2.1,6.3c-4.1,1.7-6-3.7-6-3.7s0.4-2.2-1.8-3.9c-2.2-1.7-4.6-0.7-4.6-0.7s1.7-1.9-0.8-4.6
							c-2.5-2.7-4.7,0.8-4.7,0.8s1-2.8-1.1-5.1c-2.1-2.3-4.7,0.8-4.7,0.8s-1-4-3.1-5l-4.6,2.5l-2.5-8.3l13.2-16.8L33.6,12.6z"/>
						<polygon id="Fill-3" class="st14" points="17.3,37.6 14.1,30.6 16.1,29.6 19.2,36.6 						"/>
						<path id="Fill-5" class="st15" d="M18.6,1.6l9.1,6.7c1.8,1.3,2.2,3.8,0.9,5.6l-12.9,18c-1.3,1.8-3.8,2.2-5.6,0.9L1,26.1"/>
						<path id="Fill-7" class="st14" d="M11.4,22.9c-0.1,0.1,0,0.2,0,0.3c0.1,0.1,0.2,0,0.3,0c0.1-0.1,0-0.2,0-0.3
							C11.7,22.8,11.5,22.9,11.4,22.9 M11.6,25.6c-0.5,0-1-0.2-1.5-0.5c-1.1-0.8-1.4-2.4-0.6-3.5l0,0c0.4-0.5,1-0.9,1.6-1
							c0.7-0.1,1.3,0.1,1.9,0.4c0.5,0.4,0.9,1,1,1.6c0.1,0.7-0.1,1.3-0.5,1.9c-0.4,0.5-1,0.9-1.6,1C11.9,25.5,11.7,25.6,11.6,25.6"
							/>
						<path id="Fill-9" class="st15" d="M77.4,2l-9.1,6.7c-1.8,1.3-2.2,3.8-0.9,5.6l12.9,18c1.3,1.8,3.8,2.2,5.6,0.9l9.1-6.7"/>
						<polygon id="Fill-11" class="st14" points="29.3,13.6 67.7,13.6 67.7,10.6 29.3,10.6 						"/>
						<path class="st14" d="M33,30.6c-0.4,0-0.6,0-0.6,0l-1.1-0.1V17.8l10-6.2l1.2,2l-8.9,5.5v9.1c1.3-0.1,3.5-0.5,5.1-1.9
							c1.3-1.2,1.9-3,1.9-5.3v-1.2h8.9l0.1,1.1c0,0.1,0.2,2.4,2.2,3.9c1.8,1.4,4.6,1.8,8.3,1.1l0.4,2.3c-4.4,0.9-7.9,0.3-10.3-1.5
							c-1.8-1.4-2.6-3.3-2.8-4.5H43c-0.2,2.4-1.1,4.4-2.7,5.8C37.9,30.3,34.4,30.6,33,30.6"/>
						<path id="Fill-14" class="st14" d="M71.5,44.6c-1,0-2-0.3-2.9-0.9l-14.1-9.2l1.3-2l14.1,9.2c0.7,0.4,1.4,0.6,2.2,0.4
							c0.8-0.2,1.4-0.6,1.8-1.3c0.9-1.4,0.5-3.2-0.9-4.1L59,27.6l1.3-2l14.1,9.2c2.5,1.6,3.2,4.9,1.6,7.4
							C74.9,43.7,73.2,44.6,71.5,44.6"/>
						<path id="Fill-15" class="st14" d="M66.4,51.6c-1,0-2-0.3-2.9-0.9l-14.1-9.2l1.3-2l14.1,9.2c1.4,0.9,3.2,0.5,4-0.9
							c0.4-0.7,0.6-1.4,0.4-2.2c-0.2-0.8-0.6-1.4-1.3-1.9L54,34.6l1.3-2l14.1,9.2c2.5,1.6,3.2,4.9,1.6,7.4
							C69.9,50.7,68.2,51.6,66.4,51.6"/>
						<path id="Fill-16" class="st14" d="M57.3,55.6c-1,0-2-0.3-2.9-0.8l-8.9-5.7l1.4-1.9l8.9,5.7c0.6,0.4,1.4,0.5,2.2,0.4
							c0.8-0.2,1.4-0.6,1.9-1.2c0.4-0.6,0.6-1.4,0.4-2.1c-0.2-0.7-0.6-1.4-1.3-1.8L50,42.5l1.3-1.9l8.9,5.7c1.2,0.7,2,1.9,2.3,3.2
							c0.3,1.3,0,2.7-0.7,3.8c-0.8,1.1-2,1.9-3.4,2.2C58,55.5,57.6,55.6,57.3,55.6"/>
						<path id="Fill-17" class="st14" d="M47.3,58.6c-1,0-2-0.3-2.8-0.8l-4-2.7l1.4-1.9l4,2.7c1.3,0.8,3.1,0.4,4-0.9
							c0.9-1.3,0.5-3-0.9-3.9l-4-2.7l1.4-1.9l4,2.7c2.4,1.5,3.1,4.6,1.5,7C50.7,57.7,49,58.6,47.3,58.6"/>
						<path id="Fill-18" class="st14" d="M21.7,37.1c-0.1,0-0.2,0-0.4,0c-0.6,0.1-1.1,0.4-1.4,0.9L19,39.4c-0.3,0.5-0.5,1.1-0.4,1.7
							c0.1,0.6,0.4,1.1,0.9,1.5c0.5,0.4,1.1,0.5,1.6,0.4c0.6-0.1,1.1-0.4,1.4-0.9l0.9-1.4c0.3-0.5,0.5-1.1,0.4-1.7
							c-0.1-0.6-0.4-1.1-0.9-1.5C22.6,37.2,22.2,37.1,21.7,37.1 M20.7,45.6c-1,0-1.9-0.3-2.7-0.9c-1-0.7-1.6-1.9-1.8-3.1
							C16,40.2,16.3,39,17,37.9l0.9-1.4c0.7-1,1.8-1.7,3-1.9c1.2-0.2,2.4,0.1,3.4,0.8c1,0.7,1.6,1.9,1.8,3.1
							c0.2,1.3-0.1,2.6-0.8,3.6l-0.9,1.4c-0.7,1-1.8,1.7-3,1.9C21.2,45.5,21,45.6,20.7,45.6"/>
						<path id="Fill-19" class="st14" d="M28.6,40.8c-0.1,0-0.3,0-0.4,0c-0.6,0.1-1.1,0.4-1.5,0.8l-2.6,2.7
							c-0.7,0.8-0.4,2.1,0.6,2.7c0.5,0.3,1.1,0.4,1.7,0.3c0.6-0.1,1.1-0.4,1.5-0.8l2.6-2.7c0.7-0.8,0.4-2.1-0.6-2.7
							C29.5,40.9,29.1,40.8,28.6,40.8 M26,49.6c-1,0-2-0.3-2.8-0.8c-2.1-1.4-2.6-4-1.1-5.9l2.7-2.7c1.5-1.8,4.5-2.2,6.6-0.9
							c2.1,1.4,2.6,4,1.1,5.9l-2.6,2.7c-0.7,0.8-1.8,1.4-3,1.6C26.5,49.5,26.2,49.6,26,49.6"/>
						<path id="Fill-20" class="st14" d="M33.6,44.8c-0.7,0-1.4,0.3-1.9,0.8l-2.6,2.7c-0.3,0.4-0.4,0.9-0.3,1.4
							c0.1,0.5,0.4,1,0.9,1.3c1,0.6,2.4,0.4,3.2-0.5l2.6-2.7c0.3-0.4,0.4-0.9,0.3-1.4c-0.1-0.5-0.4-1-0.9-1.3
							C34.6,44.9,34.1,44.8,33.6,44.8 M31.1,53.6c-1,0-2-0.3-2.8-0.8c-1-0.7-1.7-1.6-1.9-2.7c-0.2-1.1,0.1-2.2,0.8-3.1l2.6-2.7
							c1.5-1.8,4.5-2.2,6.6-0.9c1,0.7,1.7,1.6,1.9,2.7c0.2,1.1-0.1,2.2-0.8,3.1l-2.6,2.7C34,53,32.5,53.6,31.1,53.6"/>
						<path id="Fill-21" class="st14" d="M37.7,55.6c1,0.7,2.4,0.5,3.1-0.5l0.9-1.4c0.7-1,0.5-2.5-0.5-3.2c-1-0.7-2.4-0.5-3.1,0.5
							l-0.9,1.4C36.5,53.4,36.7,54.9,37.7,55.6 M38.9,58.6c-0.9,0-1.9-0.3-2.7-0.9c-2.1-1.6-2.5-4.6-1-6.7l0.9-1.4
							c1.5-2.2,4.4-2.7,6.4-1.1c2.1,1.6,2.5,4.6,1,6.7l-0.9,1.4C41.8,57.9,40.4,58.6,38.9,58.6"/>
						<path id="Fill-22" class="st14" d="M12.1,34.6c-1.1,0-2.1-0.3-3-1L0,26.9L1.4,25l9.1,6.7c1.3,0.9,3,0.6,3.9-0.6l13-18
							c0.4-0.6,0.6-1.4,0.5-2.1c-0.1-0.8-0.5-1.4-1.1-1.9l-9.1-6.6l1.4-1.9l9.1,6.6c1.1,0.8,1.8,2,2.1,3.4c0.2,1.4-0.1,2.7-0.9,3.9
							l-13,18C15.3,33.8,13.7,34.6,12.1,34.6"/>
						<path id="Fill-23" class="st14" d="M83.9,34.6c-1.6,0-3.2-0.7-4.2-2.1l-13-18c-1.7-2.3-1.2-5.6,1.1-7.2l9.1-6.6l1.4,1.9
							l-9.1,6.6c-1.3,0.9-1.5,2.7-0.6,4l13,18c0.9,1.3,2.7,1.5,3.9,0.6l9.1-6.7l1.4,1.9l-9.1,6.7C86,34.2,84.9,34.6,83.9,34.6"/>
						<path id="Fill-24" class="st14" d="M89.4,22.9c0,0-0.1,0-0.1,0c-0.1,0.1-0.1,0.2,0,0.3c0.1,0.1,0.2,0.1,0.3,0
							c0.1-0.1,0.1-0.2,0-0.3C89.6,22.9,89.5,22.9,89.4,22.9 M89.4,25.6c-0.1,0-0.3,0-0.4,0c-0.7-0.1-1.3-0.5-1.6-1
							c-0.4-0.5-0.6-1.2-0.5-1.9c0.1-0.7,0.5-1.2,1-1.6c0.5-0.4,1.2-0.6,1.9-0.4c0.7,0.1,1.3,0.5,1.6,1l0,0c0.4,0.5,0.6,1.2,0.5,1.9
							c-0.1,0.7-0.5,1.2-1,1.6C90.5,25.4,90,25.6,89.4,25.6"/>
					</g>
				</g>
			</g>
			<g transform="translate(326.000000, 101.000000)">
				<g transform="translate(-1.000000, 0.000000)">
					<path class="st16" d="M195.3,98l-48.1-83.4H50.9L2.7,98l48.1,83.4h96.3L195.3,98z"/>
					<g class="st1">
						<path class="st2" d="M78.2,138.8h2.6V149h5.3v2h-7.9V138.8z"/>
						<path class="st2" d="M91.6,151.2c-2.8,0-4.2-1.8-4.2-4.5c0-2.6,1.6-4.5,4.3-4.5c2.9,0,4.1,1.9,4.1,4.4v0.7h-5.8
							c0.1,1.5,0.7,2.2,1.8,2.2c1,0,1.3-0.5,1.5-1h2.5C95.4,150.2,93.9,151.2,91.6,151.2z M93.1,145.7c-0.1-1.2-0.6-1.9-1.5-1.9
							c-1,0-1.6,0.7-1.7,2h3.2V145.7z"/>
						<path class="st2" d="M97.3,151.5h2.4c0.2,0.6,0.5,1,1.6,1c1.2,0,1.8-0.6,1.8-2.1v-1.2h0c-0.3,0.7-1.1,1.5-2.5,1.5
							c-2.2,0-3.6-1.3-3.6-4.2c0-2.8,1.6-4.3,3.7-4.3c1.3,0,2.1,0.7,2.4,1.3h0v-1.2h2.4v7.9c0,2.6-1.4,3.9-4.3,3.9
							C98.7,154.2,97.4,153.1,97.3,151.5z M103.2,146.2c0-1.4-0.7-2.2-1.8-2.2c-1.1,0-1.8,0.8-1.8,2.6c0,1.6,0.6,2.6,1.8,2.6
							c1.1,0,1.8-0.9,1.8-2V146.2z"/>
						<path class="st2" d="M107.6,145c0.1-1.7,1.5-2.7,3.7-2.7c2.8,0,3.7,1.1,3.7,3.4v3c0,0.5,0.1,0.6,0.7,0.6v1.8h-0.8
							c-1.2,0-1.8-0.2-2.1-1.2h0c-0.5,0.8-1.4,1.3-2.6,1.3c-1.8,0-2.9-0.9-2.9-2.5c0-1,0.4-1.7,1.3-2.1c0.9-0.5,2.2-0.6,4-0.6v-0.5
							c0-0.9-0.4-1.4-1.3-1.4c-0.8,0-1.2,0.5-1.3,1.1H107.6z M112.6,147.4v-0.3c-1.3,0.1-2,0.2-2.4,0.5c-0.3,0.2-0.4,0.5-0.4,0.9
							c0,0.6,0.4,1.1,1.1,1.1C111.8,149.5,112.6,148.8,112.6,147.4z"/>
						<path class="st2" d="M117.3,138.4h2.5V151h-2.5V138.4z"/>
					</g>
					<g class="st1">
						<path class="st3" d="M41.9,113.5c2.7,0,4.2,1.7,4.2,5.4c0,3.6-1.6,5.4-4.2,5.4c-2.7,0-4.2-1.7-4.2-5.4
							C37.7,115.2,39.4,113.5,41.9,113.5z M43.7,118.8c0-2.7-0.8-3.7-1.8-3.7c-1.1,0-1.8,1-1.8,3.7c0,2.8,0.7,3.7,1.8,3.7
							C43,122.5,43.7,121.5,43.7,118.8z"/>
						<path class="st3" d="M50.5,119.5v-1.6h0.7c0.9,0,1.5-0.6,1.5-1.4c0-0.9-0.7-1.4-1.4-1.4c-1,0-1.5,0.6-1.5,1.5h-2.2
							c0-1.6,1.1-3.2,3.8-3.2c2.4,0,3.6,1.2,3.6,2.8c0,1.1-0.6,2-1.8,2.4v0c1.2,0.3,2,1.1,2,2.5c0,1.6-1.3,3.1-3.9,3.1
							c-2.8,0-3.8-1.6-3.9-3.2h2.3c0.1,1,0.8,1.5,1.6,1.5c0.9,0,1.6-0.6,1.6-1.5c0-0.9-0.6-1.5-1.6-1.5H50.5z"/>
					</g>
				</g>
				<g transform="translate(50.000000, 33.000000)">
					<g id="Group-23" transform="translate(10.000000, 11.000000)">
						<g transform="translate(2.690000, 2.494300)">
							<path class="st17" d="M65.1,60.3l5.1,0c-0.4,4.6-3.3,8.2-6.8,8.2H22c1.9-1.8,3.3-4.6,3.6-7.8l37.2-0.3L65.1,60.3z"/>
							<path class="st17" d="M8.4,7.4H0C0.7,1.1,2.3,0,5.6,0h0C5.8,0,7.9,0.6,8.4,7.4"/>
						</g>
						<path class="st18" d="M60.7,53.1v0.2c0,0.6-0.5,1.1-1.1,1.1c-0.6,0-1.1-0.5-1.1-1.1v-0.2c0-0.6,0.5-1.1,1.1-1.1
							C60.2,52,60.7,52.5,60.7,53.1"/>
						<path class="st18" d="M59.9,9.5c0.6,0,1.1,0.5,1.1,1.1s-0.5,1.1-1.1,1.1H38c-0.6,0-1.1-0.5-1.1-1.1s0.5-1.1,1.1-1.1H59.9z"/>
						<path class="st18" d="M59.9,20.2c0.6,0,1.1,0.5,1.1,1.1c0,0.6-0.5,1.1-1.1,1.1h-40c-0.6,0-1.1-0.5-1.1-1.1
							c0-0.6,0.5-1.1,1.1-1.1H59.9z"/>
						<path class="st18" d="M59.9,30.8c0.6,0,1.1,0.5,1.1,1.1c0,0.6-0.5,1.1-1.1,1.1H49.1c-0.6,0-1.1-0.5-1.1-1.1
							c0-0.6,0.5-1.1,1.1-1.1H59.9z"/>
						<path class="st18" d="M59.9,41.4c0.6,0,1.1,0.5,1.1,1.1c0,0.6-0.5,1.1-1.1,1.1h-40c-0.6,0-1.1-0.5-1.1-1.1
							c0-0.6,0.5-1.1,1.1-1.1H59.9z"/>
						<path class="st18" d="M51.8,52.2c0.6,0,1.1,0.5,1.1,1.1c0,0.6-0.5,1.1-1.1,1.1H19.9c-0.6,0-1.1-0.5-1.1-1.1
							c0-0.6,0.5-1.1,1.1-1.1H51.8z"/>
						<path class="st18" d="M41.7,30.8c0.6,0,1.1,0.5,1.1,1.1c0,0.6-0.5,1.1-1.1,1.1H19.9c-0.6,0-1.1-0.5-1.1-1.1
							c0-0.6,0.5-1.1,1.1-1.1H41.7z"/>
						<path class="st18" d="M30.7,9.5c0.6,0,1.1,0.5,1.1,1.1s-0.5,1.1-1.1,1.1H19.9c-0.6,0-1.1-0.5-1.1-1.1s0.5-1.1,1.1-1.1H30.7z"
							/>
						<path class="st18" d="M0.4,11c0.5-6.8,2-10.7,7.9-10.7c0,0,0,0,0.1,0v0h51.4c4.4,0,8,3.6,8,8v52.3l7.4-0.1v1.1
							c0,6.4-4.1,11.6-9.1,11.6h-5.4c-0.3,0-0.5,0-0.8,0H19.2c-4.4,0-8-3.6-8-8V13c0-0.3,0-0.6,0-0.8H0.3L0.4,11z M19.3,71
							c3.6,0,6.7-4,6.9-9l0-1.1l39.3-0.3V8.3c0-3.2-2.6-5.8-5.8-5.8H11.5c1,1.7,1.6,4.1,1.8,7.4c0,0.7,0.1,1.5,0.1,2.2
							c0,0.3,0,0.6,0,0.8v52.2c0,3.2,2.6,5.8,5.8,5.8L19.3,71L19.3,71z M28.3,63.1c-0.3,3.2-1.7,6-3.6,7.8H66c3.5,0,6.4-3.6,6.8-8.2
							l-5.1,0l-2.2,0L28.3,63.1z M11.1,9.9c-0.5-6.9-2.6-7.4-2.7-7.4h0C5,2.5,3.4,3.6,2.7,9.9H11.1z"/>
					</g>
				</g>
			</g>
			<g transform="translate(489.000000, 0.000000)">
				<g transform="translate(-1.000000, 0.000000)">
					<path class="st19" d="M195.3,98l-48.1-83.4H50.9L2.7,98l48.1,83.4h96.3L195.3,98z"/>
					<g class="st1">
						<path class="st2" d="M71.9,142.1c-0.1-0.8-0.6-1.6-1.8-1.6c-1.1,0-1.8,0.6-1.8,1.5c0,0.8,0.4,1.3,1.6,1.5l1.9,0.3
							c2.2,0.4,3.2,1.6,3.2,3.4c0,2.6-1.8,4.1-4.9,4.1c-3.1,0-4.8-1.5-4.9-3.8h2.7c0.1,1.1,0.9,1.8,2.2,1.8c1.5,0,2.1-0.7,2.1-1.7
							c0-0.8-0.5-1.3-1.7-1.5l-1.8-0.4c-1.9-0.4-3.2-1.5-3.2-3.5c0-2.2,1.7-3.7,4.6-3.7c3.1,0,4.4,1.6,4.5,3.5H71.9z"/>
						<path class="st2" d="M75.9,142.4h2.6l1.4,4.5c0.3,0.9,0.4,1.7,0.4,1.7h0c0,0,0.1-0.8,0.4-1.7l1.3-4.5h2.5l-3,8.9
							c-0.7,2-1.5,2.9-3.7,2.9c-0.8,0-1.2-0.1-1.3-0.1v-1.9c0.1,0,0.5,0.1,0.9,0.1c1,0,1.4-0.3,1.6-1l0.1-0.2L75.9,142.4z"/>
						<path class="st2" d="M90.1,144.8c0-0.5-0.4-1-1.2-1s-1.2,0.4-1.2,0.9c0,0.5,0.3,0.8,1,0.9l1.5,0.2c1.6,0.2,2.5,1,2.5,2.5
							c0,1.9-1.6,2.9-3.7,2.9c-2.6,0-3.6-1.2-3.8-2.7h2.3c0,0.6,0.4,1.1,1.4,1.1c0.8,0,1.4-0.3,1.4-0.9c0-0.5-0.2-0.8-1-0.9
							l-1.4-0.2c-1.6-0.2-2.5-1-2.5-2.6c0-1.5,1.1-2.8,3.6-2.8c2.2,0,3.3,1.1,3.5,2.6H90.1z"/>
						<path class="st2" d="M97.1,140v2.4h1.9v1.8h-1.9v3.8c0,0.9,0.3,1.2,1.2,1.2c0.3,0,0.7-0.1,0.7-0.1v1.9c-0.3,0-1,0.1-1.7,0.1
							c-1.7,0-2.7-0.7-2.7-2.7v-4.3h-1.3v-1.7h0.3c1.1,0,1.3-0.2,1.3-1.8V140H97.1z"/>
						<path class="st2" d="M104.4,151.2c-2.8,0-4.2-1.8-4.2-4.5c0-2.6,1.6-4.5,4.3-4.5c2.9,0,4.1,1.9,4.1,4.4v0.7h-5.8
							c0.1,1.5,0.7,2.2,1.8,2.2c1,0,1.3-0.5,1.5-1h2.5C108.2,150.2,106.7,151.2,104.4,151.2z M106,145.7c-0.1-1.2-0.6-1.9-1.5-1.9
							c-1,0-1.6,0.7-1.7,2h3.2V145.7z"/>
						<path class="st2" d="M110.3,142.4h2.4v1.4h0c0.4-0.8,1.3-1.6,2.7-1.6c1.6,0,2.4,0.7,2.7,1.8h0c0.3-0.8,1.3-1.8,2.8-1.8
							c2,0,2.9,1.1,2.9,3.2v5.6h-2.5v-5c0-0.6,0-1.1-0.3-1.4c-0.2-0.4-0.6-0.5-1.1-0.5c-1.1,0-1.7,0.7-1.7,2v5h-2.5v-5
							c0-0.6,0-1.1-0.3-1.4c-0.2-0.3-0.6-0.5-1.1-0.5c-1.1,0-1.7,0.7-1.7,2v5h-2.5V142.4z"/>
						<path class="st2" d="M130.5,144.8c0-0.5-0.4-1-1.2-1s-1.2,0.4-1.2,0.9c0,0.5,0.3,0.8,1,0.9l1.5,0.2c1.6,0.2,2.5,1,2.5,2.5
							c0,1.9-1.6,2.9-3.7,2.9c-2.6,0-3.6-1.2-3.8-2.7h2.3c0,0.6,0.4,1.1,1.4,1.1c0.8,0,1.4-0.3,1.4-0.9c0-0.5-0.2-0.8-1-0.9
							l-1.4-0.2c-1.6-0.2-2.5-1-2.5-2.6c0-1.5,1.1-2.8,3.6-2.8c2.2,0,3.3,1.1,3.5,2.6H130.5z"/>
					</g>
					<g class="st1">
						<path class="st3" d="M41.9,113.5c2.7,0,4.2,1.7,4.2,5.4c0,3.6-1.6,5.4-4.2,5.4c-2.7,0-4.2-1.7-4.2-5.4
							C37.7,115.2,39.4,113.5,41.9,113.5z M43.7,118.8c0-2.7-0.8-3.7-1.8-3.7c-1.1,0-1.8,1-1.8,3.7c0,2.8,0.7,3.7,1.8,3.7
							C43,122.5,43.7,121.5,43.7,118.8z"/>
						<path class="st3" d="M54.4,121.7v2.3h-2.2v-2.3h-4.9v-1.6l4.5-6.5h2.6v6.4h1.3v1.7H54.4z M52.3,120v-4.5h0
							c0,0-0.2,0.5-0.6,1.1l-2.2,3.4H52.3z"/>
					</g>
				</g>
				<g transform="translate(50.000000, 33.000000)">
					<g transform="translate(0.000000, 21.000000)">
						<path class="st20" d="M35.5,32.8c-4.6,0-8.4-3.8-8.4-8.4c0-4.7,3.8-8.4,8.4-8.4c4.6,0,8.4,3.8,8.4,8.4
							C43.9,29,40.1,32.8,35.5,32.8 M35.5,10.5c-7.6,0-13.8,6.2-13.8,13.9c0,7.7,6.2,13.9,13.8,13.9c7.6,0,13.8-6.2,13.8-13.9
							C49.3,16.7,43.1,10.5,35.5,10.5"/>
						<path class="st20" d="M75.9,22.3c-4.6,0-8.4-3.8-8.4-8.4c0-4.7,3.8-8.4,8.4-8.4c4.6,0,8.4,3.8,8.4,8.4
							C84.3,18.5,80.6,22.3,75.9,22.3 M75.9,0c-7.6,0-13.8,6.2-13.8,13.9c0,7.7,6.2,13.9,13.8,13.9c7.6,0,13.8-6.2,13.8-13.9
							C89.7,6.2,83.5,0,75.9,0"/>
						<path class="st21" d="M79.8,15.4l14.9,7.7c0.5,0.3,0.7,0.9,0.5,1.5c-0.2,0.4-0.6,0.6-1,0.6c-0.2,0-0.3,0-0.5-0.1l-15-7.8
							c-0.1,0-0.1-0.1-0.2-0.1c-0.7,0.6-1.6,0.9-2.6,0.9c-0.7,0-1.4-0.2-2-0.5L57.7,35.3c0.1,0.4,0.2,0.8,0.2,1.3
							c0,2.3-1.9,4.2-4.2,4.2s-4.2-1.9-4.2-4.2c0-0.4,0.1-0.8,0.2-1.2l-11.5-7.8c-0.7,0.6-1.7,1-2.7,1c-0.6,0-1.2-0.1-1.8-0.4
							L22.2,47.3c0.8,0.8,1.3,1.8,1.3,3c0,2.3-1.9,4.2-4.2,4.2S15,52.7,15,50.3c0,0,0-0.1,0-0.1L0.6,42.8c-0.5-0.3-0.7-0.9-0.5-1.5
							c0.3-0.5,0.9-0.8,1.5-0.5l14.1,7.3c0.7-1.2,2.1-2,3.6-2c0.4,0,0.7,0,1,0.1L32,26.8c-0.5-0.7-0.8-1.5-0.8-2.4
							c0-2.3,1.9-4.2,4.2-4.2s4.2,1.9,4.2,4.2c0,0.5-0.1,1-0.3,1.4l11.4,7.7c0.8-0.7,1.8-1.1,2.9-1.1c1.1,0,2,0.4,2.8,1L72.3,16
							c-0.4-0.6-0.6-1.4-0.6-2.2c0-2.3,1.9-4.2,4.2-4.2c2.3,0,4.2,1.9,4.2,4.2C80.1,14.4,80,14.9,79.8,15.4z M74.5,15.3
							C74.5,15.3,74.5,15.3,74.5,15.3C74.5,15.3,74.5,15.3,74.5,15.3c0.4,0.4,0.9,0.6,1.4,0.6c1.1,0,2-0.9,2-2c0-1.1-0.9-2-2-2
							c-1.1,0-2,0.9-2,2C73.9,14.4,74.1,14.9,74.5,15.3z M34.1,25.8C34.1,25.8,34.1,25.9,34.1,25.8c0.4,0.4,0.9,0.6,1.4,0.6
							c1.1,0,2-0.9,2-2c0-1.1-0.9-2-2-2c-1.1,0-2,0.9-2,2C33.5,24.9,33.7,25.4,34.1,25.8z M20.2,48.6C20.2,48.6,20.2,48.6,20.2,48.6
							c-0.3-0.2-0.6-0.3-1-0.3c-1.1,0-2,0.9-2,2c0,1.1,0.9,2,2,2c1.1,0,2-0.9,2-2C21.2,49.6,20.8,48.9,20.2,48.6z M53.7,34.6
							c-1.1,0-2,0.9-2,2c0,1.1,0.9,2,2,2c1.1,0,2-0.9,2-2C55.7,35.5,54.8,34.6,53.7,34.6z"/>
					</g>
				</g>
			</g>
		</g>
	</g>
</g>
</svg>
