<svg id="Layer_1" data-name="Layer 1" xmlns="http://www.w3.org/2000/svg" viewBox="0 0 599.09 64.58"><defs><style>.cls-1{fill:#00a7d8;}.cls-2{fill:#00a8d8;}.cls-3{fill:#e52b2b;}.cls-4{fill:#e52c2b;}</style></defs><path class="cls-1" d="M392.76,9.14c.05-1,.1-1.86.15-2.78,8.91-.16,17.79-.05,26.7,0,13.27-.46,27.17,6.29,28.91,20.62,1.94,11.57-3.83,24-14.73,28.88-12.74,6-27.18,3.38-40.79,4-1.33.15-.83-1.21-.94-2.05-.23-1.52,2.93-.95,3.94-1.45,3.09-.46,3.42-3.55,3.43-6.13q0-17.34,0-34.69C399.53,10.37,397.53,9.5,392.76,9.14Zm17.88,22.94h0c0,6.22,0,12.45.1,18.67.08,3.07,1.48,4.67,4.15,5.17a16.82,16.82,0,0,0,17.87-8.6C441,32.87,435.22,7.42,415,9.83c-3.78.37-4.36,1-4.39,4.78C410.61,20.43,410.64,26.25,410.64,32.08Z"/><path class="cls-1" d="M145.59,9.16V6.36c8.75-.16,17.49,0,26.23-.05,13.64-.5,28,6.26,29.44,21.13C203.31,40,195.84,53.07,183.59,57c-12,4.32-25,2.26-37.45,2.72-.57,0-1.46.26-1.28-.82.13-.8-.77-2.12,1.07-2.19,5.9-.43,6.2-2.48,6.2-7.83q0-16.52,0-33C152.35,10.75,150.57,9.47,145.59,9.16Zm17.72,22.52c0,5.62,0,11.25,0,16.87-.05,2.83.48,6.9,3.74,7.29C187,59.56,193.56,33.48,186,19.14c-4-7.91-12.6-10.45-19.86-9.07-3.18.25-2.78,3.35-2.81,5.81Z"/><path class="cls-1" d="M513.63,57c-.15,1.08.61,3.17-1.14,2.76H493.37V57c3.2-.48,6.75-1.26,6.8-5.12.33-4,.72-8,.77-11.92.1-7.74,0-15.48,0-23.21.2-4.74-4.15-7.25-8.38-7.55V6.29c4.78,0,9.56,0,14.34,0a2.31,2.31,0,0,1,1.51.69c10.36,11.82,20.75,23.57,31,35.46.44-6.88,0-13.76.07-20.65-.5-7.45.78-12.5-8.67-12.68V6.36h20.13v2.7c-2.67.45-6.22.9-6.37,4.25-.38,4.08-.86,8.17-.9,12.26-.13,11.68,0,23.34-.06,35-1.56-.17-3.26.51-4.44-.57-3.73-4.42-7.42-8.86-11.14-13.28-7.65-9.09-15.19-18.08-22.87-27.17a248.89,248.89,0,0,0,.76,32.77C506.21,56.39,510.36,56.49,513.63,57Z"/><path class="cls-1" d="M86.43,9.17V6.37c4.81-.2,9.61,0,14.41,0a2.16,2.16,0,0,1,1.43.6c10.49,11.83,20.67,23.81,31.22,35.59.18-7.1-.05-14-.13-21.12-.8-8.2,1.11-11.21-8.58-12.38V6.39h20V9.13c-2.94.23-6.17,1-6.36,4.43-.38,3.76-.76,7.54-.79,11.31-.23,11.91.12,23.83-.22,35.73-1.59-.15-3.42.57-4.53-.8-3.43-4-6.83-8.11-10.25-12.17C114.8,38.4,107.17,29,99.18,19.87c-.45,8.12,0,16.36-.06,24.52.58,4.15-.83,11,4.7,12,1.1.55,4.08-.17,3.8,1.55-.05.55,0,1.1,0,1.74H87.4c-.34-2.2-.36-2.78,2-3.08,3-.55,4.33-1.75,4.66-4.73,1.45-11.3.77-22.69.86-34C95.28,12.43,91.45,9.64,86.43,9.17Z"/><path class="cls-1" d="M334.86,57c2.75-.6,6.14-.92,6.56-4.23a64.77,64.77,0,0,0,.84-7.59c.16-8.57.18-17.15.23-25.72.3-6-2.17-10-8.53-10.3V6.37c4.72-.19,9.47,0,14.2,0a2.57,2.57,0,0,1,1.7.76c10.25,11.73,20.63,23.37,30.76,35.18l.31-.11c0-9.48.42-19-.71-28.45-.35-4.06-4.88-4-8-4.69V6.39h20.13V9.14c-3.43.22-6.42,1-6.56,5.36-.34,4.21-.68,8.42-.72,12.64-.11,11.17,0,22.28,0,33.46-1.48-.21-3.4.56-4.46-.56-11.42-13.59-22.45-26.8-34-40.44-.37,8.88.09,17.72.1,26.61.42,3.64-.33,9.29,4.38,10.13,1,.52,4.23-.08,4,1.37a3.37,3.37,0,0,0,0,.84c.15.94-.21,1.23-1.18,1.22-6.31,0-12.62,0-19,0Z"/><path class="cls-1" d="M247.16,9.12V6.37c8.28-.2,16.57,0,24.85,0a24.2,24.2,0,0,1,9.84,1.79,13.28,13.28,0,0,1,8.26,10.11c3.28,14.85-12.52,24-25.46,19.44-.26,4.22,0,8.44-.09,12.66,0,4.78,1,5.87,5.75,6.45,2.36.29,2.48.48,1.87,2.92H246.76c-.08-.15-.14-.21-.15-.28-.1-2.44-.09-2.44,2.46-2.78s3.77-1.23,4.19-3.36c.72-12.62.06-25.36.27-38C253.57,10.36,251.54,9.75,247.16,9.12Zm17.38,13.62c0,3.5,0,7,0,10.52a1.47,1.47,0,0,0,.65,1.13A9.27,9.27,0,0,0,276.86,30c3.77-7.56,2-20.46-8.4-20.48-2.71-.1-3.9.87-3.91,3.52C264.53,16.28,264.54,19.51,264.54,22.74Z"/><path class="cls-2" d="M203,9.17V6.4h39c.27,4,.55,8.09.82,12.14a2,2,0,0,1-.42.18c-2.56.27-2.53.26-3.44-2.16a21.47,21.47,0,0,0-1.34-2.93c-2.91-5.25-9.81-3.16-14.76-3.66-1.43,0-2,.55-2,1.81.09,6.12-.25,12.31.11,18.39,3.16,0,6.37.14,9.53-.15,6.13-.25,2.94-7.39,7.63-6a.88.88,0,0,1,.42.7q0,7.61,0,15.2a1.31,1.31,0,0,1-1.24.78c-1.24.19-1.93-.12-2.17-1.56a4.66,4.66,0,0,0-4.5-4.57c-3.2,0-6.49-.42-9.65,0,0,5.87-.16,11.68.07,17.49.12,2.84,1,3.57,4,3.8,5.65.14,13.15,1.51,16.09-4.7.86-1.57,1.72-3.15,2.47-4.78.43-1.22,1.77-.75,2.64-.47.32.19.73.7.67,1q-1.26,6.15-2.68,12.25a1.6,1.6,0,0,1-1.72.71h-39c-2.4.24-1.59-1.13-1.73-2.88,5.31-.86,8-.53,7.85-6.9-.12-12.16.28-24.35-.16-36.5C209.35,9.66,206.31,9.45,203,9.17Z"/><path class="cls-1" d="M290.85,59.67V56.94c5.63-.68,7.93-.82,7.78-7.27q0-16.81,0-33.62c.12-5.3-1.33-6.67-6.67-6.9V6.38h39c.27,4.07.54,8.14.81,12.07-.2.17-.23.22-.26.22-2.69.44-2.68.44-3.6-2.1-.25-.71-.55-1.41-.87-2.1-2.46-6-9.76-4.11-14.95-4.51-1.79,0-2.33.43-2.34,2,0,6,0,12,0,18.1,3.07.36,6.32,0,9.44,0,2.82-.14,4-1.15,4.78-3.85.72-2.38.72-2.38,3.41-2V40.73c-1-.13-2.48.46-3-.65-.57-2.42-1.31-5.37-4.3-5.41-3.43,0-7-.55-10.35-.06,0,5.26-.05,10.53,0,15.78.1,4.13.93,5.25,4.78,5.56,10.69.4,13.46.81,18-9.64.75-1.54,1.8-.37,2.69-.35s.58.81.48,1.3c-.78,3.82-1.6,7.63-2.39,11.46-.15.71-.42,1.07-1.25,1.07C318.37,59.67,304.59,59.94,290.85,59.67Z"/><path class="cls-1" d="M449.4,59.69V56.91c4.46-.47,8-.63,7.78-6.07.05-2.67,0-5.34,0-8q0-13.57,0-27.16c.11-5.05-1.5-6.23-6.65-6.51V6.36c12.59-.17,25.16,0,37.75-.09,1.05,0,1.33.27,1.38,1.32.11,3.71.62,7.33.65,11.05l-2.82.39c-3.7-11.22-7.12-8.62-17.21-9-1.42,0-1.94.57-1.95,1.88.08,6.08-.21,12.23.09,18.27,2.78,0,5.62.1,8.42-.05,4.7-.14,5.11-1.76,6-5,.33-1.71,1.91-.87,3.17-1.07V40.6c-2.31.35-2.9.39-3.43-2-.83-3-2-4-5.1-4s-6,0-9.05,0c-.19,5.14,0,10.32,0,15.47.05,4.79,1.26,6,6.05,6.09,9.4.55,13-.49,16.68-9.63a1.15,1.15,0,0,1,1.54-.81c1.93.39,2,.38,1.59,2.32-.74,3.63-1.55,7.24-2.32,10.87-.13.62-.35.94-1.09.94C477,59.69,463.19,59.9,449.4,59.69Z"/><path class="cls-3" d="M0,64.37c9.28-9,46.92-46.1,11.5-41.74l-.16-.36c9.1-5.51,18-7.78,26.49.07a1.61,1.61,0,0,0,2.51.05c2.92-2.36,3.61-4.61,2.5-8.56,5.62-2.58,10.58-5.92,12.92-12.1C57,33.63,27,54.56.15,64.58Z"/><path class="cls-2" d="M588.46,56.93v2.71H561.57v-2.7c3-.53,7.25-.26,7.48-4.22.63-13.77.05-27.59.27-41.38,0-1.19-.35-1.51-1.48-1.43-2.19.17-4.39.19-6.57.35-4.88.22-6.21,5.11-7.31,9-.34,1.84-2,1-3.37,1.18.22-5.07.57-10,.94-15,0-.41.25-1.15.41-1.16.63,0,1.55-.06,1.87.32a5.22,5.22,0,0,0,4.38,1.72q16.72,0,33.46,0a6.44,6.44,0,0,0,4.15-1.56,4.22,4.22,0,0,1,2.09-.49c.1,0,.38.53.4.83.26,4.17.48,8.35.72,12.53,0,.63.2,2.25,0,2.48a6.27,6.27,0,0,1-2.45.25c-.22,0-.47-.54-.6-.88-3.22-10.1-4.41-9.27-14.33-9.53-.94-.06-1.14.32-1.13,1.17,0,4.59,0,9.18,0,13.76,0,8.9,0,17.79,0,26.69C580.31,56.43,584.65,56.43,588.46,56.93Z"/><path class="cls-1" d="M61.15,59.66V56.93c6-.62,6.81-1.82,6.74-7.75q0-16.76,0-33.51C68,10.41,66,9.54,61.14,9.15V6.38H85.79V9.13c-6.3.6-6.86,2.17-6.71,8.2.26,12.1-.54,24.29.39,36.35.37,2.46,3.2,2.84,5.24,3.07,1.82-.07,1,1.71,1.16,2.91Z"/><path class="cls-4" d="M38.7,0c8.52.1,8.33,12.76-.12,12.77C30.17,12.58,30.12,0,38.7,0Z"/></svg>