<svg xmlns="http://www.w3.org/2000/svg" id="Layer_1" x="0" y="0" version="1.1" viewBox="0 0 156.6 40.9" xml:space="preserve">
  <path d="M42.5 28.3c0-7.3 5.2-12.6 12.5-12.6S67.5 21 67.5 28.3 62.3 40.9 55 40.9s-12.5-5.4-12.5-12.6zm20.6 0c0-5-3.2-8.8-8.1-8.8-4.9 0-8.1 3.8-8.1 8.8 0 5 3.1 8.8 8.1 8.8 4.9 0 8.1-3.8 8.1-8.8zM69.3 28.3c0-7.5 5.6-12.6 12.8-12.6 4-.1 7.8 2 9.8 5.5L88.2 23a7 7 0 00-6.1-3.5c-4.8 0-8.4 3.7-8.4 8.8 0 5.1 3.6 8.8 8.4 8.8 2.5 0 4.9-1.4 6.1-3.5l3.7 1.8a11 11 0 01-9.8 5.5c-7.2 0-12.8-5.1-12.8-12.6zM92 28.3c0-7.5 5.6-12.6 12.8-12.6 4-.1 7.8 2 9.8 5.5l-3.6 1.9a7 7 0 00-6.1-3.5c-4.8 0-8.4 3.7-8.4 8.8 0 5.1 3.6 8.8 8.4 8.8 2.5 0 4.9-1.4 6.1-3.5l3.7 1.8a11 11 0 01-9.8 5.5C97.6 40.9 92 35.8 92 28.3zM130.7 40.4l-5.4-9.1H121v9.1h-4.3V16h10.7c4.8 0 8 3.1 8 7.6a7 7 0 01-5.8 7.2l6 9.6h-4.9zm.4-16.8c0-2.3-1.8-3.8-4.2-3.8H121v7.8h5.9c2.1.2 4-1.4 4.2-3.5v-.5zM137.9 40.4V16h10.8c5.1 0 7.9 3.5 7.9 7.6s-2.9 7.6-7.9 7.6h-6.5v9.1l-4.3.1zm14.3-16.7c0-2.1-1.6-3.9-3.7-3.9H142.2v7.7h5.9c2.1.2 3.9-1.4 4.1-3.5v-.3zM7.2 18.9c1.3 3.2 2.5 6.5 3.4 9.8a57 57 0 007.7-3.2 69.6 69.6 0 00-4.9-8.9c-2 1-4.1 1.7-6.2 2.3zM0 33.3v7.2c4-.3 7.9-1 11.6-2.4l-1.8-7.5c-3.2 1-6.5 2-9.8 2.7zM.5 8.6l-.5.1v10.5c1.6-.3 3.5-.6 5.4-1.1-1.4-3.3-3-6.5-4.9-9.5zM18.6 12.4c-2.6-3-5.4-5.7-8.5-8.2-.8.8-1.8 1.4-2.9 1.9 2.5 2.8 4.8 5.8 6.9 8.9a17 17 0 004.5-2.6zM5.9 19.3L0 20.6v11.1c2.9-.6 6.1-1.4 9.4-2.5-1-3.4-2.1-6.7-3.5-9.9zM14.8 16c1.8 2.9 3.5 5.8 4.8 8.9 1.9-1 3.8-2.2 5.6-3.5a53.3 53.3 0 00-5.9-8.2c-1.4 1.1-3 2-4.5 2.8zM35.5 24.4c.8-.9 1.4-1.9 2-2.9a33.6 33.6 0 00-4.3-7.9c-.5 1.1-1.1 2.2-1.8 3.2 1.5 2.4 2.9 4.9 4.1 7.6zM23 9.3c-.7 1.1-1.6 2-2.6 2.9 2.2 2.6 4.1 5.4 5.9 8.3 1.3-1.1 2.4-2.2 3.4-3.5-2-2.8-4.3-5.4-6.7-7.7zM30.6 15.8a14 14 0 001.7-3.2 36.1 36.1 0 00-7.5-7.1c-.2.9-.6 1.7-1 2.5a56 56 0 016.8 7.8zM12.8 15.7a85.6 85.6 0 00-7-8.9L1.9 8.2a86 86 0 014.8 9.6c2.1-.6 4.1-1.3 6.1-2.1zM20.1 26.2c1 2.4 1.9 4.9 2.5 7.5 2.2-1.1 4.4-2.4 6.5-3.7-.9-2.6-2-5.1-3.4-7.4a44.8 44.8 0 01-5.6 3.6zM11 30.2l1.8 7.5c3-1 5.9-2.2 8.7-3.5a50 50 0 00-2.6-7.4 69.6 69.6 0 01-7.9 3.4zM19.8 11.5c1-.8 1.8-1.8 2.5-2.8-3-2.7-6.2-5.1-9.7-7.2l-1.3 1.7c3.1 2.5 5.9 5.3 8.5 8.3zM23.9 4.9l-.2.8-.2.7-.1.2-.3.7c-3-2.7-6.3-5.2-9.8-7.2V0c3.8 1.1 7.3 2.8 10.6 4.9zM26.9 21.6c1.3 2.4 2.5 5 3.4 7.6 1.5-1.1 2.9-2.3 4.2-3.6a46.6 46.6 0 00-4.1-7.6 39.8 39.8 0 01-3.5 3.6z" fill="#951B1E" />
</svg>
