<svg xmlns="http://www.w3.org/2000/svg" width="139.8454" height="98.1779" viewBox="0 0 139.8454 98.1779"><title>one-on-one</title><g id="Layer_2" data-name="Layer 2"><g id="Register"><path d="M31.2908.0657C24.4734.43,17.5849,2.4221,12.2658,6.7037c-4.6669,3.7585-8.0326,9.6674-7.2116,15.6044.9693,7.0086,7.222,12.1068,9.5414,18.7923,1.4924,4.2979,1.26,9.04.2831,13.4865A18.825,18.825,0,0,1,11.427,62.59C8.082,66.6744,2.0457,68.6456.4021,73.6623-1.3852,79.1176,3.1187,84.4678,7.35,88.3478c3.3776,3.096,6.9152,6.1771,11.1716,7.8741a30.8836,30.8836,0,0,0,9.8378,1.8658,65.6108,65.6108,0,0,0,27.1213-4.3334c4.1364-1.6051,8.1379-3.64,12.4669-4.6077,9.2257-2.063,18.7182.9115,28.0684,2.3046a83.9482,83.9482,0,0,0,24.1824.0711c5.0478-.72,10.2631-2.02,14.0645-5.4168a17.8761,17.8761,0,0,0,5.5666-13.9594,24.93,24.93,0,0,0-5.6081-14.2127c-4.15-5.245-9.8733-8.9767-14.853-13.4466A64.2224,64.2224,0,0,1,106.59,28.6913c-1.9563-3.4087-3.6206-7.0264-6.1549-10.0275-3.9526-4.6773-9.6851-7.4591-15.4132-9.6081-13.2139-4.95-26.92-5.9578-40.6968-8.1452A62.249,62.249,0,0,0,31.2908.0657Z" fill="#f4f7f8"/><path d="M95.3454,42.0465h-9.8v-9.5a.789.789,0,0,0-.8-.8h-53.4a.7886.7886,0,0,0-.8.8v29.6a.7886.7886,0,0,0,.8.8h6.8v8.5a.7523.7523,0,0,0,.5.7h.3a.8655.8655,0,0,0,.6-.3l8-9h4.1v6.9a.789.789,0,0,0,.8.8h28.3l7.1,8.2a.7128.7128,0,0,0,.6.3h.3a.7516.7516,0,0,0,.5-.7v-7.8h6.2a.7886.7886,0,0,0,.8-.8v-27A.9606.9606,0,0,0,95.3454,42.0465Zm-48.1,19.3a.8655.8655,0,0,0-.6.3l-6.9,7.8v-7.3a.7131.7131,0,0,0-.8-.7h-6.8v-28.2h51.9v28.1Zm47.5,7.6h-6.3a.849.849,0,0,0-.8.7v6.5l-6-7a.6039.6039,0,0,0-.6-.3h-27.9v-6h31.7a.7886.7886,0,0,0,.8-.8v-18.5h9.1Z" fill="#373a3c"/><path d="M94.7453,43.5465v25.4h-6.3a.849.849,0,0,0-.8.7v6.5l-6-7a.6039.6039,0,0,0-.6-.3h-27.9v-6h31.7a.7886.7886,0,0,0,.8-.8v-18.5Z" fill="#25cb55"/><rect x="37.9454" y="39.3465" width="40.4" height="1.5" fill="#3c31d5"/><rect x="37.9454" y="46.3465" width="35.4" height="1.5" fill="#3c31d5"/><rect x="37.9454" y="53.3465" width="27.6" height="1.5" fill="#3c31d5"/></g></g></svg>