<svg xmlns="http://www.w3.org/2000/svg" width="139.8454" height="98.1779" viewBox="0 0 139.8454 98.1779"><title>one-on-one</title><g id="Layer_2" data-name="Layer 2"><g id="Register"><path d="M95.3454,42.0465h-9.8v-9.5a.789.789,0,0,0-.8-.8h-53.4a.7886.7886,0,0,0-.8.8v29.6a.7886.7886,0,0,0,.8.8h6.8v8.5a.7523.7523,0,0,0,.5.7h.3a.8655.8655,0,0,0,.6-.3l8-9h4.1v6.9a.789.789,0,0,0,.8.8h28.3l7.1,8.2a.7128.7128,0,0,0,.6.3h.3a.7516.7516,0,0,0,.5-.7v-7.8h6.2a.7886.7886,0,0,0,.8-.8v-27A.9606.9606,0,0,0,95.3454,42.0465Zm-48.1,19.3a.8655.8655,0,0,0-.6.3l-6.9,7.8v-7.3a.7131.7131,0,0,0-.8-.7h-6.8v-28.2h51.9v28.1Zm47.5,7.6h-6.3a.849.849,0,0,0-.8.7v6.5l-6-7a.6039.6039,0,0,0-.6-.3h-27.9v-6h31.7a.7886.7886,0,0,0,.8-.8v-18.5h9.1Z" fill="#373a3c"/><path d="M94.7453,43.5465v25.4h-6.3a.849.849,0,0,0-.8.7v6.5l-6-7a.6039.6039,0,0,0-.6-.3h-27.9v-6h31.7a.7886.7886,0,0,0,.8-.8v-18.5Z" fill="#25cb55"/><rect x="37.9454" y="39.3465" width="40.4" height="1.5" fill="#3c31d5"/><rect x="37.9454" y="46.3465" width="35.4" height="1.5" fill="#3c31d5"/><rect x="37.9454" y="53.3465" width="27.6" height="1.5" fill="#3c31d5"/></g></g></svg>