<?xml version="1.0" encoding="UTF-8"?>
<svg width="234px" height="234px" viewBox="0 0 234 234" version="1.1" xmlns="http://www.w3.org/2000/svg" xmlns:xlink="http://www.w3.org/1999/xlink">
    <!-- Generator: Sketch 52.3 (67297) - http://www.bohemiancoding.com/sketch -->
    <title>Site / Illustrations / One on One</title>
    <desc>Created with Sketch.</desc>
    <defs>
        <linearGradient x1="49.9990814%" y1="100%" x2="49.9990814%" y2="0%" id="linearGradient-1">
            <stop stop-color="#808080" stop-opacity="0.25" offset="1%"></stop>
            <stop stop-color="#808080" stop-opacity="0.12" offset="54%"></stop>
            <stop stop-color="#808080" stop-opacity="0.1" offset="100%"></stop>
        </linearGradient>
        <linearGradient x1="49.9963147%" y1="100%" x2="49.9963147%" y2="0%" id="linearGradient-2">
            <stop stop-color="#808080" stop-opacity="0.25" offset="1%"></stop>
            <stop stop-color="#808080" stop-opacity="0.12" offset="54%"></stop>
            <stop stop-color="#808080" stop-opacity="0.1" offset="100%"></stop>
        </linearGradient>
    </defs>
    <g id="Site-/-Illustrations-/-One-on-One" stroke="none" stroke-width="1" fill="none" fill-rule="evenodd">
        <g id="undraw_chat_1wo5" transform="translate(0.000000, 32.000000)">
            <path d="M224.319137,43 L108.584775,43 C97.2168097,43 88.0001205,52.3176372 88.0001205,63.8109118 L88.0001205,135.843311 C87.9872844,138.426816 89.0000976,140.909572 90.8156723,142.745203 C92.6312469,144.580833 95.1008006,145.618913 97.680863,145.630994 L171.178326,145.630994 C173.624665,154.107922 179.761971,165.7919 195.223262,171 L190.859015,145.630994 L224.319137,145.630994 C226.899199,145.618913 229.368753,144.580833 231.184328,142.745203 C232.999902,140.909572 234.012716,138.426816 233.999879,135.843311 L233.999879,52.7876823 C234.012716,50.2041774 232.999902,47.7214217 231.184328,45.8857911 C229.368753,44.0501604 226.899199,43.0120806 224.319137,43 Z" id="Path" fill="url(#linearGradient-1)"></path>
            <path d="M221.604835,45 L109.024193,45 C103.713447,45 98.620215,47.1071529 94.8649504,50.8579091 C91.1096857,54.6086654 89,59.6957825 89,65.0001528 L89,134.223396 C89,139.413385 93.2123746,143.620702 98.4086019,143.620702 L169.905912,143.620702 C172.284944,151.766825 178.263439,162.995263 193.293008,168 L189.037632,143.628757 L221.591395,143.628757 C226.787622,143.628757 230.999996,139.42144 230.999996,134.231451 L230.999996,54.4053612 C231.004454,49.217466 226.798963,45.0074094 221.604835,45 Z" id="Path" fill="#FAFAFA"></path>
            <rect id="Rectangle" fill="#E0E0E0" x="135" y="63" width="58" height="7"></rect>
            <rect id="Rectangle" fill="#E0E0E0" x="171" y="77" width="22" height="7"></rect>
            <rect id="Rectangle" fill="#E0E0E0" x="149" y="90" width="43" height="7"></rect>
            <rect id="Rectangle" fill="#E0E0E0" x="139" y="104" width="53" height="7"></rect>
            <rect id="Rectangle" fill="#E0E0E0" x="164" y="117" width="28" height="7"></rect>
            <path d="M9.66734897,0 L136.319192,0 C141.66684,0 146,4.38105644 146,9.78677985 L146,92.8439719 C146,98.2496953 141.66684,102.630752 136.319192,102.630752 L62.8200578,102.630752 C60.3728747,111.107787 54.2265869,122.801362 38.7718297,128 L43.1373669,102.630752 L9.6808395,102.630752 C4.33319133,102.630752 3.14150132e-05,98.2496953 3.14150132e-05,92.8439719 L3.14150132e-05,9.78140102 C-0.0134591202,4.38105644 4.3197008,0 9.66734897,0 Z" id="Path" fill="url(#linearGradient-2)"></path>
            <path d="M11.4087835,3 L134.59122,3 C139.787546,3 144,7.20731735 144,12.3973063 L144,92.2233961 C144,97.4133851 139.787546,101.620702 134.59122,101.620702 L63.1086857,101.620702 C60.7296085,109.766825 54.7510008,120.995263 39.7211467,126 L43.9658506,101.620702 L11.4087835,101.620702 C6.21245777,101.620702 2.00000346,97.4133851 2.00000346,92.2233961 L2.00000346,12.4053612 C1.99786338,9.91164526 2.98819787,7.51933379 4.75291842,5.7552545 C6.51763896,3.99117521 8.91202196,2.99999908 11.4087835,3 Z" id="Path" fill="#FFFFFF"></path>
            <rect id="Rectangle" fill="#3C31D5" x="44" y="18" width="58" height="7"></rect>
            <rect id="Rectangle" fill="#3C31D5" x="44" y="32" width="22" height="7"></rect>
            <rect id="Rectangle" fill="#3C31D5" x="44" y="45" width="43" height="7"></rect>
            <rect id="Rectangle" fill="#3C31D5" x="45" y="58" width="53" height="7"></rect>
            <rect id="Rectangle" fill="#3C31D5" x="45" y="72" width="28" height="7"></rect>
        </g>
    </g>
</svg>