<svg xmlns="http://www.w3.org/2000/svg" width="113.0888" height="113.0374" viewBox="0 0 113.0888 113.0374"><title>pilot</title><g id="Layer_2" data-name="Layer 2"><g id="Register"><path d="M36.4542,0C52.9033,0,65.8733,3.3885,73.97,24.8389c10.2507,27.1663,35.0923,19.0244,38.4861,35.4122,4.0709,19.7122-11.0931,52.7863-57.2465,52.7863S.0237,75.54.0237,61.3175-2.2,0,36.4542,0Z" fill="#f4f7f8"/><path d="M83.5888,83.7374a.9447.9447,0,0,1-1,1h-14.1a1,1,0,0,1,0-2h14.1A1.0021,1.0021,0,0,1,83.5888,83.7374Z" fill="#373a3c"/><path d="M64.4887,84.4374a.99.99,0,1,1,0-1.4A.9666.9666,0,0,1,64.4887,84.4374Z" fill="#373a3c"/><path d="M60.3888,84.4374a.99.99,0,1,1,0-1.4A.9668.9668,0,0,1,60.3888,84.4374Z" fill="#373a3c"/><path d="M83.5888,73.0374a.9447.9447,0,0,1-1,1h-14.1a1,1,0,0,1,0-2h14.1A.9447.9447,0,0,1,83.5888,73.0374Z" fill="#3c31d5"/><path d="M64.4887,73.7374a.99.99,0,1,1,0-1.4A.9666.9666,0,0,1,64.4887,73.7374Z" fill="#30a95b"/><path d="M60.3888,73.7374a.99.99,0,1,1,0-1.4A.9668.9668,0,0,1,60.3888,73.7374Z" fill="#30a95b"/><path d="M88.0888,58.8374a2.8617,2.8617,0,0,0-2.8-2.8h-11.1a24.1781,24.1781,0,0,0,.5-4.7,25.3,25.3,0,1,0-25.3,25.3,26.076,26.076,0,0,0,4.8-.5v.4a2.8743,2.8743,0,0,0,.7,1.8,2.8743,2.8743,0,0,0-.7,1.8v7.1a2.8614,2.8614,0,0,0,2.8,2.8h28.3a2.8617,2.8617,0,0,0,2.8-2.8v-7.1a2.8756,2.8756,0,0,0-.7-1.8,2.8756,2.8756,0,0,0,.7-1.8v-7.1a2.8756,2.8756,0,0,0-.7-1.8,2.8756,2.8756,0,0,0,.7-1.8Zm-44.5-30.1a22.6172,22.6172,0,0,0-5.1,9.4h-8.3A23.6718,23.6718,0,0,1,43.5888,28.7374Zm-14.7,11.5h9a50.8436,50.8436,0,0,0-1.2,10.1h-10.6A24.1114,24.1114,0,0,1,28.8888,40.2374Zm-2.8,12.1h10.6a51.7707,51.7707,0,0,0,1.2,10.1h-9A24.5339,24.5339,0,0,1,26.0888,52.3374Zm4.1,12.1h8.3a22.6172,22.6172,0,0,0,5.1,9.4A22.779,22.779,0,0,1,30.1889,64.4374Zm18.2,10.1c-3.2-.7-6-4.5-7.8-10h7.8Zm0-12.1h-8.4a40.4577,40.4577,0,0,1-1.3-10.1h9.7Zm0-12.2h-9.7a51.4991,51.4991,0,0,1,1.3-10.1h8.4Zm0-12.1h-7.8c1.8-5.5,4.6-9.3,7.8-10Zm24.3,12.2h-10.6a51.7858,51.7858,0,0,0-1.2-10.1h9A24.1188,24.1188,0,0,1,72.6889,50.3374Zm0,2a22.0266,22.0266,0,0,1-.5,3.7h-10.3c.1-1.2.2-2.5.2-3.7Zm-4.1-14.2h-8.3a22.617,22.617,0,0,0-5.1-9.4A24.0082,24.0082,0,0,1,68.5888,38.1374Zm-18.2-10c3.2.7,6,4.5,7.8,10h-7.8Zm0,12h8.4a52.5786,52.5786,0,0,1,1.3,10.2h-9.7Zm3.8,29.3v4.6a16.5186,16.5186,0,0,1-3.8.5v-10.1h3.8v1.4a2.8743,2.8743,0,0,0,.7,1.8A2.8743,2.8743,0,0,0,54.1889,69.4374Zm0-10.6v3.6h-3.8v-10.1h9.7c0,1.2-.1,2.5-.2,3.7h-2.9A2.8614,2.8614,0,0,0,54.1889,58.8374Zm31.9,28.4a.86.86,0,0,1-.8.8h-28.3a.86.86,0,0,1-.8-.8v-7.1a.86.86,0,0,1,.8-.8h28.3a.86.86,0,0,1,.8.8Zm0-10.6a.86.86,0,0,1-.8.8h-28.3a.86.86,0,0,1-.8-.8v-7.1a.86.86,0,0,1,.8-.8h28.3a.7887.7887,0,0,1,.8.8Zm0-10.7a.86.86,0,0,1-.8.8h-28.3a.86.86,0,0,1-.8-.8v-7.1a.86.86,0,0,1,.8-.8h28.3a.86.86,0,0,1,.8.8Z" fill="#373a3c"/><path d="M85.2887,58.0374h-28.3a.86.86,0,0,0-.8.8v7.1a.86.86,0,0,0,.8.8h28.3a.86.86,0,0,0,.8-.8v-7.1A.86.86,0,0,0,85.2887,58.0374Zm-24.9,5.1a1.2015,1.2015,0,0,1-1.4,0,.99.99,0,1,1,1.4,0Zm4.1-.1a.99.99,0,1,1,0-1.4A.9666.9666,0,0,1,64.4887,63.0374Zm18.1.3h-14.1a1,1,0,0,1,0-2h14.1a1,1,0,0,1,0,2Z" fill="#dceeff"/><path d="M85.2887,79.3374h-28.3a.86.86,0,0,0-.8.8v7.1a.86.86,0,0,0,.8.8h28.3a.86.86,0,0,0,.8-.8v-7.1A.86.86,0,0,0,85.2887,79.3374Zm-24.9,5.1a.99.99,0,1,1,0-1.4A.9668.9668,0,0,1,60.3888,84.4374Zm4.1,0a.99.99,0,1,1,0-1.4A.9666.9666,0,0,1,64.4887,84.4374Zm18.1.3h-14.1a1,1,0,0,1,0-2h14.1a1.0021,1.0021,0,0,1,1,1A.9447.9447,0,0,1,82.5888,84.7374Z" fill="#dceeff"/><path d="M83.5888,62.3374a.9447.9447,0,0,1-1,1h-14.1a1,1,0,0,1,0-2h14.1A.9447.9447,0,0,1,83.5888,62.3374Z" fill="#373a3c"/><path d="M64.4887,63.0374a.99.99,0,1,1,0-1.4A.9666.9666,0,0,1,64.4887,63.0374Z" fill="#373a3c"/><path d="M60.3888,63.1374a1.2015,1.2015,0,0,1-1.4,0,.99.99,0,1,1,1.4,0Z" fill="#373a3c"/></g></g></svg>