<?xml version="1.0" encoding="UTF-8"?>
<svg width="234px" height="234px" viewBox="0 0 234 234" version="1.1" xmlns="http://www.w3.org/2000/svg" xmlns:xlink="http://www.w3.org/1999/xlink">
    <!-- Generator: Sketch 52.3 (67297) - http://www.bohemiancoding.com/sketch -->
    <title>Site / Illustrations / Pilot</title>
    <desc>Created with Sketch.</desc>
    <defs>
        <linearGradient x1="50.0011621%" y1="100.00118%" x2="50.0011621%" y2="-0.0158321861%" id="linearGradient-1">
            <stop stop-color="#808080" stop-opacity="0.25" offset="0%"></stop>
            <stop stop-color="#808080" stop-opacity="0.12" offset="54%"></stop>
            <stop stop-color="#808080" stop-opacity="0.1" offset="100%"></stop>
        </linearGradient>
    </defs>
    <g id="Site-/-Illustrations-/-Pilot" stroke="none" stroke-width="1" fill="none" fill-rule="evenodd">
        <g id="undraw_server_status_5pbv" transform="translate(-1.000000, 32.000000)">
            <path d="M76.3967776,108.459281 C84.1325479,105.42362 96.2757796,104.804549 107.32878,105.047755 C142.047786,105.806118 173.387517,113.184122 200.494844,121.530531 C210.309146,124.552926 219.970549,127.809684 226.341314,131.970728 C239.308867,140.440951 235.462033,152.174565 217.431107,159.152384 C211.295229,161.526965 203.858608,163.353225 196.222554,164.958389 C182.643407,167.828227 168.00062,170.129846 152.591124,170.793137 C141.604602,171.259651 130.480693,170.879365 119.558432,170.227129 C89.0385908,168.398657 59.0838087,164.381326 33.9752398,157.476469 C22.9621264,154.454074 12.5827656,150.695427 8.04899695,145.802552 C3.51522833,140.909677 6.41364932,134.714541 17.6594341,131.818171 C22.3128623,130.622037 27.8703851,130.080349 33.3148961,129.574037 C41.3276563,128.82673 49.4689397,128.088266 56.6994808,126.56933 C64.169341,124.999542 73.0130705,121.963881 71.535053,118.490448 C69.9418079,114.762754 68.6698708,111.49052 76.3967776,108.459281 Z" id="Path" fill="#6C63FF" opacity="0.1"></path>
            <path d="M111.843215,6.26866671 L111,54.6578009 C111,54.6578009 141.523937,54.6578009 167.493186,63 L168,14.1028894 C168,14.1028894 126.346069,4.26741474 111.843215,6.26866671 Z" id="Path" fill="#000000" opacity="0.1"></path>
            <path d="M110.843215,6.26866671 L110,54.6578009 C110,54.6578009 140.523937,54.6578009 166.493186,63 L167,14.1028894 C167,14.1028894 125.346069,4.26741474 110.843215,6.26866671 Z" id="Path" fill="#F5F5FB"></path>
            <path d="M99.1567851,6.26835319 L100,54.6577548 C100,54.6577548 69.4760629,54.6577548 43.5068142,63 L43,14.1157566 C43,14.1157566 84.6539313,4.26709016 99.1567851,6.26835319 Z" id="Path" fill="#000000" opacity="0.1"></path>
            <path d="M99.1567851,6.26835319 L100,54.6577548 C100,54.6577548 69.4760629,54.6577548 43.5068142,63 L43,14.1157566 C43,14.1157566 84.6539313,4.26709016 99.1567851,6.26835319 Z" id="Path" fill="#F5F5FB"></path>
            <path d="M176,22 L176,69.7228587 C176,69.7228587 185.740919,68.5597381 206.18386,94 L208,46.2771413 C208,46.2771413 186.721504,23.1653028 176,22 Z" id="Path" fill="#000000" opacity="0.1"></path>
            <path d="M175,21 L175,68.7228587 C175,68.7228587 184.740919,67.5597381 205.18386,93 L207,45.2771413 C207,45.2771413 185.721504,22.1653028 175,21 Z" id="Path" fill="#F5F5FB"></path>
            <path d="M35,23 L35,70.7235945 C35,70.7235945 25.2584224,69.5605092 4.81409823,95 L3,47.2785877 C3,47.2785877 24.2777703,24.1674496 35,23 Z" id="Path" fill="#000000" opacity="0.1"></path>
            <path d="M35,22 L35,69.7235945 C35,69.7235945 25.2584224,68.5605092 4.81409823,94 L3,46.2785877 C3,46.2785877 24.2777703,23.1674496 35,22 Z" id="Path" fill="#F5F5FB"></path>
            <path d="M148,104.351996 C148,105.92284 137.388411,115 113.233645,115 C89.0788785,115 76,106.239117 76,104.668273 C76,103.097429 89.5274766,106.98764 113.682243,106.98764 C137.837009,106.98764 148,102.779043 148,104.351996 Z" id="Path" fill="#F7F7FD"></path>
            <ellipse id="Oval" fill="#6C63FF" opacity="0.1" cx="42.5" cy="110" rx="7.5" ry="1"></ellipse>
            <ellipse id="Oval" fill="#6C63FF" opacity="0.1" cx="65.5" cy="119" rx="7.5" ry="1"></ellipse>
            <ellipse id="Oval" fill="#6C63FF" opacity="0.1" cx="32.5" cy="130" rx="7.5" ry="1"></ellipse>
            <ellipse id="Oval" fill="#6C63FF" opacity="0.1" cx="109" cy="127.5" rx="5" ry="1"></ellipse>
            <ellipse id="Oval" fill="#6C63FF" opacity="0.1" cx="182" cy="98.5" rx="5" ry="1"></ellipse>
            <ellipse id="Oval" fill="#6C63FF" opacity="0.1" cx="142" cy="141.5" rx="5" ry="1"></ellipse>
            <ellipse id="Oval" fill="#6C63FF" opacity="0.1" cx="98" cy="137.5" rx="5" ry="1"></ellipse>
            <ellipse id="Oval" fill="#6C63FF" opacity="0.1" cx="56" cy="136.5" rx="5" ry="1"></ellipse>
            <ellipse id="Oval" fill="#6C63FF" opacity="0.1" cx="46" cy="146.5" rx="5" ry="1"></ellipse>
            <g id="Group" opacity="0.1" transform="translate(78.000000, 37.000000)" fill="#000000">
                <ellipse id="Oval" cx="34.4554839" cy="15.0898551" rx="33.8589677" ry="14.9554783"></ellipse>
                <path d="M68.9020645,20.4362899 C67.4040968,28.2345507 52.6024839,34.3564058 34.5600968,34.3564058 C16.3596774,34.3564058 1.45567742,28.1266087 0.178064516,20.2336232 L0.0511935484,20.2336232 L0.0511935484,32.9421449 C6.003,39.0970435 19.1797742,43.3772754 34.4755161,43.3772754 C49.7712581,43.3772754 62.9480323,39.0970435 68.9020645,32.9421449 L68.9020645,20.4362899 Z" id="Path"></path>
                <path d="M68.9020645,35.9006377 C67.4040968,43.6966957 52.6024839,49.8207536 34.5600968,49.8207536 C16.3596774,49.8207536 1.45567742,43.5909565 0.178064516,35.6957681 L0.0511935484,35.6957681 L0.0511935484,48.4064928 C6.003,54.5613913 19.1797742,58.8394203 34.4755161,58.8394203 C49.7712581,58.8394203 62.9480323,54.5613913 68.9020645,48.4064928 L68.9020645,35.9006377 Z" id="Path"></path>
                <path d="M68.9020645,52.9092174 C67.4040968,60.7074783 52.6024839,66.8293333 34.5600968,66.8293333 C16.3596774,66.8293333 1.45567742,60.6017391 0.178064516,52.7065507 L0.0511897359,52.7065507 L0.0511935484,66.4129855 C0.0500669589,67.0034388 0.298665498,67.5674136 0.736741935,67.9682319 C6.969,73.6318841 19.7429032,75.8502029 34.4755161,75.8502029 C49.208129,75.8502029 61.9753548,73.6318841 68.2165161,67.9682319 C68.6545926,67.5674136 68.9031911,67.0034388 68.9020645,66.4129855 L68.9020645,52.9092174 Z" id="Path"></path>
            </g>
            <ellipse id="Oval" fill="#3C31D5" cx="112" cy="52" rx="34" ry="15"></ellipse>
            <path d="M147,57.2101656 C145.498788,65.2969732 130.665115,71.6453455 112.583649,71.6453455 C94.3438076,71.6453455 79.4075259,65.1850371 78.1271458,57 L78,57 L78,70.178755 C83.9646979,76.5613935 97.1700126,81 112.498885,81 C127.827757,81 141.033071,76.5613935 147,70.178755 L147,57.2101656 Z" id="Path" fill="#3C31D5"></path>
            <path d="M147,73.21245 C145.498788,81.2969732 130.665115,87.6476299 112.583649,87.6476299 C94.3438076,87.6476299 79.4075259,81.1873215 78.1271458,73 L78,73 L78,86.1810394 C83.9646979,92.5636779 97.1700126,97 112.498885,97 C127.827757,97 141.033071,92.5636779 147,86.1810394 L147,73.21245 Z" id="Path" fill="#3C31D5"></path>
            <path d="M146.999996,90.2014087 C145.498784,97.9512659 130.665113,104.035123 112.583649,104.035123 C94.3438096,104.035123 79.4075296,97.8461831 78.1271496,90 L78,90 L78.0000038,103.621359 C77.9988748,104.208148 78.2480118,104.768622 78.687037,105.166952 C84.9327933,110.79545 97.734363,113 112.498885,113 C127.263406,113 140.058284,110.79545 146.312963,105.166952 C146.751988,104.768622 147.001125,104.208148 146.999996,103.621359 L146.999996,90.2014087 Z" id="Path" fill="#3C31D5"></path>
            <ellipse id="Oval" fill="#6C63FF" opacity="0.1" cx="162.5" cy="126.5" rx="12.5" ry="2.5"></ellipse>
            <path d="M155.356361,97.4434821 C156.001371,97.816458 157.01368,98.0599894 158.288024,97.2569941 L158.276826,99.0363089 C158.366411,100.25616 159.90727,104.70335 159.90727,104.70335 L160.993486,108.360708 C161.773095,110.945423 162.174994,113.625297 162.187204,116.320455 C162.187204,117.211209 162.272309,118.132679 162.534345,118.825975 C163.114407,120.361759 162.310383,122.336338 161.958762,123.064738 C161.370652,123.259546 160.772615,123.424316 160.167066,123.558382 C160.113067,123.571142 160.059955,123.587264 160.008053,123.60665 L160.008053,123.59568 C160.008053,123.59568 158.377609,124.229739 157.651972,124.14198 C157.112223,124.078355 156.774041,124.738742 157.204048,125.22361 C156.853078,125.32856 156.486824,125.376003 156.120071,125.364025 C155.394434,125.276266 155.031616,126.496117 156.391065,126.844959 C157.750515,127.193801 165.452571,126.844959 165.452571,126.844959 C165.897474,126.626683 166.135178,126.141108 166.030393,125.6646 L166.99343,125.625108 C166.99343,125.625108 168.352879,125.015183 166.99343,123.358731 L166.919522,123.411386 L166.630611,122.573287 L166.630611,121.443389 C166.630611,121.443389 168.352879,113.325677 167.808651,112.375685 C167.264424,111.425693 166.975513,106.52435 166.975513,106.52435 L167.16588,101.214927 C167.656357,100.22325 167.907195,98.6655269 168.034853,97.44787 C168.220351,96.8676447 168.336836,96.2683771 168.381994,95.6619733 C168.404391,95.3745624 168.422307,95.0761816 168.433506,94.764637 C168.441022,94.0811123 168.328912,93.4013808 168.102042,92.7549546 C168.716831,91.8616177 169.403599,91.0179012 170.155774,90.2318818 C170.790787,89.6532123 171.096177,88.806531 170.973235,87.9655043 L170.525311,85.0014422 L169.436856,79.9552967 C169.573472,78.5533458 169.275603,77.7459625 168.944139,77.2896154 C169.022526,76.8354623 169.096433,76.3835032 169.152424,75.9271561 C169.392019,73.9492589 169.28446,71.9457855 168.834398,70.00342 C168.677624,69.3276753 168.462621,68.6321848 167.976623,68.1187943 C167.427916,67.5351966 166.536547,67.1819664 166.330502,66.4206566 C166.301435,66.2265929 166.259541,66.034582 166.205083,65.8458348 C166.005757,65.3478022 165.378663,65.1657022 164.827716,65.0998829 C163.846763,64.9836021 162.429083,64.8958431 161.486202,65.273207 C160.65873,65.6316209 159.977532,66.2510495 159.55117,67.032776 C159.3389,67.3539686 159.258865,67.7420677 159.327208,68.1187943 C159.360742,68.2495612 159.412756,68.3750992 159.481742,68.4917703 C158.828557,70.2265055 159.721112,72.1532374 161.483963,72.8139037 C161.506359,72.8819169 161.526516,72.9477362 161.542193,73.0113615 C161.583629,73.1677582 161.613568,73.3268636 161.631778,73.4874544 C161.613861,73.7946111 161.593704,74.1039618 161.580266,74.4133124 L161.546672,74.5383691 C160.766994,74.8765142 160.006643,75.2558997 159.268978,75.6748488 C159.810966,76.4602924 159.177154,79.7731966 159.177154,79.7731966 C157.817704,80.5564462 156.460494,82.5617406 157.909528,84.654794 C159.358563,86.7478474 158.543341,89.012031 158.543341,89.012031 L158.319379,92.4214702 L158.274586,93.1037969 L158.290264,93.1037969 L158.274586,93.3626861 L158.31266,93.3626861 L158.31266,93.6413211 C157.676608,93.8716886 156.744926,94.3324236 156.191739,95.1880744 C155.929633,95.6076202 155.610976,95.9906287 155.24438,96.3267481 C155.071026,96.4721087 154.981045,96.6912308 155.003353,96.913697 C155.025661,97.1361633 155.157447,97.3339447 155.356361,97.4434821 Z M166.296908,88.3867477 C166.24229,87.7967236 166.353834,87.203322 166.619413,86.6710582 L167.259944,86.6710582 C167.278825,86.809775 167.304988,86.9474467 167.338331,87.0835258 C167.52198,87.8623874 166.787384,88.2287814 166.296908,88.3867477 Z" id="Shape" fill="url(#linearGradient-1)" fill-rule="nonzero"></path>
            <path d="M165.677591,122.733572 L166,123.849462 L164.954237,125.058542 L161.494538,126 L159,125.72043 L159.161205,124.69773 C159.258062,124.24911 159.563499,123.900583 159.952761,123.794504 C160.986123,123.517324 162.932979,122.88172 163.344257,122 L165.677591,122.733572 Z" id="Path" fill="#DB8B8B"></path>
            <path d="M165.677591,122.733572 L166,123.849462 L164.954237,125.058542 L161.494538,126 L159,125.72043 L159.161205,124.69773 C159.258062,124.24911 159.563499,123.900583 159.952761,123.794504 C160.986123,123.517324 162.932979,122.88172 163.344257,122 L165.677591,122.733572 Z" id="Path" fill="#000000" opacity="0.1"></path>
            <path d="M159.836138,124.439483 L160.35074,123.864798 L159.836138,123.197721 C159.836138,123.197721 158.296731,123.720665 157.610596,123.648599 C156.92446,123.576532 156.583591,124.583616 157.867896,124.871882 C159.152202,125.160148 166.429198,124.871882 166.429198,124.871882 C166.429198,124.871882 167.713503,124.367416 166.429198,123 L165.316426,123.720665 C165.316426,123.720665 163.431753,124.583616 162.490515,124.439483 L159.836138,124.439483 Z" id="Path" fill="#C17174"></path>
            <path d="M158,126.72043 L160.494538,127 L163.954237,126.0681 L165,124.85902 L164.915264,124.565114 L164.795394,124.149343 L164.677591,123.74313 L162.340124,123 C162.221528,123.222663 162.059431,123.410076 161.866844,123.547192 C161.108355,124.146953 159.74845,124.57945 158.948627,124.794504 C158.914914,124.803919 158.881775,124.815893 158.849424,124.830346 C158.693819,124.887609 158.552166,124.986692 158.436079,125.119474 C158.296436,125.277889 158.197682,125.478111 158.150871,125.69773 L158,126.72043 Z" id="Path" fill="#DB8B8B"></path>
            <path d="M158,126.770363 L160.494538,127 L163.954237,126.234544 L165,125.241413 L164.915264,125 L163.954237,125.700687 C163.954237,125.700687 162.183053,126.617272 161.298494,126.464181 L158.80189,126.464181 L159.285503,125.853778 L158.851491,125.217861 C158.695886,125.264896 158.554233,125.346282 158.438146,125.455348 C158.298503,125.585469 158.199749,125.74993 158.152938,125.930324 L158,126.770363 Z" id="Path" fill="#000000" opacity="0.1"></path>
            <path d="M157.836138,126.438964 L158.35074,125.863748 L157.836138,125.196054 C157.836138,125.196054 156.296731,125.719482 155.610596,125.647349 C154.92446,125.575216 154.583591,126.583231 155.867896,126.871763 C157.152202,127.160296 164.429198,126.871763 164.429198,126.871763 C164.429198,126.871763 165.713503,126.366831 164.429198,125 L163.316426,125.719482 C163.316426,125.719482 161.431753,126.583231 160.490515,126.438964 L157.836138,126.438964 Z" id="Path" fill="#C17174"></path>
            <path d="M160,75.945281 C160,75.945281 163.99359,76.4247072 163.418803,74.5453566 C163.254601,74.0160356 163.211977,73.4488208 163.294872,72.8961305 C163.397679,72.2119449 163.638897,71.5632951 164,71 L160.25641,71.6520196 C160.481429,72.0729424 160.652617,72.527244 160.764957,73.0016043 C161.202991,74.9816344 160,75.945281 160,75.945281 Z" id="Path" fill="#DB8B8B"></path>
            <path d="M167,96 C167,96 166.913793,99.6647303 166.053935,101.4555 L165.881521,106.654864 C165.881521,106.654864 166.137931,111.427332 166.655172,112.364312 C167.172414,113.301292 165.536693,121.228406 165.536693,121.228406 L165.536693,122.592281 C165.536693,122.592281 162.782493,123.61464 162,122.421523 L162.773652,112.278933 L162.428824,98.2176653 L167,96 Z" id="Path" fill="#474463"></path>
            <path d="M167,96 C167,96 166.913793,99.6647303 166.053935,101.4555 L165.881521,106.654864 C165.881521,106.654864 166.137931,111.427332 166.655172,112.364312 C167.172414,113.301292 165.536693,121.228406 165.536693,121.228406 L165.536693,122.592281 C165.536693,122.592281 162.782493,123.61464 162,122.421523 L162.773652,112.278933 L162.428824,98.2176653 L167,96 Z" id="Path" fill="#000000" opacity="0.1"></path>
            <path d="M168.983503,84 L169.517374,85.416231 L169.973675,88.4237327 C170.09423,89.2750097 169.796185,90.1320672 169.172868,90.7265288 C168.107406,91.7881337 166.68603,94 166.68603,94 L165,88.9556717 C165,88.9556717 166.68603,88.6897022 166.419094,87.5394408 C166.152159,86.3891794 166.243419,84.2659695 166.243419,84.2659695 L168.983503,84 Z" id="Path" fill="#FF748E"></path>
            <path d="M168.987536,84 L169.517842,85.4159091 L169.973041,88.425 C170.095045,89.2751378 169.798351,90.131775 169.176444,90.725 C168.11128,91.7863636 166.695613,94 166.695613,94 L165,88.95 C165,88.95 166.684233,88.6840909 166.417942,87.5340909 C166.151651,86.3840909 166.240415,84.2590909 166.240415,84.2590909 L168.987536,84 Z" id="Path" fill="#000000" opacity="0.05"></path>
            <path d="M162,123.674825 C163.060071,125.951272 164.70742,124.659547 165,124.404678 L164.879152,123.912317 L162.483392,123 C162.363384,123.273776 162.197762,123.504987 162,123.674825 Z" id="Path" fill="#000000" opacity="0.1"></path>
            <path d="M158,99.624372 C158.089426,100.838277 159.605079,105.259563 159.605079,105.259563 L160.675896,108.89905 C161.441946,111.472392 161.837796,114.136312 161.85219,116.815046 C161.825298,117.658391 161.940708,118.500324 162.193842,119.307449 C162.909249,121.216286 161.480729,123.815602 161.480729,123.815602 C162.730398,125.985039 164.872032,124.510535 164.872032,124.510535 L164.872032,123.122897 C164.872032,123.122897 166.56883,115.578868 166.1217,114.104363 C165.674571,112.629859 165.498013,108.642905 165.498013,108.642905 L165.498013,101.444116 C166.927393,100.06007 167.796598,98.2227828 167.946905,96.2677581 C167.967541,95.9826575 167.985885,95.6841929 167.99735,95.3768188 C168.068432,93.421207 166.690357,91.1270382 166.162974,90.3096014 C166.034568,90.1113674 165.952021,90 165.952021,90 L158.071082,93.0381031 L158.052738,93.0381031 L158.052738,93.3387951 L158.052738,93.9936355 L158,99.624372 Z" id="Path" fill="#474463"></path>
            <path d="M161,71.5824463 C161.24043,71.9584547 161.423344,72.3642804 161.543379,72.7880244 C162.421026,73.1003554 163.396066,73.0663707 164.246575,72.6938051 C164.356424,72.0826251 164.614164,71.503189 165,71 L161,71.5824463 Z" id="Path" fill="#000000" opacity="0.1"></path>
            <circle id="Oval" fill="#DB8B8B" cx="162.5" cy="69.5" r="3.5"></circle>
            <path d="M158,93.9043585 L158.036767,93.9043585 C161.566369,94.6356096 166,90.933651 166,90.933651 C165.881147,90.7318064 165.778452,90.5207598 165.69289,90.3025116 C165.571776,90.1088171 165.493917,90 165.493917,90 L158.060557,92.9685312 L158.041092,93.2645138 L158,93.9043585 Z" id="Path" fill="#000000" opacity="0.1"></path>
            <path d="M158.794621,75.9777458 C158.794621,75.9777458 163.402684,73.1021202 164.882337,74.285818 L166.941168,76.9920337 C166.941168,76.9920337 168.25806,77.4155587 168.01286,80.1304621 L169,85.0346635 L166.040694,85.7948365 C166.040694,85.7948365 164.313727,87.4867643 165.713056,89.938865 C165.713056,89.938865 161.350193,93.6593686 157.892033,92.8970238 L158.139346,88.9245771 C158.139346,88.9245771 158.879173,86.7244194 157.564395,84.6958436 C156.249618,82.6672678 157.481957,80.721225 158.716411,79.9610521 C158.712183,79.9523644 159.287134,76.7379188 158.794621,75.9777458 Z" id="Path" fill="#FF748E"></path>
            <path d="M159.050918,94 C159.050918,94 157.119549,94.3223174 156.201087,95.609521 C155.935453,95.9963706 155.611427,96.3501119 155.237764,96.661185 C155.067634,96.7966681 154.980788,96.9946009 155.003585,97.1949054 C155.026382,97.39521 155.156133,97.5742657 155.353457,97.6777246 C156.083032,98.0620262 157.270659,98.2975658 158.77467,97.216976 C161.36006,95.367783 159.050918,94 159.050918,94 Z" id="Path" fill="#DB8B8B"></path>
            <path d="M161.793947,78.0649349 C161.793947,78.0649349 163.435708,77.8920993 163.847203,82.3769601 C164.258698,86.8618209 164.91498,87.8988342 164.91498,87.8988342 C164.91498,87.8988342 165.326476,90.2276823 164.338887,91.6081509 C163.351298,92.9886194 161.464751,95.922392 161.464751,95.922392 C161.464751,95.922392 159.411495,96.5251005 159,94.3713037 L161.54705,89.3679363 C161.54705,89.3679363 161.956435,87.6417967 160.970957,86.4341637 C159.985478,85.2265308 159.246897,77.2007572 161.793947,78.0649349 Z" id="Path" fill="#000000" opacity="0.1"></path>
            <path d="M160.786537,78.0646315 C160.786537,78.0646315 162.430151,77.891793 162.84211,82.3789456 C163.25407,86.8660981 163.911093,87.8986972 163.911093,87.8986972 C163.911093,87.8986972 164.333615,90.2275847 163.336462,91.6080766 C162.339308,92.9885684 160.467533,95.9223906 160.467533,95.9223906 C160.467533,95.9223906 158.41196,96.5251094 158,94.3712762 L160.549925,89.3678241 C160.549925,89.3678241 160.961884,87.6416553 159.973181,86.4340019 C158.984478,85.2263485 158.236613,77.2026551 160.786537,78.0646315 Z" id="Path" fill="#FF748E"></path>
            <path d="M160.013247,80 C160.013247,80 159.871361,82.5054489 160.516298,83.8796056 C161.161234,85.2537623 161.161234,87.0306175 160.516298,88" id="Path" fill="#000000" opacity="0.1"></path>
            <path d="M160,77 C160,77 160.624247,76.5295008 162.422722,76.4704992 C164.221196,76.4114977 165,76 165,76" id="Path" fill="#000000" opacity="0.1"></path>
            <path d="M163.880953,65.0960622 C164.378989,65.1594372 164.946371,65.3364503 165.124991,65.8215974 C165.174177,66.0062635 165.212771,66.1938053 165.240569,66.3832316 C165.425493,67.1262496 166.230335,67.4759052 166.726269,68.0397247 C167.163363,68.5423546 167.356694,69.2198122 167.49959,69.8819723 C167.90698,71.7782395 168.004307,73.7323253 167.787484,75.6622155 C167.627776,77.0717644 167.299955,78.4616451 167.209595,79.8777501 C167.119234,81.293855 167.285245,82.7864471 168.029146,83.9774612 C168.350663,84.4888325 168.773047,84.939014 169,85.5072042 C168.531384,85.9027521 167.884149,85.9595711 167.278941,85.9814245 C166.57847,86.0061918 165.874496,86.0061918 165.167019,85.9814245 C164.796686,85.9967919 164.428464,85.916452 164.095298,85.7475924 C163.859569,85.5914457 163.665795,85.3756466 163.532118,85.1203978 C163.128647,84.41016 163.027779,83.5556893 163.04459,82.7318134 C163.061402,81.9079375 163.187486,81.0884324 163.202196,80.2623711 C163.243955,79.8117278 163.147599,79.3588941 162.926911,78.9686457 C162.723826,78.7231747 162.493921,78.5031556 162.24185,78.3130415 C161.36556,77.5044631 161.065057,76.2107376 161.035638,74.9934992 C161.006218,73.7762609 161.199548,72.5590226 161.100781,71.3461549 C161.062956,70.8719346 160.89064,70.301559 160.443039,70.2097744 C160.301603,70.2038075 160.160957,70.1847932 160.022756,70.1529554 C159.663414,70.0087225 159.699138,69.4820538 159.602473,69.0952474 C159.486895,68.658178 159.129654,68.3238198 159.028786,67.8867504 C158.793428,66.8574519 160.054277,65.6271015 160.880133,65.2643339 C161.705989,64.9015663 162.996258,64.9824241 163.880953,65.0960622 Z" id="Path" fill="#000000" opacity="0.1"></path>
            <path d="M163.880953,65.0923736 C164.378989,65.1557433 164.946371,65.3327413 165.124991,65.8200324 C165.174391,66.0038898 165.212988,66.190702 165.240569,66.3794338 C165.425493,67.1223887 166.230335,67.4720146 166.726269,68.0357863 C167.163363,68.5383734 167.356694,69.2157736 167.49959,69.8778775 C167.90699,71.7762264 168.003609,73.7324243 167.785382,75.6641855 C167.627776,77.0736148 167.299955,78.4633776 167.209595,79.8815474 C167.119234,81.2997173 167.285245,82.7878124 168.029146,83.9787255 C168.350663,84.4922385 168.773047,84.9401966 169,85.5083386 C168.531384,85.9060381 167.884149,85.9606671 167.278941,85.9825187 C166.57847,86.0058271 165.874496,86.0058271 165.167019,85.9825187 C164.796855,85.9986551 164.428621,85.9190701 164.095298,85.7508916 C163.859482,85.5939283 163.665733,85.3774228 163.532118,85.121565 C163.128647,84.4113875 163.027779,83.5569893 163.04459,82.7331834 C163.061402,81.9093774 163.187486,81.0899418 163.202196,80.2661359 C163.202196,79.8159926 163.176979,79.3396274 162.926911,78.9725202 C162.724302,78.7265915 162.49434,78.5065363 162.24185,78.3169717 C161.36556,77.5084619 161.065057,76.2148462 161.035638,74.9977112 C161.006218,73.7805762 161.199548,72.5634412 161.100781,71.3506765 C161.062956,70.8764964 160.89064,70.3061692 160.443039,70.2143924 C160.301603,70.208426 160.160957,70.1894133 160.022756,70.1575782 C159.663414,70.0133575 159.699138,69.4867336 159.602473,69.09996 C159.486895,68.6629277 159.129654,68.3307831 159.028786,67.8915656 C158.793428,66.8623545 160.054277,65.6321085 160.880133,65.2693717 C161.705989,64.9066348 163.002562,64.9787452 163.880953,65.0923736 Z" id="Path" fill="#464353"></path>
            <path d="M36.0015796,129.735772 C33.2719211,129.756529 29.657212,129.345541 28.9302062,128.938704 C28.3770496,128.627349 28.155787,127.514774 28.0812802,127 L28,127 C28,127 28.1535292,128.793405 28.880535,129.200242 C29.6075408,129.607079 33.2222499,130.018068 35.9541662,129.999386 C36.7421321,129.999386 37.013066,129.735772 36.9995193,129.353844 C36.888888,129.592549 36.5886029,129.735772 36.0015796,129.735772 Z" id="Path" fill="#000000" opacity="0.2"></path>
            <path d="M180,95.8585064 C180,95.8585064 181.611502,95.8088678 182.098242,95.4678716 C182.584982,95.1268754 184.577983,94.7211331 184.698571,95.2671586 C184.81916,95.8131842 187.123499,97.9843371 185.301514,97.9994446 C183.47953,98.014552 181.072142,97.7188781 180.587595,97.4296788 C180.103048,97.1404795 180,95.8585064 180,95.8585064 Z" id="Path" fill="#A8A8A8"></path>
            <path d="M185.335114,97.8242421 C183.515079,97.8363365 181.105178,97.5621963 180.620566,97.2920875 C180.249981,97.0905138 180.103062,96.3426753 180.05482,96 L180,96 C180,96 180.103062,97.1953321 180.587674,97.4674566 C181.072286,97.7395811 183.482187,98.0117056 185.302222,97.9996112 C185.828497,97.9996112 186.0105,97.8242421 185.999536,97.5682435 C185.927173,97.725471 185.727627,97.8202106 185.335114,97.8242421 Z" id="Path" fill="#000000" opacity="0.2"></path>
            <circle id="Oval" fill="#6C63FF" opacity="0.1" cx="7" cy="5" r="5"></circle>
            <circle id="Oval" fill="#6C63FF" opacity="0.1" cx="213" cy="18" r="5"></circle>
            <circle id="Oval" fill="#6C63FF" opacity="0.1" cx="3.5" cy="23.5" r="3.5"></circle>
            <circle id="Oval" fill="#6C63FF" opacity="0.1" cx="39.5" cy="3.5" r="3.5"></circle>
            <circle id="Oval" fill="#6C63FF" opacity="0.1" cx="185.5" cy="3.5" r="3.5"></circle>
            <path d="M70.5,28 C68.0147186,28 66,30.0147186 66,32.5 C66,34.9852814 68.0147186,37 70.5,37 C72.9852814,37 75,34.9852814 75,32.5 C75,30.0147186 72.9852814,28 70.5,28 Z M70.5,28.8721429 C72.5118944,28.8721429 74.1428571,30.5031056 74.1428571,32.515 C74.1428571,34.5268944 72.5118944,36.1578571 70.5,36.1578571 C68.4881056,36.1578571 66.8571429,34.5268944 66.8571429,32.515 C66.8571429,30.5031056 68.4881056,28.8721429 70.5,28.8721429 Z M73.0478571,31.24 L72.6385714,30.8264286 C72.5981822,30.7845246 72.5424857,30.7608516 72.4842857,30.7608516 C72.4260858,30.7608516 72.3703893,30.7845246 72.33,30.8264286 L69.7585714,33.3742857 L68.6742857,32.2728571 C68.6338965,32.2309532 68.5782,32.2072802 68.52,32.2072802 C68.4618,32.2072802 68.4061035,32.2309532 68.3657143,32.2728571 L67.9542857,32.6821429 C67.9123817,32.7225321 67.8887087,32.7782286 67.8887087,32.8364286 C67.8887087,32.8946285 67.9123817,32.950325 67.9542857,32.9907143 L69.6042857,34.6535714 C69.644675,34.6954754 69.7003715,34.7191484 69.7585714,34.7191484 C69.8167714,34.7191484 69.8724679,34.6954754 69.9128571,34.6535714 L73.0478571,31.5421429 C73.0897611,31.5017536 73.1134341,31.4460571 73.1134341,31.3878571 C73.1134341,31.3296572 73.0897611,31.2739607 73.0478571,31.2335714 L73.0478571,31.24 Z" id="Shape" fill="#25CB55" fill-rule="nonzero" opacity="0.7"></path>
            <path d="M18.4820187,51.1167105 C16.0632962,51.6786247 14.5571117,54.094089 15.1167469,56.5135882 C15.6763822,58.9330873 18.0902024,60.4416494 20.509951,59.884172 C22.9296996,59.3266945 24.4403105,56.9139964 23.8851123,54.493475 C23.6178444,53.3282555 22.8979052,52.3173102 21.8842008,51.6837767 C20.8704965,51.0502432 19.6463722,50.8462096 18.4820187,51.1167105 Z M18.679118,51.9737574 C20.1151791,51.638601 21.6116012,52.202575 22.4693474,53.4022253 C23.3270935,54.6018756 23.3768675,56.200423 22.5954179,57.451124 C21.8139684,58.701825 20.3555326,59.3578244 18.9014027,59.1126795 C17.4472727,58.8675345 16.2844552,57.7696303 15.9561473,56.3318404 C15.5098281,54.3772321 16.7268598,52.4293869 18.679118,51.9737574 Z M21.693453,53.7092772 L21.2007046,53.3921699 C21.1520899,53.3605728 21.092746,53.3500309 21.0362249,53.3629514 C20.9797037,53.3758719 20.9308322,53.4111515 20.9007707,53.4607336 L18.9726247,56.5203908 L17.6679125,55.6954832 C17.6192979,55.6638862 17.559954,55.6533442 17.5034328,55.6662647 C17.4469117,55.6791852 17.3980402,55.7144649 17.3679787,55.7640469 L17.057333,56.2568489 C17.0257394,56.3054688 17.0151986,56.3648192 17.0281177,56.4213464 C17.0410368,56.4778737 17.0763126,56.5267505 17.1258893,56.5568152 L19.1054525,57.805961 C19.1542306,57.8382623 19.2140948,57.8492092 19.2711457,57.8362601 C19.3281966,57.823311 19.3774712,57.7875923 19.4075287,57.7373972 L21.7641517,54.0028157 C21.7959344,53.9544594 21.8068081,53.895302 21.7942989,53.8388026 C21.7817897,53.7823032 21.7469613,53.7332666 21.6977378,53.7028493 L21.693453,53.7092772 Z" id="Shape" fill="#25CB55" fill-rule="nonzero" opacity="0.7"></path>
            <path d="M137.5,28 C135.014719,28 133,30.0147186 133,32.5 C133,34.9852814 135.014719,37 137.5,37 C139.985281,37 142,34.9852814 142,32.5 C142,30.0147186 139.985281,28 137.5,28 Z M137.5,28.8721429 C139.511894,28.8721429 141.142857,30.5031056 141.142857,32.515 C141.142857,34.5268944 139.511894,36.1578571 137.5,36.1578571 C135.488106,36.1578571 133.857143,34.5268944 133.857143,32.515 C133.857143,30.5031056 135.488106,28.8721429 137.5,28.8721429 Z M140.047857,31.24 L139.638571,30.8264286 C139.598182,30.7845246 139.542486,30.7608516 139.484286,30.7608516 C139.426086,30.7608516 139.370389,30.7845246 139.33,30.8264286 L136.758571,33.3742857 L135.672143,32.2792857 C135.631754,32.2373817 135.576057,32.2137087 135.517857,32.2137087 C135.459657,32.2137087 135.403961,32.2373817 135.363571,32.2792857 L134.954286,32.6928571 C134.912382,32.7332464 134.888709,32.7889429 134.888709,32.8471429 C134.888709,32.9053428 134.912382,32.9610393 134.954286,33.0014286 L136.604286,34.6642857 C136.644675,34.7061897 136.700371,34.7298627 136.758571,34.7298627 C136.816771,34.7298627 136.872468,34.7061897 136.912857,34.6642857 L140.047857,31.5528571 C140.089761,31.5124679 140.113434,31.4567714 140.113434,31.3985714 C140.113434,31.3403715 140.089761,31.284675 140.047857,31.2442857 L140.047857,31.24 Z" id="Shape" fill="#25CB55" fill-rule="nonzero" opacity="0.7"></path>
            <path d="M191.848279,51.0137112 C189.371296,50.8214865 187.207208,52.6729889 187.01387,55.1498263 C186.820532,57.6266636 188.67111,59.7915293 191.147919,59.985971 C193.624728,60.1804127 195.790473,58.330848 195.986028,55.8541847 C196.080049,54.663429 195.696762,53.4841504 194.920624,52.5761986 C194.144486,51.6682468 193.039188,51.1061309 191.848279,51.0137112 Z M191.779709,51.8815252 C193.250455,51.9920408 194.509423,52.9784827 194.968528,54.3800663 C195.427633,55.7816498 194.996265,57.3217552 193.875922,58.2809717 C192.75558,59.2401883 191.167377,59.4292029 189.853192,58.7597234 C188.539007,58.0902438 187.75821,56.6944003 187.875525,55.2242161 C187.949382,54.2630007 188.402372,53.3705841 189.13469,52.7435869 C189.867008,52.1165897 190.818565,51.8064594 191.779709,51.8815252 Z M194.13679,54.4399693 L193.759657,53.99642 C193.722922,53.951625 193.669614,53.9236127 193.611885,53.9187684 C193.554155,53.9139241 193.496924,53.9326606 193.453237,53.970707 L190.695451,56.3127333 L189.696906,55.1363633 C189.660131,55.0909116 189.606381,55.0624599 189.548116,55.0576047 C189.489852,55.0527494 189.432133,55.0719122 189.388343,55.1106503 L188.944783,55.4877744 C188.900297,55.5248173 188.872693,55.5782831 188.868253,55.6360008 C188.863813,55.6937185 188.882915,55.750777 188.921212,55.7941877 L190.436173,57.5790989 C190.472908,57.6238939 190.526216,57.6519062 190.583945,57.6567505 C190.641675,57.6615948 190.698906,57.6428583 190.742593,57.6048119 L194.111077,54.7463827 C194.155873,54.7096483 194.183886,54.6563415 194.18873,54.5986134 C194.193575,54.5408852 194.174838,54.4836554 194.13679,54.4399693 Z" id="Shape" fill="#25CB55" fill-rule="nonzero" opacity="0.7"></path>
        </g>
    </g>
</svg>