<?xml version="1.0" encoding="UTF-8"?>
<svg width="234px" height="234px" viewBox="0 0 234 234" version="1.1" xmlns="http://www.w3.org/2000/svg" xmlns:xlink="http://www.w3.org/1999/xlink">
    <!-- Generator: Sketch 52.3 (67297) - http://www.bohemiancoding.com/sketch -->
    <title>Site / Illustrations / Private Sector</title>
    <desc>Created with Sketch.</desc>
    <defs>
        <linearGradient x1="50.0005261%" y1="100%" x2="50.0005261%" y2="0%" id="linearGradient-1">
            <stop stop-color="#808080" stop-opacity="0.25" offset="0%"></stop>
            <stop stop-color="#808080" stop-opacity="0.12" offset="54%"></stop>
            <stop stop-color="#808080" stop-opacity="0.1" offset="100%"></stop>
        </linearGradient>
        <linearGradient x1="50.0236433%" y1="99.9948155%" x2="50.0236433%" y2="-0.0255496052%" id="linearGradient-2">
            <stop stop-color="#808080" stop-opacity="0.25" offset="0%"></stop>
            <stop stop-color="#808080" stop-opacity="0.12" offset="54%"></stop>
            <stop stop-color="#808080" stop-opacity="0.1" offset="100%"></stop>
        </linearGradient>
        <linearGradient x1="45.2606224%" y1="100.101185%" x2="53.1520444%" y2="-1.05136561%" id="linearGradient-3">
            <stop stop-color="#808080" stop-opacity="0.25" offset="0%"></stop>
            <stop stop-color="#808080" stop-opacity="0.12" offset="54%"></stop>
            <stop stop-color="#808080" stop-opacity="0.1" offset="100%"></stop>
        </linearGradient>
    </defs>
    <g id="Site-/-Illustrations-/-Private-Sector" stroke="none" stroke-width="1" fill="none" fill-rule="evenodd">
        <ellipse id="Oval" fill="#6C63FF" opacity="0.1" cx="209.5" cy="199" rx="20.5" ry="5"></ellipse>
        <ellipse id="Oval" fill="#6C63FF" opacity="0.1" cx="28.5" cy="200" rx="20.5" ry="5"></ellipse>
        <path d="M107.941532,62 L108,62.1030692 C102.53629,69.0767293 102.175403,79.9051764 102.153226,80 L101,78.6394869 C101.024194,78.5446633 102.439516,69.0210719 107.941532,62 Z" id="Path" fill="#444053"></path>
        <path d="M133,76 C133,76 129.635983,73.6906689 130.032486,71" id="Path" stroke="#444053"></path>
        <path d="M128,79 C128,79 123.458136,77.3731452 123,71" id="Path" stroke="#444053"></path>
        <path d="M120,81 C120,81 115.920378,77.3594654 117.275925,71" id="Path" stroke="#444053"></path>
        <path d="M111,79 C111,79 108.912813,72.9416058 110.769198,69" id="Path" stroke="#444053"></path>
        <path d="M134,69 C134,69 130.322277,70.1314286 131.110834,72" id="Path" stroke="#444053"></path>
        <path d="M130,63 C130,63 125.116228,64.4664247 125,71" id="Path" stroke="#444053"></path>
        <path d="M123,61 C123,61 118.700416,66.2356021 119.016624,71" id="Path" stroke="#444053"></path>
        <path d="M116,63 C116,63 111.47302,66.854424 112.05098,69" id="Path" stroke="#444053"></path>
        <path d="M113,61.7523564 C113,61.7523564 109.490706,62.6600035 109,61" id="Path" stroke="#444053"></path>
        <path d="M92,66.9632131 C92,66.9632131 98.1586377,67.5540517 101,64" id="Path" stroke="#444053"></path>
        <path d="M121.409855,57.0357728 C106.824333,59.4635256 92.2163404,58.1569013 78.1537727,56.3467884 C64.0912049,54.5366755 50.0613218,52.2251125 35.445158,52.6776407 C26.0483231,52.9711725 15.5953656,54.8139 9.0931644,60.4684644 C2.83814082,65.9089951 1.94339871,73.3471729 2.00263962,80.0739438 C2.04758101,85.1332909 2.52355112,90.3740569 5.95748145,94.442734 C8.34141761,97.2659394 11.9857553,99.3165853 14.7414793,101.927795 C24.3425932,111.015051 21.6195539,125.092348 15.5402103,137.013001 C12.680304,142.606413 9.18508996,148.095866 7.26690997,153.829929 C5.34872997,159.563991 5.15875048,165.74039 8.77040355,170.487859 C12.3534576,175.194561 19.2070187,177.905653 26.3383993,179.359043 C40.819739,182.30863 56.8924123,180.785934 72.4380457,178.66802 C106.846804,173.957242 140.871517,166.337646 174.798177,158.732318 C187.355208,155.919304 199.967395,153.089984 212.048456,148.947924 C218.756979,146.652668 225.581941,143.764233 229.877929,139.196144 C235.330136,133.396853 235.379163,125.391995 229.992325,120.53649 C220.955021,112.382828 200.737527,113.915716 193.712371,104.63685 C189.843327,99.540811 191.418318,92.6876584 194.374235,86.6641408 C200.706885,73.7405871 213.116836,61.0514512 211.329394,48.0647066 C210.10372,39.1446008 201.446375,31.6758467 189.945466,29.6109319 C177.893004,27.4481731 162.488323,31.0602452 155.671532,39.9293907 C148.652505,49.0859527 134.287605,54.8954366 121.409855,57.0357728 Z" id="Path" fill="#6C63FF" opacity="0.1"></path>
        <rect id="Rectangle" fill="url(#linearGradient-1)" x="16" y="60" width="194" height="110" rx="12.49"></rect>
        <rect id="Rectangle" fill="#FFFFFF" x="16" y="61" width="194" height="108" rx="12.49"></rect>
        <rect id="Rectangle" fill="#FFFFFF" x="16" y="61" width="194" height="108" rx="12.49"></rect>
        <rect id="Rectangle" fill="#5A5773" opacity="0.04" x="16" y="61" width="194" height="108" rx="12.49"></rect>
        <path d="M209.023229,60 L16.9849273,60 C16.440967,60 16,60.4281333 16,60.9562624 L16,65 L210,65 L209.999966,60.9642147 C210.002147,60.7105955 209.900464,60.4665235 209.717289,60.2856963 C209.534113,60.104869 209.284451,60.0021003 209.023229,60 Z" id="Path" fill="#5A5773"></path>
        <g id="83eb5f8b-b68b-4721-b047-6100bc74156f" transform="translate(18.000000, 61.000000)" fill="#FFFFFF">
            <ellipse id="Oval" cx="1.37142857" cy="1.53857143" rx="1.32653061" ry="1.39285714"></ellipse>
            <ellipse id="Oval" cx="4.94285714" cy="1.53857143" rx="1.32653061" ry="1.39285714"></ellipse>
            <ellipse id="Oval" cx="8.51428571" cy="1.53857143" rx="1.32653061" ry="1.39285714"></ellipse>
        </g>
        <rect id="Rectangle" fill="#FFFFFF" x="29" y="89" width="162" height="80" rx="10.19"></rect>
        <rect id="Rectangle" fill="#5A5773" opacity="0.2" x="22" y="71" width="46" height="5" rx="2.5"></rect>
        <rect id="Rectangle" fill="#6C63FF" opacity="0.2" x="110" y="98" width="46" height="5" rx="2.5"></rect>
        <rect id="Rectangle" fill="#6C63FF" opacity="0.2" x="109" y="112" width="73" height="5" rx="2.5"></rect>
        <rect id="Rectangle" fill="#6C63FF" opacity="0.2" x="109" y="120" width="73" height="5" rx="2.5"></rect>
        <rect id="Rectangle" fill="#6C63FF" opacity="0.2" x="109" y="128" width="73" height="5" rx="2.5"></rect>
        <rect id="Rectangle" fill="#6C63FF" opacity="0.2" x="109" y="136" width="73" height="5" rx="2.5"></rect>
        <rect id="Rectangle" fill="#6C63FF" opacity="0.2" x="37" y="144" width="145" height="5" rx="2.5"></rect>
        <rect id="Rectangle" fill="#6C63FF" opacity="0.2" x="37" y="152" width="145" height="5" rx="2.5"></rect>
        <rect id="Rectangle" fill="#6C63FF" opacity="0.2" x="37" y="160" width="145" height="5" rx="2.5"></rect>
        <rect id="Rectangle" fill="#6C63FF" opacity="0.2" x="38" y="96" width="62" height="45" rx="8.5"></rect>
        <path d="M229.560368,145.88839 C229.637367,145.684573 229.065954,144.518735 229.065954,144.461666 C229.065954,144.404597 228.476305,143.758494 228.476305,143.397737 C228.476305,143.036979 227.696185,142.256357 227.696185,142.256357 C227.696185,142.256357 226.648594,141.820187 226.535122,140.868358 C226.42165,139.916529 225.280851,139.900223 225.278825,139.900223 C225.278825,139.900223 225.278825,139.81462 225.278825,139.682138 C225.301931,139.306325 225.2545,138.929495 225.139011,138.571331 C225.004519,138.308579 224.772148,138.110015 224.492625,138.018985 C224.492625,138.018985 224.377127,137.277088 224.150183,137.048812 C223.892891,136.777895 223.791893,136.393081 223.882713,136.029723 C223.998211,135.671004 223.730741,134.7579 223.179592,134.62338 C222.628442,134.48886 221.998266,134.280966 221.998266,134.280966 L221.846295,134.307462 L221.771322,134.280966 C221.637471,134.306726 221.502102,134.323746 221.366065,134.331921 C221.249685,134.335362 221.135754,134.297883 221.043885,134.225935 C220.853414,134.022117 219.31141,133.614482 219.017599,133.614482 C218.723787,133.614482 217.913272,133.233343 217.913272,133.233343 C217.913272,133.233343 217.34186,132.797172 217.102758,132.605584 C216.863656,132.413995 216.448267,131.718976 216.385452,131.612991 L216.385452,131.598724 C216.315666,131.436855 216.258092,131.269932 216.213218,131.09937 C216.491824,130.806161 216.729706,130.476382 216.920392,130.119006 C216.940655,130.082319 216.958891,130.045632 216.977128,130.006907 C217.019002,130.006943 217.060652,130.000762 217.100731,129.988563 L217.151389,129.968181 C217.345106,129.866971 217.490892,129.692468 217.556646,129.483095 C217.570936,129.441625 217.58311,129.399448 217.593119,129.356728 C217.593119,129.342461 217.593119,129.328193 217.593119,129.313926 L217.611356,129.228323 C217.610382,129.212032 217.610382,129.195697 217.611356,129.179406 L217.623513,129.093803 L217.623513,129.044887 C217.623513,129.008199 217.623513,128.97355 217.637697,128.936863 C217.649966,128.800018 217.669582,128.663941 217.69646,128.529227 C217.809932,128.013568 218.119954,127.577398 218.336766,127.102503 C218.367161,127.035243 218.397555,126.965945 218.423897,126.898685 C218.450238,126.831425 218.47658,126.745822 218.498869,126.668371 L218.517106,126.597035 C218.53129,126.539966 218.543448,126.482897 218.555605,126.425828 C218.567763,126.368759 218.555605,126.374873 218.569789,126.348377 C218.581947,126.270926 218.592078,126.191437 218.600184,126.10991 C218.636278,125.655131 218.566914,125.198132 218.397555,124.774903 C218.255715,124.418222 218.042955,124.09619 217.899088,123.739509 C217.680249,123.199392 217.621487,122.5859 217.356044,122.070241 C216.909017,121.206071 215.905127,120.795254 214.985288,121.100068 C214.580031,121.25497 214.211247,121.554582 213.791805,121.689102 C213.228498,121.8705 212.628717,121.733942 212.045146,121.654453 C211.461576,121.574964 210.829374,121.564773 210.351171,121.94795 C209.812178,122.388197 209.666286,123.215697 209.159714,123.698745 C208.957085,123.902563 208.683537,124.030968 208.458619,124.218481 C208.300485,124.345941 208.178818,124.513335 208.106045,124.703567 L208.093887,124.742293 C208.088652,124.75897 208.084589,124.775997 208.081729,124.793247 C208.0772,124.812045 208.073817,124.831103 208.071598,124.850316 C208.070498,124.863201 208.070498,124.876157 208.071598,124.889041 C208.067544,124.922889 208.067544,124.957103 208.071598,124.99095 C208.07434,125.023148 208.079077,125.055141 208.085782,125.086745 L208.085782,125.113241 C208.085782,125.139737 208.099966,125.166234 208.110097,125.19273 C208.120229,125.219226 208.110097,125.202921 208.110097,125.206997 C208.110097,125.211074 208.132387,125.266104 208.144544,125.294639 L208.162781,125.337441 C208.162781,125.34967 208.162781,125.361899 208.178991,125.37209 C208.251426,125.513624 208.310449,125.661706 208.355278,125.814374 C208.378716,125.91114 208.372356,126.012787 208.337042,126.105834 C208.288982,126.211745 208.220047,126.306741 208.134413,126.385064 C207.75526,126.781092 207.462617,127.252485 207.275267,127.768987 C207.252303,127.828774 207.23204,127.887881 207.214479,127.946309 L207.24082,127.946309 C207.295283,127.961955 207.350819,127.973536 207.406976,127.980958 C207.438694,127.982835 207.470494,127.982835 207.502211,127.980958 C207.632577,127.988715 207.76339,127.979121 207.891259,127.952423 L207.98852,127.927965 C208.120916,127.893217 208.249805,127.846135 208.373515,127.787331 C208.373515,127.826056 208.373515,127.864781 208.373515,127.903507 C208.373515,127.942232 208.373515,127.946309 208.373515,127.968729 C208.376041,129.684299 209.343774,131.250601 210.871926,132.012474 C210.871926,132.053237 210.882058,132.094001 210.888137,132.134765 L210.900294,132.238712 L210.849637,132.189795 C210.849637,132.189795 210.507195,132.018588 210.182989,132.511827 C209.945203,132.83548 209.622423,133.086044 209.250897,133.235381 C209.250897,133.235381 205.785947,133.785689 205.652212,134.242241 L204.031182,134.338035 C204.031182,134.338035 203.45977,134.413448 203.403034,135.611896 C203.346297,136.810345 203.042354,136.922445 203.042354,136.922445 C203.042354,136.922445 202.375706,138.10255 202.434468,138.709927 C202.449054,139.08787 202.2497,139.44155 201.919792,139.623031 L201.844819,140.707342 C201.844819,140.707342 201.21667,140.611547 201.034304,141.353444 C200.96176,141.746283 200.799439,142.116788 200.560153,142.435717 C200.560153,142.435717 199.512563,143.312133 199.455827,144.051992 L198.807415,144.459627 C198.807415,144.459627 197.303911,144.117214 196.961468,143.509836 C196.961468,143.509836 196.920942,143.469073 196.856101,143.409966 L196.856101,143.395699 C196.631183,143.191881 196.155006,142.735329 196.227952,142.839276 C196.272732,142.934638 196.283466,143.04261 196.258347,143.145003 L196.146901,143.020674 L195.84701,142.686413 C195.84701,142.686413 193.415466,140.3955 191.997066,140.214103 C191.978829,140.177415 191.88562,139.806467 191.642466,140.040857 C191.235517,140.416839 191.002715,140.946377 191.000024,141.502175 C190.997332,142.057974 191.224994,142.589767 191.628282,142.969719 L193.905828,145.107768 L193.96459,145.15057 L194.452925,145.782405 C194.369847,145.986223 194.300954,146.173735 194.250297,146.349019 L194.250297,146.367362 L194.213823,146.477424 C194.209511,146.489372 194.206124,146.501638 194.203692,146.514111 C194.191534,146.550798 194.181403,146.585447 194.171271,146.620096 L194.153035,146.681242 C194.153035,146.693471 194.153035,146.7057 194.153035,146.717929 C194.098325,146.909518 194.063878,147.056266 194.047668,147.137794 L193.920012,147.09703 L194.043615,147.152061 L194.043615,147.170404 C194.043615,147.196901 194.043615,147.211168 194.043615,147.211168 L194.16114,147.262122 C194.827788,147.553582 198.154951,149.023108 198.325159,149.24527 C198.495367,149.467431 199.771928,150.215442 200.914753,149.606027 C202.057579,148.996612 202.30276,148.067203 202.30276,148.067203 C202.30276,148.067203 203.407086,146.52634 203.445586,146.298064 C203.484085,146.069788 204.339178,145.804825 204.339178,145.804825 C204.339178,145.804825 204.416177,148.350509 203.978499,149.283995 C203.540821,150.217481 202.722201,154.340715 202.722201,154.340715 C202.775969,154.333076 202.830537,154.333076 202.884304,154.340715 L202.835673,154.579182 C202.902636,154.566586 202.971339,154.566586 203.038302,154.579182 C202.977513,155.047963 202.633045,157.228813 202.633045,157.228813 C202.633045,157.228813 202.519573,158.21733 202.329102,158.559744 C202.138631,158.902157 202.126473,160.68964 202.126473,160.68964 L201.820504,161.981845 C201.820504,161.981845 201.861029,162.071524 201.936002,162.204006 C202.141076,162.643832 202.439941,163.032827 202.811358,163.343348 C202.786933,163.546489 202.735125,163.745339 202.65736,163.934419 C202.539114,164.223428 202.487169,164.535534 202.505389,164.847523 C202.505389,164.847523 202.183209,166.310935 202.219682,166.728761 C202.256155,167.146588 202.017053,168.17383 202.017053,168.17383 L201.674611,171.481793 C201.674611,171.481793 201.447667,174.351547 201.561139,175.13217 C201.615589,175.744373 201.5897,176.361122 201.48414,176.96653 C201.48414,176.96653 201.71311,179.228908 201.656374,179.475527 C201.599638,179.722147 201.313932,180.788114 201.48414,181.377147 C201.654348,181.966181 201.561139,183.582456 201.561139,183.582456 C201.561139,183.582456 201.674611,185.712352 201.808346,186.39718 C201.879782,186.915569 201.866779,187.442203 201.769846,187.956386 C201.769846,187.956386 201.636112,189.419798 201.579375,189.419798 C201.522639,189.419798 201.028226,190.426658 202.03529,191.415174 C203.042354,192.403691 202.418258,192.250827 202.418258,192.250827 C202.418258,192.250827 201.607744,191.843192 201.71311,192.670692 C201.802267,193.447238 201.927897,193.245458 201.940055,193.223038 L201.749584,193.848759 L201.883318,193.867103 L201.773899,193.999584 C201.659172,194.147837 201.530219,194.284373 201.388905,194.40722 C201.240693,194.5529 201.152437,194.749366 201.141698,194.957528 C201.141698,194.957528 199.733428,196.498391 198.420395,197.276975 C197.729431,197.68461 197.133703,198.033139 196.874338,198.32256 C196.639289,198.57937 196.671709,198.787265 197.164097,198.950319 C198.191424,199.292733 200.000898,199.46394 201.293669,199.025731 C202.068289,198.768015 202.765394,198.317145 203.319956,197.715183 C203.319956,197.715183 204.13047,197.295318 204.940985,197.448182 C205.7515,197.601045 207.340109,196.55546 207.340109,196.55546 L207.309714,196.28642 L207.226636,195.507836 C207.118253,195.375978 207.069748,195.204476 207.092902,195.034979 C207.102808,194.804674 207.080296,194.574117 207.026034,194.350151 C207.01185,194.274738 206.997666,194.199326 206.983482,194.130028 L207.129375,194.101493 C207.129375,194.101493 206.94093,193.133359 207.283372,192.94177 C207.625815,192.750181 207.528553,190.261566 207.528553,190.261566 C207.528553,190.261566 207.092902,189.690876 206.863931,189.59712 C206.634961,189.503363 206.843668,188.32122 206.884194,188.170395 C206.92472,188.01957 207.226636,185.070326 207.226636,185.070326 C207.226636,185.070326 207.111138,184.140917 207.26311,183.741434 C207.415081,183.341951 207.072639,181.801088 207.072639,181.801088 C207.007642,181.65609 207.04657,181.485297 207.167874,181.383262 C207.370503,181.154986 207.301609,179.120884 207.301609,179.120884 C207.301609,179.120884 207.283372,178.101795 207.283372,177.826641 C207.283372,177.551487 207.510317,176.591505 207.72105,176.269473 C207.931784,175.947441 207.796023,174.938543 207.796023,174.938543 L207.808181,174.86313 C207.808181,174.834596 207.808181,174.797908 207.824391,174.755107 L207.840601,174.653198 C207.933486,174.09619 208.057968,173.544981 208.213438,173.002274 C208.460645,172.205346 208.746351,170.799003 208.746351,170.799003 L210.5153,166.156033 L210.535563,166.101003 C210.535563,166.101003 211.346077,167.621483 211.346077,169.029864 C211.346077,169.029864 211.548706,170.721552 211.500075,171.178104 C211.451444,171.634656 211.631784,173.780858 211.631784,173.780858 C211.631784,173.780858 211.878991,176.860545 211.878991,176.993026 C211.878991,177.125508 212.18496,179.502023 212.375431,179.864819 C212.565902,180.227615 212.18496,181.328231 212.069462,181.442369 C211.953963,181.556507 212.107961,184.350849 212.107961,184.350849 C212.107961,184.350849 211.822255,186.556158 211.765519,187.01271 C211.708783,187.469262 211.479812,189.218018 211.670283,189.902846 C211.860754,190.587674 211.783755,190.68143 211.783755,190.68143 C211.783755,190.68143 212.470666,191.38664 212.069462,191.443709 C211.774951,191.508523 211.522476,191.697821 211.376593,191.9632 C211.23071,192.22858 211.205561,192.544313 211.307578,192.82967 C211.546124,193.525444 211.826262,194.206077 212.146461,194.867848 L212.462561,194.800588 L212.462561,195.026826 L212.48485,196.160053 C212.48485,196.160053 212.618585,197.242326 212.541586,197.490983 C212.486877,197.670343 212.409878,198.522301 212.373405,198.968662 C212.359221,199.131717 212.351115,199.23974 212.351115,199.23974 C212.351115,199.23974 212.351115,200.2466 214.464532,199.942912 C216.57795,199.639223 216.956865,198.801532 216.956865,198.801532 L216.973075,198.697585 C217.00347,198.505996 217.072363,198.09836 217.129099,197.870084 C217.204072,197.566396 216.521213,196.19674 216.521213,196.19674 C216.521213,196.19674 216.407741,195.265293 216.21727,195.057399 C216.137299,194.934288 216.084763,194.795227 216.063273,194.649763 C216.047062,194.572312 216.030852,194.492823 216.018694,194.415373 C216.066367,194.421027 216.113712,194.429191 216.160534,194.439831 C216.160534,194.439831 216.045036,193.775385 216.48474,193.565452 C216.924445,193.35552 216.80692,192.91935 216.750184,192.729799 C216.693448,192.540249 216.920392,191.474282 216.920392,191.474282 C216.85467,191.25788 216.913131,191.022661 217.072363,190.862828 C217.339833,190.595827 217.548541,188.732932 217.548541,188.732932 L217.58704,181.546316 C217.58704,181.546316 217.720775,180.272455 217.568804,179.758834 C217.416832,179.245213 217.264861,178.256697 217.473568,177.989695 C217.682276,177.722694 217.491805,176.489596 217.491805,176.489596 C217.491805,176.489596 217.491805,173.884805 217.777511,173.228511 C218.063218,172.572218 217.967982,168.493824 217.967982,168.493824 L218.042955,165.813619 C218.042955,165.813619 218.665025,165.222548 218.519132,162.144899 C219.181728,162.102097 219.937533,162.077639 220.0429,162.171395 C220.245528,162.342602 221.60314,163.216981 222.403524,162.664634 C222.73396,162.436297 223.051246,162.189281 223.353852,161.924776 L223.017489,156.217877 C223.220117,156.535833 223.353852,156.745765 223.353852,156.745765 C223.353852,155.948837 225.601004,153.362389 225.601004,153.362389 C225.601004,153.362389 227.694158,150.64346 228.150073,150.321428 C228.605987,149.999396 229.501606,148.28325 229.501606,148.28325 C229.633996,147.95717 229.786955,147.639927 229.959547,147.333459 C230.170281,147.009388 229.485396,146.096284 229.560368,145.88839 Z M224.650676,147.883767 C224.079263,147.940836 222.879701,149.253422 222.861464,149.538767 C222.819907,149.726957 222.732918,149.901957 222.608179,150.048312 C222.608179,149.934174 222.589942,149.817998 222.579811,149.699783 C222.446076,148.018286 222.300183,145.971956 222.377182,145.774252 C222.490654,145.431838 222.452155,143.890976 222.452155,143.890976 L222.474444,143.860403 C222.857412,145.054775 224.048868,146.461118 224.048868,146.461118 C224.048868,146.461118 224.251497,147.072572 224.506809,147.086839 C224.762121,147.101106 224.650676,147.883767 224.650676,147.883767 Z" id="Shape" fill="url(#linearGradient-2)" fill-rule="nonzero"></path>
        <path d="M194,147.549847 C194,147.549847 194.762222,144 197.208889,144 L199,147.267832 L197.806667,147.997522 C197.806667,147.997522 195.213333,148.060631 194,147.549847 Z" id="Path" fill="#65617D"></path>
        <path d="M199,147.266184 L197.806667,147.996388 C197.806667,147.996388 195.982222,148.0477 194.677778,147.763512 C194.445068,147.717766 194.218033,147.651659 194,147.56616 L194.013333,147.508928 L194.013333,147.497086 C194.12475,147.051868 194.279402,146.616062 194.475556,146.19456 C194.551111,146.034704 194.635556,145.870902 194.728889,145.707099 C195.086667,145.095306 195.591111,144.493381 196.284444,144.197353 C196.538513,144.083362 196.815937,144.016229 197.1,144 L197.208889,144 L197.248889,144.07302 L197.853333,145.178194 L199,147.266184 Z" id="Path" fill="#000000" opacity="0.1"></path>
        <path d="M217.703985,162.390948 C217.703985,162.390948 220.042669,162.166421 220.248845,162.336333 C220.455021,162.506246 221.783038,163.365921 222.567316,162.821797 C223.351594,162.277673 222.830089,160.394478 222.830089,160.313567 C222.830089,160.232657 222.7553,157.560583 222.7553,157.560583 L221.352494,155.669297 L219.593933,152.356007 L216,152 L216.092981,157.259191 L216.074789,159.955538 L217.703985,162.390948 Z" id="Path" fill="#65617D"></path>
        <path d="M217.703985,162.390948 C217.703985,162.390948 220.042669,162.166421 220.248845,162.336333 C220.455021,162.506246 221.783038,163.365921 222.567316,162.821797 C223.351594,162.277673 222.830089,160.394478 222.830089,160.313567 C222.830089,160.232657 222.7553,157.560583 222.7553,157.560583 L221.352494,155.669297 L219.593933,152.356007 L216,152 L216.092981,157.259191 L216.074789,159.955538 L217.703985,162.390948 Z" id="Path" fill="#000000" opacity="0.1"></path>
        <path d="M197,143.585036 C197,143.585036 196.824035,145.960031 195.48632,146 C195.48632,146 195.107899,145.747565 194.600817,145.324736 C193.431498,144.350756 191.573456,142.480632 192.088107,140.740932 C192.824134,138.248134 196.39642,142.844559 196.39642,142.844559 L196.672667,143.18745 L197,143.585036 Z" id="Path" fill="#FBBEBE"></path>
        <path d="M197,143.431767 C197,143.431767 196.78991,145.957494 195.192771,146 C195.192771,146 194.740964,145.731544 194.135542,145.281879 L194,145.10962 C194.270679,145.246354 194.568316,145.322715 194.871988,145.333333 C195.360716,145.352326 195.810371,145.070008 196.001506,144.624161 C196.172759,144.298825 196.323646,143.963367 196.453313,143.619687 C196.527995,143.419087 196.581739,143.211442 196.613705,143 L197,143.431767 Z" id="Path" fill="#000000" opacity="0.1"></path>
        <path d="M196.135764,148 L195.784984,147.570802 L194.601655,146.098653 L194,145.34541 C194.265137,145.476797 194.556979,145.550068 194.85475,145.560009 C195.335583,145.580112 195.778511,145.308674 195.964814,144.879731 C196.129675,144.568281 196.274264,144.247189 196.39774,143.918327 C196.593111,143.38183 196.588671,143.107143 196.519847,143.012719 C196.451023,142.918296 196.963873,143.373246 197.199206,143.596429 L197.312433,143.699436 L197.354615,143.780984 L197.974031,144.939818 C197.975384,144.956245 197.975384,144.97275 197.974031,144.989176 C198.018434,145.353994 198.218246,147.669518 196.135764,148 Z" id="Path" fill="#E7EFFD"></path>
        <path d="M208,196.164907 C208,196.164907 206.339135,197.251114 205.508703,197.091377 C204.933614,197.019181 204.349892,197.115378 203.828625,197.368254 C203.257661,197.991903 202.536951,198.460264 201.734399,198.729206 C200.389483,199.182857 198.513005,199.003953 197.445611,198.650403 C196.941801,198.482148 196.90124,198.264906 197.144606,197.998679 C197.387972,197.732452 198.032678,197.340566 198.749966,196.914603 C200.114095,196.105272 201.576425,194.51004 201.576425,194.51004 C201.585663,194.293509 201.677272,194.088632 201.832599,193.937119 C201.979492,193.808685 202.113219,193.665995 202.231805,193.511156 C202.445283,193.261967 202.643818,193 202.643818,193 L207.534616,193.183164 C207.534616,193.183164 207.617873,193.534584 207.684051,193.894523 C207.739682,194.126627 207.762674,194.365325 207.752365,194.603752 C207.727998,194.779866 207.77828,194.958145 207.891126,195.095739 L207.978652,195.90081 L208,196.164907 Z" id="Path" fill="#65617D"></path>
        <path d="M216.992949,197.919011 C216.934916,198.142437 216.861838,198.540981 216.829598,198.72415 C216.829598,198.786548 216.814553,198.826805 216.814553,198.826805 C216.814553,198.826805 216.416922,199.646033 214.207386,199.943935 C211.997851,200.241836 212,199.255541 212,199.255541 L212.021494,198.987833 C212.060182,198.553058 212.139708,197.717727 212.197741,197.540596 C212.277267,197.299055 212.139708,196.236272 212.139708,196.236272 L212.116065,195.125181 L212.09887,194.354261 L215.752772,194 C215.776277,194.256229 215.815749,194.510952 215.870986,194.762869 C215.892247,194.906577 215.947305,195.044073 216.032188,195.165438 C216.229928,195.366723 216.350292,196.282568 216.350292,196.282568 C216.350292,196.282568 217.078923,197.62111 216.992949,197.919011 Z" id="Path" fill="#65617D"></path>
        <path d="M206.863441,193.135039 C206.863441,193.135039 206.939524,193.432123 207,193.73641 C206.518143,193.817433 204.411237,194.154129 203.878658,193.916462 C203.281701,193.649986 202,193.500543 202,193.500543 L202.021459,193.432123 C202.216543,193.221463 202.397971,193 202.397971,193 L206.863441,193.135039 Z" id="Path" fill="#000000" opacity="0.1"></path>
        <path d="M216,194.677996 C215.01934,194.547406 212.864619,194.856887 212.018203,195 L212,194.314848 L215.868032,194 C215.895169,194.227829 215.939233,194.454214 216,194.677996 Z" id="Path" fill="#000000" opacity="0.1"></path>
        <path d="M218.509829,166.381686 L218.436549,169.015397 C218.436549,169.015397 218.530185,173.047002 218.247242,173.675041 C217.964298,174.303079 217.964298,176.882091 217.964298,176.882091 C217.964298,176.882091 218.153606,178.09765 217.945978,178.363047 C217.738351,178.628444 217.888982,179.600891 218.039614,180.107374 C218.190246,180.613857 218.057934,181.869935 218.057934,181.869935 L218.021294,188.960697 C218.021294,188.960697 217.817738,190.798217 217.549043,191.061588 C217.391808,191.222005 217.334167,191.454578 217.398411,191.669368 C217.398411,191.669368 217.172464,192.718801 217.229459,192.907212 C217.286455,193.095624 217.398411,193.525122 216.966872,193.731767 C216.535332,193.938412 216.645253,194.594814 216.645253,194.594814 C215.60915,194.349676 212.669796,195 212.669796,195 C212.352499,194.348063 212.075154,193.677604 211.839285,192.992301 C211.736643,192.711141 211.760703,192.399596 211.905312,192.137351 C212.049921,191.875105 212.301054,191.687592 212.59448,191.622771 C212.989379,191.568071 212.311536,190.873177 212.311536,190.873177 C212.311536,190.873177 212.386852,190.779984 212.197545,190.103323 C212.008237,189.426661 212.23622,187.702593 212.293216,187.252836 C212.350212,186.803079 212.63112,184.619125 212.63112,184.619125 C212.63112,184.619125 212.480488,181.861831 212.59448,181.750405 C212.708471,181.638979 213.083015,180.549028 212.895743,180.194489 C212.708471,179.839951 212.405172,177.493922 212.405172,177.358185 C212.405172,177.222447 212.160905,174.187601 212.160905,174.187601 C212.160905,174.187601 211.934957,172.068476 211.991953,171.61872 C212.048949,171.168963 211.839285,169.499595 211.839285,169.499595 C211.839285,168.111831 211.02506,166.610616 211.02506,166.610616 L211.004704,166.665316 L209.254119,171.276337 C209.254119,171.276337 208.971175,172.6641 208.726908,173.452188 C208.572618,173.984868 208.449598,174.526031 208.358471,175.072934 L208.342186,175.17423 L208.325902,175.279579 L208.313688,175.354538 C208.313688,175.354538 208.443964,176.347245 208.236337,176.667342 C208.005096,177.151533 207.859128,177.671654 207.804797,178.205024 C207.804797,178.468395 207.823117,179.481361 207.823117,179.481361 C207.823117,179.481361 207.898433,181.487034 207.690806,181.709887 C207.573783,181.809952 207.535832,181.974179 207.59717,182.115073 C207.59717,182.115073 207.935073,183.634522 207.784441,184.027553 C207.63381,184.420583 207.747801,185.340357 207.747801,185.340357 C207.747801,185.340357 207.446538,188.247569 207.407862,188.397488 C207.369186,188.547407 207.163594,189.710292 207.389542,189.803485 C207.61549,189.896677 208.049065,190.459887 208.049065,190.459887 C208.049065,190.459887 208.142701,192.917342 207.804797,193.103728 C207.466893,193.290113 207.65213,194.248379 207.65213,194.248379 C207.65213,194.248379 204.920403,194.773096 204.299556,194.473258 C203.678708,194.17342 202.339307,194.005267 202.339307,194.005267 L202.526579,193.397488 C202.514366,193.419773 202.390196,193.62034 202.302667,192.852512 C202.206996,192.042139 202.99883,192.447326 202.99883,192.447326 C202.99883,192.447326 203.621713,192.597245 202.622251,191.622771 C201.622789,190.648298 202.11336,189.653566 202.170355,189.653566 C202.227351,189.653566 202.357627,188.209076 202.357627,188.209076 C202.453925,187.701963 202.466986,187.182667 202.396303,186.671394 C202.263991,185.996759 202.152035,183.895867 202.152035,183.895867 C202.152035,183.895867 202.245671,182.301459 202.074684,181.720016 C201.903696,181.138574 202.188675,180.099271 202.245671,179.844003 C202.302667,179.588736 202.074684,177.368314 202.074684,177.368314 C202.180963,176.76657 202.206972,176.153495 202.152035,175.544976 C202.038044,174.775122 202.263991,171.942869 202.263991,171.942869 L202.603931,168.681118 C202.603931,168.681118 202.848198,167.668152 202.807487,167.262966 C202.766776,166.85778 203.09043,165.407212 203.09043,165.407212 C203.072127,165.099262 203.123607,164.791155 203.241062,164.505673 C203.43037,164.130875 203.505685,162.884927 203.505685,162.884927 L205.315302,158.76013 L206.200773,155.113452 L218.165819,155 C218.165819,155 218.208566,155.316045 218.281846,155.889384 C218.355127,156.462723 218.456905,157.307536 218.570896,158.358995 C218.67471,159.311183 218.788702,160.431524 218.900658,161.677472 C219.265024,165.668558 218.509829,166.381686 218.509829,166.381686 Z" id="Path" fill="#3F3D56"></path>
        <path d="M217,133.043374 L214.369837,136 C214.369837,136 210.992315,134.587278 211.347743,134.092825 C211.48415,133.905135 211.463016,133.311791 211.384246,132.657903 C211.259366,131.622579 211,130.43791 211,130.43791 C211,130.43791 216.903939,129.428823 216.404419,130.474238 C216.245496,130.868743 216.232478,131.311357 216.367915,131.715415 C216.510307,132.190449 216.723663,132.638693 217,133.043374 Z" id="Path" fill="#FBBEBE"></path>
        <path d="M216.966791,130.455693 C216.767119,130.824152 216.671531,130.859058 216.796857,131.254667 C215.94719,132.090486 214.857491,132.999997 213.506519,132.999997 C212.78412,133.000762 212.071434,132.848059 211.424834,132.553968 C211.286763,131.55913 211,130.420786 211,130.420786 C211,130.420786 217.519075,129.451158 216.966791,130.455693 Z" id="Path" fill="#000000" opacity="0.1"></path>
        <path d="M218,128.515832 C218,130.99237 215.985281,133 213.5,133 C211.014719,133 209,130.99237 209,128.515832 C209,128.493447 209,128.473096 209,128.450711 C209.018046,125.974735 211.046937,123.982138 213.531654,124.000121 C216.016372,124.018103 218.016004,126.039856 217.997958,128.515832 L218,128.515832 Z" id="Path" fill="#FBBEBE"></path>
        <path d="M218,157.915814 C217.387517,157.915814 215.348702,157.939773 213.070768,157.982899 L213.0435,157.982899 L212.290481,157.997275 L212.267408,157.997275 C209.565769,158.045193 206.903984,157.443821 205.834236,157.556429 C203.562594,157.796019 206.650181,155.160526 206.650181,155.160526 C208.343078,155.628638 210.084179,155.829368 211.824826,155.757105 L212.47926,155.718771 C214.543245,155.5846 216.617717,155.364177 217.702149,155 C217.77766,155.680437 217.882537,156.677132 218,157.915814 Z" id="Path" fill="#000000" opacity="0.1"></path>
        <path d="M218,157.915493 C217.387517,157.915493 215.348702,157.941867 213.070768,157.982626 L213.0435,157.982626 L212.290481,157.997012 L212.267408,157.997012 C209.565769,158.047362 206.903984,157.443164 205.834236,157.558249 C203.562594,157.79801 206.650181,155.16064 206.650181,155.16064 C208.342872,155.630465 210.08414,155.831357 211.824826,155.757645 L212.47926,155.719283 C214.543245,155.587414 216.617717,155.364437 217.702149,155 C217.77766,155.678523 217.882537,156.675929 218,157.915493 Z" id="Path" fill="#5F5D7E"></path>
        <path d="M212.283466,133.666106 L208.74055,135.295722 L206,156 C206,156 207.621405,155.282969 208.546732,155.735187 C209.472058,156.187406 212.327231,155.773891 212.327231,155.773891 C212.327231,155.773891 214.4113,155.659818 214.719742,155.887964 C215.028184,156.11611 218.656547,154.944823 218.656547,154.944823 C218.656547,154.944823 219.313029,153.518909 218.810768,153.284651 C218.308508,153.050394 218.964989,150.840227 218.964989,150.840227 L218.656547,135.904791 L218.031327,133.981844 L216.364072,133 L214.66764,134.319989 L213.856938,134.434063 L212.283466,133.666106 Z" id="Path" fill="#000000" opacity="0.1"></path>
        <path d="M212.289718,133.664069 L208.746802,135.293685 L206,156 C206,156 207.621405,155.282969 208.546732,155.735187 C209.472058,156.187406 212.327231,155.773891 212.327231,155.773891 C212.327231,155.773891 214.4113,155.659818 214.719742,155.885927 C215.028184,156.112036 218.656547,154.944823 218.656547,154.944823 C218.656547,154.944823 219.313029,153.518909 218.810768,153.284651 C218.308508,153.050394 218.964989,150.840227 218.964989,150.840227 L218.656547,135.904791 L218.031327,133.981844 L216.364072,133 L214.66764,134.319989 L213.856938,134.434063 L212.289718,133.664069 Z" id="Path" fill="#E7EFFD"></path>
        <path d="M211.695734,135.29325 C211.695734,135.29325 212.692425,136.472318 212.674156,136.708941 C212.655887,136.945563 212.617318,137.534086 212.617318,137.534086 L211.866248,139.048875 C211.866248,139.048875 211.460264,140.939833 211.460264,141.334204 C211.460264,141.728575 210.802569,145.134322 210.802569,145.134322 L209.996691,150.382489 L209,157.258701 L210.01496,159 L211.218703,157.988792 L212.81625,145.745091 L213.153217,143.330328 C213.153217,143.330328 213.510483,138.98618 213.510483,138.537204 C213.47217,137.991289 213.404408,137.447822 213.307491,136.90916 C213.307491,136.90916 213.553112,135.784697 214.568072,135.523806 C215.583032,135.262914 214.490935,135.467178 214.490935,135.467178 L213.910378,135 L213.402897,135.202242 C213.402897,135.202242 211.996163,134.769445 211.695734,135.29325 Z" id="Path" fill="#000000" opacity="0.1"></path>
        <path d="M211.680186,134.303337 C211.680186,134.303337 212.675103,135.482305 212.656829,135.718908 C212.638555,135.955511 212.599977,136.541962 212.599977,136.541962 L211.848712,138.058645 C211.848712,138.058645 211.442624,139.949444 211.442624,140.341759 C211.442624,140.734075 210.78476,144.141557 210.78476,144.141557 L209.996948,149.383215 L209,156.258847 L210.015222,158 L211.217244,156.988878 L212.815204,144.746208 L213.154288,142.331648 C213.154288,142.331648 213.511646,137.987867 213.511646,137.538928 C213.473286,136.992392 213.405507,136.4483 213.308601,135.908999 C213.308601,135.908999 213.552255,134.786653 214.567476,134.523761 C215.582698,134.26087 214.49235,134.469161 214.49235,134.469161 L213.909613,134 L213.402002,134.202224 C213.402002,134.202224 211.980691,133.779575 211.680186,134.303337 Z" id="Path" fill="#6C63FF"></path>
        <path d="M210.770776,133 C210.770776,133 210.617036,133.103321 210.577562,133.785978 C210.538089,134.468635 210,136 210,136 C210,136 212.000693,134.771218 213,134.907749 L210.770776,133 Z" id="Path" fill="#000000" opacity="0.1"></path>
        <path d="M210.770776,133 C210.770776,133 210.617036,133.103321 210.577562,133.785978 C210.538089,134.468635 210,136 210,136 C210,136 212.000693,134.771218 213,134.907749 L210.770776,133 Z" id="Path" fill="#E7EFFD"></path>
        <path d="M216.416995,132 L213,134.911635 C213,134.911635 215.874508,136.569498 216.250422,136.973588 C216.626337,137.377678 217,133.011318 217,133.011318 L216.416995,132 Z" id="Path" fill="#000000" opacity="0.1"></path>
        <path d="M216.416995,132 L213,134.911635 C213,134.911635 215.876759,136.569498 216.250422,136.973588 C216.624086,137.377678 217,133.011318 217,133.011318 L216.416995,132 Z" id="Path" fill="#E7EFFD"></path>
        <path d="M210.942081,133.028164 C210.942081,133.028164 210.60541,132.85886 210.284963,133.350453 C210.051033,133.670553 209.732817,133.918536 209.366215,134.066424 C209.366215,134.066424 205.948794,134.615132 205.816965,135.067969 L204.220816,135.1618 C204.220816,135.1618 203.656993,135.237272 203.612373,136.428518 C203.567754,137.619764 203.25542,137.729913 203.25542,137.729913 C203.25542,137.729913 202.598302,138.900761 202.646978,139.504543 C202.661782,139.879094 202.465697,140.230132 202.139942,140.412256 L204.486503,146.547988 C204.486503,146.547988 204.561544,149.079386 204.12955,150.003417 C203.697555,150.927449 202.890355,155.027456 202.890355,155.027456 C202.890355,155.027456 203.229055,154.951983 203.208773,155.178401 C203.188492,155.40482 202.803145,157.879103 202.803145,157.879103 C202.803145,157.879103 202.689569,158.860249 202.502979,159.200896 C202.31639,159.541543 202.300165,161.314133 202.300165,161.314133 L202,162.59921 C202,162.59921 202.711878,164.204536 203.800991,163.978118 C204.890103,163.7517 206.85943,159.464031 206.85943,159.464031 L208.116879,154.837754 L209.094443,150.268592 L209.376355,147.172169 L209.826603,140.316386 L210.483721,135.78598 C210.483721,135.78598 211.20574,133.350453 210.942081,133.028164 Z" id="Path" fill="#000000" opacity="0.1"></path>
        <path d="M210.94352,132.028158 C210.94352,132.028158 210.604843,131.85889 210.286445,132.35038 C210.051515,132.670255 209.732725,132.918102 209.365729,133.066201 C209.365729,133.066201 205.948534,133.614793 205.816713,134.067535 L204.222698,134.161346 C204.222698,134.161346 203.658911,134.236803 203.602127,135.42576 C203.545343,136.614717 203.245198,136.728922 203.245198,136.728922 C203.245198,136.728922 202.588123,137.899525 202.636795,138.50318 C202.652556,138.877883 202.45622,139.229319 202.129793,139.410703 L204.484311,145.553307 C204.484311,145.553307 204.559348,148.084174 204.127382,149.008011 C203.695416,149.931849 202.888268,154.030997 202.888268,154.030997 C202.888268,154.030997 203.226946,153.95554 203.208693,154.181911 C203.190441,154.408282 202.803092,156.880007 202.803092,156.880007 C202.803092,156.880007 202.691551,157.862987 202.502946,158.201523 C202.314341,158.54006 202.300145,160.316357 202.300145,160.316357 L202,161.601165 C202,161.601165 202.713859,163.206154 203.8029,162.977744 C204.891941,162.749334 206.863166,158.466642 206.863166,158.466642 L208.120532,153.841335 L209.096004,149.27313 L209.365729,146.16512 L209.815947,139.310774 L210.473022,134.781317 C210.473022,134.781317 211.205133,132.35038 210.94352,132.028158 Z" id="Path" fill="#65617D"></path>
        <path d="M199,147.285227 L197.835141,147.996482 C197.835141,147.996482 196.05423,148.046462 194.780911,147.769649 L194.130152,147.513982 L194,147.464002 L194.13449,147.502448 C194.651619,147.665728 195.213095,147.683186 195.741866,147.552428 C197.390456,147.060317 197.208243,144.649741 197.143167,144.103805 C197.143167,144.048058 197.132321,144.013456 197.130152,144 L197.130152,144.013456 C197.153301,144.046177 197.178654,144.077632 197.206074,144.107649 L197.279826,144.176852 L197.882863,145.203366 C197.884184,145.21808 197.884184,145.232865 197.882863,145.247579 L199,147.285227 Z" id="Path" fill="#000000" opacity="0.1"></path>
        <path d="M202.495868,140 L201.960744,140.146688 L201.884298,141.191343 C201.884298,141.191343 201.264463,141.100158 201.080579,141.815757 C201.007117,142.195095 200.843829,142.553179 200.603306,142.862394 C200.603306,142.862394 199.551653,143.70684 199.493802,144.422438 L198.842975,144.806998 C198.842975,144.806998 197.332645,144.475959 196.983471,143.889208 C196.983471,143.889208 197.673554,148.622862 194,147.457289 C194,147.457289 198.11157,149.181862 198.303719,149.421716 C198.495868,149.66157 199.75,150.357346 200.904959,149.770595 C202.059917,149.183844 202.301653,148.283895 202.301653,148.283895 C202.301653,148.283895 203.411157,146.797194 203.448347,146.577163 C203.485537,146.357131 204.347107,146.099436 204.347107,146.099436 L206,142.283572 L202.495868,140 Z" id="Path" fill="#65617D"></path>
        <path d="M215.391951,134.502845 L215.965955,132 C215.965955,132 216.225114,132.819262 216.48213,133.005644 L217.338853,133.62009 C217.338853,133.62009 218.195576,133.998999 218.489003,133.998999 C218.782431,133.998999 220.39307,134.40863 220.590116,134.613445 C220.787162,134.818261 221.581772,134.670794 221.581772,134.670794 C221.581772,134.670794 222.235023,134.875609 222.81117,135.012836 C223.387316,135.150062 223.667892,136.055346 223.543667,136.415822 C223.446556,136.780254 223.551667,137.16685 223.822102,137.439899 C224.059843,137.667244 224.179784,138.406628 224.179784,138.406628 C224.470902,138.497596 224.712632,138.694892 224.852311,138.955533 C225.051499,139.365164 224.991529,140.282738 224.991529,140.282738 L222.037977,144.26435 C222.037977,144.26435 222.07653,145.800466 221.95873,146.142508 C221.840931,146.48455 222.374241,152.286972 222.374241,152.286972 L222.988939,162.259437 C222.673658,162.524077 222.342547,162.770955 221.997283,162.998821 C221.819513,163.074603 221.641743,159.471899 221.641743,159.340817 C221.641743,159.209735 217.060418,152.786722 217.060418,152.786722 C217.060418,152.786722 216.44572,151.838426 216.44572,151.629515 C216.44572,151.420603 215.871715,149.505578 215.871715,149.505578 L215,145.8189 L215.391951,134.502845 Z" id="Path" fill="#000000" opacity="0.1"></path>
        <path d="M225.994403,140.069365 C225.994403,140.200508 225.994403,140.28657 225.994403,140.28657 L223.044041,144.265927 C223.044041,144.265927 223.084721,145.802754 222.964823,146.144954 C222.896309,146.349864 223.046182,148.384623 223.178927,150.060788 C223.279556,151.269759 223.371621,152.290212 223.371621,152.290212 L223.632829,156.521608 L223.986102,162.259095 C223.670932,162.523856 223.339939,162.770849 222.994797,162.998821 C222.817091,163.074637 222.639384,159.470266 222.639384,159.337075 C222.639384,159.203883 218.059686,152.779947 218.059686,152.779947 C218.059686,152.779947 217.445206,151.831213 217.445206,151.622204 C217.445206,151.413196 216.871406,149.497285 216.871406,149.497285 L216,145.808901 L216.396094,134.504003 L216.732238,132 C216.732238,132 217.22896,132.819641 217.485886,133.00406 L218.342304,133.631085 C218.342304,133.631085 219.198723,134.010169 219.492046,134.010169 C219.785369,134.010169 221.395436,134.41999 221.592412,134.6249 C221.789388,134.82981 222.583716,134.682275 222.583716,134.682275 C222.583716,134.682275 223.238877,134.887185 223.812677,135.024475 C224.386477,135.161765 224.669095,136.067468 224.544915,136.42811 C224.448255,136.79271 224.553276,137.179292 224.823251,137.452661 C225.060907,137.680112 225.180805,138.419838 225.180805,138.419838 C225.471819,138.510848 225.713464,138.708236 225.853094,138.968997 C225.969496,139.324557 226.017378,139.69741 225.994403,140.069365 Z" id="Path" fill="#65617D"></path>
        <path d="M202,190 C202.094189,190 206.074693,190.157407 205.998932,190.827451 C205.923172,191.497495 202,190 202,190 Z" id="Path" fill="#000000" opacity="0.1"></path>
        <path d="M203,191 C203,191 205.558478,191.478043 204.88798,191.913444 C204.217483,192.348845 203,191 203,191 Z" id="Path" fill="#000000" opacity="0.1"></path>
        <path d="M213,190 C213,190 217.620713,190.259801 216.929526,190.59684 C216.238339,190.933879 214.59997,190.987244 214.521038,190.999883 C214.442106,191.012522 213,190 213,190 Z" id="Path" fill="#000000" opacity="0.1"></path>
        <path d="M212,192 C212,192 214.901077,192.412389 214.99778,192.896945 C215.094482,193.381502 212,192 212,192 Z" id="Path" fill="#000000" opacity="0.1"></path>
        <path d="M214,180 C214,180 215.885176,180.595402 216,181 L214,180 Z" id="Path" fill="#000000" opacity="0.1"></path>
        <path d="M205.526966,182 C205.526966,182 204.365951,182.288634 205.490558,182.864173 C206.615165,183.439712 205.526966,182 205.526966,182 Z" id="Path" fill="#000000" opacity="0.1"></path>
        <path d="M210,164.227045 C210.146926,164.227045 212.427667,163.548712 213.223327,163.850194 C213.792025,164.041633 214.392988,164.14361 215,164.151675 L210,164.227045 Z" id="Path" fill="#000000" opacity="0.1"></path>
        <path d="M211,166.078742 L210.977152,166.272958 L209.005331,171.04391 C209.005331,171.04391 208.687738,172.489973 208.413557,173.311167 C208.240373,173.866225 208.102287,174.430122 208,175 L209.745621,165 L211,166.078742 Z" id="Path" fill="#000000" opacity="0.1"></path>
        <polygon id="Path" fill="#3F3D56" points="213 157.987368 212.3821 158 212.363167 158 212 156.035789 212.537005 156"></polygon>
        <path d="M223,155.999732 L222.50625,156.427121 L220.853262,157.851002 C220.853262,157.851002 216.383753,160.350104 215.151525,157.976969 C214.065276,155.885011 219.133724,154.391399 220.355219,154.065233 L220.614974,154 L223,155.999732 Z" id="Path" fill="#FBBEBE"></path>
        <path d="M204,137 C204,137 204.798199,137.369041 204.980589,137.885698 C205.162979,138.402355 204,137 204,137 Z" id="Path" fill="#000000" opacity="0.1"></path>
        <path d="M202,143 C202,143 200.553506,144.389039 201.139923,144.923876 C201.726339,145.458714 202,143 202,143 Z" id="Path" fill="#000000" opacity="0.1"></path>
        <path d="M223,138 C223,138 222.033101,138.104283 222,139 L223,138 Z" id="Path" fill="#000000" opacity="0.1"></path>
        <path d="M213,154 C213.103067,153.874682 215.453374,149.649682 216,150.023398 L213,154 Z" id="Path" fill="#000000" opacity="0.1"></path>
        <path d="M217.991708,128.605689 C217.991922,129.360566 217.808773,130.103776 217.458579,130.769098 L217.425897,130.769098 C217.139927,130.706692 216.990814,130.369699 216.774294,130.157519 C216.499739,129.890964 216.088851,129.832382 215.752973,130.011904 C215.414972,130.217518 215.220349,130.600226 215.250483,131 C215.107498,130.37594 215.152436,129.726917 215.011494,129.109097 C214.870552,128.491278 214.447725,127.860977 213.867615,127.860977 C213.618413,127.860977 213.326315,127.954586 213.146562,127.763207 C213.038302,127.648796 213.015833,127.467819 212.942298,127.328445 C212.53377,126.644059 211.267332,126.989372 210.752586,127.340926 C210.237841,127.69248 209.639347,128.249974 209,128.549523 C209.01805,126.018577 211.047374,123.981742 213.532622,124.000123 C216.01787,124.018505 218.017929,126.085144 217.999879,128.61609 L217.991708,128.605689 Z" id="Path" fill="#000000" opacity="0.1"></path>
        <path d="M212.951082,126.465601 C213.030522,126.599844 213.052368,126.774159 213.149682,126.886363 C213.324449,127.068693 213.608446,126.974522 213.850737,126.978529 C214.41476,126.988548 214.827846,127.59164 214.962894,128.180706 C215.097942,128.769773 215.056236,129.406926 215.197241,130 C215.164457,129.615278 215.353754,129.245793 215.68381,129.05028 C216.01018,128.87811 216.408855,128.933615 216.676807,129.188531 C216.887322,129.388894 217.032299,129.719492 217.310339,129.777597 C217.588378,129.835703 217.854501,129.567216 217.9538,129.272683 C218.025234,128.968319 218.078292,128.659861 218.11268,128.349011 C218.237798,127.771966 218.61315,127.297106 218.819694,126.746109 C219.066117,126.076743 219.059754,125.339294 218.80182,124.674358 C218.6628,124.325726 218.458243,124.01316 218.319223,123.672544 C218.106722,123.14559 218.051114,122.548509 217.792935,122.045598 C217.364916,121.204088 216.394,120.801399 215.503084,121.095879 C215.105885,121.248154 214.756351,121.540684 214.351208,121.672923 C213.807046,121.849243 213.227135,121.717003 212.665099,121.636858 C212.103063,121.556713 211.473503,121.550702 211.02864,121.923377 C210.50831,122.354157 210.365319,123.161619 209.876764,123.632471 C209.678165,123.832834 209.416014,123.957059 209.19954,124.139389 C208.962253,124.315971 208.821618,124.595283 208.820215,124.892753 C208.853977,125.27745 209.217414,125.626081 209.088325,125.982726 C209.040763,126.085407 208.973225,126.177393 208.889725,126.253216 C208.480272,126.686772 208.175761,127.209996 208,127.781984 C208.992997,128.090543 210.049546,126.996562 210.818125,126.479626 C211.322567,126.141013 212.547926,125.808411 212.951082,126.465601 Z" id="Path" fill="#7C5C5C"></path>
        <path d="M223,155.647822 L222.455836,156 C221.98265,155.37164 220,154.118628 220,154.118628 L220.085174,154.053753 L220.371451,154 L223,155.647822 Z" id="Path" fill="#000000" opacity="0.1"></path>
        <path d="M223,154.704578 C223,154.704578 222.828452,155.121118 222.648536,155.481041 C222.468619,155.840963 222.274059,156.168534 222.26569,155.903647 C222.24477,155.377917 220,153.618744 220,153.618744 L220.303347,153.331614 L220.656904,153 L223,154.704578 Z" id="Path" fill="#E7EFFD"></path>
        <path d="M222.768939,152.070409 L223,156 C222.454545,155.149382 220.960227,152.968601 220,153.03901 L222.331439,150.344434 C222.428301,150.235988 222.517532,150.120898 222.598485,150 C222.6875,151.12274 222.768939,152.070409 222.768939,152.070409 Z" id="Path" fill="#000000" opacity="0.1"></path>
        <path d="M223,154.374083 C223,154.374083 222.809154,154.709861 222.608999,155 C221.857254,154.279544 220.826222,153.427058 220,153.267319 L220.393328,153 L223,154.374083 Z" id="Path" fill="#000000" opacity="0.1"></path>
        <path d="M224.660299,140 L225.336204,140.519835 C225.336204,140.519835 226.464744,140.539906 226.57638,141.467178 C226.688016,142.394451 227.723187,142.823967 227.723187,142.823967 C227.723187,142.823967 228.492461,143.586659 228.492461,143.939906 C228.492461,144.293152 229.074998,144.923377 229.074998,144.979575 C229.074998,145.035773 229.639268,146.167769 229.564167,146.372491 C229.489066,146.577214 230.173091,147.468359 229.957938,147.803542 C229.789095,148.104121 229.638624,148.414437 229.507334,148.732822 C229.507334,148.732822 228.624394,150.404723 228.17379,150.719835 C227.723187,151.034947 225.656904,153.694333 225.656904,153.694333 C225.656904,153.694333 223.438391,156.219244 223.438391,157 C223.438391,157 221.278741,153.433412 220,153.525738 L222.498618,150.683707 C222.498618,150.683707 222.930954,150.218064 222.951252,149.941086 C222.971549,149.664109 224.152862,148.379575 224.717132,148.323377 C224.717132,148.323377 224.8105,147.562692 224.56693,147.542621 C224.323361,147.52255 224.116327,146.940496 224.116327,146.940496 C224.116327,146.940496 222.462083,145.007674 222.443815,143.781346 C222.425547,142.555018 224.660299,140 224.660299,140 Z" id="Path" fill="#65617D"></path>
        <path d="M226,141 C226,141 224.773828,142.46386 225.03703,142.938212 C225.300231,143.412564 226,141 226,141 Z" id="Path" fill="#000000" opacity="0.1"></path>
        <path d="M226,146.209588 C226,146.209588 228.721106,145.26644 229,146.209588 L226,146.209588 Z" id="Path" fill="#000000" opacity="0.1"></path>
        <path d="M208,196.268783 C208,196.268783 206.339135,197.315192 205.508703,197.161308 C204.933614,197.091757 204.349892,197.184429 203.828625,197.42804 C203.257661,198.028839 202.536951,198.480039 201.734399,198.739128 C200.389483,199.176157 198.513005,199.003808 197.445611,198.663212 C196.941801,198.501121 196.90124,198.29184 197.144606,198.035367 C198.303796,198.256959 200.897562,198.698092 201.595638,198.378015 C202.365173,197.985412 203.104934,197.541125 203.809412,197.04846 C203.809412,197.04846 205.517242,196.820713 205.745665,196.820713 C205.914313,196.820713 207.227207,196.29956 207.967978,196 L208,196.268783 Z" id="Path" fill="#000000" opacity="0.1"></path>
        <path d="M217,199 C217,199.048907 216.984424,199.08046 216.984424,199.08046 C216.984424,199.08046 216.572764,199.722564 214.285269,199.956056 C211.997775,200.189549 212,199.4165 212,199.4165 L212.022252,199.206672 C212.745438,199.402301 214.325323,199.618439 217,199 Z" id="Path" fill="#000000" opacity="0.1"></path>
        <path d="M205.235636,141 C205.235636,141 205.235636,145.527768 204.867455,145.973896 C204.499273,146.420024 205.235636,141 205.235636,141 Z" id="Path" fill="#000000" opacity="0.1"></path>
        <path d="M222,142 L222.951114,144 C222.951114,144 223.325903,142.037135 222,142 Z" id="Path" fill="#000000" opacity="0.1"></path>
        <g id="Group" opacity="0.1" transform="translate(208.000000, 125.000000)" fill="#000000">
            <path d="M1.23553571,1.20214286 C1.36910714,0.831428571 1.01946429,0.465 0.974285714,0.0664285714 C0.927318343,0.17839273 0.907048011,0.301488926 0.915357143,0.424285714 C0.938928571,0.726428571 1.14321429,1.00714286 1.19625,1.28142857 C1.21155656,1.25637692 1.22470774,1.22983545 1.23553571,1.20214286 Z" id="Path"></path>
            <path d="M7.26982143,5.475 C7.14017857,4.84928571 7.17946429,4.18928571 7.04589286,3.56142857 C6.91232143,2.93357143 6.50375,2.27571429 5.94589286,2.27571429 C5.70625,2.27571429 5.42535714,2.37 5.2525,2.175 C5.14642857,2.05714286 5.12678571,1.87071429 5.05607143,1.725 C4.66321429,1.02214286 3.44535714,1.38 2.94839286,1.74 C2.20589286,2.27785714 1.18053571,3.40714286 0.229821429,3.15 C0.184642857,3.27 0.141428571,3.39214286 0.106071429,3.51857143 C1.08821429,3.84857143 2.13321429,2.67857143 2.89339286,2.12571429 C3.39035714,1.76571429 4.60232143,1.41 5.00107143,2.11285714 C5.07964286,2.25642857 5.10125,2.44285714 5.1975,2.56285714 C5.37035714,2.75785714 5.65125,2.65714286 5.89089286,2.66142857 C6.44875,2.67214286 6.85732143,3.31714286 6.99089286,3.94714286 C7.12446429,4.57714286 7.08321429,5.25857143 7.22267857,5.89285714 C7.21290616,5.75154093 7.22892974,5.60951376 7.26982143,5.475 Z" id="Path"></path>
            <path d="M10.0041071,4.73142857 C9.90589286,5.04642857 9.64660714,5.33571429 9.36571429,5.27142857 C9.08482143,5.20714286 8.94928571,4.86 8.74107143,4.64142857 C8.4762292,4.36869934 8.08224342,4.30852697 7.75892857,4.49142857 C7.45003826,4.69303031 7.26520127,5.06106492 7.27571429,5.45357143 C7.34866975,5.21109736 7.50117074,5.0065756 7.70392857,4.87928571 C8.02673161,4.69515115 8.42104898,4.75451384 8.68607143,5.02714286 C8.89428571,5.24142857 9.03767857,5.595 9.31267857,5.65714286 C9.58767857,5.71928571 9.85089286,5.43214286 9.94910714,5.11714286 C10.0024269,4.93196256 10.0360407,4.74070516 10.0492857,4.54714286 C10.0381531,4.60963783 10.0230573,4.6712144 10.0041071,4.73142857 Z" id="Path"></path>
            <path d="M10.8605357,2.02714286 C10.6641071,2.61428571 10.285,3.12214286 10.16125,3.74142857 C10.1376786,3.86571429 10.1219643,3.99428571 10.1082143,4.12285714 C10.2339286,3.50571429 10.60125,3 10.8055357,2.40857143 C10.8966849,2.1443132 10.9529031,1.86725077 10.9725,1.58571429 C10.9455444,1.73575466 10.9081139,1.88332749 10.8605357,2.02714286 Z" id="Path"></path>
        </g>
        <circle id="Oval" fill="#E6E8EC" cx="191" cy="140" r="1"></circle>
        <rect id="Rectangle" fill="#FFFFFF" x="174" y="142" width="37" height="42" rx="6.61"></rect>
        <rect id="Rectangle" fill="#5A5773" opacity="0.1" x="174" y="142" width="37" height="42" rx="6.61"></rect>
        <rect id="Rectangle" fill="#FFFFFF" x="176" y="144" width="33" height="38" rx="6.61"></rect>
        <rect id="Rectangle" fill="#3C31D5" x="180" y="151" width="23" height="8" rx="4"></rect>
        <rect id="Rectangle" fill="#3C31D5" x="181" y="162" width="21" height="2"></rect>
        <rect id="Rectangle" fill="#3C31D5" x="178" y="165" width="29" height="2"></rect>
        <rect id="Rectangle" fill="#3C31D5" x="178" y="169" width="29" height="2"></rect>
        <rect id="Rectangle" fill="#3C31D5" x="178" y="172" width="29" height="2"></rect>
        <rect id="Rectangle" fill="#FFFFFF" x="0" y="128" width="87" height="42" rx="6.61"></rect>
        <rect id="Rectangle" fill="#5A5773" opacity="0.1" x="0" y="128" width="87" height="42" rx="6.61"></rect>
        <rect id="Rectangle" fill="#FFFFFF" x="5" y="130" width="78" height="38" rx="6.61"></rect>
        <rect id="Rectangle" fill="#3C31D5" x="16" y="137" width="54" height="8" rx="4"></rect>
        <rect id="Rectangle" fill="#3C31D5" x="18" y="148" width="50" height="2"></rect>
        <rect id="Rectangle" fill="#3C31D5" x="9" y="151" width="69" height="2"></rect>
        <rect id="Rectangle" fill="#3C31D5" x="9" y="155" width="69" height="2"></rect>
        <rect id="Rectangle" fill="#3C31D5" x="9" y="158" width="69" height="2"></rect>
        <path d="M21.0109877,199.87817 C21.2551962,198.999115 21.4214221,198.225385 21.4214221,198.225385 C21.425988,197.63781 21.5828238,197.061163 21.8770043,196.550321 L21.8770043,196.307264 L21.9467781,194.522824 C21.8382756,194.194324 21.7009435,193.875793 21.5363437,193.570853 C21.2326223,192.997645 21.6389523,190.953944 21.6389523,190.953944 C21.6389523,190.953944 22.9584989,188.104107 22.7368643,186.254852 C22.5152298,184.405596 25.5319225,178.1874 25.5319225,178.1874 C25.5399689,177.574626 25.4766198,176.96297 25.3431227,176.364476 C25.3188746,176.239729 25.3119704,176.112301 25.322601,175.985713 C25.3215777,175.970201 25.3215777,175.95464 25.322601,175.939127 L25.322601,175.953306 C25.4108444,174.738023 26.4697651,172.510005 26.4697651,172.510005 L26.5087564,168.175497 C26.5087564,168.175497 25.9875047,165.599098 27.1244079,162.210485 C27.5245815,161.02761 27.7872595,160.079689 27.9596419,159.346469 C27.9801636,159.263424 27.9986332,159.184431 28.0150506,159.107463 C25.9464612,158.714522 24.3662889,158.394497 24.3662889,158.394497 C24.3662889,158.394497 25.7679223,153.456399 26.623678,152.615828 C27.4794337,151.775258 28.2305286,149.057076 28.2305286,149.057076 C28.2305286,149.057076 28.7928237,145.553011 28.1484417,144.499766 C27.5040597,143.446521 27.4753293,141.664106 27.4753293,141.664106 C27.4753293,141.664106 25.9526178,140.483257 25.776131,139.978914 C25.5996442,139.474572 25.3184966,138.338283 25.3410705,137.750896 C25.3636444,137.16351 25.5811746,136.636887 25.5278182,136.322939 C25.4744617,136.008991 26.0429133,134.846371 25.8028092,134.275188 C25.7430803,134.099776 25.7152891,133.915312 25.7207223,133.730336 C25.7207223,133.730336 25.7207223,133.730336 25.7207223,133.714132 C25.7377798,133.223609 25.8030718,132.735881 25.9156787,132.257819 C26.3821937,131.89785 26.9207735,131.639658 27.4958511,131.500292 L27.5348423,131.366611 L27.6374509,131.020256 C27.6879055,130.989242 27.7399645,130.960847 27.793416,130.935186 L27.8036769,130.807581 L27.8365116,130.303239 L27.6395031,129.152772 C27.2290687,127.155657 29.9215183,126.963237 29.9215183,126.963237 C30.0948411,126.665991 30.3732778,126.442389 30.7033958,126.335341 C31.2492735,126.169253 30.6787697,129.314809 30.4181439,129.507229 C30.2129267,129.651037 29.5972751,130.621238 29.2997102,131.097224 L29.2504581,131.176217 C29.293661,131.216867 29.3334658,131.260895 29.369484,131.307873 L29.2401972,131.990456 L29.2196755,132.093756 C29.3890794,132.318015 29.5239309,132.56578 29.619849,132.829002 C29.619849,132.829002 29.1088582,133.33942 29.1847886,133.934909 C29.20692,134.398141 29.1372104,134.861183 28.9795714,135.298051 C29.0083018,135.267669 29.3674319,134.913211 29.7080924,135.014485 C30.048753,135.115758 30.9968564,135.437808 30.9968564,135.437808 C30.9968564,135.437808 31.7089601,135.589719 31.637134,135.743654 C31.565308,135.89759 32.0947684,136.602454 32.0947684,136.602454 L34.0915317,134.874727 C34.1141056,134.82004 34.1346273,134.767377 34.155149,134.71269 C34.2471374,134.457978 34.3158177,134.195643 34.3603662,133.928832 C34.1498671,133.872137 33.9440536,133.799685 33.7447146,133.712107 C33.5445693,133.636152 33.3658138,133.513902 33.223463,133.355624 C33.0387675,133.120669 33.0182458,132.808747 32.9464197,132.523155 C32.8150807,131.964125 32.5072549,131.457758 32.2917769,130.921008 C31.9303138,130.020462 31.8349627,129.037218 32.0167858,128.085348 C32.0606246,127.793682 32.1730778,127.516207 32.3451334,127.27516 C32.6775852,126.859938 33.2542455,126.708028 33.6831495,126.383953 C34.1120534,126.059877 34.3993575,125.547433 34.8918787,125.310453 C35.3392522,125.095753 35.8707648,125.144364 36.3612338,125.241587 C37.3136877,125.43338 38.221776,125.798071 39.0393182,126.317112 C39.3143093,126.493328 39.6159785,126.695875 39.9422739,126.649289 C40.2130583,126.578191 40.4516471,126.41906 40.6194906,126.197609 C40.6185827,126.188178 40.6185827,126.178684 40.6194906,126.169253 L40.6420645,126.146973 C40.8284869,126.601636 40.911164,127.091244 40.8842208,127.581006 C40.8842208,127.655948 40.8842208,127.732916 40.8678034,127.807859 C40.8678034,127.83419 40.8678034,127.860521 40.8678034,127.886852 C40.8657527,127.909086 40.8657527,127.931458 40.8678034,127.953693 C40.866842,127.987198 40.8709928,128.020655 40.8801165,128.052941 C40.9161392,128.152814 40.9743362,128.243472 41.0504467,128.318277 C41.106213,128.385979 41.1556663,128.458515 41.1982031,128.535003 C41.1982031,128.508672 41.1838379,128.482341 41.1756292,128.45601 C41.2918167,128.637866 41.3530405,128.848659 41.352116,129.063651 C41.3568479,129.220355 41.2985648,129.37254 41.1899944,129.486974 C41.0908109,129.577771 40.9821176,129.657891 40.8657513,129.72598 C41.0785888,131.232451 40.3187873,132.710464 38.9613357,133.430566 C38.9367096,133.483229 38.9120836,133.537916 38.8895097,133.592604 C38.5840625,134.236344 38.4364293,134.942008 38.4585536,135.652508 C38.4585536,135.703145 38.4585536,135.753782 38.4749709,135.804418 C38.4913883,135.855055 38.5221709,135.859106 38.5426926,135.887463 C38.5426926,135.887463 41.7235591,136.039373 42.4992801,135.397299 C43.2750011,134.755224 44.3257132,137.104771 44.3257132,137.104771 C44.3257132,137.104771 45.4585121,137.366057 45.6945118,137.157433 C45.9305116,136.94881 47.2623712,137.18579 47.2623712,137.18579 C47.826782,136.726319 48.5475324,136.49668 49.277604,136.543715 C49.7364512,136.226466 50.2388264,135.975477 50.7695331,135.798342 L50.8064721,135.786189 C51.0386387,135.711586 51.2849636,135.690114 51.5267845,135.7234 C51.5267845,135.7234 53.1418438,134.508117 53.6241042,133.837686 C54.1063646,133.167255 56.3699103,130.710359 56.3699103,130.698206 L56.3842755,130.576678 L56.4232667,130.208042 C56.486835,130.221053 56.5513297,130.229179 56.6161709,130.232348 L56.665423,130.104743 C56.8041403,129.748733 56.9723017,129.404592 57.1682052,129.075804 C57.1682052,129.075804 57.1866747,128.60792 57.0532835,128.486392 C56.9198924,128.364863 57.1825704,126.663468 57.1825704,126.663468 C57.1825704,126.663468 58.7196472,123.463223 59.887333,125.940374 C59.887333,125.940374 62.214496,127.603286 60.137698,129.357344 C60.137698,129.357344 59.3168292,129.709776 59.1998554,130.00752 C59.1177685,130.210067 58.8243079,130.740741 58.6272994,131.099249 L58.539056,131.259261 L58.5616299,131.279516 L58.5205865,131.583337 L58.5041691,131.70284 C58.8715079,131.927667 59.1198207,132.146418 59.052099,132.310481 C58.9298594,132.575959 58.8422831,132.855687 58.7914732,133.14295 C58.7914732,133.14295 55.889702,136.444467 55.4751633,137.900781 C55.4751633,137.900781 47.8698141,141.98008 45.4195208,142.198831 L45.7581292,144.394441 C45.7983026,144.987039 45.8078918,145.581271 45.7868596,146.17483 C45.7355553,146.640689 45.9797637,148.769459 45.9797637,148.769459 C45.9797637,148.769459 46.281433,151.900837 46.6241457,152.350492 C46.9668584,152.800146 46.8293629,154.66763 46.8293629,154.66763 C46.8807894,155.565363 47.0098619,156.457115 47.2151712,157.33315 C47.5271014,158.530204 47.2151712,159.984492 47.2151712,159.984492 C47.2151712,159.984492 48.345918,162.83433 45.4523555,160.821011 C45.4523555,160.821011 43.9994178,160.677203 42.3248455,160.5577 C42.3248455,160.610362 42.3248455,160.667076 42.3248455,160.721763 C42.3248455,160.936463 42.3145847,161.167367 42.3084281,161.410424 C42.2673847,163.016622 42.1914543,165.228436 42.0519066,166.89945 C41.805646,169.854612 40.6646384,175.675816 40.6646384,175.675816 L40.5497168,178.6168 C40.5985136,178.895594 40.6164045,179.178804 40.6030733,179.461422 C40.5837389,180.499206 40.2655735,181.51013 39.6857524,182.376074 L39.3799788,184.330654 C39.3799788,184.330654 38.7951098,185.60265 38.7540663,186.374354 C38.752967,186.437534 38.7584685,186.500657 38.7704837,186.562723 C38.7855309,186.66259 38.7903436,186.763699 38.7848489,186.864518 C38.7848489,187.755726 38.15278,189.866266 38.15278,189.866266 C38.15278,189.866266 38.0358062,192.015291 37.7054065,192.126692 C37.4222067,192.223915 38.0296496,193.380459 38.2102408,193.712636 C38.216962,193.692874 38.2217719,193.672529 38.224606,193.651872 L38.2635972,193.716687 C38.3239914,193.8933 38.3511167,194.079334 38.3436319,194.26559 C38.3685779,194.56659 38.216104,194.854964 37.9516671,195.006912 C37.317546,195.357318 36.9727811,195.655063 37.4940328,195.800897 C37.6864743,195.837924 37.8768873,195.88457 38.0645366,195.940654 L38.0953191,195.869763 C38.246965,195.934387 38.3324208,196.09464 38.3005363,196.254602 C38.2862826,196.509298 38.2095167,196.756758 38.0768496,196.97567 C37.8241126,197.528436 37.5073339,198.050438 37.1328505,198.531232 L36.8824855,198.494773 C36.9163512,198.589677 36.9618359,198.680143 37.0179289,198.764161 C37.1077187,198.903568 37.2301961,199.019589 37.3750068,199.102414 C37.5081212,199.187276 37.657686,199.243841 37.8141716,199.268503 C38.1717498,199.294542 38.5013784,199.468989 38.7212316,199.74854 C39.0290574,200.175914 39.2117007,200.749122 38.5488491,201.221057 L36.1867992,201.925921 C36.1867992,201.925921 32.1563335,202.28848 32.4025942,201.409426 C32.6488548,200.530372 32.8130286,199.756642 32.8130286,199.756642 C32.8173492,199.212982 32.9494148,198.677726 33.1988369,198.192978 C33.2444153,198.114188 33.2951429,198.03841 33.3506976,197.966125 L33.2090977,197.94587 C33.2090977,197.94587 32.9751501,195.971036 32.5893418,195.588222 C32.5031506,195.497076 32.4846811,195.430235 32.5072549,195.385675 C32.472368,195.278325 32.5749766,195.219586 32.7124721,195.183128 C32.7124721,195.207434 32.7309417,195.233765 32.7391504,195.260096 C32.8679237,195.238651 32.9985304,195.229831 33.129063,195.233765 C33.129063,195.233765 33.2993933,194.210902 32.8910111,193.815935 C32.8242451,193.727868 32.7988497,193.615813 32.8212372,193.508063 C32.8220854,193.36698 32.8421015,193.226647 32.8807502,193.090816 C32.8847664,193.099339 32.8895755,193.107476 32.8951154,193.115122 C33.1454804,192.191507 33.9212014,190.737219 33.9212014,190.737219 C33.9212014,190.737219 33.9889231,189.803477 33.7426625,189.418637 C33.4964018,189.033798 33.9745579,184.342807 33.9745579,184.342807 C33.9745579,184.342807 33.964297,182.066177 34.298801,181.019009 C34.6333051,179.97184 34.0299665,178.699844 34.0299665,178.699844 C34.0299665,178.699844 34.0299665,178.675539 34.0402274,178.633004 C34.0409051,178.626946 34.0409051,178.620833 34.0402274,178.614775 C34.0402274,178.614775 34.0607491,178.475017 34.0935839,178.258292 L34.0935839,178.280572 C34.1838794,177.672931 34.3501053,176.597406 34.4609226,176.095089 C34.6189399,175.384148 34.5902095,171.950975 34.5902095,171.950975 L34.0586969,170.472381 L32.9156372,172.955609 L31.684334,176.277381 C31.684334,176.277381 31.1076737,176.966041 31.0686824,177.695211 C31.0686824,177.731669 31.0686824,177.766102 31.0686824,177.802561 C31.0737531,177.87742 31.0737531,177.952529 31.0686824,178.027388 C31.0703828,178.452702 30.9352974,178.867579 30.6828741,179.212289 C30.6828741,179.212289 30.3278483,180.790131 29.8620053,181.176996 C29.3961623,181.563861 29.3592232,182.343667 29.3592232,182.343667 C29.3592232,182.343667 28.7148412,184.628398 28.437798,185.023365 C28.2059026,185.355542 28.1566504,186.293335 28.1484417,186.580952 C28.1484417,186.633615 28.1484417,186.663997 28.1484417,186.663997 C28.1484417,186.663997 28.0396766,187.486338 28.0150506,188.179049 C28.0150506,188.264119 28.0150506,188.347163 28.0150506,188.424131 C28.0140472,188.418775 28.0140472,188.413283 28.0150506,188.407927 C28.0072486,188.596056 28.0224068,188.784428 28.0601983,188.968983 C28.0601983,188.968983 28.0601983,188.991263 28.0601983,189.003416 L28.0601983,188.885938 C28.1576876,189.360251 28.1955963,189.844611 28.1730678,190.328074 C28.1545983,191.156491 27.9883723,192.132769 27.4568598,192.689773 C26.5374868,193.653897 25.9895569,193.499961 25.9895569,193.499961 C25.9895569,193.499961 26.3651043,194.76183 26.8760951,195.031218 C26.8957761,195.041474 26.9143423,195.05369 26.9315038,195.067676 C26.9315038,195.04337 26.9315038,195.019065 26.945869,194.996785 C27.0556375,195.12782 27.1047619,195.298253 27.0813123,195.466694 C27.0977297,196.015597 26.7119214,196.884524 26.3630521,197.289618 C26.2360368,197.405384 26.0814435,197.487597 25.9136265,197.528623 C25.9391722,197.547799 25.9659021,197.565387 25.9936612,197.581286 C26.0505806,197.61454 26.1095211,197.644304 26.170148,197.670406 C26.2529319,197.710262 26.3415898,197.736924 26.432826,197.7494 C26.7910759,197.773144 27.1215974,197.948064 27.339886,198.229436 C27.6477118,198.654785 27.8303551,199.227994 27.1675036,199.699928 L24.8054536,200.404792 C24.8054536,200.404792 20.7626749,200.757224 21.0109877,199.87817 Z" id="Path" fill="url(#linearGradient-3)"></path>
        <path d="M36.4424854,202.915133 L38.5901952,202.131008 C39.193095,201.605263 39.027442,200.969425 38.7481434,200.495356 C38.5530567,200.187946 38.2526884,199.995126 37.9256572,199.967363 C37.7821141,199.939744 37.645419,199.876119 37.5250082,199.780881 C37.3938575,199.688202 37.2835746,199.560335 37.2033333,199.407916 C37.0585804,199.114495 36.9859369,198.780224 36.9933778,198.441803 C36.9933778,198.441803 34.6934983,197.543092 34.0308865,198.309243 C33.9137533,198.448375 33.8144895,198.606537 33.7361783,198.778819 C33.5088765,199.319032 33.3877937,199.911603 33.381758,200.51333 C33.381758,200.51333 33.235367,201.369351 33.0100019,202.346699 C32.7846369,203.324046 36.4424854,202.915133 36.4424854,202.915133 Z" id="Path" fill="#2D293D"></path>
        <path d="M25.4440532,200.919812 L27.5904465,200.136374 C28.1929766,199.611088 28.0274252,198.975807 27.7482978,198.504397 C27.5532841,198.195839 27.2522356,198.002263 26.9243908,197.974622 C26.8413214,197.961799 26.7606559,197.932972 26.6856888,197.889319 C26.6307423,197.85941 26.5773873,197.825678 26.5259124,197.788302 C25.9484075,197.381992 25.9926829,196.441416 25.9926829,196.441416 C25.9926829,196.441416 23.6942133,195.543492 23.0320077,196.308972 C22.9431779,196.412267 22.8644153,196.5267 22.7971557,196.650184 C22.5281043,197.220573 22.3851967,197.860162 22.3813522,198.511131 C22.3813522,198.511131 22.2331259,199.368649 22.009824,200.342896 C21.7865221,201.317144 25.4440532,200.919812 25.4440532,200.919812 Z" id="Path" fill="#2D293D"></path>
        <path d="M34.3377778,198.220265 C34.2034288,198.319316 34.0896637,198.43179 34,198.554209 L38,199 C37.833001,198.79133 37.7491934,198.55361 37.7577778,198.312938 C37.7577778,198.312938 35.1111111,197.675409 34.3377778,198.220265 Z" id="Path" fill="#000000" opacity="0.1"></path>
        <path d="M23.025578,197.587172 L23,198.265051 C23.5194294,199.214881 26.2051156,199.116899 27,198.682976 C26.9438399,198.656334 26.8893064,198.626286 26.8366945,198.592992 C26.2464338,198.231057 26.2916872,197.393207 26.2916872,197.393207 C26.2916872,197.393207 23.9424496,196.59335 23.2656173,197.275228 C23.1743603,197.369744 23.093842,197.474381 23.025578,197.587172 Z" id="Path" fill="#000000" opacity="0.1"></path>
        <path d="M22.1067161,194.078547 C22.2674266,194.38306 22.4027306,194.700256 22.5112567,195.026921 L22.4121443,197.476549 C22.9946827,198.525813 26.2431437,198.307889 26.7002746,197.767115 C27.1574055,197.22634 27.6792629,195.783602 27.1917914,195.51725 C26.70432,195.250898 26.3463016,193.991781 26.3463016,193.991781 C26.3463016,193.991781 26.8701817,194.137064 27.7500575,193.184655 C28.6299333,192.232246 28.4640716,190.01063 28.3265278,189.477927 C28.188984,188.945224 28.4175494,187.181653 28.4175494,187.181653 C28.4175494,187.181653 28.4337311,185.938678 28.6987052,185.545204 C28.9636792,185.15173 29.5806037,182.875634 29.5806037,182.875634 C29.5806037,182.875634 29.6089215,182.098775 30.0599843,181.713372 C30.511047,181.327969 30.8528838,179.754073 30.8528838,179.754073 C31.1234696,179.36869 31.2514522,178.901505 31.2149477,178.432403 C31.1522439,177.653526 31.8055769,176.838329 31.8055769,176.838329 L32.9929036,173.529111 L34.0851632,171.053251 L34.5888163,172.53231 C34.5888163,172.53231 34.6130887,175.952508 34.461386,176.660761 C34.3096832,177.369014 34.0568454,179.255672 34.0568454,179.255672 C34.0568454,179.255672 34.631293,180.520843 34.3117059,181.566071 C33.9921189,182.6113 33.9961643,184.877307 33.9961643,184.877307 C33.9961643,184.877307 33.534988,189.552586 33.7696215,189.933953 C34.0042551,190.315321 33.9375059,191.245534 33.9375059,191.245534 C33.9375059,191.245534 32.5580225,193.927211 32.9463814,194.316649 C33.3347404,194.706088 33.1729242,195.729121 33.1729242,195.729121 C33.1729242,195.729121 32.3031619,195.694818 32.6611803,196.082238 C33.0191987,196.469659 33.2113555,198.420887 33.2113555,198.420887 L36.9553788,199 C37.3141396,198.518594 37.6167968,197.998008 37.8575043,197.4483 C38.3995887,196.320341 37.804914,196.421231 37.3093518,196.277966 C36.8137895,196.134702 37.1414674,195.836065 37.7462556,195.486983 C38.3510438,195.1379 38.0415703,194.286382 38.0415703,194.286382 C38.0415703,194.286382 37.1981031,192.730646 37.5156675,192.619666 C37.8332318,192.508686 37.9444805,190.367784 37.9444805,190.367784 C37.9444805,190.367784 38.6645628,187.845514 38.5351098,187.157439 C38.4056568,186.469364 39.1237164,184.849058 39.1237164,184.849058 L39.4149856,182.903883 C40.1241259,181.820931 40.4178656,180.519133 40.2422711,179.237512 L40.3595879,176.22693 C40.3595879,176.22693 41.4599383,170.437817 41.7067081,167.483734 C41.8604335,165.599094 41.9372962,163.022344 41.9716822,161.414144 C41.9919092,160.510163 42,159.912889 42,159.912889 L28.6157743,158 C28.5692246,158.668884 28.4615748,159.332133 28.2941646,159.981495 C28.1303256,160.713962 27.8774877,161.6583 27.4850834,162.836705 C26.3887783,166.21251 26.8782725,168.779172 26.8782725,168.779172 L26.8357957,173.097298 C26.8357957,173.097298 25.5412658,175.938383 25.7536496,176.941237 C25.8805193,177.538091 25.9402214,178.147206 25.9316475,178.757272 C25.9316475,178.757272 23.0513184,184.947931 23.2616795,186.782125 C23.4720406,188.61632 22.2078513,191.465476 22.2078513,191.465476 C22.2078513,191.465476 21.8174696,193.507505 22.1067161,194.078547 Z" id="Path" fill="#575988"></path>
        <path d="M31,178.529308 L27,178 C27,178 29.1888668,179.838968 31,178.529308 Z" id="Path" fill="#000000" opacity="0.05"></path>
        <path d="M27.2963012,173 C27.2963012,173 27.0837034,174.424 28,175 C27.9914961,174.996 26.3438629,174.69 27.2963012,173 Z" id="Path" fill="#000000" opacity="0.1"></path>
        <path d="M28,169 C28,169 31.492912,172.190297 32.8136893,171.99104 C34.1344667,171.791784 28,169 28,169 Z" id="Path" fill="#000000" opacity="0.1"></path>
        <path d="M36,180 C36,180 38.9554145,180.702322 38.9995251,181.761965 C39.0436358,182.821609 36,180 36,180 Z" id="Path" fill="#000000" opacity="0.1"></path>
        <path d="M34.5847621,193 C34.5847621,193 37.7511994,193.830954 36.8329326,194.260687 C35.9146657,194.690421 34.410608,194.999992 34.410608,194.999992 C34.410608,194.999992 33.3797568,195.020359 34.5847621,193 Z" id="Path" fill="#000000" opacity="0.05"></path>
        <g id="Group" opacity="0.05" transform="translate(22.000000, 159.000000)" fill="#000000">
            <path d="M15.6707071,35.5815385 C15.8613372,35.4700995 15.9920527,35.2770426 16.0262626,35.0564103 L16.0606061,35.1241026 C16.0606061,35.1241026 16.3717172,35.9876923 15.7656566,36.3548718 C15.6969697,36.3938462 15.6323232,36.4348718 15.5636364,36.4738462 C15.4565657,36.4492308 15.3393939,36.4287179 15.2282828,36.3958974 C14.7353535,36.2420513 15.0646465,35.9384615 15.6707071,35.5815385 Z" id="Path"></path>
            <path d="M10.9555556,35.1466667 C10.8585859,35.0482051 10.8727273,34.8061538 10.9555556,34.4964103 C11.0947002,34.7824582 11.1547485,35.1014984 11.1292929,35.4194872 C11.0926719,35.316262 11.0332379,35.2229325 10.9555556,35.1466667 Z" id="Path"></path>
            <path d="M12.1151515,19.4748718 C12.2356973,19.8538879 12.30369,20.248099 12.3171717,20.6461538 C12.2577325,20.369172 12.1725007,20.0985534 12.0626263,19.8379487 C12.0626263,19.8379487 12.0848485,19.6964103 12.1151515,19.4748718 Z" id="Path"></path>
            <path d="M3.78585859,17.4912821 C3.76530279,17.3769842 3.75784576,17.2606545 3.76363636,17.1446154 C3.8020202,17.3825641 3.82626263,17.6020513 3.84040404,17.7948718 C3.82424242,17.6964103 3.80606061,17.5958974 3.78585859,17.4912821 Z" id="Path"></path>
            <path d="M11.7777778,30.6933333 C11.7170595,30.4642284 11.6951984,30.2262992 11.7131313,29.9897436 C11.8172443,30.2743189 11.8666215,30.5765332 11.8585859,30.88 C11.8389687,30.8147692 11.8118454,30.7521145 11.7777778,30.6933333 Z" id="Path"></path>
            <path d="M10.7838384,36.6071795 C10.9530511,37.2481387 11.0712765,37.9018656 11.1373737,38.5620513 L14.8767677,39.1507692 C15.2363957,38.6618854 15.5394005,38.1325891 15.779798,37.5733333 C15.8282828,37.4728205 15.8646465,37.3825641 15.8969697,37.3005128 C16.1171717,37.4133333 16.1979798,37.6553846 15.8747475,38.3364103 C15.6341078,38.8944758 15.3318347,39.4229898 14.9737374,39.9117949 L11.2262626,39.3271795 C11.2262626,39.3271795 11.0242424,37.3292308 10.6626263,36.9374359 C10.4949495,36.7425641 10.620202,36.654359 10.7838384,36.6071795 Z" id="Path"></path>
            <path d="M15.9616162,31.1405128 C15.9616162,31.1405128 15.8484848,33.3169231 15.5333333,33.4297436 C15.389899,33.0625641 15.2969697,32.7179487 15.4383838,32.6666667 C15.7535354,32.5517949 15.8686869,30.3774359 15.8686869,30.3774359 C15.8686869,30.3774359 16.5878788,27.8153846 16.4585859,27.1138462 C16.3292929,26.4123077 17.0444444,24.7692308 17.0444444,24.7692308 L17.3373737,22.7897436 C18.0456372,21.6888306 18.3390138,20.3654414 18.1636364,19.0625641 L18.2787879,16.0020513 C18.2787879,16.0020513 19.3737374,10.1066667 19.6121212,7.11384615 C19.7636364,5.19794872 19.840404,2.57846154 19.8767677,0.943589744 C19.8767677,0.648205128 19.8888889,0.385641026 19.8929293,0.164102564 L20,0.180512821 C20,0.180512821 20,0.795897436 19.9717172,1.70461538 C19.9373737,3.34564103 19.8606061,5.96102564 19.7070707,7.87692308 C19.4686869,10.8676923 18.3757576,16.7651282 18.3757576,16.7651282 L18.2585859,19.8235897 C18.4340049,21.1261939 18.1413932,22.4493684 17.4343434,23.5507692 L17.1393939,25.5302564 C17.1393939,25.5302564 16.4222222,27.1712821 16.5515152,27.8769231 C16.6808081,28.5825641 15.9616162,31.1405128 15.9616162,31.1405128 Z" id="Path"></path>
            <path d="M4.63030303,37.9015385 C4.95173281,37.4647182 5.17388804,36.9610319 5.28080808,36.4266667 C5.65050505,36.7917949 5.15959596,38.1394872 4.72525253,38.6625641 C4.29090909,39.185641 1.02424242,39.4338462 0.442424242,38.3692308 L0.464646465,37.7682051 C1.27272727,38.6461538 4.1979798,38.4225641 4.63030303,37.9015385 Z" id="Path"></path>
            <path d="M0.0424242424,34.145641 C0.202936003,34.4552039 0.338072675,34.7776608 0.446464646,35.1097436 L0.428282828,35.5507692 C0.343576783,35.3312259 0.24782791,35.1162421 0.141414141,34.9066667 C0.0524205338,34.6551902 0.0166257464,34.3874918 0.0363636364,34.1210256 L0.0424242424,34.145641 Z" id="Path"></path>
            <path d="M4.55959596,34.8266667 C4.45030605,34.5794841 4.35717503,34.3252582 4.28080808,34.065641 C4.28080808,34.065641 4.8040404,34.2112821 5.68080808,33.2348718 C6.31919192,32.5230769 6.40606061,31.1384615 6.35353535,30.2276923 C6.49090909,30.7712821 6.65454545,33.0194872 5.77777778,33.9958974 C5.2,34.6358974 4.77777778,34.7938462 4.55959596,34.8266667 Z" id="Path"></path>
            <path d="M6.44040404,27.8933333 C6.36189646,28.5132499 6.31738336,29.1371181 6.30707071,29.7620513 C6.29503797,29.6626665 6.27750178,29.5640488 6.25454545,29.4666667 C6.11919192,28.9230769 6.34343434,27.1323077 6.34343434,27.1323077 C6.34343434,27.1323077 6.36161616,25.8687179 6.62424242,25.4687179 C6.88686869,25.0687179 7.50505051,22.7548718 7.50505051,22.7548718 C7.50505051,22.7548718 7.53535354,21.9671795 7.98585859,21.5733333 C8.43636364,21.1794872 8.77777778,19.5815385 8.77777778,19.5815385 C9.04710938,19.1893264 9.17484225,18.7147332 9.13939394,18.2379487 C9.07676768,17.4461538 9.72929293,16.6174359 9.72929293,16.6174359 L10.9151515,13.2533333 L12.0060606,10.7364103 L12.5090909,12.2420513 C12.5090909,12.2420513 12.5090909,12.4266667 12.5090909,12.7220513 L12.1050505,11.4912821 L11.0141414,14.0061538 L9.82828283,17.3723077 C9.82828283,17.3723077 9.17575758,18.1928205 9.23838384,18.9928205 C9.27484321,19.469703 9.1470189,19.9446359 8.87676768,20.3364103 C8.87676768,20.3364103 8.53535354,21.934359 8.08484848,22.3261538 C7.63434343,22.7179487 7.60606061,23.5076923 7.60606061,23.5076923 C7.60606061,23.5076923 6.98787879,25.8215385 6.72525253,26.2235897 C6.46262626,26.625641 6.44040404,27.8933333 6.44040404,27.8933333 Z" id="Path"></path>
        </g>
        <path d="M28.0366701,129.804948 L28.2158657,130.943719 L28.1853643,131.44671 L28.1624883,131.816911 L29.3806372,132 L29.5274251,131.738445 C29.7981249,131.265633 30.3585878,130.301903 30.535877,130.157042 C30.7684501,129.965905 31.2869735,126.841327 30.7951388,127.006308 C30.4952191,127.115346 30.2440299,127.337462 30.0897943,127.630016 C30.0897943,127.630016 27.6763726,127.823165 28.0366701,129.804948 Z" id="Path" fill="#FFCDD3"></path>
        <path d="M29,131.730634 L29.8924581,132 L30,131.615191 C29.7626962,131.000933 29.3547821,130.823086 29.0223464,131.188942 L29,131.730634 Z" id="Path" fill="#000000" opacity="0.1"></path>
        <path d="M28,131.678789 L29.8199566,132 L29.867679,131.823264 L30,131.350565 C29.8074776,131.171725 29.512535,131.049966 29.180623,131.012308 C28.8487111,130.97465 28.5072826,131.024207 28.2321041,131.149983 L28.1279826,131.389839 L28,131.678789 Z" id="Path" fill="#DCE6F2"></path>
        <path d="M56,130.018585 L57.6887693,131 C57.6887693,131 57.7594531,130.865999 57.8587925,130.682928 C58.0364571,130.348869 58.3000885,129.846838 58.374593,129.665654 C58.487305,129.388215 59.2208881,129.057931 59.2208881,129.057931 C61.0949635,127.421611 58.9992848,125.875883 58.9992848,125.875883 C57.94858,123.567671 56.5616495,126.551549 56.5616495,126.551549 C56.5616495,126.551549 56.322853,128.142574 56.4432064,128.250152 C56.5635599,128.35773 56.5463665,128.799366 56.5463665,128.799366 C56.3683362,129.106036 56.2162624,129.426716 56.0916979,129.758133 C56.0324763,129.914782 56,130.018585 56,130.018585 Z" id="Path" fill="#FFCDD3"></path>
        <path d="M56,130.20304 L57.8170606,131 C57.8170606,131 57.8931141,130.891184 58,130.742521 C57.7451182,130.5724 56.8448099,129.976213 56.5385406,130.000735 C56.3922814,130.011664 56.2449231,130.011664 56.0986639,130.000735 C56.0349435,130.118746 56,130.20304 56,130.20304 Z" id="Path" fill="#000000" opacity="0.1"></path>
        <path d="M56,130.792833 L57.9083969,132 L57.9618321,131.511758 L58,131.175812 C58,131.175812 56.9160305,129.99776 56.5839695,130.024636 C56.4146162,130.044608 56.2437058,130.036313 56.0763359,130 L56.0419847,130.407615 L56,130.792833 Z" id="Path" fill="#DCE6F2"></path>
        <path d="M33,137.069094 C33,137.069094 42.5518317,138.463483 40.7810474,137.83913 C39.5477839,137.402083 39.081788,136.621641 39.0124305,135.772521 C38.9886688,135.043955 39.1368621,134.319666 39.445915,133.653884 C39.6968297,133.081663 40.0068776,132.535047 40.3714045,132.022241 C40.3714045,132.022241 33.1929006,127.878619 34.5193633,131.45408 C34.7243416,131.994954 34.8420188,132.562734 34.8683183,133.137752 C34.889148,133.708493 34.8025068,134.278158 34.6125625,134.819343 C34.3010967,135.697558 33.743057,136.476102 33,137.069094 Z" id="Path" fill="#FFCDD3"></path>
        <path d="M34.1636227,131.516482 C34.3684317,132.080568 34.4860116,132.672714 34.5122894,133.272409 C35.179304,133.877976 35.937275,133.869294 36.9096436,133.906192 C37.6567866,133.936579 38.4753953,134.149287 39.0752753,133.810691 C39.3259827,133.213913 39.6357744,132.643839 40,132.109026 C40,132.109026 32.8382562,127.787579 34.1636227,131.516482 Z" id="Path" fill="#000000" opacity="0.1"></path>
        <circle id="Oval" fill="#FFCDD3" cx="37.5" cy="130.5" r="3.5"></circle>
        <path d="M33,137.208247 C33,137.208247 42.5518317,138.394201 40.7810474,137.863177 C39.5477839,137.49146 39.081788,136.827679 39.0124305,136.105486 C38.5551043,135.668276 37.610108,135.333731 37.0010622,135.151412 C36.4465376,134.980853 35.8412077,134.953663 35.2671241,135.073529 C35.0381627,135.120582 34.8190292,135.195149 34.6168973,135.294789 C34.3042266,136.042142 33.7446497,136.704352 33,137.208247 Z" id="Path" fill="#000000" opacity="0.1"></path>
        <path d="M28,131.498861 L29.9488966,132 L30,131.724264 C29.5932851,131.152961 28.8504518,130.882655 28.1416957,131.048056 L28,131.498861 Z" id="Path" fill="#000000" opacity="0.1"></path>
        <path d="M56,131.236544 L57.9455253,132 L58,131.691218 C57.3693806,131.425759 56.7125854,131.194719 56.0350195,131 L56,131.236544 Z" id="Path" fill="#000000" opacity="0.1"></path>
        <path d="M29,159.741135 C32.5123967,160.338652 37.5330579,161.129433 38.3409091,160.946809 C39.0123967,160.796099 41.1301653,160.884752 42.9710744,161 C42.9917355,160.205674 43,159.680851 43,159.680851 L29.3285124,158 C29.2809636,158.587746 29.1710034,159.170542 29,159.741135 Z" id="Path" fill="#000000" opacity="0.1"></path>
        <path d="M25,158.871147 C25,158.871147 36.2960389,161.284991 37.5312284,160.95731 C38.7664178,160.62963 45.0169195,161.278885 45.0169195,161.278885 C47.7633521,163.297884 46.6933919,160.436278 46.6933919,160.436278 C46.6933919,160.436278 46.9976556,158.974946 46.6933919,157.772095 C46.4985182,156.891041 46.3765266,155.995143 46.3286786,155.093664 C46.3286786,155.093664 46.463683,153.217134 46.1392694,152.767337 C45.8148559,152.31754 45.5347722,149.168959 45.5347722,149.168959 C45.5347722,149.168959 45.3070782,147.029878 45.355438,146.561763 C45.4037978,146.093649 45.3312581,144.772751 45.3312581,144.772751 L45.0108745,142.566506 C47.346249,142.34466 54.5780513,138.237462 54.5780513,138.237462 C54.9810495,136.7802 57.739572,133.438267 57.739572,133.438267 C57.789065,133.150255 57.8729641,132.86937 57.9894309,132.601767 C58.19093,132.109228 55.4444974,131 55.4444974,131 C55.4444974,131 53.2662922,133.485079 52.8149343,134.156722 C52.3635763,134.828365 50.8180783,136.053604 50.8180783,136.053604 C50.5879456,136.02123 50.3535229,136.042819 50.1329814,136.116698 L50.0967116,136.116698 C49.5931269,136.296967 49.1180343,136.549931 48.6862179,136.867717 C47.9882006,136.823726 47.3005148,137.05502 46.7679466,137.512901 C46.7679466,137.512901 45.5045473,137.276809 45.2808833,137.486443 C45.0572193,137.696077 43.9791992,137.435561 43.9791992,137.435561 C43.9791992,137.435561 42.9717038,135.078704 42.244292,135.723889 C41.5168803,136.369073 38.4823041,136.220497 38.4823041,136.220497 C38.1014708,135.66283 37.1342751,135.237456 36.5297779,135.013575 C36.0144713,134.816414 35.4513903,134.785132 34.9177852,134.924023 C34.6862414,134.981547 34.4661281,135.078601 34.2669431,135.210998 L32.3647917,136.953199 C32.3647917,136.953199 31.863059,136.244921 31.9315687,136.090239 C32.0000784,135.935558 31.3270714,135.784947 31.3270714,135.784947 C31.3270714,135.784947 30.4384604,135.467443 30.1019569,135.361609 C29.7654535,135.255774 29.4370099,135.613983 29.4088001,135.646548 C29.5626359,135.207325 29.6310547,134.74223 29.6102992,134.276803 C29.5397745,133.678431 30.0233723,133.163504 30.0233723,133.163504 C29.0420717,130.430121 26.5092282,132.589555 26.5092282,132.589555 C26.5092282,132.589555 26.1727247,134.048852 26.4004187,134.624837 C26.6281126,135.200821 26.0860801,136.367038 26.1344399,136.682506 C26.1827997,136.997975 25.9792856,137.523078 25.9571207,138.11738 C25.9349558,138.711682 26.2009346,139.85144 26.3601189,140.35619 C26.5193031,140.86094 27.9721116,142.049544 27.9721116,142.049544 C27.9721116,142.049544 27.9983064,143.836521 28.6088487,144.898938 C29.2193909,145.961355 28.6834033,149.478322 28.6834033,149.478322 C28.6834033,149.478322 27.9580066,152.207635 27.1499953,153.054312 C26.3419839,153.900989 25,158.871147 25,158.871147 Z" id="Path" fill="#656691"></path>
        <path d="M43.0649493,139 C43.0649493,139 43.5232508,137.909487 43.8991065,137.820065 C44.2758624,137.71001 44.6437045,137.576649 45,137.420938 L44.7769114,137 C44.7769114,137 43.3607841,137.2988 43.1231463,137.654308 C42.8855085,138.009815 43.0649493,139 43.0649493,139 Z" id="Path" fill="#000000" opacity="0.1"></path>
        <path d="M49,136.520111 C49.0540346,136.73509 52,137 52,137 L50.5626801,136 L50.5259366,136 C49.98049,136.124696 49.4664021,136.299921 49,136.520111 Z" id="Path" fill="#000000" opacity="0.1"></path>
        <circle id="Oval" fill="#575988" cx="57.5" cy="132.5" r="1"></circle>
        <circle id="Oval" fill="#575988" cx="57.5" cy="133.5" r="1"></circle>
        <circle id="Oval" fill="#575988" cx="56.5" cy="133.5" r="1"></circle>
        <circle id="Oval" fill="#575988" cx="56.5" cy="134.5" r="1"></circle>
        <ellipse id="Oval" fill="#575988" cx="27" cy="133" rx="1" ry="1"></ellipse>
        <ellipse id="Oval" fill="#575988" cx="27" cy="133" rx="1" ry="1"></ellipse>
        <ellipse id="Oval" fill="#575988" cx="27" cy="134" rx="1" ry="1"></ellipse>
        <path d="M42.9999032,147.000104 C43.0312837,146.965488 35.4267378,155.607098 30,150.245798 C30,150.245798 38.8493065,151.752582 42.9999032,147.000104 Z" id="Path" fill="#000000" opacity="0.1"></path>
        <path d="M46,152.000292 C46,152.000292 41.5638616,151.944808 41.0512601,153.363262 L41,154.861323 C41.2511009,155.032393 41.5623364,155.046054 41.824434,154.897509 C42.2815036,154.644213 45.0111064,153.223347 45.9316531,154.004944 L46,152.000292 Z" id="Path" fill="#000000" opacity="0.1"></path>
        <path d="M47,152.000196 C47,152.000196 42.5652368,151.963104 42.0513852,152.908962 L42,153.907086 C42.2509207,154.02196 42.5626636,154.030885 42.8243968,153.93069 C43.2712243,153.762088 46.0125112,152.81623 46.9329759,153.335525 L47,152.000196 Z" id="Path" fill="#656691"></path>
        <path d="M44,143 C43.5729255,143.957616 43.0413991,144.857198 42.4166282,145.679778 C41.7338739,146.589416 40.9175984,147.373128 40,148 C40,148 43.9150115,143.556218 44,143 Z" id="Path" fill="#000000" opacity="0.1"></path>
        <path d="M46,138 C46,138 45.0874525,141.03173 43,142 L46,138 Z" id="Path" fill="#000000" opacity="0.1"></path>
        <path d="M46.9465637,138.000975 C46.970696,137.941222 47.578832,140.643385 44,142 C44,142 45.5131003,141.586155 46.9465637,138.000975 Z" id="Path" fill="#000000" opacity="0.1"></path>
        <path d="M28.9989214,136.003566 C29.0474696,136.003566 27.4432666,136.679501 27,137 C27.010554,137 28.0765046,135.930656 28.9989214,136.003566 Z" id="Path" fill="#000000" opacity="0.1"></path>
        <path d="M38.7321952,133.437221 C38.6941971,133.633544 38.5835287,133.808362 38.4222423,133.926839 C38.3113799,133.975346 38.1905616,133.996843 38.0697468,133.989559 C36.9373045,134.017884 35.758268,134.021931 34.7311692,133.546474 C34.5389754,133.470251 34.3685193,133.34796 34.2348394,133.190388 C34.0565658,132.955695 34.0322558,132.646142 33.9694548,132.358846 C33.843853,131.800437 33.5501068,131.296656 33.3454974,130.760503 C33.0009424,129.85784 32.9119282,128.877849 33.0882162,127.927998 C33.1288123,127.637615 33.2362972,127.360593 33.4022208,127.118711 C33.7182512,126.703952 34.2713044,126.55221 34.6805233,126.226472 C35.0897421,125.900734 35.3652558,125.390883 35.8393014,125.152143 C36.264727,124.937682 36.7732118,124.984216 37.2411799,125.083354 C38.1598031,125.275637 39.0331064,125.641676 39.8139916,126.161729 C40.0753244,126.337749 40.3629931,126.538048 40.6749718,126.491514 C40.9423936,126.417389 41.1757969,126.25293 41.3353944,126.026174 C41.5360172,126.540664 41.6096718,127.09583 41.550133,127.644748 C41.535932,127.725055 41.535932,127.807227 41.550133,127.887534 C41.5847336,127.986355 41.6399773,128.0767 41.7121998,128.152576 C41.9775844,128.486407 42.1335737,129.00435 41.845905,129.319972 C41.7203032,129.457551 41.5319004,129.522294 41.4103503,129.669989 C41.19156,129.920868 41.2462576,130.297187 41.2381542,130.631017 C41.2455059,130.747067 41.2125962,130.862102 41.1449658,130.956756 C41.0171356,131.064852 40.8424427,131.099286 40.6830752,131.0478 C40.5268194,130.994621 40.3616232,130.972623 40.1968746,130.983057 C40.0210993,131.033539 39.8675936,131.141924 39.7613198,131.290587 C39.2123183,131.925877 38.9854247,132.648166 38.7321952,133.437221 Z" id="Path" fill="#2D293D"></path>
        <g id="Group" opacity="0.1" transform="translate(34.000000, 126.000000)" fill="#000000">
            <path d="M0.114,6.8 C0.245284638,6.95315702 0.413721138,7.07187583 0.604,7.14536585 C1.618,7.60390244 2.782,7.59804878 3.9,7.57268293 C4.01949318,7.58002719 4.1390037,7.55858432 4.248,7.5102439 C4.4075453,7.39712865 4.51695756,7.22898992 4.554,7.04 C4.8,6.27707317 5.028,5.58243902 5.57,4.96195122 C5.67459319,4.81785018 5.82617952,4.71260817 6,4.66341463 C6.16261103,4.6543375 6.32550745,4.67552728 6.48,4.72585366 C6.63726142,4.77668814 6.81032795,4.74336339 6.936,4.63804878 C7.00292508,4.54757783 7.03545573,4.43718752 7.028,4.32585366 C7.028,4.00390244 6.982,3.64097561 7.198,3.39707317 C7.318,3.26243902 7.504,3.20195122 7.628,3.06146341 C7.79201543,2.85878797 7.82959386,2.58494615 7.726,2.34731707 C7.91,2.65756098 7.98,3.0497561 7.74,3.30536585 C7.616,3.43804878 7.432,3.5004878 7.31,3.64292683 C7.094,3.88487805 7.15,4.24780488 7.142,4.5697561 C7.14952527,4.68199966 7.11624034,4.79323733 7.048,4.88390244 C6.92197374,4.98850363 6.74931124,5.02175059 6.592,4.97170732 C6.43842668,4.92042571 6.27599185,4.89920757 6.114,4.90926829 C5.9394459,4.95806623 5.78710014,5.06334582 5.682,5.20780488 C5.142,5.82634146 4.914,6.52292683 4.666,7.28390244 C4.65894898,7.44170718 4.58438104,7.58939259 4.46044073,7.69102253 C4.33650042,7.79265247 4.17455119,7.83890901 4.014,7.81853659 C2.896,7.84390244 1.732,7.84780488 0.716,7.38926829 C0.526415038,7.3154768 0.358197741,7.19758234 0.226,7.04585366 C0.159986876,6.95676274 0.110565927,6.85702919 0.08,6.75121951 C0.0899426053,6.76836205 0.101314314,6.78467727 0.114,6.8 Z" id="Path"></path>
            <path d="M7.438,1.86536585 C7.38838256,1.80901428 7.35278927,1.74223514 7.334,1.6702439 C7.31998013,1.59279438 7.31998013,1.51354708 7.334,1.43609756 C7.38231357,0.999445589 7.34152932,0.557782019 7.214,0.136585366 L7.234,0.115121951 C7.43374526,0.610888937 7.50718022,1.14654396 7.448,1.67609756 C7.43887814,1.73876888 7.43553142,1.80211166 7.438,1.86536585 Z" id="Path"></path>
        </g>
        <path d="M39,136.073326 C39,136.073326 34.3815261,136.511289 34,135.794252" id="Path" fill="#000000" opacity="0.1"></path>
        <path d="M30,134.003169 C30,134.003169 27.5682398,133.891086 27,135" id="Path" fill="#000000" opacity="0.1"></path>
    </g>
</svg>