<svg xmlns="http://www.w3.org/2000/svg" width="134.7114" height="119.4528" viewBox="0 0 134.7114 119.4528"><title>private-sector</title><g id="Layer_2" data-name="Layer 2"><g id="Register"><path d="M123.0505,101.831c4.96-2.824,9.92-5.6479,11.22-11.625,1.5791-6.5793-1.336-14.5049-4.8078-21.226s-7.9861-13.5586-9.0944-20.6492c-1.6852-11.3772,4.6918-21.2208,1.0835-32.3906C119.14,8.293,112.1452,2.8675,105.4039.8481S92.3363.6556,86.4958,3.8035C64.293,15.4689,54.8689,46.9282,31.2541,56.1136,20.8485,60.4407,6.46,60.7341,1.6114,72.0151-2.4021,81.4893,1.4137,94.5822,9.38,102.65c13.199,14.1407,37.0162,16.3779,52.1689,16.8032,22.4052-.2426,42.8215-7.2519,61.5019-17.6218" fill="#f4f7f8"/><path d="M69.75,80.8731a3.0218,3.0218,0,0,0,.5-1.6l.6.4a2.6178,2.6178,0,0,0,1.7.5,1.2683,1.2683,0,0,0,.6-.1,3.364,3.364,0,0,0,2-1.3,3.0218,3.0218,0,0,0,.5-1.6,2.6178,2.6178,0,0,0,1.7.5,1.2683,1.2683,0,0,0,.6-.1,2.969,2.969,0,0,0,2-1.3,3.0217,3.0217,0,0,0,.5-1.6l.2.1a2.6172,2.6172,0,0,0,1.7.5,1.27,1.27,0,0,0,.6-.1,2.969,2.969,0,0,0,2-1.3,3.1532,3.1532,0,0,0,.5-2.3,3.364,3.364,0,0,0-1.3-2l-9.7-6.6h-1.9a3.2819,3.2819,0,0,1-3.5-2.5l-.1-.7h-6.8l-.1.6a4.6978,4.6978,0,0,1-1.5,3,2.6072,2.6072,0,0,1-1.1.3v-4.2l4.9-2.8h13.6c.1.2.1.3.2.5l7.1,10.4a2.223,2.223,0,0,0,1.3.8h.3a2.7155,2.7155,0,0,0,1.7-.6c2-1.6,4.1-3.1,6.2-4.5l-.8-1.2c-2.1,1.4-4.2,3-6.3,4.5a1.6129,1.6129,0,0,1-.9.3c-.2,0-.3-.1-.3-.2l-7.1-10.4a.438.438,0,0,1-.1-.3,1.3444,1.3444,0,0,1,.6-.7c1.5-.9,3-1.9,4.5-2.9l-.8-1.3c-1.5,1-3,1.9-4.4,2.8a2.5445,2.5445,0,0,0-1.1,1.2H56.75a2.5445,2.5445,0,0,0-1.1-1.2c-1.5-.9-3-1.9-4.4-2.8l-.8,1.3c1.5,1,3,1.9,4.5,2.9a1.874,1.874,0,0,1,.6.7c0,.2,0,.3-.1.3l-7.1,10.4a1.2411,1.2411,0,0,1-.3.2,1.6129,1.6129,0,0,1-.9-.3q-3.15-2.4-6.3-4.5l-.8,1.2c2.1,1.4,4.2,2.9,6.2,4.5a2.7155,2.7155,0,0,0,1.7.6h.3a2.2235,2.2235,0,0,0,1.3-.8l.4-.1a9.3366,9.3366,0,0,1,1.3,1.5,2.1859,2.1859,0,0,0,.3.5c0,.1,0,.1.1.2-.2.2-.5.4-.6.6a2.47,2.47,0,0,0-.5,2.2,2.865,2.865,0,0,0,1.1,1.9l.1.1a2.7155,2.7155,0,0,0,1.7.6h.4v.3a2.47,2.47,0,0,0,1.2,1.9,2.7919,2.7919,0,0,0,1.8.6,1.2683,1.2683,0,0,0,.6-.1v.2a2.47,2.47,0,0,0,1.2,1.9,2.7919,2.7919,0,0,0,1.8.6,1.7018,1.7018,0,0,0,.7-.1h0a2.8907,2.8907,0,0,0,1.1,1.8,3.0218,3.0218,0,0,0,1.6.5,2.5176,2.5176,0,0,0,2-.9,2.9344,2.9344,0,0,0,1.6.4A2.79,2.79,0,0,0,69.75,80.8731Zm-17.2-7.6-.1-.1a1.4562,1.4562,0,0,1-.6-.9.9593.9593,0,0,1,.3-1,1.3818,1.3818,0,0,1,1.1-.6,1.1355,1.1355,0,0,1,.8.3l.1.1a1.4562,1.4562,0,0,1,.6.9,1.0775,1.0775,0,0,1-.2.8l-.3.3A1.2484,1.2484,0,0,1,52.55,73.2731Zm3.3,2.8a1.7005,1.7005,0,0,1-.6-1,1.1628,1.1628,0,0,1,.2-1l.2-.2a.52.52,0,0,0,.2-.4l.6-.8a1.4255,1.4255,0,0,1,1.2-.6,1.6129,1.6129,0,0,1,.9.3,1.4613,1.4613,0,0,1,.3,2.1l-1,1.3A1.5291,1.5291,0,0,1,55.85,76.0731Zm3.6,2.6a1.7005,1.7005,0,0,1-.6-1,1.1285,1.1285,0,0,1,.3-1.1l1.8-2.5a1.4255,1.4255,0,0,1,1.2-.6,1.6129,1.6129,0,0,1,.9.3,1.7005,1.7005,0,0,1,.6,1,1.1285,1.1285,0,0,1-.3,1.1l-1.8,2.5A1.5662,1.5662,0,0,1,59.45,78.6731Zm5.4,1.7-.3.3a1.2355,1.2355,0,0,1-1.7.2,1.3741,1.3741,0,0,1-.5-.8,1.4861,1.4861,0,0,1,.2-.9l.3-.3a1.2308,1.2308,0,0,1,1-.5,1.4453,1.4453,0,0,1,.7.2,1.3741,1.3741,0,0,1,.5.8A1.1628,1.1628,0,0,1,64.85,80.3731Zm1.6.1a2.4622,2.4622,0,0,0,.1-1.2,2.8907,2.8907,0,0,0-1.1-1.8,3.08,3.08,0,0,0-1.2-.5l.2-.2a2.937,2.937,0,0,0-.7-4.1,3.2114,3.2114,0,0,0-3.4-.1,3.316,3.316,0,0,0-1-1.4,3.2114,3.2114,0,0,0-3.4-.1,2.56,2.56,0,0,0-1-1.3v-.1a2.8768,2.8768,0,0,0-2-.5c0-.1-.1-.2-.1-.3l-.3-.6a9.161,9.161,0,0,0-1.7-2.1l5.8-8.5a.7638.7638,0,0,0,.2-.5h4.5l-3.4,1.9v6.4l.5.2a3.93,3.93,0,0,0,2.8-.4,4.923,4.923,0,0,0,2.1-3.4h4.3a4.6349,4.6349,0,0,0,4.8,3.2h1.4l9.3,6.3a1.8338,1.8338,0,0,1,.7,1,1.3829,1.3829,0,0,1-.3,1.2,1.5982,1.5982,0,0,1-2.2.4l-2.4-1.6h0l-6.7-4.6-.8,1.2,6.7,4.6a1.5982,1.5982,0,0,1,.4,2.2,1.8338,1.8338,0,0,1-1,.7,1.3829,1.3829,0,0,1-1.2-.3l-6.7-4.6-.1.1h0l-.6,1.2,4.6,3a1.8338,1.8338,0,0,1,.7,1,1.3829,1.3829,0,0,1-.3,1.2,1.8338,1.8338,0,0,1-1,.7,1.7212,1.7212,0,0,1-1.2-.2l-4.3-3.1-.9,1.2,1.6,1.1h0a1.8338,1.8338,0,0,1,.7,1,1.7212,1.7212,0,0,1-.2,1.2A1.7522,1.7522,0,0,1,66.45,80.4731Z" fill="#373a3c"/><rect x="84.6419" y="61.1933" width="1.5" height="1.5" transform="translate(-20.0874 60.2476) rotate(-35.0361)" fill="#3c31d5"/><rect x="86.3223" y="63.6974" width="1.5" height="1.5" transform="translate(-21.219 61.612) rotate(-35.0075)" fill="#3c31d5"/><rect x="48.7273" y="60.9588" width="1.4999" height="1.4999" transform="translate(-29.4388 67.0213) rotate(-55.1291)" fill="#3c31d5"/><rect x="47.0327" y="63.3998" width="1.4999" height="1.4999" transform="translate(-32.1672 66.6764) rotate(-55.1291)" fill="#3c31d5"/><rect x="69.4496" y="30.7731" width="1.5" height="1.5" fill="#30a95b"/><rect x="73.1496" y="30.7731" width="1.5" height="1.5" fill="#30a95b"/><rect x="76.8496" y="30.7731" width="1.5" height="1.5" fill="#30a95b"/><rect x="80.5496" y="30.7731" width="1.5" height="1.5" fill="#30a95b"/><path d="M46.45,79.4731v7.1a31.2176,31.2176,0,0,1,21-54.3v-1.5a32.6886,32.6886,0,0,0-22.4,56.6h-6.7v1.5h9.5v-9.5h-1.4Z" fill="#373a3c"/><path d="M89.75,38.5731h6.7v-1.5h-9.5v9.5h1.5v-7.1a30.915,30.915,0,0,1,10.3,23,31.24,31.24,0,0,1-31.2,31.2v1.5a32.7768,32.7768,0,0,0,32.7-32.7A32.32,32.32,0,0,0,89.75,38.5731Z" fill="#373a3c"/><rect x="63.9496" y="93.6731" width="1.5" height="1.5" fill="#30a95b"/><rect x="60.2496" y="93.6731" width="1.5" height="1.5" fill="#30a95b"/><rect x="56.5496" y="93.6731" width="1.5" height="1.5" fill="#30a95b"/><rect x="52.8496" y="93.6731" width="1.5" height="1.5" fill="#30a95b"/></g></g></svg>