<svg xmlns="http://www.w3.org/2000/svg" width="113.0888" height="113.0374" viewBox="0 0 113.0888 113.0374"><title>register</title><g id="Layer_2" data-name="Layer 2"><g id="Register"><path d="M36.4542,0C52.9033,0,65.8733,3.3885,73.97,24.8389c10.2507,27.1663,35.0923,19.0244,38.4861,35.4122,4.0709,19.7122-11.0931,52.7863-57.2465,52.7863S.0237,75.54.0237,61.3175-2.2,0,36.4542,0Z" fill="#f4f7f8"/><path d="M95.3907,17.2474v39.224H80.4054c-1.9934,0-2.5208-2.645-1.9313-4.1885a2.0476,2.0476,0,0,1,.8532-.9773,6.5076,6.5076,0,1,0-7.1049,0,2.1015,2.1015,0,0,1,.8532.9851c.59,1.5513.0621,4.1884-1.9313,4.1884H56.1667V41.4938c0-1.9934-2.6371-2.5208-4.1884-1.9313a2.1015,2.1015,0,0,0-.9851.8532,6.4921,6.4921,0,1,1,0-7.1049,2.048,2.048,0,0,0,.9851.861c1.5513.59,4.1884.062,4.1884-1.9313V17.2474Z" fill="#dceeff"/><path d="M39.1027,37.6622a6.4921,6.4921,0,0,0,11.8828,2.7535,2.101,2.101,0,0,1,.9928-.8144c1.5513-.59,4.1884-.0621,4.1884,1.9313V56.4714H41.1892c-1.9934,0-2.5209,2.6371-1.9314,4.1884a2.1026,2.1026,0,0,0,.8532.9851,6.4921,6.4921,0,1,1-7.1048,0,2.0481,2.0481,0,0,0,.8532-.9773c.59-1.5513.062-4.1885-1.9314-4.1885H16.9427V17.2474h39.224V32.2327c0,1.9934-2.6449,2.5208-4.1884,1.9313a2.0472,2.0472,0,0,1-.9773-.8532,6.5,6.5,0,0,0-11.8983,4.3514Z" fill="#dceeff"/><path d="M66.7774,82.5793a6.5229,6.5229,0,0,1-5.4294-2.9474,2.0481,2.0481,0,0,0-.9773-.8532c-1.5513-.59-4.1885-.062-4.1885,1.9313V95.6954h-39.24V56.4714H31.9281c1.9933,0,2.5208,2.6449,1.9313,4.1884a2.0481,2.0481,0,0,1-.8532.9773,6.5078,6.5078,0,1,0,7.1048,0,2.1028,2.1028,0,0,1-.8532-.985c-.59-1.5513-.062-4.1885,1.9314-4.1885H56.1667V71.4412c0,1.9934,2.6372,2.5208,4.1885,1.9313a2.1017,2.1017,0,0,0,.985-.8532A6.5,6.5,0,1,1,66.77,82.6026Z" fill="#dceeff"/><path d="M56.1667,17.2474V32.2327c0,1.9934-2.6449,2.5208-4.1884,1.9313a2.0472,2.0472,0,0,1-.9773-.8532,6.5075,6.5075,0,1,0,0,7.1049,2.1016,2.1016,0,0,1,.9773-.8144c1.5513-.59,4.1884-.0621,4.1884,1.9313V56.4714H41.1892c-1.9934,0-2.5209,2.6371-1.9314,4.1884a2.1026,2.1026,0,0,0,.8532.9851,6.4921,6.4921,0,1,1-7.1048,0,2.0481,2.0481,0,0,0,.8532-.9773c.59-1.5513.062-4.1885-1.9314-4.1885H16.9427" fill="none" stroke="#373a3c" stroke-miterlimit="10" stroke-width="1.5"/><path d="M95.3907,56.4714v39.224H56.1667V80.71c0-1.9933,2.6449-2.5208,4.1885-1.9313a2.0481,2.0481,0,0,1,.9773.8532,6.5078,6.5078,0,1,0,0-7.1048,2.1026,2.1026,0,0,1-.9851.8532c-1.5513.59-4.1884.062-4.1884-1.9314V56.4714H71.1365c1.9934,0,2.5208-2.6372,1.9314-4.1885a2.1023,2.1023,0,0,0-.8532-.985,6.4921,6.4921,0,1,1,7.1048,0,2.0477,2.0477,0,0,0-.8532.9773c-.59,1.5513-.062,4.1884,1.9313,4.1884Z" fill="#25cb55"/><path d="M56.1667,95.6954V92.5928" fill="none" stroke="#373a3c" stroke-miterlimit="10" stroke-width="1.5"/><path d="M56.1667,90.2737V80.71c0-1.9933,2.6449-2.5208,4.1885-1.9313a2.0481,2.0481,0,0,1,.9773.8532,6.5078,6.5078,0,1,0,0-7.1048,2.1026,2.1026,0,0,1-.9851.8532c-1.5513.59-4.1884.062-4.1884-1.9314V60.73" fill="none" stroke="#373a3c" stroke-miterlimit="10" stroke-width="1.5" stroke-dasharray="7.9778 2.9917"/><path d="M56.1667,59.5739V56.4714h3.1026" fill="none" stroke="#373a3c" stroke-miterlimit="10" stroke-width="1.5"/><path d="M61.5962,56.4714H71.152c1.9934,0,2.5209-2.6372,1.9314-4.1885a2.1023,2.1023,0,0,0-.8532-.985,6.4921,6.4921,0,1,1,7.1048,0,2.0477,2.0477,0,0,0-.8532.9773c-.59,1.5513-.062,4.1884,1.9313,4.1884H91.1324" fill="none" stroke="#373a3c" stroke-miterlimit="10" stroke-width="1.5" stroke-dasharray="7.9778 2.9917"/><path d="M92.2882,56.4714h3.1025" fill="none" stroke="#373a3c" stroke-miterlimit="10" stroke-width="1.5"/><path d="M100.8047,91.3906l-9.7188,9.7187L88.6892,88.9939Z" fill="#3c31d5"/><path d="M91.9971,94.8663,94.5639,92.3l7.5249,7.5248-2.5668,2.5668Z" fill="#3c31d5"/><path d="M80.9018,81.1987l5.8561,5.8638m-7.004,3.0793,6.143,1.6443m3.94-11.7353,1.6444,6.1508" fill="none" stroke="#000" stroke-miterlimit="10"/></g></g></svg>