<?xml version="1.0" encoding="UTF-8"?>
<svg width="234px" height="234px" viewBox="0 0 234 234" version="1.1" xmlns="http://www.w3.org/2000/svg" xmlns:xlink="http://www.w3.org/1999/xlink">
    <!-- Generator: Sketch 52.3 (67297) - http://www.bohemiancoding.com/sketch -->
    <title>Site / Illustrations / Register</title>
    <desc>Created with Sketch.</desc>
    <defs>
        <linearGradient x1="5.14868712%" y1="3.20913552%" x2="114.914584%" y2="84.8799547%" id="linearGradient-1">
            <stop stop-color="#808080" stop-opacity="0.25" offset="0%"></stop>
            <stop stop-color="#808080" stop-opacity="0.12" offset="54%"></stop>
            <stop stop-color="#808080" stop-opacity="0.1" offset="100%"></stop>
        </linearGradient>
        <linearGradient x1="90.5007592%" y1="105.043501%" x2="9.47232457%" y2="-4.78569428%" id="linearGradient-2">
            <stop stop-color="#808080" stop-opacity="0.25" offset="0%"></stop>
            <stop stop-color="#808080" stop-opacity="0.12" offset="54%"></stop>
            <stop stop-color="#808080" stop-opacity="0.1" offset="100%"></stop>
        </linearGradient>
        <linearGradient x1="92.3712161%" y1="100.053264%" x2="10.708621%" y2="-9.7152819%" id="linearGradient-3">
            <stop stop-color="#808080" stop-opacity="0.25" offset="0%"></stop>
            <stop stop-color="#808080" stop-opacity="0.12" offset="54%"></stop>
            <stop stop-color="#808080" stop-opacity="0.1" offset="100%"></stop>
        </linearGradient>
        <linearGradient x1="20.3880464%" y1="107.744369%" x2="79.5988935%" y2="-7.72661193%" id="linearGradient-4">
            <stop stop-color="#808080" stop-opacity="0.25" offset="0%"></stop>
            <stop stop-color="#808080" stop-opacity="0.12" offset="54%"></stop>
            <stop stop-color="#808080" stop-opacity="0.1" offset="100%"></stop>
        </linearGradient>
        <linearGradient x1="49.9978909%" y1="100%" x2="49.9978909%" y2="0%" id="linearGradient-5">
            <stop stop-color="#808080" stop-opacity="0.25" offset="0%"></stop>
            <stop stop-color="#808080" stop-opacity="0.12" offset="54%"></stop>
            <stop stop-color="#808080" stop-opacity="0.1" offset="100%"></stop>
        </linearGradient>
        <linearGradient x1="50.0059759%" y1="100.010506%" x2="50.0059759%" y2="0%" id="linearGradient-6">
            <stop stop-color="#808080" stop-opacity="0.25" offset="0%"></stop>
            <stop stop-color="#808080" stop-opacity="0.12" offset="54%"></stop>
            <stop stop-color="#808080" stop-opacity="0.1" offset="100%"></stop>
        </linearGradient>
        <linearGradient x1="50.0139782%" y1="100%" x2="50.0139782%" y2="0%" id="linearGradient-7">
            <stop stop-color="#808080" stop-opacity="0.25" offset="0%"></stop>
            <stop stop-color="#808080" stop-opacity="0.12" offset="54%"></stop>
            <stop stop-color="#808080" stop-opacity="0.1" offset="100%"></stop>
        </linearGradient>
        <linearGradient x1="90.5289945%" y1="104.989466%" x2="9.49565084%" y2="-4.83867432%" id="linearGradient-8">
            <stop stop-color="#808080" stop-opacity="0.25" offset="0%"></stop>
            <stop stop-color="#808080" stop-opacity="0.12" offset="54%"></stop>
            <stop stop-color="#808080" stop-opacity="0.1" offset="100%"></stop>
        </linearGradient>
        <linearGradient x1="91.5690575%" y1="102.780179%" x2="9.90915827%" y2="-6.97454049%" id="linearGradient-9">
            <stop stop-color="#808080" stop-opacity="0.25" offset="0%"></stop>
            <stop stop-color="#808080" stop-opacity="0.12" offset="54%"></stop>
            <stop stop-color="#808080" stop-opacity="0.1" offset="100%"></stop>
        </linearGradient>
        <linearGradient x1="20.3871502%" y1="107.73295%" x2="79.5967091%" y2="-7.73259672%" id="linearGradient-10">
            <stop stop-color="#808080" stop-opacity="0.25" offset="0%"></stop>
            <stop stop-color="#808080" stop-opacity="0.12" offset="54%"></stop>
            <stop stop-color="#808080" stop-opacity="0.1" offset="100%"></stop>
        </linearGradient>
        <linearGradient x1="18.112013%" y1="111.127761%" x2="76.8019481%" y2="-4.79214572%" id="linearGradient-11">
            <stop stop-color="#808080" stop-opacity="0.25" offset="0%"></stop>
            <stop stop-color="#808080" stop-opacity="0.12" offset="54%"></stop>
            <stop stop-color="#808080" stop-opacity="0.1" offset="100%"></stop>
        </linearGradient>
        <linearGradient x1="49.995351%" y1="100%" x2="49.995351%" y2="0%" id="linearGradient-12">
            <stop stop-color="#808080" stop-opacity="0.25" offset="0%"></stop>
            <stop stop-color="#808080" stop-opacity="0.12" offset="54%"></stop>
            <stop stop-color="#808080" stop-opacity="0.1" offset="100%"></stop>
        </linearGradient>
        <linearGradient x1="50.0021091%" y1="100.004305%" x2="50.0021091%" y2="0%" id="linearGradient-13">
            <stop stop-color="#808080" stop-opacity="0.25" offset="0%"></stop>
            <stop stop-color="#808080" stop-opacity="0.12" offset="54%"></stop>
            <stop stop-color="#808080" stop-opacity="0.1" offset="100%"></stop>
        </linearGradient>
        <linearGradient x1="50%" y1="100%" x2="50%" y2="0%" id="linearGradient-14">
            <stop stop-color="#808080" stop-opacity="0.25" offset="0%"></stop>
            <stop stop-color="#808080" stop-opacity="0.12" offset="54%"></stop>
            <stop stop-color="#808080" stop-opacity="0.1" offset="100%"></stop>
        </linearGradient>
        <linearGradient x1="49.9916514%" y1="100%" x2="49.9916514%" y2="0%" id="linearGradient-15">
            <stop stop-color="#808080" stop-opacity="0.25" offset="0%"></stop>
            <stop stop-color="#808080" stop-opacity="0.12" offset="54%"></stop>
            <stop stop-color="#808080" stop-opacity="0.1" offset="100%"></stop>
        </linearGradient>
    </defs>
    <g id="Site-/-Illustrations-/-Register" stroke="none" stroke-width="1" fill="none" fill-rule="evenodd">
        <g id="undraw_filter_4kje" transform="translate(0.000000, 13.000000)">
            <g id="Group" opacity="0.5" transform="translate(62.000000, 55.000000)">
                <polygon id="Rectangle" fill="url(#linearGradient-1)" transform="translate(3.513157, 4.454032) rotate(-89.427061) translate(-3.513157, -4.454032) " points="-0.795707621 1.02208191 7.82558993 1.01782489 7.82202244 7.88598172 -0.799275119 7.89023875"></polygon>
                <polygon id="Rectangle" fill="#E6E6E6" transform="translate(3.397965, 4.368251) rotate(-179.480000) translate(-3.397965, -4.368251) " points="0.0775791572 0.232157695 6.71464459 0.235286657 6.71835046 8.50434393 0.0812850223 8.50121497"></polygon>
                <ellipse id="Oval" fill="#FFFFFF" transform="translate(3.383976, 4.150535) rotate(-89.480000) translate(-3.383976, -4.150535) " cx="3.38397642" cy="4.15053485" rx="1.28726762" ry="1.22370908"></ellipse>
                <ellipse id="Oval" fill="#FFFFFF" transform="translate(3.383936, 4.577173) rotate(-89.480000) translate(-3.383936, -4.577173) " cx="3.38393602" cy="4.57717277" rx="1.16999536" ry="1.11222711"></ellipse>
                <polygon id="Rectangle" fill="#FFFFFF" transform="translate(3.370851, 5.733604) rotate(-179.480000) translate(-3.370851, -5.733604) " points="3.11138107 5.26575645 3.6299018 5.2660009 3.63032104 6.20145164 3.1118003 6.20120719"></polygon>
                <path d="M2.02254259,5.92660095 L4.58144243,5.92780731 L4.58199366,7.15780231 C4.58232645,7.90037124 4.01034736,8.50207251 3.30444261,8.50173972 C2.59853786,8.50140693 2.02601922,7.8991661 2.02568643,7.15659717 L2.02513519,5.92660217 L2.02254259,5.92660095 Z" id="Path" fill="#FFFFFF" transform="translate(3.302268, 7.214170) rotate(-179.480000) translate(-3.302268, -7.214170) "></path>
                <circle id="Oval" fill="#FFFFFF" transform="translate(3.394515, 2.859762) rotate(-89.480000) translate(-3.394515, -2.859762) " cx="3.39451483" cy="2.85976175" r="1"></circle>
                <path d="M3.2537037,2.09454545 C3.01520116,2.06765717 2.77422534,2.10912088 2.5562963,2.21454545 C2.3590766,2.27776445 2.17577112,2.38159483 2.01703704,2.52 C1.76044088,2.83590442 1.6327913,3.24560766 1.66185185,3.66 C1.69155268,4.07042928 1.63581333,4.48273506 1.49851852,4.86818182 C1.29612331,5.27975807 0.886131724,5.53152086 0.445925926,5.51454545 C0.710431981,5.67723567 1.03512344,5.68851838 1.30925926,5.54454545 C1.5523537,5.430083 1.7560323,5.23963029 1.89259259,4.99909091 C1.97565906,4.83101887 2.04504288,4.65584724 2.1,4.47545455 C2.28776038,3.94176843 2.53862019,3.43506011 2.84666667,2.96727273 C2.89266165,2.89130399 2.94850878,2.82245835 3.01259259,2.76272727 C3.10501308,2.68786469 3.21544275,2.64158707 3.33148148,2.62909091 C3.42740741,2.62909091 3.59074074,2.66181818 3.64777778,2.56363636 C3.77222222,2.34818182 3.38074074,2.12454545 3.2537037,2.09454545 Z" id="Path" fill="#FFFFFF"></path>
            </g>
            <g id="Group" opacity="0.5" transform="translate(156.000000, 54.000000)">
                <polygon id="Rectangle" fill="url(#linearGradient-2)" transform="translate(4.880657, 6.001217) rotate(-0.520000) translate(-4.880657, -6.001217) " points="0.0676137658 0.206163412 9.694648 0.205369163 9.69370034 11.7962697 0.0666661083 11.7970639"></polygon>
                <polygon id="Rectangle" fill="#E6E6E6" transform="translate(4.895460, 5.994262) rotate(-0.520000) translate(-4.895460, -5.994262) " points="0.243208341 0.435105026 9.54862071 0.434337312 9.54771163 11.55342 0.242299258 11.5541877"></polygon>
                <ellipse id="Oval" fill="#FFFFFF" transform="translate(4.918302, 5.679065) rotate(-0.520000) translate(-4.918302, -5.679065) " cx="4.91830166" cy="5.67906508" rx="1.7162175" ry="1.7318169"></ellipse>
                <ellipse id="Oval" fill="#FFFFFF" transform="translate(4.923502, 6.257174) rotate(-0.520000) translate(-4.923502, -6.257174) " cx="4.9235015" cy="6.25717359" rx="1.55946063" ry="1.5736352"></ellipse>
                <polygon id="Rectangle" fill="#FFFFFF" transform="translate(4.936303, 7.830634) rotate(-0.520000) translate(-4.936303, -7.830634) " points="4.57284039 7.20066422 5.29986796 7.20060423 5.29976494 8.4606033 4.57273737 8.46066328"></polygon>
                <path d="M5.02056302,8.0915309 C6.01169099,8.09144913 6.81509267,8.90215386 6.8150109,9.90229059 L6.81487622,11.5495621 L3.23919787,11.5498571 L3.23933166,9.91349467 C3.23941343,8.91335794 4.04294768,8.10252064 5.03407565,8.10243887 L5.02056302,8.0915309 Z" id="Path" fill="#FFFFFF" transform="translate(5.027104, 9.820694) rotate(-0.520000) translate(-5.027104, -9.820694) "></path>
                <ellipse id="Oval" fill="#FFFFFF" transform="translate(4.900048, 3.950194) rotate(-0.520000) translate(-4.900048, -3.950194) " cx="4.90004848" cy="3.95019389" rx="1" ry="1"></ellipse>
                <path d="M5.0972973,2.94272727 C5.43094564,2.9068133 5.76801583,2.96240315 6.07297297,3.10363636 C6.34904727,3.18873857 6.60543891,3.328764 6.82702703,3.51545455 C7.22702703,3.89181818 7.31081081,4.49454545 7.32432432,5.04545455 C7.33783784,5.59636364 7.30810811,6.17727273 7.55135135,6.68181818 C7.83503545,7.23381849 8.40851313,7.57147679 9.02432432,7.54909091 C8.65366887,7.76623117 8.19961109,7.7805815 7.81621622,7.58727273 C7.47590279,7.43004635 7.19252533,7.16982855 7.00540541,6.84272727 C6.88859512,6.6169187 6.7909488,6.38153188 6.71351351,6.13909091 C6.45060064,5.42112827 6.09919089,4.73940821 5.66756757,4.11 C5.60297927,4.00866846 5.52475417,3.91688214 5.43513514,3.83727273 C5.30594517,3.73663141 5.15152306,3.67430103 4.98918919,3.65727273 C4.85675676,3.63818182 4.62972973,3.70090909 4.54594595,3.57 C4.36756757,3.28090909 4.9027027,2.98090909 5.0972973,2.94272727 Z" id="Path" fill="#FFFFFF"></path>
            </g>
            <g id="Group" opacity="0.5" transform="translate(141.000000, 5.000000)">
                <polygon id="Rectangle" fill="url(#linearGradient-3)" transform="translate(8.089645, 9.558296) rotate(-0.520000) translate(-8.089645, -9.558296) " points="0.297769112 0.278455914 15.8812151 0.278712115 15.8815207 18.8381352 0.298074794 18.837879"></polygon>
                <polygon id="Rectangle" fill="#E6E6E6" transform="translate(8.113017, 9.549823) rotate(-0.520000) translate(-8.113017, -9.549823) " points="0.581837143 0.647233682 15.6439039 0.647481312 15.6441971 18.4524115 0.582130398 18.4521639"></polygon>
                <ellipse id="Oval" fill="#FFFFFF" transform="translate(8.149813, 9.045605) rotate(-0.520000) translate(-8.149813, -9.045605) " cx="8.14981336" cy="9.04560543" rx="2.77793062" ry="2.77289897"></ellipse>
                <ellipse id="Oval" fill="#FFFFFF" transform="translate(8.158200, 9.967956) rotate(-0.520000) translate(-8.158200, -9.967956) " cx="8.15820011" cy="9.96795623" rx="2.52413755" ry="2.51956559"></ellipse>
                <polygon id="Rectangle" fill="#FFFFFF" transform="translate(8.182486, 12.487205) rotate(-0.520000) translate(-8.182486, -12.487205) " points="7.59350446 11.4793693 8.77143532 11.4793887 8.77146852 13.4950412 7.59353766 13.4950218"></polygon>
                <path d="M8.38221188,12.7279884 C9.97968877,12.7279994 11.2768562,14.0166636 11.2844777,15.6112292 L11.2845258,18.2575938 L5.49113372,18.2574889 L5.4910857,15.6111242 C5.49861754,14.0208465 6.78904201,12.7339884 8.38221188,12.7279884 Z" id="Path" fill="#FFFFFF" transform="translate(8.387806, 15.492791) rotate(-0.572939) translate(-8.387806, -15.492791) "></path>
                <ellipse id="Oval" fill="#FFFFFF" transform="translate(8.124603, 6.273046) rotate(-0.520000) translate(-8.124603, -6.273046) " cx="8.12460302" cy="6.27304599" rx="1.00965502" ry="1.00782624"></ellipse>
                <path d="M8.45241379,4.65362319 C8.99304907,4.59620384 9.5391835,4.68563427 10.0331034,4.91246377 C10.4805005,5.04928328 10.8959933,5.27397315 11.2551724,5.57333333 C11.9006897,6.17913043 12.0386207,7.14014493 12.0606897,8.02405797 C12.0827586,8.90797101 12.0331034,9.83594203 12.4275862,10.6262319 C12.890572,11.5059746 13.8189977,12.0416646 14.8137931,12.0030435 C14.2136348,12.3506368 13.4785244,12.3734057 12.857931,12.0636232 C12.3028451,11.8136552 11.83989,11.3967878 11.5337931,10.8713043 C11.3451382,10.5107392 11.1873358,10.1349102 11.062069,9.74782609 C10.6364151,8.59802897 10.0673365,7.50634134 9.36827586,6.49855072 C9.26436011,6.33498465 9.13808479,6.18669458 8.99310345,6.05797101 C8.78227034,5.90134174 8.53211135,5.80603418 8.27034483,5.7826087 C8.05517241,5.75231884 7.68551724,5.8542029 7.55034483,5.64217391 C7.26896552,5.19608696 8.13517241,4.7142029 8.45241379,4.65362319 Z" id="Path" fill="#FFFFFF"></path>
            </g>
            <g id="Group" opacity="0.5" transform="translate(76.000000, 4.000000)">
                <polygon id="Rectangle" fill="url(#linearGradient-4)" transform="translate(8.036482, 9.435968) rotate(-0.520000) translate(-8.036482, -9.435968) " points="0.284463517 0.124156689 15.7938385 0.119566998 15.7884999 18.7477794 0.279124924 18.7523691"></polygon>
                <polygon id="Rectangle" fill="#E6E6E6" transform="translate(8.062090, 9.618827) rotate(-0.520000) translate(-8.062090, -9.618827) " points="0.598020118 0.49004542 15.5313936 0.485626185 15.5261599 18.7476077 0.592786482 18.7520269"></polygon>
                <ellipse id="Oval" fill="#FFFFFF" transform="translate(7.932236, 9.105145) rotate(-0.520000) translate(-7.932236, -9.105145) " cx="7.93223638" cy="9.10514476" rx="2.75200751" ry="2.84173186"></ellipse>
                <ellipse id="Oval" fill="#FFFFFF" transform="translate(7.940561, 10.052277) rotate(-0.520000) translate(-7.940561, -10.052277) " cx="7.94056139" cy="10.0522772" rx="2.50134016" ry="2.58289194"></ellipse>
                <polygon id="Rectangle" fill="#FFFFFF" transform="translate(7.963274, 12.636221) rotate(-0.520000) translate(-7.963274, -12.636221) " points="7.37956832 11.6024112 8.54757146 11.6020655 8.54697881 13.6700312 7.37897567 13.6703768"></polygon>
                <path d="M8.11815817,13.0628367 C9.70726976,13.0623664 10.995118,14.3922151 10.9946477,16.0331369 L10.9938704,18.7454487 L5.23918831,18.7471517 L5.23996483,16.0375935 C5.23948312,15.2491183 5.54253503,14.492597 6.08237773,13.9346426 C6.62222043,13.3766881 7.35457762,13.0630623 8.11815817,13.0628367 Z" id="Path" fill="#FFFFFF" transform="translate(8.116918, 15.904994) rotate(-0.520000) translate(-8.116918, -15.904994) "></path>
                <path d="M5.99733333,7.04927536 C5.99733333,7.04927536 7.656,6.00014493 7.98133333,4.87666667 C8.4794361,5.89304044 9.13622281,6.81777906 9.92533333,7.61376812 L5.99733333,7.04927536 Z" id="Path" fill="#FFFFFF"></path>
            </g>
            <rect id="Rectangle" fill="url(#linearGradient-5)" x="0" y="145" width="65" height="64"></rect>
            <rect id="Rectangle" fill="#FFFFFF" x="0" y="145" width="64" height="63"></rect>
            <rect id="Rectangle" fill="#3C31D5" x="7" y="150" width="51" height="40"></rect>
            <rect id="Rectangle" fill="#E0E0E0" x="10" y="195" width="45" height="2"></rect>
            <rect id="Rectangle" fill="#E0E0E0" x="18" y="199" width="31" height="2"></rect>
            <g id="Group" opacity="0.5" transform="translate(105.000000, 43.000000)" fill="url(#linearGradient-6)">
                <rect id="Rectangle" x="0.248941176" y="0.1603125" width="22.6401176" height="26.769375"></rect>
            </g>
            <rect id="Rectangle" fill="#E6E6E6" x="105" y="44" width="22" height="26"></rect>
            <ellipse id="Oval" fill="#FFFFFF" cx="115.5" cy="56" rx="3.5" ry="4"></ellipse>
            <circle id="Oval" fill="#FFFFFF" cx="115.5" cy="57.5" r="3.5"></circle>
            <rect id="Rectangle" fill="#FFFFFF" x="114" y="60" width="2" height="2"></rect>
            <path d="M114.426326,62 L115.573674,62 C117.465982,62 119,63.603317 119,65.5811088 L119,70 L111,70 L111,65.5811088 C111,63.603317 112.534018,62 114.426326,62 Z" id="Path" fill="#FFFFFF"></path>
            <path d="M114.000904,50.6276143 C113.758702,50.7619791 113.521653,50.9045147 113.289757,51.0552212 C113.076163,51.1654428 112.897221,51.3385152 112.774434,51.5536419 C112.746193,51.6400623 112.706271,51.7217086 112.655909,51.7960433 C112.547691,51.9213294 112.367328,51.9186058 112.212731,51.9567363 C111.697407,52.0820224 111.439745,52.6675987 111.313491,53.1959792 C111.231644,53.5096755 111.16627,53.8279159 111.117668,54.1492429 C111.070286,54.3568858 111.076515,54.5741677 111.135704,54.778397 C111.1692,54.8655525 111.218156,54.9418136 111.243922,55.0316928 C111.33668,55.3585261 111.073865,55.6690177 111.00945,56.0012982 C110.977584,56.3045547 111.026675,56.6111846 111.151164,56.8864716 C111.177578,56.9747545 111.214827,57.0589962 111.261958,57.1370438 C111.304864,57.1955685 111.351343,57.2510668 111.401096,57.3031841 C111.511278,57.4296942 111.598606,57.5764674 111.658758,57.7362382 C112.203207,57.8400602 112.737204,57.9978174 113.253685,58.2074228 C114.091086,58.5533214 114.920757,59.0408477 115.830303,58.9972699 C116.074379,58.9848881 116.315156,58.9325155 116.544027,58.8420241 C116.992358,58.6649894 117.384004,58.3436034 117.832336,58.1883576 C118.257238,58.0858897 118.687393,58.0095009 119.120645,57.9595743 C119.324198,57.9159965 119.576707,57.7525798 119.499408,57.548309 C119.710372,57.6303613 119.947024,57.5809613 120.112644,57.4202993 C120.273744,57.2603905 120.402581,57.06769 120.491407,56.8537883 C120.673574,56.4983226 120.816236,56.1217782 120.916549,55.7316607 C121.088748,54.9755493 120.992482,54.17893 120.646004,53.4928527 C120.585754,53.3578096 120.497722,53.2387011 120.388342,53.1442306 C120.30589,53.0815875 120.207978,53.043457 120.13068,52.9753667 C120.050278,52.8972604 119.983169,52.8051334 119.93228,52.7030056 C119.647134,52.2073085 119.34567,51.7234137 119.027887,51.2513211 C118.71354,50.7828601 118.35539,50.3035046 117.847796,50.0992338 C117.095423,49.796913 116.546603,50.2789921 115.830303,50.3089518 C115.510803,50.3089518 115.242834,50.1863894 114.905297,50.2572032 C114.588514,50.3339343 114.283896,50.4586963 114.000904,50.6276143 Z" id="Path" fill="#FFFFFF"></path>
            <g id="Group" opacity="0.5" transform="translate(64.000000, 14.000000)" fill="url(#linearGradient-7)">
                <rect id="Rectangle" x="0.00263888889" y="0.180120482" width="18.8786111" height="22.5538554"></rect>
            </g>
            <rect id="Rectangle" fill="#E6E6E6" x="64" y="14" width="19" height="22"></rect>
            <circle id="Oval" fill="#FFFFFF" cx="72.5" cy="24.5" r="3.5"></circle>
            <ellipse id="Oval" fill="#FFFFFF" cx="73" cy="26.5" rx="3" ry="3.5"></ellipse>
            <rect id="Rectangle" fill="#FFFFFF" x="72" y="28" width="2" height="2"></rect>
            <path d="M73.5120736,29.0000097 C75.4410032,29.0092765 77.0000204,30.6470493 77,32.6641329 L77,36 L70,36 L70,32.6641329 C69.9999975,31.6908869 70.3702752,30.757625 71.0291492,30.0702262 C71.6880231,29.3828273 72.5813547,28.997774 73.5120736,29.0000097 Z" id="Path" fill="#FFFFFF"></path>
            <path d="M71.7017996,20.5370724 C71.4841486,20.6563025 71.2701251,20.784049 71.0597292,20.920312 C70.8711168,21.0200157 70.7135464,21.1736007 70.6053828,21.3631666 C70.5800584,21.4399961 70.544328,21.512649 70.4992779,21.5789164 C70.401335,21.68963 70.2272142,21.6867912 70.0993442,21.720857 C69.6449978,21.8315706 69.411023,22.353912 69.283153,22.8251548 C69.2091705,23.1054085 69.1501328,23.3897259 69.1063116,23.6767984 C69.0622334,23.8640871 69.0678767,24.060366 69.1226354,24.2445608 C69.1525624,24.3212087 69.1960926,24.392179 69.2205784,24.468827 C69.3049181,24.7527081 69.0682227,25.0365893 69.0083687,25.3204705 C68.9799522,25.5908191 69.0242285,25.8640842 69.1362386,26.1096603 C69.1602232,26.1886981 69.1940681,26.2641003 69.2369022,26.3339264 C69.2754998,26.3859181 69.3173049,26.4352288 69.3620515,26.4815446 C69.4610544,26.5944462 69.539429,26.7252925 69.5933057,26.8676231 C70.0838675,26.9622833 70.5648152,27.104851 71.0298022,27.2934449 C71.7861393,27.6000366 72.5343146,28.0372136 73.3450645,27.9974702 C73.5656049,27.9862511 73.783133,27.9393234 73.9898556,27.8583685 C74.3952305,27.699395 74.7489134,27.4155138 75.1597296,27.2906061 C75.5410773,27.1993916 75.9271389,27.1311473 76.3160004,27.0862116 C76.5010038,27.049307 76.7268167,26.9016888 76.6588007,26.7200049 C76.8464355,26.7887495 77.0550665,26.7452109 77.2029282,26.6064524 C77.3477323,26.4636213 77.4634039,26.2917503 77.5430079,26.1011438 C77.7073432,25.7845886 77.8360671,25.4492769 77.9266177,25.101882 C78.0791706,24.4304553 77.9921263,23.7240369 77.6817604,23.1147136 C77.6264337,22.9933348 77.5455171,22.8865826 77.4450649,22.8024443 C77.3716077,22.7456681 77.2818267,22.7116023 77.2110901,22.6519873 C77.1384936,22.5828205 77.0777647,22.5012118 77.0315281,22.4106883 C76.7739744,21.9697261 76.5019107,21.539173 76.2153369,21.1190288 C75.9635068,20.6759759 75.5927195,20.319679 75.148847,20.0942177 C74.4686877,19.8103365 73.9735317,20.25603 73.3287407,20.2815793 C73.0403531,20.2815793 72.7982164,20.1708656 72.493505,20.2361583 C72.2175021,20.2976522 71.9510442,20.3989284 71.7017996,20.5370724 Z" id="Path" fill="#FFFFFF"></path>
            <g id="Group" opacity="0.5" transform="translate(200.000000, 44.000000)" fill="url(#linearGradient-8)">
                <polygon id="Rectangle" transform="translate(11.487378, 13.505400) rotate(-0.572939) translate(-11.487378, -13.505400) " points="0.280865951 0.261003308 22.6913478 0.263134529 22.6938908 26.7497967 0.283408995 26.7476655"></polygon>
            </g>
            <polygon id="Rectangle" fill="#E6E6E6" transform="translate(211.711592, 58.059449) rotate(-0.520000) translate(-211.711592, -58.059449) " points="201.310846 45.6222547 222.114499 45.6204306 222.112339 70.4966429 201.308686 70.498467"></polygon>
            <ellipse id="Oval" fill="#FFFFFF" transform="translate(211.762527, 57.354075) rotate(-0.520000) translate(-211.762527, -57.354075) " cx="211.762527" cy="57.3540755" rx="3.83454851" ry="3.87159115"></ellipse>
            <ellipse id="Oval" fill="#FFFFFF" transform="translate(211.774135, 58.645372) rotate(-0.520000) translate(-211.774135, -58.645372) " cx="211.774135" cy="58.6453716" rx="3.48545732" ry="3.51912766"></ellipse>
            <polygon id="Rectangle" fill="#FFFFFF" transform="translate(211.804415, 62.165446) rotate(-0.520000) translate(-211.804415, -62.165446) " points="210.990445 60.7570407 212.618628 60.7568979 212.618384 63.5738522 210.990201 63.573995"></polygon>
            <path d="M211.578844,62.7512431 L212.462482,62.7511657 C214.432633,62.7509929 216.029617,64.3634051 216.029444,66.3525892 L216.029086,70.4830207 L208.010897,70.4837237 L208.011256,66.3532922 C208.011339,65.3980524 208.387255,64.4819037 209.056308,63.8063884 C209.725361,63.1308732 210.632744,62.7513261 211.578844,62.7512431 Z" id="Path" fill="#FFFFFF" transform="translate(212.020171, 66.617445) rotate(-0.520000) translate(-212.020171, -66.617445) "></path>
            <ellipse id="Oval" fill="#FFFFFF" transform="translate(211.727727, 53.482966) rotate(-0.520000) translate(-211.727727, -53.482966) " cx="211.727727" cy="53.4829656" rx="1.39363747" ry="1.40710034"></ellipse>
            <path d="M212.306851,51.042652 C213.032854,50.8984686 213.775051,51.1444286 214.465969,51.4130055 C215.076544,51.6093507 215.643585,51.9313311 216.133887,52.3600927 C217.016427,53.2280204 217.213447,54.6217935 217.235038,55.8770375 C217.256629,57.1322814 217.197253,58.4751662 217.737033,59.6088437 C218.365375,60.8781393 219.635962,61.6542545 221,61.6019676 C220.225416,62.1447758 219.175545,62.0910604 218.325392,61.6896085 C217.566813,61.3300584 216.934555,60.7310255 216.517131,59.9763701 C216.259046,59.4582906 216.043264,58.9182687 215.872094,58.3620812 C215.290491,56.7145624 214.513409,55.1501973 213.559139,53.7058047 C213.416975,53.4717399 213.244387,53.2595526 213.046349,53.0753556 C212.760059,52.8443584 212.418018,52.7014334 212.058552,52.6625952 C211.764372,52.6201883 211.248883,52.7643717 211.076153,52.4590421 C210.690211,51.8201117 211.875027,51.1274658 212.306851,51.042652 Z" id="Path" fill="#FFFFFF"></path>
            <g id="Group" opacity="0.5" transform="translate(34.000000, 25.000000)" fill="url(#linearGradient-9)">
                <polygon id="Rectangle" transform="translate(9.484470, 11.487059) rotate(-0.572939) translate(-9.484470, -11.487059) " points="0.193977463 0.330711828 18.7763676 0.329533608 18.7749617 22.6434062 0.192571561 22.6445845"></polygon>
            </g>
            <polygon id="Rectangle" fill="#E6E6E6" transform="translate(42.908396, 36.818116) rotate(-0.520000) translate(-42.908396, -36.818116) " points="34.0156758 26.1844115 51.8029627 26.1828519 51.8011156 47.4518206 34.0138288 47.4533802"></polygon>
            <ellipse id="Oval" fill="#FFFFFF" transform="translate(42.952064, 36.214698) rotate(-0.520000) translate(-42.952064, -36.214698) " cx="42.9520643" cy="36.2146976" rx="3.27818443" ry="3.30985246"></ellipse>
            <ellipse id="Oval" fill="#FFFFFF" transform="translate(42.961989, 37.318755) rotate(-0.520000) translate(-42.961989, -37.318755) " cx="42.9619892" cy="37.318755" rx="2.98091146" ry="3.00970777"></ellipse>
            <polygon id="Rectangle" fill="#FFFFFF" transform="translate(42.989017, 40.325338) rotate(-0.520000) translate(-42.989017, -40.325338) " points="42.2936662 39.1220664 43.6845764 39.1219444 43.6843674 41.5286092 42.2934572 41.5287312"></polygon>
            <path d="M43.1735668,40.8274234 C45.0669009,40.8272574 46.6016168,42.3768003 46.6014508,44.2884244 L46.6011762,47.4495814 L39.7448072,47.4501826 L39.7450817,44.2890256 C39.7452477,42.3774015 41.2802328,40.8275894 43.1735668,40.8274234 Z" id="Path" fill="#FFFFFF" transform="translate(43.173129, 44.138803) rotate(-0.520000) translate(-43.173129, -44.138803) "></path>
            <ellipse id="Oval" fill="#FFFFFF" transform="translate(42.922314, 32.905254) rotate(-0.520000) translate(-42.922314, -32.905254) " cx="42.9223141" cy="32.9052537" rx="1.19181913" ry="1.20333238"></ellipse>
            <path d="M44.0381021,31.0352767 C44.6193131,30.9161591 45.2131592,31.1192004 45.7691003,31.3384851 C46.2583536,31.4986906 46.7128301,31.7619228 47.1058858,32.1127496 C47.8134471,32.8220408 47.9650674,33.9536581 47.9878104,34.99323 C48.0105534,36.0328019 47.9574863,37.1211037 48.3896041,38.0496796 C48.894149,39.0855149 49.9101555,39.7177297 51,39.6740106 C50.3808838,40.1179945 49.5393913,40.074679 48.859627,39.7471055 C48.2523,39.4528218 47.7460331,38.9625104 47.4116533,38.3447664 C47.2088264,37.9203926 47.0397606,37.478453 46.9062524,37.0236438 C46.4400081,35.6728781 45.8168311,34.3903948 45.0514309,33.2064658 C44.9381345,33.0145086 44.8003424,32.8404643 44.6420562,32.6893871 C44.4128967,32.5000068 44.1389926,32.3828193 43.8511037,32.3509848 C43.6160923,32.315791 43.2117715,32.4349086 43.0652052,32.1831373 C42.7442757,31.671473 43.6944294,31.1056644 44.0381021,31.0352767 Z" id="Path" fill="#FFFFFF"></path>
            <g id="Group" opacity="0.5" transform="translate(1.000000, 46.000000)" fill="url(#linearGradient-10)">
                <polygon id="Rectangle" transform="translate(11.457794, 13.583076) rotate(-0.520000) translate(-11.457794, -13.583076) " points="0.202025821 0.294149876 22.7171138 0.291096046 22.7135616 26.8720013 0.198473606 26.8750551"></polygon>
            </g>
            <polygon id="Rectangle" fill="#E6E6E6" transform="translate(12.408034, 60.366024) rotate(-0.520000) translate(-12.408034, -60.366024) " points="1.74140596 47.6108096 23.0768775 47.6089388 23.0746619 73.1212375 1.73919037 73.1231083"></polygon>
            <ellipse id="Oval" fill="#FFFFFF" transform="translate(12.222933, 59.644939) rotate(-0.520000) translate(-12.222933, -59.644939) " cx="12.2229327" cy="59.644939" rx="3.9327304" ry="3.97072151"></ellipse>
            <ellipse id="Oval" fill="#FFFFFF" transform="translate(12.234813, 60.966499) rotate(-0.520000) translate(-12.234813, -60.966499) " cx="12.2348129" cy="60.9664987" rx="3.57545739" ry="3.60999715"></ellipse>
            <polygon id="Rectangle" fill="#FFFFFF" transform="translate(12.267273, 64.577427) rotate(-0.520000) translate(-12.267273, -64.577427) " points="11.4328526 63.1332259 13.1019448 63.1330795 13.101694 66.021628 11.4326018 66.0217743"></polygon>
            <path d="M11.9432308,65.1769335 L13.0341407,65.1768378 C15.0042926,65.1766651 16.6012763,66.7890773 16.6011035,68.7782613 L16.6007266,73.1179681 L8.37526553,73.1186893 L8.37564217,68.7817362 C8.37581492,66.7925522 9.97307863,65.1798599 11.9432305,65.1796871 L11.9432308,65.1769335 Z" id="Path" fill="#FFFFFF" transform="translate(12.488185, 69.147764) rotate(-0.520000) translate(-12.488185, -69.147764) "></path>
            <path d="M10,57.3758099 C10,57.3758099 12.5347594,56.2267819 13.0306271,55 C13.0306271,55 14.1973748,56.7861771 16,58 L10,57.3758099 Z" id="Path" fill="#FFFFFF"></path>
            <ellipse id="Oval" fill="#FFFFFF" transform="translate(31.980118, 167.539098) rotate(-0.520000) translate(-31.980118, -167.539098) " cx="31.9801178" cy="167.539098" rx="6.79364177" ry="6.85926996"></ellipse>
            <ellipse id="Oval" fill="#FFFFFF" transform="translate(32.000661, 169.824336) rotate(-0.520000) translate(-32.000661, -169.824336) " cx="32.0006609" cy="169.824336" rx="6.17727764" ry="6.23695161"></ellipse>
            <polygon id="Rectangle" fill="#FFFFFF" transform="translate(32.058084, 176.060498) rotate(-0.520000) translate(-32.058084, -176.060498) " points="30.6169363 173.565844 33.4996659 173.565591 33.4992326 178.555153 30.616503 178.555405"></polygon>
            <path d="M32.2210561,177.097596 L32.6546928,177.097558 C34.4829631,177.097395 36.2361296,177.831288 37.5277749,179.137478 C38.8194202,180.443669 39.5435137,182.214932 39.5404571,184.060862 L39.5398693,190.829262 L25.3334944,190.830508 L25.3340822,184.062107 C25.3313462,182.216178 26.0557474,180.444788 27.3476196,179.138371 C28.6394918,177.831954 30.3927857,177.097754 32.2210561,177.097596 Z" id="Path" fill="#FFFFFF" transform="translate(32.436981, 183.964033) rotate(-0.520000) translate(-32.436981, -183.964033) "></path>
            <path d="M27,163.541667 C27,163.541667 31.222973,160.858333 32.0506757,158 C32.0506757,158 33.9988739,162.165 37,165 L27,163.541667 Z" id="Path" fill="#FFFFFF"></path>
            <g id="Group" opacity="0.5" transform="translate(151.000000, 15.000000)" fill="url(#linearGradient-11)">
                <polygon id="Rectangle" transform="translate(9.445684, 11.131463) rotate(-0.520000) translate(-9.445684, -11.131463) " points="0.117495056 0.353824618 18.7760632 0.351906819 18.7738723 21.9091021 0.115304135 21.9110199"></polygon>
            </g>
            <polygon id="Rectangle" fill="#E6E6E6" transform="translate(160.205368, 25.811349) rotate(-0.520000) translate(-160.205368, -25.811349) " points="151.309905 15.3648911 169.102646 15.363331 169.100832 36.2578073 151.30809 36.2593674"></polygon>
            <ellipse id="Oval" fill="#FFFFFF" transform="translate(160.050078, 25.223523) rotate(-0.520000) translate(-160.050078, -25.223523) " cx="160.050078" cy="25.2235226" rx="3.2809117" ry="3.25202642"></ellipse>
            <ellipse id="Oval" fill="#FFFFFF" transform="translate(160.062532, 26.305552) rotate(-0.520000) translate(-160.062532, -26.305552) " cx="160.062532" cy="26.305552" rx="2.98091146" ry="2.95738897"></ellipse>
            <polygon id="Rectangle" fill="#FFFFFF" transform="translate(160.142223, 29.072891) rotate(-0.572939) translate(-160.142223, -29.072891) " points="159.446846 27.8902193 160.837826 27.890085 160.8376 30.2555633 159.44662 30.2556977"></polygon>
            <path d="M160.270325,29.7536578 C162.163659,29.7534918 163.698375,31.3030347 163.698209,33.2146588 L163.697945,36.2574101 L156.838849,36.2580115 L156.839113,33.2152603 C156.839192,32.2967887 157.200826,31.4159438 157.844382,30.7666882 C158.487937,30.1174326 159.360642,29.7530069 160.270325,29.7536578 Z" id="Path" fill="#FFFFFF" transform="translate(160.268529, 33.005834) rotate(-0.520000) translate(-160.268529, -33.005834) "></path>
            <path d="M157,22.5817223 C157,22.5817223 159.113703,21.8154657 159.524781,21 C160.160771,21.744567 160.99719,22.4204016 162,23 L157,22.5817223 Z" id="Path" fill="#FFFFFF"></path>
            <g id="Group" opacity="0.5" transform="translate(98.000000, 102.000000)" fill="url(#linearGradient-12)">
                <polygon id="Path" points="0.00805555556 0.0633858268 0.00805555556 0.56496063 10.5984259 19.4098425 10.5984259 30.6318898 18.3774074 34.9035433 18.3774074 34.6527559 18.3774074 19.4098425 28.8872222 0.56496063 28.8872222 0.0633858268"></polygon>
            </g>
            <rect id="Rectangle" fill="#CFD8DC" x="99" y="102" width="28" height="1"></rect>
            <rect id="Rectangle" fill="#000000" opacity="0.1" x="99" y="102" width="28" height="1"></rect>
            <polygon id="Path" fill="#CFD8DC" points="99 103 109.268006 121.797179 109.268006 132.990158 116.812339 137 116.812339 121.797179 127 103"></polygon>
            <polygon id="Path" fill="#FFFFFF" opacity="0.2" points="110 132 110 121.176569 99.4905331 103 99 103 109.506726 121.176569 109.506726 132"></polygon>
            <polygon id="Path" fill="#CFD8DC" points="109 133 116 137 116 136.764398 109.447284 133"></polygon>
            <polygon id="Path" fill="#000000" opacity="0.1" points="109 133 116 137 116 136.764398 109.447284 133"></polygon>
            <rect id="Rectangle" fill="url(#linearGradient-13)" x="169" y="144" width="65" height="64"></rect>
            <rect id="Rectangle" fill="#FFFFFF" x="169" y="144" width="64" height="63"></rect>
            <rect id="Rectangle" fill="#3C31D5" x="176" y="150" width="51" height="40"></rect>
            <rect id="Rectangle" fill="#E0E0E0" x="180" y="195" width="45" height="2"></rect>
            <rect id="Rectangle" fill="#E0E0E0" x="186" y="200" width="31" height="2"></rect>
            <rect id="Rectangle" fill="url(#linearGradient-14)" x="85" y="143" width="65" height="65"></rect>
            <rect id="Rectangle" fill="#FFFFFF" x="85" y="144" width="65" height="63"></rect>
            <rect id="Rectangle" fill="#3C31D5" x="91" y="150" width="52" height="40"></rect>
            <rect id="Rectangle" fill="#E0E0E0" x="93" y="195" width="45" height="2"></rect>
            <rect id="Rectangle" fill="#E0E0E0" x="100" y="199" width="31" height="2"></rect>
            <path d="M12,78 C12,78 11.729141,107.953433 38.2839454,102.286567 C64.8387499,96.6197017 65.6516521,87.4447762 96,99.3182092" id="Path" stroke="#25CB55" stroke-width="2" stroke-dasharray="12"></path>
            <path d="M211,76 C211,76 211.270859,105.953433 184.716055,100.286567 C158.16125,94.6197017 157.348348,85.4447762 127,97.3182092" id="Path" stroke="#25CB55" stroke-width="2" stroke-dasharray="12"></path>
            <path d="M116.18604,76 C116.18604,76 112.633184,84.3333333 117.825819,88.3655914 C123.018455,92.3978495 117.279226,101 117.279226,101" id="Path" stroke="#25CB55" stroke-width="2" stroke-dasharray="12"></path>
            <path d="M43,53 C43,53 47.0857017,73.3515152 66.9694502,73.3515152 C86.8531986,73.3515152 104.285526,96.2121212 100.472204,99" id="Path" stroke="#25CB55" stroke-width="2" stroke-dasharray="12"></path>
            <path d="M71.1873549,42 C71.1873549,42 65.9343513,51.6414247 71.7093756,61.4655864 C74.4855126,66.0992938 78.963708,69.4693152 84.1914085,70.858816 C96.5750502,74.2462699 101.997505,72.6725493 110,93" id="Path" stroke="#25CB55" stroke-width="2" stroke-dasharray="12"></path>
            <path d="M159.8741,43 C159.8741,43 164.091923,48.1916667 156.200335,59.1777778 C153.05661,63.4834423 148.724179,66.7537575 143.747454,68.5777778 C135.778929,71.5694444 128,80.2222222 128,93" id="Path" stroke="#25CB55" stroke-width="2" stroke-dasharray="12"></path>
            <g id="Group" opacity="0.5" transform="translate(108.000000, 0.000000)">
                <rect id="Rectangle" fill="url(#linearGradient-15)" x="0.186721311" y="0" width="16.6906557" height="18.7604348"></rect>
                <rect id="Rectangle" fill="#E6E6E6" x="0.716229508" y="0.261594203" width="15.8072131" height="18.4988406"></rect>
                <ellipse id="Oval" fill="#FFFFFF" cx="8.44147541" cy="8.98782609" rx="2.91508197" ry="2.88028986"></ellipse>
                <ellipse id="Oval" fill="#FFFFFF" cx="8.44147541" cy="9.94884058" rx="2.65032787" ry="2.61869565"></ellipse>
                <rect id="Rectangle" fill="#FFFFFF" x="7.82557377" y="11.5184058" width="1.23737705" height="2.09550725"></rect>
                <path d="M8.5752459,13.0026087 C10.2575415,13.0026087 11.6213115,14.3501018 11.6213115,16.0123188 L11.6213115,18.765942 L5.52918033,18.765942 L5.52918033,16.0123188 C5.52918033,15.2140941 5.85010417,14.4485625 6.42135228,13.8841324 C6.99260038,13.3197022 7.76737908,13.0026087 8.5752459,13.0026087 Z" id="Path" fill="#FFFFFF"></path>
                <path d="M7.07590164,5.91753623 C6.89010929,6.01483092 6.70431694,6.11855072 6.51852459,6.22869565 C6.35641008,6.30984694 6.22106712,6.43497778 6.12836066,6.58942029 C6.10650878,6.65225677 6.07552918,6.71162132 6.03639344,6.76565217 C5.95278689,6.85652174 5.81344262,6.85376812 5.69360656,6.88130435 C5.30344262,6.97217391 5.10278689,7.39623188 4.99688525,7.77623188 C4.93290915,8.00364364 4.88173778,8.23438392 4.84360656,8.4673913 C4.80701999,8.61734403 4.81183217,8.77425044 4.85754098,8.92173913 C4.88262295,8.98507246 4.92163934,9.04014493 4.94114754,9.10347826 C5.01360656,9.34028986 4.81016393,9.56333333 4.76,9.80565217 C4.73519337,10.0253409 4.77283031,10.2475137 4.86868852,10.4472464 C4.88928574,10.5113112 4.91833336,10.5724164 4.95508197,10.6289855 C4.98867061,10.6707444 5.02497701,10.7102967 5.06377049,10.7473913 C5.1482692,10.8384038 5.21531586,10.9438383 5.26163934,11.0585507 C5.68234029,11.1357937 6.09475709,11.2519573 6.49344262,11.4055072 C7.14278689,11.656087 7.78377049,12.0085507 8.4804918,11.9755072 C8.6711087,11.966846 8.85917811,11.9287519 9.03786885,11.8626087 C9.38622951,11.7331884 9.68721311,11.5018841 10.0411475,11.3917391 C10.368375,11.3179 10.6996334,11.2627363 11.0332787,11.2265217 C11.1921311,11.1962319 11.3872131,11.0778261 11.3259016,10.9291304 C11.4894297,10.9895571 11.6734307,10.954472 11.802459,10.8382609 C11.9219994,10.721133 12.0167377,10.5816577 12.0811475,10.427971 C12.2240222,10.1708788 12.3362469,9.89828582 12.4155738,9.61565217 C12.549627,9.06799499 12.4752367,8.49075562 12.2065574,7.99376812 C12.1589363,7.89525132 12.0893882,7.80864783 12.0031148,7.74043478 C11.9390164,7.69362319 11.8637705,7.66608696 11.802459,7.61652174 C11.7402261,7.55961888 11.6883756,7.49255189 11.6491803,7.41826087 C11.4280874,7.05111111 11.194918,6.70140097 10.9496721,6.36913043 C10.7330176,6.01158791 10.4152805,5.72444331 10.0355738,5.54304348 C9.45311475,5.32275362 9.02672131,5.67246377 8.47491803,5.69449275 C8.23783601,5.66036677 7.99811941,5.64746413 7.75868852,5.65594203 C7.51977569,5.71098281 7.28991543,5.79904852 7.07590164,5.91753623 Z" id="Path" fill="#FFFFFF"></path>
            </g>
            <g id="Group" opacity="0.5" transform="translate(186.000000, 19.000000)">
                <rect id="Rectangle" fill="url(#linearGradient-15)" x="0.186721311" y="0" width="16.6906557" height="18.7604348"></rect>
                <rect id="Rectangle" fill="#E6E6E6" x="0.716229508" y="0.261594203" width="15.8072131" height="18.4988406"></rect>
                <ellipse id="Oval" fill="#FFFFFF" cx="8.44147541" cy="8.98782609" rx="2.91508197" ry="2.88028986"></ellipse>
                <ellipse id="Oval" fill="#FFFFFF" cx="8.44147541" cy="9.94884058" rx="2.65032787" ry="2.61869565"></ellipse>
                <rect id="Rectangle" fill="#FFFFFF" x="7.82557377" y="11.5184058" width="1.23737705" height="2.09550725"></rect>
                <path d="M8.5752459,13.0026087 C10.2575415,13.0026087 11.6213115,14.3501018 11.6213115,16.0123188 L11.6213115,18.765942 L5.52918033,18.765942 L5.52918033,16.0123188 C5.52918033,14.3501018 6.89295034,13.0026087 8.5752459,13.0026087 Z" id="Path" fill="#FFFFFF"></path>
                <path d="M7.07590164,5.91753623 C6.89010929,6.01483092 6.70431694,6.11855072 6.51852459,6.22869565 C6.35641008,6.30984694 6.22106712,6.43497778 6.12836066,6.58942029 C6.10650878,6.65225677 6.07552918,6.71162132 6.03639344,6.76565217 C5.95278689,6.85652174 5.81344262,6.85376812 5.69360656,6.88130435 C5.30344262,6.97217391 5.10278689,7.39623188 4.99688525,7.77623188 C4.93290915,8.00364364 4.88173778,8.23438392 4.84360656,8.4673913 C4.80701999,8.61734403 4.81183217,8.77425044 4.85754098,8.92173913 C4.88262295,8.98507246 4.92163934,9.04014493 4.94114754,9.10347826 C5.01360656,9.34028986 4.81016393,9.56333333 4.76,9.80565217 C4.73519337,10.0253409 4.77283031,10.2475137 4.86868852,10.4472464 C4.88928574,10.5113112 4.91833336,10.5724164 4.95508197,10.6289855 C4.98867061,10.6707444 5.02497701,10.7102967 5.06377049,10.7473913 C5.1482692,10.8384038 5.21531586,10.9438383 5.26163934,11.0585507 C5.68234029,11.1357937 6.09475709,11.2519573 6.49344262,11.4055072 C7.14278689,11.656087 7.78377049,12.0085507 8.4804918,11.9755072 C8.6711087,11.966846 8.85917811,11.9287519 9.03786885,11.8626087 C9.38622951,11.7331884 9.68721311,11.5018841 10.0411475,11.3917391 C10.368375,11.3179 10.6996334,11.2627363 11.0332787,11.2265217 C11.1921311,11.1962319 11.3872131,11.0778261 11.3259016,10.9291304 C11.4894297,10.9895571 11.6734307,10.954472 11.802459,10.8382609 C11.9219994,10.721133 12.0167377,10.5816577 12.0811475,10.427971 C12.2240222,10.1708788 12.3362469,9.89828582 12.4155738,9.61565217 C12.549627,9.06799499 12.4752367,8.49075562 12.2065574,7.99376812 C12.1589363,7.89525132 12.0893882,7.80864783 12.0031148,7.74043478 C11.9390164,7.69362319 11.8637705,7.66608696 11.802459,7.61652174 C11.7402261,7.55961888 11.6883756,7.49255189 11.6491803,7.41826087 C11.4280874,7.05111111 11.194918,6.70140097 10.9496721,6.36913043 C10.7330176,6.01158791 10.4152805,5.72444331 10.0355738,5.54304348 C9.45311475,5.32275362 9.02672131,5.67246377 8.47491803,5.69449275 C8.23783601,5.66036677 7.99811941,5.64746413 7.75868852,5.65594203 C7.51977569,5.71098281 7.28991543,5.79904852 7.07590164,5.91753623 Z" id="Path" fill="#FFFFFF"></path>
            </g>
            <ellipse id="Oval" fill="#FFFFFF" transform="translate(115.754736, 168.013571) rotate(-0.520000) translate(-115.754736, -168.013571) " cx="115.754736" cy="168.013571" rx="6.45273241" ry="6.51506733"></ellipse>
            <ellipse id="Oval" fill="#FFFFFF" transform="translate(115.771537, 170.185915) rotate(-0.520000) translate(-115.771537, -170.185915) " cx="115.771537" cy="170.185915" rx="5.8663683" ry="5.92303881"></ellipse>
            <polygon id="Rectangle" fill="#FFFFFF" transform="translate(115.824763, 176.106863) rotate(-0.520000) translate(-115.824763, -176.106863) " points="114.455877 173.737492 117.194061 173.737252 117.193649 178.476234 114.455465 178.476474"></polygon>
            <path d="M116.187273,177.093178 C119.913692,177.092851 122.934286,180.142628 122.933959,183.905045 L122.933419,190.122721 L109.441591,190.123904 L109.44213,183.906228 C109.442457,180.144886 112.461919,177.095025 116.187273,177.093178 Z" id="Path" fill="#FFFFFF" transform="translate(116.187775, 183.608541) rotate(-0.520000) translate(-116.187775, -183.608541) "></path>
            <ellipse id="Oval" fill="#FFFFFF" transform="translate(115.865809, 161.355159) rotate(-0.572939) translate(-115.865809, -161.355159) " cx="115.865809" cy="161.355159" rx="2.34557408" ry="2.36823208"></ellipse>
            <path d="M116.219987,158.06987 C117.455063,157.833476 118.714677,158.237546 119.892497,158.674601 C120.909458,159.053932 121.940051,159.477244 122.727991,160.224911 C124.227531,161.64328 124.549251,163.905523 124.601053,165.978101 C124.652856,168.050678 124.538345,170.22771 125.457154,172.085883 C126.523643,174.162472 128.682068,175.433029 131,175.348681 C129.683131,176.236535 127.897315,176.148575 126.452304,175.494366 C125.163441,174.906552 124.0891,173.927205 123.37961,172.693362 C122.943025,171.846287 122.578202,170.963539 122.289035,170.054537 C121.298457,167.356192 119.974812,164.79434 118.349334,162.42943 C118.107606,162.045685 117.813956,161.697819 117.476874,161.39589 C116.990233,161.017552 116.408659,160.783396 115.79739,160.719691 C115.295725,160.650972 114.434171,160.887366 114.12881,160.387089 C113.474466,159.342554 115.489302,158.210058 116.219987,158.06987 Z" id="Path" fill="#FFFFFF"></path>
            <circle id="Oval" fill="#FFFFFF" cx="202.5" cy="169.5" r="6.5"></circle>
            <rect id="Rectangle" fill="#FFFFFF" x="202" y="172" width="2" height="5"></rect>
            <path d="M203.177381,176 L203.822633,176 C207.786583,176 211,179.13587 211,183.004161 L211,190 L196,190 L196.000014,183.018031 C195.99624,181.15801 196.750758,179.372909 198.097185,178.056372 C199.443611,176.739836 201.27136,175.999996 203.177381,176 Z" id="Path" fill="#FFFFFF"></path>
            <path d="M210,175.56262 C209.72549,175.838664 196.823529,176.390751 196,175.56262 C196.54902,172.802183 196,166.039114 196,166.039114 C196,162.151518 199.134007,159 203,159 C206.865993,159 210,162.151518 210,166.039114 C210,166.039114 209.176471,174.458445 210,175.56262 Z" id="Path" fill="#FFFFFF"></path>
        </g>
    </g>
</svg>