<svg xmlns="http://www.w3.org/2000/svg" width="119.7815" height="140.7842" viewBox="0 0 119.7815 140.7842"><title>sharing</title><g id="Layer_2" data-name="Layer 2"><g id="Register"><path d="M3.3532,67.6662C.9707,72.8526-1.4119,78.039,1.0168,83.6531,3.5705,89.9189,10.56,94.6577,17.3,98.0933s14.3942,6.3578,19.4292,11.4718c8.0034,8.26,8.5629,19.9754,18.0076,26.9453,6.3382,4.8639,15.184,5.1929,21.838,2.9025s10.7281-7.4637,13.6372-13.4267c11.2349-22.4239.5461-53.4762,14.3741-74.7087,5.93-9.583,17.448-18.2116,14.8087-30.2034C117.1306,11.037,106.3958,2.6256,95.22.717c-18.9684-3.791-39.6217,8.28-52.18,16.77C24.9805,30.75,12.482,48.3489,3.3532,67.6662" fill="#f4f7f8"/><path d="M100.6589,72.6048a3.722,3.722,0,0,0-4.8-2l-13.3,5.9c0-.2.1-.4.1-.6a3.3514,3.3514,0,0,0-3.3-3.4h-9.3l-7-3.3a11.0414,11.0414,0,0,0-4.7-1h-5.4v-2.5h-14.9v1.5h13.4v19h-10.7v1.5h12.2v-2.5h4l12.8,4.3a8.2389,8.2389,0,0,0,2.6.4,8.909,8.909,0,0,0,3.9-.9l22.3-11.7A3.6586,3.6586,0,0,0,100.6589,72.6048Zm-2.6,3.4-22.4,11.7a6.7519,6.7519,0,0,1-5.4.4l-12.9-4.3h-4.4v-14.1h5.4a9.0213,9.0213,0,0,1,4,.9l7.3,3.4h9.6a1.9669,1.9669,0,0,1,1.9,1.9,1.8987,1.8987,0,0,1-1.9,1.9h-11.4c-1,.2-3,1.1-3,3.1h1.5c0-1.2,1.4-1.5,1.7-1.6h11.2a4.1926,4.1926,0,0,0,1.6-.4h0l15.6-6.9a2.0987,2.0987,0,0,1,2.8,1.2A2.2571,2.2571,0,0,1,98.0589,76.0048Z"/><rect x="47.4589" y="82.0048" width="1.5" height="1.5" fill="#25cb55"/><rect x="44.2589" y="82.0048" width="1.5" height="1.5" fill="#25cb55"/><path d="M90.9589,24.4048h-24.8v4h-4.8v33.9h33.4v-4.7h4.5v-24.9Zm.5,2.6,5.3,5.3h-5.3Zm1.8,33.9h-30.4v-30.9h3.3v27.6h27.1Zm4.5-4.8h-30.1v-30.1h22.3v7.8h7.8Z"/><polygon points="93.259 57.605 93.259 60.905 62.859 60.905 62.859 30.005 66.159 30.005 66.159 57.605 93.259 57.605" fill="#dceeff"/><path d="M89.9589,33.8048v-7.8h-22.3v30.1h30.1v-22.3Zm-18.5,3.4h15.2v1.5h-15.2Zm22.6,13.7h-22.6v-1.5h22.6Zm0-6.1h-22.6v-1.5h22.6Z" fill="#dceeff"/><rect x="71.4589" y="37.2048" width="15.2002" height="1.5" fill="#3c31d5"/><rect x="71.4589" y="43.3048" width="22.6001" height="1.5" fill="#3c31d5"/><rect x="71.4589" y="49.4048" width="22.6001" height="1.5" fill="#3c31d5"/></g></g></svg>