<?xml version="1.0" encoding="UTF-8"?>
<svg width="1141px" height="589px" viewBox="0 0 1141 589" version="1.1" xmlns="http://www.w3.org/2000/svg" xmlns:xlink="http://www.w3.org/1999/xlink">
    <!-- Generator: Sketch 55 (78076) - https://sketchapp.com -->
    <title>Group 2</title>
    <desc>Created with Sketch.</desc>
    <defs>
        <linearGradient x1="0%" y1="50.0002147%" x2="100%" y2="50.0002147%" id="linearGradient-1">
            <stop stop-color="#009BFE" offset="0%"></stop>
            <stop stop-color="#DBEDFF" offset="100%"></stop>
        </linearGradient>
        <linearGradient x1="0%" y1="50.0002147%" x2="100%" y2="50.0002147%" id="linearGradient-2">
            <stop stop-color="#009BFE" offset="0%"></stop>
            <stop stop-color="#DBEDFF" offset="100%"></stop>
        </linearGradient>
        <linearGradient x1="0%" y1="50.0002147%" x2="100%" y2="50.0002147%" id="linearGradient-3">
            <stop stop-color="#009BFE" offset="0%"></stop>
            <stop stop-color="#DBEDFF" offset="100%"></stop>
        </linearGradient>
    </defs>
    <g id="Website" stroke="none" stroke-width="1" fill="none" fill-rule="evenodd">
        <g id="Legal-Framework" transform="translate(-150.000000, -4456.000000)">
            <g id="Group-2" transform="translate(150.000000, 4456.000000)">
                <polygon id="Fill-1" fill="url(#linearGradient-1)" points="0 164 1140 164 1140 0 0 0"></polygon>
                <polygon id="Fill-1" fill="url(#linearGradient-2)" points="1 254 1141 254 1141 180 1 180"></polygon>
                <g id="Group" transform="translate(0.000000, 209.000000)" fill="#373A3C" font-family="AtlasGrotesk-Bold, Atlas Grotesk" font-size="16" font-weight="bold" letter-spacing="0.08" line-spacing="16">
                    <text id="Resticted-Access">
                        <tspan x="109.6" y="13">Resticted Access</tspan>
                    </text>
                    <text id="Public">
                        <tspan x="543.792" y="13">Public</tspan>
                    </text>
                    <text id="Accesible-by-anyone">
                        <tspan x="876.84" y="13">Accesible by anyone</tspan>
                    </text>
                </g>
                <polygon id="Fill-1" fill="url(#linearGradient-3)" points="0 589 1140 589 1140 270 0 270"></polygon>
                <g id="arrow-right" transform="translate(367.000000, 84.000000)" fill="#373A3C" fill-rule="nonzero">
                    <path d="M15.9,8.4 C16,8.2 16,7.9 15.9,7.6 C15.8,7.5 15.8,7.4 15.7,7.3 L8.7,0.3 C8.3,-0.1 7.7,-0.1 7.3,0.3 C6.9,0.7 6.9,1.3 7.3,1.7 L12.6,7 L1,7 C0.4,7 -1.77635684e-15,7.4 -1.77635684e-15,8 C-1.77635684e-15,8.6 0.4,9 1,9 L12.6,9 L7.3,14.3 C6.9,14.7 6.9,15.3 7.3,15.7 C7.5,15.9 7.8,16 8,16 C8.2,16 8.5,15.9 8.7,15.7 L15.7,8.7 C15.8,8.6 15.9,8.5 15.9,8.4 L15.9,8.4 Z" id="Path"></path>
                </g>
                <g id="arrow-right" transform="translate(758.000000, 84.375000)" fill="#373A3C" fill-rule="nonzero">
                    <path d="M15.9,8.4 C16,8.2 16,7.9 15.9,7.6 C15.8,7.5 15.8,7.4 15.7,7.3 L8.7,0.3 C8.3,-0.1 7.7,-0.1 7.3,0.3 C6.9,0.7 6.9,1.3 7.3,1.7 L12.6,7 L1,7 C0.4,7 -1.77635684e-15,7.4 -1.77635684e-15,8 C-1.77635684e-15,8.6 0.4,9 1,9 L12.6,9 L7.3,14.3 C6.9,14.7 6.9,15.3 7.3,15.7 C7.5,15.9 7.8,16 8,16 C8.2,16 8.5,15.9 8.7,15.7 L15.7,8.7 C15.8,8.6 15.9,8.5 15.9,8.4 L15.9,8.4 Z" id="Path"></path>
                </g>
                <g id="Group-9" transform="translate(162.000000, 31.000000)" fill="#373A3C" fill-rule="nonzero">
                    <path d="M4.9812,21.1797589 C5.12068718,21.168855 5.2616226,21.1633 5.4038,21.1633 L8.6102,21.1633 L8.6102,12.3259 C8.6102,8.4123977 11.7930467,5.2299 15.7062,5.2299 L19.7242,5.2299 C23.6381789,5.2299 26.8212,8.41222324 26.8212,12.3259 L26.8212,21.0149 L30.4502,21.0149 L30.4502,12.3259 C30.4502,6.41208368 25.6377281,1.5999 19.7242,1.5999 L15.7062,1.5999 C9.7928837,1.5999 4.9812,6.41187191 4.9812,12.3259 L4.9812,21.1797589 Z M3.3812,21.5577436 L3.3812,12.3259 C3.3812,5.52823776 8.90920665,-0.0001 15.7062,-0.0001 L19.7242,-0.0001 C26.5213622,-0.0001 32.0502,5.52840663 32.0502,12.3259 L32.0502,21.5576623 C34.0286622,22.3618533 35.4318,24.3073235 35.4318,26.5663 L35.4318,48.0793 C35.4318,51.0531278 33.0016278,53.4833 30.0278,53.4833 L5.4038,53.4833 C2.4299722,53.4833 -0.0002,51.0531278 -0.0002,48.0793 L-0.0002,26.5663 C-0.0002,24.3073996 1.40284324,22.3619844 3.3812,21.5577436 Z M25.2212,21.1633 L25.2212,12.3259 C25.2212,9.29595738 22.7546018,6.8299 19.7242,6.8299 L15.7062,6.8299 C12.676663,6.8299 10.2102,9.29609257 10.2102,12.3259 L10.2102,21.1633 L25.2212,21.1633 Z M30.0278,51.8833 C32.1179722,51.8833 33.8318,50.1694722 33.8318,48.0793 L33.8318,26.5663 C33.8318,24.4769994 32.1178438,22.7633 30.0278,22.7633 L5.4038,22.7633 C3.31375618,22.7633 1.5998,24.4769994 1.5998,26.5663 L1.5998,48.0793 C1.5998,50.1694722 3.3136278,51.8833 5.4038,51.8833 L30.0278,51.8833 Z M21.772,34.6814 C21.772,36.1544 20.984,37.4404 19.809,38.1504 C19.823,38.2464 19.833,38.3444 19.833,38.4444 L19.833,41.9044 C19.833,43.0684 18.879,44.0214 17.715,44.0214 C16.551,44.0214 15.599,43.0684 15.599,41.9044 L15.599,38.4444 C15.599,38.3444 15.608,38.2464 15.622,38.1504 C14.447,37.4404 13.66,36.1544 13.66,34.6814 C13.66,32.4414 15.475,30.6254 17.715,30.6254 C19.956,30.6254 21.772,32.4414 21.772,34.6814 Z" id="Combined-Shape"></path>
                </g>
                <text id="Closed" font-family="Publico-Bold, Publico" font-size="24" font-weight="bold" line-spacing="37" fill="#000A12">
                    <tspan x="142.432" y="125">Closed</tspan>
                </text>
                <text id="Shared" font-family="Publico-Bold, Publico" font-size="24" font-weight="bold" line-spacing="37" fill="#000A12">
                    <tspan x="530.484" y="125">Shared</tspan>
                </text>
                <text id="Open" font-family="Publico-Bold, Publico" font-size="24" font-weight="bold" line-spacing="37" fill="#000A12">
                    <tspan x="929.988" y="125">Open</tspan>
                </text>
                <g id="Group-9" transform="translate(552.000000, 31.000000)" fill="#373A3C" fill-rule="nonzero">
                    <path d="M4.3806,21.5579008 L4.3806,12.3259 C4.3806,5.52840663 9.90943775,-0.0001 16.7066,-0.0001 L20.7246,-0.0001 C27.5215934,-0.0001 33.0496,5.52823776 33.0496,12.3259 L33.0496,14.3749 C33.0496,16.260824 31.5213318,17.7899 29.6356,17.7899 C27.7497722,17.7899 26.2206,16.2607278 26.2206,14.3749 L26.2206,12.3259 C26.2206,9.2957278 23.7547722,6.8299 20.7246,6.8299 L16.7066,6.8299 C13.6768334,6.8299 11.2096,9.29632206 11.2096,12.3259 L11.2096,21.1633 L31.0282,21.1633 C34.0010278,21.1633 36.4312,23.5934722 36.4312,26.5663 L36.4312,48.0793 C36.4312,51.0529458 34.0012098,53.4833 31.0282,53.4833 L6.4032,53.4833 C3.4300542,53.4833 0.9992,51.0528099 0.9992,48.0793 L0.9992,26.5663 C0.9992,24.3077491 2.40250278,22.3622864 4.3806,21.5579008 Z M9.6096,21.1633 L9.6096,12.3259 C9.6096,8.41254864 12.7932956,5.2299 16.7066,5.2299 L20.7246,5.2299 C24.6384278,5.2299 27.8206,8.4120722 27.8206,12.3259 L27.8206,14.3749 C27.8206,15.3770722 28.6334278,16.1899 29.6356,16.1899 C30.6374868,16.1899 31.4496,15.3773576 31.4496,14.3749 L31.4496,12.3259 C31.4496,6.41187191 26.6379163,1.5999 20.7246,1.5999 L16.7066,1.5999 C10.7930719,1.5999 5.9806,6.41208368 5.9806,12.3259 L5.9806,21.1797679 C6.12008953,21.1688581 6.26102507,21.1633 6.4032,21.1633 L9.6096,21.1633 Z M31.0282,51.8833 C33.1175006,51.8833 34.8312,50.1693438 34.8312,48.0793 L34.8312,26.5663 C34.8312,24.4771278 33.1173722,22.7633 31.0282,22.7633 L6.4032,22.7633 C4.31378457,22.7633 2.5992,24.477371 2.5992,26.5663 L2.5992,48.0793 C2.5992,50.1691006 4.31365616,51.8833 6.4032,51.8833 L31.0282,51.8833 Z M22.7714,34.6814 C22.7714,36.1544 21.9844,37.4404 20.8094,38.1504 C20.8234,38.2464 20.8334,38.3444 20.8334,38.4444 L20.8334,41.9044 C20.8334,43.0684 19.8794,44.0214 18.7154,44.0214 C17.5514,44.0214 16.5984,43.0684 16.5984,41.9044 L16.5984,38.4444 C16.5984,38.3444 16.6084,38.2464 16.6224,38.1504 C15.4474,37.4404 14.6594,36.1544 14.6594,34.6814 C14.6594,32.4414 16.4754,30.6254 18.7154,30.6254 C20.9564,30.6254 22.7714,32.4414 22.7714,34.6814 Z" id="Combined-Shape"></path>
                </g>
                <g id="Group-9" transform="translate(921.000000, 33.000000)" fill="#373A3C" fill-rule="nonzero">
                    <path d="M27.0689,21.1633 L27.0689,12.3259 C27.0689,6.41187191 22.2572163,1.5999 16.3439,1.5999 L12.3259,1.5999 C6.4123719,1.5999 1.5999,6.41208368 1.5999,12.3259 L1.5999,14.3749 C1.5999,15.3770722 2.4127278,16.1899 3.4149,16.1899 C4.41678684,16.1899 5.2289,15.3773576 5.2289,14.3749 L5.2289,12.3259 C5.2289,8.41222324 8.41192111,5.2299 12.3259,5.2299 L16.3439,5.2299 C20.2570533,5.2299 23.4399,8.4123977 23.4399,12.3259 L23.4399,21.1671772 C23.5080612,21.1646002 23.5765356,21.1633 23.6453,21.1633 L27.0689,21.1633 Z M21.8399,21.4750132 L21.8399,12.3259 C21.8399,9.29609257 19.373437,6.8299 16.3439,6.8299 L12.3259,6.8299 C9.29549818,6.8299 6.8289,9.29595738 6.8289,12.3259 L6.8289,14.3749 C6.8289,16.260824 5.30063175,17.7899 3.4149,17.7899 C1.5290722,17.7899 -0.000100000001,16.2607278 -0.000100000001,14.3749 L-0.000100000001,12.3259 C-0.000100000001,5.52840663 5.52873775,-9.99999997e-05 12.3259,-9.99999997e-05 L16.3439,-9.99999997e-05 C23.1408934,-9.99999997e-05 28.6689,5.52823776 28.6689,12.3259 L28.6689,21.1633 L48.2703,21.1633 C51.2432637,21.1633 53.6743,23.5936081 53.6743,26.5663 L53.6743,48.0793 C53.6743,51.0528099 51.2434458,53.4833 48.2703,53.4833 L23.6453,53.4833 C20.6721542,53.4833 18.2413,51.0528099 18.2413,48.0793 L18.2413,26.5663 C18.2413,24.2259306 19.7481168,22.2217441 21.8399,21.4750132 Z M48.2703,51.8833 C50.3598438,51.8833 52.0743,50.1691006 52.0743,48.0793 L52.0743,26.5663 C52.0743,24.477371 50.3597154,22.7633 48.2703,22.7633 L23.6453,22.7633 C21.5558846,22.7633 19.8413,24.477371 19.8413,26.5663 L19.8413,48.0793 C19.8413,50.1691006 21.5557562,51.8833 23.6453,51.8833 L48.2703,51.8833 Z M40.0144,34.6814 C40.0144,36.1544 39.2264,37.4404 38.0514,38.1504 C38.0654,38.2464 38.0754,38.3444 38.0754,38.4444 L38.0754,41.9044 C38.0754,43.0684 37.1214,44.0214 35.9574,44.0214 C34.7934,44.0214 33.8404,43.0684 33.8404,41.9044 L33.8404,38.4444 C33.8404,38.3444 33.8504,38.2464 33.8644,38.1504 C32.6894,37.4404 31.9014,36.1544 31.9014,34.6814 C31.9014,32.4414 33.7174,30.6254 35.9574,30.6254 C38.1984,30.6254 40.0144,32.4414 40.0144,34.6814 Z" id="Combined-Shape"></path>
                </g>
                <text id="Access-may-be-only-" font-family="AtlasGrotesk-Regular, Atlas Grotesk" font-size="16" font-weight="normal" line-spacing="20" letter-spacing="0.08000001" fill="#373A3C">
                    <tspan x="97" y="315">Access may be only </tspan>
                    <tspan x="97" y="335">for law enforcement </tspan>
                    <tspan x="97" y="355">and other authorized </tspan>
                    <tspan x="97" y="375">bodies</tspan>
                    <tspan x="97" y="395"></tspan>
                    <tspan x="97" y="415">Access may be </tspan>
                    <tspan x="97" y="435">limited to persons </tspan>
                    <tspan x="97" y="455">demonstrating </tspan>
                    <tspan x="97" y="475">“legitimate interest”</tspan>
                </text>
                <text id="Payment-may-be-requi" font-family="AtlasGrotesk-Regular, Atlas Grotesk" font-size="16" font-weight="normal" line-spacing="20" letter-spacing="-0.08" fill="#373A3C">
                    <tspan x="487" y="315">Payment may be </tspan>
                    <tspan x="487" y="335">required to access</tspan>
                    <tspan x="487" y="355"></tspan>
                    <tspan x="487" y="375">May require </tspan>
                    <tspan x="487" y="395">registration,password</tspan>
                    <tspan x="487" y="415">s or authentication</tspan>
                    <tspan x="487" y="435"></tspan>
                    <tspan x="487" y="455">Data may be </tspan>
                    <tspan x="487" y="475">unstructured (eg. </tspan>
                    <tspan x="487" y="495">paper forms, .pdf’s)</tspan>
                    <tspan x="487" y="515"></tspan>
                    <tspan x="487" y="535">Licence may limit use</tspan>
                </text>
                <text id="Free-(no-cost)-Struc" font-family="AtlasGrotesk-Regular, Atlas Grotesk" font-size="16" font-weight="normal" line-spacing="20" letter-spacing="-0.08" fill="#373A3C">
                    <tspan x="877" y="315">Free (no cost)</tspan>
                    <tspan x="877" y="335"></tspan>
                    <tspan x="877" y="355">Structured data</tspan>
                    <tspan x="877" y="375"></tspan>
                    <tspan x="877" y="395">Open licence</tspan>
                </text>
            </g>
        </g>
    </g>
</svg>