<svg aria-hidden="true" style="position: absolute; width: 0; height: 0; overflow: hidden;" version="1.1" xmlns="http://www.w3.org/2000/svg" xmlns:xlink="http://www.w3.org/1999/xlink">
<defs>
<symbol id="icon-twitter" viewBox="0 0 26 28">
<title>twitter</title>
<path d="M25.312 6.375c-0.688 1-1.547 1.891-2.531 2.609 0.016 0.219 0.016 0.438 0.016 0.656 0 6.672-5.078 14.359-14.359 14.359-2.859 0-5.516-0.828-7.75-2.266 0.406 0.047 0.797 0.063 1.219 0.063 2.359 0 4.531-0.797 6.266-2.156-2.219-0.047-4.078-1.5-4.719-3.5 0.313 0.047 0.625 0.078 0.953 0.078 0.453 0 0.906-0.063 1.328-0.172-2.312-0.469-4.047-2.5-4.047-4.953v-0.063c0.672 0.375 1.453 0.609 2.281 0.641-1.359-0.906-2.25-2.453-2.25-4.203 0-0.938 0.25-1.797 0.688-2.547 2.484 3.062 6.219 5.063 10.406 5.281-0.078-0.375-0.125-0.766-0.125-1.156 0-2.781 2.25-5.047 5.047-5.047 1.453 0 2.766 0.609 3.687 1.594 1.141-0.219 2.234-0.641 3.203-1.219-0.375 1.172-1.172 2.156-2.219 2.781 1.016-0.109 2-0.391 2.906-0.781z"></path>
</symbol>
<symbol id="icon-github" viewBox="0 0 24 28">
<title>github</title>
<path d="M12 2c6.625 0 12 5.375 12 12 0 5.297-3.437 9.797-8.203 11.391-0.609 0.109-0.828-0.266-0.828-0.578 0-0.391 0.016-1.687 0.016-3.297 0-1.125-0.375-1.844-0.812-2.219 2.672-0.297 5.484-1.313 5.484-5.922 0-1.313-0.469-2.375-1.234-3.219 0.125-0.313 0.531-1.531-0.125-3.187-1-0.313-3.297 1.234-3.297 1.234-0.953-0.266-1.984-0.406-3-0.406s-2.047 0.141-3 0.406c0 0-2.297-1.547-3.297-1.234-0.656 1.656-0.25 2.875-0.125 3.187-0.766 0.844-1.234 1.906-1.234 3.219 0 4.594 2.797 5.625 5.469 5.922-0.344 0.313-0.656 0.844-0.766 1.609-0.688 0.313-2.438 0.844-3.484-1-0.656-1.141-1.844-1.234-1.844-1.234-1.172-0.016-0.078 0.734-0.078 0.734 0.781 0.359 1.328 1.75 1.328 1.75 0.703 2.141 4.047 1.422 4.047 1.422 0 1 0.016 1.937 0.016 2.234 0 0.313-0.219 0.688-0.828 0.578-4.766-1.594-8.203-6.094-8.203-11.391 0-6.625 5.375-12 12-12zM4.547 19.234c0.031-0.063-0.016-0.141-0.109-0.187-0.094-0.031-0.172-0.016-0.203 0.031-0.031 0.063 0.016 0.141 0.109 0.187 0.078 0.047 0.172 0.031 0.203-0.031zM5.031 19.766c0.063-0.047 0.047-0.156-0.031-0.25-0.078-0.078-0.187-0.109-0.25-0.047-0.063 0.047-0.047 0.156 0.031 0.25 0.078 0.078 0.187 0.109 0.25 0.047zM5.5 20.469c0.078-0.063 0.078-0.187 0-0.297-0.063-0.109-0.187-0.156-0.266-0.094-0.078 0.047-0.078 0.172 0 0.281s0.203 0.156 0.266 0.109zM6.156 21.125c0.063-0.063 0.031-0.203-0.063-0.297-0.109-0.109-0.25-0.125-0.313-0.047-0.078 0.063-0.047 0.203 0.063 0.297 0.109 0.109 0.25 0.125 0.313 0.047zM7.047 21.516c0.031-0.094-0.063-0.203-0.203-0.25-0.125-0.031-0.266 0.016-0.297 0.109s0.063 0.203 0.203 0.234c0.125 0.047 0.266 0 0.297-0.094zM8.031 21.594c0-0.109-0.125-0.187-0.266-0.172-0.141 0-0.25 0.078-0.25 0.172 0 0.109 0.109 0.187 0.266 0.172 0.141 0 0.25-0.078 0.25-0.172zM8.937 21.438c-0.016-0.094-0.141-0.156-0.281-0.141-0.141 0.031-0.234 0.125-0.219 0.234 0.016 0.094 0.141 0.156 0.281 0.125s0.234-0.125 0.219-0.219z"></path>
</symbol>
<symbol id="icon-linkedin" viewBox="0 0 24 28">
<title>linkedin</title>
<path d="M5.453 9.766v15.484h-5.156v-15.484h5.156zM5.781 4.984c0.016 1.484-1.109 2.672-2.906 2.672v0h-0.031c-1.734 0-2.844-1.188-2.844-2.672 0-1.516 1.156-2.672 2.906-2.672 1.766 0 2.859 1.156 2.875 2.672zM24 16.375v8.875h-5.141v-8.281c0-2.078-0.75-3.5-2.609-3.5-1.422 0-2.266 0.953-2.641 1.875-0.125 0.344-0.172 0.797-0.172 1.266v8.641h-5.141c0.063-14.031 0-15.484 0-15.484h5.141v2.25h-0.031c0.672-1.062 1.891-2.609 4.672-2.609 3.391 0 5.922 2.219 5.922 6.969z"></path>
</symbol>
<symbol id="icon-instagram" viewBox="0 0 24 28">
<title>instagram</title>
<path d="M16 14c0-2.203-1.797-4-4-4s-4 1.797-4 4 1.797 4 4 4 4-1.797 4-4zM18.156 14c0 3.406-2.75 6.156-6.156 6.156s-6.156-2.75-6.156-6.156 2.75-6.156 6.156-6.156 6.156 2.75 6.156 6.156zM19.844 7.594c0 0.797-0.641 1.437-1.437 1.437s-1.437-0.641-1.437-1.437 0.641-1.437 1.437-1.437 1.437 0.641 1.437 1.437zM12 4.156c-1.75 0-5.5-0.141-7.078 0.484-0.547 0.219-0.953 0.484-1.375 0.906s-0.688 0.828-0.906 1.375c-0.625 1.578-0.484 5.328-0.484 7.078s-0.141 5.5 0.484 7.078c0.219 0.547 0.484 0.953 0.906 1.375s0.828 0.688 1.375 0.906c1.578 0.625 5.328 0.484 7.078 0.484s5.5 0.141 7.078-0.484c0.547-0.219 0.953-0.484 1.375-0.906s0.688-0.828 0.906-1.375c0.625-1.578 0.484-5.328 0.484-7.078s0.141-5.5-0.484-7.078c-0.219-0.547-0.484-0.953-0.906-1.375s-0.828-0.688-1.375-0.906c-1.578-0.625-5.328-0.484-7.078-0.484zM24 14c0 1.656 0.016 3.297-0.078 4.953-0.094 1.922-0.531 3.625-1.937 5.031s-3.109 1.844-5.031 1.937c-1.656 0.094-3.297 0.078-4.953 0.078s-3.297 0.016-4.953-0.078c-1.922-0.094-3.625-0.531-5.031-1.937s-1.844-3.109-1.937-5.031c-0.094-1.656-0.078-3.297-0.078-4.953s-0.016-3.297 0.078-4.953c0.094-1.922 0.531-3.625 1.937-5.031s3.109-1.844 5.031-1.937c1.656-0.094 3.297-0.078 4.953-0.078s3.297-0.016 4.953 0.078c1.922 0.094 3.625 0.531 5.031 1.937s1.844 3.109 1.937 5.031c0.094 1.656 0.078 3.297 0.078 4.953z"></path>
</symbol>
<symbol id="icon-medium" viewBox="0 0 28 28">
<title>medium</title>
<path d="M9.328 6.578v18.328c0 0.484-0.234 0.938-0.766 0.938-0.187 0-0.359-0.047-0.516-0.125l-7.266-3.641c-0.438-0.219-0.781-0.781-0.781-1.25v-17.813c0-0.391 0.187-0.75 0.609-0.75 0.25 0 0.469 0.125 0.688 0.234l7.984 4c0.016 0.016 0.047 0.063 0.047 0.078zM10.328 8.156l8.344 13.531-8.344-4.156v-9.375zM28 8.437v16.469c0 0.516-0.297 0.875-0.812 0.875-0.266 0-0.516-0.078-0.734-0.203l-6.891-3.437zM27.953 6.563c0 0.063-8.078 13.172-8.703 14.172l-6.094-9.906 5.063-8.234c0.172-0.281 0.484-0.438 0.812-0.438 0.141 0 0.281 0.031 0.406 0.094l8.453 4.219c0.031 0.016 0.063 0.047 0.063 0.094z"></path>
</symbol>
<symbol id="icon-arrow-left" viewBox="0 0 24 24">
<title>arrow-left</title>
<path d="M19 11h-11.6l5.3-5.3c0.4-0.4 0.4-1 0-1.4s-1-0.4-1.4 0l-7 7c-0.1 0.1-0.2 0.2-0.2 0.3-0.1 0.2-0.1 0.5 0 0.8 0.1 0.1 0.1 0.2 0.2 0.3l7 7c0.2 0.2 0.5 0.3 0.7 0.3s0.5-0.1 0.7-0.3c0.4-0.4 0.4-1 0-1.4l-5.3-5.3h11.6c0.6 0 1-0.4 1-1s-0.4-1-1-1z"></path>
</symbol>
<symbol id="icon-arrow-right" viewBox="0 0 24 24">
<title>arrow-right</title>
<path d="M19.9 12.4c0.1-0.2 0.1-0.5 0-0.8-0.1-0.1-0.1-0.2-0.2-0.3l-7-7c-0.4-0.4-1-0.4-1.4 0s-0.4 1 0 1.4l5.3 5.3h-11.6c-0.6 0-1 0.4-1 1s0.4 1 1 1h11.6l-5.3 5.3c-0.4 0.4-0.4 1 0 1.4 0.2 0.2 0.5 0.3 0.7 0.3s0.5-0.1 0.7-0.3l7-7c0.1-0.1 0.2-0.2 0.2-0.3z"></path>
</symbol>
<symbol id="icon-user" viewBox="0 0 24 24">
<title>user</title>
<path d="M16 14h-8c-2.8 0-5 2.2-5 5v2c0 0.6 0.4 1 1 1s1-0.4 1-1v-2c0-1.7 1.3-3 3-3h8c1.7 0 3 1.3 3 3v2c0 0.6 0.4 1 1 1s1-0.4 1-1v-2c0-2.8-2.2-5-5-5z"></path>
<path d="M12 12c2.8 0 5-2.2 5-5s-2.2-5-5-5-5 2.2-5 5 2.2 5 5 5zM12 4c1.7 0 3 1.3 3 3s-1.3 3-3 3-3-1.3-3-3 1.3-3 3-3z"></path>
</symbol>
<symbol id="icon-external" viewBox="0 0 37 32">
<title>external</title>
<path d="M25.239 23.793v0c-0.387 0-0.75 0.15-1.023 0.424-4.872 4.872-12.799 4.871-17.671 0s-4.872-12.799 0-17.671 12.799-4.871 17.671-0c0.547 0.548 1.5 0.547 2.045 0 0.274-0.273 0.425-0.637 0.425-1.023s-0.151-0.75-0.424-1.023c-2.902-2.902-6.766-4.5-10.881-4.5s-7.979 1.599-10.881 4.5c-2.902 2.902-4.5 6.766-4.5 10.881s1.599 7.979 4.5 10.882c2.902 2.902 6.766 4.499 10.881 4.499s7.978-1.598 10.881-4.5c0.274-0.274 0.424-0.637 0.424-1.024s-0.151-0.75-0.424-1.023c-0.274-0.273-0.637-0.424-1.023-0.424z"></path>
<path d="M36.3 14.578c-0.055-0.083-0.116-0.157-0.182-0.222l-4.927-4.928c-0.547-0.546-1.499-0.546-2.046 0-0.273 0.274-0.424 0.637-0.424 1.024s0.151 0.749 0.424 1.023l2.46 2.459h-16.224c-0.798 0-1.447 0.649-1.447 1.447s0.649 1.447 1.447 1.447h16.224l-2.46 2.46c-0.273 0.274-0.424 0.637-0.424 1.023s0.151 0.75 0.424 1.022c0.273 0.274 0.637 0.424 1.023 0.424s0.75-0.15 1.023-0.424l4.929-4.929c0.487-0.487 0.562-1.255 0.18-1.825z"></path>
</symbol>
<symbol id="icon-transparency-international" viewBox="0 0 127 32">
<title>transparency-international</title>
<path d="M44.311 10.193c0.448 0 0.768-0.128 1.025-0.384s0.32-0.576 0.32-0.896c0-0.384-0.128-0.704-0.384-0.896s-0.576-0.32-1.025-0.32h-0.896v2.432h0.961l-0.001 0.064zM41.877 6.481h2.625c0.961 0 1.665 0.192 2.113 0.64s0.704 1.024 0.704 1.728c0 0.512-0.128 0.96-0.448 1.344-0.256 0.384-0.704 0.64-1.153 0.832l2.369 3.072-1.409 0.768-2.305-3.2c-0.128-0.192-0.32-0.256-0.576-0.256h-0.448v3.328h-1.537l0.064-8.256h0.001zM52.507 8.081l-1.089 3.2h1.985l-0.896-3.2zM50.074 14.865l-1.409-0.448 3.202-7.936h1.409l2.946 7.936-1.537 0.448-0.832-2.368h-2.881l-0.896 2.368h-0.002zM57.438 6.737l1.409-0.448 3.842 6.336-0.064-6.208h1.537l-0.128 8-1.537 0.448-3.714-6.272-0.064 0.064 0.128 6.080h-1.473c0 0 0.064-8 0.064-8zM66.658 13.073c0.256 0.128 0.448 0.256 0.704 0.384s0.512 0.128 0.704 0.128c0.384 0 0.704-0.128 0.96-0.32 0.256-0.256 0.32-0.512 0.32-0.832 0-0.448-0.384-0.832-1.217-1.216-0.768-0.384-1.345-0.704-1.665-0.96s-0.512-0.768-0.512-1.6c0-0.704 0.256-1.28 0.768-1.728s1.153-0.704 1.985-0.704c0.384 0 0.768 0.064 1.153 0.192s0.768 0.32 1.153 0.512l-0.64 1.152c-0.384-0.256-0.64-0.384-0.832-0.448s-0.448-0.128-0.704-0.128c-0.384 0-0.704 0.128-0.96 0.32s-0.384 0.448-0.384 0.832c0 0.448 0.448 0.832 1.281 1.28s1.409 0.768 1.729 0.96c0.32 0.256 0.448 0.704 0.448 1.472 0 0.704-0.256 1.28-0.768 1.792-0.512 0.448-1.153 0.704-1.985 0.704-0.768 0-1.537-0.192-2.241-0.64l0.703-1.152zM75.431 10.257c0.448 0 0.768-0.128 1.025-0.32 0.256-0.256 0.384-0.512 0.384-0.896 0-0.32-0.128-0.576-0.32-0.896-0.192-0.256-0.576-0.384-1.089-0.384h-0.832v2.56h0.832c0 0 0-0.064 0-0.064zM73.126 6.481h2.305c1.025 0 1.793 0.192 2.305 0.64s0.704 1.024 0.704 1.856-0.256 1.408-0.832 1.856-1.281 0.64-2.113 0.64h-0.832v3.2h-1.537c0 0 0-8.192 0-8.192zM82.346 8.081l-1.089 3.2h1.985l-0.896-3.2zM79.913 14.865l-1.409-0.384 3.138-8h1.409l2.945 7.936-1.473 0.448-0.832-2.368h-2.881l-0.897 2.368zM89.646 10.193c0.448 0 0.768-0.128 1.025-0.384s0.32-0.576 0.32-0.896c0-0.384-0.128-0.704-0.384-0.896s-0.576-0.32-1.025-0.32h-0.896v2.432h0.96c0 0 0 0.064 0 0.064zM87.213 6.481h2.625c0.96 0 1.665 0.192 2.113 0.64s0.704 1.024 0.704 1.728c0 0.512-0.128 0.96-0.448 1.344-0.256 0.384-0.704 0.64-1.153 0.832l2.369 3.072-1.345 0.832-2.305-3.136c-0.128-0.192-0.32-0.256-0.576-0.256h-0.448v3.328h-1.537l0.001-8.384zM95.089 6.481h4.418v1.28h-2.881l-0.064 2.112h2.881v1.28h-2.881v2.24h2.945v1.344h-4.482c0 0 0.064-8.256 0.064-8.256zM101.62 6.737l1.409-0.448 3.842 6.336-0.064-6.208h1.537l-0.064 8-1.601 0.448-3.714-6.272v0.064l0.128 6.080h-1.537c0 0 0.064-8 0.064-8zM116.732 14.033c-0.384 0.256-0.768 0.448-1.217 0.576s-0.896 0.192-1.409 0.192c-1.217 0-2.241-0.384-3.074-1.216-0.832-0.768-1.217-1.792-1.217-3.072s0.384-2.304 1.153-3.072c0.768-0.832 1.793-1.216 3.010-1.216 1.025 0 1.921 0.32 2.689 0.96l-0.64 1.152c-0.256-0.256-0.576-0.448-0.896-0.576-0.384-0.128-0.704-0.192-1.089-0.192-0.768 0-1.409 0.256-1.921 0.832s-0.768 1.28-0.768 2.112c0 0.832 0.256 1.536 0.768 2.112s1.153 0.896 1.857 0.896c0.448 0 0.832-0.064 1.153-0.128s0.576-0.192 0.896-0.384l0.705 1.024zM120.574 11.281l-2.689-4.224 1.345-0.768 2.177 3.52 2.241-3.52 1.345 0.768-2.817 4.16-0.064 3.52h-1.601l0.063-3.456zM36.563 16.849h1.537l-0.064 8.192h-1.537c0 0 0.064-8.192 0.064-8.192zM39.636 17.105l1.409-0.448 3.842 6.336-0.064-6.208h1.537l-0.064 8-1.537 0.448-3.778-6.272 0.128 6.080h-1.537l0.064-7.936zM49.818 18.129h-2.305v-1.28h6.083v1.28h-2.241l-0.064 6.912h-1.537l0.064-6.912zM54.876 16.849h4.418v1.28h-2.881l-0.064 2.112h2.881v1.28h-2.881v2.24h2.946v1.28h-4.546l0.127-8.192zM63.521 20.497c0.448 0 0.768-0.128 1.025-0.384s0.32-0.576 0.32-0.896c0-0.384-0.128-0.704-0.384-0.896s-0.576-0.32-1.025-0.32h-0.896v2.432h0.961l-0.001 0.064zM61.087 16.849h2.625c0.96 0 1.665 0.192 2.113 0.64s0.704 1.024 0.704 1.728c0 0.512-0.128 0.96-0.448 1.344-0.256 0.384-0.704 0.64-1.153 0.832l2.369 3.072-1.345 0.832-2.305-3.136c-0.128-0.192-0.32-0.256-0.576-0.256h-0.448v3.328h-1.537l0.001-8.384zM68.643 17.105l1.409-0.448 3.842 6.336-0.064-6.208h1.537l-0.064 8-1.601 0.448-3.714-6.272 0.128 6.080h-1.537l0.064-7.936zM80.297 18.385l-1.089 3.2h1.985l-0.896-3.2zM77.864 25.233l-1.409-0.384 3.138-8h1.409l2.945 7.936-1.473 0.448-0.832-2.368h-2.881l-0.897 2.368zM86.188 18.129h-2.305v-1.28h6.147l-0.064 1.28h-2.241l-0.064 6.912h-1.537l0.064-6.912zM91.183 16.849h1.537l-0.064 8.192h-1.537c0 0 0.064-8.192 0.064-8.192zM98.547 23.953c0.832 0 1.537-0.32 2.049-0.896s0.768-1.28 0.768-2.176-0.256-1.6-0.768-2.176-1.217-0.832-2.049-0.832c-0.768 0-1.409 0.256-1.985 0.832s-0.832 1.28-0.832 2.24c0 0.896 0.256 1.664 0.768 2.176 0.512 0.576 1.153 0.832 2.049 0.832zM98.547 16.657c1.281 0 2.369 0.384 3.202 1.216s1.217 1.856 1.217 3.072-0.448 2.24-1.281 3.072-1.921 1.216-3.138 1.216c-1.281 0-2.305-0.384-3.138-1.216s-1.281-1.856-1.281-3.072 0.448-2.24 1.281-3.008c0.832-0.832 1.857-1.28 3.138-1.28zM104.438 17.105l1.409-0.448 3.842 6.336-0.064-6.208h1.537l-0.064 8-1.537 0.448-3.778-6.272 0.128 6.080h-1.537c0 0 0.064-7.936 0.064-7.936zM115.835 18.385l-1.089 3.2h1.985l-0.896-3.2zM113.402 25.233l-1.409-0.384 3.138-8h1.409l2.945 7.936-1.473 0.448-0.832-2.368h-2.881l-0.897 2.368zM120.51 16.849h1.537l-0.064 6.912h3.202v1.28h-4.738l0.064-8.192h-0.001zM17.225 9.297c0 1.408-1.153 2.56-2.561 2.56s-2.561-1.152-2.561-2.56 1.153-2.56 2.561-2.56 2.561 1.152 2.561 2.56zM18.377 29.393c5.187-0.832 9.413-4.544 11.142-9.344 0.512-1.472 0.768-3.008 0.768-4.672 0-1.344-0.192-2.624-0.512-3.84-0.32 4.352-6.275 8-13.703 8.256-2.241 0.064-4.418-0.192-6.339-0.704 0.128 3.712 0.896 7.168 2.177 9.92 0.128 0.064 0.32 0.064 0.512 0.128-0.896-2.432-1.921-6.4-1.729-9.28 1.793 0.384 3.714 0.576 5.699 0.576-0.064 0.448-0.064 0.832-0.064 1.28 0 2.752 0.704 6.656 2.049 7.68zM4.995 10.257c1.153-3.328 3.202-6.144 5.699-8.128-3.010 1.152-5.507 3.392-7.044 6.144 0.256 0.704 0.704 1.408 1.345 1.984zM1.729 15.377c0 3.392 1.217 6.592 3.266 9.088-0.768-2.176-1.217-4.608-1.217-7.104 0-0.448 0.064-0.896 0.064-1.344-0.961-0.96-1.601-1.984-1.857-3.136-0.192 0.832-0.256 1.664-0.256 2.496zM24.012 2.641c4.482 2.816 7.492 7.744 7.492 13.44 0 3.328-1.089 6.4-2.817 8.96-2.817 4.096-7.556 6.784-12.935 6.784-0.832 0-1.601-0.064-2.369-0.192-1.921-0.32-3.778-0.96-5.443-1.92-4.738-2.688-7.94-7.808-7.94-13.632 0-7.744 5.635-14.208 13.063-15.552 0.896-0.192 1.793-0.256 2.753-0.256 1.601 0 3.074 0.192 4.482 0.64 0.448 0.128 1.345 0.448 1.409 0.512 0.064 0-0.32 0.64-0.32 0.64-1.153-0.448-2.305-0.768-3.522-0.896-3.65 1.152-6.595 5.696-7.684 11.648 1.601 0.384 3.394 0.64 5.315 0.64 6.659 0 12.102-2.88 12.102-6.464-0.384-0.512-0.768-1.024-1.217-1.472-0.832-0.832-1.729-1.6-2.753-2.24-0.064 0-0.064 0-0.064 0l0.448-0.64c0 0.064 0 0 0 0zM36.819 7.808h-2.305v-1.344h6.083v1.344h-2.305l-0.064 6.912h-1.473l0.064-6.912z"></path>
</symbol>
<symbol id="icon-open-contracting-partnership" viewBox="0 0 63 32">
<title>open-contracting-partnership</title>
<path d="M30.89 21.369h0.57c0.173 0 0.316-0.019 0.43-0.056s0.204-0.089 0.27-0.155 0.113-0.144 0.139-0.234c0.026-0.090 0.040-0.186 0.040-0.291 0-0.233-0.062-0.412-0.187-0.539s-0.304-0.19-0.536-0.19h-0.726v1.465zM29.896 22.84h0.483v-2.937h-0.483v-0.377h1.705c0.256 0 0.465 0.035 0.628 0.104s0.292 0.158 0.387 0.266c0.095 0.108 0.16 0.228 0.197 0.36 0.036 0.133 0.054 0.261 0.054 0.384 0 0.213-0.038 0.388-0.112 0.526s-0.178 0.246-0.312 0.326c-0.133 0.080-0.292 0.135-0.476 0.166-0.185 0.031-0.386 0.047-0.603 0.047h-0.467v1.135h0.506v0.374h-1.507v-0.374z"></path>
<path d="M35.056 22.087c-0.068 0-0.154-0.008-0.257-0.025-0.104-0.017-0.213-0.025-0.328-0.025-0.083 0-0.166 0.006-0.25 0.018-0.083 0.011-0.158 0.035-0.222 0.069s-0.118 0.083-0.158 0.147c-0.041 0.064-0.061 0.148-0.061 0.253 0 0.055 0.010 0.108 0.032 0.158s0.053 0.093 0.094 0.129 0.092 0.065 0.152 0.086c0.060 0.021 0.129 0.032 0.208 0.032 0.071 0 0.142-0.006 0.214-0.019 0.073-0.013 0.143-0.031 0.213-0.056s0.135-0.054 0.197-0.090 0.117-0.075 0.167-0.12v-0.557zM33.479 20.95c0.115-0.115 0.258-0.204 0.429-0.265 0.171-0.062 0.366-0.093 0.585-0.093 0.2 0 0.368 0.024 0.502 0.072s0.241 0.111 0.32 0.19c0.079 0.079 0.135 0.169 0.168 0.272s0.049 0.208 0.049 0.317v1.43h0.461v0.342h-0.886l-0.006-0.265c-0.085 0.062-0.165 0.113-0.24 0.155s-0.148 0.075-0.219 0.099c-0.072 0.024-0.144 0.042-0.216 0.053s-0.148 0.016-0.227 0.016c-0.134 0-0.255-0.021-0.363-0.062s-0.199-0.096-0.275-0.165c-0.076-0.068-0.133-0.148-0.173-0.238-0.039-0.091-0.059-0.185-0.059-0.283 0-0.16 0.029-0.292 0.088-0.397s0.138-0.188 0.238-0.25 0.218-0.105 0.354-0.129c0.135-0.024 0.279-0.037 0.43-0.037 0.102 0 0.204 0.005 0.304 0.016s0.204 0.027 0.313 0.048v-0.31c0-0.090-0.015-0.166-0.047-0.229s-0.073-0.113-0.128-0.152c-0.054-0.038-0.118-0.066-0.19-0.084-0.073-0.018-0.149-0.027-0.23-0.027-0.147 0-0.28 0.024-0.398 0.072s-0.215 0.121-0.29 0.219l-0.294-0.315z"></path>
<path d="M36.365 22.872h0.515v-1.878h-0.535v-0.355h0.925l0.003 0.56c0.058-0.117 0.12-0.215 0.186-0.293s0.138-0.14 0.214-0.187c0.077-0.047 0.16-0.080 0.249-0.099s0.186-0.029 0.288-0.029c0.092 0 0.191 0.007 0.297 0.019l-0.016 0.445c-0.002-0.004-0.019-0.006-0.050-0.006h-0.264c-0.158 0-0.289 0.023-0.394 0.067-0.105 0.045-0.188 0.109-0.251 0.191-0.063 0.083-0.108 0.183-0.135 0.3s-0.040 0.248-0.040 0.393v0.872h0.563v0.342h-1.558v-0.342z"></path>
<path d="M38.871 20.639h0.397v-0.825l0.483-0.102v0.928h0.553v0.355h-0.554v1.296c0 0.098 0.002 0.184 0.005 0.256 0.004 0.073 0.013 0.133 0.031 0.181s0.043 0.084 0.080 0.109c0.036 0.024 0.088 0.037 0.157 0.037h0.377v0.342h-0.441c-0.166 0-0.296-0.024-0.389-0.073s-0.161-0.117-0.206-0.203c-0.045-0.086-0.072-0.188-0.082-0.304s-0.014-0.242-0.014-0.379v-1.261h-0.397v-0.357z"></path>
<path d="M40.813 22.872h0.458v-1.878h-0.477v-0.355h0.947l0.013 0.332c0.164-0.128 0.317-0.223 0.458-0.286s0.29-0.094 0.448-0.094c0.117 0 0.222 0.019 0.315 0.058 0.093 0.038 0.172 0.094 0.236 0.166 0.065 0.073 0.115 0.159 0.149 0.261 0.034 0.101 0.051 0.215 0.051 0.341l-0.003 1.456h0.464v0.342h-1.286v-0.342h0.352v-1.279c0-0.188-0.029-0.335-0.086-0.44s-0.162-0.158-0.313-0.158c-0.147 0-0.286 0.038-0.416 0.115s-0.253 0.171-0.368 0.281v1.481h0.464v0.342h-1.404v-0.343z"></path>
<path d="M46.485 21.72c-0.013-0.104-0.040-0.201-0.083-0.289s-0.098-0.165-0.167-0.23c-0.068-0.065-0.15-0.116-0.245-0.152s-0.201-0.054-0.318-0.054c-0.13 0-0.246 0.017-0.347 0.053-0.101 0.035-0.189 0.084-0.262 0.147s-0.133 0.139-0.179 0.229-0.079 0.189-0.098 0.297h1.699zM44.774 22.047c0.006 0.124 0.032 0.236 0.077 0.338 0.045 0.101 0.107 0.188 0.186 0.261s0.173 0.129 0.283 0.168c0.11 0.039 0.234 0.059 0.373 0.059 0.083 0 0.165-0.010 0.246-0.029s0.158-0.047 0.23-0.082 0.14-0.077 0.202-0.126c0.062-0.049 0.114-0.105 0.157-0.166l0.326 0.243c-0.109 0.166-0.26 0.301-0.452 0.404s-0.433 0.156-0.722 0.156c-0.221 0-0.421-0.036-0.598-0.106s-0.327-0.166-0.449-0.288c-0.123-0.122-0.217-0.264-0.283-0.427s-0.099-0.338-0.099-0.523c0-0.194 0.036-0.373 0.109-0.537s0.171-0.306 0.297-0.424 0.275-0.21 0.448-0.277c0.173-0.066 0.36-0.099 0.563-0.099 0.211 0 0.397 0.038 0.557 0.114 0.16 0.075 0.294 0.178 0.401 0.307s0.188 0.279 0.242 0.448c0.053 0.17 0.080 0.347 0.080 0.533v0.054h-2.174z"></path>
<path d="M47.497 22.872h0.515v-1.878h-0.535v-0.355h0.925l0.003 0.56c0.058-0.117 0.12-0.215 0.186-0.293s0.138-0.14 0.214-0.187c0.077-0.047 0.16-0.080 0.249-0.099s0.186-0.029 0.288-0.029c0.092 0 0.191 0.007 0.297 0.019l-0.016 0.445c-0.002-0.004-0.019-0.006-0.050-0.006h-0.262c-0.158 0-0.289 0.023-0.394 0.067-0.105 0.045-0.188 0.109-0.251 0.191-0.063 0.083-0.108 0.183-0.135 0.3s-0.040 0.248-0.040 0.393v0.872h0.563v0.342h-1.558v-0.342z"></path>
<path d="M50.137 22.373h0.426v0.169c0.028 0.053 0.060 0.101 0.096 0.144s0.081 0.079 0.133 0.111c0.052 0.031 0.114 0.055 0.184 0.072s0.152 0.026 0.246 0.026c0.188 0 0.332-0.032 0.433-0.096s0.152-0.157 0.152-0.279c0-0.068-0.014-0.123-0.042-0.165s-0.066-0.075-0.116-0.101-0.11-0.045-0.179-0.059c-0.069-0.014-0.146-0.027-0.232-0.040-0.133-0.019-0.264-0.044-0.395-0.074s-0.249-0.074-0.355-0.133c-0.105-0.058-0.191-0.136-0.257-0.233s-0.099-0.222-0.099-0.376c0-0.105 0.022-0.203 0.067-0.295s0.109-0.171 0.192-0.238c0.083-0.067 0.183-0.12 0.299-0.158s0.247-0.057 0.392-0.057c0.128 0 0.249 0.023 0.362 0.069s0.211 0.103 0.294 0.171v-0.192h0.413v0.819h-0.413v-0.214c-0.152-0.183-0.364-0.275-0.637-0.275-0.16 0-0.286 0.031-0.379 0.094s-0.139 0.149-0.139 0.257c0 0.070 0.024 0.126 0.074 0.168s0.113 0.076 0.193 0.103c0.080 0.026 0.172 0.049 0.275 0.067s0.208 0.038 0.315 0.059c0.107 0.021 0.212 0.049 0.315 0.082s0.195 0.078 0.275 0.136c0.080 0.057 0.144 0.131 0.193 0.219s0.074 0.199 0.074 0.331c0 0.118-0.024 0.225-0.072 0.322s-0.116 0.18-0.204 0.248c-0.089 0.068-0.196 0.122-0.322 0.16s-0.266 0.058-0.422 0.058c-0.147 0-0.279-0.017-0.395-0.051s-0.222-0.090-0.318-0.166v0.16h-0.426v-0.843z"></path>
<path d="M52.71 22.872h0.486v-2.959h-0.48v-0.387h0.957v1.366c0.303-0.201 0.627-0.301 0.973-0.301 0.546 0 0.819 0.281 0.819 0.844v0.072c0 0.041 0 0.096-0.002 0.161-0.001 0.066-0.002 0.14-0.002 0.222v0.981h0.461v0.342h-1.261v-0.342h0.326v-1.347c0-0.072-0.007-0.141-0.019-0.206s-0.036-0.122-0.070-0.17-0.080-0.086-0.138-0.114c-0.058-0.028-0.131-0.041-0.221-0.041-0.13 0-0.271 0.023-0.424 0.067-0.152 0.045-0.3 0.115-0.443 0.211v1.6h0.464v0.342h-1.426v-0.341z"></path>
<path d="M56.645 19.804c0-0.039 0.007-0.075 0.022-0.109s0.036-0.064 0.062-0.090c0.026-0.026 0.058-0.045 0.093-0.059s0.073-0.021 0.113-0.021c0.083 0 0.153 0.026 0.21 0.080 0.056 0.053 0.085 0.12 0.085 0.199s-0.028 0.145-0.085 0.198c-0.056 0.053-0.126 0.080-0.21 0.080-0.040 0-0.078-0.007-0.113-0.021s-0.066-0.034-0.093-0.059c-0.027-0.026-0.048-0.055-0.062-0.090-0.014-0.033-0.022-0.069-0.022-0.108zM56.271 22.872h0.432v-1.878h-0.432v-0.355h0.908v2.233h0.435v0.342h-1.343v-0.342z"></path>
<path d="M59.723 22.872c0.137 0 0.258-0.024 0.365-0.072s0.196-0.114 0.269-0.197c0.072-0.083 0.128-0.181 0.166-0.293s0.058-0.233 0.058-0.363c0-0.128-0.020-0.25-0.059-0.365s-0.097-0.216-0.173-0.304c-0.076-0.087-0.167-0.157-0.274-0.208s-0.227-0.077-0.362-0.077c-0.096 0-0.186 0.013-0.27 0.038-0.084 0.026-0.161 0.058-0.232 0.096s-0.134 0.081-0.19 0.128c-0.057 0.047-0.105 0.090-0.146 0.131v1.152c0.049 0.038 0.103 0.077 0.161 0.117s0.123 0.075 0.194 0.107c0.070 0.032 0.146 0.058 0.229 0.079s0.17 0.031 0.264 0.031zM57.916 23.995h0.49v-3.001h-0.451v-0.355h0.896l0.026 0.342c0.122-0.128 0.263-0.225 0.424-0.291s0.328-0.099 0.501-0.099c0.198 0 0.376 0.035 0.534 0.105 0.158 0.071 0.292 0.167 0.401 0.288 0.11 0.122 0.194 0.264 0.253 0.427s0.088 0.338 0.088 0.523c0 0.183-0.030 0.356-0.091 0.518s-0.147 0.304-0.259 0.426c-0.112 0.122-0.247 0.218-0.405 0.288-0.158 0.071-0.334 0.106-0.528 0.106-0.173 0-0.339-0.028-0.498-0.085-0.159-0.056-0.299-0.14-0.42-0.251v1.062h0.528v0.394h-1.488v-0.397z"></path>
<path d="M31.796 11.417c0.812 0 1.337-0.653 1.337-1.462 0-0.822-0.525-1.475-1.337-1.475-0.806 0-1.334 0.653-1.334 1.475 0 0.81 0.528 1.462 1.334 1.462zM31.796 8.048c1.184 0 1.907 0.844 1.907 1.907 0 1.059-0.723 1.9-1.907 1.9s-1.9-0.838-1.9-1.9c-0.001-1.068 0.72-1.907 1.9-1.907z"></path>
<path d="M36.781 10.499c0-0.522-0.32-0.925-0.851-0.925-0.48 0-0.848 0.323-0.857 0.752-0.003 0.006-0.003 0.377-0.003 0.384 0.026 0.429 0.365 0.733 0.838 0.733 0.556 0 0.873-0.387 0.873-0.944zM34.116 12.575h0.49v-2.972h-0.451v-0.384h0.934c0 0 0.013 0.339 0.016 0.339 0.237-0.253 0.55-0.384 0.896-0.384 0.796 0 1.276 0.598 1.276 1.341 0 0.733-0.506 1.341-1.283 1.341-0.345 0-0.675-0.118-0.915-0.339 0 0.073 0.003 1.059 0.003 1.059l0.521 0.003v0.394h-1.488v-0.398z"></path>
<path d="M39.197 10.301h0.838c-0.067-0.406-0.345-0.758-0.812-0.758-0.515 0-0.813 0.323-0.886 0.758h0.86zM39.417 10.633l-1.094-0.006c0.068 0.496 0.368 0.829 0.918 0.829 0.333 0 0.649-0.122 0.845-0.355l0.409 0.179c-0.246 0.365-0.701 0.576-1.267 0.576-0.886 0-1.43-0.602-1.43-1.347 0-0.781 0.611-1.334 1.418-1.334 0.848 0 1.279 0.653 1.279 1.398v0.054l-1.078 0.006z"></path>
<path d="M41.043 11.401h0.457v-1.798h-0.477v-0.384h0.947c0 0 0.006 0.278 0.013 0.333 0.329-0.256 0.589-0.377 0.905-0.377 0.47 0 0.758 0.317 0.758 0.822 0 0.048-0.010 1.405-0.010 1.405l0.464 0.006v0.387h-1.286v-0.384h0.352v-1.238c0-0.377-0.096-0.589-0.4-0.589-0.291 0-0.557 0.192-0.784 0.451v1.369h0.464v0.39h-1.405v-0.393z"></path>
<path d="M29.896 15.773c0-1.129 0.666-1.907 1.827-1.907 0.518 0 0.953 0.199 1.238 0.477v-0.419h0.416v1.116h-0.4c-0.246-0.493-0.698-0.742-1.229-0.742-0.806 0-1.286 0.627-1.286 1.459 0 0.822 0.503 1.472 1.306 1.472 0.534 0 1.161-0.221 1.276-0.954l0.432 0.227c-0.157 0.707-0.8 1.171-1.743 1.171-1.13 0-1.837-0.774-1.837-1.9z"></path>
<path d="M36.205 16.326c0-0.522-0.33-0.925-0.857-0.925-0.521 0-0.851 0.403-0.851 0.925s0.329 0.909 0.851 0.909c0.527 0 0.857-0.387 0.857-0.909zM33.988 16.326c0-0.739 0.528-1.334 1.366-1.334 0.832 0 1.363 0.595 1.363 1.334s-0.535 1.347-1.369 1.347c-0.832 0-1.36-0.608-1.36-1.347z"></path>
<path d="M37.232 17.219h0.458v-1.798h-0.477v-0.384h0.947c0 0 0.006 0.278 0.013 0.333 0.329-0.256 0.589-0.378 0.905-0.378 0.47 0 0.758 0.317 0.758 0.822 0 0.048-0.009 1.405-0.009 1.405l0.463 0.006v0.387h-1.286v-0.384h0.352v-1.238c0-0.377-0.096-0.589-0.4-0.589-0.291 0-0.557 0.192-0.784 0.451v1.369h0.464v0.39h-1.405v-0.392z"></path>
<path d="M40.605 15.037h0.406v-0.537l0.474-0.39v0.928h0.522v0.39h-0.522v0.681c0 0.131 0 0.844 0.013 0.889 0.009 0.176 0.109 0.237 0.259 0.237 0.074 0 0.16-0.016 0.25-0.045v0.406c-0.112 0.029-0.237 0.051-0.346 0.051-0.368 0-0.627-0.16-0.643-0.614 0 0-0.016-0.774-0.016-0.899v-0.707h-0.397v-0.39z"></path>
<path d="M42.55 17.219h0.515v-1.798h-0.535v-0.384h0.906c0 0 0.016 0.502 0.022 0.56 0.173-0.409 0.493-0.605 0.854-0.605 0.048 0 0.381 0.013 0.381 0.013l-0.016 0.448c-0.009-0.007-0.281-0.010-0.313-0.010-0.63 0-0.819 0.371-0.819 0.953v0.825h0.563v0.39h-1.558v-0.392z"></path>
<path d="M46.802 16.486c-0.137-0.003-0.355-0.051-0.585-0.051-0.336 0-0.691 0.067-0.691 0.486 0 0.224 0.173 0.406 0.486 0.406 0.281 0 0.595-0.109 0.79-0.285v-0.556zM45.075 16.921c0-0.637 0.502-0.813 1.11-0.813 0.199 0 0.409 0.023 0.617 0.064v-0.31c0-0.358-0.288-0.493-0.627-0.493-0.263 0-0.471 0.093-0.592 0.268l-0.448-0.125c0.195-0.336 0.576-0.522 1.104-0.522 0.806 0 1.040 0.409 1.040 0.848v1.385h0.46v0.387h-0.886c0 0-0.003-0.265-0.006-0.265-0.339 0.246-0.582 0.336-0.902 0.336-0.54 0.002-0.87-0.366-0.87-0.76z"></path>
<path d="M48.089 16.307c0-0.691 0.512-1.315 1.289-1.315 0.278 0 0.576 0.064 0.723 0.275l0.004-0.23h0.425v0.921h-0.413c-0.067-0.371-0.269-0.553-0.704-0.553-0.528 0-0.816 0.377-0.816 0.896 0 0.563 0.3 0.96 0.829 0.96 0.342 0 0.624-0.144 0.784-0.426l0.387 0.176c-0.195 0.429-0.617 0.662-1.184 0.662-0.937 0-1.324-0.739-1.324-1.366z"></path>
<path d="M51.058 15.037h0.406v-0.537l0.474-0.39v0.928h0.522v0.39h-0.522v0.681c0 0.131 0 0.844 0.013 0.889 0.009 0.176 0.109 0.237 0.259 0.237 0.073 0 0.16-0.016 0.249-0.045v0.406c-0.112 0.029-0.237 0.051-0.346 0.051-0.368 0-0.627-0.16-0.643-0.614 0 0-0.016-0.774-0.016-0.899v-0.707h-0.397v-0.39z"></path>
<path d="M53.654 13.923c0.163 0 0.294 0.122 0.294 0.278s-0.131 0.278-0.294 0.278c-0.163 0-0.291-0.122-0.291-0.278s0.127-0.278 0.291-0.278zM52.988 17.215h0.432v-1.795h-0.432v-0.384h0.909v2.185h0.435v0.39h-1.344v-0.396z"></path>
<path d="M54.793 17.219h0.458v-1.798h-0.477v-0.384h0.947c0 0 0.006 0.278 0.013 0.333 0.329-0.256 0.589-0.378 0.905-0.378 0.47 0 0.758 0.317 0.758 0.822 0 0.048-0.010 1.405-0.010 1.405l0.464 0.006v0.387h-1.286v-0.384h0.352v-1.238c0-0.377-0.096-0.589-0.4-0.589-0.291 0-0.557 0.192-0.784 0.451v1.369h0.464v0.39h-1.405v-0.392z"></path>
<path d="M60.459 16.528v-0.4c-0.016-0.406-0.377-0.713-0.844-0.713-0.538 0-0.867 0.419-0.867 0.931 0 0.48 0.31 0.867 0.857 0.867 0.457-0.001 0.854-0.305 0.854-0.685zM58.546 18.466l0.301-0.333c0.218 0.157 0.476 0.234 0.736 0.234 0.381 0 0.864-0.192 0.873-0.765 0-0.013-0.009-0.275-0.009-0.288-0.179 0.166-0.579 0.297-0.928 0.297-0.794 0-1.28-0.569-1.28-1.254 0-0.739 0.509-1.366 1.299-1.366 0.342 0 0.64 0.115 0.906 0.352 0.003 0 0.009-0.307 0.009-0.307h0.957v0.384l-0.483 0.009c0 0 0.004 1.904 0.004 2 0 1.014-0.714 1.334-1.389 1.334-0.398 0.001-0.695-0.085-0.996-0.297z"></path>
<path d="M13.385 17.864l-6.249 4.579-6.364-6.47 6.060-2.91z"></path>
<path d="M25.994 15.973l-6.359 6.47-6.131-4.492v-0.174l6.478-4.745z"></path>
<path d="M22.907 10.888l-2.929 2.14-6.474-3.17 3.225-1.548z"></path>
<path d="M13.5 9.858l-6.672 3.205-2.969-2.175 6.478-2.578z"></path>
</symbol>
<symbol id="icon-global-witness" viewBox="0 0 53 32">
<title>global-witness</title>
<path d="M40.806 29.607l0.886-0.009c0.018 0.412 0.342 0.57 0.711 0.57 0.272 0 0.605-0.096 0.605-0.43 0-0.289-0.377-0.386-1.044-0.526-0.544-0.123-1.079-0.298-1.079-0.903 0-0.859 0.746-1.078 1.474-1.078 0.746 0 1.412 0.254 1.491 1.078h-0.886c-0.026-0.359-0.298-0.456-0.632-0.456-0.228 0-0.526 0.044-0.526 0.316 0 0.333 0.518 0.386 1.044 0.509 0.553 0.123 1.079 0.316 1.079 0.947 0 0.885-0.754 1.175-1.535 1.175s-1.553-0.307-1.588-1.192zM37.306 29.607l0.886-0.009c0.018 0.412 0.342 0.57 0.711 0.57 0.272 0 0.605-0.096 0.605-0.43 0-0.289-0.377-0.386-1.044-0.526-0.544-0.123-1.079-0.298-1.079-0.903 0-0.859 0.746-1.078 1.474-1.078 0.746 0 1.412 0.254 1.491 1.078h-0.886c-0.026-0.359-0.298-0.456-0.632-0.456-0.228 0-0.526 0.044-0.526 0.316 0 0.333 0.518 0.386 1.044 0.509 0.553 0.123 1.079 0.316 1.079 0.947 0 0.885-0.754 1.175-1.535 1.175s-1.553-0.307-1.588-1.192zM34.481 28.651h1.526c-0.096-0.456-0.298-0.71-0.746-0.71-0.588 0-0.763 0.456-0.781 0.71zM36.929 29.238l-2.43-0.009c0.018 0.587 0.298 0.859 0.825 0.859 0.36 0 0.667-0.245 0.728-0.447h0.833c-0.272 0.807-0.825 1.14-1.588 1.14-1.061 0-1.728-0.728-1.728-1.771 0-0.991 0.702-1.771 1.728-1.771 1.14 0 1.693 0.973 1.632 1.999zM29.902 30.711h0.026v-3.402h0.886v0.473h0.018c0.237-0.359 0.632-0.552 1.026-0.552 0.982 0 1.237 0.552 1.237 1.394v2.078h-0.939v-1.902c0-0.552-0.175-0.824-0.605-0.824-0.491 0-0.71 0.281-0.71 0.964v1.771h-0.939zM28.648 26.328l-0.009 1.017h0.684v0.614h-0.684v1.666c0 0.316 0.079 0.395 0.395 0.395 0.096 0 0.193-0.018 0.289-0.035v0.728c-0.158 0.035-0.342 0.035-0.535 0.035-0.57 0-1.061-0.14-1.061-0.807v-1.981h-0.553v-0.614h0.553v-1.017h0.921zM26.683 26.038v0.763h-0.939v-0.763h0.939zM25.753 30.711v-3.375h0.939v3.375h-0.939zM25.341 27.336l-1.044 3.358h-0.947l-0.605-2.262h-0.018l-0.57 2.262h-0.965l-1.079-3.375h0.982l0.614 2.297 0.57-2.279h0.903l0.57 2.279h0.018l0.614-2.279h0.956zM17.271 30.711v-4.655h0.939v4.655h-0.939zM14.385 28.37v-0.018h-0.93c0.053-0.868 0.825-1.122 1.588-1.122 0.684 0 1.491 0.158 1.491 0.964v1.788c0 0.298 0.035 0.605 0.114 0.745h-0.939c-0.026-0.114-0.061-0.219-0.061-0.333-0.298 0.298-0.728 0.412-1.14 0.412-0.649 0-1.158-0.324-1.158-1.017 0-0.771 0.588-0.947 1.158-1.026s1.096-0.070 1.096-0.447c0-0.395-0.272-0.456-0.605-0.456-0.36 0-0.579 0.14-0.614 0.509zM15.596 29.396h0.018v-0.333c-0.167 0.131-0.491 0.149-0.781 0.193-0.298 0.044-0.553 0.158-0.553 0.491 0 0.351 0.272 0.43 0.57 0.43 0.71 0 0.746-0.579 0.746-0.78zM11.982 29.019c0-0.552-0.237-1.078-0.789-1.078s-0.789 0.509-0.789 1.078c0 0.552 0.237 1.078 0.789 1.078s0.789-0.526 0.789-1.078zM9.508 30.711l-0.009-4.638h0.939v1.701h0.018c0.219-0.351 0.649-0.509 1.061-0.509 0.667 0 1.395 0.535 1.395 1.771s-0.728 1.771-1.395 1.771c-0.491 0-0.903-0.158-1.105-0.526h-0.018v0.43h-0.886zM6.403 29.019c0 0.535 0.193 1.078 0.825 1.078s0.825-0.544 0.825-1.078c0-0.544-0.193-1.078-0.825-1.078s-0.825 0.544-0.825 1.078zM5.482 29.019c0-1.078 0.684-1.771 1.746-1.771s1.746 0.693 1.746 1.771c0 1.061-0.684 1.771-1.746 1.771s-1.746-0.693-1.746-1.771zM4.061 30.711c0 0 0-4.655 0-4.655h0.921v4.655h-0.921zM1.684 29.905c0.518 0 0.789-0.438 0.789-0.956 0-0.535-0.184-1.026-0.789-1.026-0.526 0-0.746 0.456-0.746 0.964 0 0.491 0.175 1.017 0.746 1.017zM3.342 27.336c0 0 0 3.156 0.009 3.165 0 0.552-0.193 1.49-1.746 1.49-0.667 0-1.447-0.298-1.491-1.078h0.921c0.088 0.342 0.36 0.456 0.693 0.456 0.526 0 0.746-0.368 0.746-0.842v-0.447h-0.018c-0.211 0.351-0.605 0.526-1.018 0.526-1.009 0-1.439-0.771-1.439-1.692 0-0.877 0.491-1.666 1.439-1.666 0.447 0 0.781 0.14 1 0.535h0.018v-0.447h0.886zM52.63 11.090c0 6.128-4.974 11.090-11.096 11.090-6.131 0-11.096-4.953-11.096-11.090s4.974-11.090 11.096-11.090c6.14 0 11.096 4.971 11.096 11.090zM44.393 17.175h-0.825l1.553 2.236 1.667-2.253h-0.728c0 0 0.886-4.068-3.123-5.62 0 0 1.991 2.578 1.456 5.637zM43.902 7.084c0 0 2.158 1.376 3.517 1.376 1.026 0 1.412-0.508 1.412-0.508l0.605 0.684 1.474-2.393-2.991-0.316 0.377 0.964c0 0-0.395 0.473-1.535 0.473-1.123 0-2.86-0.281-2.86-0.281zM34.437 7.426l2.772-0.885-0.667-0.666c0 0 0.939-1.192 2.824-1.192s2.158 0.123 2.158 0.123c0 0-1.842-1.175-3.167-1.175-1.316 0-3.105 1.017-3.105 1.017l-0.86-0.219v2.981l0.044 0.018zM43.411 8.145c0.018-0.745-0.377-1.429-0.368-1.964 0.018-0.745 0.535-1.648 0.535-1.648-0.728 0.333-1.272 0.763-1.509 1.315-0.333 0.807-0.237 1.867-0.807 3.2-0.982 2.315-6.052 5.383-6.052 5.383s1.982-0.096 4.93-1.631c2.947-1.517 3.254-3.945 3.272-4.655zM46.656 2.841l-3.912-0.061 2.298 2.99 1.614-2.928zM34.043 13.431l-1.57 1.832 2.693 0.605-1.123-2.437z"></path>
</symbol>
<symbol id="icon-one" viewBox="0 0 33 32">
<title>one</title>
<path d="M7.796 12.125c-0.352 0-0.691 0.217-0.691 0.596v5.663c0 0.379 0.339 0.596 0.691 0.596s0.678-0.217 0.678-0.596v-5.663c0-0.366-0.325-0.596-0.678-0.596zM26.881 14.347v2.141h-2.223v2.1h3.429v2.615h-6.466v-11.299h6.466v2.466h-3.429v1.978h2.223zM20.443 21.202h-2.494l-1.762-3.685-0.786-1.626v5.311h-2.711v-11.299h2.63l1.694 3.78 0.732 1.626v-5.406h2.697v11.299zM11.578 18.222c0 1.951-1.64 3.279-3.782 3.279-2.155 0-3.795-1.328-3.795-3.279v-5.324c0-1.951 1.64-3.251 3.795-3.251 2.142 0 3.782 1.301 3.782 3.251v5.324zM16.092 0c-8.838 0-16.008 7.167-16.008 16s7.17 16 16.008 16c8.838 0 16.008-7.167 16.008-16s-7.171-16-16.008-16z"></path>
</symbol>
<symbol id="icon-open-corporates" viewBox="0 0 233 32">
<title>open-corporates</title>
<path d="M230.618 32c-1.289 0-2.335-1.045-2.335-2.333s1.045-2.333 2.335-2.333c1.289 0 2.335 1.045 2.335 2.333s-1.045 2.333-2.335 2.333zM220.613 32c-1.289 0-2.335-1.045-2.335-2.333s1.045-2.333 2.335-2.333c1.289 0 2.335 1.045 2.335 2.333s-1.045 2.333-2.335 2.333zM210.608 32c-1.289 0-2.335-1.045-2.335-2.333s1.045-2.333 2.335-2.333c1.289 0 2.335 1.045 2.335 2.333s-1.045 2.333-2.335 2.333zM200.603 32c-1.289 0-2.335-1.045-2.335-2.333s1.045-2.333 2.335-2.333c1.289 0 2.335 1.045 2.335 2.333s-1.045 2.333-2.335 2.333zM190.597 32c-1.289 0-2.335-1.045-2.335-2.333s1.045-2.333 2.335-2.333c1.289 0 2.335 1.045 2.335 2.333s-1.045 2.333-2.335 2.333zM84.679 19.372c0.825 0 1.602-0.119 2.428-0.287 0.801-0.287 1.578-0.645 2.379-1.194v1.935c-1.020 0.621-2.063 1.051-3.083 1.362-1.044 0.287-2.039 0.43-3.034 0.43-2.549 0-4.637-0.836-6.166-2.532s-2.33-3.894-2.33-6.665c0-2.723 0.825-4.968 2.476-6.688 1.651-1.744 3.787-2.58 6.433-2.58 1.748 0 3.132 0.334 4.127 0.979 0.995 0.621 1.505 1.505 1.505 2.628 0 0.573-0.194 1.027-0.583 1.409-0.364 0.382-0.85 0.549-1.505 0.549-0.291 0-0.583-0.048-0.85-0.143-0.291-0.096-0.583-0.239-0.85-0.406v-3.034c-0.291-0.143-0.583-0.287-0.898-0.382-0.316-0.119-0.607-0.143-0.922-0.143-1.699 0-3.034 0.693-4.030 2.054-0.995 1.385-1.505 3.201-1.505 5.47 0 2.221 0.583 4.013 1.724 5.303s2.719 1.935 4.685 1.935zM105.361 5.685c1.651 1.744 2.452 3.965 2.476 6.617 0 2.699-0.825 4.945-2.476 6.665s-3.738 2.604-6.287 2.604c-2.573 0-4.637-0.86-6.287-2.58-1.626-1.72-2.452-3.917-2.452-6.665 0-2.699 0.825-4.945 2.452-6.665 1.602-1.744 3.714-2.58 6.287-2.58 2.549 0 4.637 0.884 6.287 2.604zM102.861 17.939c0.971-1.385 1.432-3.249 1.384-5.637 0-2.341-0.461-4.204-1.432-5.59s-2.209-2.102-3.787-2.102c-1.578 0-2.816 0.717-3.787 2.102-0.922 1.385-1.408 3.249-1.408 5.59s0.461 4.204 1.432 5.59c0.971 1.385 2.233 2.102 3.787 2.102 1.578 0 2.84-0.669 3.811-2.054zM119.441 3.081c0.364 0 0.753 0.072 1.092 0.119 0.388 0.072 0.753 0.215 1.141 0.382v3.201h-1.214c-0.243-0.287-0.534-0.526-0.85-0.669-0.316-0.167-0.68-0.239-1.068-0.239-0.583 0-1.238 0.239-1.893 0.669-0.704 0.43-1.408 1.147-2.209 2.054v10.558l0.655 0.597 2.646 0.167v1.362h-9.030v-1.362l1.991-0.167 0.655-0.597v-13.401h-2.646v-1.147l4.37-1.314h1.432v3.464c0.607-0.597 1.262-1.218 1.918-1.815 0.655-0.621 1.359-1.194 2.088-1.768 0.097-0.048 0.194-0.072 0.34-0.072 0.146-0.024 0.316-0.024 0.583-0.024zM139.007 5.518c1.359 1.624 2.015 3.702 2.088 6.235 0 2.914-0.874 5.231-2.549 6.999-1.699 1.744-3.957 2.628-6.749 2.628-0.486 0-0.995 0-1.578-0.072-0.583-0.048-1.238-0.143-1.918-0.239l-0.024 6.187 0.655 0.573 2.403 0.191v1.314h-8.836v-1.314l2.039-0.191 0.583-0.573v-21.498h-2.622v-1.147l4.37-1.314h1.408v2.030c1.044-0.788 1.991-1.314 2.889-1.696s1.796-0.549 2.646-0.549c2.112 0 3.86 0.812 5.195 2.436zM136.021 17.676c1.117-1.362 1.699-3.177 1.651-5.398 0-2.102-0.51-3.75-1.505-4.968-0.995-1.266-2.33-1.863-3.981-1.863-0.583 0-1.19 0.119-1.845 0.311-0.607 0.215-1.335 0.526-2.088 0.955v12.445c0.631 0.191 1.165 0.334 1.724 0.43 0.534 0.119 1.020 0.143 1.505 0.143 1.893 0 3.374-0.693 4.54-2.054zM157.699 5.685c1.626 1.744 2.452 3.965 2.476 6.617 0 2.699-0.825 4.945-2.476 6.665s-3.714 2.604-6.287 2.604c-2.573 0-4.637-0.86-6.287-2.58-1.626-1.72-2.452-3.917-2.452-6.665 0-2.699 0.825-4.945 2.452-6.665 1.602-1.744 3.714-2.58 6.287-2.58 2.549 0 4.637 0.884 6.287 2.604zM155.199 17.939c0.971-1.385 1.432-3.249 1.384-5.637 0-2.341-0.461-4.204-1.432-5.59s-2.209-2.102-3.787-2.102c-1.578 0-2.816 0.717-3.787 2.102-0.922 1.385-1.408 3.249-1.408 5.59s0.461 4.204 1.432 5.59c0.971 1.385 2.233 2.102 3.787 2.102 1.578 0 2.84-0.669 3.811-2.054zM171.779 3.081c0.364 0 0.704 0.072 1.165 0.119 0.388 0.072 0.753 0.215 1.141 0.382v3.201h-1.214c-0.243-0.287-0.534-0.526-0.85-0.669-0.316-0.167-0.68-0.239-1.068-0.239-0.583 0-1.238 0.239-1.893 0.669-0.704 0.43-1.408 1.147-2.209 2.054v10.558l0.655 0.597 2.622 0.167v1.362h-9.079v-1.362l1.991-0.167 0.655-0.597v-13.401h-2.646v-1.147l4.37-1.314h1.432v3.464c0.607-0.597 1.262-1.218 1.918-1.815 0.655-0.621 1.359-1.194 2.088-1.768 0.097-0.048 0.194-0.072 0.34-0.072 0.146-0.024 0.34-0.024 0.583-0.024zM189.475 19.779l1.869 0.263v1.362h-5.292l-0.486-2.174c-1.19 0.836-2.306 1.433-3.326 1.815-1.044 0.382-1.966 0.573-2.864 0.573-1.457 0-2.646-0.43-3.496-1.314-0.874-0.86-1.311-2.030-1.311-3.44 0-1.6 0.655-2.819 1.966-3.726 1.311-0.884 4.297-1.887 9.006-3.010v-1.194c0-1.553-0.243-2.651-0.753-3.249s-1.408-0.908-2.67-0.908c-0.486 0-0.922 0.048-1.408 0.143-0.437 0.096-0.922 0.239-1.432 0.43v3.105h-2.573c-0.437 0-0.753-0.072-0.922-0.239-0.17-0.143-0.243-0.454-0.243-0.884 0-1.218 0.728-2.198 2.136-3.010 1.457-0.788 3.277-1.194 5.511-1.194 1.966 0 3.399 0.406 4.297 1.242s1.335 2.198 1.335 4.061v10.749l0.655 0.597zM183.042 19.134c0.777-0.287 1.651-0.693 2.597-1.242v-6.521c-3.132 0.86-5.195 1.624-6.19 2.341s-1.481 1.672-1.481 2.819c0 0.908 0.267 1.648 0.825 2.198s1.287 0.812 2.209 0.812c0.607 0 1.287-0.143 2.039-0.406zM196.734 0v3.965h5.753v1.72h-5.753v9.77c0 1.6 0.218 2.675 0.68 3.225s1.287 0.812 2.452 0.812c0.413 0 0.825-0.048 1.262-0.072 0.413-0.048 0.85-0.143 1.335-0.239v1.385c-0.874 0.263-1.724 0.454-2.549 0.597-0.825 0.119-1.651 0.191-2.403 0.191-1.481 0-2.476-0.263-3.059-0.812-0.583-0.526-0.85-1.529-0.85-2.938v-11.944h-2.379v-1.147l2.476-1.075 1.626-3.44h1.408zM212.925 19.54c0.947 0 1.869-0.167 2.743-0.454 0.971-0.334 1.991-0.884 3.132-1.624v2.030c-1.092 0.741-2.258 1.266-3.471 1.648s-2.403 0.573-3.617 0.573c-2.476 0-4.491-0.836-6.045-2.532-1.529-1.672-2.33-3.87-2.33-6.569 0-2.771 0.825-5.064 2.452-6.808s3.714-2.628 6.263-2.628c2.063 0 3.714 0.645 4.952 1.959 1.214 1.314 1.821 3.081 1.821 5.351v0.669c0 0.119 0 0.287-0.024 0.43h-12.21v0.406c0 2.293 0.583 4.156 1.724 5.518s2.695 2.030 4.612 2.030zM208.337 6.258c-0.898 0.979-1.432 2.245-1.554 3.726h8.691v-0.573c0-1.481-0.34-2.628-0.995-3.416-0.68-0.788-1.651-1.194-2.913-1.194-1.238 0-2.306 0.478-3.229 1.457zM232.564 14.261c0.243 0.526 0.388 1.147 0.388 1.815 0 1.744-0.607 3.105-1.845 4.085-1.287 0.979-2.986 1.481-5.195 1.481-0.947 0-1.796-0.048-2.622-0.191-0.825-0.096-1.626-0.311-2.306-0.573v-4.801h1.821l0.437 3.153c0.51 0.287 1.068 0.526 1.578 0.669 0.558 0.119 1.068 0.191 1.626 0.191 1.068 0 1.918-0.263 2.573-0.812s0.971-1.29 0.971-2.174c0-0.741-0.218-1.385-0.655-1.863-0.437-0.502-1.505-1.123-3.156-1.863-1.893-0.812-3.18-1.6-3.86-2.341s-1.020-1.672-1.020-2.747c0-1.624 0.583-2.914 1.748-3.822 1.19-0.932 2.792-1.362 4.928-1.362 0.874 0 1.651 0.048 2.379 0.191 0.753 0.119 1.408 0.334 2.063 0.597v4.228h-1.845l-0.316-2.628c-0.51-0.263-0.995-0.454-1.432-0.597-0.486-0.119-0.947-0.191-1.384-0.191-0.995 0-1.748 0.239-2.306 0.717s-0.825 1.123-0.825 1.959c0 0.693 0.218 1.29 0.655 1.768 0.461 0.502 1.311 1.051 2.549 1.624 0.218 0.096 0.486 0.239 0.898 0.406 1.432 0.645 2.428 1.218 3.083 1.72 0.486 0.358 0.825 0.812 1.068 1.362zM15.177 5.978c1.622 1.771 2.445 4.028 2.445 6.746 0 2.742-0.823 5.023-2.47 6.77s-3.704 2.645-6.271 2.645c-2.566 0-4.624-0.849-6.271-2.621-1.622-1.747-2.445-3.979-2.445-6.77 0-2.742 0.823-4.998 2.47-6.794 1.598-1.771 3.704-2.621 6.271-2.621 2.542 0 4.624 0.898 6.271 2.645zM12.684 18.426c0.968-1.407 1.453-3.3 1.38-5.726 0-2.378-0.46-4.271-1.428-5.678s-2.203-2.135-3.777-2.135c-1.574 0-2.809 0.728-3.777 2.135-0.92 1.407-1.404 3.3-1.404 5.678s0.46 4.271 1.428 5.678c0.968 1.407 2.227 2.135 3.777 2.135 1.574 0 2.833-0.679 3.801-2.087zM33.941 5.808c1.356 1.65 2.034 3.761 2.082 6.333 0 2.96-0.847 5.338-2.542 7.11s-3.946 2.669-6.731 2.669c-0.484 0-0.993 0-1.574-0.073-0.581-0.049-1.235-0.146-1.913-0.243l-0.024 6.285 0.654 0.582 2.397 0.194v1.335h-8.813v-1.335l2.034-0.194 0.581-0.582v-21.838h-2.615v-1.165l4.358-1.335h1.404v2.062c1.041-0.801 1.985-1.335 2.881-1.723s1.792-0.558 2.639-0.558c2.106 0 3.85 0.825 5.181 2.475zM30.939 18.159c1.162-1.383 1.743-3.227 1.646-5.484 0-2.135-0.508-3.81-1.501-5.047-0.993-1.286-2.324-1.893-3.971-1.893-0.581 0-1.186 0.121-1.84 0.315-0.605 0.218-1.332 0.534-2.082 0.971v12.642c0.63 0.194 1.162 0.34 1.719 0.437 0.533 0.121 1.017 0.146 1.501 0.146 1.888 0 3.365-0.704 4.527-2.087zM47.112 20.052c0.896 0 1.816-0.17 2.736-0.461 0.968-0.34 1.985-0.898 3.123-1.65v2.062c-1.090 0.752-2.252 1.286-3.462 1.674s-2.397 0.582-3.607 0.582c-2.47 0-4.479-0.849-6.029-2.572-1.525-1.698-2.324-3.931-2.324-6.673 0-2.815 0.823-5.12 2.445-6.915 1.622-1.771 3.704-2.669 6.246-2.669 2.058 0 3.704 0.655 4.939 1.99 1.211 1.335 1.816 3.13 1.816 5.435v0.679c0 0.121 0 0.291-0.024 0.437h-12.178v0.412c0 2.329 0.581 4.222 1.719 5.605s2.687 2.062 4.6 2.062zM42.512 6.561c-0.92 0.995-1.428 2.281-1.55 3.785h8.668v-0.582c0-1.504-0.339-2.669-0.993-3.47-0.678-0.801-1.646-1.213-2.905-1.213-1.235 0-2.3 0.485-3.22 1.48zM62.898 21.823l-8.353-0.024v-1.383l2.034-0.17 0.654-0.607v-13.612h-2.663v-1.165l4.358-1.335h1.428v2.062c1.501-0.825 2.712-1.407 3.632-1.747 0.944-0.34 1.767-0.51 2.445-0.51 1.646 0 2.93 0.51 3.777 1.48 0.872 0.995 1.307 2.426 1.307 4.271v10.628l0.654 0.607 2.034 0.17v1.383h-8.232v-1.383l1.792-0.17 0.654-0.607v-9.973c0-1.407-0.266-2.402-0.847-2.985s-1.525-0.898-2.905-0.898c-0.629 0-1.283 0.121-1.961 0.315-0.702 0.194-1.428 0.51-2.252 0.922v12.569l0.654 0.607 1.792 0.17v1.383z"></path>
</symbol>
<symbol id="icon-the-b-team" viewBox="0 0 173 32">
<title>the-b-team</title>
<path d="M1.353 0.045h171.852v4.642h-171.852v-4.642zM18.037 9.284c0.18 0 0.271 0.135 0.271 0.27l-0.586 4.056c-0.045 0.135-0.18 0.27-0.316 0.27h-5.907c-0.18 0-0.316 0.135-0.316 0.27l-2.39 16.992c-0.045 0.18-0.18 0.27-0.316 0.27h-4.149c-0.18 0-0.271-0.135-0.271-0.27l2.39-16.992c0-0.18-0.090-0.27-0.271-0.27h-5.907c-0.18 0-0.271-0.135-0.271-0.27l0.586-4.056c0-0.18 0.18-0.27 0.316-0.27h17.136zM31.791 23.031c0-0.135-0.090-0.27-0.271-0.27h-7.756c-0.18 0-0.316 0.135-0.316 0.27l-1.172 8.203c0 0.135-0.18 0.27-0.316 0.27h-4.104c-0.18 0-0.271-0.135-0.271-0.27l3.066-21.589c0-0.135 0.18-0.27 0.316-0.27h4.104c0.18 0 0.271 0.135 0.271 0.27l-1.172 8.248c0 0.135 0.090 0.27 0.271 0.27h7.756c0.18 0 0.316-0.135 0.316-0.27l1.172-8.248c0-0.135 0.18-0.27 0.316-0.27h4.104c0.18 0 0.271 0.135 0.271 0.27l-3.066 21.589c0 0.135-0.18 0.27-0.316 0.27h-4.104c-0.18 0-0.271-0.135-0.271-0.27l1.172-8.203zM56.142 13.521c0 0.18-0.18 0.27-0.316 0.27h-10.011c-0.18 0-0.316 0.135-0.316 0.27l-0.541 3.786c-0.045 0.135 0.090 0.27 0.271 0.27h9.154c0.18 0 0.271 0.135 0.271 0.27l-0.541 3.921c0 0.135-0.18 0.27-0.316 0.27h-9.154c-0.18 0-0.316 0.135-0.316 0.27l-0.541 3.831c0 0.18 0.090 0.27 0.271 0.27h10.011c0.18 0 0.271 0.135 0.271 0.27l-0.541 3.921c0 0.135-0.18 0.27-0.316 0.27h-14.746c-0.18 0-0.271-0.135-0.271-0.27l3.066-21.634c0-0.135 0.18-0.27 0.316-0.27h14.746c0.18 0 0.271 0.135 0.271 0.27l-0.721 4.011zM79.455 19.696c2.615 1.352 2.796 3.921 2.165 6.175-0.857 2.975-3.427 5.634-8.613 5.634h-8.974c-0.090 0-0.090-0.045-0.090-0.135 0.135-1.037 3.066-21.589 3.111-21.904 0-0.090 0.090-0.18 0.271-0.18h8.703c3.878 0 6.764 2.208 6.178 6.535-0.271 1.262-1.127 3.020-2.751 3.876zM69.895 21.994l-0.676 4.958c0 0 0 0.090 0.090 0.090 0.045 0 4.149 0 4.149 0 4.419 0 5.186-5.093 0.722-5.093h-4.194c-0.045 0-0.090 0.045-0.090 0.045zM74.72 18.028c3.202 0 4.194-4.192 0.586-4.192h-4.194c-0.090 0-0.090 0.045-0.090 0.045l-0.586 4.056c0 0 0 0.045 0.045 0.045h4.239v0.045zM107.999 9.284c0.18 0 0.271 0.135 0.271 0.27l-0.586 4.056c-0.045 0.135-0.18 0.27-0.316 0.27h-5.907c-0.18 0-0.316 0.135-0.316 0.27l-2.39 16.992c0 0.18-0.18 0.27-0.316 0.27h-4.149c-0.18 0-0.271-0.135-0.271-0.27l2.39-16.992c0-0.18-0.090-0.27-0.271-0.27h-5.907c-0.18 0-0.271-0.135-0.271-0.27l0.586-4.056c0.045-0.18 0.18-0.27 0.316-0.27h17.136zM125.225 13.521c0 0.18-0.18 0.27-0.316 0.27h-10.011c-0.18 0-0.316 0.135-0.316 0.27l-0.541 3.786c-0.045 0.135 0.090 0.27 0.271 0.27h9.154c0.18 0 0.271 0.135 0.271 0.27l-0.541 3.921c0 0.135-0.18 0.27-0.316 0.27h-9.244c-0.18 0-0.316 0.135-0.316 0.27l-0.541 3.831c0 0.18 0.090 0.27 0.271 0.27h10.011c0.18 0 0.271 0.135 0.271 0.27l-0.541 3.921c0 0.135-0.18 0.27-0.316 0.27h-14.746c-0.18 0-0.271-0.135-0.271-0.27l3.066-21.634c0-0.135 0.18-0.27 0.316-0.27h14.746c0.18 0 0.271 0.135 0.271 0.27l-0.631 4.011zM134.334 9.6c0.090-0.135 0.271-0.27 0.406-0.27h3.923c0.18 0 0.316 0.135 0.361 0.27l4.825 21.634c0.045 0.135-0.090 0.27-0.225 0.27h-4.329c-0.18 0-0.316-0.135-0.361-0.27l-1.127-4.507c-0.045-0.135-0.225-0.27-0.361-0.27h-6.133c-0.18 0-0.361 0.135-0.406 0.27 0 0-1.443 2.839-2.435 4.823h-4.735c-0.18 0-0.225-0.135-0.18-0.27l10.777-21.679zM135.912 14.377c-0.045 0-0.135 0.135-0.225 0.27l-0.857 2.479c-0.045 0.135-0.135 0.406-0.225 0.541l-1.759 4.237c-0.045 0.135 0 0.27 0.18 0.27h3.743c0.18 0 0.271-0.135 0.271-0.27l-0.676-4.237c-0.045-0.135-0.045-0.406-0.090-0.586l-0.271-2.434c0-0.135-0.045-0.27-0.090-0.27zM163.599 18.524c-0.045 0-0.18 0.135-0.225 0.27l-1.218 2.434c-0.090 0.135-0.18 0.361-0.271 0.496l-3.788 6.625c-0.090 0.135-0.271 0.27-0.451 0.27h-2.931c-0.18 0-0.316-0.135-0.361-0.27l-1.939-6.58c-0.045-0.135-0.135-0.406-0.135-0.541l-0.631-2.434c-0.045-0.135-0.135-0.27-0.18-0.27s-0.090 0.135-0.090 0.316l-0.135 3.651c0 0.18-0.045 0.406-0.045 0.586l-1.172 8.248c0 0.135-0.18 0.27-0.316 0.27h-4.103c-0.18 0-0.271-0.135-0.271-0.27l3.066-21.589c0-0.135 0.18-0.27 0.316-0.27h4.329c0.18 0 0.316 0.135 0.361 0.27l3.517 12.214c0.045 0.135 0.135 0.18 0.225 0.045l7.080-12.259c0.090-0.135 0.271-0.27 0.451-0.27h4.329c0.18 0 0.271 0.135 0.271 0.27l-3.066 21.589c-0.045 0.135-0.18 0.27-0.316 0.27h-4.103c-0.18 0-0.271-0.135-0.271-0.27l1.172-8.248c0-0.18 0.090-0.406 0.090-0.586l0.902-3.606c0-0.225-0.045-0.361-0.090-0.361z"></path>
</symbol>
<symbol id="icon-uk-aid" viewBox="0 0 29 32">
<title>uk-aid</title>
<path d="M0.010 20.989h-0.010v3.921c0 0.676 0.106 1.199 0.317 1.58 0.404 0.695 1.153 1.037 2.268 1.037 1.105 0 1.865-0.343 2.259-1.037 0.211-0.371 0.317-0.904 0.317-1.58v-3.921h-1.365v3.911c0 0.438-0.048 0.761-0.154 0.961-0.163 0.352-0.519 0.533-1.057 0.533s-0.894-0.171-1.057-0.533c-0.106-0.2-0.154-0.523-0.154-0.961v-3.911h-1.365zM6.538 20.989v6.538h1.364v-2.186l0.662-0.673 2.045 2.859h1.779l-2.856-3.854 2.717-2.683h-1.788l-2.559 2.693v-2.693h-1.364zM15.967 23.549c0.305-0.038 0.515-0.086 0.649-0.143 0.229-0.095 0.353-0.247 0.353-0.457 0-0.257-0.086-0.428-0.267-0.523s-0.439-0.143-0.792-0.143c-0.391 0-0.668 0.095-0.83 0.285-0.114 0.143-0.191 0.333-0.229 0.571h-1.565c0.038-0.542 0.191-0.99 0.458-1.332 0.429-0.542 1.174-0.818 2.223-0.818 0.687 0 1.288 0.133 1.823 0.4s0.792 0.78 0.792 1.523v2.845c0 0.2 0 0.438 0.010 0.714 0.010 0.209 0.048 0.352 0.095 0.428 0.057 0.076 0.134 0.143 0.239 0.19v0.238h-1.765c-0.048-0.124-0.086-0.247-0.105-0.352-0.019-0.114-0.038-0.238-0.048-0.371-0.229 0.247-0.487 0.447-0.782 0.619-0.353 0.2-0.754 0.305-1.193 0.305-0.563 0-1.031-0.162-1.403-0.485s-0.553-0.771-0.553-1.361c0-0.761 0.296-1.313 0.887-1.656 0.324-0.19 0.802-0.314 1.441-0.4l0.563-0.076zM16.969 24.31c-0.105 0.067-0.21 0.114-0.315 0.152s-0.248 0.076-0.439 0.114l-0.372 0.067c-0.344 0.057-0.592 0.133-0.744 0.219-0.258 0.152-0.382 0.381-0.382 0.685 0 0.276 0.076 0.476 0.239 0.6 0.153 0.124 0.344 0.181 0.573 0.181 0.353 0 0.687-0.105 0.983-0.305 0.296-0.209 0.458-0.581 0.468-1.123v-0.59h-0.010zM19.957 18.925v1.72h1.72v-1.72h-1.72zM19.957 21.333v6.194h1.72v-6.194h-1.72zM26.484 21.3c0.302 0.169 0.546 0.408 0.732 0.716v-3.091h1.687v8.747h-1.619v-0.895c-0.234 0.388-0.507 0.666-0.81 0.835-0.302 0.179-0.683 0.258-1.131 0.258-0.741 0-1.366-0.308-1.873-0.915-0.507-0.616-0.761-1.402-0.761-2.356 0-1.103 0.254-1.978 0.751-2.604 0.497-0.636 1.17-0.954 2-0.954 0.39 0 0.732 0.089 1.024 0.258zM26.894 25.923c0.244-0.358 0.371-0.815 0.371-1.382 0-0.795-0.195-1.362-0.585-1.7-0.244-0.209-0.517-0.308-0.839-0.308-0.488 0-0.839 0.189-1.073 0.557-0.224 0.378-0.341 0.835-0.341 1.392 0 0.596 0.117 1.074 0.351 1.431s0.585 0.537 1.053 0.537c0.458 0 0.819-0.169 1.063-0.527zM28.903 5.849v-3.785l-6.194 3.785h6.194zM11.699 0h-8.258l8.258 4.817v-4.817zM0 11.355v3.785l6.194-3.785h-6.194zM17.204 0h8.258l-8.258 4.817v-4.817zM0 2.065l6.194 3.785h-6.194v-3.785zM28.903 15.14l-6.194-3.785h6.194v3.785zM3.441 17.204l8.258-4.817v4.817h-8.258zM17.204 17.204h8.258l-8.258-4.817v4.817zM7.384 5.735l-7.384-4.396v-1.339l9.634 5.735h-2.25zM21.519 11.46l7.384 4.396v1.339l-9.634-5.725h2.25v-0.010zM17.34 5.541l9.313-5.541h2.25l-9.634 5.735h-1.929v-0.194zM0 17.195l9.634-5.725h1.929v0.194l-9.313 5.541h-2.25v-0.010zM12.723 17.204h3.468v-6.884h12.713v-3.437h-12.713v-6.884h-3.468v6.884h-12.723v3.437h12.723v6.884zM0 30.078h0.261v1.331h0.241v-1.321h0.29v-0.22h-0.29v-0.21c0-0.070 0.019-0.12 0.048-0.14 0.029-0.030 0.077-0.040 0.135-0.040 0.019 0 0.039 0 0.068 0 0.019 0.010 0.048 0.010 0.068 0.020v-0.22c-0.019-0.010-0.048-0.020-0.077-0.020-0.029-0.010-0.058-0.010-0.077-0.010-0.135 0-0.241 0.040-0.309 0.1s-0.106 0.15-0.106 0.28v0.23h-0.251v0.22zM1.177 29.858v0.33h0.010c0.058-0.13 0.135-0.22 0.222-0.28s0.193-0.090 0.328-0.080v0.27c-0.097 0-0.183 0.010-0.251 0.040s-0.125 0.070-0.164 0.12c-0.039 0.050-0.077 0.12-0.097 0.2s-0.029 0.16-0.029 0.26v0.691h-0.241v-1.541h0.222v-0.010zM1.834 30.308c0.029-0.1 0.077-0.18 0.135-0.26 0.058-0.070 0.135-0.13 0.232-0.17 0.087-0.040 0.193-0.060 0.309-0.060s0.222 0.020 0.309 0.060c0.087 0.040 0.164 0.1 0.222 0.17s0.106 0.16 0.135 0.26c0.029 0.1 0.048 0.2 0.048 0.32 0 0.11-0.019 0.22-0.048 0.32s-0.077 0.18-0.135 0.26c-0.058 0.070-0.135 0.13-0.222 0.17s-0.193 0.060-0.309 0.060c-0.116 0-0.222-0.020-0.309-0.060s-0.164-0.1-0.232-0.17c-0.058-0.070-0.106-0.16-0.135-0.26s-0.048-0.2-0.048-0.32c0-0.11 0.019-0.22 0.048-0.32zM2.085 30.879c0.019 0.070 0.058 0.13 0.097 0.18s0.087 0.090 0.145 0.11c0.058 0.030 0.116 0.040 0.183 0.040s0.125-0.010 0.183-0.040c0.058-0.030 0.106-0.060 0.145-0.11s0.077-0.11 0.097-0.18c0.019-0.070 0.039-0.16 0.039-0.25s-0.010-0.18-0.039-0.25c-0.019-0.070-0.058-0.13-0.097-0.18s-0.097-0.090-0.145-0.11c-0.058-0.030-0.116-0.040-0.183-0.040s-0.125 0.010-0.183 0.040c-0.058 0.030-0.106 0.060-0.145 0.11s-0.077 0.11-0.097 0.18c-0.019 0.070-0.039 0.16-0.039 0.25s0.019 0.18 0.039 0.25zM3.716 29.858v0.23h0.010c0.116-0.18 0.27-0.26 0.483-0.26 0.097 0 0.174 0.020 0.251 0.060s0.125 0.11 0.154 0.2c0.048-0.080 0.116-0.15 0.193-0.19 0.077-0.050 0.174-0.070 0.27-0.070 0.077 0 0.145 0.010 0.203 0.030s0.116 0.040 0.154 0.080c0.039 0.040 0.077 0.080 0.097 0.14s0.039 0.12 0.039 0.2v1.131h-0.241v-1.011c0-0.050 0-0.090-0.010-0.13s-0.019-0.080-0.039-0.11c-0.019-0.030-0.048-0.060-0.087-0.070-0.039-0.020-0.087-0.030-0.145-0.030-0.125 0-0.212 0.040-0.29 0.11-0.068 0.070-0.106 0.17-0.106 0.29v0.961h-0.241v-1.011c0-0.050 0-0.1-0.010-0.14s-0.019-0.080-0.048-0.11c-0.019-0.030-0.048-0.050-0.087-0.070s-0.077-0.030-0.135-0.030c-0.068 0-0.135 0.010-0.183 0.040s-0.097 0.070-0.125 0.11c-0.029 0.040-0.058 0.080-0.068 0.13-0.010 0.040-0.019 0.080-0.019 0.11v0.961h-0.241v-1.541h0.222v-0.010zM7.374 29.858v0.22h-0.299v0.961c0 0.030 0 0.050 0.010 0.070s0.010 0.030 0.029 0.040c0.010 0.010 0.029 0.020 0.058 0.020 0.019 0 0.058 0 0.097 0h0.116v0.22h-0.183c-0.068 0-0.116 0-0.164-0.010s-0.077-0.030-0.106-0.050c-0.029-0.020-0.048-0.060-0.058-0.1s-0.019-0.1-0.019-0.17v-0.981h-0.251v-0.22h0.251v-0.46h0.241v0.46h0.28zM7.837 29.267v0.811h0.010c0.019-0.050 0.048-0.090 0.077-0.12 0.039-0.030 0.077-0.060 0.116-0.080s0.087-0.040 0.135-0.050c0.048-0.010 0.097-0.010 0.135-0.010 0.097 0 0.183 0.010 0.241 0.040 0.068 0.030 0.116 0.070 0.154 0.12s0.068 0.11 0.087 0.18c0.019 0.070 0.029 0.14 0.029 0.23v1.011h-0.241v-1.041c0-0.1-0.029-0.17-0.077-0.23-0.058-0.060-0.125-0.080-0.222-0.080-0.077 0-0.135 0.010-0.193 0.040-0.058 0.020-0.097 0.060-0.135 0.1s-0.068 0.090-0.077 0.15c-0.019 0.060-0.029 0.12-0.029 0.19v0.871h-0.241v-2.132h0.232zM10.202 31.299c-0.116 0.090-0.251 0.13-0.425 0.13-0.116 0-0.222-0.020-0.309-0.060s-0.164-0.1-0.222-0.17c-0.058-0.070-0.106-0.16-0.135-0.26s-0.048-0.21-0.048-0.33c0-0.12 0.019-0.22 0.048-0.32 0.039-0.1 0.087-0.18 0.145-0.25s0.135-0.13 0.222-0.17c0.087-0.040 0.183-0.060 0.28-0.060 0.135 0 0.241 0.030 0.328 0.090s0.154 0.13 0.212 0.22c0.048 0.090 0.087 0.18 0.106 0.29 0.019 0.1 0.029 0.2 0.029 0.3h-1.11c0 0.070 0.010 0.13 0.019 0.19 0.019 0.060 0.048 0.11 0.087 0.16s0.087 0.080 0.145 0.11c0.058 0.030 0.125 0.040 0.212 0.040 0.106 0 0.193-0.020 0.251-0.070 0.068-0.050 0.106-0.13 0.135-0.23h0.241c-0.029 0.17-0.106 0.3-0.212 0.39zM10.144 30.308c-0.019-0.050-0.048-0.1-0.087-0.14s-0.077-0.070-0.135-0.090c-0.048-0.020-0.106-0.030-0.164-0.030-0.068 0-0.116 0.010-0.174 0.030-0.048 0.020-0.097 0.050-0.135 0.090s-0.068 0.090-0.087 0.14c-0.019 0.050-0.029 0.11-0.039 0.17h0.859c-0.010-0.060-0.019-0.12-0.039-0.17zM12.277 29.267c0.048 0 0.087 0 0.145 0 0.048 0 0.097 0 0.154 0.010 0.048 0 0.097 0.010 0.135 0.020s0.077 0.020 0.106 0.040c0.068 0.040 0.125 0.1 0.174 0.17s0.068 0.16 0.068 0.27c0 0.11-0.029 0.21-0.077 0.29s-0.125 0.14-0.222 0.18v0.010c0.125 0.030 0.222 0.090 0.29 0.18s0.097 0.2 0.097 0.33c0 0.080-0.010 0.15-0.039 0.23-0.029 0.070-0.068 0.14-0.116 0.2s-0.116 0.1-0.193 0.14c-0.077 0.030-0.164 0.050-0.27 0.050h-0.994v-2.132h0.743v0.010zM12.354 30.178c0.154 0 0.27-0.030 0.338-0.090s0.106-0.14 0.106-0.26c0-0.080-0.010-0.14-0.039-0.18-0.019-0.040-0.058-0.080-0.097-0.1s-0.087-0.040-0.135-0.050c-0.048-0.010-0.106-0.010-0.164-0.010h-0.56v0.681h0.55v0.010zM12.489 31.159c0.125 0 0.212-0.030 0.28-0.1s0.106-0.16 0.106-0.28c0-0.070-0.010-0.13-0.039-0.17-0.029-0.050-0.058-0.080-0.097-0.11s-0.087-0.050-0.145-0.060c-0.058-0.010-0.106-0.020-0.164-0.020h-0.627v0.741h0.685zM13.647 29.858v0.33h0.010c0.058-0.13 0.135-0.22 0.222-0.28s0.193-0.090 0.328-0.080v0.27c-0.097 0-0.183 0.010-0.251 0.040s-0.125 0.070-0.164 0.12c-0.039 0.050-0.077 0.12-0.097 0.2s-0.029 0.16-0.029 0.26v0.691h-0.241v-1.541h0.222v-0.010zM14.371 29.267v0.31h0.344v-0.31h-0.344zM14.715 31.399v-1.541h-0.344v1.541h0.344zM15.587 29.858v0.22h-0.299v0.961c0 0.030 0 0.050 0.010 0.070s0.010 0.030 0.029 0.040c0.010 0.010 0.029 0.020 0.058 0.020 0.019 0 0.058 0 0.097 0h0.116v0.22h-0.183c-0.068 0-0.116 0-0.164-0.010s-0.077-0.030-0.106-0.050c-0.029-0.020-0.048-0.060-0.058-0.1s-0.019-0.1-0.019-0.17v-0.981h-0.251v-0.22h0.251v-0.46h0.241v0.46h0.28zM15.809 29.267v0.31h0.344v-0.31h-0.344zM16.153 31.399h-0.344v-1.541h0.344v1.541zM16.581 31.049c0.019 0.040 0.058 0.070 0.087 0.090 0.039 0.020 0.077 0.040 0.125 0.050s0.097 0.010 0.145 0.010c0.039 0 0.077 0 0.125-0.010 0.039-0.010 0.077-0.020 0.116-0.030 0.039-0.020 0.068-0.040 0.087-0.070s0.039-0.070 0.039-0.12c0-0.070-0.019-0.12-0.068-0.15s-0.106-0.060-0.183-0.080c-0.077-0.020-0.154-0.040-0.232-0.060-0.087-0.020-0.164-0.040-0.232-0.070s-0.135-0.070-0.183-0.13c-0.048-0.060-0.068-0.13-0.068-0.23 0-0.080 0.019-0.14 0.048-0.2s0.077-0.1 0.125-0.14c0.048-0.030 0.116-0.060 0.174-0.080 0.068-0.020 0.135-0.030 0.193-0.030 0.087 0 0.164 0.010 0.232 0.020 0.068 0.020 0.135 0.040 0.193 0.080s0.097 0.090 0.135 0.15c0.029 0.060 0.048 0.14 0.058 0.23h-0.241c0-0.050-0.019-0.090-0.039-0.12s-0.048-0.060-0.077-0.080c-0.029-0.020-0.068-0.030-0.106-0.040s-0.077-0.010-0.116-0.010c-0.039 0-0.077 0-0.106 0.010-0.039 0.010-0.068 0.020-0.106 0.030-0.029 0.010-0.058 0.030-0.077 0.060-0.019 0.020-0.029 0.060-0.029 0.1s0.019 0.080 0.048 0.11c0.029 0.030 0.068 0.050 0.116 0.070s0.097 0.030 0.154 0.050c0.058 0.010 0.116 0.030 0.174 0.040s0.125 0.030 0.183 0.050c0.058 0.020 0.106 0.050 0.154 0.080s0.077 0.070 0.106 0.12c0.029 0.050 0.039 0.11 0.039 0.19 0 0.090-0.019 0.17-0.058 0.23s-0.087 0.11-0.145 0.15c-0.058 0.040-0.125 0.060-0.203 0.080-0.077 0.010-0.154 0.020-0.222 0.020-0.087 0-0.164-0.010-0.232-0.030-0.077-0.020-0.145-0.050-0.203-0.090s-0.106-0.090-0.135-0.16c-0.039-0.070-0.058-0.15-0.058-0.24h0.241c-0.010 0.070 0 0.11 0.019 0.15zM18.049 29.267v0.811h0.010c0.019-0.050 0.048-0.090 0.077-0.12 0.039-0.030 0.077-0.060 0.116-0.080s0.087-0.040 0.135-0.050c0.048-0.010 0.097-0.010 0.135-0.010 0.097 0 0.183 0.010 0.241 0.040 0.068 0.030 0.116 0.070 0.154 0.12s0.068 0.11 0.087 0.18c0.019 0.070 0.029 0.14 0.029 0.23v1.011h-0.241v-1.041c0-0.1-0.029-0.17-0.077-0.23-0.058-0.060-0.125-0.080-0.222-0.080-0.077 0-0.135 0.010-0.193 0.040-0.058 0.020-0.097 0.060-0.135 0.1s-0.068 0.090-0.087 0.15c-0.019 0.060-0.029 0.12-0.029 0.19v0.871h-0.241v-2.132h0.241zM20.461 29.858v0.21h0.010c0.039-0.090 0.106-0.15 0.193-0.19s0.183-0.060 0.29-0.060c0.116 0 0.212 0.020 0.299 0.070 0.087 0.040 0.154 0.1 0.212 0.18 0.058 0.070 0.097 0.16 0.125 0.26s0.039 0.2 0.039 0.31c0 0.11-0.010 0.21-0.039 0.31s-0.068 0.18-0.125 0.26c-0.058 0.070-0.125 0.13-0.212 0.17s-0.183 0.060-0.299 0.060c-0.039 0-0.077 0-0.125-0.010s-0.087-0.020-0.135-0.040c-0.048-0.020-0.087-0.040-0.125-0.070s-0.077-0.070-0.097-0.11h-0.010v0.791h-0.241v-2.132h0.241v-0.010zM21.34 30.398c-0.019-0.070-0.048-0.13-0.087-0.18s-0.087-0.1-0.145-0.13c-0.058-0.030-0.125-0.050-0.203-0.050-0.087 0-0.154 0.020-0.212 0.050s-0.106 0.080-0.145 0.13c-0.039 0.050-0.068 0.12-0.077 0.19-0.019 0.070-0.029 0.14-0.029 0.21 0 0.080 0.010 0.15 0.029 0.22s0.048 0.13 0.087 0.19c0.039 0.050 0.087 0.1 0.145 0.13s0.135 0.050 0.212 0.050c0.077 0 0.154-0.020 0.212-0.050s0.106-0.080 0.135-0.13c0.039-0.060 0.058-0.12 0.077-0.19s0.019-0.15 0.019-0.22c0.010-0.080 0-0.15-0.019-0.22zM22.932 31.299c-0.116 0.090-0.251 0.13-0.425 0.13-0.116 0-0.222-0.020-0.309-0.060s-0.164-0.1-0.222-0.17c-0.058-0.070-0.106-0.16-0.135-0.26s-0.048-0.21-0.048-0.33c0-0.12 0.019-0.22 0.048-0.32 0.039-0.1 0.087-0.18 0.145-0.25s0.135-0.13 0.222-0.17c0.087-0.040 0.183-0.060 0.28-0.060 0.135 0 0.241 0.030 0.328 0.090s0.154 0.13 0.212 0.22c0.048 0.090 0.087 0.18 0.106 0.29 0.019 0.1 0.029 0.2 0.029 0.3h-1.11c0 0.070 0.010 0.13 0.019 0.19 0.019 0.060 0.048 0.11 0.087 0.16s0.087 0.080 0.145 0.11c0.058 0.030 0.125 0.040 0.212 0.040 0.106 0 0.193-0.020 0.251-0.070 0.068-0.050 0.106-0.13 0.135-0.23h0.241c-0.029 0.17-0.106 0.3-0.212 0.39zM22.865 30.308c-0.019-0.050-0.048-0.1-0.087-0.14s-0.077-0.070-0.135-0.090c-0.048-0.020-0.106-0.030-0.164-0.030-0.068 0-0.116 0.010-0.174 0.030-0.048 0.020-0.097 0.050-0.135 0.090s-0.068 0.090-0.087 0.14c-0.019 0.050-0.029 0.11-0.039 0.17h0.859c0-0.060-0.010-0.12-0.039-0.17zM23.367 30.308c0.029-0.1 0.077-0.18 0.135-0.26 0.058-0.070 0.135-0.13 0.232-0.17 0.087-0.040 0.193-0.060 0.309-0.060s0.222 0.020 0.309 0.060c0.087 0.040 0.164 0.1 0.222 0.17s0.106 0.16 0.135 0.26c0.029 0.1 0.048 0.2 0.048 0.32 0 0.11-0.019 0.22-0.048 0.32s-0.077 0.18-0.135 0.26c-0.058 0.070-0.135 0.13-0.222 0.17s-0.193 0.060-0.309 0.060c-0.116 0-0.222-0.020-0.309-0.060s-0.164-0.1-0.232-0.17c-0.058-0.070-0.106-0.16-0.135-0.26s-0.048-0.2-0.048-0.32c0-0.11 0.019-0.22 0.048-0.32zM23.617 30.879c0.019 0.070 0.058 0.13 0.097 0.18s0.087 0.090 0.145 0.11c0.058 0.030 0.116 0.040 0.183 0.040s0.125-0.010 0.183-0.040c0.058-0.030 0.106-0.060 0.145-0.11s0.077-0.11 0.097-0.18c0.019-0.070 0.039-0.16 0.039-0.25s-0.010-0.18-0.039-0.25c-0.019-0.070-0.058-0.13-0.097-0.18s-0.097-0.090-0.145-0.11c-0.058-0.030-0.116-0.040-0.183-0.040s-0.125 0.010-0.183 0.040c-0.058 0.030-0.106 0.060-0.145 0.11s-0.077 0.11-0.097 0.18c-0.019 0.070-0.039 0.16-0.039 0.25s0.010 0.18 0.039 0.25zM25.268 29.858v0.21h0.010c0.039-0.090 0.106-0.15 0.193-0.19s0.183-0.060 0.29-0.060c0.116 0 0.212 0.020 0.299 0.070 0.087 0.040 0.154 0.1 0.212 0.18 0.058 0.070 0.097 0.16 0.125 0.26s0.039 0.2 0.039 0.31c0 0.11-0.010 0.21-0.039 0.31s-0.068 0.18-0.125 0.26c-0.058 0.070-0.125 0.13-0.212 0.17s-0.183 0.060-0.299 0.060c-0.039 0-0.077 0-0.125-0.010s-0.087-0.020-0.135-0.040c-0.048-0.020-0.087-0.040-0.125-0.070s-0.077-0.070-0.097-0.11h-0.010v0.791h-0.241v-2.132h0.241v-0.010zM26.146 30.398c-0.019-0.070-0.048-0.13-0.087-0.18s-0.087-0.1-0.145-0.13c-0.058-0.030-0.125-0.050-0.203-0.050-0.087 0-0.154 0.020-0.212 0.050s-0.106 0.080-0.145 0.13c-0.039 0.050-0.068 0.12-0.077 0.19-0.019 0.070-0.029 0.14-0.029 0.21 0 0.080 0.010 0.15 0.029 0.22s0.048 0.13 0.087 0.19c0.039 0.050 0.087 0.1 0.145 0.13s0.135 0.050 0.212 0.050c0.077 0 0.154-0.020 0.212-0.050s0.106-0.080 0.135-0.13c0.039-0.060 0.058-0.12 0.077-0.19s0.019-0.15 0.019-0.22c0.010-0.080 0-0.15-0.019-0.22zM26.687 29.267h0.241v2.132h-0.241v-2.132zM28.328 31.299c-0.116 0.090-0.251 0.13-0.425 0.13-0.116 0-0.222-0.020-0.309-0.060s-0.164-0.1-0.222-0.17c-0.058-0.070-0.106-0.16-0.135-0.26s-0.048-0.21-0.048-0.33c0-0.12 0.019-0.22 0.048-0.32 0.039-0.1 0.087-0.18 0.145-0.25s0.135-0.13 0.222-0.17c0.087-0.040 0.183-0.060 0.28-0.060 0.135 0 0.241 0.030 0.328 0.090s0.154 0.13 0.212 0.22c0.048 0.090 0.087 0.18 0.106 0.29s0.029 0.2 0.029 0.3h-1.11c0 0.070 0.010 0.13 0.019 0.19 0.019 0.060 0.048 0.11 0.087 0.16s0.087 0.080 0.145 0.11c0.058 0.030 0.125 0.040 0.212 0.040 0.106 0 0.193-0.020 0.251-0.070 0.068-0.050 0.106-0.13 0.135-0.23h0.241c-0.029 0.17-0.106 0.3-0.212 0.39zM28.27 30.308c-0.019-0.050-0.048-0.1-0.087-0.14s-0.077-0.070-0.135-0.090c-0.048-0.020-0.106-0.030-0.164-0.030-0.068 0-0.116 0.010-0.174 0.030-0.048 0.020-0.097 0.050-0.135 0.090s-0.068 0.090-0.087 0.14c-0.019 0.050-0.029 0.11-0.039 0.17h0.859c-0.010-0.060-0.019-0.12-0.039-0.17z"></path>
</symbol>
<symbol id="icon-logo-strapline" viewBox="0 0 80 32">
<title>logo-strapline</title>
<path fill="#fff" style="fill: var(--color1, #fff)" d="M4.498 3.531c0-1.281-0.418-1.818-1.164-1.818s-1.164 0.537-1.164 1.818v1.464c0 1.282 0.418 1.818 1.164 1.818s1.164-0.535 1.164-1.818zM6.63 4.55c0 2.365-1.059 3.975-3.296 3.975s-3.296-1.609-3.296-3.975v-0.575c0-2.367 1.060-3.975 3.296-3.975s3.296 1.609 3.296 3.975zM11.205 4.080c0.747 0 1.112-0.3 1.112-1.138s-0.365-1.15-1.112-1.15h-0.756v2.288zM10.449 8.383h-2.053v-8.238h2.994c1.961 0 2.916 1.007 2.916 2.785 0 1.802-0.955 2.797-2.916 2.797h-0.941z"></path>
<path fill="#fff" style="fill: var(--color1, #fff)" d="M21.134 8.383h-5.205v-8.238h5.179v1.699h-3.152v1.53h2.354v1.673h-2.354v1.635h3.178v1.701z"></path>
<path fill="#fff" style="fill: var(--color1, #fff)" d="M27.188 4.46h0.052v-4.315h1.884v8.238h-1.582l-2.668-4.695h-0.052v4.695h-1.896v-8.238h1.936l2.327 4.315z"></path>
<path fill="#fff" style="fill: var(--color1, #fff)" d="M4.498 15.101c0-1.281-0.418-1.818-1.164-1.818s-1.164 0.535-1.164 1.818v1.458c0 1.281 0.418 1.818 1.164 1.818s1.164-0.535 1.164-1.818zM6.63 16.12c0 2.365-1.059 3.975-3.296 3.975s-3.296-1.609-3.296-3.975v-0.575c0-2.365 1.060-3.975 3.296-3.975s3.296 1.609 3.296 3.975z"></path>
<path fill="#fff" style="fill: var(--color1, #fff)" d="M13.339 11.713l0.784 4.799h0.052l0.864-4.799h1.921l-1.673 8.239h-2.027l-0.903-5.284h-0.052l-0.903 5.284h-2.026l-1.675-8.239h2.053l0.824 4.799h0.052l0.823-4.799h1.884z"></path>
<path fill="#fff" style="fill: var(--color1, #fff)" d="M22.702 16.028h0.052v-4.315h1.884v8.238h-1.582l-2.668-4.694h-0.052v4.694h-1.896v-8.238h1.936l2.327 4.315z"></path>
<path fill="#fff" style="fill: var(--color1, #fff)" d="M31.818 19.952h-5.205v-8.239h5.179v1.699h-3.151v1.531h2.353v1.673h-2.353v1.635h3.177v1.701z"></path>
<path fill="#fff" style="fill: var(--color1, #fff)" d="M36.539 15.479c0.772 0 1.15-0.327 1.15-1.046 0-0.667-0.373-1.072-1.15-1.072h-0.903v2.117zM37.69 19.951c-0.157-0.327-0.249-0.798-0.301-1.779-0.039-0.758-0.261-1.098-0.929-1.098h-0.824v2.877h-2.021v-8.238h3.008c2.105 0 3.086 0.996 3.086 2.59 0 1.15-0.68 1.856-1.425 2.041 0.732 0.235 1.033 0.706 1.112 1.743 0.092 1.12 0.144 1.518 0.373 1.867zM43.981 11.568c1.962 0 2.982 1.137 2.982 2.785v0.213h-1.831v-0.131c0-0.784-0.366-1.295-1.164-1.295-0.537 0-0.863 0.314-0.863 0.784 0 0.373 0.223 0.615 0.654 0.758l1.216 0.406c1.333 0.444 2.117 1.098 2.117 2.419 0 1.687-1.245 2.59-2.903 2.59-1.992 0-3.112-1.098-3.112-2.771v-0.183h1.844v0.118c0 0.784 0.432 1.269 1.256 1.269 0.563 0 0.915-0.288 0.915-0.758 0-0.431-0.235-0.641-0.732-0.798l-1.256-0.392c-1.112-0.354-1.948-0.981-1.948-2.419 0-1.53 1.098-2.59 2.825-2.59z"></path>
<path fill="#fff" style="fill: var(--color1, #fff)" d="M48.794 19.952v-8.239h2.067v3.231h2.353v-3.231h2.067v8.239h-2.067v-3.335h-2.353v3.335h-2.067z"></path>
<path fill="#fff" style="fill: var(--color1, #fff)" d="M57.256 19.952h2.065v-8.239h-2.065v8.239z"></path>
<path fill="#fff" style="fill: var(--color1, #fff)" d="M64.108 15.65c0.747 0 1.112-0.301 1.112-1.138s-0.366-1.152-1.112-1.152h-0.758v2.29zM63.35 19.952h-2.054v-8.239h2.995c1.962 0 2.916 1.007 2.916 2.785 0 1.805-0.955 2.799-2.916 2.799h-0.941z"></path>
<path fill="#3c31d4" style="fill: var(--color2, #3c31d4)" d="M78.766 7.678l-0.954-0.565h-1.839v-0.514h0.96l-0.96-0.566v-0.498h3.746v0.498h-2.875l0.987 0.566h1.886v0.515h-0.987l0.987 0.566v0.562h-3.745v-0.564zM75.341 2.256l4.377-0.566v-0.562h-8.239v0.562h4.137l-4.136 0.566v0.498h8.241v-0.498zM71.481 0.561h8.241v-0.561h-8.243zM71.481 3.837h8.241v-0.515h-8.243zM75.976 4.965h3.746v-0.561h-3.749z"></path>
<path fill="#fff" style="fill: var(--color1, #fff)" d="M0.517 31.137l0.166-0.030c0.085-0.016 0.108-0.034 0.108-0.203v-1.867h-0.020c-0.349 0-0.388 0-0.491 0.176-0.064 0.116-0.117 0.251-0.153 0.393l-0.003 0.012h-0.124l0.034-0.717h1.882l0.034 0.717h-0.125c-0.039-0.151-0.092-0.284-0.16-0.407l0.004 0.009c-0.101-0.176-0.138-0.176-0.487-0.176h-0.024v1.867c0 0.169 0.014 0.186 0.108 0.203l0.166 0.030v0.105h-0.916z"></path>
<path fill="#fff" style="fill: var(--color1, #fff)" d="M2.105 31.141l0.138-0.037c0.067-0.017 0.091-0.044 0.091-0.176v-1.876c0-0.136-0.024-0.142-0.101-0.179l-0.146-0.067v-0.095l0.574-0.055 0.034 0.027c-0.015 0.116-0.024 0.249-0.024 0.385 0 0.004 0 0.008 0 0.011v-0.001 0.303c-0 0.105-0.006 0.209-0.017 0.311l0.001-0.013h0.014c0.181-0.12 0.399-0.198 0.635-0.213l0.004-0c0.341 0 0.459 0.146 0.459 0.449v1.007c0 0.132 0.027 0.159 0.091 0.176l0.136 0.037v0.101h-0.791v-0.101l0.138-0.037c0.067-0.017 0.088-0.034 0.088-0.176v-0.913c0-0.237-0.077-0.321-0.294-0.321-0.169 0.010-0.327 0.048-0.473 0.108l0.010-0.004v1.129c0 0.142 0.020 0.159 0.088 0.176l0.138 0.037v0.101h-0.794z"></path>
<path fill="#fff" style="fill: var(--color1, #fff)" d="M4.131 30.364c0-0.54 0.388-0.895 0.835-0.895s0.69 0.233 0.69 0.862h-1.167c0.010 0.514 0.249 0.737 0.588 0.737 0.2-0.001 0.387-0.054 0.55-0.145l-0.006 0.003v0.134c-0.18 0.139-0.408 0.223-0.656 0.223-0 0-0 0-0 0v0c-0.56 0-0.834-0.372-0.834-0.919zM4.492 30.189l0.784-0.041c0-0.388-0.064-0.538-0.325-0.538s-0.431 0.179-0.458 0.579z"></path>
<path fill="#fff" style="fill: var(--color1, #fff)" d="M6.749 30.090c0-0.906 0.554-1.23 1.179-1.23 0.023-0.001 0.049-0.001 0.076-0.001 0.213 0 0.42 0.023 0.619 0.068l-0.019-0.004 0.047 0.672h-0.124c-0.052-0.16-0.121-0.299-0.207-0.426l0.004 0.006c-0.077-0.125-0.108-0.156-0.42-0.156-0.507 0-0.774 0.266-0.774 0.987 0 0.784 0.217 1.108 0.763 1.108 0.012 0.001 0.025 0.001 0.039 0.001 0.135 0 0.263-0.029 0.379-0.080l-0.006 0.002v-0.467c0-0.169-0.024-0.183-0.108-0.199l-0.162-0.034v-0.105h0.862v0.105l-0.124 0.027c-0.081 0.020-0.105 0.037-0.105 0.207v0.591c-0.231 0.074-0.496 0.119-0.772 0.124l-0.003 0c-0.695-0.006-1.144-0.381-1.144-1.199z"></path>
<path fill="#fff" style="fill: var(--color1, #fff)" d="M9.034 31.141l0.138-0.037c0.067-0.017 0.091-0.044 0.091-0.176v-1.876c0-0.136-0.024-0.142-0.101-0.179l-0.146-0.067v-0.095l0.574-0.055 0.034 0.027c-0.015 0.116-0.024 0.249-0.024 0.385 0 0.004 0 0.008 0 0.011v-0.001 1.849c0 0.142 0.020 0.159 0.088 0.176l0.138 0.037v0.101h-0.793z"></path>
<path fill="#fff" style="fill: var(--color1, #fff)" d="M10.010 30.378c0-0.591 0.412-0.913 0.855-0.913 0.479 0 0.852 0.294 0.852 0.893s-0.412 0.926-0.852 0.926c-0.484 0.003-0.855-0.305-0.855-0.906zM11.344 30.405c0-0.574-0.162-0.798-0.498-0.798-0.304 0-0.469 0.217-0.469 0.723 0 0.574 0.166 0.808 0.498 0.808 0.307 0.003 0.469-0.224 0.469-0.731z"></path>
<path fill="#fff" style="fill: var(--color1, #fff)" d="M12.066 31.158v-2.107c0-0.136-0.024-0.142-0.098-0.179l-0.141-0.067v-0.095l0.571-0.055 0.034 0.027c-0.015 0.105-0.024 0.226-0.024 0.349 0 0.016 0 0.033 0 0.049l-0-0.002v0.303c0 0.152-0.014 0.284-0.014 0.284h0.014c0.162-0.121 0.366-0.195 0.587-0.199h0.001c0.327 0 0.68 0.186 0.68 0.828s-0.406 0.984-0.966 0.984c-0.025 0.002-0.054 0.003-0.083 0.003-0.203 0-0.396-0.045-0.569-0.126l0.008 0.003zM13.311 30.368c0-0.459-0.195-0.682-0.487-0.682-0.009-0-0.019-0.001-0.030-0.001-0.147 0-0.284 0.043-0.399 0.117l0.003-0.002v1.216c0.082 0.072 0.191 0.115 0.31 0.115 0.010 0 0.020-0 0.030-0.001l-0.001 0c0.393 0 0.584-0.203 0.584-0.764z"></path>
<path fill="#fff" style="fill: var(--color1, #fff)" d="M13.888 30.837c0-0.278 0.199-0.416 0.591-0.507l0.396-0.088v-0.314c0-0.227-0.034-0.327-0.321-0.327-0.148 0-0.173 0.034-0.185 0.136-0.017 0.125-0.051 0.227-0.203 0.227-0.007 0.001-0.015 0.002-0.023 0.002-0.087 0-0.157-0.070-0.157-0.157 0-0.005 0-0.010 0.001-0.015l-0 0.001c0-0.223 0.355-0.325 0.639-0.325 0.406 0 0.588 0.148 0.588 0.439v0.996c-0.001 0.007-0.002 0.016-0.002 0.025 0 0.066 0.037 0.122 0.092 0.151l0.001 0c0.046 0.020 0.099 0.031 0.155 0.031 0.004 0 0.007-0 0.011-0h-0.001v0.095c-0.085 0.049-0.187 0.077-0.295 0.077-0.001 0-0.002 0-0.003 0h0c-0.173 0-0.264-0.085-0.284-0.195h-0.017c-0.111 0.123-0.271 0.2-0.449 0.2-0.007 0-0.014-0-0.021-0l0.001 0c-0.314 0-0.513-0.162-0.513-0.449zM14.875 30.936v-0.52l-0.26 0.027c-0.249 0.024-0.382 0.115-0.382 0.373 0 0.195 0.124 0.284 0.314 0.284 0.005 0 0.011 0 0.018 0 0.128 0 0.242-0.065 0.309-0.163l0.001-0.001z"></path>
<path fill="#fff" style="fill: var(--color1, #fff)" d="M15.603 31.141l0.138-0.037c0.067-0.017 0.091-0.044 0.091-0.176v-1.876c0-0.136-0.024-0.142-0.101-0.179l-0.146-0.067v-0.095l0.574-0.055 0.034 0.027c-0.015 0.116-0.024 0.249-0.024 0.385 0 0.004 0 0.008 0 0.011v-0.001 1.849c0 0.142 0.020 0.159 0.088 0.176l0.138 0.037v0.101h-0.794z"></path>
<path fill="#fff" style="fill: var(--color1, #fff)" d="M17.417 31.137l0.152-0.030c0.081-0.014 0.108-0.034 0.108-0.203v-1.67c0-0.169-0.027-0.186-0.108-0.203l-0.152-0.030v-0.101h0.929c0.507 0 0.832 0.156 0.832 0.552 0 0.317-0.207 0.483-0.575 0.548v0.014c0.459 0.037 0.7 0.223 0.7 0.571 0 0.43-0.349 0.659-0.872 0.659h-1.013zM18.336 29.951c0.298 0 0.469-0.159 0.469-0.433 0-0.373-0.152-0.469-0.491-0.469-0.009-0-0.019-0-0.029-0-0.085 0-0.169 0.007-0.25 0.021l0.009-0.001v0.883zM18.911 30.627c0-0.373-0.149-0.528-0.528-0.528h-0.331v0.727c0 0.237 0.037 0.264 0.351 0.264s0.508-0.125 0.508-0.463z"></path>
<path fill="#fff" style="fill: var(--color1, #fff)" d="M19.566 30.364c0-0.54 0.388-0.895 0.835-0.895s0.69 0.233 0.69 0.862h-1.172c0.010 0.514 0.249 0.737 0.588 0.737 0.2-0.001 0.387-0.054 0.55-0.145l-0.006 0.003v0.134c-0.18 0.139-0.408 0.223-0.656 0.223-0 0-0 0-0 0v0c-0.555 0-0.829-0.372-0.829-0.919zM19.927 30.189l0.784-0.041c0-0.388-0.064-0.538-0.325-0.538s-0.432 0.179-0.459 0.579z"></path>
<path fill="#fff" style="fill: var(--color1, #fff)" d="M21.289 31.141l0.138-0.037c0.067-0.017 0.091-0.044 0.091-0.176v-1.048c0-0.134-0.017-0.142-0.101-0.182l-0.125-0.065v-0.088l0.534-0.071 0.034 0.020-0.016 0.189h0.014c0.181-0.12 0.399-0.198 0.635-0.213l0.004-0c0.341 0 0.459 0.146 0.459 0.449v1.007c0 0.132 0.027 0.159 0.091 0.176l0.136 0.037v0.101h-0.791v-0.101l0.138-0.037c0.067-0.017 0.088-0.034 0.088-0.176v-0.913c0-0.237-0.077-0.321-0.294-0.321-0.169 0.010-0.327 0.048-0.473 0.108l0.010-0.004v1.129c0 0.142 0.020 0.159 0.088 0.176l0.138 0.037v0.101h-0.799z"></path>
<path fill="#fff" style="fill: var(--color1, #fff)" d="M23.363 30.364c0-0.54 0.388-0.895 0.835-0.895s0.69 0.233 0.69 0.862h-1.167c0.010 0.514 0.249 0.737 0.588 0.737 0.2-0.001 0.387-0.054 0.55-0.145l-0.006 0.003v0.134c-0.18 0.139-0.408 0.223-0.656 0.223-0 0-0 0-0 0v0c-0.56 0-0.834-0.372-0.834-0.919zM23.725 30.189l0.784-0.041c0-0.388-0.064-0.538-0.325-0.538s-0.432 0.179-0.459 0.579z"></path>
<path fill="#fff" style="fill: var(--color1, #fff)" d="M25.653 29.522h0.622l0.365-0.047 0.037 0.020c-0.010 0.092-0.016 0.198-0.016 0.306 0 0.002 0 0.004 0 0.006v-0 1.12c0 0.142 0.020 0.159 0.088 0.176l0.138 0.037v0.101h-0.784v-0.101l0.125-0.037c0.065-0.017 0.091-0.044 0.091-0.176v-1.047c0-0.134-0.047-0.179-0.134-0.179h-0.534v1.21c0 0.159 0.014 0.173 0.088 0.193l0.138 0.037v0.101h-0.794v-0.101l0.138-0.037c0.067-0.017 0.091-0.044 0.091-0.176v-1.228h-0.24v-0.101l0.24-0.081v-0.137c0-0.469 0.327-0.733 0.811-0.733 0.27 0 0.388 0.095 0.388 0.213 0.001 0.006 0.001 0.013 0.001 0.020 0 0.092-0.075 0.167-0.167 0.167-0.006 0-0.012-0-0.018-0.001l0.001 0c-0.005 0-0.010 0.001-0.015 0.001-0.106 0-0.192-0.084-0.194-0.19v-0c-0.006-0.055-0.030-0.088-0.095-0.088-0.199 0-0.373 0.081-0.373 0.433z"></path>
<path fill="#fff" style="fill: var(--color1, #fff)" d="M27.072 30.404c0-0.727 0.548-0.936 0.964-0.936 0.325 0 0.477 0.112 0.477 0.284 0 0.002 0 0.004 0 0.006 0 0.113-0.087 0.206-0.199 0.215l-0.001 0c-0.132 0-0.173-0.071-0.189-0.183-0.024-0.152-0.057-0.176-0.176-0.176-0.28 0-0.517 0.183-0.517 0.67 0 0.507 0.203 0.784 0.581 0.784 0.192-0.004 0.371-0.058 0.526-0.148l-0.005 0.003v0.136c-0.177 0.141-0.404 0.227-0.651 0.227-0.004 0-0.008-0-0.012-0h0.001c-0.522-0.001-0.799-0.37-0.799-0.88z"></path>
<path fill="#fff" style="fill: var(--color1, #fff)" d="M28.714 31.141l0.138-0.037c0.067-0.017 0.091-0.044 0.091-0.176v-1.048c0-0.134-0.017-0.142-0.101-0.182l-0.125-0.065v-0.088l0.558-0.071 0.034 0.020c-0.015 0.103-0.024 0.222-0.024 0.343 0 0.011 0 0.022 0 0.032l-0-0.002v1.055c0 0.142 0.020 0.159 0.088 0.176l0.138 0.037v0.101h-0.794zM28.87 28.947c0-0.126 0.102-0.228 0.228-0.228s0.228 0.102 0.228 0.228v0c0 0.126-0.102 0.228-0.228 0.228s-0.228-0.102-0.228-0.228v0z"></path>
<path fill="#fff" style="fill: var(--color1, #fff)" d="M29.663 30.837c0-0.278 0.199-0.416 0.591-0.507l0.396-0.088v-0.314c0-0.227-0.034-0.327-0.321-0.327-0.148 0-0.173 0.034-0.186 0.136-0.017 0.125-0.051 0.227-0.203 0.227-0.009 0.002-0.019 0.003-0.029 0.003-0.087 0-0.157-0.070-0.157-0.157 0-0.006 0-0.012 0.001-0.017l-0 0.001c0-0.223 0.355-0.325 0.639-0.325 0.406 0 0.588 0.148 0.588 0.439v0.996c-0.001 0.007-0.002 0.016-0.002 0.025 0 0.066 0.037 0.122 0.092 0.151l0.001 0c0.046 0.020 0.099 0.031 0.155 0.031 0.004 0 0.007-0 0.011-0h-0.001v0.095c-0.085 0.049-0.187 0.077-0.295 0.077-0.001 0-0.002 0-0.003 0h0c-0.173 0-0.264-0.085-0.284-0.195h-0.017c-0.111 0.123-0.271 0.2-0.449 0.2-0.007 0-0.014-0-0.021-0l0.001 0c-0.308 0.001-0.507-0.161-0.507-0.448zM30.65 30.936v-0.52l-0.26 0.027c-0.249 0.024-0.382 0.115-0.382 0.373 0 0.195 0.125 0.284 0.314 0.284 0.006 0 0.012 0 0.019 0 0.128 0 0.242-0.065 0.309-0.164l0.001-0.001z"></path>
<path fill="#fff" style="fill: var(--color1, #fff)" d="M31.374 31.141l0.138-0.037c0.067-0.017 0.091-0.044 0.091-0.176v-1.876c0-0.136-0.024-0.142-0.101-0.179l-0.146-0.067v-0.095l0.574-0.055 0.034 0.027c-0.015 0.116-0.024 0.249-0.024 0.385 0 0.004 0 0.008 0 0.011v-0.001 1.849c0 0.142 0.020 0.159 0.088 0.176l0.138 0.037v0.101h-0.793z"></path>
<path fill="#fff" style="fill: var(--color1, #fff)" d="M33.22 30.104c0-0.872 0.53-1.245 1.092-1.245 0.591 0 1.058 0.422 1.058 1.196 0 0.872-0.53 1.228-1.092 1.228-0.595 0-1.058-0.407-1.058-1.179zM34.984 30.114c0-0.54-0.152-1.092-0.703-1.092-0.467 0-0.676 0.301-0.676 1.025 0 0.54 0.152 1.072 0.7 1.072 0.467-0.001 0.68-0.281 0.68-1.005z"></path>
<path fill="#fff" style="fill: var(--color1, #fff)" d="M35.764 29.88c-0.055-0.148-0.081-0.193-0.183-0.227l-0.085-0.027v-0.098h0.771v0.098l-0.091 0.024c-0.077 0.020-0.095 0.055-0.095 0.108 0.008 0.065 0.025 0.124 0.049 0.18l-0.002-0.004 0.301 0.92h0.016l0.314-0.899-0.024-0.075c-0.041-0.132-0.088-0.203-0.166-0.227l-0.081-0.027v-0.098h0.72v0.098l-0.095 0.024c-0.063 0.017-0.075 0.055-0.075 0.108 0.006 0.065 0.021 0.124 0.045 0.179l-0.001-0.004 0.317 0.92h0.014l0.294-0.92c0.022-0.053 0.036-0.115 0.041-0.18l0-0.002c0-0.051-0.020-0.085-0.088-0.102l-0.095-0.024v-0.098h0.601v0.098l-0.095 0.027c-0.091 0.024-0.112 0.091-0.173 0.26l-0.477 1.335h-0.198l-0.373-1.084h-0.010l-0.385 1.084h-0.203z"></path>
<path fill="#fff" style="fill: var(--color1, #fff)" d="M38.254 31.141l0.138-0.037c0.067-0.017 0.091-0.044 0.091-0.176v-1.048c0-0.134-0.017-0.142-0.101-0.182l-0.124-0.065v-0.088l0.534-0.071 0.034 0.020-0.016 0.189h0.014c0.181-0.12 0.399-0.198 0.635-0.213l0.004-0c0.341 0 0.459 0.146 0.459 0.449v1.007c0 0.132 0.027 0.159 0.091 0.176l0.136 0.037v0.101h-0.791v-0.101l0.138-0.037c0.067-0.017 0.088-0.034 0.088-0.176v-0.913c0-0.237-0.077-0.321-0.294-0.321-0.169 0.010-0.327 0.048-0.473 0.108l0.010-0.004v1.129c0 0.142 0.020 0.159 0.088 0.176l0.138 0.037v0.101h-0.794z"></path>
<path fill="#fff" style="fill: var(--color1, #fff)" d="M40.328 30.364c0-0.54 0.388-0.895 0.835-0.895s0.69 0.233 0.69 0.862h-1.167c0.010 0.514 0.249 0.737 0.588 0.737 0.2-0.001 0.387-0.054 0.55-0.145l-0.006 0.003v0.134c-0.18 0.139-0.408 0.223-0.656 0.223-0 0-0 0-0 0v0c-0.56 0-0.834-0.372-0.834-0.919zM40.689 30.189l0.784-0.041c0-0.388-0.063-0.538-0.325-0.538s-0.437 0.179-0.458 0.579z"></path>
<path fill="#fff" style="fill: var(--color1, #fff)" d="M42.051 31.141l0.138-0.037c0.067-0.017 0.091-0.044 0.091-0.176v-1.048c0-0.134-0.017-0.142-0.101-0.182l-0.124-0.065v-0.088l0.534-0.071 0.034 0.027-0.016 0.195h0.014c0.129-0.129 0.302-0.213 0.495-0.23l0.003-0c0.008-0.001 0.018-0.002 0.028-0.002 0.108 0 0.195 0.087 0.195 0.195 0 0.003-0 0.007-0 0.010l0-0c0 0.004 0.001 0.009 0.001 0.014 0 0.097-0.079 0.176-0.176 0.176-0.002 0-0.005-0-0.007-0h0c-0.124 0-0.162-0.034-0.193-0.108-0.020-0.047-0.044-0.057-0.077-0.057-0.105 0.022-0.195 0.075-0.264 0.148l-0 0v1.084c0 0.142 0.020 0.162 0.088 0.176l0.173 0.037v0.101h-0.828z"></path>
<path fill="#fff" style="fill: var(--color1, #fff)" d="M43.516 31.208l-0.017-0.498h0.108c0.041 0.116 0.096 0.217 0.164 0.307l-0.002-0.003c0.062 0.077 0.156 0.126 0.261 0.126 0.011 0 0.023-0.001 0.034-0.002l-0.001 0c0.207 0 0.351-0.101 0.351-0.278s-0.124-0.249-0.398-0.365-0.498-0.256-0.498-0.52c0-0.314 0.28-0.507 0.635-0.507 0.016-0.001 0.034-0.001 0.053-0.001 0.139 0 0.274 0.023 0.399 0.065l-0.009-0.003 0.014 0.453h-0.101c-0.053-0.107-0.11-0.199-0.176-0.284l0.003 0.004c-0.046-0.057-0.116-0.093-0.194-0.093-0.010 0-0.020 0.001-0.030 0.002l0.001-0c-0.223 0-0.321 0.098-0.321 0.27 0 0.125 0.112 0.22 0.396 0.327 0.317 0.125 0.528 0.249 0.528 0.514 0 0.317-0.26 0.561-0.684 0.561-0.010 0-0.021 0-0.033 0-0.173 0-0.339-0.028-0.494-0.081l0.011 0.003z"></path>
<path fill="#fff" style="fill: var(--color1, #fff)" d="M44.878 31.141l0.138-0.037c0.067-0.017 0.091-0.044 0.091-0.176v-1.876c0-0.136-0.024-0.142-0.101-0.179l-0.146-0.067v-0.095l0.574-0.055 0.034 0.027c-0.015 0.116-0.024 0.249-0.024 0.385 0 0.004 0 0.008 0 0.011v-0.001 0.303c-0 0.105-0.006 0.209-0.017 0.311l0.001-0.013h0.014c0.181-0.12 0.399-0.198 0.635-0.213l0.004-0c0.341 0 0.459 0.146 0.459 0.449v1.007c0 0.132 0.027 0.159 0.091 0.176l0.136 0.037v0.101h-0.791v-0.101l0.138-0.037c0.067-0.017 0.088-0.034 0.088-0.176v-0.913c0-0.237-0.077-0.321-0.294-0.321-0.169 0.010-0.327 0.048-0.473 0.108l0.010-0.004v1.129c0 0.142 0.020 0.159 0.088 0.176l0.138 0.037v0.101h-0.794z"></path>
<path fill="#fff" style="fill: var(--color1, #fff)" d="M46.875 31.141l0.138-0.037c0.067-0.017 0.091-0.044 0.091-0.176v-1.048c0-0.134-0.017-0.142-0.101-0.182l-0.124-0.065v-0.088l0.558-0.071 0.034 0.020c-0.015 0.103-0.024 0.222-0.024 0.343 0 0.011 0 0.022 0 0.032l-0-0.002v1.055c0 0.142 0.020 0.159 0.088 0.176l0.138 0.037v0.101h-0.794zM47.031 28.947c0-0.126 0.102-0.228 0.228-0.228s0.228 0.102 0.228 0.228v0c0 0.126-0.102 0.228-0.228 0.228s-0.228-0.102-0.228-0.228v0z"></path>
<path fill="#fff" style="fill: var(--color1, #fff)" d="M47.818 31.884l0.138-0.037c0.071-0.017 0.091-0.044 0.091-0.176v-1.792c0-0.134-0.017-0.142-0.101-0.182l-0.124-0.065v-0.088l0.534-0.071 0.034 0.020-0.014 0.176h0.014c0.162-0.121 0.364-0.195 0.584-0.199l0.001-0c0.327 0 0.68 0.186 0.68 0.828s-0.385 0.984-0.974 0.984c-0.108-0.002-0.211-0.017-0.31-0.046l0.008 0.002s0.010 0.101 0.010 0.217v0.217c0 0.142 0.017 0.162 0.088 0.176l0.183 0.037v0.098h-0.838zM49.294 30.367c0-0.459-0.193-0.682-0.528-0.682-0.142 0.004-0.274 0.046-0.385 0.116l0.003-0.002v1.201c0.082 0.077 0.192 0.125 0.314 0.125 0.006 0 0.012-0 0.018-0l-0.001 0c0.39 0.006 0.579-0.197 0.579-0.758z"></path>
<path fill="#fff" style="fill: var(--color1, #fff)" d="M50.728 31.137l0.152-0.030c0.081-0.014 0.108-0.034 0.108-0.203v-1.67c0-0.169-0.027-0.186-0.108-0.203l-0.152-0.030v-0.101h0.984c0.544 0 0.791 0.203 0.791 0.595 0 0.249-0.189 0.483-0.538 0.585v0.010c0.208 0.361 0.41 0.665 0.628 0.956l-0.017-0.024c0.043 0.052 0.105 0.087 0.174 0.095l0.001 0 0.075 0.020v0.105h-0.512c-0.241-0.308-0.463-0.655-0.652-1.021l-0.017-0.037h-0.294v0.72c0 0.169 0.020 0.186 0.115 0.203l0.163 0.030v0.105h-0.899zM52.122 29.529c0-0.412-0.142-0.481-0.453-0.481-0.011-0-0.025-0-0.038-0-0.099 0-0.196 0.009-0.29 0.026l0.010-0.001v0.942c0.060 0.008 0.13 0.013 0.202 0.014l0.001 0c0.403 0.001 0.569-0.148 0.569-0.499z"></path>
<path fill="#fff" style="fill: var(--color1, #fff)" d="M52.857 30.364c0-0.54 0.388-0.895 0.834-0.895s0.69 0.233 0.69 0.862h-1.167c0.010 0.514 0.249 0.737 0.588 0.737 0.2-0.001 0.387-0.054 0.55-0.145l-0.006 0.003v0.134c-0.18 0.139-0.408 0.223-0.656 0.223h-0c-0.559 0-0.833-0.372-0.833-0.919zM53.218 30.189l0.784-0.041c0-0.388-0.063-0.538-0.324-0.538s-0.433 0.179-0.461 0.579z"></path>
<path fill="#fff" style="fill: var(--color1, #fff)" d="M54.506 31.594c0-0.166 0.148-0.314 0.388-0.398v-0.014c-0.128-0.033-0.222-0.145-0.227-0.28v-0c0-0.186 0.149-0.304 0.26-0.382v-0.017c-0.168-0.083-0.282-0.25-0.288-0.445v-0.001c0-0.398 0.347-0.588 0.67-0.588 0.005-0 0.011-0 0.017-0 0.123 0 0.241 0.025 0.348 0.070l-0.006-0.002c0.112-0.103 0.258-0.17 0.42-0.183l0.002-0c0.105 0 0.187 0.055 0.187 0.159 0.001 0.005 0.001 0.010 0.001 0.015 0 0.080-0.063 0.146-0.142 0.15l-0 0c-0.004 0-0.008 0-0.012 0-0.065 0-0.12-0.042-0.139-0.1l-0-0.001c-0.020-0.051-0.142-0.010-0.23 0.037v0.016c0.138 0.077 0.231 0.222 0.231 0.389 0 0.005-0 0.009-0 0.014l0-0.001c0 0.398-0.349 0.574-0.672 0.574-0.007 0-0.016 0-0.024 0-0.087 0-0.169-0.019-0.243-0.053l0.004 0.002c-0.068 0.038-0.115 0.105-0.124 0.184l-0 0.001c0 0.085 0.068 0.156 0.213 0.156h0.534c0.291 0 0.491 0.095 0.491 0.43 0 0.264-0.219 0.676-0.926 0.676-0.454-0.006-0.728-0.168-0.728-0.408zM55.915 31.462c0-0.152-0.061-0.26-0.304-0.26h-0.52c-0.151 0.044-0.261 0.177-0.27 0.336l-0 0.001c0 0.207 0.152 0.317 0.477 0.317s0.617-0.172 0.617-0.395zM55.637 30.070c0-0.331-0.115-0.463-0.327-0.463s-0.325 0.125-0.325 0.412c0 0.327 0.115 0.446 0.325 0.446s0.327-0.105 0.327-0.395z"></path>
<path fill="#fff" style="fill: var(--color1, #fff)" d="M56.33 31.141l0.138-0.037c0.068-0.017 0.091-0.044 0.091-0.176v-1.048c0-0.134-0.017-0.142-0.101-0.182l-0.124-0.065v-0.088l0.558-0.071 0.034 0.020c-0.015 0.103-0.024 0.223-0.024 0.344 0 0.010 0 0.020 0 0.031v-0.002 1.055c0 0.142 0.020 0.159 0.088 0.176l0.138 0.037v0.101h-0.794zM56.485 28.947c0-0.126 0.102-0.228 0.228-0.228s0.228 0.102 0.228 0.228v0c0 0.126-0.102 0.228-0.228 0.228s-0.228-0.102-0.228-0.228v0z"></path>
<path fill="#fff" style="fill: var(--color1, #fff)" d="M57.35 31.208l-0.017-0.498h0.108c0.041 0.116 0.096 0.217 0.164 0.307l-0.002-0.003c0.062 0.077 0.156 0.126 0.262 0.126 0.011 0 0.022-0.001 0.033-0.002l-0.001 0c0.207 0 0.351-0.101 0.351-0.278s-0.124-0.249-0.398-0.365-0.498-0.256-0.498-0.52c0-0.314 0.28-0.507 0.635-0.507 0.016-0.001 0.034-0.001 0.052-0.001 0.139 0 0.274 0.023 0.399 0.065l-0.009-0.003 0.014 0.453h-0.101c-0.053-0.107-0.11-0.199-0.176-0.284l0.003 0.004c-0.046-0.057-0.116-0.093-0.194-0.093-0.010 0-0.020 0.001-0.030 0.002l0.001-0c-0.223 0-0.321 0.098-0.321 0.27 0 0.125 0.112 0.22 0.396 0.327 0.317 0.125 0.527 0.249 0.527 0.514 0 0.317-0.26 0.561-0.682 0.561-0.009 0-0.021 0-0.032 0-0.173 0-0.338-0.028-0.493-0.081l0.011 0.003z"></path>
<path fill="#fff" style="fill: var(--color1, #fff)" d="M58.928 30.928v-1.228h-0.237v-0.098c0.233-0.064 0.351-0.223 0.442-0.498h0.128v0.416h0.487l-0.045 0.179h-0.442v1.177c0 0.146 0.075 0.209 0.23 0.209 0.096-0.003 0.187-0.021 0.273-0.049l-0.007 0.002v0.108c-0.112 0.085-0.254 0.137-0.407 0.137-0.012 0-0.024-0-0.036-0.001l0.002 0c-0.209 0.001-0.388-0.097-0.388-0.354z"></path>
<path fill="#fff" style="fill: var(--color1, #fff)" d="M59.904 30.364c0-0.54 0.388-0.895 0.834-0.895s0.69 0.233 0.69 0.862h-1.17c0.010 0.514 0.249 0.737 0.588 0.737 0.2-0.001 0.387-0.054 0.55-0.145l-0.006 0.003v0.134c-0.18 0.139-0.408 0.223-0.656 0.223h-0c-0.555 0-0.829-0.372-0.829-0.919zM60.265 30.189l0.784-0.041c0-0.388-0.063-0.538-0.324-0.538s-0.433 0.179-0.461 0.579z"></path>
<path fill="#fff" style="fill: var(--color1, #fff)" d="M61.627 31.141l0.138-0.037c0.068-0.017 0.091-0.044 0.091-0.176v-1.048c0-0.134-0.017-0.142-0.101-0.182l-0.124-0.065v-0.088l0.534-0.071 0.034 0.027-0.017 0.195h0.014c0.129-0.129 0.302-0.213 0.495-0.23l0.003-0c0.008-0.001 0.017-0.002 0.026-0.002 0.109 0 0.197 0.088 0.197 0.197 0 0.003-0 0.006-0 0.008v-0c0 0.004 0.001 0.009 0.001 0.014 0 0.097-0.079 0.176-0.176 0.176-0.003 0-0.006-0-0.008-0h0c-0.124 0-0.162-0.034-0.192-0.108-0.020-0.047-0.045-0.057-0.077-0.057-0.105 0.022-0.195 0.075-0.264 0.148l-0 0v1.084c0 0.142 0.020 0.162 0.088 0.176l0.172 0.037v0.101h-0.833z"></path>
</symbol>
<symbol id="icon-logo-main" viewBox="0 0 127 32">
<title>logo-main</title>
<path fill="#fff" style="fill: var(--color1, #fff)" d="M7.101 5.622c0-2.040-0.666-2.894-1.854-2.894s-1.854 0.854-1.854 2.894v2.331c0 2.042 0.666 2.894 1.854 2.894s1.854-0.852 1.854-2.894zM10.495 7.246c0 3.767-1.687 6.33-5.248 6.33s-5.248-2.561-5.248-6.33v-0.916c0-3.769 1.687-6.33 5.248-6.33s5.248 2.561 5.248 6.33zM17.785 6.497c1.19 0 1.77-0.478 1.77-1.812s-0.583-1.832-1.77-1.832h-1.209v3.644zM16.576 13.348h-3.269v-13.118h4.77c3.122 0 4.643 1.604 4.643 4.435 0 2.869-1.521 4.455-4.643 4.455h-1.501z"></path>
<path fill="#fff" style="fill: var(--color1, #fff)" d="M33.59 13.348h-8.287v-13.118h8.245v2.706h-5.018v2.437h3.747v2.665h-3.747v2.603h5.059v2.708z"></path>
<path fill="#fff" style="fill: var(--color1, #fff)" d="M43.233 7.101h0.083v-6.871h2.998v13.118h-2.518l-4.249-7.476h-0.083v7.476h-3.019v-13.118h3.081l3.707 6.871z"></path>
<path fill="#fff" style="fill: var(--color1, #fff)" d="M7.101 24.046c0-2.040-0.666-2.895-1.854-2.895s-1.854 0.852-1.854 2.895v2.322c0 2.040 0.666 2.895 1.854 2.895s1.854-0.852 1.854-2.895zM10.495 25.67c0 3.767-1.687 6.33-5.248 6.33s-5.248-2.561-5.248-6.33v-0.916c0-3.767 1.687-6.33 5.248-6.33s5.248 2.561 5.248 6.33z"></path>
<path fill="#fff" style="fill: var(--color1, #fff)" d="M21.179 18.652l1.249 7.643h0.083l1.374-7.643h3.061l-2.665 13.12h-3.228l-1.437-8.414h-0.083l-1.437 8.414h-3.228l-2.665-13.12h3.269l1.312 7.643h0.081l1.312-7.643h3z"></path>
<path fill="#fff" style="fill: var(--color1, #fff)" d="M36.090 25.523h0.083v-6.871h2.998v13.118h-2.518l-4.249-7.474h-0.083v7.474h-3.019v-13.118h3.081l3.707 6.871z"></path>
<path fill="#fff" style="fill: var(--color1, #fff)" d="M50.604 31.772h-8.287v-13.12h8.245v2.706h-5.018v2.439h3.749v2.665h-3.749v2.603h5.059v2.708z"></path>
<path fill="#fff" style="fill: var(--color1, #fff)" d="M58.124 24.649c1.229 0 1.832-0.521 1.832-1.665 0-1.063-0.595-1.707-1.832-1.707h-1.437v3.37zM59.956 31.77c-0.25-0.521-0.397-1.271-0.48-2.833-0.061-1.207-0.416-1.749-1.479-1.749h-1.312v4.582h-3.226v-13.118h4.79c3.352 0 4.915 1.586 4.915 4.124 0 1.832-1.082 2.956-2.27 3.249 1.166 0.375 1.645 1.124 1.77 2.776 0.147 1.784 0.23 2.417 0.595 2.974zM69.973 18.422c3.124 0 4.748 1.81 4.748 4.435v0.339h-2.916v-0.208c0-1.249-0.583-2.062-1.854-2.062-0.854 0-1.374 0.5-1.374 1.249 0 0.595 0.355 0.979 1.041 1.207l1.937 0.646c2.123 0.708 3.37 1.749 3.37 3.852 0 2.686-1.983 4.124-4.623 4.124-3.172 0-4.956-1.749-4.956-4.413v-0.291h2.936v0.188c0 1.249 0.688 2.020 2 2.020 0.896 0 1.457-0.458 1.457-1.207 0-0.686-0.375-1.021-1.166-1.271l-2-0.625c-1.77-0.563-3.103-1.562-3.103-3.852 0-2.437 1.749-4.124 4.498-4.124z"></path>
<path fill="#fff" style="fill: var(--color1, #fff)" d="M77.638 31.772v-13.12h3.289v5.145h3.749v-5.145h3.289v13.12h-3.289v-5.311h-3.749v5.311h-3.289z"></path>
<path fill="#fff" style="fill: var(--color1, #fff)" d="M91.111 31.772h3.291v-13.12h-3.291v13.12z"></path>
<path fill="#fff" style="fill: var(--color1, #fff)" d="M102.023 24.92c1.19 0 1.77-0.48 1.77-1.812s-0.583-1.834-1.77-1.834h-1.207v3.646zM100.816 31.772h-3.275v-13.12h4.768c3.124 0 4.643 1.604 4.643 4.435 0 2.875-1.521 4.457-4.643 4.457h-1.499z"></path>
<path fill="#3c31d4" style="fill: var(--color2, #3c31d4)" d="M125.365 12.226l-1.529-0.902h-2.92v-0.817h1.529l-1.529-0.902v-0.793h5.965v0.793h-4.578l1.574 0.902h3.004v0.821h-1.572l1.572 0.898v0.894h-5.965v-0.894zM119.911 3.592l6.971-0.9v-0.896h-13.122v0.894h6.58l-6.586 0.902v0.793h13.128v-0.793zM113.765 0.894h13.116v-0.894h-13.122zM113.765 6.11h13.116v-0.821h-13.122zM120.922 7.906h5.959v-0.894h-5.965z"></path>
</symbol>
</defs>
</svg>
