<svg aria-hidden="true" style="position: absolute; width: 0; height: 0; overflow: hidden;" version="1.1" xmlns="http://www.w3.org/2000/svg" xmlns:xlink="http://www.w3.org/1999/xlink">
<defs>
<symbol id="icon-twitter" viewBox="0 0 26 28">
<title>twitter</title>
<path d="M25.312 6.375c-0.688 1-1.547 1.891-2.531 2.609 0.016 0.219 0.016 0.438 0.016 0.656 0 6.672-5.078 14.359-14.359 14.359-2.859 0-5.516-0.828-7.75-2.266 0.406 0.047 0.797 0.063 1.219 0.063 2.359 0 4.531-0.797 6.266-2.156-2.219-0.047-4.078-1.5-4.719-3.5 0.313 0.047 0.625 0.078 0.953 0.078 0.453 0 0.906-0.063 1.328-0.172-2.312-0.469-4.047-2.5-4.047-4.953v-0.063c0.672 0.375 1.453 0.609 2.281 0.641-1.359-0.906-2.25-2.453-2.25-4.203 0-0.938 0.25-1.797 0.688-2.547 2.484 3.062 6.219 5.063 10.406 5.281-0.078-0.375-0.125-0.766-0.125-1.156 0-2.781 2.25-5.047 5.047-5.047 1.453 0 2.766 0.609 3.687 1.594 1.141-0.219 2.234-0.641 3.203-1.219-0.375 1.172-1.172 2.156-2.219 2.781 1.016-0.109 2-0.391 2.906-0.781z"></path>
</symbol>
<symbol id="icon-github" viewBox="0 0 24 28">
<title>github</title>
<path d="M12 2c6.625 0 12 5.375 12 12 0 5.297-3.437 9.797-8.203 11.391-0.609 0.109-0.828-0.266-0.828-0.578 0-0.391 0.016-1.687 0.016-3.297 0-1.125-0.375-1.844-0.812-2.219 2.672-0.297 5.484-1.313 5.484-5.922 0-1.313-0.469-2.375-1.234-3.219 0.125-0.313 0.531-1.531-0.125-3.187-1-0.313-3.297 1.234-3.297 1.234-0.953-0.266-1.984-0.406-3-0.406s-2.047 0.141-3 0.406c0 0-2.297-1.547-3.297-1.234-0.656 1.656-0.25 2.875-0.125 3.187-0.766 0.844-1.234 1.906-1.234 3.219 0 4.594 2.797 5.625 5.469 5.922-0.344 0.313-0.656 0.844-0.766 1.609-0.688 0.313-2.438 0.844-3.484-1-0.656-1.141-1.844-1.234-1.844-1.234-1.172-0.016-0.078 0.734-0.078 0.734 0.781 0.359 1.328 1.75 1.328 1.75 0.703 2.141 4.047 1.422 4.047 1.422 0 1 0.016 1.937 0.016 2.234 0 0.313-0.219 0.688-0.828 0.578-4.766-1.594-8.203-6.094-8.203-11.391 0-6.625 5.375-12 12-12zM4.547 19.234c0.031-0.063-0.016-0.141-0.109-0.187-0.094-0.031-0.172-0.016-0.203 0.031-0.031 0.063 0.016 0.141 0.109 0.187 0.078 0.047 0.172 0.031 0.203-0.031zM5.031 19.766c0.063-0.047 0.047-0.156-0.031-0.25-0.078-0.078-0.187-0.109-0.25-0.047-0.063 0.047-0.047 0.156 0.031 0.25 0.078 0.078 0.187 0.109 0.25 0.047zM5.5 20.469c0.078-0.063 0.078-0.187 0-0.297-0.063-0.109-0.187-0.156-0.266-0.094-0.078 0.047-0.078 0.172 0 0.281s0.203 0.156 0.266 0.109zM6.156 21.125c0.063-0.063 0.031-0.203-0.063-0.297-0.109-0.109-0.25-0.125-0.313-0.047-0.078 0.063-0.047 0.203 0.063 0.297 0.109 0.109 0.25 0.125 0.313 0.047zM7.047 21.516c0.031-0.094-0.063-0.203-0.203-0.25-0.125-0.031-0.266 0.016-0.297 0.109s0.063 0.203 0.203 0.234c0.125 0.047 0.266 0 0.297-0.094zM8.031 21.594c0-0.109-0.125-0.187-0.266-0.172-0.141 0-0.25 0.078-0.25 0.172 0 0.109 0.109 0.187 0.266 0.172 0.141 0 0.25-0.078 0.25-0.172zM8.937 21.438c-0.016-0.094-0.141-0.156-0.281-0.141-0.141 0.031-0.234 0.125-0.219 0.234 0.016 0.094 0.141 0.156 0.281 0.125s0.234-0.125 0.219-0.219z"></path>
</symbol>
<symbol id="icon-linkedin" viewBox="0 0 24 28">
<title>linkedin</title>
<path d="M5.453 9.766v15.484h-5.156v-15.484h5.156zM5.781 4.984c0.016 1.484-1.109 2.672-2.906 2.672v0h-0.031c-1.734 0-2.844-1.188-2.844-2.672 0-1.516 1.156-2.672 2.906-2.672 1.766 0 2.859 1.156 2.875 2.672zM24 16.375v8.875h-5.141v-8.281c0-2.078-0.75-3.5-2.609-3.5-1.422 0-2.266 0.953-2.641 1.875-0.125 0.344-0.172 0.797-0.172 1.266v8.641h-5.141c0.063-14.031 0-15.484 0-15.484h5.141v2.25h-0.031c0.672-1.062 1.891-2.609 4.672-2.609 3.391 0 5.922 2.219 5.922 6.969z"></path>
</symbol>
<symbol id="icon-instagram" viewBox="0 0 24 28">
<title>instagram</title>
<path d="M16 14c0-2.203-1.797-4-4-4s-4 1.797-4 4 1.797 4 4 4 4-1.797 4-4zM18.156 14c0 3.406-2.75 6.156-6.156 6.156s-6.156-2.75-6.156-6.156 2.75-6.156 6.156-6.156 6.156 2.75 6.156 6.156zM19.844 7.594c0 0.797-0.641 1.437-1.437 1.437s-1.437-0.641-1.437-1.437 0.641-1.437 1.437-1.437 1.437 0.641 1.437 1.437zM12 4.156c-1.75 0-5.5-0.141-7.078 0.484-0.547 0.219-0.953 0.484-1.375 0.906s-0.688 0.828-0.906 1.375c-0.625 1.578-0.484 5.328-0.484 7.078s-0.141 5.5 0.484 7.078c0.219 0.547 0.484 0.953 0.906 1.375s0.828 0.688 1.375 0.906c1.578 0.625 5.328 0.484 7.078 0.484s5.5 0.141 7.078-0.484c0.547-0.219 0.953-0.484 1.375-0.906s0.688-0.828 0.906-1.375c0.625-1.578 0.484-5.328 0.484-7.078s0.141-5.5-0.484-7.078c-0.219-0.547-0.484-0.953-0.906-1.375s-0.828-0.688-1.375-0.906c-1.578-0.625-5.328-0.484-7.078-0.484zM24 14c0 1.656 0.016 3.297-0.078 4.953-0.094 1.922-0.531 3.625-1.937 5.031s-3.109 1.844-5.031 1.937c-1.656 0.094-3.297 0.078-4.953 0.078s-3.297 0.016-4.953-0.078c-1.922-0.094-3.625-0.531-5.031-1.937s-1.844-3.109-1.937-5.031c-0.094-1.656-0.078-3.297-0.078-4.953s-0.016-3.297 0.078-4.953c0.094-1.922 0.531-3.625 1.937-5.031s3.109-1.844 5.031-1.937c1.656-0.094 3.297-0.078 4.953-0.078s3.297-0.016 4.953 0.078c1.922 0.094 3.625 0.531 5.031 1.937s1.844 3.109 1.937 5.031c0.094 1.656 0.078 3.297 0.078 4.953z"></path>
</symbol>
<symbol id="icon-medium" viewBox="0 0 28 28">
<title>medium</title>
<path d="M9.328 6.578v18.328c0 0.484-0.234 0.938-0.766 0.938-0.187 0-0.359-0.047-0.516-0.125l-7.266-3.641c-0.438-0.219-0.781-0.781-0.781-1.25v-17.813c0-0.391 0.187-0.75 0.609-0.75 0.25 0 0.469 0.125 0.688 0.234l7.984 4c0.016 0.016 0.047 0.063 0.047 0.078zM10.328 8.156l8.344 13.531-8.344-4.156v-9.375zM28 8.437v16.469c0 0.516-0.297 0.875-0.812 0.875-0.266 0-0.516-0.078-0.734-0.203l-6.891-3.437zM27.953 6.563c0 0.063-8.078 13.172-8.703 14.172l-6.094-9.906 5.063-8.234c0.172-0.281 0.484-0.438 0.812-0.438 0.141 0 0.281 0.031 0.406 0.094l8.453 4.219c0.031 0.016 0.063 0.047 0.063 0.094z"></path>
</symbol>
<symbol id="icon-arrow-left" viewBox="0 0 24 24">
<title>arrow-left</title>
<path d="M19 11h-11.6l5.3-5.3c0.4-0.4 0.4-1 0-1.4s-1-0.4-1.4 0l-7 7c-0.1 0.1-0.2 0.2-0.2 0.3-0.1 0.2-0.1 0.5 0 0.8 0.1 0.1 0.1 0.2 0.2 0.3l7 7c0.2 0.2 0.5 0.3 0.7 0.3s0.5-0.1 0.7-0.3c0.4-0.4 0.4-1 0-1.4l-5.3-5.3h11.6c0.6 0 1-0.4 1-1s-0.4-1-1-1z"></path>
</symbol>
<symbol id="icon-arrow-right" viewBox="0 0 24 24">
<title>arrow-right</title>
<path d="M19.9 12.4c0.1-0.2 0.1-0.5 0-0.8-0.1-0.1-0.1-0.2-0.2-0.3l-7-7c-0.4-0.4-1-0.4-1.4 0s-0.4 1 0 1.4l5.3 5.3h-11.6c-0.6 0-1 0.4-1 1s0.4 1 1 1h11.6l-5.3 5.3c-0.4 0.4-0.4 1 0 1.4 0.2 0.2 0.5 0.3 0.7 0.3s0.5-0.1 0.7-0.3l7-7c0.1-0.1 0.2-0.2 0.2-0.3z"></path>
</symbol>
<symbol id="icon-user" viewBox="0 0 24 24">
<title>user</title>
<path d="M16 14h-8c-2.8 0-5 2.2-5 5v2c0 0.6 0.4 1 1 1s1-0.4 1-1v-2c0-1.7 1.3-3 3-3h8c1.7 0 3 1.3 3 3v2c0 0.6 0.4 1 1 1s1-0.4 1-1v-2c0-2.8-2.2-5-5-5z"></path>
<path d="M12 12c2.8 0 5-2.2 5-5s-2.2-5-5-5-5 2.2-5 5 2.2 5 5 5zM12 4c1.7 0 3 1.3 3 3s-1.3 3-3 3-3-1.3-3-3 1.3-3 3-3z"></path>
</symbol>
<symbol id="icon-external" viewBox="0 0 37 32">
<title>external</title>
<path d="M25.239 23.793v0c-0.387 0-0.75 0.15-1.023 0.424-4.872 4.872-12.799 4.871-17.671 0s-4.872-12.799 0-17.671 12.799-4.871 17.671-0c0.547 0.548 1.5 0.547 2.045 0 0.274-0.273 0.425-0.637 0.425-1.023s-0.151-0.75-0.424-1.023c-2.902-2.902-6.766-4.5-10.881-4.5s-7.979 1.599-10.881 4.5c-2.902 2.902-4.5 6.766-4.5 10.881s1.599 7.979 4.5 10.882c2.902 2.902 6.766 4.499 10.881 4.499s7.978-1.598 10.881-4.5c0.274-0.274 0.424-0.637 0.424-1.024s-0.151-0.75-0.424-1.023c-0.274-0.273-0.637-0.424-1.023-0.424z"></path>
<path d="M36.3 14.578c-0.055-0.083-0.116-0.157-0.182-0.222l-4.927-4.928c-0.547-0.546-1.499-0.546-2.046 0-0.273 0.274-0.424 0.637-0.424 1.024s0.151 0.749 0.424 1.023l2.46 2.459h-16.224c-0.798 0-1.447 0.649-1.447 1.447s0.649 1.447 1.447 1.447h16.224l-2.46 2.46c-0.273 0.274-0.424 0.637-0.424 1.023s0.151 0.75 0.424 1.022c0.273 0.274 0.637 0.424 1.023 0.424s0.75-0.15 1.023-0.424l4.929-4.929c0.487-0.487 0.562-1.255 0.18-1.825z"></path>
</symbol>
<symbol id="icon-logo-strapline" viewBox="0 0 80 32">
<title>logo-strapline</title>
<path fill="#fff" style="fill: var(--color1, #fff)" d="M4.498 3.531c0-1.281-0.418-1.818-1.164-1.818s-1.164 0.537-1.164 1.818v1.464c0 1.282 0.418 1.818 1.164 1.818s1.164-0.535 1.164-1.818zM6.63 4.55c0 2.365-1.059 3.975-3.296 3.975s-3.296-1.609-3.296-3.975v-0.575c0-2.367 1.060-3.975 3.296-3.975s3.296 1.609 3.296 3.975zM11.205 4.080c0.747 0 1.112-0.3 1.112-1.138s-0.365-1.15-1.112-1.15h-0.756v2.288zM10.449 8.383h-2.053v-8.238h2.994c1.961 0 2.916 1.007 2.916 2.785 0 1.802-0.955 2.797-2.916 2.797h-0.941z"></path>
<path fill="#fff" style="fill: var(--color1, #fff)" d="M21.134 8.383h-5.205v-8.238h5.179v1.699h-3.152v1.53h2.354v1.673h-2.354v1.635h3.178v1.701z"></path>
<path fill="#fff" style="fill: var(--color1, #fff)" d="M27.188 4.46h0.052v-4.315h1.884v8.238h-1.582l-2.668-4.695h-0.052v4.695h-1.896v-8.238h1.936l2.327 4.315z"></path>
<path fill="#fff" style="fill: var(--color1, #fff)" d="M4.498 15.101c0-1.281-0.418-1.818-1.164-1.818s-1.164 0.535-1.164 1.818v1.458c0 1.281 0.418 1.818 1.164 1.818s1.164-0.535 1.164-1.818zM6.63 16.12c0 2.365-1.059 3.975-3.296 3.975s-3.296-1.609-3.296-3.975v-0.575c0-2.365 1.060-3.975 3.296-3.975s3.296 1.609 3.296 3.975z"></path>
<path fill="#fff" style="fill: var(--color1, #fff)" d="M13.339 11.713l0.784 4.799h0.052l0.864-4.799h1.921l-1.673 8.239h-2.027l-0.903-5.284h-0.052l-0.903 5.284h-2.026l-1.675-8.239h2.053l0.824 4.799h0.052l0.823-4.799h1.884z"></path>
<path fill="#fff" style="fill: var(--color1, #fff)" d="M22.702 16.028h0.052v-4.315h1.884v8.238h-1.582l-2.668-4.694h-0.052v4.694h-1.896v-8.238h1.936l2.327 4.315z"></path>
<path fill="#fff" style="fill: var(--color1, #fff)" d="M31.818 19.952h-5.205v-8.239h5.179v1.699h-3.151v1.531h2.353v1.673h-2.353v1.635h3.177v1.701z"></path>
<path fill="#fff" style="fill: var(--color1, #fff)" d="M36.539 15.479c0.772 0 1.15-0.327 1.15-1.046 0-0.667-0.373-1.072-1.15-1.072h-0.903v2.117zM37.69 19.951c-0.157-0.327-0.249-0.798-0.301-1.779-0.039-0.758-0.261-1.098-0.929-1.098h-0.824v2.877h-2.021v-8.238h3.008c2.105 0 3.086 0.996 3.086 2.59 0 1.15-0.68 1.856-1.425 2.041 0.732 0.235 1.033 0.706 1.112 1.743 0.092 1.12 0.144 1.518 0.373 1.867zM43.981 11.568c1.962 0 2.982 1.137 2.982 2.785v0.213h-1.831v-0.131c0-0.784-0.366-1.295-1.164-1.295-0.537 0-0.863 0.314-0.863 0.784 0 0.373 0.223 0.615 0.654 0.758l1.216 0.406c1.333 0.444 2.117 1.098 2.117 2.419 0 1.687-1.245 2.59-2.903 2.59-1.992 0-3.112-1.098-3.112-2.771v-0.183h1.844v0.118c0 0.784 0.432 1.269 1.256 1.269 0.563 0 0.915-0.288 0.915-0.758 0-0.431-0.235-0.641-0.732-0.798l-1.256-0.392c-1.112-0.354-1.948-0.981-1.948-2.419 0-1.53 1.098-2.59 2.825-2.59z"></path>
<path fill="#fff" style="fill: var(--color1, #fff)" d="M48.794 19.952v-8.239h2.067v3.231h2.353v-3.231h2.067v8.239h-2.067v-3.335h-2.353v3.335h-2.067z"></path>
<path fill="#fff" style="fill: var(--color1, #fff)" d="M57.256 19.952h2.065v-8.239h-2.065v8.239z"></path>
<path fill="#fff" style="fill: var(--color1, #fff)" d="M64.108 15.65c0.747 0 1.112-0.301 1.112-1.138s-0.366-1.152-1.112-1.152h-0.758v2.29zM63.35 19.952h-2.054v-8.239h2.995c1.962 0 2.916 1.007 2.916 2.785 0 1.805-0.955 2.799-2.916 2.799h-0.941z"></path>
<path fill="#3c31d4" style="fill: var(--color2, #3c31d4)" d="M78.766 7.678l-0.954-0.565h-1.839v-0.514h0.96l-0.96-0.566v-0.498h3.746v0.498h-2.875l0.987 0.566h1.886v0.515h-0.987l0.987 0.566v0.562h-3.745v-0.564zM75.341 2.256l4.377-0.566v-0.562h-8.239v0.562h4.137l-4.136 0.566v0.498h8.241v-0.498zM71.481 0.561h8.241v-0.561h-8.243zM71.481 3.837h8.241v-0.515h-8.243zM75.976 4.965h3.746v-0.561h-3.749z"></path>
<path fill="#fff" style="fill: var(--color1, #fff)" d="M0.517 31.137l0.166-0.030c0.085-0.016 0.108-0.034 0.108-0.203v-1.867h-0.020c-0.349 0-0.388 0-0.491 0.176-0.064 0.116-0.117 0.251-0.153 0.393l-0.003 0.012h-0.124l0.034-0.717h1.882l0.034 0.717h-0.125c-0.039-0.151-0.092-0.284-0.16-0.407l0.004 0.009c-0.101-0.176-0.138-0.176-0.487-0.176h-0.024v1.867c0 0.169 0.014 0.186 0.108 0.203l0.166 0.030v0.105h-0.916z"></path>
<path fill="#fff" style="fill: var(--color1, #fff)" d="M2.105 31.141l0.138-0.037c0.067-0.017 0.091-0.044 0.091-0.176v-1.876c0-0.136-0.024-0.142-0.101-0.179l-0.146-0.067v-0.095l0.574-0.055 0.034 0.027c-0.015 0.116-0.024 0.249-0.024 0.385 0 0.004 0 0.008 0 0.011v-0.001 0.303c-0 0.105-0.006 0.209-0.017 0.311l0.001-0.013h0.014c0.181-0.12 0.399-0.198 0.635-0.213l0.004-0c0.341 0 0.459 0.146 0.459 0.449v1.007c0 0.132 0.027 0.159 0.091 0.176l0.136 0.037v0.101h-0.791v-0.101l0.138-0.037c0.067-0.017 0.088-0.034 0.088-0.176v-0.913c0-0.237-0.077-0.321-0.294-0.321-0.169 0.010-0.327 0.048-0.473 0.108l0.010-0.004v1.129c0 0.142 0.020 0.159 0.088 0.176l0.138 0.037v0.101h-0.794z"></path>
<path fill="#fff" style="fill: var(--color1, #fff)" d="M4.131 30.364c0-0.54 0.388-0.895 0.835-0.895s0.69 0.233 0.69 0.862h-1.167c0.010 0.514 0.249 0.737 0.588 0.737 0.2-0.001 0.387-0.054 0.55-0.145l-0.006 0.003v0.134c-0.18 0.139-0.408 0.223-0.656 0.223-0 0-0 0-0 0v0c-0.56 0-0.834-0.372-0.834-0.919zM4.492 30.189l0.784-0.041c0-0.388-0.064-0.538-0.325-0.538s-0.431 0.179-0.458 0.579z"></path>
<path fill="#fff" style="fill: var(--color1, #fff)" d="M6.749 30.090c0-0.906 0.554-1.23 1.179-1.23 0.023-0.001 0.049-0.001 0.076-0.001 0.213 0 0.42 0.023 0.619 0.068l-0.019-0.004 0.047 0.672h-0.124c-0.052-0.16-0.121-0.299-0.207-0.426l0.004 0.006c-0.077-0.125-0.108-0.156-0.42-0.156-0.507 0-0.774 0.266-0.774 0.987 0 0.784 0.217 1.108 0.763 1.108 0.012 0.001 0.025 0.001 0.039 0.001 0.135 0 0.263-0.029 0.379-0.080l-0.006 0.002v-0.467c0-0.169-0.024-0.183-0.108-0.199l-0.162-0.034v-0.105h0.862v0.105l-0.124 0.027c-0.081 0.020-0.105 0.037-0.105 0.207v0.591c-0.231 0.074-0.496 0.119-0.772 0.124l-0.003 0c-0.695-0.006-1.144-0.381-1.144-1.199z"></path>
<path fill="#fff" style="fill: var(--color1, #fff)" d="M9.034 31.141l0.138-0.037c0.067-0.017 0.091-0.044 0.091-0.176v-1.876c0-0.136-0.024-0.142-0.101-0.179l-0.146-0.067v-0.095l0.574-0.055 0.034 0.027c-0.015 0.116-0.024 0.249-0.024 0.385 0 0.004 0 0.008 0 0.011v-0.001 1.849c0 0.142 0.020 0.159 0.088 0.176l0.138 0.037v0.101h-0.793z"></path>
<path fill="#fff" style="fill: var(--color1, #fff)" d="M10.010 30.378c0-0.591 0.412-0.913 0.855-0.913 0.479 0 0.852 0.294 0.852 0.893s-0.412 0.926-0.852 0.926c-0.484 0.003-0.855-0.305-0.855-0.906zM11.344 30.405c0-0.574-0.162-0.798-0.498-0.798-0.304 0-0.469 0.217-0.469 0.723 0 0.574 0.166 0.808 0.498 0.808 0.307 0.003 0.469-0.224 0.469-0.731z"></path>
<path fill="#fff" style="fill: var(--color1, #fff)" d="M12.066 31.158v-2.107c0-0.136-0.024-0.142-0.098-0.179l-0.141-0.067v-0.095l0.571-0.055 0.034 0.027c-0.015 0.105-0.024 0.226-0.024 0.349 0 0.016 0 0.033 0 0.049l-0-0.002v0.303c0 0.152-0.014 0.284-0.014 0.284h0.014c0.162-0.121 0.366-0.195 0.587-0.199h0.001c0.327 0 0.68 0.186 0.68 0.828s-0.406 0.984-0.966 0.984c-0.025 0.002-0.054 0.003-0.083 0.003-0.203 0-0.396-0.045-0.569-0.126l0.008 0.003zM13.311 30.368c0-0.459-0.195-0.682-0.487-0.682-0.009-0-0.019-0.001-0.030-0.001-0.147 0-0.284 0.043-0.399 0.117l0.003-0.002v1.216c0.082 0.072 0.191 0.115 0.31 0.115 0.010 0 0.020-0 0.030-0.001l-0.001 0c0.393 0 0.584-0.203 0.584-0.764z"></path>
<path fill="#fff" style="fill: var(--color1, #fff)" d="M13.888 30.837c0-0.278 0.199-0.416 0.591-0.507l0.396-0.088v-0.314c0-0.227-0.034-0.327-0.321-0.327-0.148 0-0.173 0.034-0.185 0.136-0.017 0.125-0.051 0.227-0.203 0.227-0.007 0.001-0.015 0.002-0.023 0.002-0.087 0-0.157-0.070-0.157-0.157 0-0.005 0-0.010 0.001-0.015l-0 0.001c0-0.223 0.355-0.325 0.639-0.325 0.406 0 0.588 0.148 0.588 0.439v0.996c-0.001 0.007-0.002 0.016-0.002 0.025 0 0.066 0.037 0.122 0.092 0.151l0.001 0c0.046 0.020 0.099 0.031 0.155 0.031 0.004 0 0.007-0 0.011-0h-0.001v0.095c-0.085 0.049-0.187 0.077-0.295 0.077-0.001 0-0.002 0-0.003 0h0c-0.173 0-0.264-0.085-0.284-0.195h-0.017c-0.111 0.123-0.271 0.2-0.449 0.2-0.007 0-0.014-0-0.021-0l0.001 0c-0.314 0-0.513-0.162-0.513-0.449zM14.875 30.936v-0.52l-0.26 0.027c-0.249 0.024-0.382 0.115-0.382 0.373 0 0.195 0.124 0.284 0.314 0.284 0.005 0 0.011 0 0.018 0 0.128 0 0.242-0.065 0.309-0.163l0.001-0.001z"></path>
<path fill="#fff" style="fill: var(--color1, #fff)" d="M15.603 31.141l0.138-0.037c0.067-0.017 0.091-0.044 0.091-0.176v-1.876c0-0.136-0.024-0.142-0.101-0.179l-0.146-0.067v-0.095l0.574-0.055 0.034 0.027c-0.015 0.116-0.024 0.249-0.024 0.385 0 0.004 0 0.008 0 0.011v-0.001 1.849c0 0.142 0.020 0.159 0.088 0.176l0.138 0.037v0.101h-0.794z"></path>
<path fill="#fff" style="fill: var(--color1, #fff)" d="M17.417 31.137l0.152-0.030c0.081-0.014 0.108-0.034 0.108-0.203v-1.67c0-0.169-0.027-0.186-0.108-0.203l-0.152-0.030v-0.101h0.929c0.507 0 0.832 0.156 0.832 0.552 0 0.317-0.207 0.483-0.575 0.548v0.014c0.459 0.037 0.7 0.223 0.7 0.571 0 0.43-0.349 0.659-0.872 0.659h-1.013zM18.336 29.951c0.298 0 0.469-0.159 0.469-0.433 0-0.373-0.152-0.469-0.491-0.469-0.009-0-0.019-0-0.029-0-0.085 0-0.169 0.007-0.25 0.021l0.009-0.001v0.883zM18.911 30.627c0-0.373-0.149-0.528-0.528-0.528h-0.331v0.727c0 0.237 0.037 0.264 0.351 0.264s0.508-0.125 0.508-0.463z"></path>
<path fill="#fff" style="fill: var(--color1, #fff)" d="M19.566 30.364c0-0.54 0.388-0.895 0.835-0.895s0.69 0.233 0.69 0.862h-1.172c0.010 0.514 0.249 0.737 0.588 0.737 0.2-0.001 0.387-0.054 0.55-0.145l-0.006 0.003v0.134c-0.18 0.139-0.408 0.223-0.656 0.223-0 0-0 0-0 0v0c-0.555 0-0.829-0.372-0.829-0.919zM19.927 30.189l0.784-0.041c0-0.388-0.064-0.538-0.325-0.538s-0.432 0.179-0.459 0.579z"></path>
<path fill="#fff" style="fill: var(--color1, #fff)" d="M21.289 31.141l0.138-0.037c0.067-0.017 0.091-0.044 0.091-0.176v-1.048c0-0.134-0.017-0.142-0.101-0.182l-0.125-0.065v-0.088l0.534-0.071 0.034 0.020-0.016 0.189h0.014c0.181-0.12 0.399-0.198 0.635-0.213l0.004-0c0.341 0 0.459 0.146 0.459 0.449v1.007c0 0.132 0.027 0.159 0.091 0.176l0.136 0.037v0.101h-0.791v-0.101l0.138-0.037c0.067-0.017 0.088-0.034 0.088-0.176v-0.913c0-0.237-0.077-0.321-0.294-0.321-0.169 0.010-0.327 0.048-0.473 0.108l0.010-0.004v1.129c0 0.142 0.020 0.159 0.088 0.176l0.138 0.037v0.101h-0.799z"></path>
<path fill="#fff" style="fill: var(--color1, #fff)" d="M23.363 30.364c0-0.54 0.388-0.895 0.835-0.895s0.69 0.233 0.69 0.862h-1.167c0.010 0.514 0.249 0.737 0.588 0.737 0.2-0.001 0.387-0.054 0.55-0.145l-0.006 0.003v0.134c-0.18 0.139-0.408 0.223-0.656 0.223-0 0-0 0-0 0v0c-0.56 0-0.834-0.372-0.834-0.919zM23.725 30.189l0.784-0.041c0-0.388-0.064-0.538-0.325-0.538s-0.432 0.179-0.459 0.579z"></path>
<path fill="#fff" style="fill: var(--color1, #fff)" d="M25.653 29.522h0.622l0.365-0.047 0.037 0.020c-0.010 0.092-0.016 0.198-0.016 0.306 0 0.002 0 0.004 0 0.006v-0 1.12c0 0.142 0.020 0.159 0.088 0.176l0.138 0.037v0.101h-0.784v-0.101l0.125-0.037c0.065-0.017 0.091-0.044 0.091-0.176v-1.047c0-0.134-0.047-0.179-0.134-0.179h-0.534v1.21c0 0.159 0.014 0.173 0.088 0.193l0.138 0.037v0.101h-0.794v-0.101l0.138-0.037c0.067-0.017 0.091-0.044 0.091-0.176v-1.228h-0.24v-0.101l0.24-0.081v-0.137c0-0.469 0.327-0.733 0.811-0.733 0.27 0 0.388 0.095 0.388 0.213 0.001 0.006 0.001 0.013 0.001 0.020 0 0.092-0.075 0.167-0.167 0.167-0.006 0-0.012-0-0.018-0.001l0.001 0c-0.005 0-0.010 0.001-0.015 0.001-0.106 0-0.192-0.084-0.194-0.19v-0c-0.006-0.055-0.030-0.088-0.095-0.088-0.199 0-0.373 0.081-0.373 0.433z"></path>
<path fill="#fff" style="fill: var(--color1, #fff)" d="M27.072 30.404c0-0.727 0.548-0.936 0.964-0.936 0.325 0 0.477 0.112 0.477 0.284 0 0.002 0 0.004 0 0.006 0 0.113-0.087 0.206-0.199 0.215l-0.001 0c-0.132 0-0.173-0.071-0.189-0.183-0.024-0.152-0.057-0.176-0.176-0.176-0.28 0-0.517 0.183-0.517 0.67 0 0.507 0.203 0.784 0.581 0.784 0.192-0.004 0.371-0.058 0.526-0.148l-0.005 0.003v0.136c-0.177 0.141-0.404 0.227-0.651 0.227-0.004 0-0.008-0-0.012-0h0.001c-0.522-0.001-0.799-0.37-0.799-0.88z"></path>
<path fill="#fff" style="fill: var(--color1, #fff)" d="M28.714 31.141l0.138-0.037c0.067-0.017 0.091-0.044 0.091-0.176v-1.048c0-0.134-0.017-0.142-0.101-0.182l-0.125-0.065v-0.088l0.558-0.071 0.034 0.020c-0.015 0.103-0.024 0.222-0.024 0.343 0 0.011 0 0.022 0 0.032l-0-0.002v1.055c0 0.142 0.020 0.159 0.088 0.176l0.138 0.037v0.101h-0.794zM28.87 28.947c0-0.126 0.102-0.228 0.228-0.228s0.228 0.102 0.228 0.228v0c0 0.126-0.102 0.228-0.228 0.228s-0.228-0.102-0.228-0.228v0z"></path>
<path fill="#fff" style="fill: var(--color1, #fff)" d="M29.663 30.837c0-0.278 0.199-0.416 0.591-0.507l0.396-0.088v-0.314c0-0.227-0.034-0.327-0.321-0.327-0.148 0-0.173 0.034-0.186 0.136-0.017 0.125-0.051 0.227-0.203 0.227-0.009 0.002-0.019 0.003-0.029 0.003-0.087 0-0.157-0.070-0.157-0.157 0-0.006 0-0.012 0.001-0.017l-0 0.001c0-0.223 0.355-0.325 0.639-0.325 0.406 0 0.588 0.148 0.588 0.439v0.996c-0.001 0.007-0.002 0.016-0.002 0.025 0 0.066 0.037 0.122 0.092 0.151l0.001 0c0.046 0.020 0.099 0.031 0.155 0.031 0.004 0 0.007-0 0.011-0h-0.001v0.095c-0.085 0.049-0.187 0.077-0.295 0.077-0.001 0-0.002 0-0.003 0h0c-0.173 0-0.264-0.085-0.284-0.195h-0.017c-0.111 0.123-0.271 0.2-0.449 0.2-0.007 0-0.014-0-0.021-0l0.001 0c-0.308 0.001-0.507-0.161-0.507-0.448zM30.65 30.936v-0.52l-0.26 0.027c-0.249 0.024-0.382 0.115-0.382 0.373 0 0.195 0.125 0.284 0.314 0.284 0.006 0 0.012 0 0.019 0 0.128 0 0.242-0.065 0.309-0.164l0.001-0.001z"></path>
<path fill="#fff" style="fill: var(--color1, #fff)" d="M31.374 31.141l0.138-0.037c0.067-0.017 0.091-0.044 0.091-0.176v-1.876c0-0.136-0.024-0.142-0.101-0.179l-0.146-0.067v-0.095l0.574-0.055 0.034 0.027c-0.015 0.116-0.024 0.249-0.024 0.385 0 0.004 0 0.008 0 0.011v-0.001 1.849c0 0.142 0.020 0.159 0.088 0.176l0.138 0.037v0.101h-0.793z"></path>
<path fill="#fff" style="fill: var(--color1, #fff)" d="M33.22 30.104c0-0.872 0.53-1.245 1.092-1.245 0.591 0 1.058 0.422 1.058 1.196 0 0.872-0.53 1.228-1.092 1.228-0.595 0-1.058-0.407-1.058-1.179zM34.984 30.114c0-0.54-0.152-1.092-0.703-1.092-0.467 0-0.676 0.301-0.676 1.025 0 0.54 0.152 1.072 0.7 1.072 0.467-0.001 0.68-0.281 0.68-1.005z"></path>
<path fill="#fff" style="fill: var(--color1, #fff)" d="M35.764 29.88c-0.055-0.148-0.081-0.193-0.183-0.227l-0.085-0.027v-0.098h0.771v0.098l-0.091 0.024c-0.077 0.020-0.095 0.055-0.095 0.108 0.008 0.065 0.025 0.124 0.049 0.18l-0.002-0.004 0.301 0.92h0.016l0.314-0.899-0.024-0.075c-0.041-0.132-0.088-0.203-0.166-0.227l-0.081-0.027v-0.098h0.72v0.098l-0.095 0.024c-0.063 0.017-0.075 0.055-0.075 0.108 0.006 0.065 0.021 0.124 0.045 0.179l-0.001-0.004 0.317 0.92h0.014l0.294-0.92c0.022-0.053 0.036-0.115 0.041-0.18l0-0.002c0-0.051-0.020-0.085-0.088-0.102l-0.095-0.024v-0.098h0.601v0.098l-0.095 0.027c-0.091 0.024-0.112 0.091-0.173 0.26l-0.477 1.335h-0.198l-0.373-1.084h-0.010l-0.385 1.084h-0.203z"></path>
<path fill="#fff" style="fill: var(--color1, #fff)" d="M38.254 31.141l0.138-0.037c0.067-0.017 0.091-0.044 0.091-0.176v-1.048c0-0.134-0.017-0.142-0.101-0.182l-0.124-0.065v-0.088l0.534-0.071 0.034 0.020-0.016 0.189h0.014c0.181-0.12 0.399-0.198 0.635-0.213l0.004-0c0.341 0 0.459 0.146 0.459 0.449v1.007c0 0.132 0.027 0.159 0.091 0.176l0.136 0.037v0.101h-0.791v-0.101l0.138-0.037c0.067-0.017 0.088-0.034 0.088-0.176v-0.913c0-0.237-0.077-0.321-0.294-0.321-0.169 0.010-0.327 0.048-0.473 0.108l0.010-0.004v1.129c0 0.142 0.020 0.159 0.088 0.176l0.138 0.037v0.101h-0.794z"></path>
<path fill="#fff" style="fill: var(--color1, #fff)" d="M40.328 30.364c0-0.54 0.388-0.895 0.835-0.895s0.69 0.233 0.69 0.862h-1.167c0.010 0.514 0.249 0.737 0.588 0.737 0.2-0.001 0.387-0.054 0.55-0.145l-0.006 0.003v0.134c-0.18 0.139-0.408 0.223-0.656 0.223-0 0-0 0-0 0v0c-0.56 0-0.834-0.372-0.834-0.919zM40.689 30.189l0.784-0.041c0-0.388-0.063-0.538-0.325-0.538s-0.437 0.179-0.458 0.579z"></path>
<path fill="#fff" style="fill: var(--color1, #fff)" d="M42.051 31.141l0.138-0.037c0.067-0.017 0.091-0.044 0.091-0.176v-1.048c0-0.134-0.017-0.142-0.101-0.182l-0.124-0.065v-0.088l0.534-0.071 0.034 0.027-0.016 0.195h0.014c0.129-0.129 0.302-0.213 0.495-0.23l0.003-0c0.008-0.001 0.018-0.002 0.028-0.002 0.108 0 0.195 0.087 0.195 0.195 0 0.003-0 0.007-0 0.010l0-0c0 0.004 0.001 0.009 0.001 0.014 0 0.097-0.079 0.176-0.176 0.176-0.002 0-0.005-0-0.007-0h0c-0.124 0-0.162-0.034-0.193-0.108-0.020-0.047-0.044-0.057-0.077-0.057-0.105 0.022-0.195 0.075-0.264 0.148l-0 0v1.084c0 0.142 0.020 0.162 0.088 0.176l0.173 0.037v0.101h-0.828z"></path>
<path fill="#fff" style="fill: var(--color1, #fff)" d="M43.516 31.208l-0.017-0.498h0.108c0.041 0.116 0.096 0.217 0.164 0.307l-0.002-0.003c0.062 0.077 0.156 0.126 0.261 0.126 0.011 0 0.023-0.001 0.034-0.002l-0.001 0c0.207 0 0.351-0.101 0.351-0.278s-0.124-0.249-0.398-0.365-0.498-0.256-0.498-0.52c0-0.314 0.28-0.507 0.635-0.507 0.016-0.001 0.034-0.001 0.053-0.001 0.139 0 0.274 0.023 0.399 0.065l-0.009-0.003 0.014 0.453h-0.101c-0.053-0.107-0.11-0.199-0.176-0.284l0.003 0.004c-0.046-0.057-0.116-0.093-0.194-0.093-0.010 0-0.020 0.001-0.030 0.002l0.001-0c-0.223 0-0.321 0.098-0.321 0.27 0 0.125 0.112 0.22 0.396 0.327 0.317 0.125 0.528 0.249 0.528 0.514 0 0.317-0.26 0.561-0.684 0.561-0.010 0-0.021 0-0.033 0-0.173 0-0.339-0.028-0.494-0.081l0.011 0.003z"></path>
<path fill="#fff" style="fill: var(--color1, #fff)" d="M44.878 31.141l0.138-0.037c0.067-0.017 0.091-0.044 0.091-0.176v-1.876c0-0.136-0.024-0.142-0.101-0.179l-0.146-0.067v-0.095l0.574-0.055 0.034 0.027c-0.015 0.116-0.024 0.249-0.024 0.385 0 0.004 0 0.008 0 0.011v-0.001 0.303c-0 0.105-0.006 0.209-0.017 0.311l0.001-0.013h0.014c0.181-0.12 0.399-0.198 0.635-0.213l0.004-0c0.341 0 0.459 0.146 0.459 0.449v1.007c0 0.132 0.027 0.159 0.091 0.176l0.136 0.037v0.101h-0.791v-0.101l0.138-0.037c0.067-0.017 0.088-0.034 0.088-0.176v-0.913c0-0.237-0.077-0.321-0.294-0.321-0.169 0.010-0.327 0.048-0.473 0.108l0.010-0.004v1.129c0 0.142 0.020 0.159 0.088 0.176l0.138 0.037v0.101h-0.794z"></path>
<path fill="#fff" style="fill: var(--color1, #fff)" d="M46.875 31.141l0.138-0.037c0.067-0.017 0.091-0.044 0.091-0.176v-1.048c0-0.134-0.017-0.142-0.101-0.182l-0.124-0.065v-0.088l0.558-0.071 0.034 0.020c-0.015 0.103-0.024 0.222-0.024 0.343 0 0.011 0 0.022 0 0.032l-0-0.002v1.055c0 0.142 0.020 0.159 0.088 0.176l0.138 0.037v0.101h-0.794zM47.031 28.947c0-0.126 0.102-0.228 0.228-0.228s0.228 0.102 0.228 0.228v0c0 0.126-0.102 0.228-0.228 0.228s-0.228-0.102-0.228-0.228v0z"></path>
<path fill="#fff" style="fill: var(--color1, #fff)" d="M47.818 31.884l0.138-0.037c0.071-0.017 0.091-0.044 0.091-0.176v-1.792c0-0.134-0.017-0.142-0.101-0.182l-0.124-0.065v-0.088l0.534-0.071 0.034 0.020-0.014 0.176h0.014c0.162-0.121 0.364-0.195 0.584-0.199l0.001-0c0.327 0 0.68 0.186 0.68 0.828s-0.385 0.984-0.974 0.984c-0.108-0.002-0.211-0.017-0.31-0.046l0.008 0.002s0.010 0.101 0.010 0.217v0.217c0 0.142 0.017 0.162 0.088 0.176l0.183 0.037v0.098h-0.838zM49.294 30.367c0-0.459-0.193-0.682-0.528-0.682-0.142 0.004-0.274 0.046-0.385 0.116l0.003-0.002v1.201c0.082 0.077 0.192 0.125 0.314 0.125 0.006 0 0.012-0 0.018-0l-0.001 0c0.39 0.006 0.579-0.197 0.579-0.758z"></path>
<path fill="#fff" style="fill: var(--color1, #fff)" d="M50.728 31.137l0.152-0.030c0.081-0.014 0.108-0.034 0.108-0.203v-1.67c0-0.169-0.027-0.186-0.108-0.203l-0.152-0.030v-0.101h0.984c0.544 0 0.791 0.203 0.791 0.595 0 0.249-0.189 0.483-0.538 0.585v0.010c0.208 0.361 0.41 0.665 0.628 0.956l-0.017-0.024c0.043 0.052 0.105 0.087 0.174 0.095l0.001 0 0.075 0.020v0.105h-0.512c-0.241-0.308-0.463-0.655-0.652-1.021l-0.017-0.037h-0.294v0.72c0 0.169 0.020 0.186 0.115 0.203l0.163 0.030v0.105h-0.899zM52.122 29.529c0-0.412-0.142-0.481-0.453-0.481-0.011-0-0.025-0-0.038-0-0.099 0-0.196 0.009-0.29 0.026l0.010-0.001v0.942c0.060 0.008 0.13 0.013 0.202 0.014l0.001 0c0.403 0.001 0.569-0.148 0.569-0.499z"></path>
<path fill="#fff" style="fill: var(--color1, #fff)" d="M52.857 30.364c0-0.54 0.388-0.895 0.834-0.895s0.69 0.233 0.69 0.862h-1.167c0.010 0.514 0.249 0.737 0.588 0.737 0.2-0.001 0.387-0.054 0.55-0.145l-0.006 0.003v0.134c-0.18 0.139-0.408 0.223-0.656 0.223h-0c-0.559 0-0.833-0.372-0.833-0.919zM53.218 30.189l0.784-0.041c0-0.388-0.063-0.538-0.324-0.538s-0.433 0.179-0.461 0.579z"></path>
<path fill="#fff" style="fill: var(--color1, #fff)" d="M54.506 31.594c0-0.166 0.148-0.314 0.388-0.398v-0.014c-0.128-0.033-0.222-0.145-0.227-0.28v-0c0-0.186 0.149-0.304 0.26-0.382v-0.017c-0.168-0.083-0.282-0.25-0.288-0.445v-0.001c0-0.398 0.347-0.588 0.67-0.588 0.005-0 0.011-0 0.017-0 0.123 0 0.241 0.025 0.348 0.070l-0.006-0.002c0.112-0.103 0.258-0.17 0.42-0.183l0.002-0c0.105 0 0.187 0.055 0.187 0.159 0.001 0.005 0.001 0.010 0.001 0.015 0 0.080-0.063 0.146-0.142 0.15l-0 0c-0.004 0-0.008 0-0.012 0-0.065 0-0.12-0.042-0.139-0.1l-0-0.001c-0.020-0.051-0.142-0.010-0.23 0.037v0.016c0.138 0.077 0.231 0.222 0.231 0.389 0 0.005-0 0.009-0 0.014l0-0.001c0 0.398-0.349 0.574-0.672 0.574-0.007 0-0.016 0-0.024 0-0.087 0-0.169-0.019-0.243-0.053l0.004 0.002c-0.068 0.038-0.115 0.105-0.124 0.184l-0 0.001c0 0.085 0.068 0.156 0.213 0.156h0.534c0.291 0 0.491 0.095 0.491 0.43 0 0.264-0.219 0.676-0.926 0.676-0.454-0.006-0.728-0.168-0.728-0.408zM55.915 31.462c0-0.152-0.061-0.26-0.304-0.26h-0.52c-0.151 0.044-0.261 0.177-0.27 0.336l-0 0.001c0 0.207 0.152 0.317 0.477 0.317s0.617-0.172 0.617-0.395zM55.637 30.070c0-0.331-0.115-0.463-0.327-0.463s-0.325 0.125-0.325 0.412c0 0.327 0.115 0.446 0.325 0.446s0.327-0.105 0.327-0.395z"></path>
<path fill="#fff" style="fill: var(--color1, #fff)" d="M56.33 31.141l0.138-0.037c0.068-0.017 0.091-0.044 0.091-0.176v-1.048c0-0.134-0.017-0.142-0.101-0.182l-0.124-0.065v-0.088l0.558-0.071 0.034 0.020c-0.015 0.103-0.024 0.223-0.024 0.344 0 0.010 0 0.020 0 0.031v-0.002 1.055c0 0.142 0.020 0.159 0.088 0.176l0.138 0.037v0.101h-0.794zM56.485 28.947c0-0.126 0.102-0.228 0.228-0.228s0.228 0.102 0.228 0.228v0c0 0.126-0.102 0.228-0.228 0.228s-0.228-0.102-0.228-0.228v0z"></path>
<path fill="#fff" style="fill: var(--color1, #fff)" d="M57.35 31.208l-0.017-0.498h0.108c0.041 0.116 0.096 0.217 0.164 0.307l-0.002-0.003c0.062 0.077 0.156 0.126 0.262 0.126 0.011 0 0.022-0.001 0.033-0.002l-0.001 0c0.207 0 0.351-0.101 0.351-0.278s-0.124-0.249-0.398-0.365-0.498-0.256-0.498-0.52c0-0.314 0.28-0.507 0.635-0.507 0.016-0.001 0.034-0.001 0.052-0.001 0.139 0 0.274 0.023 0.399 0.065l-0.009-0.003 0.014 0.453h-0.101c-0.053-0.107-0.11-0.199-0.176-0.284l0.003 0.004c-0.046-0.057-0.116-0.093-0.194-0.093-0.010 0-0.020 0.001-0.030 0.002l0.001-0c-0.223 0-0.321 0.098-0.321 0.27 0 0.125 0.112 0.22 0.396 0.327 0.317 0.125 0.527 0.249 0.527 0.514 0 0.317-0.26 0.561-0.682 0.561-0.009 0-0.021 0-0.032 0-0.173 0-0.338-0.028-0.493-0.081l0.011 0.003z"></path>
<path fill="#fff" style="fill: var(--color1, #fff)" d="M58.928 30.928v-1.228h-0.237v-0.098c0.233-0.064 0.351-0.223 0.442-0.498h0.128v0.416h0.487l-0.045 0.179h-0.442v1.177c0 0.146 0.075 0.209 0.23 0.209 0.096-0.003 0.187-0.021 0.273-0.049l-0.007 0.002v0.108c-0.112 0.085-0.254 0.137-0.407 0.137-0.012 0-0.024-0-0.036-0.001l0.002 0c-0.209 0.001-0.388-0.097-0.388-0.354z"></path>
<path fill="#fff" style="fill: var(--color1, #fff)" d="M59.904 30.364c0-0.54 0.388-0.895 0.834-0.895s0.69 0.233 0.69 0.862h-1.17c0.010 0.514 0.249 0.737 0.588 0.737 0.2-0.001 0.387-0.054 0.55-0.145l-0.006 0.003v0.134c-0.18 0.139-0.408 0.223-0.656 0.223h-0c-0.555 0-0.829-0.372-0.829-0.919zM60.265 30.189l0.784-0.041c0-0.388-0.063-0.538-0.324-0.538s-0.433 0.179-0.461 0.579z"></path>
<path fill="#fff" style="fill: var(--color1, #fff)" d="M61.627 31.141l0.138-0.037c0.068-0.017 0.091-0.044 0.091-0.176v-1.048c0-0.134-0.017-0.142-0.101-0.182l-0.124-0.065v-0.088l0.534-0.071 0.034 0.027-0.017 0.195h0.014c0.129-0.129 0.302-0.213 0.495-0.23l0.003-0c0.008-0.001 0.017-0.002 0.026-0.002 0.109 0 0.197 0.088 0.197 0.197 0 0.003-0 0.006-0 0.008v-0c0 0.004 0.001 0.009 0.001 0.014 0 0.097-0.079 0.176-0.176 0.176-0.003 0-0.006-0-0.008-0h0c-0.124 0-0.162-0.034-0.192-0.108-0.020-0.047-0.045-0.057-0.077-0.057-0.105 0.022-0.195 0.075-0.264 0.148l-0 0v1.084c0 0.142 0.020 0.162 0.088 0.176l0.172 0.037v0.101h-0.833z"></path>
</symbol>
<symbol id="icon-logo-main" viewBox="0 0 127 32">
<title>logo-main</title>
<path fill="#fff" style="fill: var(--color1, #fff)" d="M7.101 5.622c0-2.040-0.666-2.894-1.854-2.894s-1.854 0.854-1.854 2.894v2.331c0 2.042 0.666 2.894 1.854 2.894s1.854-0.852 1.854-2.894zM10.495 7.246c0 3.767-1.687 6.33-5.248 6.33s-5.248-2.561-5.248-6.33v-0.916c0-3.769 1.687-6.33 5.248-6.33s5.248 2.561 5.248 6.33zM17.785 6.497c1.19 0 1.77-0.478 1.77-1.812s-0.583-1.832-1.77-1.832h-1.209v3.644zM16.576 13.348h-3.269v-13.118h4.77c3.122 0 4.643 1.604 4.643 4.435 0 2.869-1.521 4.455-4.643 4.455h-1.501z"></path>
<path fill="#fff" style="fill: var(--color1, #fff)" d="M33.59 13.348h-8.287v-13.118h8.245v2.706h-5.018v2.437h3.747v2.665h-3.747v2.603h5.059v2.708z"></path>
<path fill="#fff" style="fill: var(--color1, #fff)" d="M43.233 7.101h0.083v-6.871h2.998v13.118h-2.518l-4.249-7.476h-0.083v7.476h-3.019v-13.118h3.081l3.707 6.871z"></path>
<path fill="#fff" style="fill: var(--color1, #fff)" d="M7.101 24.046c0-2.040-0.666-2.895-1.854-2.895s-1.854 0.852-1.854 2.895v2.322c0 2.040 0.666 2.895 1.854 2.895s1.854-0.852 1.854-2.895zM10.495 25.67c0 3.767-1.687 6.33-5.248 6.33s-5.248-2.561-5.248-6.33v-0.916c0-3.767 1.687-6.33 5.248-6.33s5.248 2.561 5.248 6.33z"></path>
<path fill="#fff" style="fill: var(--color1, #fff)" d="M21.179 18.652l1.249 7.643h0.083l1.374-7.643h3.061l-2.665 13.12h-3.228l-1.437-8.414h-0.083l-1.437 8.414h-3.228l-2.665-13.12h3.269l1.312 7.643h0.081l1.312-7.643h3z"></path>
<path fill="#fff" style="fill: var(--color1, #fff)" d="M36.090 25.523h0.083v-6.871h2.998v13.118h-2.518l-4.249-7.474h-0.083v7.474h-3.019v-13.118h3.081l3.707 6.871z"></path>
<path fill="#fff" style="fill: var(--color1, #fff)" d="M50.604 31.772h-8.287v-13.12h8.245v2.706h-5.018v2.439h3.749v2.665h-3.749v2.603h5.059v2.708z"></path>
<path fill="#fff" style="fill: var(--color1, #fff)" d="M58.124 24.649c1.229 0 1.832-0.521 1.832-1.665 0-1.063-0.595-1.707-1.832-1.707h-1.437v3.37zM59.956 31.77c-0.25-0.521-0.397-1.271-0.48-2.833-0.061-1.207-0.416-1.749-1.479-1.749h-1.312v4.582h-3.226v-13.118h4.79c3.352 0 4.915 1.586 4.915 4.124 0 1.832-1.082 2.956-2.27 3.249 1.166 0.375 1.645 1.124 1.77 2.776 0.147 1.784 0.23 2.417 0.595 2.974zM69.973 18.422c3.124 0 4.748 1.81 4.748 4.435v0.339h-2.916v-0.208c0-1.249-0.583-2.062-1.854-2.062-0.854 0-1.374 0.5-1.374 1.249 0 0.595 0.355 0.979 1.041 1.207l1.937 0.646c2.123 0.708 3.37 1.749 3.37 3.852 0 2.686-1.983 4.124-4.623 4.124-3.172 0-4.956-1.749-4.956-4.413v-0.291h2.936v0.188c0 1.249 0.688 2.020 2 2.020 0.896 0 1.457-0.458 1.457-1.207 0-0.686-0.375-1.021-1.166-1.271l-2-0.625c-1.77-0.563-3.103-1.562-3.103-3.852 0-2.437 1.749-4.124 4.498-4.124z"></path>
<path fill="#fff" style="fill: var(--color1, #fff)" d="M77.638 31.772v-13.12h3.289v5.145h3.749v-5.145h3.289v13.12h-3.289v-5.311h-3.749v5.311h-3.289z"></path>
<path fill="#fff" style="fill: var(--color1, #fff)" d="M91.111 31.772h3.291v-13.12h-3.291v13.12z"></path>
<path fill="#fff" style="fill: var(--color1, #fff)" d="M102.023 24.92c1.19 0 1.77-0.48 1.77-1.812s-0.583-1.834-1.77-1.834h-1.207v3.646zM100.816 31.772h-3.275v-13.12h4.768c3.124 0 4.643 1.604 4.643 4.435 0 2.875-1.521 4.457-4.643 4.457h-1.499z"></path>
<path fill="#3c31d4" style="fill: var(--color2, #3c31d4)" d="M125.365 12.226l-1.529-0.902h-2.92v-0.817h1.529l-1.529-0.902v-0.793h5.965v0.793h-4.578l1.574 0.902h3.004v0.821h-1.572l1.572 0.898v0.894h-5.965v-0.894zM119.911 3.592l6.971-0.9v-0.896h-13.122v0.894h6.58l-6.586 0.902v0.793h13.128v-0.793zM113.765 0.894h13.116v-0.894h-13.122zM113.765 6.11h13.116v-0.821h-13.122zM120.922 7.906h5.959v-0.894h-5.965z"></path>
</symbol>
<symbol id="icon-transparency-international" viewBox="0 0 127 32">
<title>transparency-international</title>
<path d="M49.144 11.668c0.334 0 0.573-0.095 0.765-0.287s0.239-0.43 0.239-0.668c0-0.287-0.096-0.525-0.286-0.668s-0.43-0.239-0.765-0.239h-0.669v1.814h0.717l-0.001 0.048zM47.328 8.898h1.958c0.717 0 1.242 0.143 1.576 0.477s0.525 0.764 0.525 1.289c0 0.382-0.096 0.716-0.334 1.003-0.191 0.287-0.525 0.477-0.86 0.621l1.767 2.292-1.051 0.573-1.72-2.387c-0.096-0.143-0.239-0.191-0.43-0.191h-0.334v2.483h-1.147l0.048-6.16h0.001zM55.259 10.092l-0.813 2.387h1.481l-0.669-2.387zM53.444 15.153l-1.051-0.334 2.389-5.921h1.051l2.198 5.921-1.147 0.334-0.621-1.767h-2.149l-0.669 1.767h-0.002zM58.938 9.089l1.051-0.334 2.866 4.727-0.048-4.632h1.147l-0.096 5.968-1.147 0.334-2.771-4.679-0.048 0.048 0.096 4.536h-1.099c0 0 0.048-5.968 0.048-5.968zM65.816 13.816c0.191 0.095 0.334 0.191 0.525 0.287s0.382 0.095 0.525 0.095c0.287 0 0.525-0.095 0.716-0.239 0.191-0.191 0.239-0.382 0.239-0.621 0-0.334-0.287-0.621-0.908-0.907-0.573-0.287-1.004-0.525-1.242-0.716s-0.382-0.573-0.382-1.194c0-0.525 0.191-0.955 0.573-1.289s0.86-0.525 1.481-0.525c0.287 0 0.573 0.048 0.86 0.143s0.573 0.239 0.86 0.382l-0.478 0.86c-0.287-0.191-0.478-0.287-0.621-0.334s-0.334-0.095-0.525-0.095c-0.287 0-0.525 0.095-0.716 0.239s-0.287 0.334-0.287 0.621c0 0.334 0.334 0.621 0.956 0.955s1.051 0.573 1.29 0.716c0.239 0.191 0.334 0.525 0.334 1.098 0 0.525-0.191 0.955-0.573 1.337-0.382 0.334-0.86 0.525-1.481 0.525-0.573 0-1.147-0.143-1.672-0.477l0.525-0.86zM72.362 11.715c0.334 0 0.573-0.095 0.765-0.239 0.191-0.191 0.287-0.382 0.287-0.668 0-0.239-0.096-0.43-0.239-0.668-0.143-0.191-0.43-0.287-0.813-0.287h-0.621v1.91h0.621c0 0 0-0.048 0-0.048zM70.642 8.898h1.72c0.765 0 1.338 0.143 1.72 0.477s0.525 0.764 0.525 1.385-0.191 1.050-0.621 1.385-0.956 0.477-1.576 0.477h-0.621v2.387h-1.147c0 0 0-6.112 0-6.112zM77.521 10.092l-0.813 2.387h1.481l-0.668-2.387zM75.706 15.153l-1.051-0.287 2.341-5.968h1.051l2.197 5.921-1.099 0.334-0.621-1.767h-2.149l-0.669 1.767zM82.967 11.668c0.334 0 0.573-0.095 0.765-0.287s0.239-0.43 0.239-0.668c0-0.287-0.096-0.525-0.287-0.668s-0.43-0.239-0.765-0.239h-0.668v1.814h0.716c0 0 0 0.048 0 0.048zM81.152 8.898h1.958c0.716 0 1.242 0.143 1.576 0.477s0.525 0.764 0.525 1.289c0 0.382-0.096 0.716-0.334 1.003-0.191 0.287-0.525 0.477-0.86 0.621l1.767 2.292-1.004 0.621-1.72-2.34c-0.096-0.143-0.239-0.191-0.43-0.191h-0.334v2.483h-1.147l0.001-6.255zM87.028 8.898h3.296v0.955h-2.149l-0.048 1.576h2.149v0.955h-2.149v1.671h2.197v1.003h-3.344c0 0 0.048-6.16 0.048-6.16zM91.9 9.089l1.051-0.334 2.866 4.727-0.048-4.632h1.147l-0.048 5.968-1.194 0.334-2.771-4.679v0.048l0.096 4.536h-1.147c0 0 0.048-5.968 0.048-5.968zM103.175 14.533c-0.287 0.191-0.573 0.334-0.908 0.43s-0.668 0.143-1.051 0.143c-0.908 0-1.672-0.287-2.293-0.907-0.621-0.573-0.908-1.337-0.908-2.292s0.287-1.719 0.86-2.292c0.573-0.621 1.338-0.907 2.246-0.907 0.765 0 1.433 0.239 2.006 0.716l-0.478 0.86c-0.191-0.191-0.43-0.334-0.668-0.43-0.287-0.095-0.525-0.143-0.813-0.143-0.573 0-1.051 0.191-1.433 0.621s-0.573 0.955-0.573 1.576c0 0.621 0.191 1.146 0.573 1.576s0.86 0.668 1.385 0.668c0.334 0 0.621-0.048 0.86-0.095s0.43-0.143 0.668-0.287l0.526 0.764zM106.041 12.479l-2.006-3.151 1.004-0.573 1.624 2.626 1.672-2.626 1.004 0.573-2.102 3.104-0.048 2.626h-1.194l0.047-2.578zM43.364 16.633h1.147l-0.048 6.112h-1.147c0 0 0.048-6.112 0.048-6.112zM45.656 16.824l1.051-0.334 2.866 4.727-0.048-4.632h1.147l-0.048 5.968-1.147 0.334-2.819-4.679 0.096 4.536h-1.147l0.048-5.921zM53.253 17.588h-1.72v-0.955h4.538v0.955h-1.672l-0.048 5.157h-1.147l0.048-5.157zM57.026 16.633h3.296v0.955h-2.149l-0.048 1.576h2.149v0.955h-2.149v1.671h2.198v0.955h-3.392l0.095-6.112zM63.476 19.355c0.334 0 0.573-0.096 0.765-0.287s0.239-0.43 0.239-0.669c0-0.287-0.096-0.525-0.287-0.669s-0.43-0.239-0.765-0.239h-0.669v1.814h0.717l-0.001 0.048zM61.66 16.633h1.958c0.716 0 1.242 0.143 1.576 0.477s0.525 0.764 0.525 1.289c0 0.382-0.096 0.716-0.334 1.003-0.191 0.287-0.525 0.477-0.86 0.621l1.767 2.292-1.004 0.621-1.72-2.34c-0.096-0.143-0.239-0.191-0.43-0.191h-0.334v2.483h-1.147l0.001-6.255zM67.297 16.824l1.051-0.334 2.866 4.727-0.048-4.632h1.147l-0.048 5.968-1.194 0.334-2.771-4.679 0.096 4.536h-1.147l0.048-5.921zM75.992 17.779l-0.813 2.387h1.481l-0.668-2.387zM74.177 22.888l-1.051-0.287 2.341-5.968h1.051l2.197 5.921-1.099 0.334-0.621-1.767h-2.149l-0.669 1.767zM80.387 17.588h-1.72v-0.955h4.586l-0.048 0.955h-1.672l-0.048 5.157h-1.147l0.048-5.157zM84.114 16.633h1.147l-0.048 6.112h-1.147c0 0 0.048-6.112 0.048-6.112zM89.608 21.933c0.621 0 1.147-0.239 1.529-0.669s0.573-0.955 0.573-1.623-0.191-1.194-0.573-1.623-0.908-0.621-1.529-0.621c-0.573 0-1.051 0.191-1.481 0.621s-0.621 0.955-0.621 1.671c0 0.669 0.191 1.241 0.573 1.623 0.382 0.43 0.86 0.621 1.529 0.621zM89.608 16.49c0.956 0 1.767 0.287 2.389 0.907s0.908 1.385 0.908 2.292-0.334 1.671-0.956 2.292-1.433 0.907-2.341 0.907c-0.956 0-1.72-0.287-2.341-0.907s-0.956-1.385-0.956-2.292 0.334-1.671 0.956-2.244c0.621-0.621 1.385-0.955 2.341-0.955zM94.003 16.824l1.051-0.334 2.866 4.727-0.048-4.632h1.147l-0.048 5.968-1.147 0.334-2.819-4.679 0.096 4.536h-1.147c0 0 0.048-5.921 0.048-5.921zM102.505 17.779l-0.813 2.387h1.481l-0.668-2.387zM100.69 22.888l-1.051-0.287 2.341-5.968h1.051l2.197 5.921-1.099 0.334-0.621-1.767h-2.149l-0.669 1.767zM105.993 16.633h1.147l-0.048 5.157h2.389v0.955h-3.535l0.048-6.112h-0.001zM28.936 10.999c0 1.050-0.86 1.91-1.911 1.91s-1.911-0.86-1.911-1.91 0.86-1.91 1.911-1.91 1.911 0.86 1.911 1.91zM29.796 25.992c3.87-0.621 7.023-3.39 8.313-6.971 0.382-1.098 0.573-2.244 0.573-3.486 0-1.003-0.143-1.958-0.382-2.865-0.239 3.247-4.681 5.968-10.223 6.16-1.672 0.048-3.296-0.143-4.729-0.525 0.096 2.769 0.669 5.348 1.624 7.401 0.096 0.048 0.239 0.048 0.382 0.096-0.669-1.814-1.433-4.775-1.29-6.924 1.338 0.287 2.771 0.43 4.252 0.43-0.048 0.334-0.048 0.621-0.048 0.955 0 2.053 0.525 4.966 1.529 5.73zM19.812 11.715c0.86-2.483 2.389-4.584 4.252-6.064-2.246 0.859-4.109 2.531-5.255 4.584 0.191 0.525 0.525 1.050 1.003 1.48zM17.375 15.535c0 2.531 0.908 4.918 2.437 6.78-0.573-1.623-0.908-3.438-0.908-5.3 0-0.334 0.048-0.669 0.048-1.003-0.717-0.716-1.194-1.48-1.385-2.34-0.143 0.621-0.191 1.241-0.191 1.862zM34 6.033c3.344 2.101 5.59 5.777 5.59 10.027 0 2.483-0.813 4.775-2.102 6.685-2.102 3.056-5.637 5.061-9.65 5.061-0.621 0-1.194-0.048-1.767-0.143-1.433-0.239-2.819-0.716-4.061-1.432-3.535-2.005-5.924-5.825-5.924-10.17 0-5.777 4.204-10.6 9.746-11.603 0.669-0.143 1.338-0.191 2.054-0.191 1.194 0 2.293 0.143 3.344 0.478 0.334 0.096 1.004 0.334 1.051 0.382 0.048 0-0.239 0.478-0.239 0.478-0.86-0.334-1.72-0.573-2.628-0.668-2.723 0.859-4.92 4.25-5.733 8.69 1.194 0.287 2.532 0.477 3.965 0.477 4.968 0 9.029-2.149 9.029-4.823-0.286-0.382-0.573-0.764-0.908-1.098-0.621-0.621-1.29-1.194-2.054-1.671-0.048 0-0.048 0-0.048 0l0.334-0.478c0 0.048 0 0 0 0zM43.555 9.888h-1.72v-1.003h4.538v1.003h-1.72l-0.048 5.157h-1.099l0.048-5.157z"></path>
</symbol>
<symbol id="icon-open-contracting-partnership" viewBox="0 0 63 32">
<title>open-contracting-partnership</title>
<path d="M31.291 21.35h0.592c0.18 0 0.328-0.020 0.447-0.058s0.212-0.092 0.28-0.161 0.117-0.15 0.144-0.243c0.027-0.093 0.042-0.193 0.042-0.302 0-0.242-0.064-0.428-0.194-0.56s-0.316-0.197-0.557-0.197h-0.754v1.522zM30.258 22.878h0.502v-3.051h-0.502v-0.392h1.771c0.266 0 0.483 0.036 0.653 0.108s0.303 0.164 0.402 0.276c0.099 0.112 0.166 0.237 0.205 0.374 0.037 0.138 0.056 0.271 0.056 0.399 0 0.221-0.039 0.403-0.116 0.546-0.078 0.142-0.185 0.256-0.324 0.339-0.138 0.083-0.303 0.14-0.495 0.173-0.192 0.032-0.401 0.049-0.626 0.049h-0.485v1.179h0.526v0.389h-1.566v-0.389z"></path>
<path d="M35.619 22.096c-0.071 0-0.16-0.008-0.267-0.026-0.108-0.018-0.221-0.026-0.341-0.026-0.086 0-0.173 0.006-0.26 0.019-0.086 0.011-0.164 0.036-0.231 0.072-0.068 0.035-0.123 0.086-0.164 0.153-0.043 0.067-0.063 0.154-0.063 0.263 0 0.057 0.010 0.112 0.033 0.164s0.055 0.097 0.098 0.134 0.096 0.068 0.158 0.089c0.062 0.022 0.134 0.033 0.216 0.033 0.074 0 0.148-0.006 0.222-0.020 0.076-0.014 0.149-0.032 0.221-0.058 0.072-0.026 0.14-0.056 0.205-0.093s0.122-0.078 0.173-0.125v-0.579zM33.981 20.914c0.12-0.12 0.268-0.212 0.446-0.275 0.178-0.064 0.38-0.097 0.608-0.097 0.208 0 0.382 0.025 0.522 0.075s0.25 0.115 0.332 0.197c0.082 0.082 0.14 0.176 0.174 0.283 0.034 0.106 0.051 0.216 0.051 0.329v1.486h0.479v0.355h-0.92l-0.006-0.275c-0.088 0.064-0.172 0.117-0.249 0.161s-0.154 0.078-0.227 0.103c-0.075 0.025-0.15 0.044-0.224 0.055-0.076 0.011-0.154 0.017-0.236 0.017-0.139 0-0.265-0.022-0.377-0.064s-0.207-0.1-0.286-0.172c-0.079-0.071-0.138-0.154-0.18-0.247-0.041-0.095-0.061-0.192-0.061-0.294 0-0.166 0.030-0.303 0.091-0.413 0.060-0.109 0.143-0.195 0.247-0.26s0.226-0.109 0.368-0.134c0.14-0.025 0.29-0.038 0.447-0.038 0.106 0 0.212 0.005 0.316 0.017s0.212 0.028 0.325 0.050v-0.322c0-0.093-0.016-0.173-0.049-0.238-0.032-0.066-0.076-0.117-0.133-0.158-0.056-0.039-0.123-0.069-0.197-0.087-0.076-0.019-0.155-0.028-0.239-0.028-0.153 0-0.291 0.025-0.414 0.075s-0.223 0.126-0.301 0.227l-0.305-0.327z"></path>
<path d="M36.979 22.911h0.535v-1.951h-0.556v-0.369h0.961l0.003 0.582c0.060-0.122 0.125-0.223 0.193-0.304s0.143-0.145 0.222-0.194c0.080-0.049 0.166-0.083 0.259-0.103 0.093-0.020 0.193-0.030 0.299-0.030 0.096 0 0.198 0.007 0.309 0.020l-0.017 0.462c-0.002-0.004-0.020-0.006-0.052-0.006h-0.274c-0.164 0-0.3 0.024-0.409 0.070-0.109 0.047-0.195 0.113-0.261 0.198-0.066 0.086-0.112 0.19-0.14 0.312-0.027 0.122-0.042 0.258-0.042 0.408v0.906h0.585v0.355h-1.619v-0.355z"></path>
<path d="M39.583 20.591h0.413v-0.857l0.502-0.106v0.964h0.575v0.369h-0.576v1.346c0 0.102 0.002 0.191 0.005 0.266 0.004 0.076 0.014 0.138 0.032 0.188s0.045 0.087 0.083 0.113c0.037 0.025 0.091 0.038 0.163 0.038h0.392v0.355h-0.458c-0.173 0-0.308-0.025-0.404-0.076s-0.167-0.122-0.214-0.211c-0.047-0.089-0.075-0.195-0.085-0.316-0.009-0.121-0.015-0.251-0.015-0.394v-1.31h-0.413v-0.371z"></path>
<path d="M41.6 22.911h0.476v-1.951h-0.496v-0.369h0.984l0.014 0.345c0.17-0.133 0.329-0.232 0.476-0.297s0.301-0.098 0.465-0.098c0.122 0 0.231 0.020 0.327 0.060 0.097 0.039 0.179 0.098 0.245 0.173 0.068 0.076 0.12 0.165 0.155 0.271 0.035 0.105 0.053 0.223 0.053 0.354l-0.003 1.513h0.482v0.355h-1.336v-0.355h0.366v-1.329c0-0.195-0.030-0.348-0.089-0.457s-0.168-0.164-0.325-0.164c-0.153 0-0.297 0.039-0.432 0.12s-0.263 0.178-0.382 0.292v1.539h0.482v0.355h-1.459v-0.356z"></path>
<path d="M47.493 21.714c-0.014-0.108-0.042-0.209-0.086-0.3s-0.102-0.172-0.173-0.239c-0.071-0.068-0.156-0.121-0.255-0.158s-0.209-0.056-0.33-0.056c-0.135 0-0.256 0.018-0.361 0.055-0.105 0.036-0.196 0.087-0.272 0.153-0.077 0.066-0.138 0.144-0.186 0.238s-0.082 0.196-0.102 0.309h1.765zM45.716 22.054c0.006 0.129 0.033 0.245 0.080 0.351 0.047 0.105 0.111 0.195 0.193 0.271s0.18 0.134 0.294 0.174c0.114 0.041 0.243 0.061 0.388 0.061 0.086 0 0.172-0.010 0.256-0.030s0.164-0.049 0.239-0.085 0.145-0.080 0.21-0.131c0.064-0.051 0.118-0.109 0.163-0.173l0.339 0.252c-0.113 0.173-0.27 0.313-0.47 0.42-0.201 0.108-0.45 0.162-0.75 0.162-0.23 0-0.437-0.037-0.621-0.11s-0.34-0.173-0.467-0.299c-0.128-0.127-0.225-0.274-0.294-0.444s-0.103-0.351-0.103-0.543c0-0.202 0.037-0.387 0.113-0.558 0.075-0.17 0.178-0.318 0.309-0.441s0.286-0.218 0.465-0.288c0.18-0.069 0.374-0.103 0.585-0.103 0.219 0 0.413 0.039 0.579 0.119 0.166 0.078 0.305 0.185 0.417 0.319 0.112 0.134 0.195 0.29 0.251 0.465 0.055 0.177 0.083 0.361 0.083 0.554v0.056h-2.259z"></path>
<path d="M48.545 22.911h0.535v-1.951h-0.556v-0.369h0.961l0.003 0.582c0.060-0.122 0.125-0.223 0.193-0.304s0.143-0.145 0.222-0.194c0.080-0.049 0.166-0.083 0.259-0.103 0.093-0.020 0.193-0.030 0.299-0.030 0.096 0 0.198 0.007 0.309 0.020l-0.017 0.462c-0.002-0.004-0.020-0.006-0.052-0.006h-0.272c-0.164 0-0.3 0.024-0.409 0.070-0.109 0.047-0.195 0.113-0.261 0.198-0.066 0.086-0.112 0.19-0.14 0.312-0.027 0.122-0.042 0.258-0.042 0.408v0.906h0.585v0.355h-1.619v-0.355z"></path>
<path d="M51.288 22.393h0.443v0.176c0.029 0.055 0.062 0.105 0.1 0.15s0.084 0.082 0.138 0.115c0.054 0.032 0.118 0.057 0.191 0.075s0.158 0.027 0.256 0.027c0.195 0 0.345-0.033 0.45-0.1s0.158-0.163 0.158-0.29c0-0.071-0.015-0.128-0.044-0.172-0.029-0.043-0.069-0.078-0.121-0.105s-0.114-0.047-0.186-0.061c-0.072-0.015-0.152-0.028-0.241-0.042-0.138-0.020-0.274-0.046-0.41-0.077s-0.259-0.077-0.369-0.138c-0.109-0.060-0.198-0.141-0.267-0.242s-0.103-0.231-0.103-0.391c0-0.109 0.023-0.211 0.070-0.307s0.113-0.178 0.199-0.247c0.086-0.070 0.19-0.125 0.311-0.164s0.257-0.059 0.407-0.059c0.133 0 0.259 0.024 0.376 0.072s0.219 0.107 0.305 0.178v-0.199h0.429v0.851h-0.429v-0.222c-0.158-0.19-0.378-0.286-0.662-0.286-0.166 0-0.297 0.032-0.394 0.098s-0.144 0.155-0.144 0.267c0 0.073 0.025 0.131 0.077 0.174 0.051 0.044 0.117 0.079 0.201 0.107 0.083 0.027 0.179 0.051 0.286 0.070s0.216 0.039 0.327 0.061c0.111 0.022 0.22 0.051 0.327 0.085s0.203 0.081 0.286 0.141c0.083 0.059 0.15 0.136 0.201 0.227s0.077 0.207 0.077 0.344c0 0.123-0.025 0.234-0.075 0.334s-0.121 0.187-0.212 0.258c-0.092 0.071-0.204 0.127-0.334 0.166s-0.276 0.060-0.438 0.060c-0.153 0-0.29-0.018-0.41-0.053s-0.231-0.093-0.33-0.173v0.166h-0.443v-0.876z"></path>
<path d="M53.961 22.911h0.505v-3.074h-0.499v-0.402h0.994v1.419c0.315-0.209 0.651-0.313 1.011-0.313 0.567 0 0.851 0.292 0.851 0.877v0.075c0 0.043 0 0.1-0.002 0.167-0.001 0.069-0.002 0.145-0.002 0.231v1.019h0.479v0.355h-1.31v-0.355h0.339v-1.399c0-0.075-0.007-0.146-0.020-0.214-0.014-0.068-0.037-0.127-0.073-0.177s-0.083-0.089-0.143-0.119c-0.060-0.029-0.136-0.043-0.23-0.043-0.135 0-0.282 0.024-0.441 0.070-0.158 0.047-0.312 0.12-0.46 0.219v1.662h0.482v0.355h-1.482v-0.354z"></path>
<path d="M58.049 19.724c0-0.041 0.007-0.078 0.023-0.113s0.037-0.067 0.064-0.093c0.027-0.027 0.060-0.047 0.097-0.061s0.076-0.022 0.117-0.022c0.086 0 0.159 0.027 0.218 0.083 0.058 0.055 0.088 0.125 0.088 0.207s-0.029 0.151-0.088 0.206c-0.058 0.055-0.131 0.083-0.218 0.083-0.042 0-0.081-0.007-0.117-0.022s-0.069-0.035-0.097-0.061c-0.028-0.027-0.050-0.057-0.064-0.093-0.015-0.034-0.023-0.072-0.023-0.112zM57.661 22.911h0.449v-1.951h-0.449v-0.369h0.943v2.32h0.452v0.355h-1.395v-0.355z"></path>
<path d="M61.247 22.911c0.142 0 0.268-0.025 0.379-0.075s0.204-0.119 0.279-0.205c0.075-0.086 0.133-0.188 0.173-0.304s0.060-0.242 0.060-0.377c0-0.133-0.021-0.26-0.061-0.379s-0.101-0.224-0.18-0.316c-0.079-0.090-0.173-0.163-0.285-0.216s-0.236-0.080-0.376-0.080c-0.1 0-0.193 0.014-0.28 0.039-0.087 0.027-0.167 0.060-0.241 0.1s-0.139 0.084-0.197 0.133c-0.059 0.049-0.109 0.093-0.152 0.136v1.197c0.051 0.039 0.107 0.080 0.167 0.122 0.061 0.041 0.128 0.078 0.202 0.111 0.073 0.033 0.152 0.060 0.238 0.082 0.085 0.022 0.177 0.032 0.274 0.032zM59.37 24.078h0.509v-3.118h-0.469v-0.369h0.931l0.027 0.355c0.127-0.133 0.273-0.234 0.441-0.302s0.341-0.103 0.52-0.103c0.206 0 0.391 0.036 0.555 0.109 0.164 0.074 0.303 0.173 0.417 0.299 0.114 0.127 0.202 0.274 0.263 0.444s0.091 0.351 0.091 0.543c0 0.19-0.031 0.37-0.095 0.538s-0.153 0.316-0.269 0.443c-0.116 0.127-0.257 0.226-0.421 0.299-0.164 0.074-0.347 0.11-0.549 0.11-0.18 0-0.352-0.029-0.517-0.088-0.165-0.058-0.311-0.145-0.436-0.261v1.103h0.549v0.409h-1.546v-0.413z"></path>
<path d="M32.232 11.010c0.844 0 1.389-0.678 1.389-1.519 0-0.854-0.545-1.532-1.389-1.532-0.837 0-1.386 0.678-1.386 1.532 0 0.842 0.549 1.519 1.386 1.519zM32.232 7.51c1.23 0 1.981 0.877 1.981 1.981 0 1.1-0.751 1.974-1.981 1.974s-1.974-0.871-1.974-1.974c-0.001-1.11 0.748-1.981 1.974-1.981z"></path>
<path d="M37.411 10.056c0-0.542-0.332-0.961-0.884-0.961-0.499 0-0.881 0.336-0.89 0.781-0.003 0.006-0.003 0.392-0.003 0.399 0.027 0.446 0.379 0.762 0.871 0.762 0.578 0 0.907-0.402 0.907-0.981zM34.643 12.213h0.509v-3.088h-0.469v-0.399h0.97c0 0 0.014 0.352 0.017 0.352 0.246-0.263 0.571-0.399 0.931-0.399 0.827 0 1.326 0.621 1.326 1.393 0 0.762-0.526 1.393-1.333 1.393-0.358 0-0.701-0.123-0.951-0.352 0 0.076 0.003 1.1 0.003 1.1l0.541 0.003v0.409h-1.546v-0.414z"></path>
<path d="M39.922 9.85h0.871c-0.070-0.422-0.358-0.787-0.844-0.787-0.535 0-0.845 0.336-0.92 0.787h0.894zM40.15 10.195l-1.137-0.006c0.071 0.515 0.382 0.861 0.954 0.861 0.346 0 0.674-0.127 0.878-0.369l0.425 0.186c-0.256 0.379-0.728 0.598-1.316 0.598-0.92 0-1.486-0.625-1.486-1.399 0-0.811 0.635-1.386 1.473-1.386 0.881 0 1.329 0.678 1.329 1.453v0.056l-1.12 0.006z"></path>
<path d="M41.839 10.993h0.475v-1.868h-0.496v-0.399h0.984c0 0 0.006 0.289 0.014 0.346 0.342-0.266 0.612-0.392 0.94-0.392 0.488 0 0.788 0.329 0.788 0.854 0 0.050-0.010 1.46-0.010 1.46l0.482 0.006v0.402h-1.336v-0.399h0.366v-1.286c0-0.392-0.1-0.612-0.416-0.612-0.302 0-0.579 0.199-0.814 0.469v1.422h0.482v0.405h-1.46v-0.408z"></path>
<path d="M30.258 15.536c0-1.173 0.692-1.981 1.898-1.981 0.538 0 0.99 0.207 1.286 0.496v-0.435h0.432v1.16h-0.416c-0.256-0.512-0.725-0.771-1.277-0.771-0.837 0-1.336 0.651-1.336 1.516 0 0.854 0.523 1.529 1.357 1.529 0.555 0 1.206-0.23 1.326-0.991l0.449 0.236c-0.163 0.735-0.831 1.217-1.811 1.217-1.174 0-1.909-0.804-1.909-1.974z"></path>
<path d="M36.813 16.11c0-0.542-0.343-0.961-0.89-0.961-0.541 0-0.884 0.419-0.884 0.961s0.342 0.944 0.884 0.944c0.548 0 0.89-0.402 0.89-0.944zM34.51 16.11c0-0.768 0.549-1.386 1.419-1.386 0.864 0 1.416 0.618 1.416 1.386s-0.556 1.399-1.422 1.399c-0.864 0-1.413-0.632-1.413-1.399z"></path>
<path d="M37.88 17.038h0.476v-1.868h-0.496v-0.399h0.984c0 0 0.006 0.289 0.014 0.346 0.342-0.266 0.612-0.393 0.94-0.393 0.488 0 0.788 0.329 0.788 0.854 0 0.050-0.009 1.46-0.009 1.46l0.481 0.006v0.402h-1.336v-0.399h0.366v-1.286c0-0.392-0.1-0.612-0.416-0.612-0.302 0-0.579 0.199-0.814 0.469v1.422h0.482v0.405h-1.46v-0.407z"></path>
<path d="M41.384 14.771h0.422v-0.558l0.492-0.405v0.964h0.542v0.405h-0.542v0.708c0 0.136 0 0.877 0.014 0.924 0.009 0.183 0.113 0.246 0.269 0.246 0.077 0 0.166-0.017 0.26-0.047v0.422c-0.116 0.030-0.246 0.053-0.359 0.053-0.382 0-0.651-0.166-0.668-0.638 0 0-0.017-0.804-0.017-0.934v-0.735h-0.413v-0.405z"></path>
<path d="M43.405 17.038h0.535v-1.868h-0.556v-0.399h0.941c0 0 0.017 0.521 0.023 0.582 0.18-0.425 0.512-0.629 0.887-0.629 0.050 0 0.396 0.014 0.396 0.014l-0.017 0.466c-0.009-0.007-0.292-0.010-0.325-0.010-0.655 0-0.851 0.385-0.851 0.99v0.857h0.585v0.405h-1.619v-0.407z"></path>
<path d="M47.823 16.276c-0.142-0.003-0.369-0.053-0.608-0.053-0.349 0-0.718 0.070-0.718 0.505 0 0.233 0.18 0.422 0.505 0.422 0.292 0 0.618-0.113 0.821-0.296v-0.578zM46.028 16.728c0-0.662 0.522-0.845 1.153-0.845 0.207 0 0.425 0.024 0.641 0.067v-0.322c0-0.372-0.299-0.512-0.651-0.512-0.273 0-0.489 0.097-0.615 0.278l-0.465-0.13c0.203-0.349 0.598-0.542 1.147-0.542 0.837 0 1.081 0.425 1.081 0.881v1.439h0.478v0.402h-0.92c0 0-0.003-0.275-0.006-0.275-0.352 0.256-0.605 0.349-0.937 0.349-0.561 0.002-0.904-0.38-0.904-0.79z"></path>
<path d="M49.16 16.090c0-0.718 0.532-1.366 1.339-1.366 0.289 0 0.598 0.067 0.751 0.286l0.004-0.239h0.442v0.957h-0.429c-0.070-0.385-0.279-0.575-0.731-0.575-0.549 0-0.848 0.392-0.848 0.931 0 0.585 0.312 0.997 0.861 0.997 0.355 0 0.648-0.15 0.814-0.443l0.402 0.183c-0.203 0.446-0.641 0.688-1.23 0.688-0.973 0-1.376-0.768-1.376-1.419z"></path>
<path d="M52.245 14.771h0.422v-0.558l0.492-0.405v0.964h0.542v0.405h-0.542v0.708c0 0.136 0 0.877 0.014 0.924 0.009 0.183 0.113 0.246 0.269 0.246 0.076 0 0.166-0.017 0.259-0.047v0.422c-0.116 0.030-0.246 0.053-0.359 0.053-0.382 0-0.651-0.166-0.668-0.638 0 0-0.017-0.804-0.017-0.934v-0.735h-0.413v-0.405z"></path>
<path d="M54.942 13.614c0.169 0 0.305 0.127 0.305 0.289s-0.136 0.289-0.305 0.289c-0.169 0-0.302-0.127-0.302-0.289s0.132-0.289 0.302-0.289zM54.25 17.034h0.449v-1.865h-0.449v-0.399h0.944v2.27h0.452v0.405h-1.396v-0.411z"></path>
<path d="M56.125 17.038h0.476v-1.868h-0.496v-0.399h0.984c0 0 0.006 0.289 0.014 0.346 0.342-0.266 0.612-0.393 0.94-0.393 0.488 0 0.788 0.329 0.788 0.854 0 0.050-0.010 1.46-0.010 1.46l0.482 0.006v0.402h-1.336v-0.399h0.366v-1.286c0-0.392-0.1-0.612-0.416-0.612-0.302 0-0.579 0.199-0.814 0.469v1.422h0.482v0.405h-1.46v-0.407z"></path>
<path d="M62.012 16.32v-0.416c-0.017-0.422-0.392-0.741-0.877-0.741-0.559 0-0.901 0.435-0.901 0.967 0 0.499 0.322 0.901 0.89 0.901 0.475-0.001 0.887-0.317 0.887-0.712zM60.024 18.333l0.313-0.346c0.226 0.163 0.495 0.243 0.765 0.243 0.396 0 0.898-0.199 0.907-0.795 0-0.014-0.009-0.286-0.009-0.299-0.186 0.173-0.602 0.309-0.964 0.309-0.825 0-1.33-0.591-1.33-1.303 0-0.768 0.529-1.419 1.35-1.419 0.355 0 0.665 0.12 0.941 0.366 0.003 0 0.009-0.319 0.009-0.319h0.994v0.399l-0.502 0.009c0 0 0.004 1.978 0.004 2.078 0 1.054-0.742 1.386-1.443 1.386-0.414 0.001-0.722-0.088-1.035-0.309z"></path>
<path d="M13.104 17.708l-6.492 4.757-6.612-6.722 6.296-3.023z"></path>
<path d="M26.204 15.743l-6.607 6.722-6.37-4.667v-0.181l6.73-4.93z"></path>
<path d="M22.997 10.46l-3.043 2.223-6.726-3.293 3.351-1.608z"></path>
<path d="M13.224 9.39l-6.932 3.33-3.085-2.26 6.73-2.678z"></path>
</symbol>
<symbol id="icon-global-witness" viewBox="0 0 53 32">
<title>global-witness</title>
<path d="M40.806 29.607l0.886-0.009c0.018 0.412 0.342 0.57 0.711 0.57 0.272 0 0.605-0.096 0.605-0.43 0-0.289-0.377-0.386-1.044-0.526-0.544-0.123-1.079-0.298-1.079-0.903 0-0.859 0.746-1.078 1.474-1.078 0.746 0 1.412 0.254 1.491 1.078h-0.886c-0.026-0.359-0.298-0.456-0.632-0.456-0.228 0-0.526 0.044-0.526 0.316 0 0.333 0.518 0.386 1.044 0.509 0.553 0.123 1.079 0.316 1.079 0.947 0 0.885-0.754 1.175-1.535 1.175s-1.553-0.307-1.588-1.192zM37.306 29.607l0.886-0.009c0.018 0.412 0.342 0.57 0.711 0.57 0.272 0 0.605-0.096 0.605-0.43 0-0.289-0.377-0.386-1.044-0.526-0.544-0.123-1.079-0.298-1.079-0.903 0-0.859 0.746-1.078 1.474-1.078 0.746 0 1.412 0.254 1.491 1.078h-0.886c-0.026-0.359-0.298-0.456-0.632-0.456-0.228 0-0.526 0.044-0.526 0.316 0 0.333 0.518 0.386 1.044 0.509 0.553 0.123 1.079 0.316 1.079 0.947 0 0.885-0.754 1.175-1.535 1.175s-1.553-0.307-1.588-1.192zM34.481 28.651h1.526c-0.096-0.456-0.298-0.71-0.746-0.71-0.588 0-0.763 0.456-0.781 0.71zM36.929 29.238l-2.43-0.009c0.018 0.587 0.298 0.859 0.825 0.859 0.36 0 0.667-0.245 0.728-0.447h0.833c-0.272 0.807-0.825 1.14-1.588 1.14-1.061 0-1.728-0.728-1.728-1.771 0-0.991 0.702-1.771 1.728-1.771 1.14 0 1.693 0.973 1.632 1.999zM29.902 30.711h0.026v-3.402h0.886v0.473h0.018c0.237-0.359 0.632-0.552 1.026-0.552 0.982 0 1.237 0.552 1.237 1.394v2.078h-0.939v-1.902c0-0.552-0.175-0.824-0.605-0.824-0.491 0-0.71 0.281-0.71 0.964v1.771h-0.939zM28.648 26.328l-0.009 1.017h0.684v0.614h-0.684v1.666c0 0.316 0.079 0.395 0.395 0.395 0.096 0 0.193-0.018 0.289-0.035v0.728c-0.158 0.035-0.342 0.035-0.535 0.035-0.57 0-1.061-0.14-1.061-0.807v-1.981h-0.553v-0.614h0.553v-1.017h0.921zM26.683 26.038v0.763h-0.939v-0.763h0.939zM25.753 30.711v-3.375h0.939v3.375h-0.939zM25.341 27.336l-1.044 3.358h-0.947l-0.605-2.262h-0.018l-0.57 2.262h-0.965l-1.079-3.375h0.982l0.614 2.297 0.57-2.279h0.903l0.57 2.279h0.018l0.614-2.279h0.956zM17.271 30.711v-4.655h0.939v4.655h-0.939zM14.385 28.37v-0.018h-0.93c0.053-0.868 0.825-1.122 1.588-1.122 0.684 0 1.491 0.158 1.491 0.964v1.788c0 0.298 0.035 0.605 0.114 0.745h-0.939c-0.026-0.114-0.061-0.219-0.061-0.333-0.298 0.298-0.728 0.412-1.14 0.412-0.649 0-1.158-0.324-1.158-1.017 0-0.771 0.588-0.947 1.158-1.026s1.096-0.070 1.096-0.447c0-0.395-0.272-0.456-0.605-0.456-0.36 0-0.579 0.14-0.614 0.509zM15.596 29.396h0.018v-0.333c-0.167 0.131-0.491 0.149-0.781 0.193-0.298 0.044-0.553 0.158-0.553 0.491 0 0.351 0.272 0.43 0.57 0.43 0.71 0 0.746-0.579 0.746-0.78zM11.982 29.019c0-0.552-0.237-1.078-0.789-1.078s-0.789 0.509-0.789 1.078c0 0.552 0.237 1.078 0.789 1.078s0.789-0.526 0.789-1.078zM9.508 30.711l-0.009-4.638h0.939v1.701h0.018c0.219-0.351 0.649-0.509 1.061-0.509 0.667 0 1.395 0.535 1.395 1.771s-0.728 1.771-1.395 1.771c-0.491 0-0.903-0.158-1.105-0.526h-0.018v0.43h-0.886zM6.403 29.019c0 0.535 0.193 1.078 0.825 1.078s0.825-0.544 0.825-1.078c0-0.544-0.193-1.078-0.825-1.078s-0.825 0.544-0.825 1.078zM5.482 29.019c0-1.078 0.684-1.771 1.746-1.771s1.746 0.693 1.746 1.771c0 1.061-0.684 1.771-1.746 1.771s-1.746-0.693-1.746-1.771zM4.061 30.711c0 0 0-4.655 0-4.655h0.921v4.655h-0.921zM1.684 29.905c0.518 0 0.789-0.438 0.789-0.956 0-0.535-0.184-1.026-0.789-1.026-0.526 0-0.746 0.456-0.746 0.964 0 0.491 0.175 1.017 0.746 1.017zM3.342 27.336c0 0 0 3.156 0.009 3.165 0 0.552-0.193 1.49-1.746 1.49-0.667 0-1.447-0.298-1.491-1.078h0.921c0.088 0.342 0.36 0.456 0.693 0.456 0.526 0 0.746-0.368 0.746-0.842v-0.447h-0.018c-0.211 0.351-0.605 0.526-1.018 0.526-1.009 0-1.439-0.771-1.439-1.692 0-0.877 0.491-1.666 1.439-1.666 0.447 0 0.781 0.14 1 0.535h0.018v-0.447h0.886zM52.63 11.090c0 6.128-4.974 11.090-11.096 11.090-6.131 0-11.096-4.953-11.096-11.090s4.974-11.090 11.096-11.090c6.14 0 11.096 4.971 11.096 11.090zM44.393 17.175h-0.825l1.553 2.236 1.667-2.253h-0.728c0 0 0.886-4.068-3.123-5.62 0 0 1.991 2.578 1.456 5.637zM43.902 7.084c0 0 2.158 1.376 3.517 1.376 1.026 0 1.412-0.508 1.412-0.508l0.605 0.684 1.474-2.393-2.991-0.316 0.377 0.964c0 0-0.395 0.473-1.535 0.473-1.123 0-2.86-0.281-2.86-0.281zM34.437 7.426l2.772-0.885-0.667-0.666c0 0 0.939-1.192 2.824-1.192s2.158 0.123 2.158 0.123c0 0-1.842-1.175-3.167-1.175-1.316 0-3.105 1.017-3.105 1.017l-0.86-0.219v2.981l0.044 0.018zM43.411 8.145c0.018-0.745-0.377-1.429-0.368-1.964 0.018-0.745 0.535-1.648 0.535-1.648-0.728 0.333-1.272 0.763-1.509 1.315-0.333 0.807-0.237 1.867-0.807 3.2-0.982 2.315-6.052 5.383-6.052 5.383s1.982-0.096 4.93-1.631c2.947-1.517 3.254-3.945 3.272-4.655zM46.656 2.841l-3.912-0.061 2.298 2.99 1.614-2.928zM34.043 13.431l-1.57 1.832 2.693 0.605-1.123-2.437z"></path>
</symbol>
<symbol id="icon-one" viewBox="0 0 33 32">
<title>one</title>
<path d="M7.796 12.125c-0.352 0-0.691 0.217-0.691 0.596v5.663c0 0.379 0.339 0.596 0.691 0.596s0.678-0.217 0.678-0.596v-5.663c0-0.366-0.325-0.596-0.678-0.596zM26.881 14.347v2.141h-2.223v2.1h3.429v2.615h-6.466v-11.299h6.466v2.466h-3.429v1.978h2.223zM20.443 21.202h-2.494l-1.762-3.685-0.786-1.626v5.311h-2.711v-11.299h2.63l1.694 3.78 0.732 1.626v-5.406h2.697v11.299zM11.578 18.222c0 1.951-1.64 3.279-3.782 3.279-2.155 0-3.795-1.328-3.795-3.279v-5.324c0-1.951 1.64-3.251 3.795-3.251 2.142 0 3.782 1.301 3.782 3.251v5.324zM16.092 0c-8.838 0-16.008 7.167-16.008 16s7.17 16 16.008 16c8.838 0 16.008-7.167 16.008-16s-7.171-16-16.008-16z"></path>
</symbol>
<symbol id="icon-open-corporates" viewBox="0 0 161 32">
<title>open-corporates</title>
<path d="M137.094 23.999c-0.645 0-1.167-0.522-1.167-1.166s0.523-1.166 1.167-1.166c0.645 0 1.167 0.522 1.167 1.166s-0.523 1.166-1.167 1.166zM132.093 23.999c-0.645 0-1.167-0.522-1.167-1.166s0.523-1.166 1.167-1.166c0.645 0 1.167 0.522 1.167 1.166s-0.523 1.166-1.167 1.166zM127.091 23.999c-0.645 0-1.167-0.522-1.167-1.166s0.523-1.166 1.167-1.166c0.645 0 1.167 0.522 1.167 1.166s-0.523 1.166-1.167 1.166zM122.089 23.999c-0.645 0-1.167-0.522-1.167-1.166s0.523-1.166 1.167-1.166c0.645 0 1.167 0.522 1.167 1.166s-0.523 1.166-1.167 1.166zM117.087 23.999c-0.645 0-1.167-0.522-1.167-1.166s0.523-1.166 1.167-1.166c0.645 0 1.167 0.522 1.167 1.166s-0.523 1.166-1.167 1.166zM64.135 17.686c0.413 0 0.801-0.060 1.214-0.143 0.4-0.143 0.789-0.322 1.189-0.597v0.967c-0.51 0.31-1.032 0.525-1.541 0.681-0.522 0.143-1.019 0.215-1.517 0.215-1.274 0-2.318-0.418-3.082-1.266s-1.165-1.947-1.165-3.332c0-1.361 0.413-2.484 1.238-3.344 0.825-0.872 1.893-1.29 3.216-1.29 0.874 0 1.566 0.167 2.063 0.49 0.498 0.31 0.752 0.752 0.752 1.314 0 0.287-0.097 0.514-0.291 0.704-0.182 0.191-0.425 0.275-0.752 0.275-0.146 0-0.291-0.024-0.425-0.072-0.146-0.048-0.291-0.119-0.425-0.203v-1.517c-0.146-0.072-0.291-0.143-0.449-0.191-0.158-0.060-0.303-0.072-0.461-0.072-0.849 0-1.517 0.346-2.015 1.027-0.498 0.693-0.752 1.6-0.752 2.735 0 1.111 0.291 2.006 0.862 2.651s1.359 0.967 2.342 0.967zM74.475 10.843c0.825 0.872 1.226 1.982 1.238 3.308 0 1.349-0.413 2.472-1.238 3.332s-1.869 1.302-3.143 1.302c-1.286 0-2.318-0.43-3.143-1.29-0.813-0.86-1.226-1.958-1.226-3.332 0-1.349 0.413-2.472 1.226-3.332 0.801-0.872 1.857-1.29 3.143-1.29 1.274 0 2.318 0.442 3.143 1.302zM73.225 16.97c0.485-0.693 0.716-1.624 0.692-2.818 0-1.17-0.231-2.102-0.716-2.794s-1.104-1.051-1.893-1.051c-0.789 0-1.408 0.358-1.893 1.051-0.461 0.693-0.704 1.624-0.704 2.794s0.231 2.102 0.716 2.794c0.485 0.693 1.117 1.051 1.893 1.051 0.789 0 1.42-0.334 1.905-1.027zM81.514 9.542c0.182 0 0.376 0.036 0.546 0.060 0.194 0.036 0.376 0.107 0.57 0.191v1.6h-0.607c-0.121-0.143-0.267-0.263-0.425-0.334-0.158-0.084-0.34-0.119-0.534-0.119-0.291 0-0.619 0.119-0.947 0.334-0.352 0.215-0.704 0.573-1.104 1.027v5.278l0.328 0.299 1.323 0.084v0.681h-4.515v-0.681l0.995-0.084 0.328-0.299v-6.699h-1.323v-0.573l2.184-0.657h0.716v1.732c0.303-0.299 0.631-0.609 0.959-0.908 0.328-0.31 0.68-0.597 1.044-0.884 0.049-0.024 0.097-0.036 0.17-0.036 0.073-0.012 0.158-0.012 0.291-0.012zM91.296 10.76c0.68 0.812 1.007 1.851 1.044 3.117 0 1.457-0.437 2.615-1.274 3.499-0.85 0.872-1.978 1.314-3.374 1.314-0.243 0-0.498 0-0.789-0.036-0.291-0.024-0.619-0.072-0.959-0.119l-0.012 3.093 0.328 0.287 1.201 0.096v0.657h-4.417v-0.657l1.019-0.096 0.291-0.287v-10.748h-1.311v-0.573l2.184-0.657h0.704v1.015c0.522-0.394 0.995-0.657 1.444-0.848s0.898-0.275 1.323-0.275c1.056 0 1.93 0.406 2.597 1.218zM89.803 16.838c0.558-0.681 0.85-1.588 0.825-2.699 0-1.051-0.255-1.875-0.752-2.484-0.498-0.633-1.165-0.931-1.99-0.931-0.291 0-0.595 0.060-0.922 0.155-0.303 0.107-0.668 0.263-1.044 0.478v6.222c0.316 0.096 0.583 0.167 0.862 0.215 0.267 0.060 0.51 0.072 0.752 0.072 0.947 0 1.687-0.346 2.269-1.027zM100.64 10.843c0.813 0.872 1.226 1.982 1.238 3.308 0 1.349-0.413 2.472-1.238 3.332s-1.857 1.302-3.143 1.302c-1.286 0-2.318-0.43-3.143-1.29-0.813-0.86-1.226-1.958-1.226-3.332 0-1.349 0.413-2.472 1.226-3.332 0.801-0.872 1.857-1.29 3.143-1.29 1.274 0 2.318 0.442 3.143 1.302zM99.39 16.97c0.485-0.693 0.716-1.624 0.692-2.818 0-1.17-0.231-2.102-0.716-2.794s-1.104-1.051-1.893-1.051c-0.789 0-1.408 0.358-1.893 1.051-0.461 0.693-0.704 1.624-0.704 2.794s0.231 2.102 0.716 2.794c0.485 0.693 1.117 1.051 1.893 1.051 0.789 0 1.42-0.334 1.905-1.027zM107.679 9.542c0.182 0 0.352 0.036 0.583 0.060 0.194 0.036 0.376 0.107 0.57 0.191v1.6h-0.607c-0.121-0.143-0.267-0.263-0.425-0.334-0.158-0.084-0.34-0.119-0.534-0.119-0.291 0-0.619 0.119-0.947 0.334-0.352 0.215-0.704 0.573-1.104 1.027v5.278l0.328 0.299 1.311 0.084v0.681h-4.539v-0.681l0.995-0.084 0.328-0.299v-6.699h-1.323v-0.573l2.184-0.657h0.716v1.732c0.303-0.299 0.631-0.609 0.959-0.908 0.328-0.31 0.68-0.597 1.044-0.884 0.049-0.024 0.097-0.036 0.17-0.036 0.073-0.012 0.17-0.012 0.291-0.012zM116.526 17.889l0.934 0.131v0.681h-2.646l-0.243-1.087c-0.595 0.418-1.153 0.716-1.663 0.908-0.522 0.191-0.983 0.287-1.432 0.287-0.728 0-1.323-0.215-1.748-0.657-0.437-0.43-0.655-1.015-0.655-1.72 0-0.8 0.328-1.409 0.983-1.863 0.655-0.442 2.148-0.943 4.502-1.505v-0.597c0-0.776-0.121-1.326-0.376-1.624s-0.704-0.454-1.335-0.454c-0.243 0-0.461 0.024-0.704 0.072-0.218 0.048-0.461 0.119-0.716 0.215v1.552h-1.286c-0.218 0-0.376-0.036-0.461-0.119-0.085-0.072-0.121-0.227-0.121-0.442 0-0.609 0.364-1.099 1.068-1.505 0.728-0.394 1.638-0.597 2.755-0.597 0.983 0 1.699 0.203 2.148 0.621s0.668 1.099 0.668 2.030v5.374l0.328 0.299zM113.31 17.567c0.388-0.143 0.825-0.346 1.299-0.621v-3.26c-1.566 0.43-2.597 0.812-3.095 1.17s-0.74 0.836-0.74 1.409c0 0.454 0.134 0.824 0.413 1.099s0.643 0.406 1.104 0.406c0.303 0 0.643-0.072 1.019-0.203zM120.155 8.001v1.982h2.876v0.86h-2.876v4.884c0 0.8 0.109 1.337 0.34 1.612s0.643 0.406 1.226 0.406c0.206 0 0.413-0.024 0.631-0.036 0.206-0.024 0.425-0.072 0.668-0.119v0.693c-0.437 0.131-0.862 0.227-1.274 0.299-0.413 0.060-0.825 0.096-1.201 0.096-0.74 0-1.238-0.131-1.529-0.406-0.291-0.263-0.425-0.764-0.425-1.469v-5.971h-1.189v-0.573l1.238-0.537 0.813-1.72h0.704zM128.249 17.77c0.473 0 0.935-0.084 1.371-0.227 0.485-0.167 0.995-0.442 1.566-0.812v1.015c-0.546 0.37-1.129 0.633-1.735 0.824s-1.201 0.287-1.808 0.287c-1.238 0-2.245-0.418-3.022-1.266-0.764-0.836-1.165-1.935-1.165-3.284 0-1.385 0.413-2.532 1.226-3.403s1.857-1.314 3.131-1.314c1.032 0 1.857 0.322 2.476 0.979 0.607 0.657 0.91 1.54 0.91 2.675v0.334c0 0.060 0 0.143-0.012 0.215h-6.104v0.203c0 1.146 0.291 2.078 0.862 2.759s1.347 1.015 2.306 1.015zM125.956 11.13c-0.449 0.49-0.716 1.123-0.777 1.863h4.345v-0.287c0-0.74-0.17-1.314-0.498-1.708-0.34-0.394-0.825-0.597-1.456-0.597-0.619 0-1.153 0.239-1.614 0.728zM138.067 15.13c0.121 0.263 0.194 0.573 0.194 0.908 0 0.872-0.303 1.552-0.922 2.042-0.643 0.49-1.493 0.74-2.597 0.74-0.473 0-0.898-0.024-1.311-0.096-0.413-0.048-0.813-0.155-1.153-0.287v-2.4h0.91l0.218 1.576c0.255 0.143 0.534 0.263 0.789 0.334 0.279 0.060 0.534 0.096 0.813 0.096 0.534 0 0.959-0.131 1.286-0.406s0.485-0.645 0.485-1.087c0-0.37-0.109-0.693-0.328-0.931-0.218-0.251-0.752-0.561-1.578-0.931-0.947-0.406-1.59-0.8-1.93-1.17s-0.51-0.836-0.51-1.373c0-0.812 0.291-1.457 0.874-1.911 0.595-0.466 1.396-0.681 2.464-0.681 0.437 0 0.825 0.024 1.189 0.096 0.376 0.060 0.704 0.167 1.032 0.299v2.114h-0.922l-0.158-1.314c-0.255-0.131-0.498-0.227-0.716-0.299-0.243-0.060-0.473-0.096-0.692-0.096-0.498 0-0.874 0.119-1.153 0.358s-0.413 0.561-0.413 0.979c0 0.346 0.109 0.645 0.328 0.884 0.231 0.251 0.655 0.525 1.274 0.812 0.109 0.048 0.243 0.119 0.449 0.203 0.716 0.322 1.214 0.609 1.541 0.86 0.243 0.179 0.413 0.406 0.534 0.681zM29.39 10.99c0.811 0.886 1.222 2.014 1.222 3.372 0 1.371-0.412 2.511-1.235 3.384s-1.852 1.322-3.135 1.322c-1.283 0-2.312-0.425-3.135-1.31-0.811-0.873-1.222-1.989-1.222-3.384 0-1.371 0.412-2.499 1.235-3.397 0.799-0.886 1.852-1.31 3.135-1.31 1.271 0 2.312 0.449 3.135 1.322zM28.143 17.213c0.484-0.703 0.726-1.65 0.69-2.863 0-1.189-0.23-2.135-0.714-2.838s-1.102-1.068-1.888-1.068c-0.787 0-1.404 0.364-1.888 1.067-0.46 0.704-0.702 1.65-0.702 2.838s0.23 2.135 0.714 2.838c0.484 0.703 1.114 1.067 1.888 1.067 0.787 0 1.416-0.34 1.9-1.043zM38.77 10.905c0.678 0.825 1.017 1.88 1.041 3.166 0 1.48-0.424 2.669-1.271 3.554s-1.973 1.334-3.365 1.334c-0.242 0-0.496 0-0.787-0.036-0.29-0.024-0.617-0.073-0.956-0.121l-0.012 3.142 0.327 0.291 1.198 0.097v0.667h-4.406v-0.667l1.017-0.097 0.29-0.291v-10.917h-1.307v-0.582l2.179-0.667h0.702v1.031c0.52-0.4 0.992-0.667 1.44-0.861s0.896-0.279 1.319-0.279c1.053 0 1.925 0.412 2.59 1.237zM37.27 17.079c0.581-0.691 0.871-1.613 0.823-2.741 0-1.067-0.254-1.905-0.75-2.523-0.496-0.643-1.162-0.946-1.985-0.946-0.29 0-0.593 0.061-0.92 0.158-0.303 0.109-0.666 0.267-1.041 0.485v6.32c0.315 0.097 0.581 0.17 0.859 0.218 0.266 0.061 0.508 0.073 0.75 0.073 0.944 0 1.682-0.352 2.263-1.043zM45.355 18.026c0.448 0 0.908-0.085 1.368-0.23 0.484-0.17 0.992-0.449 1.561-0.825v1.031c-0.545 0.376-1.126 0.643-1.731 0.837s-1.198 0.291-1.803 0.291c-1.235 0-2.239-0.425-3.014-1.286-0.763-0.849-1.162-1.965-1.162-3.336 0-1.407 0.412-2.559 1.222-3.457 0.811-0.886 1.852-1.334 3.123-1.334 1.029 0 1.852 0.328 2.469 0.995 0.605 0.667 0.908 1.565 0.908 2.717v0.34c0 0.061 0 0.146-0.012 0.218h-6.088v0.206c0 1.165 0.29 2.111 0.859 2.802s1.343 1.031 2.3 1.031zM43.055 11.281c-0.46 0.497-0.714 1.14-0.775 1.892h4.333v-0.291c0-0.752-0.169-1.334-0.496-1.735-0.339-0.4-0.823-0.607-1.452-0.607-0.617 0-1.15 0.243-1.61 0.74zM53.247 18.911l-4.176-0.012v-0.691l1.017-0.085 0.327-0.303v-6.805h-1.331v-0.582l2.179-0.667h0.714v1.031c0.75-0.412 1.356-0.704 1.816-0.873 0.472-0.17 0.884-0.255 1.222-0.255 0.823 0 1.465 0.255 1.888 0.74 0.436 0.497 0.654 1.213 0.654 2.135v5.313l0.327 0.303 1.017 0.085v0.691h-4.115v-0.691l0.896-0.085 0.327-0.303v-4.986c0-0.704-0.133-1.201-0.424-1.492s-0.763-0.449-1.452-0.449c-0.315 0-0.642 0.061-0.98 0.158-0.351 0.097-0.714 0.255-1.126 0.461v6.284l0.327 0.303 0.896 0.085v0.691z"></path>
</symbol>
<symbol id="icon-the-b-team" viewBox="0 0 120 32">
<title>the-b-team</title>
<path d="M6.338 6.038h108.524v2.932h-108.524v-2.932zM16.874 11.873c0.114 0 0.171 0.085 0.171 0.171l-0.37 2.562c-0.028 0.085-0.114 0.171-0.199 0.171h-3.73c-0.114 0-0.199 0.085-0.199 0.171l-1.509 10.73c-0.028 0.114-0.114 0.171-0.199 0.171h-2.62c-0.114 0-0.171-0.085-0.171-0.171l1.509-10.73c0-0.114-0.057-0.171-0.171-0.171h-3.73c-0.114 0-0.171-0.085-0.171-0.171l0.37-2.562c0-0.114 0.114-0.171 0.199-0.171h10.821zM25.559 20.554c0-0.085-0.057-0.171-0.171-0.171h-4.898c-0.114 0-0.199 0.085-0.199 0.171l-0.74 5.18c0 0.085-0.114 0.171-0.199 0.171h-2.591c-0.114 0-0.171-0.085-0.171-0.171l1.936-13.633c0-0.085 0.114-0.171 0.199-0.171h2.591c0.114 0 0.171 0.085 0.171 0.171l-0.74 5.209c0 0.085 0.057 0.171 0.171 0.171h4.898c0.114 0 0.199-0.085 0.199-0.171l0.74-5.209c0-0.085 0.114-0.171 0.199-0.171h2.591c0.114 0 0.171 0.085 0.171 0.171l-1.936 13.633c0 0.085-0.114 0.171-0.199 0.171h-2.591c-0.114 0-0.171-0.085-0.171-0.171l0.74-5.18zM40.936 14.549c0 0.114-0.114 0.171-0.199 0.171h-6.322c-0.114 0-0.199 0.085-0.199 0.171l-0.342 2.391c-0.028 0.085 0.057 0.171 0.171 0.171h5.781c0.114 0 0.171 0.085 0.171 0.171l-0.342 2.476c0 0.085-0.114 0.171-0.199 0.171h-5.781c-0.114 0-0.199 0.085-0.199 0.171l-0.342 2.419c0 0.114 0.057 0.171 0.171 0.171h6.322c0.114 0 0.171 0.085 0.171 0.171l-0.342 2.476c0 0.085-0.114 0.171-0.199 0.171h-9.312c-0.114 0-0.171-0.085-0.171-0.171l1.936-13.662c0-0.085 0.114-0.171 0.199-0.171h9.312c0.114 0 0.171 0.085 0.171 0.171l-0.456 2.533zM55.659 18.448c1.652 0.854 1.766 2.476 1.367 3.899-0.541 1.879-2.164 3.558-5.439 3.558h-5.667c-0.057 0-0.057-0.028-0.057-0.085 0.085-0.655 1.936-13.633 1.965-13.832 0-0.057 0.057-0.114 0.171-0.114h5.496c2.449 0 4.272 1.395 3.901 4.127-0.171 0.797-0.712 1.907-1.737 2.448zM49.622 19.899l-0.427 3.131c0 0 0 0.057 0.057 0.057 0.028 0 2.62 0 2.62 0 2.791 0 3.275-3.216 0.456-3.216h-2.648c-0.028 0-0.057 0.028-0.057 0.028zM52.669 17.395c2.022 0 2.648-2.647 0.37-2.647h-2.648c-0.057 0-0.057 0.028-0.057 0.028l-0.37 2.562c0 0 0 0.028 0.028 0.028h2.677v0.028zM73.684 11.873c0.114 0 0.171 0.085 0.171 0.171l-0.37 2.562c-0.028 0.085-0.114 0.171-0.199 0.171h-3.73c-0.114 0-0.199 0.085-0.199 0.171l-1.509 10.73c0 0.114-0.114 0.171-0.199 0.171h-2.62c-0.114 0-0.171-0.085-0.171-0.171l1.509-10.73c0-0.114-0.057-0.171-0.171-0.171h-3.73c-0.114 0-0.171-0.085-0.171-0.171l0.37-2.562c0.028-0.114 0.114-0.171 0.199-0.171h10.821zM84.562 14.549c0 0.114-0.114 0.171-0.199 0.171h-6.322c-0.114 0-0.199 0.085-0.199 0.171l-0.342 2.391c-0.028 0.085 0.057 0.171 0.171 0.171h5.781c0.114 0 0.171 0.085 0.171 0.171l-0.342 2.476c0 0.085-0.114 0.171-0.199 0.171h-5.838c-0.114 0-0.199 0.085-0.199 0.171l-0.342 2.419c0 0.114 0.057 0.171 0.171 0.171h6.322c0.114 0 0.171 0.085 0.171 0.171l-0.342 2.476c0 0.085-0.114 0.171-0.199 0.171h-9.312c-0.114 0-0.171-0.085-0.171-0.171l1.936-13.662c0-0.085 0.114-0.171 0.199-0.171h9.312c0.114 0 0.171 0.085 0.171 0.171l-0.399 2.533zM90.315 12.072c0.057-0.085 0.171-0.171 0.256-0.171h2.478c0.114 0 0.199 0.085 0.228 0.171l3.047 13.662c0.028 0.085-0.057 0.171-0.142 0.171h-2.734c-0.114 0-0.199-0.085-0.228-0.171l-0.712-2.846c-0.028-0.085-0.142-0.171-0.228-0.171h-3.873c-0.114 0-0.228 0.085-0.256 0.171 0 0-0.911 1.793-1.538 3.045h-2.99c-0.114 0-0.142-0.085-0.114-0.171l6.806-13.69zM91.311 15.089c-0.028 0-0.085 0.085-0.142 0.171l-0.541 1.565c-0.028 0.085-0.085 0.256-0.142 0.342l-1.111 2.675c-0.028 0.085 0 0.171 0.114 0.171h2.364c0.114 0 0.171-0.085 0.171-0.171l-0.427-2.675c-0.028-0.085-0.028-0.256-0.057-0.37l-0.171-1.537c0-0.085-0.028-0.171-0.057-0.171zM108.796 17.708c-0.028 0-0.114 0.085-0.142 0.171l-0.769 1.537c-0.057 0.085-0.114 0.228-0.171 0.313l-2.392 4.184c-0.057 0.085-0.171 0.171-0.285 0.171h-1.851c-0.114 0-0.199-0.085-0.228-0.171l-1.225-4.155c-0.028-0.085-0.085-0.256-0.085-0.342l-0.399-1.537c-0.028-0.085-0.085-0.171-0.114-0.171s-0.057 0.085-0.057 0.199l-0.085 2.305c0 0.114-0.028 0.256-0.028 0.37l-0.74 5.209c0 0.085-0.114 0.171-0.199 0.171h-2.591c-0.114 0-0.171-0.085-0.171-0.171l1.936-13.633c0-0.085 0.114-0.171 0.199-0.171h2.734c0.114 0 0.199 0.085 0.228 0.171l2.221 7.713c0.028 0.085 0.085 0.114 0.142 0.028l4.471-7.742c0.057-0.085 0.171-0.171 0.285-0.171h2.734c0.114 0 0.171 0.085 0.171 0.171l-1.936 13.633c-0.028 0.085-0.114 0.171-0.199 0.171h-2.591c-0.114 0-0.171-0.085-0.171-0.171l0.74-5.209c0-0.114 0.057-0.256 0.057-0.37l0.57-2.277c0-0.142-0.028-0.228-0.057-0.228z"></path>
</symbol>
<symbol id="icon-uk-aid" viewBox="0 0 29 32">
<title>uk-aid</title>
<path d="M0.010 20.989h-0.010v3.921c0 0.676 0.106 1.199 0.317 1.58 0.404 0.695 1.153 1.037 2.268 1.037 1.105 0 1.865-0.343 2.259-1.037 0.211-0.371 0.317-0.904 0.317-1.58v-3.921h-1.365v3.911c0 0.438-0.048 0.761-0.154 0.961-0.163 0.352-0.519 0.533-1.057 0.533s-0.894-0.171-1.057-0.533c-0.106-0.2-0.154-0.523-0.154-0.961v-3.911h-1.365zM6.538 20.989v6.538h1.364v-2.186l0.662-0.673 2.045 2.859h1.779l-2.856-3.854 2.717-2.683h-1.788l-2.559 2.693v-2.693h-1.364zM15.967 23.549c0.305-0.038 0.515-0.086 0.649-0.143 0.229-0.095 0.353-0.247 0.353-0.457 0-0.257-0.086-0.428-0.267-0.523s-0.439-0.143-0.792-0.143c-0.391 0-0.668 0.095-0.83 0.285-0.114 0.143-0.191 0.333-0.229 0.571h-1.565c0.038-0.542 0.191-0.99 0.458-1.332 0.429-0.542 1.174-0.818 2.223-0.818 0.687 0 1.288 0.133 1.823 0.4s0.792 0.78 0.792 1.523v2.845c0 0.2 0 0.438 0.010 0.714 0.010 0.209 0.048 0.352 0.095 0.428 0.057 0.076 0.134 0.143 0.239 0.19v0.238h-1.765c-0.048-0.124-0.086-0.247-0.105-0.352-0.019-0.114-0.038-0.238-0.048-0.371-0.229 0.247-0.487 0.447-0.782 0.619-0.353 0.2-0.754 0.305-1.193 0.305-0.563 0-1.031-0.162-1.403-0.485s-0.553-0.771-0.553-1.361c0-0.761 0.296-1.313 0.887-1.656 0.324-0.19 0.802-0.314 1.441-0.4l0.563-0.076zM16.969 24.31c-0.105 0.067-0.21 0.114-0.315 0.152s-0.248 0.076-0.439 0.114l-0.372 0.067c-0.344 0.057-0.592 0.133-0.744 0.219-0.258 0.152-0.382 0.381-0.382 0.685 0 0.276 0.076 0.476 0.239 0.6 0.153 0.124 0.344 0.181 0.573 0.181 0.353 0 0.687-0.105 0.983-0.305 0.296-0.209 0.458-0.581 0.468-1.123v-0.59h-0.010zM19.957 18.925v1.72h1.72v-1.72h-1.72zM19.957 21.333v6.194h1.72v-6.194h-1.72zM26.484 21.3c0.302 0.169 0.546 0.408 0.732 0.716v-3.091h1.687v8.747h-1.619v-0.895c-0.234 0.388-0.507 0.666-0.81 0.835-0.302 0.179-0.683 0.258-1.131 0.258-0.741 0-1.366-0.308-1.873-0.915-0.507-0.616-0.761-1.402-0.761-2.356 0-1.103 0.254-1.978 0.751-2.604 0.497-0.636 1.17-0.954 2-0.954 0.39 0 0.732 0.089 1.024 0.258zM26.894 25.923c0.244-0.358 0.371-0.815 0.371-1.382 0-0.795-0.195-1.362-0.585-1.7-0.244-0.209-0.517-0.308-0.839-0.308-0.488 0-0.839 0.189-1.073 0.557-0.224 0.378-0.341 0.835-0.341 1.392 0 0.596 0.117 1.074 0.351 1.431s0.585 0.537 1.053 0.537c0.458 0 0.819-0.169 1.063-0.527zM28.903 5.849v-3.785l-6.194 3.785h6.194zM11.699 0h-8.258l8.258 4.817v-4.817zM0 11.355v3.785l6.194-3.785h-6.194zM17.204 0h8.258l-8.258 4.817v-4.817zM0 2.065l6.194 3.785h-6.194v-3.785zM28.903 15.14l-6.194-3.785h6.194v3.785zM3.441 17.204l8.258-4.817v4.817h-8.258zM17.204 17.204h8.258l-8.258-4.817v4.817zM7.384 5.735l-7.384-4.396v-1.339l9.634 5.735h-2.25zM21.519 11.46l7.384 4.396v1.339l-9.634-5.725h2.25v-0.010zM17.34 5.541l9.313-5.541h2.25l-9.634 5.735h-1.929v-0.194zM0 17.195l9.634-5.725h1.929v0.194l-9.313 5.541h-2.25v-0.010zM12.723 17.204h3.468v-6.884h12.713v-3.437h-12.713v-6.884h-3.468v6.884h-12.723v3.437h12.723v6.884zM0 30.078h0.261v1.331h0.241v-1.321h0.29v-0.22h-0.29v-0.21c0-0.070 0.019-0.12 0.048-0.14 0.029-0.030 0.077-0.040 0.135-0.040 0.019 0 0.039 0 0.068 0 0.019 0.010 0.048 0.010 0.068 0.020v-0.22c-0.019-0.010-0.048-0.020-0.077-0.020-0.029-0.010-0.058-0.010-0.077-0.010-0.135 0-0.241 0.040-0.309 0.1s-0.106 0.15-0.106 0.28v0.23h-0.251v0.22zM1.177 29.858v0.33h0.010c0.058-0.13 0.135-0.22 0.222-0.28s0.193-0.090 0.328-0.080v0.27c-0.097 0-0.183 0.010-0.251 0.040s-0.125 0.070-0.164 0.12c-0.039 0.050-0.077 0.12-0.097 0.2s-0.029 0.16-0.029 0.26v0.691h-0.241v-1.541h0.222v-0.010zM1.834 30.308c0.029-0.1 0.077-0.18 0.135-0.26 0.058-0.070 0.135-0.13 0.232-0.17 0.087-0.040 0.193-0.060 0.309-0.060s0.222 0.020 0.309 0.060c0.087 0.040 0.164 0.1 0.222 0.17s0.106 0.16 0.135 0.26c0.029 0.1 0.048 0.2 0.048 0.32 0 0.11-0.019 0.22-0.048 0.32s-0.077 0.18-0.135 0.26c-0.058 0.070-0.135 0.13-0.222 0.17s-0.193 0.060-0.309 0.060c-0.116 0-0.222-0.020-0.309-0.060s-0.164-0.1-0.232-0.17c-0.058-0.070-0.106-0.16-0.135-0.26s-0.048-0.2-0.048-0.32c0-0.11 0.019-0.22 0.048-0.32zM2.085 30.879c0.019 0.070 0.058 0.13 0.097 0.18s0.087 0.090 0.145 0.11c0.058 0.030 0.116 0.040 0.183 0.040s0.125-0.010 0.183-0.040c0.058-0.030 0.106-0.060 0.145-0.11s0.077-0.11 0.097-0.18c0.019-0.070 0.039-0.16 0.039-0.25s-0.010-0.18-0.039-0.25c-0.019-0.070-0.058-0.13-0.097-0.18s-0.097-0.090-0.145-0.11c-0.058-0.030-0.116-0.040-0.183-0.040s-0.125 0.010-0.183 0.040c-0.058 0.030-0.106 0.060-0.145 0.11s-0.077 0.11-0.097 0.18c-0.019 0.070-0.039 0.16-0.039 0.25s0.019 0.18 0.039 0.25zM3.716 29.858v0.23h0.010c0.116-0.18 0.27-0.26 0.483-0.26 0.097 0 0.174 0.020 0.251 0.060s0.125 0.11 0.154 0.2c0.048-0.080 0.116-0.15 0.193-0.19 0.077-0.050 0.174-0.070 0.27-0.070 0.077 0 0.145 0.010 0.203 0.030s0.116 0.040 0.154 0.080c0.039 0.040 0.077 0.080 0.097 0.14s0.039 0.12 0.039 0.2v1.131h-0.241v-1.011c0-0.050 0-0.090-0.010-0.13s-0.019-0.080-0.039-0.11c-0.019-0.030-0.048-0.060-0.087-0.070-0.039-0.020-0.087-0.030-0.145-0.030-0.125 0-0.212 0.040-0.29 0.11-0.068 0.070-0.106 0.17-0.106 0.29v0.961h-0.241v-1.011c0-0.050 0-0.1-0.010-0.14s-0.019-0.080-0.048-0.11c-0.019-0.030-0.048-0.050-0.087-0.070s-0.077-0.030-0.135-0.030c-0.068 0-0.135 0.010-0.183 0.040s-0.097 0.070-0.125 0.11c-0.029 0.040-0.058 0.080-0.068 0.13-0.010 0.040-0.019 0.080-0.019 0.11v0.961h-0.241v-1.541h0.222v-0.010zM7.374 29.858v0.22h-0.299v0.961c0 0.030 0 0.050 0.010 0.070s0.010 0.030 0.029 0.040c0.010 0.010 0.029 0.020 0.058 0.020 0.019 0 0.058 0 0.097 0h0.116v0.22h-0.183c-0.068 0-0.116 0-0.164-0.010s-0.077-0.030-0.106-0.050c-0.029-0.020-0.048-0.060-0.058-0.1s-0.019-0.1-0.019-0.17v-0.981h-0.251v-0.22h0.251v-0.46h0.241v0.46h0.28zM7.837 29.267v0.811h0.010c0.019-0.050 0.048-0.090 0.077-0.12 0.039-0.030 0.077-0.060 0.116-0.080s0.087-0.040 0.135-0.050c0.048-0.010 0.097-0.010 0.135-0.010 0.097 0 0.183 0.010 0.241 0.040 0.068 0.030 0.116 0.070 0.154 0.12s0.068 0.11 0.087 0.18c0.019 0.070 0.029 0.14 0.029 0.23v1.011h-0.241v-1.041c0-0.1-0.029-0.17-0.077-0.23-0.058-0.060-0.125-0.080-0.222-0.080-0.077 0-0.135 0.010-0.193 0.040-0.058 0.020-0.097 0.060-0.135 0.1s-0.068 0.090-0.077 0.15c-0.019 0.060-0.029 0.12-0.029 0.19v0.871h-0.241v-2.132h0.232zM10.202 31.299c-0.116 0.090-0.251 0.13-0.425 0.13-0.116 0-0.222-0.020-0.309-0.060s-0.164-0.1-0.222-0.17c-0.058-0.070-0.106-0.16-0.135-0.26s-0.048-0.21-0.048-0.33c0-0.12 0.019-0.22 0.048-0.32 0.039-0.1 0.087-0.18 0.145-0.25s0.135-0.13 0.222-0.17c0.087-0.040 0.183-0.060 0.28-0.060 0.135 0 0.241 0.030 0.328 0.090s0.154 0.13 0.212 0.22c0.048 0.090 0.087 0.18 0.106 0.29 0.019 0.1 0.029 0.2 0.029 0.3h-1.11c0 0.070 0.010 0.13 0.019 0.19 0.019 0.060 0.048 0.11 0.087 0.16s0.087 0.080 0.145 0.11c0.058 0.030 0.125 0.040 0.212 0.040 0.106 0 0.193-0.020 0.251-0.070 0.068-0.050 0.106-0.13 0.135-0.23h0.241c-0.029 0.17-0.106 0.3-0.212 0.39zM10.144 30.308c-0.019-0.050-0.048-0.1-0.087-0.14s-0.077-0.070-0.135-0.090c-0.048-0.020-0.106-0.030-0.164-0.030-0.068 0-0.116 0.010-0.174 0.030-0.048 0.020-0.097 0.050-0.135 0.090s-0.068 0.090-0.087 0.14c-0.019 0.050-0.029 0.11-0.039 0.17h0.859c-0.010-0.060-0.019-0.12-0.039-0.17zM12.277 29.267c0.048 0 0.087 0 0.145 0 0.048 0 0.097 0 0.154 0.010 0.048 0 0.097 0.010 0.135 0.020s0.077 0.020 0.106 0.040c0.068 0.040 0.125 0.1 0.174 0.17s0.068 0.16 0.068 0.27c0 0.11-0.029 0.21-0.077 0.29s-0.125 0.14-0.222 0.18v0.010c0.125 0.030 0.222 0.090 0.29 0.18s0.097 0.2 0.097 0.33c0 0.080-0.010 0.15-0.039 0.23-0.029 0.070-0.068 0.14-0.116 0.2s-0.116 0.1-0.193 0.14c-0.077 0.030-0.164 0.050-0.27 0.050h-0.994v-2.132h0.743v0.010zM12.354 30.178c0.154 0 0.27-0.030 0.338-0.090s0.106-0.14 0.106-0.26c0-0.080-0.010-0.14-0.039-0.18-0.019-0.040-0.058-0.080-0.097-0.1s-0.087-0.040-0.135-0.050c-0.048-0.010-0.106-0.010-0.164-0.010h-0.56v0.681h0.55v0.010zM12.489 31.159c0.125 0 0.212-0.030 0.28-0.1s0.106-0.16 0.106-0.28c0-0.070-0.010-0.13-0.039-0.17-0.029-0.050-0.058-0.080-0.097-0.11s-0.087-0.050-0.145-0.060c-0.058-0.010-0.106-0.020-0.164-0.020h-0.627v0.741h0.685zM13.647 29.858v0.33h0.010c0.058-0.13 0.135-0.22 0.222-0.28s0.193-0.090 0.328-0.080v0.27c-0.097 0-0.183 0.010-0.251 0.040s-0.125 0.070-0.164 0.12c-0.039 0.050-0.077 0.12-0.097 0.2s-0.029 0.16-0.029 0.26v0.691h-0.241v-1.541h0.222v-0.010zM14.371 29.267v0.31h0.344v-0.31h-0.344zM14.715 31.399v-1.541h-0.344v1.541h0.344zM15.587 29.858v0.22h-0.299v0.961c0 0.030 0 0.050 0.010 0.070s0.010 0.030 0.029 0.040c0.010 0.010 0.029 0.020 0.058 0.020 0.019 0 0.058 0 0.097 0h0.116v0.22h-0.183c-0.068 0-0.116 0-0.164-0.010s-0.077-0.030-0.106-0.050c-0.029-0.020-0.048-0.060-0.058-0.1s-0.019-0.1-0.019-0.17v-0.981h-0.251v-0.22h0.251v-0.46h0.241v0.46h0.28zM15.809 29.267v0.31h0.344v-0.31h-0.344zM16.153 31.399h-0.344v-1.541h0.344v1.541zM16.581 31.049c0.019 0.040 0.058 0.070 0.087 0.090 0.039 0.020 0.077 0.040 0.125 0.050s0.097 0.010 0.145 0.010c0.039 0 0.077 0 0.125-0.010 0.039-0.010 0.077-0.020 0.116-0.030 0.039-0.020 0.068-0.040 0.087-0.070s0.039-0.070 0.039-0.12c0-0.070-0.019-0.12-0.068-0.15s-0.106-0.060-0.183-0.080c-0.077-0.020-0.154-0.040-0.232-0.060-0.087-0.020-0.164-0.040-0.232-0.070s-0.135-0.070-0.183-0.13c-0.048-0.060-0.068-0.13-0.068-0.23 0-0.080 0.019-0.14 0.048-0.2s0.077-0.1 0.125-0.14c0.048-0.030 0.116-0.060 0.174-0.080 0.068-0.020 0.135-0.030 0.193-0.030 0.087 0 0.164 0.010 0.232 0.020 0.068 0.020 0.135 0.040 0.193 0.080s0.097 0.090 0.135 0.15c0.029 0.060 0.048 0.14 0.058 0.23h-0.241c0-0.050-0.019-0.090-0.039-0.12s-0.048-0.060-0.077-0.080c-0.029-0.020-0.068-0.030-0.106-0.040s-0.077-0.010-0.116-0.010c-0.039 0-0.077 0-0.106 0.010-0.039 0.010-0.068 0.020-0.106 0.030-0.029 0.010-0.058 0.030-0.077 0.060-0.019 0.020-0.029 0.060-0.029 0.1s0.019 0.080 0.048 0.11c0.029 0.030 0.068 0.050 0.116 0.070s0.097 0.030 0.154 0.050c0.058 0.010 0.116 0.030 0.174 0.040s0.125 0.030 0.183 0.050c0.058 0.020 0.106 0.050 0.154 0.080s0.077 0.070 0.106 0.12c0.029 0.050 0.039 0.11 0.039 0.19 0 0.090-0.019 0.17-0.058 0.23s-0.087 0.11-0.145 0.15c-0.058 0.040-0.125 0.060-0.203 0.080-0.077 0.010-0.154 0.020-0.222 0.020-0.087 0-0.164-0.010-0.232-0.030-0.077-0.020-0.145-0.050-0.203-0.090s-0.106-0.090-0.135-0.16c-0.039-0.070-0.058-0.15-0.058-0.24h0.241c-0.010 0.070 0 0.11 0.019 0.15zM18.049 29.267v0.811h0.010c0.019-0.050 0.048-0.090 0.077-0.12 0.039-0.030 0.077-0.060 0.116-0.080s0.087-0.040 0.135-0.050c0.048-0.010 0.097-0.010 0.135-0.010 0.097 0 0.183 0.010 0.241 0.040 0.068 0.030 0.116 0.070 0.154 0.12s0.068 0.11 0.087 0.18c0.019 0.070 0.029 0.14 0.029 0.23v1.011h-0.241v-1.041c0-0.1-0.029-0.17-0.077-0.23-0.058-0.060-0.125-0.080-0.222-0.080-0.077 0-0.135 0.010-0.193 0.040-0.058 0.020-0.097 0.060-0.135 0.1s-0.068 0.090-0.087 0.15c-0.019 0.060-0.029 0.12-0.029 0.19v0.871h-0.241v-2.132h0.241zM20.461 29.858v0.21h0.010c0.039-0.090 0.106-0.15 0.193-0.19s0.183-0.060 0.29-0.060c0.116 0 0.212 0.020 0.299 0.070 0.087 0.040 0.154 0.1 0.212 0.18 0.058 0.070 0.097 0.16 0.125 0.26s0.039 0.2 0.039 0.31c0 0.11-0.010 0.21-0.039 0.31s-0.068 0.18-0.125 0.26c-0.058 0.070-0.125 0.13-0.212 0.17s-0.183 0.060-0.299 0.060c-0.039 0-0.077 0-0.125-0.010s-0.087-0.020-0.135-0.040c-0.048-0.020-0.087-0.040-0.125-0.070s-0.077-0.070-0.097-0.11h-0.010v0.791h-0.241v-2.132h0.241v-0.010zM21.34 30.398c-0.019-0.070-0.048-0.13-0.087-0.18s-0.087-0.1-0.145-0.13c-0.058-0.030-0.125-0.050-0.203-0.050-0.087 0-0.154 0.020-0.212 0.050s-0.106 0.080-0.145 0.13c-0.039 0.050-0.068 0.12-0.077 0.19-0.019 0.070-0.029 0.14-0.029 0.21 0 0.080 0.010 0.15 0.029 0.22s0.048 0.13 0.087 0.19c0.039 0.050 0.087 0.1 0.145 0.13s0.135 0.050 0.212 0.050c0.077 0 0.154-0.020 0.212-0.050s0.106-0.080 0.135-0.13c0.039-0.060 0.058-0.12 0.077-0.19s0.019-0.15 0.019-0.22c0.010-0.080 0-0.15-0.019-0.22zM22.932 31.299c-0.116 0.090-0.251 0.13-0.425 0.13-0.116 0-0.222-0.020-0.309-0.060s-0.164-0.1-0.222-0.17c-0.058-0.070-0.106-0.16-0.135-0.26s-0.048-0.21-0.048-0.33c0-0.12 0.019-0.22 0.048-0.32 0.039-0.1 0.087-0.18 0.145-0.25s0.135-0.13 0.222-0.17c0.087-0.040 0.183-0.060 0.28-0.060 0.135 0 0.241 0.030 0.328 0.090s0.154 0.13 0.212 0.22c0.048 0.090 0.087 0.18 0.106 0.29 0.019 0.1 0.029 0.2 0.029 0.3h-1.11c0 0.070 0.010 0.13 0.019 0.19 0.019 0.060 0.048 0.11 0.087 0.16s0.087 0.080 0.145 0.11c0.058 0.030 0.125 0.040 0.212 0.040 0.106 0 0.193-0.020 0.251-0.070 0.068-0.050 0.106-0.13 0.135-0.23h0.241c-0.029 0.17-0.106 0.3-0.212 0.39zM22.865 30.308c-0.019-0.050-0.048-0.1-0.087-0.14s-0.077-0.070-0.135-0.090c-0.048-0.020-0.106-0.030-0.164-0.030-0.068 0-0.116 0.010-0.174 0.030-0.048 0.020-0.097 0.050-0.135 0.090s-0.068 0.090-0.087 0.14c-0.019 0.050-0.029 0.11-0.039 0.17h0.859c0-0.060-0.010-0.12-0.039-0.17zM23.367 30.308c0.029-0.1 0.077-0.18 0.135-0.26 0.058-0.070 0.135-0.13 0.232-0.17 0.087-0.040 0.193-0.060 0.309-0.060s0.222 0.020 0.309 0.060c0.087 0.040 0.164 0.1 0.222 0.17s0.106 0.16 0.135 0.26c0.029 0.1 0.048 0.2 0.048 0.32 0 0.11-0.019 0.22-0.048 0.32s-0.077 0.18-0.135 0.26c-0.058 0.070-0.135 0.13-0.222 0.17s-0.193 0.060-0.309 0.060c-0.116 0-0.222-0.020-0.309-0.060s-0.164-0.1-0.232-0.17c-0.058-0.070-0.106-0.16-0.135-0.26s-0.048-0.2-0.048-0.32c0-0.11 0.019-0.22 0.048-0.32zM23.617 30.879c0.019 0.070 0.058 0.13 0.097 0.18s0.087 0.090 0.145 0.11c0.058 0.030 0.116 0.040 0.183 0.040s0.125-0.010 0.183-0.040c0.058-0.030 0.106-0.060 0.145-0.11s0.077-0.11 0.097-0.18c0.019-0.070 0.039-0.16 0.039-0.25s-0.010-0.18-0.039-0.25c-0.019-0.070-0.058-0.13-0.097-0.18s-0.097-0.090-0.145-0.11c-0.058-0.030-0.116-0.040-0.183-0.040s-0.125 0.010-0.183 0.040c-0.058 0.030-0.106 0.060-0.145 0.11s-0.077 0.11-0.097 0.18c-0.019 0.070-0.039 0.16-0.039 0.25s0.010 0.18 0.039 0.25zM25.268 29.858v0.21h0.010c0.039-0.090 0.106-0.15 0.193-0.19s0.183-0.060 0.29-0.060c0.116 0 0.212 0.020 0.299 0.070 0.087 0.040 0.154 0.1 0.212 0.18 0.058 0.070 0.097 0.16 0.125 0.26s0.039 0.2 0.039 0.31c0 0.11-0.010 0.21-0.039 0.31s-0.068 0.18-0.125 0.26c-0.058 0.070-0.125 0.13-0.212 0.17s-0.183 0.060-0.299 0.060c-0.039 0-0.077 0-0.125-0.010s-0.087-0.020-0.135-0.040c-0.048-0.020-0.087-0.040-0.125-0.070s-0.077-0.070-0.097-0.11h-0.010v0.791h-0.241v-2.132h0.241v-0.010zM26.146 30.398c-0.019-0.070-0.048-0.13-0.087-0.18s-0.087-0.1-0.145-0.13c-0.058-0.030-0.125-0.050-0.203-0.050-0.087 0-0.154 0.020-0.212 0.050s-0.106 0.080-0.145 0.13c-0.039 0.050-0.068 0.12-0.077 0.19-0.019 0.070-0.029 0.14-0.029 0.21 0 0.080 0.010 0.15 0.029 0.22s0.048 0.13 0.087 0.19c0.039 0.050 0.087 0.1 0.145 0.13s0.135 0.050 0.212 0.050c0.077 0 0.154-0.020 0.212-0.050s0.106-0.080 0.135-0.13c0.039-0.060 0.058-0.12 0.077-0.19s0.019-0.15 0.019-0.22c0.010-0.080 0-0.15-0.019-0.22zM26.687 29.267h0.241v2.132h-0.241v-2.132zM28.328 31.299c-0.116 0.090-0.251 0.13-0.425 0.13-0.116 0-0.222-0.020-0.309-0.060s-0.164-0.1-0.222-0.17c-0.058-0.070-0.106-0.16-0.135-0.26s-0.048-0.21-0.048-0.33c0-0.12 0.019-0.22 0.048-0.32 0.039-0.1 0.087-0.18 0.145-0.25s0.135-0.13 0.222-0.17c0.087-0.040 0.183-0.060 0.28-0.060 0.135 0 0.241 0.030 0.328 0.090s0.154 0.13 0.212 0.22c0.048 0.090 0.087 0.18 0.106 0.29s0.029 0.2 0.029 0.3h-1.11c0 0.070 0.010 0.13 0.019 0.19 0.019 0.060 0.048 0.11 0.087 0.16s0.087 0.080 0.145 0.11c0.058 0.030 0.125 0.040 0.212 0.040 0.106 0 0.193-0.020 0.251-0.070 0.068-0.050 0.106-0.13 0.135-0.23h0.241c-0.029 0.17-0.106 0.3-0.212 0.39zM28.27 30.308c-0.019-0.050-0.048-0.1-0.087-0.14s-0.077-0.070-0.135-0.090c-0.048-0.020-0.106-0.030-0.164-0.030-0.068 0-0.116 0.010-0.174 0.030-0.048 0.020-0.097 0.050-0.135 0.090s-0.068 0.090-0.087 0.14c-0.019 0.050-0.029 0.11-0.039 0.17h0.859c-0.010-0.060-0.019-0.12-0.039-0.17z"></path>
</symbol>
</defs>
</svg>
